<svg width="342" height="243" viewBox="0 0 342 243" fill="none" xmlns="http://www.w3.org/2000/svg">
<path d="M48.3769 217.165C112.883 250.862 217.461 250.862 281.959 217.165C346.458 183.468 346.465 128.832 281.959 95.1351C217.453 61.4384 112.875 61.4384 48.3769 95.1351C-16.1218 128.832 -16.1295 183.468 48.3769 217.165Z" fill="#FAFAFA"/>
<path d="M203.203 171.543C188.029 180.297 188.029 194.5 203.203 203.261C218.377 212.022 242.966 212.022 258.14 203.261C273.314 194.5 273.306 180.297 258.14 171.543C242.974 162.79 218.369 162.782 203.203 171.543Z" fill="#EBEBEB"/>
<path d="M43.4424 45.9798L84.0908 33.3387L52.8192 55.0025L43.4424 45.9798Z" fill="#008080"/>
<path d="M84.0903 33.3386L40.3085 40.5598L30.9316 31.5294L84.0903 33.3386Z" fill="#008080"/>
<path d="M40.3086 40.56V51.3919L43.4419 45.9798L84.0904 33.3387L40.3086 40.56Z" fill="#455A64"/>
<path d="M40.3086 51.3917L46.5675 48.9898L43.4419 45.9796L40.3086 51.3917Z" fill="#008080"/>
<path d="M43.4424 45.9796L46.568 48.9898L45.5672 49.367L43.4424 45.9796Z" fill="#455A64"/>
<path d="M33.5721 49.7596C33.4426 49.762 33.3161 49.7208 33.2129 49.6427C33.1096 49.5646 33.0357 49.4541 33.0028 49.3288C32.9699 49.2036 32.9801 49.071 33.0317 48.9522C33.0833 48.8335 33.1733 48.7355 33.2872 48.6741C33.9801 48.2891 34.6807 47.9042 35.3735 47.604C35.4422 47.5668 35.5178 47.544 35.5956 47.5368C35.6734 47.5297 35.7518 47.5384 35.8261 47.5625C35.9004 47.5865 35.9691 47.6254 36.0279 47.6768C36.0868 47.7282 36.1346 47.791 36.1685 47.8613C36.2024 47.9317 36.2216 48.0082 36.2251 48.0863C36.2285 48.1643 36.2161 48.2422 36.1886 48.3153C36.1611 48.3885 36.119 48.4552 36.0649 48.5116C36.0108 48.5679 35.9458 48.6127 35.8739 48.6433C35.2042 48.9666 34.519 49.3131 33.8492 49.6903C33.7635 49.7348 33.6686 49.7585 33.5721 49.7596Z" fill="#E0E0E0"/>
<path d="M26.4662 111.933C26.3483 111.934 26.2327 111.9 26.1352 111.833C24.8831 110.951 23.697 109.978 22.5862 108.923C22.5158 108.877 22.4562 108.817 22.4115 108.746C22.3669 108.675 22.3383 108.595 22.3277 108.512C22.3172 108.428 22.3249 108.344 22.3503 108.264C22.3757 108.184 22.4183 108.11 22.4751 108.048C22.5318 107.987 22.6013 107.938 22.6788 107.906C22.7563 107.873 22.8399 107.858 22.9238 107.862C23.0076 107.865 23.0898 107.887 23.1644 107.925C23.2391 107.964 23.3044 108.018 23.356 108.084C24.4275 109.101 25.5725 110.038 26.7819 110.886C26.8816 110.957 26.956 111.059 26.9943 111.175C27.0327 111.291 27.033 111.417 26.9953 111.534C26.9576 111.65 26.8838 111.752 26.7845 111.824C26.6852 111.895 26.5657 111.934 26.4431 111.933H26.4662ZM20.4306 106.329C20.3453 106.33 20.261 106.311 20.1837 106.275C20.1064 106.239 20.0382 106.187 19.984 106.121C19.014 104.937 18.1314 103.684 17.3434 102.372C17.2638 102.24 17.2398 102.082 17.2766 101.933C17.3134 101.783 17.4081 101.654 17.5398 101.575C17.6714 101.495 17.8294 101.471 17.9788 101.508C18.1282 101.545 18.2569 101.639 18.3366 101.771C19.0956 103.037 19.9446 104.246 20.8771 105.389C20.9733 105.507 21.0191 105.658 21.0047 105.809C20.9903 105.961 20.9168 106.1 20.8001 106.198C20.697 106.285 20.5656 106.331 20.4306 106.329ZM16.0963 99.3229C15.9844 99.324 15.8747 99.2925 15.7804 99.2324C15.6861 99.1723 15.6113 99.0861 15.5651 98.9842C14.936 97.5905 14.396 96.1582 13.9484 94.6961C13.9155 94.5539 13.9378 94.4044 14.0107 94.278C14.0835 94.1515 14.2016 94.0573 14.3412 94.0143C14.4807 93.9714 14.6313 93.9829 14.7627 94.0466C14.8941 94.1102 14.9965 94.2213 15.0493 94.3574C15.4748 95.7715 15.9891 97.1574 16.589 98.5069C16.6212 98.5761 16.6395 98.651 16.6426 98.7273C16.6457 98.8035 16.6337 98.8797 16.6072 98.9513C16.5807 99.0229 16.5403 99.0885 16.4883 99.1444C16.4362 99.2002 16.3737 99.2452 16.3041 99.2767C16.2386 99.3058 16.1679 99.3215 16.0963 99.3229ZM13.5942 91.4627C13.4607 91.4615 13.3317 91.414 13.2293 91.3284C13.1268 91.2428 13.0572 91.1243 13.0322 90.9931C12.7384 89.4973 12.5302 87.9859 12.4087 86.4663C12.3964 86.3132 12.4455 86.1615 12.5451 86.0445C12.6447 85.9276 12.7867 85.855 12.9399 85.8427C13.093 85.8305 13.2447 85.8796 13.3617 85.9792C13.4786 86.0788 13.5512 86.2208 13.5634 86.3739C13.6767 87.8498 13.8772 89.3177 14.1639 90.7698C14.1796 90.8442 14.1802 90.921 14.1657 90.9956C14.1512 91.0702 14.1219 91.1412 14.0796 91.2043C14.0373 91.2674 13.9828 91.3215 13.9192 91.3632C13.8557 91.4049 13.7845 91.4335 13.7097 91.4473L13.5942 91.4627ZM12.8629 83.2406C12.7867 83.2407 12.7114 83.2254 12.6412 83.1958C12.5711 83.1663 12.5076 83.1229 12.4545 83.0684C12.4014 83.0138 12.3597 82.9492 12.332 82.8783C12.3043 82.8074 12.2911 82.7316 12.2932 82.6555C12.3112 81.1318 12.414 79.6103 12.6011 78.098C12.602 78.0168 12.62 77.9367 12.6539 77.863C12.6878 77.7892 12.7369 77.7235 12.798 77.67C12.8591 77.6165 12.9307 77.5764 13.0083 77.5525C13.0859 77.5286 13.1676 77.5213 13.2482 77.5311C13.3288 77.5409 13.4064 77.5676 13.476 77.6094C13.5455 77.6512 13.6055 77.7073 13.652 77.7738C13.6984 77.8404 13.7303 77.916 13.7456 77.9958C13.7608 78.0755 13.7591 78.1575 13.7405 78.2366C13.5625 79.7083 13.4649 81.1886 13.448 82.6709C13.447 82.7468 13.431 82.8216 13.4011 82.8913C13.3711 82.961 13.3278 83.0241 13.2734 83.077C13.2191 83.1299 13.1549 83.1716 13.0844 83.1996C13.014 83.2277 12.9387 83.2416 12.8629 83.2406ZM13.8021 75.0417C13.7588 75.0491 13.7145 75.0491 13.6712 75.0417C13.5225 75.0085 13.3928 74.9178 13.3106 74.7895C13.2284 74.6611 13.2003 74.5055 13.2324 74.3565C13.5697 72.8652 14.0017 71.3969 14.5258 69.9606C14.5513 69.8856 14.5919 69.8167 14.6452 69.7582C14.6985 69.6996 14.7632 69.6526 14.8354 69.6201C14.9076 69.5876 14.9857 69.5703 15.0649 69.5693C15.1441 69.5683 15.2226 69.5835 15.2956 69.6142C15.3699 69.6406 15.4381 69.6818 15.496 69.7353C15.554 69.7887 15.6006 69.8533 15.6329 69.9253C15.6653 69.9972 15.6828 70.0749 15.6843 70.1537C15.6859 70.2325 15.6715 70.3109 15.6421 70.384C15.1369 71.7728 14.7204 73.1922 14.3949 74.6336C14.3569 74.7587 14.2775 74.8672 14.1698 74.9413C14.0622 75.0154 13.9325 75.0508 13.8021 75.0417ZM16.5428 67.2661C16.454 67.2696 16.366 67.2483 16.2887 67.2045C16.2198 67.1724 16.1581 67.1268 16.1071 67.0705C16.0561 67.0141 16.0169 66.9481 15.9917 66.8764C15.9666 66.8046 15.9561 66.7286 15.9609 66.6527C15.9656 66.5769 15.9855 66.5027 16.0193 66.4347C16.6912 65.0627 17.4471 63.7334 18.2827 62.4545C18.3668 62.3352 18.493 62.2523 18.6358 62.2223C18.7786 62.1923 18.9275 62.2175 19.0525 62.2928C19.1746 62.3746 19.2603 62.5003 19.2919 62.6437C19.3234 62.7872 19.2983 62.9373 19.2219 63.0627C18.4098 64.298 17.6769 65.5837 17.0278 66.912C16.988 67.0103 16.9214 67.0956 16.8357 67.1581C16.7501 67.2207 16.6486 67.2581 16.5428 67.2661ZM20.9695 60.3374C20.8407 60.3387 20.7155 60.2952 20.6153 60.2142C20.5553 60.167 20.5053 60.1083 20.4681 60.0415C20.4309 59.9748 20.4073 59.9014 20.3987 59.8255C20.3902 59.7496 20.3967 59.6727 20.418 59.5994C20.4393 59.526 20.475 59.4576 20.5229 59.3982C21.485 58.2097 22.5131 57.0762 23.6024 56.0031C23.7106 55.895 23.8574 55.8342 24.0104 55.8342C24.1634 55.8342 24.3102 55.895 24.4184 56.0031C24.5266 56.1114 24.5873 56.2581 24.5873 56.4111C24.5873 56.5641 24.5266 56.7109 24.4184 56.8191C23.3693 57.8658 22.3773 58.9683 21.4468 60.1218C21.3871 60.1877 21.3129 60.2387 21.23 60.2708C21.1472 60.3029 21.0579 60.3152 20.9695 60.3066V60.3374ZM26.7588 54.4249C26.6749 54.4247 26.592 54.406 26.5161 54.37C26.4403 54.3341 26.3733 54.2819 26.32 54.217C26.2224 54.099 26.1751 53.9474 26.188 53.7949C26.201 53.6423 26.2732 53.5009 26.3893 53.401C27.5612 52.4264 28.7817 51.5117 30.0461 50.6603C30.1702 50.5842 30.3185 50.5577 30.4612 50.5863C30.604 50.6148 30.7307 50.6963 30.8159 50.8143C30.9019 50.9421 30.9339 51.0987 30.9051 51.2501C30.8762 51.4014 30.7889 51.5353 30.662 51.6226C29.4284 52.4509 28.2387 53.3425 27.0975 54.294C27.0008 54.3715 26.8825 54.4173 26.7588 54.4249Z" fill="#E0E0E0"/>
<path d="M31.7634 114.944C31.6808 114.944 31.5991 114.926 31.5248 114.89C30.8088 114.566 30.1005 114.22 29.4231 113.85C29.3568 113.816 29.2981 113.768 29.2502 113.71C29.2024 113.653 29.1664 113.586 29.1442 113.515C29.122 113.443 29.1142 113.368 29.1211 113.294C29.128 113.219 29.1495 113.147 29.1844 113.081C29.2563 112.948 29.377 112.849 29.5208 112.805C29.6646 112.76 29.8202 112.773 29.9543 112.842C30.6163 113.196 31.3015 113.535 31.9944 113.85C32.1132 113.906 32.2097 114 32.268 114.117C32.3263 114.234 32.3429 114.368 32.3151 114.496C32.2874 114.624 32.2169 114.739 32.1152 114.822C32.0135 114.905 31.8868 114.95 31.7557 114.951L31.7634 114.944Z" fill="#E0E0E0"/>
<path d="M295.093 87.0054L327.658 66.1577L342.001 70.7615L295.093 87.0054Z" fill="#008080"/>
<path d="M295.093 87.0053L323.239 63.5401L316.98 56.3188L295.093 87.0053Z" fill="#008080"/>
<path d="M323.239 63.54V68.9829L295.093 87.0052L323.239 63.54Z" fill="#455A64"/>
<path d="M329.59 61.269C329.45 61.2695 329.315 61.2173 329.212 61.1227C329.099 61.0207 329.029 60.8782 329.019 60.7257C329.009 60.5732 329.059 60.4228 329.158 60.3067C330.161 59.1884 331.051 57.9738 331.814 56.6807C331.892 56.5479 332.019 56.4515 332.168 56.4125C332.317 56.3735 332.475 56.3952 332.607 56.4728C332.74 56.5504 332.837 56.6775 332.876 56.8262C332.914 56.9749 332.893 57.133 332.815 57.2658C332.009 58.6213 331.076 59.8973 330.028 61.0765C329.973 61.1382 329.906 61.1872 329.83 61.2204C329.754 61.2537 329.672 61.2702 329.59 61.269ZM333.993 54.0939C333.924 54.1049 333.854 54.1049 333.785 54.0939C333.712 54.0661 333.646 54.0237 333.59 53.9695C333.534 53.9152 333.489 53.8501 333.459 53.7782C333.429 53.7062 333.413 53.6289 333.414 53.5508C333.414 53.4728 333.431 53.3956 333.462 53.3241C334.006 51.9218 334.413 50.4703 334.678 48.9898C334.706 48.8387 334.792 48.7047 334.919 48.6174C335.045 48.5301 335.201 48.4965 335.352 48.524C335.503 48.5516 335.637 48.6381 335.724 48.7644C335.812 48.8907 335.845 49.0466 335.818 49.1977C335.534 50.749 335.104 52.2699 334.532 53.7398C334.488 53.8464 334.414 53.9372 334.317 54.0005C334.221 54.0637 334.108 54.0963 333.993 54.0939ZM335.641 45.8334C335.565 45.8324 335.491 45.8164 335.421 45.7864C335.352 45.7563 335.289 45.7128 335.237 45.6584C335.185 45.6039 335.144 45.5396 335.117 45.4692C335.09 45.3988 335.077 45.3237 335.079 45.2483C335.079 45.0481 335.079 44.848 335.079 44.6478C335.075 43.3408 334.972 42.036 334.771 40.7446C334.748 40.5927 334.787 40.4381 334.878 40.3143C334.968 40.1904 335.104 40.1072 335.256 40.0825C335.407 40.0624 335.561 40.1016 335.684 40.1919C335.808 40.2823 335.891 40.4169 335.918 40.5676C336.126 41.9177 336.231 43.2817 336.233 44.6478C336.233 44.8557 336.233 45.0635 336.233 45.2714C336.227 45.4239 336.162 45.568 336.051 45.6729C335.941 45.7779 335.793 45.8355 335.641 45.8334ZM334.478 37.4881C334.354 37.4877 334.234 37.4469 334.135 37.3719C334.036 37.2969 333.965 37.1917 333.932 37.0724C333.49 35.6279 332.936 34.2199 332.276 32.8613C332.242 32.7932 332.223 32.7191 332.218 32.6432C332.213 32.5673 332.224 32.4913 332.249 32.4196C332.274 32.3478 332.313 32.2818 332.364 32.2255C332.415 32.1691 332.477 32.1236 332.546 32.0914C332.684 32.0253 332.842 32.0165 332.986 32.067C333.131 32.1175 333.249 32.2232 333.316 32.3609C334.004 33.7727 334.578 35.2376 335.032 36.7414C335.055 36.8136 335.063 36.8897 335.055 36.965C335.048 37.0403 335.026 37.1134 334.99 37.1801C334.954 37.2467 334.906 37.3056 334.847 37.3532C334.788 37.4008 334.72 37.4362 334.647 37.4573C334.594 37.4787 334.536 37.4891 334.478 37.4881ZM330.906 29.8435C330.809 29.8443 330.713 29.82 330.628 29.7728C330.543 29.7255 330.472 29.657 330.421 29.574C329.596 28.3071 328.688 27.0958 327.703 25.948C327.654 25.8904 327.616 25.8236 327.592 25.7514C327.568 25.6792 327.559 25.603 327.565 25.5272C327.57 25.4513 327.591 25.3774 327.625 25.3096C327.66 25.2417 327.707 25.1814 327.765 25.1319C327.822 25.0824 327.888 25.0448 327.96 25.0211C328.031 24.9974 328.107 24.9881 328.182 24.9938C328.257 24.9996 328.331 25.0202 328.398 25.0544C328.465 25.0887 328.525 25.136 328.573 25.1935C329.595 26.3816 330.537 27.6367 331.391 28.9504C331.462 29.0772 331.484 29.2256 331.453 29.3676C331.422 29.5095 331.339 29.635 331.222 29.7203C331.13 29.788 331.02 29.8281 330.906 29.8357V29.8435ZM325.517 23.369C325.37 23.3685 325.229 23.3104 325.124 23.2073C324.016 22.1697 322.851 21.1931 321.637 20.2818C321.576 20.2363 321.525 20.1793 321.486 20.1141C321.448 20.0488 321.422 19.9766 321.412 19.9016C321.401 19.8265 321.405 19.7501 321.424 19.6766C321.443 19.6032 321.476 19.5341 321.521 19.4735C321.567 19.4128 321.624 19.3617 321.689 19.3231C321.754 19.2845 321.827 19.259 321.902 19.2483C321.977 19.2376 322.053 19.2418 322.127 19.2606C322.2 19.2794 322.269 19.3125 322.33 19.358C323.581 20.2933 324.779 21.2983 325.917 22.3681C326.003 22.4475 326.062 22.5509 326.088 22.6648C326.114 22.7787 326.104 22.8977 326.061 23.0061C326.018 23.1144 325.942 23.2071 325.845 23.2719C325.748 23.3367 325.634 23.3705 325.517 23.369ZM318.765 18.2417C318.656 18.2407 318.549 18.2086 318.457 18.1493C317.934 17.826 317.387 17.5026 316.833 17.187C316.063 16.7559 315.293 16.3248 314.477 15.9167C314.403 15.8869 314.335 15.8418 314.279 15.7844C314.223 15.727 314.18 15.6585 314.151 15.5834C314.123 15.5082 314.111 15.428 314.116 15.3479C314.12 15.2677 314.141 15.1894 314.178 15.118C314.215 15.0465 314.266 14.9834 314.328 14.9328C314.39 14.8822 314.462 14.8451 314.54 14.8239C314.617 14.8027 314.698 14.7979 314.777 14.8098C314.857 14.8216 314.933 14.8499 315.001 14.8928C315.809 15.3086 316.617 15.7397 317.403 16.1862C317.972 16.5018 318.527 16.8329 319.066 17.1716C319.19 17.251 319.279 17.3751 319.315 17.5182C319.351 17.6614 319.33 17.8129 319.258 17.9415C319.208 18.0293 319.137 18.103 319.051 18.1556C318.964 18.2081 318.866 18.2378 318.765 18.2417ZM249.748 17.8491C249.646 17.848 249.546 17.8204 249.459 17.7691C249.371 17.7178 249.298 17.6446 249.247 17.5565C249.174 17.4265 249.155 17.2731 249.194 17.1292C249.233 16.9852 249.327 16.8623 249.455 16.7867C250.795 16.0168 252.173 15.247 253.566 14.6003C253.703 14.5336 253.861 14.5236 254.005 14.5727C254.149 14.6217 254.268 14.7257 254.336 14.862C254.4 15.0002 254.408 15.1579 254.358 15.3017C254.307 15.4454 254.203 15.5639 254.067 15.6319C252.696 16.3017 251.341 17.0176 250.025 17.7798C249.939 17.8217 249.843 17.8403 249.748 17.8337V17.8491ZM311.259 14.3308C311.179 14.3313 311.1 14.3129 311.028 14.2769C309.643 13.6688 308.211 13.0991 306.779 12.591C306.634 12.5389 306.515 12.4314 306.45 12.292C306.384 12.1527 306.376 11.993 306.428 11.848C306.48 11.7031 306.588 11.5847 306.727 11.519C306.867 11.4533 307.026 11.4457 307.171 11.4978C308.626 12.0213 310.081 12.5987 311.498 13.2222C311.621 13.2748 311.723 13.3687 311.785 13.4878C311.846 13.607 311.865 13.7439 311.836 13.8751C311.808 14.0063 311.735 14.1236 311.63 14.2067C311.524 14.2899 311.393 14.3338 311.259 14.3308ZM257.331 14.0922C257.217 14.0929 257.106 14.0596 257.011 13.9965C256.916 13.9334 256.843 13.8434 256.8 13.738C256.768 13.6674 256.751 13.5912 256.749 13.5139C256.748 13.4366 256.762 13.3597 256.791 13.2879C256.819 13.2161 256.862 13.1508 256.917 13.0959C256.971 13.041 257.036 12.9975 257.107 12.9682C258.532 12.3677 259.994 11.8134 261.457 11.313C261.531 11.2825 261.61 11.2676 261.689 11.2691C261.769 11.2707 261.847 11.2886 261.919 11.3219C261.992 11.3551 262.056 11.4029 262.109 11.4624C262.162 11.5218 262.202 11.5915 262.227 11.6671C262.255 11.7413 262.268 11.8204 262.265 11.8997C262.262 11.9789 262.243 12.0568 262.209 12.1286C262.175 12.2004 262.127 12.2646 262.068 12.3176C262.009 12.3706 261.94 12.4112 261.865 12.437C260.426 12.9297 258.978 13.4763 257.585 14.0614C257.502 14.0844 257.416 14.0896 257.331 14.0768V14.0922ZM303.314 11.4285C303.261 11.436 303.206 11.436 303.153 11.4285C301.698 11.0051 300.204 10.6586 298.718 10.2968C298.644 10.2806 298.574 10.25 298.511 10.2066C298.449 10.1632 298.395 10.1079 298.354 10.0439C298.313 9.97997 298.285 9.90852 298.272 9.83368C298.258 9.75884 298.259 9.68207 298.276 9.60776C298.292 9.53346 298.322 9.46306 298.366 9.4006C298.409 9.33814 298.464 9.28483 298.528 9.24373C298.592 9.20262 298.664 9.17452 298.739 9.16103C298.814 9.14754 298.89 9.14892 298.965 9.16509C300.504 9.49613 301.998 9.88876 303.476 10.3199C303.609 10.3588 303.724 10.4445 303.8 10.5614C303.875 10.6782 303.906 10.8182 303.886 10.9558C303.866 11.0934 303.798 11.2193 303.693 11.3104C303.588 11.4014 303.453 11.4516 303.314 11.4516V11.4285ZM265.322 11.313C265.196 11.3125 265.074 11.2709 264.974 11.1944C264.873 11.118 264.801 11.0109 264.768 10.8896C264.746 10.8173 264.74 10.7415 264.748 10.6667C264.756 10.5918 264.78 10.5194 264.816 10.4535C264.853 10.3877 264.902 10.3297 264.961 10.283C265.02 10.2362 265.088 10.2017 265.16 10.1813C266.646 9.76558 268.17 9.41144 269.687 9.07271C269.764 9.04818 269.845 9.04003 269.925 9.04878C270.005 9.05753 270.083 9.08299 270.153 9.12352C270.222 9.16404 270.283 9.21874 270.33 9.28407C270.377 9.34941 270.411 9.42393 270.427 9.50284C270.444 9.58176 270.444 9.66331 270.427 9.74223C270.411 9.82116 270.378 9.89571 270.33 9.96108C270.283 10.0265 270.223 10.0812 270.153 10.1218C270.083 10.1624 270.006 10.1879 269.926 10.1967C268.432 10.5123 266.939 10.8819 265.476 11.2899L265.322 11.313ZM295.061 9.57312H294.946C293.445 9.33446 291.913 9.142 290.404 9.00342C290.324 9.00255 290.246 8.98527 290.173 8.95265C290.101 8.92003 290.036 8.87278 289.982 8.81386C289.929 8.75494 289.888 8.68563 289.863 8.61027C289.838 8.5349 289.828 8.4551 289.835 8.37588C289.842 8.29665 289.865 8.21971 289.903 8.14988C289.941 8.08004 289.993 8.01882 290.056 7.97004C290.119 7.92127 290.191 7.88599 290.268 7.86642C290.345 7.84686 290.425 7.84342 290.504 7.85634C292.044 7.99491 293.583 8.18738 295.123 8.43373C295.273 8.46016 295.407 8.54414 295.496 8.6678C295.585 8.79145 295.623 8.94502 295.6 9.09581C295.573 9.22039 295.506 9.33251 295.408 9.41468C295.311 9.49684 295.189 9.54443 295.061 9.55002V9.57312ZM273.59 9.51923C273.453 9.51916 273.32 9.47034 273.216 9.38148C273.112 9.29262 273.042 9.16953 273.02 9.03422C272.998 8.88229 273.037 8.72773 273.127 8.60387C273.218 8.48002 273.354 8.39679 273.505 8.37214C275.045 8.14118 276.585 7.94872 278.125 7.81784C278.2 7.81127 278.277 7.8197 278.349 7.84265C278.422 7.86559 278.489 7.9026 278.548 7.95157C278.606 8.00054 278.654 8.06051 278.689 8.12805C278.724 8.19559 278.745 8.26937 278.752 8.34519C278.759 8.42102 278.75 8.49739 278.727 8.56996C278.704 8.64253 278.667 8.70987 278.618 8.76813C278.569 8.82639 278.509 8.87444 278.442 8.90953C278.374 8.94462 278.3 8.96606 278.225 8.97263C276.685 9.1035 275.184 9.28057 273.682 9.51923H273.59ZM286.639 8.74937C285.099 8.69548 283.56 8.68778 282.059 8.74937C281.983 8.75353 281.907 8.74233 281.836 8.71644C281.765 8.69054 281.699 8.6505 281.644 8.59872C281.588 8.54693 281.544 8.48447 281.514 8.41511C281.483 8.34574 281.467 8.27089 281.466 8.19507C281.463 8.11898 281.475 8.04304 281.502 7.97175C281.528 7.90045 281.569 7.83524 281.622 7.77998C281.674 7.72471 281.737 7.68051 281.807 7.64999C281.876 7.61947 281.952 7.60325 282.028 7.60228C283.567 7.54839 285.107 7.55609 286.647 7.60228C286.723 7.60428 286.797 7.6212 286.867 7.65207C286.936 7.68295 286.999 7.72717 287.051 7.78222C287.103 7.83728 287.144 7.90207 287.171 7.97291C287.198 8.04375 287.211 8.11924 287.209 8.19507C287.197 8.33948 287.133 8.47454 287.028 8.57409C286.922 8.67364 286.784 8.73061 286.639 8.73397V8.74937Z" fill="#E0E0E0"/>
<path d="M283.738 98.2609V97.0291H283.438C282.981 96.1948 282.287 95.5144 281.444 95.0737C279.724 94.2007 277.822 93.7457 275.893 93.7457C273.964 93.7457 272.063 94.2007 270.343 95.0737C269.499 95.5144 268.806 96.1948 268.349 97.0291H268.048V98.2224C268.048 99.4003 268.818 100.586 270.358 101.487C272.079 102.355 273.98 102.808 275.909 102.808C277.837 102.808 279.738 102.355 281.459 101.487C282.984 100.617 283.746 99.4311 283.738 98.2609Z" fill="#37474F"/>
<path d="M275.893 101.563C280.226 101.563 283.738 99.5332 283.738 97.0289C283.738 94.5246 280.226 92.4944 275.893 92.4944C271.561 92.4944 268.048 94.5246 268.048 97.0289C268.048 99.5332 271.561 101.563 275.893 101.563Z" fill="#455A64"/>
<path d="M273.876 59.2752V96.4978C273.892 96.6744 273.955 96.8436 274.058 96.9882C274.161 97.1328 274.3 97.2478 274.461 97.3215C274.904 97.5455 275.393 97.6621 275.889 97.6621C276.385 97.6621 276.874 97.5455 277.317 97.3215C277.481 97.2495 277.622 97.1352 277.726 96.9904C277.83 96.8455 277.894 96.6755 277.91 96.4978V59.2752H273.876Z" fill="#37474F"/>
<path d="M284.938 31.4139C282.975 30.2823 281.189 30.1899 279.85 30.9366L254.914 45.3484L267.424 70.438L292.445 55.9647V44.9865C292.445 39.8824 289.08 33.8082 284.938 31.4139Z" fill="#455A64"/>
<path d="M267.424 59.4523V70.4381L252.42 61.7695V50.7914C252.42 45.6872 255.776 43.4931 259.918 45.8874C262.574 47.4271 264.907 50.4603 266.239 53.7861C266.984 55.5844 267.386 57.5061 267.424 59.4523Z" fill="#37474F"/>
<path d="M267.424 59.4523V70.4381L252.42 61.7695L266.239 53.7861C266.984 55.5844 267.386 57.5062 267.424 59.4523Z" fill="#263238"/>
<path d="M264.923 63.217C263.545 59.2291 259.064 54.0557 254.915 51.6691C250.765 49.2825 248.532 50.5682 249.911 54.5561L252.413 61.7773L267.425 70.4459C267.425 70.4459 266.308 67.2048 264.923 63.217Z" fill="#455A64"/>
<path d="M275.247 59.8679L274.407 59.3829C274.227 59.3001 274.028 59.2665 273.831 59.2854C273.633 59.3043 273.445 59.3752 273.283 59.4907C272.82 59.7941 272.434 60.2024 272.157 60.6825C271.88 61.1626 271.72 61.7011 271.69 62.2545C271.669 62.4527 271.701 62.6529 271.784 62.8343C271.866 63.0157 271.996 63.1717 272.159 63.2861L272.929 63.7326L273.076 63.4939C273.235 63.4594 273.389 63.3996 273.53 63.3169C273.993 63.0151 274.379 62.6083 274.656 62.1294C274.933 61.6505 275.093 61.1131 275.123 60.5608C275.123 60.4231 275.104 60.286 275.069 60.1528L275.247 59.8679Z" fill="#263238"/>
<path d="M274.083 59.9604C273.62 60.2621 273.234 60.669 272.957 61.1478C272.68 61.6267 272.52 62.1641 272.49 62.7165C272.49 63.7327 273.206 64.1407 274.083 63.6326C274.547 63.3313 274.934 62.9245 275.211 62.4456C275.488 61.9666 275.647 61.429 275.677 60.8765C275.7 59.8603 274.93 59.4523 274.083 59.9604Z" fill="#37474F"/>
<path d="M274.084 62.2315C274.023 62.2315 273.963 62.2196 273.907 62.1964C273.851 62.1731 273.8 62.1391 273.757 62.0962C273.714 62.0533 273.68 62.0024 273.657 61.9464C273.634 61.8903 273.622 61.8303 273.622 61.7696V45.8875C273.622 45.7649 273.671 45.6475 273.757 45.5608C273.844 45.4742 273.961 45.4255 274.084 45.4255C274.206 45.4255 274.324 45.4742 274.411 45.5608C274.497 45.6475 274.546 45.7649 274.546 45.8875V61.7696C274.546 61.8921 274.497 62.0096 274.411 62.0962C274.324 62.1828 274.206 62.2315 274.084 62.2315Z" fill="#263238"/>
<path d="M274.499 46.3032V50.445L278.941 45.8875L274.499 46.3032Z" fill="#37474F"/>
<path d="M40.9553 183.692C40.5704 183.899 33.5031 185.901 30.8855 182.444C28.268 178.988 32.6177 173.599 30.1619 171.613C27.706 169.626 20.8235 171.613 19.1683 167.44C17.5131 163.267 22.4171 161.466 19.661 157.255C17.9212 154.599 13.0557 153.136 13.2789 150.665C13.6023 147.054 20.2538 146.046 26.0585 149.949C31.8633 153.852 34.5732 150.649 36.4131 150.388C38.2531 150.126 42.2255 150.703 42.1024 157.17C41.9792 163.637 40.9553 183.692 40.9553 183.692Z" fill="#008080"/>
<path d="M41.4249 174.523C41.3331 174.522 41.2443 174.49 41.1739 174.431C41.1036 174.372 41.0562 174.29 41.04 174.199C39.0153 161.882 24.7498 151.927 17.3284 149.787C17.2793 149.774 17.2334 149.751 17.1934 149.72C17.1534 149.688 17.1202 149.649 17.0958 149.604C17.0713 149.56 17.0562 149.511 17.0511 149.46C17.0461 149.409 17.0514 149.358 17.0667 149.31C17.0952 149.212 17.1616 149.129 17.2511 149.08C17.3406 149.031 17.446 149.02 17.544 149.048C25.1271 151.242 39.7236 161.474 41.8022 174.076C41.8178 174.176 41.7934 174.278 41.7343 174.36C41.6753 174.442 41.5862 174.498 41.4865 174.515L41.4249 174.523Z" fill="white"/>
<path d="M24.5952 164.214C24.5106 164.215 24.428 164.188 24.3603 164.137C24.2926 164.086 24.2436 164.015 24.2208 163.933C24.198 163.851 24.2027 163.765 24.2342 163.686C24.2657 163.607 24.3223 163.541 24.3951 163.498C24.626 163.36 30.1228 160.149 35.5272 161.651C35.6293 161.677 35.7167 161.743 35.7701 161.834C35.8235 161.925 35.8386 162.034 35.8121 162.136C35.7855 162.238 35.7195 162.325 35.6285 162.378C35.5376 162.432 35.4291 162.447 35.327 162.42C30.2306 161.004 24.8416 164.153 24.7877 164.183C24.7278 164.212 24.661 164.223 24.5952 164.214Z" fill="white"/>
<path d="M242.211 118.647C245.244 119.062 250.41 117.307 250.78 112.257C251.149 107.206 253.236 105.836 257.062 105.012C260.888 104.189 262.012 102.857 262.451 100.455C262.89 98.0528 259.98 95.1813 260.796 91.563C261.612 87.9446 264.337 87.9523 267.016 83.8644C268.733 81.2315 265.215 77.2128 259.356 78.9373C253.497 80.6618 253.967 84.4418 248.108 84.9268C242.25 85.4118 238.577 88.9685 238.462 93.3952C238.347 97.8219 242.211 118.647 242.211 118.647Z" fill="#008080"/>
<path opacity="0.2" d="M242.211 118.647C245.244 119.062 250.41 117.307 250.78 112.257C251.149 107.206 253.236 105.836 257.062 105.012C260.888 104.189 262.012 102.857 262.451 100.455C262.89 98.0528 259.98 95.1813 260.796 91.563C261.612 87.9446 264.337 87.9523 267.016 83.8644C268.733 81.2315 265.215 77.2128 259.356 78.9373C253.497 80.6618 253.967 84.4418 248.108 84.9268C242.25 85.4118 238.577 88.9685 238.462 93.3952C238.347 97.8219 242.211 118.647 242.211 118.647Z" fill="black"/>
<path d="M241.102 108.962H241.056C241.007 108.952 240.959 108.932 240.918 108.904C240.876 108.875 240.84 108.839 240.812 108.797C240.784 108.755 240.765 108.707 240.755 108.658C240.745 108.608 240.746 108.557 240.756 108.507C243.589 94.5038 259.04 81.6857 262.805 80.3769C262.907 80.3432 263.018 80.3515 263.114 80.3998C263.21 80.4482 263.283 80.5327 263.317 80.6348C263.35 80.7369 263.342 80.8482 263.294 80.9442C263.245 81.0402 263.161 81.1131 263.059 81.1468C259.379 82.4247 244.282 95.0042 241.503 108.7C241.474 108.782 241.419 108.851 241.347 108.899C241.275 108.946 241.189 108.968 241.102 108.962Z" fill="white"/>
<path d="M37.7222 103.996C37.7598 103.302 37.9606 102.626 38.3084 102.024C38.6562 101.422 39.1412 100.911 39.7238 100.532L142.045 41.4529C142.665 41.1414 143.35 40.9792 144.043 40.9792C144.737 40.9792 145.421 41.1414 146.041 41.4529L148.297 42.7617C148.881 43.1396 149.367 43.6507 149.715 44.2529C150.062 44.8552 150.263 45.5314 150.298 46.226V124.659C150.259 125.353 150.057 126.028 149.71 126.629C149.362 127.231 148.878 127.743 148.297 128.123L45.975 187.195C45.3549 187.51 44.669 187.674 43.9734 187.674C43.2778 187.674 42.592 187.51 41.9718 187.195L39.7238 185.893C39.142 185.513 38.6577 185.002 38.3101 184.4C37.9624 183.798 37.761 183.123 37.7222 182.429V103.996Z" fill="#008080"/>
<path opacity="0.3" d="M37.7222 103.996C37.7598 103.302 37.9606 102.626 38.3084 102.024C38.6562 101.422 39.1412 100.911 39.7238 100.532L142.045 41.4529C142.665 41.1414 143.35 40.9792 144.043 40.9792C144.737 40.9792 145.421 41.1414 146.041 41.4529L148.297 42.7617C148.881 43.1396 149.367 43.6507 149.715 44.2529C150.062 44.8552 150.263 45.5314 150.298 46.226V124.659C150.259 125.353 150.057 126.028 149.71 126.629C149.362 127.231 148.878 127.743 148.297 128.123L45.975 187.195C45.3549 187.51 44.669 187.674 43.9734 187.674C43.2778 187.674 42.592 187.51 41.9718 187.195L39.7238 185.893C39.142 185.513 38.6577 185.002 38.3101 184.4C37.9624 183.798 37.761 183.123 37.7222 182.429V103.996Z" fill="black"/>
<path d="M47.099 107.106L38.3073 102.025C37.9478 102.622 37.7465 103.3 37.7222 103.996V182.429C37.761 183.123 37.9624 183.798 38.3101 184.4C38.6577 185.002 39.142 185.513 39.7238 185.894L41.9718 187.195C42.592 187.51 43.2778 187.674 43.9734 187.674C44.669 187.674 45.3549 187.51 45.975 187.195L47.099 186.548V107.106Z" fill="#008080"/>
<path opacity="0.5" d="M47.099 107.106L38.3073 102.025C37.9478 102.622 37.7465 103.3 37.7222 103.996V182.429C37.761 183.123 37.9624 183.798 38.3101 184.4C38.6577 185.002 39.142 185.513 39.7238 185.894L41.9718 187.195C42.592 187.51 43.2778 187.674 43.9734 187.674C44.669 187.674 45.3549 187.51 45.975 187.195L47.099 186.548V107.106Z" fill="black"/>
<path d="M150.298 46.2261V124.659C150.272 125.377 150.057 126.076 149.674 126.684C149.379 127.196 148.98 127.642 148.504 127.993L148.427 128.039L148.296 128.124L45.9744 187.195C45.7786 187.333 45.5511 187.42 45.3129 187.446C45.0747 187.473 44.8335 187.44 44.6118 187.349C44.3987 187.214 44.2264 187.024 44.1137 186.799C44.0011 186.574 43.9523 186.322 43.9728 186.071V107.607C43.9554 107.326 44.0064 107.045 44.1213 106.788C44.2362 106.532 44.4118 106.306 44.6328 106.132C44.8538 105.958 45.1137 105.84 45.3903 105.789C45.6669 105.737 45.9519 105.753 46.2208 105.836L89.2481 116.068L94.8835 117.407C95.5486 117.532 96.2352 117.472 96.8689 117.235C97.5026 116.997 98.0592 116.591 98.4787 116.06L105.007 106.968L148.951 45.7873C149.69 44.7557 150.298 44.9482 150.298 46.2261Z" fill="#008080"/>
<path opacity="0.2" d="M150.298 46.2261V124.659C150.272 125.377 150.057 126.076 149.674 126.684C149.379 127.196 148.98 127.642 148.504 127.993L148.427 128.039L148.296 128.124L45.9744 187.195C45.7786 187.333 45.5511 187.42 45.3129 187.446C45.0747 187.473 44.8335 187.44 44.6118 187.349C44.3987 187.214 44.2264 187.024 44.1137 186.799C44.0011 186.574 43.9523 186.322 43.9728 186.071V107.607C43.9554 107.326 44.0064 107.045 44.1213 106.788C44.2362 106.532 44.4118 106.306 44.6328 106.132C44.8538 105.958 45.1137 105.84 45.3903 105.789C45.6669 105.737 45.9519 105.753 46.2208 105.836L89.2481 116.068L94.8835 117.407C95.5486 117.532 96.2352 117.472 96.8689 117.235C97.5026 116.997 98.0592 116.591 98.4787 116.06L105.007 106.968L148.951 45.7873C149.69 44.7557 150.298 44.9482 150.298 46.2261Z" fill="black"/>
<path d="M148.296 128.124L148.427 128.039L148.504 127.993C148.98 127.642 149.379 127.196 149.674 126.684C150.053 126.085 150.268 125.398 150.298 124.69L105.007 106.983L135.34 135.622L148.296 128.124Z" fill="#008080"/>
<path opacity="0.6" d="M148.296 128.124L148.427 128.039L148.504 127.993C148.98 127.642 149.379 127.196 149.674 126.684C150.053 126.085 150.268 125.398 150.298 124.69L105.007 106.983L135.34 135.622L148.296 128.124Z" fill="black"/>
<path d="M43.9729 186.071C43.9435 186.326 43.9863 186.585 44.0965 186.818C44.2067 187.051 44.3799 187.248 44.5965 187.387C44.8182 187.478 45.0594 187.512 45.2976 187.485C45.5357 187.458 45.7633 187.371 45.9591 187.233L81.2032 166.824L89.2482 116.014L43.9729 184.739V186.071Z" fill="#008080"/>
<path opacity="0.6" d="M43.9729 186.071C43.9435 186.326 43.9863 186.585 44.0965 186.818C44.2067 187.051 44.3799 187.248 44.5965 187.387C44.8182 187.478 45.0594 187.512 45.2976 187.485C45.5357 187.458 45.7633 187.371 45.9591 187.233L81.2032 166.824L89.2482 116.014L43.9729 184.739V186.071Z" fill="black"/>
<path d="M149.675 126.684C149.38 127.196 148.981 127.642 148.505 127.993L148.428 128.039L45.9754 187.195C45.7796 187.333 45.5521 187.419 45.3139 187.446C45.0757 187.473 44.8345 187.44 44.6128 187.349L93.6142 109.123C94.599 107.557 96.1153 106.397 97.8855 105.857C99.6556 105.317 101.561 105.432 103.253 106.183L149.675 126.684Z" fill="#008080"/>
<path opacity="0.2" d="M149.675 126.684C149.38 127.196 148.981 127.642 148.505 127.993L148.428 128.039L45.9754 187.195C45.7796 187.333 45.5521 187.419 45.3139 187.446C45.0757 187.473 44.8345 187.44 44.6128 187.349L93.6142 109.123C94.599 107.557 96.1153 106.397 97.8855 105.857C99.6556 105.317 101.561 105.432 103.253 106.183L149.675 126.684Z" fill="black"/>
<path d="M43.9731 105.297L91.0345 126.083C92.7289 126.831 94.6362 126.944 96.4066 126.399C98.177 125.855 99.6918 124.69 100.673 123.119L150.09 44.032L43.9731 105.297Z" fill="#008080"/>
<path opacity="0.6" d="M43.9731 105.297L91.0345 126.083C92.7289 126.831 94.6362 126.944 96.4066 126.399C98.177 125.855 99.6918 124.69 100.673 123.119L150.09 44.032L43.9731 105.297Z" fill="black"/>
<path d="M43.9731 105.297L91.3655 123.004C93.0033 123.615 94.8004 123.651 96.4613 123.105C98.1221 122.56 99.5478 121.465 100.504 120.001L150.09 44.032L43.9731 105.297Z" fill="#008080"/>
<path opacity="0.2" d="M43.9731 105.297L91.3655 123.004C93.0033 123.615 94.8004 123.651 96.4613 123.105C98.1221 122.56 99.5478 121.465 100.504 120.001L150.09 44.032L43.9731 105.297Z" fill="black"/>
<path d="M55.1982 113.658C55.234 112.963 55.4341 112.287 55.7821 111.685C56.13 111.082 56.6159 110.571 57.1999 110.193L159.522 51.1146C160.142 50.7995 160.828 50.6353 161.523 50.6353C162.219 50.6353 162.905 50.7995 163.525 51.1146L165.78 52.4156C166.362 52.7958 166.845 53.3076 167.192 53.9095C167.538 54.5114 167.738 55.1865 167.774 55.88V134.313C167.736 135.006 167.536 135.681 167.19 136.283C166.844 136.884 166.361 137.396 165.78 137.777L63.4511 196.848C62.8312 197.16 62.1471 197.322 61.4533 197.322C60.7596 197.322 60.0754 197.16 59.4556 196.848L57.1999 195.547C56.6185 195.167 56.1346 194.655 55.7869 194.053C55.4393 193.452 55.2377 192.777 55.1982 192.083V113.658Z" fill="#455A64"/>
<path d="M55.1982 113.658C55.234 112.963 55.4341 112.287 55.7821 111.685C56.13 111.082 56.6159 110.571 57.1999 110.193L159.522 51.1146C160.142 50.7995 160.828 50.6353 161.523 50.6353C162.219 50.6353 162.905 50.7995 163.525 51.1146L165.78 52.4156C166.362 52.7958 166.845 53.3076 167.192 53.9095C167.538 54.5114 167.738 55.1865 167.774 55.88V134.313C167.736 135.006 167.536 135.681 167.19 136.283C166.844 136.884 166.361 137.396 165.78 137.777L63.4511 196.848C62.8312 197.16 62.1471 197.322 61.4533 197.322C60.7596 197.322 60.0754 197.16 59.4556 196.848L57.1999 195.547C56.6185 195.167 56.1346 194.655 55.7869 194.053C55.4393 193.452 55.2377 192.777 55.1982 192.083V113.658Z" fill="#455A64"/>
<path d="M64.5828 116.783L55.7833 111.71C55.423 112.306 55.2215 112.985 55.1982 113.681V192.091C55.2377 192.785 55.4393 193.46 55.7869 194.061C56.1346 194.663 56.6185 195.175 57.1999 195.555L59.4556 196.856C60.0754 197.168 60.7596 197.33 61.4533 197.33C62.1471 197.33 62.8312 197.168 63.4511 196.856L64.5828 196.202V116.783Z" fill="#263238"/>
<path d="M167.781 55.8801V134.313C167.756 135.031 167.54 135.73 167.158 136.338C166.862 136.85 166.464 137.296 165.988 137.647L165.911 137.693L165.78 137.777L63.4581 196.849C63.2623 196.987 63.0348 197.073 62.7966 197.1C62.5584 197.127 62.3172 197.094 62.0955 197.003C61.879 196.863 61.7058 196.666 61.5955 196.433C61.4853 196.201 61.4425 195.942 61.4719 195.686V117.261C61.4545 116.98 61.5055 116.699 61.6204 116.442C61.7353 116.186 61.9108 115.96 62.1319 115.786C62.3529 115.612 62.6128 115.494 62.8894 115.443C63.166 115.391 63.451 115.407 63.7199 115.49L106.747 125.722L112.383 127.061C113.048 127.186 113.734 127.126 114.368 126.889C115.002 126.651 115.558 126.245 115.978 125.714L122.498 116.622L166.442 55.4413C167.15 54.4251 167.781 54.6021 167.781 55.8801Z" fill="#37474F"/>
<path d="M165.78 137.777L165.911 137.693L165.988 137.647C166.464 137.296 166.862 136.85 167.158 136.338C167.532 135.74 167.744 135.056 167.774 134.352L122.491 116.645L152.815 145.268L165.78 137.777Z" fill="#263238"/>
<path d="M61.4568 195.694C61.4274 195.95 61.4702 196.208 61.5804 196.441C61.6906 196.674 61.8638 196.871 62.0804 197.01C62.3021 197.101 62.5433 197.135 62.7815 197.108C63.0197 197.081 63.2472 196.994 63.443 196.856L98.6717 176.517L106.717 125.706L61.4414 194.377L61.4568 195.694Z" fill="#263238"/>
<path d="M167.15 136.338C166.855 136.85 166.456 137.296 165.98 137.647L165.903 137.693L63.4583 196.849C63.2625 196.987 63.035 197.073 62.7968 197.1C62.5586 197.127 62.3174 197.094 62.0957 197.003L111.089 118.785C112.072 117.216 113.587 116.053 115.357 115.51C117.128 114.967 119.034 115.08 120.728 115.829L167.15 136.338Z" fill="#37474F"/>
<path d="M61.4575 114.959L108.519 135.745C110.212 136.491 112.118 136.602 113.887 136.058C115.655 135.513 117.169 134.35 118.15 132.781L167.567 53.6552L61.4575 114.959Z" fill="#263238"/>
<path d="M61.4575 114.959L108.842 132.666C110.481 133.279 112.28 133.316 113.942 132.77C115.605 132.224 117.032 131.128 117.988 129.663L167.567 53.6552L61.4575 114.959Z" fill="#37474F"/>
<path d="M130.251 175.916V97.483C130.322 95.9949 130.787 94.5525 131.598 93.3027L180.399 25.3474C181.29 24.1059 182.53 23.1574 183.961 22.6228C185.392 22.0881 186.95 21.9914 188.437 22.345L234.328 33.2539C235.807 33.6475 237.233 34.216 238.578 34.9475L240.833 36.2486C241.413 36.6301 241.896 37.1422 242.242 37.7438C242.588 38.3454 242.789 39.0199 242.827 39.7129V118.146C242.787 118.839 242.586 119.513 242.24 120.114C241.894 120.716 241.412 121.228 240.833 121.61L138.504 180.681C137.884 180.995 137.2 181.158 136.506 181.158C135.812 181.158 135.128 180.995 134.508 180.681L132.253 179.38C131.671 179 131.187 178.489 130.839 177.887C130.491 177.285 130.29 176.61 130.251 175.916Z" fill="#008080"/>
<path opacity="0.3" d="M130.251 175.916V97.483C130.322 95.9949 130.787 94.5525 131.598 93.3027L180.399 25.3474C181.29 24.1059 182.53 23.1574 183.961 22.6228C185.392 22.0881 186.95 21.9914 188.437 22.345L234.328 33.2539C235.807 33.6475 237.233 34.216 238.578 34.9475L240.833 36.2486C241.413 36.6301 241.896 37.1422 242.242 37.7438C242.588 38.3454 242.789 39.0199 242.827 39.7129V118.146C242.787 118.839 242.586 119.513 242.24 120.114C241.894 120.716 241.412 121.228 240.833 121.61L138.504 180.681C137.884 180.995 137.2 181.158 136.506 181.158C135.812 181.158 135.128 180.995 134.508 180.681L132.253 179.38C131.671 179 131.187 178.489 130.839 177.887C130.491 177.285 130.29 176.61 130.251 175.916Z" fill="white"/>
<path d="M139.628 59.5755V159.657C139.628 160.927 140.529 161.451 141.63 160.812L237.7 105.382C238.283 105.003 238.768 104.492 239.116 103.89C239.464 103.288 239.665 102.612 239.702 101.918V1.83627C239.702 0.558312 238.809 0.0425081 237.7 0.681489L141.63 56.1112C141.047 56.4905 140.562 57.0019 140.214 57.6039C139.866 58.2058 139.666 58.8813 139.628 59.5755Z" fill="#FAFAFA"/>
<path d="M140.736 161.481C140.488 161.483 140.244 161.42 140.028 161.297C139.765 161.121 139.554 160.877 139.418 160.591C139.283 160.305 139.227 159.987 139.258 159.672V59.5908C139.295 58.828 139.513 58.0849 139.895 57.4235C140.276 56.762 140.81 56.2012 141.452 55.7877L237.523 0.358017C237.774 0.153757 238.081 0.0306368 238.403 0.00501106C238.725 -0.0206147 239.048 0.0524664 239.328 0.21455C239.608 0.376633 239.832 0.620042 239.97 0.912438C240.108 1.20483 240.154 1.53238 240.102 1.85154V101.933C240.066 102.695 239.848 103.437 239.466 104.097C239.085 104.758 238.55 105.317 237.908 105.728L141.837 161.158C141.506 161.362 141.126 161.473 140.736 161.481ZM238.593 0.750646C238.344 0.764867 238.103 0.841664 237.892 0.973905L141.822 56.4421C141.299 56.7892 140.863 57.2528 140.55 57.7964C140.236 58.34 140.052 58.9489 140.013 59.5754V159.657C139.967 159.837 139.981 160.028 140.053 160.2C140.125 160.372 140.252 160.515 140.413 160.608C140.574 160.702 140.761 160.74 140.946 160.716C141.131 160.693 141.304 160.611 141.437 160.481L237.507 105.051C238.031 104.704 238.467 104.241 238.781 103.697C239.095 103.153 239.278 102.544 239.317 101.918V1.83615C239.338 1.6556 239.314 1.47249 239.245 1.30412C239.176 1.13574 239.066 0.987652 238.924 0.873825C238.827 0.803546 238.712 0.76097 238.593 0.750646Z" fill="#E0E0E0"/>
<path d="M137.558 99.3924L130.629 95.3892C130.404 96.0655 130.28 96.7709 130.259 97.4832V175.916C130.298 176.61 130.499 177.285 130.847 177.887C131.195 178.489 131.679 179 132.261 179.381L134.509 180.682C135.128 180.997 135.812 181.161 136.507 181.161C137.201 181.161 137.886 180.997 138.504 180.682L139.467 180.135L137.558 99.3924Z" fill="#008080"/>
<g opacity="0.1">
<path d="M137.558 99.3924L130.629 95.3892C130.404 96.0655 130.28 96.7709 130.259 97.4832V175.916C130.298 176.61 130.499 177.285 130.847 177.887C131.195 178.489 131.679 179 132.261 179.381L134.509 180.682C135.128 180.997 135.812 181.161 136.507 181.161C137.201 181.161 137.886 180.997 138.504 180.682L139.467 180.135L137.558 99.3924Z" fill="black"/>
</g>
<path d="M242.835 39.7131V118.146C242.809 118.864 242.594 119.563 242.211 120.171C241.915 120.683 241.517 121.129 241.041 121.48L240.964 121.526L240.833 121.61L138.511 180.682C138.316 180.82 138.088 180.906 137.85 180.933C137.612 180.96 137.37 180.927 137.149 180.836C136.932 180.696 136.759 180.499 136.649 180.266C136.539 180.034 136.496 179.775 136.525 179.519V101.094C136.508 100.813 136.559 100.532 136.674 100.275C136.789 100.019 136.964 99.7934 137.185 99.6193C137.406 99.4453 137.666 99.3274 137.943 99.2758C138.219 99.2242 138.504 99.2404 138.773 99.3231L181.777 109.555L187.413 110.894C188.079 111.02 188.767 110.961 189.402 110.724C190.038 110.486 190.595 110.079 191.016 109.547L197.544 100.455L241.487 39.2743C242.226 38.2581 242.835 38.4352 242.835 39.7131Z" fill="#008080"/>
<path opacity="0.3" d="M242.835 39.7131V118.146C242.809 118.864 242.594 119.563 242.211 120.171C241.915 120.683 241.517 121.129 241.041 121.48L240.964 121.526L240.833 121.61L138.511 180.682C138.316 180.82 138.088 180.906 137.85 180.933C137.612 180.96 137.37 180.927 137.149 180.836C136.932 180.696 136.759 180.499 136.649 180.266C136.539 180.034 136.496 179.775 136.525 179.519V101.094C136.508 100.813 136.559 100.532 136.674 100.275C136.789 100.019 136.964 99.7934 137.185 99.6193C137.406 99.4453 137.666 99.3274 137.943 99.2758C138.219 99.2242 138.504 99.2404 138.773 99.3231L181.777 109.555L187.413 110.894C188.079 111.02 188.767 110.961 189.402 110.724C190.038 110.486 190.595 110.079 191.016 109.547L197.544 100.455L241.487 39.2743C242.226 38.2581 242.835 38.4352 242.835 39.7131Z" fill="white"/>
<path d="M240.833 121.611L240.964 121.526L241.041 121.48C241.517 121.129 241.915 120.683 242.211 120.171C242.585 119.571 242.797 118.884 242.827 118.177L197.544 100.47L227.869 129.101L240.833 121.611Z" fill="#008080"/>
<path d="M136.51 179.527C136.481 179.783 136.523 180.041 136.634 180.274C136.744 180.507 136.917 180.704 137.134 180.843C137.355 180.934 137.596 180.968 137.835 180.941C138.073 180.914 138.3 180.828 138.496 180.689L173.725 160.35L181.77 109.539L136.495 178.21L136.51 179.527Z" fill="#008080"/>
<path d="M242.212 120.171C241.916 120.683 241.518 121.129 241.042 121.48L240.965 121.526L138.512 180.682C138.316 180.82 138.089 180.907 137.85 180.933C137.612 180.96 137.371 180.927 137.149 180.836L186.143 102.618C187.125 101.05 188.639 99.8889 190.408 99.346C192.176 98.8031 194.081 98.9153 195.774 99.6619L242.212 120.171Z" fill="#008080"/>
<path opacity="0.3" d="M242.212 120.171C241.916 120.683 241.518 121.129 241.042 121.48L240.965 121.526L138.512 180.682C138.316 180.82 138.089 180.907 137.85 180.933C137.612 180.96 137.371 180.927 137.149 180.836L186.143 102.618C187.125 101.05 188.639 99.8889 190.408 99.346C192.176 98.8031 194.081 98.9153 195.774 99.6619L242.212 120.171Z" fill="white"/>
<path d="M181.932 82.6249C181.034 82.7639 180.115 82.6824 179.255 82.3873C178.396 82.0923 177.621 81.5925 176.997 80.9312C175.827 79.6302 175.242 77.6208 175.242 74.9187C175.244 71.8697 175.897 68.8564 177.159 66.0807C178.454 63.2244 180.241 60.6184 182.44 58.3821C184.804 55.9307 187.499 53.8214 190.446 52.1155C193.336 50.4526 195.802 49.5313 197.845 49.3517C199.9 49.1669 201.448 49.6981 202.51 50.9299C203.572 52.1617 204.096 54.0478 204.096 56.573C204.141 59.0773 203.547 61.5518 202.371 63.7634C201.336 65.7663 199.756 67.4367 197.814 68.5827C197.144 69.059 196.322 69.2727 195.504 69.1832C195.213 69.1257 194.945 68.9853 194.732 68.7791C194.519 68.5729 194.37 68.3096 194.303 68.0207C193.662 69.2333 192.848 70.3459 191.886 71.3234C190.913 72.3276 189.804 73.1905 188.591 73.887C186.497 75.0726 184.826 75.4268 183.595 75.0187C182.363 74.6107 181.778 73.3635 181.778 71.2849C181.795 68.6728 182.6 66.1266 184.087 63.979C185.706 61.5981 187.857 59.6265 190.369 58.2205C191.419 57.5956 192.559 57.1384 193.749 56.8655C194.634 56.6258 195.566 56.6258 196.451 56.8655V64.9721C196.451 65.6265 196.567 66.0268 196.79 66.1808C197.013 66.3348 197.383 66.2578 197.906 65.9575C198.881 65.3231 199.603 64.3669 199.946 63.2553C200.467 61.7537 200.715 60.1711 200.678 58.5823C200.678 56.5601 200.236 55.0897 199.354 54.171C198.882 53.7098 198.306 53.3685 197.675 53.1756C197.045 52.9827 196.377 52.9439 195.728 53.0624C193.848 53.3496 192.048 54.0204 190.439 55.0332C187.035 56.9213 184.101 59.5528 181.855 62.7318C179.779 65.7152 178.677 69.2673 178.698 72.9016C178.698 75.1137 179.153 76.7278 180.061 77.744C180.532 78.2527 181.122 78.637 181.777 78.8626C182.432 79.0883 183.134 79.1483 183.818 79.0374C185.734 78.766 187.571 78.0917 189.207 77.0589C190.336 76.4056 191.405 75.6533 192.402 74.8109C193.329 74.045 194.173 73.1831 194.919 72.2396C194.996 72.1402 195.087 72.0521 195.189 71.9778C195.258 71.9393 195.327 71.9778 195.389 72.0702L196.236 73.6099C196.267 73.671 196.29 73.7356 196.305 73.8024C196.278 73.9739 196.194 74.1312 196.066 74.2489C195.136 75.3673 194.105 76.3981 192.987 77.3283C191.809 78.3162 190.55 79.2022 189.222 79.9766C187.011 81.3732 184.524 82.2765 181.932 82.6249ZM191.94 68.1516C192.673 67.2867 193.1 66.2044 193.156 65.0722V60.3761C192.057 60.4688 190.999 60.834 190.077 61.4385C188.608 62.2645 187.357 63.4283 186.428 64.8335C185.556 66.1227 185.087 67.6422 185.08 69.1986C185.08 70.4997 185.404 71.2772 186.058 71.5082C186.713 71.7391 187.721 71.5082 189.099 70.6844C190.215 70.039 191.191 69.178 191.971 68.1516H191.94Z" fill="#E0E0E0"/>
<path d="M83.883 90.3389L76.3769 85.9892H76.323C73.7594 84.5419 70.2257 84.7574 66.3148 87.0131C58.4546 91.5476 52.0879 102.58 52.0879 111.649C52.0879 116.183 53.6738 119.347 56.2374 120.887L63.22 124.882L64.4826 122.781C65.9145 122.46 67.29 121.925 68.5628 121.195C76.4154 116.653 82.7898 105.621 82.7898 96.5594C82.7855 95.3347 82.6357 94.1149 82.3433 92.9256L83.883 90.3389Z" fill="#F28F8F"/>
<path d="M83.883 90.3389L76.3769 85.9892H76.323C73.7594 84.5419 70.2257 84.7574 66.3148 87.0131C58.4546 91.5476 52.0879 102.58 52.0879 111.649C52.0879 116.183 53.6738 119.347 56.2374 120.887L63.22 124.882L64.4826 122.781C65.9145 122.46 67.29 121.925 68.5628 121.195C76.4154 116.653 82.7898 105.621 82.7898 96.5594C82.7855 95.3347 82.6357 94.1149 82.3433 92.9256L83.883 90.3389Z" fill="#008080"/>
<path opacity="0.4" d="M83.883 90.3389L76.3769 85.9892H76.323C73.7594 84.5419 70.2257 84.7574 66.3148 87.0131C58.4546 91.5476 52.0879 102.58 52.0879 111.649C52.0879 116.183 53.6738 119.347 56.2374 120.887L63.22 124.882L64.4826 122.781C65.9145 122.46 67.29 121.925 68.5628 121.195C76.4154 116.653 82.7898 105.621 82.7898 96.5594C82.7855 95.3347 82.6357 94.1149 82.3433 92.9256L83.883 90.3389Z" fill="black"/>
<path d="M73.5268 91.1475C65.6665 95.6896 59.2998 106.722 59.2998 115.783C59.2998 124.844 65.6665 128.532 73.5268 123.997C81.387 119.463 87.7537 108.431 87.7537 99.3618C87.7537 90.2929 81.387 86.613 73.5268 91.1475Z" fill="#008080"/>
<path d="M67.9694 117.954C67.8231 117.954 67.7461 117.869 67.7461 117.738C67.7612 117.593 67.803 117.452 67.8693 117.323L68.5852 115.714C68.6326 115.556 68.7266 115.417 68.8547 115.313C68.9613 115.265 69.0765 115.239 69.1934 115.236C69.834 115.198 70.4662 115.071 71.0719 114.859C71.8772 114.588 72.6514 114.232 73.3814 113.797C74.5173 113.181 75.5134 112.337 76.3069 111.318C76.902 110.547 77.2339 109.605 77.2538 108.631C77.2538 106.93 76.2145 106.683 74.1359 107.861L72.1112 109.085C71.7801 109.27 71.5492 109.339 71.4106 109.278C71.272 109.216 71.2028 109.031 71.2028 108.723V108.084C71.1918 107.813 71.2643 107.544 71.4106 107.314C71.596 107.064 71.8355 106.859 72.1112 106.714L74.1205 105.552C74.9256 105.113 75.6084 104.481 76.1067 103.712C76.5243 103.066 76.7536 102.317 76.7688 101.548C76.7688 99.9008 75.6089 99.7468 73.2891 101.086C71.8624 101.899 70.5779 102.939 69.486 104.166C69.3834 104.282 69.27 104.387 69.1472 104.481C69.1019 104.503 69.0507 104.509 69.0018 104.497C68.953 104.486 68.9093 104.459 68.8778 104.42L68.1926 103.65C68.1544 103.615 68.1238 103.572 68.1026 103.524C68.0814 103.476 68.0701 103.425 68.0694 103.373C68.085 103.196 68.1612 103.03 68.285 102.903C68.967 102.05 69.7416 101.276 70.5946 100.594C71.5878 99.7842 72.6461 99.0581 73.7587 98.4226C74.7631 97.7975 75.8712 97.3569 77.0306 97.1216C77.3954 97.0327 77.7753 97.0245 78.1436 97.0976C78.512 97.1707 78.8599 97.3234 79.1631 97.545C79.4365 97.8086 79.6475 98.13 79.7807 98.4856C79.9139 98.8413 79.9659 99.2222 79.9329 99.6005C79.9156 100.448 79.727 101.283 79.3786 102.056C79.0065 102.948 78.4859 103.771 77.8389 104.489C78.1712 104.378 78.5263 104.353 78.871 104.416C79.2157 104.479 79.5387 104.629 79.8098 104.851C80.047 105.127 80.227 105.448 80.3393 105.794C80.4516 106.14 80.4941 106.505 80.4641 106.868C80.4053 108.575 79.8069 110.219 78.755 111.564C77.4638 113.296 75.8149 114.73 73.9203 115.768C71.2105 117.353 69.2268 118.082 67.9694 117.954Z" fill="white"/>
<path d="M229.41 201.537L229.556 201.406C229.664 201.314 229.779 201.221 229.879 201.121L230.226 200.782L230.572 200.451C230.775 200.261 230.967 200.061 231.149 199.851L233.89 201.899L235.715 203.261C235.05 203.981 234.509 204.806 234.113 205.702C234.113 205.702 233.567 206.587 231.711 206.141C229.417 205.609 229.055 202.237 229.41 201.537Z" fill="#FFA8A7"/>
<path d="M202.564 200.598C200.47 198.165 202.333 194.123 204.365 188.88C206.598 183.114 210.047 173.314 210.047 173.314L234.536 168.256C234.536 168.256 260.627 167.756 263.021 172.744C264.961 176.74 247.778 182.752 245.314 182.968L230.233 183.761L228.647 184.531L218.054 197.934L202.564 200.598Z" fill="#008080"/>
<path d="M247.685 176.832C245.784 178.766 244.012 180.824 242.381 182.991C237.97 189.15 230.987 200.336 230.987 200.336C230.987 200.336 232.073 203.877 235.406 203.723C235.406 203.723 258.348 182.298 260.226 180.32C263.067 177.317 265.346 172.367 260.434 171.959C255.523 171.551 249.595 174.769 247.685 176.832Z" fill="#008080"/>
<path d="M242.258 183.114C242.258 183.114 246.354 177.125 250.596 174.646C250.596 174.646 246.377 175.477 239.987 183.253L242.258 183.114Z" fill="#008080"/>
<path opacity="0.1" d="M242.258 183.114C242.258 183.114 246.354 177.125 250.596 174.646C250.596 174.646 246.377 175.477 239.987 183.253L242.258 183.114Z" fill="black"/>
<path d="M245.045 190.69L243.436 190.998L244.929 196.518C244.929 196.518 246.376 196.379 246.877 196.41C247.606 196.237 248.308 195.965 248.963 195.601L248.578 192.229L246.808 190.382L245.045 190.69Z" fill="#FFA8A7"/>
<path d="M257.748 191.991C258.516 192.3 259.211 192.765 259.792 193.356C260.372 193.947 260.824 194.651 261.12 195.424C261.462 196.233 261.743 197.067 261.959 197.919C262.213 198.812 262.09 200.328 260.958 200.575C260.59 200.618 260.218 200.551 259.888 200.382C257.617 199.504 255.399 198.488 253.075 197.749C251.082 197.011 248.996 196.558 246.877 196.402C247.359 195.661 247.6 194.789 247.566 193.905C247.533 193.022 247.228 192.17 246.692 191.467C246.237 191.046 245.661 190.776 245.045 190.697C245.63 190.436 246.177 190.097 246.739 189.781C247.785 189.049 249.067 188.734 250.334 188.896C251.304 189.104 252.043 189.874 252.867 190.436C254.437 191.459 255.954 191.39 257.748 191.991Z" fill="#263238"/>
<path d="M205.867 195.309C207.891 194.685 211.125 194.131 220.717 193.638C230.309 193.146 243.436 190.99 243.436 190.99C245.668 193.138 244.929 196.51 244.929 196.51C244.929 196.51 227.892 201.899 222.341 202.615C213.504 203.754 210.455 203.669 206.467 202.815C201.986 201.853 199.161 197.364 205.867 195.309Z" fill="#008080"/>
<path d="M240.927 149.618L248.132 166.839L242.974 170.011L233.059 153.221L240.927 149.618Z" fill="#F28F8F"/>
<path d="M226.021 133.389C229.963 133.435 234.297 134.867 235.791 137.955L241.95 150.657C241.95 150.657 238.47 155.754 232.942 155.392L226.021 133.389Z" fill="#E0E0E0"/>
<path d="M199.816 160.157C199.862 159.487 200.824 156.215 201.856 152.69L209.339 155.276L207.329 161.612L201.024 167.594C199.659 165.371 199.224 162.699 199.816 160.157Z" fill="#FFA8A7"/>
<path d="M217.961 133.628C213.265 134.76 206.868 136.23 205.012 141.327C203.157 146.423 200.501 155.423 200.501 155.423C201.533 157.209 207.191 158.687 209.154 157.655L210.078 154.576V173.299C213.75 177.294 231.865 176.27 234.567 168.241V142.735C234.567 138.655 232.304 133.751 226.045 133.389L217.961 133.628Z" fill="#FAFAFA"/>
<path d="M210.054 154.591L212.41 147.177L210.054 157.909V154.591Z" fill="#E0E0E0"/>
<path d="M216.175 112.757C215.757 112.703 215.332 112.744 214.932 112.877C214.532 113.011 214.167 113.233 213.865 113.527C212.872 114.543 213.096 116.422 213.865 120.733L216.945 121.079L216.175 112.757Z" fill="#263238"/>
<path d="M234.043 111.51C234.703 111.513 235.355 111.379 235.96 111.117C236.9 110.578 237.146 111.648 236.63 112.572C236.289 113.238 235.783 113.806 235.161 114.221C234.538 114.636 233.819 114.885 233.073 114.943C233.073 114.813 232.196 112.549 232.196 112.549L234.043 111.51Z" fill="#263238"/>
<path d="M217.614 121.125C217.16 121.395 216.506 120.525 215.944 119.932C215.723 119.68 215.442 119.488 215.127 119.375C214.812 119.262 214.473 119.23 214.143 119.284C213.812 119.338 213.501 119.476 213.238 119.683C212.976 119.891 212.77 120.162 212.641 120.471C211.71 122.434 213.827 125.044 215.066 125.906C215.414 126.206 215.848 126.389 216.305 126.427C216.763 126.466 217.221 126.359 217.614 126.122L217.938 133.628C218.487 134.831 219.326 135.879 220.379 136.678C221.432 137.478 222.667 138.003 223.974 138.209C228.377 138.801 227.469 135.168 226.021 133.389V130.641C227.124 130.876 228.257 130.933 229.378 130.81C229.948 130.656 231.318 129.001 232.203 127.146C233.196 125.067 234.852 121.372 233.381 115.113C231.795 108.4 224.582 108.184 220.294 110.902C216.005 113.619 217.614 121.125 217.614 121.125Z" fill="#FFA8A7"/>
<path d="M217.614 121.887C217.384 121.887 216.514 120.448 215.944 119.932C215.174 119.216 216.175 112.757 216.175 112.757C216.175 112.757 215.405 110.301 216.945 108.677C218.484 107.052 221.502 107.322 223.704 107.245C226.402 107.26 229.074 106.722 231.557 105.667C234.682 104.312 234.913 104.127 235.298 105.52C235.683 106.914 235.837 110.032 233.974 112.133L232.958 113.789C232.958 113.789 232.011 114.558 229.108 114.943C226.206 115.328 221.233 113.735 220.64 113.65C219.793 113.534 219.616 114.351 219.162 116.583C218.731 118.546 218.384 121.872 217.614 121.887Z" fill="#263238"/>
<path d="M216.183 113.257L213.427 111.779C213.517 111.596 213.644 111.433 213.798 111.299C213.953 111.165 214.132 111.063 214.326 110.999C214.521 110.936 214.725 110.911 214.929 110.927C215.133 110.944 215.331 111 215.513 111.094C215.88 111.301 216.154 111.64 216.279 112.042C216.403 112.445 216.369 112.88 216.183 113.257Z" fill="#263238"/>
<path d="M226.014 130.641C226.014 130.641 221.934 129.817 220.509 129.101C219.671 128.662 218.985 127.98 218.539 127.146C218.755 127.983 219.137 128.768 219.663 129.455C220.702 130.787 226.014 131.765 226.014 131.765V130.641Z" fill="#F28F8F"/>
<path d="M226.145 120.971C226.139 121.131 226.086 121.286 225.992 121.416C225.899 121.546 225.77 121.646 225.62 121.703C225.471 121.76 225.308 121.772 225.151 121.737C224.995 121.702 224.853 121.622 224.742 121.507C224.631 121.392 224.556 121.246 224.527 121.089C224.498 120.931 224.516 120.769 224.578 120.622C224.641 120.474 224.745 120.349 224.879 120.26C225.012 120.172 225.169 120.125 225.329 120.125C225.438 120.127 225.546 120.15 225.646 120.194C225.746 120.237 225.836 120.3 225.912 120.379C225.988 120.458 226.047 120.55 226.087 120.652C226.127 120.754 226.147 120.862 226.145 120.971Z" fill="#263238"/>
<path d="M225.282 117.892L223.527 118.854C223.406 118.614 223.38 118.336 223.456 118.077C223.532 117.818 223.703 117.598 223.935 117.461C224.051 117.398 224.179 117.359 224.311 117.346C224.442 117.334 224.575 117.348 224.701 117.388C224.827 117.428 224.943 117.494 225.043 117.581C225.143 117.667 225.225 117.773 225.282 117.892Z" fill="#263238"/>
<path d="M225.661 126.437L227.531 127.146C227.49 127.271 227.424 127.386 227.337 127.485C227.25 127.584 227.145 127.664 227.026 127.722C226.908 127.779 226.779 127.812 226.648 127.819C226.516 127.826 226.385 127.806 226.261 127.762C226.009 127.662 225.806 127.468 225.694 127.221C225.582 126.974 225.57 126.693 225.661 126.437Z" fill="#F28F8F"/>
<path d="M233.435 118.569L231.841 117.338C231.917 117.231 232.013 117.14 232.125 117.071C232.236 117.003 232.36 116.957 232.49 116.938C232.619 116.918 232.751 116.925 232.878 116.958C233.005 116.991 233.123 117.05 233.227 117.13C233.44 117.297 233.58 117.54 233.619 117.808C233.658 118.076 233.592 118.349 233.435 118.569Z" fill="#263238"/>
<path d="M232.943 120.74C232.937 120.9 232.884 121.055 232.791 121.185C232.698 121.315 232.568 121.415 232.419 121.472C232.269 121.529 232.106 121.541 231.95 121.506C231.794 121.471 231.651 121.391 231.54 121.276C231.429 121.161 231.354 121.015 231.325 120.858C231.296 120.7 231.314 120.538 231.376 120.391C231.439 120.243 231.544 120.118 231.677 120.029C231.81 119.941 231.967 119.894 232.127 119.894C232.236 119.896 232.344 119.919 232.444 119.963C232.544 120.006 232.635 120.069 232.71 120.148C232.786 120.227 232.846 120.319 232.886 120.421C232.926 120.523 232.945 120.631 232.943 120.74Z" fill="#263238"/>
<path d="M229.094 120.64L228.324 125.506L231.018 125.19L229.094 120.64Z" fill="#F28F8F"/>
<path d="M257.177 175.893L240.587 166.316C240.441 166.233 240.277 166.189 240.109 166.189C239.942 166.189 239.777 166.233 239.632 166.316L210.539 183.114L227.599 192.999L257.177 175.893Z" fill="#37474F"/>
<path d="M227.446 191.56L218.5 186.402L244.66 171.297L253.652 176.432L227.446 191.56Z" fill="#263238"/>
<path d="M223.05 177.209L223.219 177.302L227.6 179.835L235.398 175.331L235.56 175.239L231.01 172.613L223.05 177.209Z" fill="#263238"/>
<path d="M223.22 177.302L227.6 179.835L235.399 175.331L231.011 172.798L223.22 177.302Z" fill="#263238"/>
<path d="M210.539 183.114V183.507C210.537 183.785 210.607 184.058 210.742 184.301C210.876 184.544 211.072 184.748 211.309 184.893L226.768 193.815C227.011 193.957 227.287 194.031 227.568 194.031C227.85 194.031 228.126 193.957 228.369 193.815L256.346 177.648C256.582 177.503 256.777 177.299 256.912 177.056C257.047 176.814 257.117 176.54 257.115 176.263V175.87L227.599 192.999L210.539 183.114Z" fill="#263238"/>
<path d="M227.6 192.999V194.062C227.871 194.059 228.136 193.985 228.369 193.846L256.346 177.679C256.583 177.534 256.778 177.33 256.913 177.087C257.047 176.844 257.117 176.571 257.116 176.293V175.901L227.6 192.999Z" fill="#263238"/>
<path d="M228.054 193.207C228.319 193.308 228.603 193.349 228.885 193.326C229.167 193.304 229.441 193.218 229.686 193.076L257.54 176.994C257.781 176.855 257.989 176.664 258.148 176.435C258.306 176.206 258.411 175.945 258.456 175.67L261.535 157.493C261.543 157.388 261.543 157.283 261.535 157.178C261.534 156.672 261.332 156.187 260.973 155.831L232.027 172.544C231.849 172.647 231.696 172.788 231.578 172.957C231.461 173.126 231.383 173.319 231.349 173.522L228.054 193.207Z" fill="#263238"/>
<path d="M227.6 192.999L227.792 193.107C227.877 193.155 227.964 193.199 228.054 193.238L231.349 173.553C231.383 173.35 231.461 173.157 231.578 172.988C231.695 172.819 231.848 172.678 232.026 172.575L260.973 155.861C260.855 155.751 260.726 155.653 260.588 155.569L231.587 172.282C231.409 172.385 231.255 172.526 231.136 172.695C231.018 172.864 230.938 173.057 230.902 173.26L227.6 192.999Z" fill="#455A64"/>
<path d="M243.736 176.416C244.174 174.897 245.18 173.604 246.546 172.806C247.893 172.036 248.817 172.382 248.617 173.576C248.178 175.095 247.172 176.388 245.807 177.186C244.459 177.995 243.536 177.602 243.736 176.416Z" fill="#37474F"/>
<path d="M207.329 161.597C207.329 161.597 212.325 180.843 214.435 182.221C216.544 183.599 220.471 184.608 222.349 185.301C224.227 185.994 225.082 186.94 224.759 187.202C224.435 187.464 221.725 187.749 220.786 188.08C219.847 188.411 221.063 189.928 223.142 191.537C225.221 193.146 226.991 192.999 226.76 194.069C226.529 195.139 221.895 196.21 217.984 193.915C214.073 191.621 212.887 188.526 210.555 185.901C208.222 183.276 202.895 172.367 201.024 167.594C201.024 167.594 201.201 158.725 204.103 159.287C207.006 159.849 207.329 161.597 207.329 161.597Z" fill="#FFA8A7"/>
<path d="M231.103 200.598C231.457 201.452 232.681 203.808 235.407 203.677L242.104 197.411L231.103 200.598Z" fill="#008080"/>
<path opacity="0.1" d="M231.103 200.598C231.457 201.452 232.681 203.808 235.407 203.677L242.104 197.411L231.103 200.598Z" fill="black"/>
<path d="M233.128 211.622C233.063 209.606 233.395 207.597 234.105 205.71C233.783 205.935 233.411 206.079 233.021 206.13C232.631 206.181 232.234 206.137 231.865 206.002C229.625 205.332 229.063 202.207 229.417 201.529C229.093 201.814 228.755 202.084 228.424 202.361C227.362 203.073 226.606 204.159 226.307 205.402C226.153 206.379 226.607 207.342 226.83 208.312C227.261 210.159 226.83 212.084 226.761 213.978C226.776 214.804 226.961 215.619 227.304 216.371C227.647 217.123 228.141 217.797 228.755 218.351C229.386 218.966 230.065 219.53 230.787 220.037C231.05 220.332 231.397 220.538 231.782 220.628C232.167 220.717 232.57 220.684 232.936 220.535C233.302 220.385 233.612 220.126 233.824 219.793C234.037 219.46 234.14 219.069 234.121 218.674C233.828 216.272 233.266 214.124 233.128 211.622Z" fill="#263238"/>
<path d="M235.668 203.277C235.46 203.67 235.275 204.047 235.113 204.424C235.306 204.054 235.491 203.67 235.668 203.277Z" fill="#37474F"/>
</svg>
