<svg width="310" height="314" viewBox="0 0 310 314" fill="none" xmlns="http://www.w3.org/2000/svg">
<path d="M236.271 37.7166L234.947 35.5281C223.756 17.1137 203.522 5.96589 182.182 7.31864C179.436 7.48667 176.706 7.86074 174.016 8.43767C154.617 12.588 137.74 27.2558 130.749 46.0456C126.634 57.0943 125.48 69.8144 117.675 78.5825C107.512 89.9995 90.2587 90.3536 75.0951 89.9145C59.9315 89.4753 42.6644 89.8507 32.5506 101.303C26.2189 108.485 24.2075 118.691 24.7174 128.294C26.0702 153.742 43.7976 176.491 66.3482 187.787C88.8988 199.084 115.437 200.089 140.126 195.11C174.696 188.141 207.573 169.004 227.333 139.449C247.093 109.894 252.086 69.6161 236.271 37.7166Z" fill="#EBEBEB"/>
<path d="M84.1978 58.1347C92.8688 49.4637 92.8688 35.4052 84.1978 26.7342C75.5268 18.0631 61.4682 18.0631 52.7972 26.7342C44.1262 35.4052 44.1262 49.4637 52.7972 58.1347C61.4682 66.8058 75.5268 66.8058 84.1978 58.1347Z" fill="#EBEBEB"/>
<path d="M297.252 312.311C297.252 312.41 230.676 312.495 148.633 312.495C66.5894 312.495 0 312.41 0 312.311C0 312.212 66.5328 312.127 148.633 312.127C230.733 312.127 297.252 312.205 297.252 312.311Z" fill="#263238"/>
<path d="M147.414 222.59L176.615 312.311H171.296L137.088 222.59H147.414Z" fill="#E0E0E0"/>
<path d="M147.414 222.59H146.706H144.723L137.06 222.633L137.131 222.527C142.995 237.804 155.637 270.843 170.284 309.089C170.68 310.137 171.077 311.213 171.474 312.212L171.304 312.099H176.615L176.438 312.339C168.286 287.19 161.013 264.774 155.779 248.64C153.172 240.559 151.076 234.057 149.631 229.56C148.923 227.314 148.356 225.572 147.974 224.382L147.549 223.029C147.457 222.725 147.414 222.562 147.414 222.562C147.414 222.562 147.471 222.704 147.57 223.001L148.016 224.326C148.406 225.508 148.98 227.229 149.716 229.453C151.189 233.936 153.314 240.417 155.963 248.463C161.239 264.618 168.57 287.055 176.785 312.205L176.863 312.446H171.197L171.148 312.325C170.758 311.291 170.355 310.25 169.958 309.202C155.403 270.9 142.832 237.825 137.031 222.569V222.463H137.145L144.851 222.505H146.812C147.209 222.576 147.414 222.59 147.414 222.59Z" fill="#263238"/>
<path d="M89.9469 222.59L60.7458 312.311H66.0577L100.273 222.59H89.9469Z" fill="#E0E0E0"/>
<path d="M89.9472 222.59C89.9472 222.59 90.1668 222.59 90.6059 222.59H92.5677L100.273 222.548H100.387L100.344 222.654C94.5508 237.91 81.9794 270.985 67.425 309.287L66.228 312.41L66.1855 312.531H60.5195L60.5974 312.29L81.427 248.548L87.6738 229.538C88.382 227.314 88.984 225.593 89.3735 224.411L89.8197 223.086C89.9189 222.789 89.9756 222.647 89.9756 222.647C89.9756 222.647 89.9331 222.81 89.841 223.115L89.416 224.467C89.0336 225.657 88.4741 227.399 87.7587 229.645C86.3068 234.142 84.2175 240.644 81.6112 248.725C76.3701 264.859 69.1035 287.275 60.9516 312.425L60.7745 312.184H66.0864L65.9164 312.297L67.1062 309.174C81.7528 270.928 94.395 237.86 100.224 222.619L100.302 222.725L92.6315 222.682H90.6555L89.9472 222.59Z" fill="#263238"/>
<path d="M137.839 224.559C137.679 224.695 137.508 224.818 137.329 224.928L135.827 225.919L130.296 229.545C125.628 232.619 119.191 236.883 112.115 241.628L93.9981 253.845L88.5021 257.535L87.0077 258.484C86.839 258.61 86.6588 258.719 86.4695 258.81C86.6254 258.671 86.7911 258.543 86.9653 258.428L88.4242 257.386L93.8565 253.604C98.453 250.431 104.834 246.076 111.917 241.331C118.999 236.585 125.451 232.35 130.161 229.333C132.513 227.831 134.411 226.62 135.756 225.792L137.293 224.857C137.467 224.744 137.65 224.644 137.839 224.559Z" fill="#263238"/>
<path d="M81.8163 126.942C81.8163 126.942 72.6657 127.883 71.3342 133.394C70.0027 138.904 65.6682 207.051 71.3342 216.705C77.0002 226.358 149.95 225.013 155.014 223.688C160.078 222.364 162.464 219.077 161.947 215.062C161.43 211.046 111.754 206.067 111.754 206.067L114.785 134.945C114.785 134.945 96.9232 125.95 81.8163 126.942Z" fill="#263238"/>
<path d="M161.99 216.783H161.771H161.119L158.619 216.847C156.445 216.903 153.3 216.932 149.412 216.924C141.621 216.924 130.891 216.655 119.056 215.805C113.142 215.373 107.512 214.828 102.405 214.247C97.2988 213.666 92.7094 213.029 88.8707 212.427C86.9442 212.144 85.2161 211.839 83.6934 211.584C82.1706 211.329 80.8604 211.096 79.7909 210.876L77.3333 210.401L76.6959 210.274L76.4834 210.217C76.5563 210.208 76.6301 210.208 76.703 210.217L77.3475 210.309L79.8192 210.713C80.8887 210.897 82.199 211.117 83.7288 211.343C85.2586 211.57 86.9867 211.868 88.9061 212.13C92.7518 212.703 97.3413 213.291 102.441 213.872C107.54 214.453 113.171 214.97 119.084 215.402C130.912 216.252 141.642 216.542 149.412 216.627C153.293 216.669 156.437 216.677 158.619 216.669H161.778L161.99 216.783Z" fill="#455A64"/>
<path d="M151.282 259.816C151.225 259.901 139.666 251.777 125.473 241.685C111.28 231.592 99.8132 223.327 99.8698 223.27C99.9265 223.214 111.485 231.309 125.685 241.409C139.886 251.508 151.338 259.731 151.282 259.816Z" fill="#263238"/>
<path d="M88.2836 65.7559L82.4406 55.4651C86.0494 49.6057 87.336 42.6083 86.0476 35.8484C84.7591 29.0885 80.9887 23.0551 75.4776 18.934C69.9665 14.8129 63.1131 12.9022 56.2648 13.5776C49.4164 14.253 43.0683 17.4655 38.4684 22.5837C33.8684 27.7019 31.3492 34.3557 31.406 41.237C31.4628 48.1184 34.0914 54.7296 38.7753 59.7712C43.4591 64.8128 49.8594 67.9201 56.7179 68.4824C63.5765 69.0446 70.3973 67.0211 75.8397 62.8096L88.2836 65.7559Z" fill="white"/>
<path d="M78.6302 39.64L77.1733 54.2034C77.1334 54.594 76.9404 54.9529 76.6366 55.2016C76.3327 55.4504 75.9428 55.5687 75.552 55.5307L52.4524 53.2173C52.2589 53.1979 52.0712 53.1406 51.8999 53.0486C51.7286 52.9566 51.5771 52.8318 51.4541 52.6812C51.3312 52.5306 51.2391 52.3573 51.1831 52.171C51.1272 51.9848 51.1085 51.7894 51.1282 51.596L52.5851 37.0327C52.6219 36.6686 52.8016 36.3339 53.0848 36.1023C53.3681 35.8706 53.7317 35.7608 54.0958 35.7969L77.3882 38.1293C77.569 38.1468 77.7447 38.1997 77.905 38.2851C78.0654 38.3705 78.2073 38.4866 78.3227 38.627C78.438 38.7673 78.5246 38.929 78.5774 39.1029C78.6302 39.2767 78.6481 39.4592 78.6302 39.64Z" fill="#37474F"/>
<path d="M78.3479 42.6266L52.3069 39.9539L51.9742 43.1952L78.0152 45.868L78.3479 42.6266Z" fill="#263238"/>
<path d="M76.1833 46.8175L53.5786 44.4974L53.3921 46.3146L75.9968 48.6347L76.1833 46.8175Z" fill="white"/>
<path d="M73.6716 47.0891L73.523 47.1587H73.5072C73.5012 47.1586 73.4953 47.1567 73.4902 47.1534C73.4852 47.15 73.4812 47.1453 73.4788 47.1397C73.4766 47.1356 73.4753 47.131 73.475 47.1264C73.4746 47.1217 73.4752 47.1171 73.4766 47.1126C73.4781 47.1082 73.4805 47.1041 73.4835 47.1006C73.4866 47.0972 73.4904 47.0943 73.4946 47.0923L73.6969 46.9975C73.7049 46.9941 73.7139 46.9938 73.722 46.9968C73.7302 46.9997 73.737 47.0056 73.7411 47.0133C73.7426 47.0227 73.7426 47.0323 73.7411 47.0417L73.6494 47.9425C73.6495 47.9472 73.6486 47.9519 73.6466 47.9562C73.6446 47.9605 73.6417 47.9643 73.6381 47.9674C73.6344 47.9704 73.6302 47.9726 73.6256 47.9737C73.621 47.9749 73.6162 47.975 73.6115 47.9741C73.6029 47.9725 73.5951 47.9677 73.5898 47.9607C73.5846 47.9537 73.5821 47.9449 73.5831 47.9361L73.6716 47.0891Z" fill="#263238"/>
<path d="M73.9116 47.9453L74.4141 47.5755C74.4427 47.5543 74.4665 47.5273 74.4839 47.4963C74.5014 47.4652 74.5121 47.4308 74.5153 47.3954C74.522 47.3335 74.505 47.2715 74.4679 47.2216C74.4467 47.193 74.4196 47.1692 74.3886 47.1518C74.3576 47.1343 74.3232 47.1237 74.2877 47.1204C74.2248 47.1126 74.1613 47.1296 74.1107 47.1678L74.0602 47.2058C74.0572 47.2091 74.0536 47.2118 74.0495 47.2137C74.0454 47.2155 74.041 47.2165 74.0365 47.2165C74.032 47.2165 74.0276 47.2155 74.0235 47.2137C74.0194 47.2118 74.0157 47.2091 74.0128 47.2058C74.0068 47.1993 74.0034 47.1909 74.0034 47.1821C74.0034 47.1733 74.0068 47.1648 74.0128 47.1584L74.0665 47.1173C74.1318 47.0687 74.2133 47.0472 74.2941 47.0572C74.3385 47.0617 74.3815 47.0756 74.4201 47.098C74.4588 47.1203 74.4923 47.1506 74.5184 47.1868C74.5666 47.25 74.5891 47.329 74.5816 47.408C74.5776 47.453 74.5639 47.4966 74.5415 47.5359C74.5192 47.5751 74.4887 47.6091 74.4521 47.6356L74.0223 47.9516L74.4868 47.999C74.4961 47.999 74.5049 48.0027 74.5114 48.0092C74.5179 48.0157 74.5216 48.0246 74.5216 48.0338C74.5216 48.043 74.5179 48.0519 74.5114 48.0584C74.5049 48.0649 74.4961 48.0686 74.4868 48.0686L73.9401 48.0148C73.9362 48.0168 73.9318 48.0178 73.9274 48.0178C73.9231 48.0178 73.9187 48.0168 73.9148 48.0148C73.9056 48.0153 73.8966 48.012 73.8898 48.0058C73.8829 47.9996 73.8789 47.9909 73.8785 47.9817C73.878 47.9724 73.8813 47.9634 73.8875 47.9566C73.8937 47.9498 73.9024 47.9457 73.9116 47.9453Z" fill="#263238"/>
<path d="M75.4067 47.2252L75.1254 47.4623C75.1884 47.4816 75.2445 47.519 75.2866 47.5697C75.3149 47.6031 75.3359 47.6419 75.3484 47.6838C75.3609 47.7257 75.3646 47.7697 75.3593 47.8131C75.3496 47.9022 75.3054 47.9839 75.236 48.0406C75.2027 48.0689 75.1638 48.09 75.1219 48.1025C75.0801 48.115 75.036 48.1187 74.9926 48.1133C74.949 48.11 74.9065 48.0975 74.8678 48.0769C74.8292 48.0562 74.7953 48.0277 74.7683 47.9932C74.7643 47.9903 74.7611 47.9865 74.759 47.9821C74.7568 47.9777 74.7556 47.9729 74.7556 47.968C74.7556 47.963 74.7568 47.9582 74.759 47.9538C74.7611 47.9494 74.7643 47.9456 74.7683 47.9427C74.7715 47.9392 74.7754 47.9365 74.7798 47.9346C74.7841 47.9327 74.7888 47.9318 74.7935 47.9318C74.7983 47.9318 74.803 47.9327 74.8073 47.9346C74.8117 47.9365 74.8156 47.9392 74.8188 47.9427C74.8404 47.9696 74.8672 47.9919 74.8976 48.0082C74.928 48.0244 74.9614 48.0344 74.9958 48.0375C75.0658 48.0445 75.1357 48.0236 75.1902 47.9791C75.2447 47.9347 75.2794 47.8704 75.2866 47.8004C75.2898 47.7659 75.2861 47.7311 75.2758 47.698C75.2655 47.665 75.2488 47.6342 75.2265 47.6077C75.2049 47.5808 75.1781 47.5585 75.1477 47.5422C75.1173 47.5259 75.0839 47.5159 75.0495 47.5128C75.044 47.5122 75.0388 47.5101 75.0344 47.5068C75.0299 47.5034 75.0264 47.499 75.0243 47.4939C75.0208 47.4906 75.0181 47.4867 75.0162 47.4824C75.0143 47.478 75.0134 47.4733 75.0134 47.4686C75.0134 47.4639 75.0143 47.4592 75.0162 47.4548C75.0181 47.4505 75.0208 47.4466 75.0243 47.4433L75.2929 47.2189L74.9168 47.181C74.9119 47.1806 74.9072 47.1793 74.9029 47.1769C74.8986 47.1746 74.8948 47.1714 74.8918 47.1675C74.8888 47.1637 74.8867 47.1592 74.8856 47.1544C74.8844 47.1497 74.8843 47.1447 74.8852 47.1399C74.8856 47.1353 74.8869 47.1309 74.889 47.1268C74.8911 47.1228 74.894 47.1192 74.8976 47.1162C74.9011 47.1133 74.9052 47.1111 74.9096 47.1097C74.9139 47.1084 74.9185 47.1079 74.9231 47.1083L75.3814 47.1557C75.3861 47.1556 75.3908 47.1566 75.3951 47.1586C75.3995 47.1605 75.4033 47.1634 75.4063 47.1671C75.4093 47.1707 75.4115 47.175 75.4127 47.1796C75.4138 47.1842 75.4139 47.189 75.413 47.1936C75.4149 47.1987 75.4149 47.2044 75.413 47.2094L75.4067 47.2252Z" fill="#263238"/>
<path d="M70.8305 50.0107L53.1995 48.2012L53.163 48.5564L70.7941 50.366L70.8305 50.0107Z" fill="#263238"/>
<path d="M71.5237 50.7764L53.1287 48.8884L53.0922 49.2437L71.4872 51.1317L71.5237 50.7764Z" fill="#263238"/>
<path d="M69.518 51.266L53.0596 49.5768L53.0231 49.932L69.4815 51.6212L69.518 51.266Z" fill="#263238"/>
<path d="M66.7838 51.1382L52.9263 49.7384L52.8906 50.092L66.7481 51.4917L66.7838 51.1382Z" fill="#263238"/>
<path d="M66.9588 30.8033L69.3291 45.2466C69.3607 45.4387 69.3542 45.6353 69.3098 45.8249C69.2654 46.0145 69.1841 46.1936 69.0705 46.3518C68.957 46.51 68.8133 46.6442 68.6478 46.7469C68.4823 46.8495 68.2982 46.9186 68.106 46.95L45.1992 50.7078C45.0072 50.7394 44.8109 50.7328 44.6215 50.6884C44.432 50.644 44.2532 50.5627 44.0953 50.4491C43.9373 50.3355 43.8033 50.1918 43.701 50.0263C43.5987 49.8608 43.53 49.6768 43.4989 49.4847L41.1286 35.0415C41.0702 34.6811 41.1572 34.3123 41.3705 34.016C41.5839 33.7197 41.906 33.5202 42.2663 33.4613L65.3754 29.6687C65.7357 29.6102 66.1045 29.6967 66.4012 29.9094C66.6979 30.122 66.8983 30.4434 66.9588 30.8033Z" fill="#455A64"/>
<path d="M47.1997 38.6346L45.7017 38.8811C45.4817 38.9173 45.2568 38.9097 45.0397 38.8589C44.8227 38.8081 44.6177 38.7151 44.4367 38.585C44.2556 38.455 44.1019 38.2906 43.9844 38.1012C43.8668 37.9118 43.7878 37.701 43.7517 37.4811C43.7156 37.2611 43.7231 37.0361 43.7739 36.8191C43.8247 36.602 43.9178 36.3971 44.0478 36.216C44.1778 36.0349 44.3422 35.8812 44.5316 35.7637C44.7211 35.6462 44.9318 35.5671 45.1518 35.5311L46.6498 35.2845C46.8698 35.2484 47.0947 35.2559 47.3118 35.3067C47.5288 35.3575 47.7338 35.4506 47.9148 35.5806C48.0959 35.7106 48.2496 35.8751 48.3671 36.0645C48.4847 36.2539 48.5637 36.4646 48.5998 36.6846C48.636 36.9046 48.6284 37.1295 48.5776 37.3466C48.5268 37.5637 48.4337 37.7686 48.3037 37.9497C48.1737 38.1307 48.0093 38.2844 47.8199 38.402C47.6304 38.5195 47.4197 38.5985 47.1997 38.6346Z" fill="#FFC727"/>
<path d="M64.4526 34.2515L62.2593 34.6276C62.016 34.6636 61.7682 34.6036 61.5683 34.4603C61.3684 34.317 61.232 34.1016 61.1879 33.8596C61.152 33.6163 61.212 33.3685 61.3553 33.1686C61.4986 32.9687 61.7139 32.8323 61.9559 32.7882L64.1492 32.4311C64.2701 32.4108 64.3937 32.4145 64.5131 32.4422C64.6324 32.4698 64.7451 32.5208 64.8447 32.5922C64.9443 32.6636 65.0288 32.7539 65.0933 32.8581C65.1578 32.9622 65.2011 33.0781 65.2206 33.1991C65.2513 33.4394 65.1888 33.6824 65.046 33.8781C64.9032 34.0738 64.6909 34.2074 64.4526 34.2515Z" fill="white"/>
<path d="M44.3491 42.2409L44.1721 42.3894C44.1638 42.3911 44.1552 42.3911 44.1468 42.3894C44.1384 42.3905 44.1299 42.3893 44.1221 42.386C44.1143 42.3826 44.1076 42.3773 44.1026 42.3705C44.0978 42.366 44.094 42.3606 44.0914 42.3547C44.0888 42.3487 44.0874 42.3422 44.0874 42.3357C44.0874 42.3292 44.0888 42.3227 44.0914 42.3167C44.094 42.3107 44.0978 42.3054 44.1026 42.3009L44.3459 42.0923C44.3553 42.0834 44.3678 42.0785 44.3807 42.0785C44.3936 42.0785 44.4061 42.0834 44.4155 42.0923C44.4199 42.1035 44.4199 42.1159 44.4155 42.1271L44.6272 43.4166C44.6286 43.423 44.6286 43.4297 44.6272 43.4362C44.6258 43.4426 44.6231 43.4487 44.6193 43.4541C44.6154 43.4595 44.6104 43.4639 44.6047 43.4673C44.599 43.4706 44.5927 43.4727 44.5861 43.4735C44.5798 43.4748 44.5733 43.4748 44.567 43.4734C44.5607 43.4721 44.5548 43.4693 44.5497 43.4654C44.5446 43.4615 44.5404 43.4565 44.5374 43.4508C44.5344 43.4451 44.5327 43.4388 44.5324 43.4324L44.3491 42.2409Z" fill="white"/>
<path d="M44.9845 43.3438L45.5439 42.6453C45.5763 42.6048 45.6 42.5581 45.6135 42.5081C45.6271 42.4581 45.6303 42.4059 45.6229 42.3546C45.6063 42.2658 45.558 42.186 45.487 42.1302C45.4471 42.0981 45.4008 42.0748 45.3513 42.0618C45.3017 42.0487 45.25 42.0462 45.1994 42.0543C45.1104 42.0705 45.0298 42.1175 44.9719 42.1871L44.9118 42.2629C44.9077 42.2676 44.9026 42.2714 44.8969 42.274C44.8911 42.2766 44.8849 42.2779 44.8787 42.2779C44.8724 42.2779 44.8662 42.2766 44.8605 42.274C44.8547 42.2714 44.8496 42.2676 44.8455 42.2629C44.8402 42.2591 44.836 42.2541 44.8331 42.2483C44.8301 42.2426 44.8286 42.2362 44.8286 42.2297C44.8286 42.2233 44.8301 42.2169 44.8331 42.2111C44.836 42.2054 44.8402 42.2004 44.8455 42.1965L44.9024 42.1207C44.9402 42.0726 44.9873 42.0325 45.0407 42.0027C45.0941 41.9729 45.1529 41.9539 45.2137 41.9468C45.2745 41.9398 45.3361 41.9448 45.3949 41.9616C45.4538 41.9784 45.5087 42.0067 45.5566 42.0448C45.6046 42.0827 45.6447 42.1297 45.6746 42.1832C45.7044 42.2366 45.7234 42.2954 45.7304 42.3562C45.7375 42.417 45.7325 42.4786 45.7156 42.5374C45.6988 42.5962 45.6705 42.6512 45.6324 42.6991L45.1552 43.2995L45.8189 43.1921C45.8318 43.1902 45.845 43.1935 45.8556 43.2012C45.8662 43.2088 45.8734 43.2203 45.8758 43.2332C45.8769 43.246 45.8733 43.2588 45.8658 43.2692C45.8583 43.2797 45.8472 43.2871 45.8347 43.2901L45.0509 43.4196C45.0446 43.423 45.0375 43.4247 45.0304 43.4247C45.0232 43.4247 45.0162 43.423 45.0098 43.4196C44.9965 43.4129 44.9863 43.4011 44.9816 43.3869C44.9769 43.3727 44.9779 43.3572 44.9845 43.3438Z" fill="white"/>
<path d="M46.8209 41.7794L46.5048 42.2124C46.5991 42.2151 46.6904 42.246 46.7671 42.3009C46.8186 42.3382 46.8621 42.3853 46.8952 42.4396C46.9283 42.4938 46.9503 42.5541 46.9599 42.6169C46.9717 42.6796 46.9702 42.7441 46.9555 42.8061C46.9408 42.8682 46.9133 42.9265 46.8746 42.9772C46.838 43.0296 46.7911 43.074 46.7367 43.1077C46.6824 43.1414 46.6218 43.1637 46.5585 43.1732C46.4319 43.1933 46.3024 43.1626 46.1982 43.0878C46.1894 43.0785 46.1844 43.066 46.1844 43.0531C46.1844 43.0401 46.1894 43.0277 46.1982 43.0183C46.2027 43.0135 46.2081 43.0097 46.214 43.0071C46.22 43.0045 46.2265 43.0031 46.233 43.0031C46.2395 43.0031 46.246 43.0045 46.252 43.0071C46.258 43.0097 46.2633 43.0135 46.2678 43.0183C46.3502 43.0769 46.4524 43.1007 46.5522 43.0847C46.6523 43.0671 46.7417 43.0116 46.8019 42.9298C46.8605 42.8474 46.8843 42.7452 46.8683 42.6454C46.86 42.5961 46.842 42.549 46.8154 42.5067C46.7888 42.4644 46.7542 42.4277 46.7134 42.3989C46.673 42.3691 46.6269 42.3478 46.578 42.3364C46.5291 42.325 46.4784 42.3237 46.429 42.3325C46.4213 42.334 46.4134 42.3334 46.4061 42.3306C46.3989 42.3278 46.3925 42.323 46.3879 42.3167C46.383 42.312 46.3791 42.3063 46.3765 42.3001C46.3738 42.2938 46.3725 42.2871 46.3725 42.2803C46.3725 42.2736 46.3738 42.2669 46.3765 42.2606C46.3791 42.2544 46.383 42.2487 46.3879 42.244L46.6786 41.8268L46.1414 41.9153C46.1277 41.9164 46.1141 41.9125 46.1031 41.9044C46.092 41.8963 46.0843 41.8844 46.0813 41.8711C46.0795 41.8581 46.0827 41.845 46.0904 41.8343C46.098 41.8237 46.1095 41.8165 46.1224 41.8142L46.7798 41.7067C46.7864 41.7054 46.7933 41.7053 46.7999 41.7067C46.8066 41.708 46.8129 41.7107 46.8185 41.7145C46.8241 41.7184 46.8289 41.7233 46.8326 41.729C46.8362 41.7347 46.8387 41.7411 46.8398 41.7478C46.8416 41.7551 46.8416 41.7627 46.8398 41.7699C46.8344 41.7746 46.8279 41.7778 46.8209 41.7794Z" fill="white"/>
<path d="M48.17 42.6139L47.4083 42.7403C47.4035 42.7431 47.3981 42.7446 47.3925 42.7446C47.387 42.7446 47.3815 42.7431 47.3767 42.7403C47.371 42.7374 47.3659 42.7333 47.3618 42.7283C47.3577 42.7233 47.3547 42.7175 47.3529 42.7113C47.3511 42.705 47.3506 42.6985 47.3515 42.6921C47.3523 42.6857 47.3544 42.6795 47.3577 42.674L47.9898 41.5267C47.9928 41.521 47.9969 41.5159 48.0019 41.5118C48.0069 41.5077 48.0127 41.5047 48.0189 41.5029C48.0251 41.5011 48.0317 41.5007 48.0381 41.5015C48.0445 41.5023 48.0507 41.5045 48.0562 41.5078C48.0642 41.5135 48.0708 41.5211 48.0752 41.5299L48.2332 42.497H48.328C48.3406 42.497 48.3526 42.502 48.3615 42.5109C48.3704 42.5198 48.3754 42.5318 48.3754 42.5444C48.3754 42.557 48.3704 42.569 48.3615 42.5779C48.3526 42.5868 48.3406 42.5918 48.328 42.5918L48.2332 42.6076L48.2711 42.8478C48.2725 42.8543 48.2725 42.8609 48.2711 42.8674C48.2697 42.8739 48.267 42.88 48.2632 42.8853C48.2593 42.8907 48.2543 42.8952 48.2486 42.8985C48.2429 42.9018 48.2366 42.904 48.23 42.9047C48.2175 42.9066 48.2047 42.9038 48.1942 42.8968C48.1837 42.8898 48.1762 42.8791 48.1731 42.8668L48.17 42.6139ZM48.1542 42.5191L48.0183 41.6942L47.4873 42.6266L48.1542 42.5191Z" fill="white"/>
<path d="M49.9557 42.475C49.9509 42.4705 49.9471 42.4651 49.9445 42.4592C49.9419 42.4532 49.9405 42.4467 49.9405 42.4402C49.9405 42.4337 49.9419 42.4272 49.9445 42.4212C49.9471 42.4153 49.9509 42.4099 49.9557 42.4054C49.9651 42.3965 49.9775 42.3916 49.9905 42.3916C50.0034 42.3916 50.0158 42.3965 50.0252 42.4054C50.1079 42.4634 50.2098 42.4872 50.3097 42.4718C50.3593 42.4646 50.4068 42.447 50.4493 42.4204C50.4917 42.3937 50.5281 42.3585 50.5562 42.3169C50.6147 42.235 50.6386 42.1333 50.6226 42.0339C50.6066 41.9345 50.5521 41.8454 50.4708 41.786C50.4307 41.7569 50.3851 41.7361 50.3368 41.7247C50.2886 41.7133 50.2385 41.7116 50.1896 41.7196C50.1396 41.7272 50.0918 41.7448 50.0488 41.7714C50.0059 41.798 49.9689 41.8331 49.9399 41.8745C49.9305 41.8834 49.9181 41.8883 49.9051 41.8883C49.8922 41.8883 49.8798 41.8834 49.8704 41.8745C49.8667 41.8732 49.8634 41.8712 49.8606 41.8684C49.8579 41.8657 49.8558 41.8623 49.8546 41.8587C49.8546 41.8587 49.8546 41.8587 49.8546 41.8429L49.8293 41.2677C49.826 41.2613 49.8242 41.2543 49.8242 41.2471C49.8242 41.24 49.826 41.2329 49.8293 41.2266C49.8342 41.2243 49.8396 41.2231 49.8451 41.2231C49.8505 41.2231 49.8559 41.2243 49.8609 41.2266L50.5151 41.1191C50.5226 41.1172 50.5304 41.117 50.5379 41.1186C50.5455 41.1202 50.5525 41.1234 50.5586 41.1282C50.5647 41.1329 50.5697 41.139 50.573 41.1459C50.5764 41.1528 50.5782 41.1604 50.5782 41.1681C50.5782 41.1758 50.5764 41.1834 50.573 41.1904C50.5697 41.1973 50.5647 41.2033 50.5586 41.2081C50.5525 41.2128 50.5455 41.2161 50.5379 41.2176C50.5304 41.2192 50.5226 41.219 50.5151 41.2171L49.902 41.3182L49.9209 41.7449C49.987 41.692 50.0652 41.6561 50.1485 41.6406C50.2112 41.6303 50.2753 41.6325 50.3372 41.6472C50.399 41.6618 50.4573 41.6886 50.5088 41.7259C50.5607 41.7627 50.6046 41.8097 50.6378 41.8641C50.6709 41.9184 50.6926 41.979 50.7016 42.042C50.7125 42.1045 50.7109 42.1685 50.6968 42.2304C50.6827 42.2923 50.6563 42.3507 50.6194 42.4023C50.5427 42.5054 50.4298 42.5754 50.3033 42.5982C50.2401 42.6016 50.1769 42.5924 50.1172 42.5713C50.0576 42.5501 50.0027 42.5174 49.9557 42.475Z" fill="white"/>
<path d="M51.3064 41.0431C51.2286 41.1109 51.1703 41.1983 51.1377 41.2962C51.0733 41.4808 51.0559 41.6785 51.0871 41.8714C51.0916 41.9023 51.0979 41.9329 51.1061 41.9631C51.1241 42.0538 51.1684 42.1372 51.2334 42.2029C51.2985 42.2686 51.3815 42.3137 51.472 42.3325C51.5626 42.3514 51.6567 42.3431 51.7425 42.3089C51.8284 42.2746 51.9023 42.2158 51.955 42.1398C52.0077 42.0638 52.0368 41.9739 52.0388 41.8815C52.0408 41.789 52.0154 41.698 51.966 41.6199C51.9166 41.5417 51.8453 41.4798 51.7609 41.4419C51.6766 41.404 51.5829 41.3918 51.4917 41.4068C51.4268 41.4184 51.3651 41.4435 51.3107 41.4805C51.2562 41.5176 51.2102 41.5657 51.1756 41.6217C51.1767 41.5204 51.1948 41.42 51.2293 41.3247C51.2581 41.2443 51.3074 41.1729 51.3722 41.1175C51.4371 41.0621 51.5153 41.0245 51.5991 41.0086C51.612 41.0056 51.6233 40.9976 51.6304 40.9864C51.6375 40.9751 51.6399 40.9615 51.637 40.9486C51.634 40.9363 51.6265 40.9255 51.616 40.9185C51.6054 40.9115 51.5927 40.9087 51.5801 40.9106C51.4787 40.9296 51.3842 40.9753 51.3064 41.0431Z" fill="white"/>
<path d="M52.6169 42.1111L52.9329 40.7932L52.2534 40.9038C52.2469 40.9052 52.2403 40.9052 52.2338 40.9038C52.2273 40.9025 52.2212 40.8997 52.2159 40.8959C52.2105 40.892 52.206 40.8871 52.2027 40.8814C52.1994 40.8756 52.1973 40.8693 52.1965 40.8627C52.1956 40.8565 52.196 40.8502 52.1976 40.8441C52.1992 40.838 52.202 40.8323 52.2058 40.8273C52.2096 40.8223 52.2144 40.8181 52.2199 40.8149C52.2253 40.8118 52.2314 40.8098 52.2376 40.809L52.9803 40.6858C52.9906 40.6824 53.0016 40.6824 53.0119 40.6858C53.024 40.6907 53.0341 40.6996 53.0404 40.711C53.0426 40.7155 53.0437 40.7203 53.0437 40.7253C53.0437 40.7302 53.0426 40.7351 53.0404 40.7395L52.7243 42.1206C52.7226 42.13 52.718 42.1387 52.7112 42.1454C52.7045 42.1522 52.6958 42.1568 52.6864 42.1585H52.6643C52.6524 42.1567 52.6414 42.1511 52.6328 42.1426C52.6243 42.134 52.6187 42.123 52.6169 42.1111Z" fill="white"/>
<path d="M53.786 40.5467C53.8244 40.5399 53.8638 40.5409 53.9019 40.5495C53.9399 40.5581 53.9759 40.5742 54.0076 40.5968C54.0394 40.6195 54.0664 40.6482 54.0869 40.6814C54.1075 40.7146 54.1212 40.7515 54.1273 40.7901C54.1333 40.8361 54.129 40.883 54.1148 40.9272C54.1006 40.9715 54.0768 41.012 54.0451 41.0461C54.1491 41.0703 54.2415 41.13 54.3064 41.2147C54.3714 41.2995 54.4049 41.4042 54.4013 41.5109C54.3978 41.6176 54.3572 41.7198 54.2867 41.8C54.2162 41.8802 54.1201 41.9335 54.0147 41.9508C53.9093 41.968 53.8012 41.9482 53.7088 41.8946C53.6164 41.841 53.5454 41.7571 53.508 41.6571C53.4706 41.5571 53.469 41.4472 53.5036 41.3461C53.5381 41.2451 53.6067 41.1591 53.6975 41.1029C53.6573 41.0801 53.6226 41.0488 53.5959 41.0111C53.5691 40.9734 53.5509 40.9303 53.5426 40.8849C53.5363 40.8467 53.5376 40.8076 53.5464 40.7699C53.5552 40.7322 53.5714 40.6966 53.594 40.6652C53.6167 40.6338 53.6452 40.6072 53.6782 40.5868C53.7111 40.5665 53.7478 40.5528 53.786 40.5467ZM54.0009 41.8551C54.0482 41.8477 54.0936 41.831 54.1345 41.806C54.1754 41.7809 54.2109 41.7481 54.239 41.7093C54.2671 41.6705 54.2872 41.6265 54.2983 41.5799C54.3093 41.5332 54.311 41.4849 54.3033 41.4376C54.2956 41.3903 54.2786 41.345 54.2534 41.3043C54.2281 41.2636 54.195 41.2283 54.156 41.2004C54.117 41.1725 54.0729 41.1527 54.0262 41.1419C53.9796 41.1311 53.9312 41.1297 53.884 41.1377C53.7893 41.1537 53.7048 41.2066 53.649 41.2847C53.5931 41.3628 53.5705 41.4598 53.5859 41.5545C53.6014 41.6493 53.6537 41.7341 53.7314 41.7904C53.8092 41.8467 53.906 41.87 54.0009 41.8551ZM53.8681 41.0366C53.9199 41.0266 53.9658 40.997 53.9964 40.9541C54.027 40.9111 54.0399 40.8581 54.0325 40.8059C54.0283 40.7799 54.019 40.7549 54.005 40.7326C53.9911 40.7102 53.9729 40.6908 53.9515 40.6755C53.93 40.6602 53.9057 40.6493 53.88 40.6435C53.8543 40.6377 53.8277 40.637 53.8018 40.6415C53.7762 40.6457 53.7517 40.655 53.7297 40.6687C53.7077 40.6825 53.6886 40.7004 53.6736 40.7216C53.6586 40.7428 53.648 40.7667 53.6423 40.792C53.6367 40.8173 53.6361 40.8435 53.6406 40.8691C53.6445 40.895 53.6534 40.92 53.667 40.9425C53.6805 40.965 53.6984 40.9846 53.7195 41.0002C53.7407 41.0157 53.7647 41.027 53.7902 41.0332C53.8157 41.0395 53.8422 41.0406 53.8681 41.0366Z" fill="white"/>
<path d="M56.2859 40.1359C56.4002 40.1167 56.5174 40.1402 56.6154 40.202C56.7133 40.2638 56.7851 40.3596 56.8169 40.4709C56.8169 40.4709 56.8359 40.5468 56.8422 40.5879C56.8782 40.7833 56.8629 40.9848 56.7979 41.1726C56.765 41.2697 56.707 41.3565 56.6299 41.4242C56.5528 41.4919 56.4593 41.5381 56.3586 41.5581C56.3524 41.5595 56.3459 41.5596 56.3397 41.5584C56.3334 41.5573 56.3274 41.5548 56.3221 41.5513C56.3168 41.5477 56.3123 41.5432 56.3088 41.5378C56.3053 41.5325 56.3029 41.5265 56.3017 41.5202C56.2999 41.5138 56.2994 41.507 56.3003 41.5003C56.3013 41.4937 56.3036 41.4873 56.3072 41.4816C56.3108 41.476 56.3155 41.4711 56.3211 41.4674C56.3267 41.4637 56.333 41.4612 56.3397 41.4602C56.4235 41.4442 56.5017 41.4067 56.5666 41.3513C56.6314 41.2958 56.6807 41.2244 56.7094 41.1441C56.7437 41.0487 56.7618 40.9483 56.7632 40.847C56.7286 40.9028 56.6825 40.9505 56.628 40.987C56.5735 41.0235 56.5118 41.048 56.4471 41.0588C56.3243 41.0789 56.1986 41.0494 56.0975 40.9768C55.9965 40.9042 55.9284 40.7944 55.9083 40.6716C55.8882 40.5488 55.9176 40.4231 55.9902 40.322C56.0629 40.221 56.1726 40.1529 56.2954 40.1328L56.2859 40.1359ZM56.7316 40.5373C56.7202 40.4646 56.6877 40.3969 56.638 40.3427C56.5883 40.2885 56.5237 40.2502 56.4523 40.2326C56.3808 40.215 56.3058 40.219 56.2366 40.2439C56.1675 40.2688 56.1072 40.3137 56.0634 40.3728C56.0196 40.4319 55.9943 40.5026 55.9906 40.576C55.9869 40.6495 56.005 40.7224 56.0427 40.7856C56.0803 40.8488 56.1358 40.8994 56.2021 40.9311C56.2685 40.9629 56.3427 40.9743 56.4155 40.964C56.4646 40.9574 56.5119 40.9411 56.5545 40.9159C56.5972 40.8908 56.6344 40.8573 56.6638 40.8175C56.6933 40.7777 56.7145 40.7324 56.7261 40.6843C56.7378 40.6362 56.7396 40.5862 56.7316 40.5373Z" fill="white"/>
<path d="M57.2243 40.705C57.1925 40.5317 57.2112 40.3529 57.2781 40.1899C57.3015 40.1203 57.3433 40.0584 57.3992 40.0108C57.4551 39.9632 57.5229 39.9317 57.5953 39.9196C57.6677 39.9076 57.7421 39.9155 57.8103 39.9425C57.8786 39.9696 57.9382 40.0146 57.9828 40.0729C58.0982 40.206 58.1729 40.3695 58.1978 40.5438C58.2297 40.7161 58.211 40.8939 58.144 41.0558C58.1182 41.1239 58.0758 41.1845 58.0206 41.2319C57.9654 41.2794 57.8992 41.3123 57.828 41.3276C57.756 41.3348 57.6833 41.3245 57.6162 41.2975C57.5491 41.2705 57.4894 41.2278 57.4424 41.1728C57.326 41.0413 57.2502 40.8788 57.2243 40.705ZM57.3223 40.705C57.3449 40.8582 57.4107 41.0018 57.5119 41.119C57.5477 41.1624 57.5934 41.1965 57.6451 41.2185C57.6968 41.2405 57.753 41.2497 57.809 41.2455C57.8641 41.2324 57.9152 41.206 57.9576 41.1685C58 41.131 58.0326 41.0836 58.0524 41.0306C58.1088 40.8855 58.125 40.728 58.0994 40.5745C58.0738 40.421 58.0074 40.2772 57.907 40.1583C57.8717 40.1161 57.8261 40.0838 57.7745 40.0646C57.723 40.0455 57.6673 40.0401 57.6131 40.049C57.5588 40.058 57.5078 40.0809 57.4651 40.1156C57.4225 40.1503 57.3896 40.1955 57.3697 40.2468C57.3138 40.3872 57.2974 40.5402 57.3223 40.6892V40.705Z" fill="white"/>
<path d="M58.7573 39.877L58.5771 40.0255C58.5699 40.0276 58.5623 40.0276 58.555 40.0255C58.5464 40.0269 58.5376 40.0262 58.5294 40.0235C58.5211 40.0207 58.5136 40.016 58.5076 40.0097C58.5028 40.0053 58.499 39.9999 58.4964 39.9939C58.4938 39.9879 58.4924 39.9815 58.4924 39.975C58.4924 39.9684 58.4938 39.962 58.4964 39.956C58.499 39.95 58.5028 39.9446 58.5076 39.9402L58.751 39.7284C58.7604 39.7196 58.7728 39.7146 58.7857 39.7146C58.7987 39.7146 58.8111 39.7196 58.8205 39.7284C58.8236 39.7398 58.8236 39.7518 58.8205 39.7632L59.0322 41.0558C59.0331 41.0621 59.0328 41.0684 59.0312 41.0745C59.0296 41.0806 59.0268 41.0863 59.023 41.0913C59.0191 41.0963 59.0144 41.1005 59.0089 41.1036C59.0034 41.1068 58.9974 41.1088 58.9912 41.1096C58.9849 41.1109 58.9785 41.111 58.9722 41.1099C58.9659 41.1087 58.9599 41.1063 58.9546 41.1027C58.9493 41.0992 58.9448 41.0946 58.9413 41.0892C58.9378 41.0839 58.9354 41.0779 58.9343 41.0716L58.7573 39.877Z" fill="white"/>
<path d="M59.3928 40.9831L59.9522 40.2815C59.9839 40.2413 60.007 40.195 60.02 40.1456C60.0331 40.0961 60.0358 40.0444 60.028 39.9939C60.0147 39.9038 59.9672 39.8223 59.8953 39.7663C59.8551 39.7346 59.8088 39.7115 59.7594 39.6985C59.7099 39.6854 59.6583 39.6827 59.6077 39.6905C59.5174 39.7057 59.4355 39.7528 59.377 39.8232L59.3201 39.8991C59.3168 39.9058 59.3121 39.9117 59.3062 39.9163C59.3004 39.921 59.2936 39.9243 59.2863 39.926C59.2791 39.9277 59.2715 39.9278 59.2642 39.9263C59.2569 39.9247 59.25 39.9216 59.2441 39.917C59.2381 39.9125 59.2333 39.9068 59.2298 39.9001C59.2264 39.8935 59.2244 39.8862 59.2242 39.8787C59.2239 39.8713 59.2252 39.8638 59.2282 39.857C59.2311 39.8501 59.2355 39.844 59.2411 39.839L59.3011 39.7632C59.3741 39.6728 59.4774 39.6121 59.5919 39.5925C59.6557 39.5823 59.721 39.5855 59.7835 39.6018C59.8461 39.6181 59.9046 39.6472 59.9553 39.6873C60.0034 39.7252 60.0435 39.7722 60.0733 39.8256C60.1032 39.8791 60.1222 39.9379 60.1292 39.9987C60.1363 40.0594 60.1312 40.121 60.1144 40.1799C60.0976 40.2387 60.0693 40.2936 60.0312 40.3415L59.5508 40.942L60.2176 40.8345C60.2239 40.8337 60.2302 40.834 60.2363 40.8356C60.2424 40.8372 60.2481 40.84 60.2531 40.8438C60.2581 40.8476 60.2623 40.8524 60.2655 40.8579C60.2686 40.8634 60.2706 40.8694 60.2714 40.8756C60.2728 40.8819 60.2729 40.8883 60.2717 40.8946C60.2705 40.9009 60.2681 40.9068 60.2645 40.9122C60.261 40.9175 60.2564 40.922 60.2511 40.9255C60.2457 40.929 60.2397 40.9314 60.2335 40.9325L59.4497 41.0621C59.4375 41.067 59.4239 41.067 59.4117 41.0621C59.4049 41.0586 59.3989 41.0536 59.3941 41.0475C59.3894 41.0414 59.386 41.0344 59.3842 41.0269C59.3824 41.0194 59.3822 41.0116 59.3837 41.0041C59.3852 40.9965 59.3883 40.9894 59.3928 40.9831Z" fill="white"/>
<path d="M62.4329 39.2195L62.1169 39.6525C62.2282 39.6558 62.3348 39.6981 62.418 39.772C62.5012 39.846 62.5557 39.9469 62.572 40.057C62.5829 40.1197 62.5809 40.184 62.5662 40.2459C62.5516 40.3078 62.5245 40.3662 62.4867 40.4173C62.4499 40.469 62.4033 40.5129 62.3495 40.5465C62.2956 40.58 62.2357 40.6026 62.1731 40.6129C62.1105 40.6232 62.0465 40.621 61.9848 40.6064C61.9231 40.5918 61.8649 40.5651 61.8135 40.5279C61.8086 40.5232 61.8047 40.5176 61.8021 40.5113C61.7995 40.5051 61.7981 40.4984 61.7981 40.4916C61.7981 40.4848 61.7995 40.4781 61.8021 40.4719C61.8047 40.4656 61.8086 40.46 61.8135 40.4553C61.8179 40.4505 61.8233 40.4466 61.8293 40.444C61.8353 40.4414 61.8417 40.4401 61.8483 40.4401C61.8548 40.4401 61.8613 40.4414 61.8672 40.444C61.8732 40.4466 61.8786 40.4505 61.883 40.4553C61.9648 40.5125 62.0659 40.5352 62.1643 40.5185C62.214 40.5112 62.2617 40.494 62.3046 40.468C62.3475 40.442 62.3848 40.4077 62.4143 40.367C62.4437 40.3264 62.4648 40.2803 62.4761 40.2314C62.4875 40.1825 62.4889 40.1318 62.4804 40.0823C62.4731 40.0331 62.4559 39.9858 62.4299 39.9435C62.4038 39.9011 62.3693 39.8644 62.3287 39.8358C62.2884 39.8056 62.2424 39.7839 62.1935 39.772C62.1447 39.76 62.0939 39.7581 62.0442 39.7663C62.0372 39.7692 62.0297 39.7708 62.0221 39.7708C62.0145 39.7708 62.007 39.7692 62 39.7663C61.9951 39.7616 61.9912 39.7559 61.9886 39.7497C61.9859 39.7434 61.9846 39.7367 61.9846 39.7299C61.9846 39.7231 61.9859 39.7164 61.9886 39.7102C61.9912 39.7039 61.9951 39.6983 62 39.6936L62.2907 39.2764L61.7503 39.3649C61.7438 39.3663 61.7371 39.3663 61.7307 39.3649C61.7242 39.3635 61.7181 39.3608 61.7128 39.3569C61.7074 39.3531 61.7029 39.3481 61.6996 39.3424C61.6962 39.3367 61.6941 39.3304 61.6934 39.3238C61.692 39.3173 61.692 39.3107 61.6934 39.3042C61.6948 39.2977 61.6975 39.2916 61.7014 39.2863C61.7052 39.2809 61.7102 39.2764 61.7159 39.2731C61.7216 39.2698 61.7279 39.2677 61.7345 39.2669L62.3919 39.1563C62.4055 39.1552 62.4191 39.1591 62.4301 39.1672C62.4412 39.1753 62.4489 39.1872 62.4519 39.2006C62.4534 39.2079 62.4534 39.2154 62.4519 39.2227C62.4454 39.223 62.439 39.2219 62.4329 39.2195Z" fill="white"/>
<path d="M63.7794 40.0538L63.0209 40.1771C63.0106 40.1805 62.9995 40.1805 62.9893 40.1771C62.9832 40.1745 62.9777 40.1706 62.9733 40.1656C62.9689 40.1607 62.9657 40.1548 62.9639 40.1484C62.962 40.1421 62.9617 40.1354 62.9628 40.1288C62.9639 40.1223 62.9665 40.1161 62.9703 40.1107L63.6024 38.9635C63.6065 38.9588 63.6116 38.955 63.6174 38.9524C63.6231 38.9498 63.6293 38.9485 63.6356 38.9485C63.6418 38.9485 63.6481 38.9498 63.6538 38.9524C63.6595 38.955 63.6646 38.9588 63.6688 38.9635C63.6733 38.9656 63.6774 38.9686 63.6807 38.9724C63.6839 38.9763 63.6863 38.9807 63.6877 38.9856L63.8457 39.9495L63.9406 39.9337C63.9534 39.9326 63.9662 39.9361 63.9766 39.9437C63.9871 39.9512 63.9945 39.9623 63.9974 39.9748C63.9985 39.9876 63.995 40.0004 63.9875 40.0109C63.9799 40.0213 63.9689 40.0287 63.9564 40.0317L63.8615 40.0475L63.8995 40.2877C63.9013 40.3006 63.8981 40.3138 63.8904 40.3244C63.8827 40.335 63.8713 40.3423 63.8584 40.3446C63.8455 40.3457 63.8327 40.3421 63.8223 40.3346C63.8119 40.3271 63.8045 40.316 63.8015 40.3035L63.7794 40.0538ZM63.7636 39.9558L63.6308 39.1341L63.0999 40.0823L63.7636 39.9558Z" fill="white"/>
<path d="M64.3639 40.114C64.359 40.1092 64.3552 40.1036 64.3525 40.0974C64.3499 40.0911 64.3485 40.0844 64.3485 40.0776C64.3485 40.0708 64.3499 40.0641 64.3525 40.0579C64.3552 40.0516 64.359 40.046 64.3639 40.0413C64.3686 40.0364 64.3743 40.0325 64.3805 40.0299C64.3868 40.0272 64.3935 40.0259 64.4003 40.0259C64.4071 40.0259 64.4138 40.0272 64.42 40.0299C64.4263 40.0325 64.4319 40.0364 64.4366 40.0413C64.5194 40.0991 64.6216 40.1218 64.7211 40.1045C64.7704 40.0963 64.8176 40.0785 64.8599 40.0519C64.9022 40.0253 64.9388 39.9905 64.9676 39.9496C65.0259 39.8683 65.0498 39.7672 65.0339 39.6683C65.0227 39.5933 64.9892 39.5234 64.9378 39.4676C64.8864 39.4118 64.8195 39.3727 64.7456 39.3554C64.6718 39.338 64.5945 39.3432 64.5236 39.3703C64.4527 39.3973 64.3916 39.445 64.3481 39.5072C64.3387 39.516 64.3263 39.521 64.3134 39.521C64.3004 39.521 64.288 39.516 64.2786 39.5072L64.2533 38.9288C64.2497 38.9225 64.2478 38.9155 64.2478 38.9082C64.2478 38.901 64.2497 38.894 64.2533 38.8877C64.2564 38.883 64.2606 38.879 64.2656 38.8763C64.2705 38.8735 64.2761 38.872 64.2818 38.8719L64.9391 38.7644C64.9456 38.7631 64.9523 38.7631 64.9587 38.7645C64.9652 38.7658 64.9713 38.7685 64.9767 38.7724C64.982 38.7763 64.9865 38.7812 64.9898 38.7869C64.9932 38.7926 64.9953 38.799 64.996 38.8055C64.9974 38.8122 64.9974 38.819 64.9961 38.8257C64.9947 38.8324 64.992 38.8387 64.9882 38.8443C64.9844 38.8499 64.9795 38.8547 64.9737 38.8583C64.968 38.862 64.9616 38.8645 64.9549 38.8656L64.3418 38.9636L64.3608 39.3902C64.4262 39.3362 64.5047 39.3003 64.5883 39.2859C64.7147 39.2668 64.8436 39.2981 64.9471 39.3732C65.0506 39.4483 65.1204 39.5612 65.1414 39.6873C65.1518 39.7498 65.1497 39.8137 65.1353 39.8754C65.1208 39.9371 65.0944 39.9953 65.0573 40.0467C65.0203 40.0981 64.9735 40.1417 64.9196 40.1749C64.8657 40.2081 64.8057 40.2304 64.7432 40.2404C64.6746 40.247 64.6055 40.2391 64.5402 40.2173C64.4748 40.1956 64.4148 40.1603 64.3639 40.114Z" fill="white"/>
<path d="M65.5463 38.9317C65.5786 38.8336 65.6368 38.7461 65.7146 38.6782C65.7925 38.6104 65.8872 38.5648 65.9887 38.5461C66.0013 38.5442 66.014 38.547 66.0246 38.554C66.0351 38.561 66.0426 38.5718 66.0456 38.5841C66.0476 38.5974 66.0444 38.611 66.0368 38.6221C66.0292 38.6332 66.0177 38.6411 66.0046 38.6441C65.9209 38.6596 65.8429 38.6971 65.7785 38.7526C65.7141 38.8081 65.6656 38.8797 65.6379 38.9602C65.6037 39.0555 65.5856 39.1559 65.5842 39.2572C65.6185 39.2009 65.6644 39.1526 65.7189 39.1155C65.7735 39.0784 65.8353 39.0535 65.9003 39.0423C65.9915 39.0267 66.0854 39.0384 66.17 39.0758C66.2547 39.1132 66.3265 39.1748 66.3764 39.2528C66.4263 39.3308 66.452 39.4218 66.4505 39.5143C66.449 39.6069 66.4202 39.697 66.3677 39.7733C66.3152 39.8496 66.2415 39.9087 66.1556 39.9433C66.0697 39.9779 65.9755 39.9864 65.8848 39.9677C65.7941 39.9491 65.711 39.9041 65.6457 39.8385C65.5804 39.7728 65.5359 39.6894 65.5178 39.5986C65.5086 39.5685 65.5012 39.5379 65.4957 39.5069C65.4646 39.3139 65.482 39.1163 65.5463 38.9317ZM65.6158 39.5638C65.6148 39.5722 65.6148 39.5807 65.6158 39.5891V39.6049C65.6362 39.6737 65.6761 39.7351 65.7305 39.7819C65.785 39.8286 65.8518 39.8586 65.9229 39.8683C65.994 39.878 66.0664 39.867 66.1314 39.8366C66.1964 39.8062 66.2512 39.7577 66.2894 39.6968C66.3275 39.636 66.3472 39.5655 66.3462 39.4938C66.3453 39.422 66.3236 39.352 66.2839 39.2923C66.2441 39.2325 66.188 39.1855 66.1222 39.1569C66.0564 39.1282 65.9837 39.1192 65.9129 39.1308C65.864 39.1378 65.817 39.1544 65.7745 39.1796C65.7321 39.2049 65.6951 39.2384 65.6657 39.2781C65.6363 39.3178 65.615 39.3629 65.6032 39.4109C65.5914 39.4588 65.5892 39.5087 65.5969 39.5575L65.6158 39.5638Z" fill="white"/>
<path d="M88.2832 65.756L75.8038 62.923H75.6339L75.7401 62.7814L75.8959 62.9372C72.0596 65.9346 67.4967 67.8604 62.6729 68.5182C61.2283 68.7235 59.7682 68.7994 58.3101 68.7448C57.5594 68.7023 56.7945 68.6811 56.0225 68.6174L53.6924 68.2703C46.7488 66.908 40.5848 62.9522 36.4536 57.2075C34.1594 54.0388 32.5681 50.4169 31.7862 46.5838C30.9928 42.5181 31.104 38.3277 32.112 34.3099C33.1553 30.1164 35.1826 26.2319 38.0259 22.9779C40.9126 19.6379 44.5547 17.035 48.6496 15.3855C52.5774 13.8345 56.8035 13.1858 61.0156 13.4874C64.9935 13.7618 68.8622 14.9079 72.3476 16.8445C78.6116 20.3095 83.3067 26.0465 85.4644 32.8721C86.3145 35.7856 86.7181 38.8111 86.6613 41.8456C86.5111 46.6859 85.0868 51.4009 82.5322 55.5148V55.4015L88.2832 65.749C87.9007 65.0974 86.1018 61.9882 82.3481 55.5077V55.4581V55.4015C84.8477 51.3068 86.2276 46.6272 86.3497 41.8314C86.3959 38.8356 85.9851 35.8503 85.1315 32.9783C82.9994 26.2309 78.3639 20.5563 72.1776 17.1207C68.7387 15.218 64.9229 14.096 61.0015 13.8344C56.8538 13.54 52.6931 14.1814 48.8267 15.7113C44.797 17.3376 41.2132 19.9015 38.373 23.1904C35.572 26.3949 33.5762 30.2215 32.5512 34.3523C31.5516 38.3062 31.4379 42.4321 32.2183 46.4351C32.9754 50.2272 34.5355 53.8133 36.7936 56.9525C40.8598 62.6337 46.9382 66.5517 53.7915 67.9091L56.0933 68.2632C56.8582 68.327 57.609 68.3482 58.3526 68.3978C59.7936 68.4557 61.2369 68.387 62.6659 68.1924C67.4452 67.5617 71.9741 65.6832 75.7968 62.746L76.505 62.2148L75.9738 62.923L75.9101 62.7531L88.2832 65.756Z" fill="#263238"/>
<path d="M198.465 187.27C198.465 187.27 214.854 187.27 215.527 202.54C216.2 217.81 167.819 298.366 167.819 298.366L152.5 291.092L185.348 212.923L114.07 205.911L116.089 187.978L198.465 187.27Z" fill="#F7A9A0"/>
<path d="M171.056 293.72L170.582 294.803C170.582 294.803 185.596 310.243 184.251 313.798L148.052 297.509L153.966 285.681C158.223 290.603 163.733 293.422 171.056 293.72Z" fill="#455A64"/>
<g opacity="0.6">
<path d="M155.899 291.191C155.503 291.141 155.103 291.239 154.774 291.464C154.445 291.69 154.21 292.029 154.115 292.416C154.049 292.811 154.137 293.215 154.362 293.546C154.586 293.877 154.928 294.109 155.319 294.194C155.738 294.245 156.161 294.14 156.508 293.898C156.854 293.656 157.099 293.295 157.195 292.884C157.223 292.466 157.087 292.055 156.816 291.736C156.545 291.417 156.16 291.217 155.744 291.177" fill="white"/>
</g>
<g opacity="0.6">
<path d="M148.052 297.516L149.469 294.683L183.642 311.334C183.642 311.334 184.938 312.751 184.244 313.813L148.052 297.516Z" fill="white"/>
</g>
<path d="M170.659 294.959C170.574 295.129 169.653 294.817 168.534 294.994C167.415 295.172 166.608 295.703 166.473 295.561C166.339 295.419 167.068 294.513 168.435 294.322C169.802 294.13 170.772 294.81 170.659 294.959Z" fill="#263238"/>
<path d="M173.754 298.238C173.719 298.422 172.812 298.38 171.877 298.861C170.942 299.343 170.411 300.051 170.241 299.966C170.071 299.881 170.404 298.826 171.58 298.252C172.756 297.679 173.825 298.068 173.754 298.238Z" fill="#263238"/>
<path d="M173.867 303.748C173.69 303.748 173.867 302.721 174.724 301.957C175.581 301.192 176.615 301.185 176.623 301.362C176.63 301.539 175.914 301.829 175.206 302.467C174.498 303.104 174.052 303.812 173.867 303.748Z" fill="#263238"/>
<path d="M167.458 129.697L170.369 138.6L154.497 139.839L152.648 135.072L167.458 129.697Z" fill="#F7A9A0"/>
<path d="M212.524 141.376C212.828 141.985 213.621 142.084 214.231 142.403C214.798 142.728 215.263 143.205 215.572 143.781C215.881 144.357 216.023 145.008 215.98 145.661C215.878 146.965 215.447 148.223 214.726 149.315C214.505 149.759 214.182 150.145 213.784 150.441C213.583 150.582 213.343 150.657 213.097 150.657C212.852 150.657 212.612 150.582 212.41 150.441C211.943 150.052 212 149.329 212.099 148.727C212.474 146.468 211.985 143.614 212.517 141.383" fill="#F7A9A0"/>
<path d="M106.967 29.7489C106.832 28.7557 107.075 27.7481 107.646 26.9248C108.218 26.1015 109.077 25.5222 110.055 25.3011L127.577 14.1533C134.255 12.6518 142.669 23.8067 143.866 30.535C145.076 37.9302 145.55 45.427 145.283 52.9157C144.801 64.4318 137.251 65.6641 137.251 65.6641L142.917 103.959L115.614 87.124L106.967 29.7489Z" fill="#F7A9A0"/>
<path d="M140.226 40.0893C140.273 40.4659 140.171 40.846 139.942 41.1488C139.713 41.4516 139.376 41.6533 139 41.7112C138.631 41.7795 138.25 41.6985 137.941 41.4861C137.631 41.2736 137.419 40.947 137.35 40.578C137.303 40.2014 137.405 39.8214 137.634 39.5186C137.863 39.2158 138.2 39.014 138.576 38.9561C138.945 38.8879 139.326 38.9688 139.635 39.1813C139.945 39.3938 140.157 39.7204 140.226 40.0893Z" fill="#263238"/>
<path d="M142.478 35.9529C142.337 36.1087 141.175 36.0874 139.709 36.6611C138.243 37.2348 137.273 37.9997 137.088 37.9572C136.904 37.9147 137.088 37.7093 137.535 37.3552C138.15 36.8526 138.847 36.4597 139.596 36.1937C140.31 35.9188 141.068 35.7771 141.834 35.7758C142.344 35.7616 142.549 35.882 142.478 35.9529Z" fill="#263238"/>
<path d="M125.721 40.7905C125.766 41.1679 125.662 41.5479 125.432 41.8504C125.202 42.153 124.864 42.3545 124.488 42.4124C124.12 42.4786 123.741 42.3967 123.433 42.1844C123.125 41.9721 122.914 41.6467 122.845 41.2792C122.797 40.9023 122.898 40.5213 123.127 40.2181C123.356 39.9148 123.695 39.7135 124.07 39.6573C124.44 39.589 124.821 39.67 125.13 39.8825C125.439 40.0949 125.652 40.4215 125.721 40.7905Z" fill="#263238"/>
<path d="M127.244 38.9205C127.031 39.0055 125.94 38.3539 124.248 38.106C122.555 37.8581 121.231 38.106 121.068 37.9927C120.905 37.8794 121.231 37.759 121.776 37.6244C122.626 37.4557 123.498 37.4389 124.354 37.5748C125.183 37.6883 125.983 37.9575 126.712 38.3681C127.215 38.6584 127.378 38.8851 127.244 38.9205Z" fill="#263238"/>
<path d="M134.156 48.5529C134.947 48.1951 135.78 47.9404 136.635 47.795C137.025 47.71 137.393 47.5896 137.428 47.3063C137.416 46.8913 137.275 46.4904 137.025 46.159C136.552 45.2147 136.042 44.2491 135.495 43.2623C133.37 39.1332 131.755 35.7194 131.953 35.6344C132.152 35.5494 133.993 38.8286 136.132 42.9577L137.612 45.8757C137.92 46.3284 138.058 46.8752 138.002 47.4197C137.96 47.5667 137.885 47.7023 137.784 47.8164C137.682 47.9305 137.555 48.02 137.414 48.0783C137.2 48.1622 136.976 48.2193 136.748 48.2483C135.9 48.4576 135.03 48.5599 134.156 48.5529Z" fill="#263238"/>
<path d="M137.244 65.6925C131.954 66.4747 126.55 65.7379 121.663 63.5677C121.663 63.5677 126.316 71.5285 137.506 69.1487L137.244 65.6925Z" fill="#EB996E"/>
<path d="M134.333 52.3703C133.952 51.8742 133.465 51.4697 132.908 51.1866C132.35 50.9034 131.736 50.7489 131.111 50.7343C130.749 50.7418 130.398 50.8589 130.105 51.0701C129.812 51.2813 129.589 51.5767 129.467 51.917C129.345 52.3567 129.331 52.8194 129.426 53.2658C129.521 53.7122 129.722 54.1291 130.013 54.4809C130.298 54.8532 130.686 55.1339 131.129 55.2887C131.572 55.4434 132.051 55.4655 132.506 55.352C133.245 55.0472 133.874 54.5263 134.312 53.8576C134.471 53.6874 134.585 53.4806 134.645 53.2556C134.671 53.1137 134.665 52.9678 134.628 52.8283C134.592 52.6887 134.525 52.559 134.432 52.4482" fill="#EB996E"/>
<path d="M129.687 50.1677C129.942 50.1181 130.14 51.8108 131.727 52.8449C133.313 53.8789 135.098 53.4823 135.14 53.716C135.14 53.8222 134.779 54.0914 134.014 54.2047C133.025 54.3336 132.022 54.1104 131.181 53.5744C130.374 53.0554 129.8 52.2426 129.581 51.308C129.432 50.5785 129.574 50.1677 129.687 50.1677Z" fill="#263238"/>
<path d="M127.739 31.9584C127.59 32.3833 126.018 32.2063 124.198 32.4613C122.378 32.7162 120.876 33.2332 120.621 32.8579C120.508 32.6737 120.763 32.27 121.33 31.8451C122.122 31.3221 123.023 30.9864 123.964 30.8637C124.905 30.741 125.862 30.8344 126.762 31.1368C127.456 31.4555 127.803 31.753 127.739 31.9584Z" fill="#263238"/>
<path d="M142.563 32.4615C142.258 32.851 140.884 32.6385 139.277 32.8014C137.669 32.9643 136.338 33.3751 135.983 33.0352C135.821 32.8723 135.983 32.4898 136.557 32.0932C137.337 31.5934 138.226 31.2899 139.148 31.2085C140.071 31.1271 141 31.2702 141.855 31.6257C142.464 31.9303 142.691 32.2702 142.563 32.4615Z" fill="#263238"/>
<path d="M99.2819 59.1834C99.5652 54.0486 100.387 37.6102 103.701 28.6438C107.016 19.6774 111.683 15.6616 116.485 13.7706C118.299 12.9957 120.282 12.702 122.242 12.9179C124.203 13.1338 126.074 13.8519 127.676 15.0029C130.14 16.7452 131.571 22.482 131.571 22.482C131.571 22.482 119.92 26.5049 116.698 33.814C112.965 42.1713 112.3 46.2367 112.3 46.2367L111.294 50.6915C111.294 50.6915 113.482 70.055 114.467 74.0637L98.6729 89.3335C99.1899 84.2908 98.9986 64.3111 99.2819 59.1834Z" fill="#263238"/>
<path d="M131.918 22.5106C131.918 22.5106 138.668 20.9879 142.074 28.4174C143.618 31.7816 145.148 41.9662 145.148 41.9662C145.148 41.9662 145.722 33.6442 144.829 29.1185C143.937 24.5928 140.998 19.0685 137.131 16.2709C133.264 13.4734 130.332 12.4181 124.283 13.4804C126.105 13.9358 127.758 14.9014 129.05 16.2639C129.963 17.3333 130.417 18.2824 131.918 22.5106Z" fill="#263238"/>
<path d="M112.427 46.7894C112.016 44.2963 109.098 42.9365 107.073 44.4451C105.961 45.2666 105.21 46.754 105.621 49.4028C106.726 56.4853 113.574 53.8931 113.553 53.6948C113.532 53.4965 112.909 49.7003 112.427 46.7894Z" fill="#F7A9A0"/>
<path d="M110.982 51.3504C110.982 51.3504 110.876 51.4566 110.685 51.5841C110.409 51.7517 110.081 51.8098 109.764 51.747C108.978 51.5912 108.171 50.5005 107.937 49.2398C107.824 48.6378 107.848 48.018 108.008 47.4267C108.037 47.1954 108.122 46.9748 108.257 46.7846C108.392 46.5943 108.571 46.4402 108.78 46.336C108.916 46.2788 109.068 46.27 109.209 46.3113C109.351 46.3526 109.475 46.4413 109.559 46.5626C109.686 46.7468 109.658 46.8884 109.7 46.8955C109.743 46.9026 109.835 46.7538 109.7 46.4705C109.634 46.302 109.512 46.1618 109.353 46.0739C109.136 45.9586 108.881 45.9332 108.645 46.0031C108.364 46.1063 108.114 46.2794 107.918 46.5062C107.722 46.733 107.587 47.0059 107.526 47.2992C107.323 47.9549 107.284 48.6505 107.413 49.3248C107.675 50.7413 108.61 51.9595 109.679 52.094C109.876 52.1191 110.077 52.0996 110.266 52.0371C110.454 51.9746 110.627 51.8706 110.77 51.7328C110.997 51.5203 111.011 51.3574 110.982 51.3504Z" fill="#EB996E"/>
<path d="M119.269 12.9918C119.269 13.0485 120.246 12.9068 121.804 12.9351C122.716 12.953 123.619 13.1131 124.482 13.4097C125.529 13.7969 126.491 14.3838 127.314 15.1378C128.839 16.5 130.027 18.197 130.785 20.0955C131.366 21.512 131.493 22.5177 131.578 22.5036C131.568 22.2765 131.535 22.0511 131.479 21.8307C130.914 19.1773 129.514 16.7745 127.484 14.9749C126.635 14.188 125.635 13.5809 124.545 13.1901C123.66 12.8938 122.731 12.7478 121.797 12.7581C121.172 12.7578 120.547 12.798 119.927 12.8785C119.705 12.8979 119.485 12.9359 119.269 12.9918Z" fill="#455A64"/>
<path d="M106.457 52.6607C106.459 52.6206 106.459 52.5804 106.457 52.5403L106.357 52.2216C106.308 52.0729 106.258 51.8958 106.195 51.6975L106.003 50.9893C105.617 49.441 105.455 47.8454 105.522 46.2511C105.612 43.8861 106.193 41.5658 107.229 39.4377C108.552 36.8612 110.441 34.6169 112.753 32.8723C113.94 31.9565 115.181 31.1144 116.471 30.3509C117.718 29.6002 118.971 28.9769 120.133 28.2828C122.164 27.0436 124.096 25.6489 125.912 24.1113C127.463 22.801 128.66 21.6749 129.453 20.8817C129.857 20.485 130.162 20.1734 130.367 19.9539L130.601 19.706C130.65 19.6493 130.679 19.621 130.672 19.6139L130.587 19.6847L130.332 19.9184L129.397 20.8321C128.568 21.6041 127.357 22.7089 125.792 23.9909C123.969 25.5031 122.038 26.8785 120.012 28.1058C118.865 28.814 117.597 29.4019 116.344 30.1597C115.041 30.9229 113.79 31.7698 112.597 32.6952C110.246 34.4566 108.327 36.7311 106.988 39.3457C105.949 41.5035 105.379 43.857 105.316 46.2511C105.268 47.8588 105.456 49.4649 105.876 51.0176L106.088 51.7258C106.166 51.9241 106.23 52.0941 106.28 52.2429L106.407 52.5616C106.435 52.6253 106.45 52.6607 106.457 52.6607Z" fill="#455A64"/>
<path d="M104.509 50.1677C104.509 50.1677 104.509 50.1253 104.509 50.0544L104.466 49.7145C104.466 49.417 104.353 49.0062 104.296 48.4184C104.13 46.8231 104.104 45.2163 104.219 43.6165C104.392 41.2471 104.868 38.9097 105.635 36.6615C106.594 33.9155 107.993 31.344 109.778 29.0478C111.617 26.7785 113.762 24.7762 116.153 23.0985C118.277 21.512 120.402 20.2655 122.095 19.1465C123.787 18.0275 125.197 17.1705 126.139 16.5189C126.613 16.2073 126.967 15.9452 127.208 15.7682L127.484 15.5699L127.577 15.4919C127.577 15.4919 127.534 15.4919 127.47 15.5486L127.18 15.7257L126.082 16.4339C125.133 17.0501 123.731 17.9212 121.996 18.9836C120.26 20.046 118.192 21.3208 116.011 22.9073C113.615 24.5869 111.469 26.597 109.637 28.8778C107.816 31.196 106.392 33.7998 105.423 36.5836C104.646 38.8537 104.17 41.2157 104.006 43.6094C103.908 45.2163 103.962 46.8289 104.169 48.4255C104.24 48.9921 104.339 49.4241 104.389 49.7215C104.389 49.8561 104.438 49.9694 104.459 50.0544C104.481 50.1394 104.502 50.1677 104.509 50.1677Z" fill="#455A64"/>
<path d="M142.323 77.442C142.323 77.442 151.452 81.1532 153.201 85.9056C154.951 90.6579 168.223 129.902 168.223 129.902L152.819 135.809L145.793 103.513L142.323 77.442Z" fill="#455A64"/>
<path d="M95.1245 188.885C95.1245 188.885 189.321 184.558 195.235 186.116C201.149 187.674 204.683 190.656 205.859 197.745C207.035 204.835 225.194 298.763 225.194 298.763L208.678 303.621C208.678 303.621 185.504 250.715 184.52 241.862C183.535 233.009 180.27 214.864 180.27 214.864C180.27 214.864 144.461 215.451 118.093 214.864C91.7249 214.276 95.2662 189.87 95.2662 189.87L95.1245 188.885Z" fill="#F7A9A0"/>
<path d="M208.473 304.046L208.352 303.763C207.403 301.596 185.15 250.708 184.173 241.897C183.266 233.774 180.412 217.604 179.987 215.218C176.446 215.274 142.896 215.77 118.1 215.218C109.906 215.034 103.737 212.548 99.7495 207.838C93.7152 200.706 94.7918 190.719 94.9263 189.877L94.7068 188.552H95.1034C98.9563 188.375 189.435 184.239 195.328 185.797C201.943 187.546 205.094 190.996 206.213 197.703C207.375 204.7 225.336 297.778 225.548 298.72L225.605 299.032L208.473 304.046ZM180.575 214.502L180.631 214.8C180.667 214.977 183.903 233.058 184.881 241.819C185.809 250.184 207.042 298.982 208.883 303.189L224.798 298.515C223.636 292.502 206.652 204.601 205.519 197.802C204.457 191.428 201.454 188.127 195.15 186.47C189.569 184.99 102.221 188.928 95.5425 189.232L95.6488 189.877V189.926C95.6488 190.032 94.2323 200.224 100.309 207.392C104.162 211.938 110.154 214.332 118.129 214.517C144.185 215.097 179.93 214.517 180.291 214.517L180.575 214.502Z" fill="#EB996E"/>
<path d="M101.485 138.082L103.858 152.757C103.858 152.757 93.5525 172.284 92.391 189.069C91.8386 197.044 96.4139 213.376 96.4139 213.376C96.4139 213.376 132.704 217.364 152.28 216.854L173.167 215.94L176.85 183.311L153.407 179.926L153.761 135.462C153.761 135.462 158.01 123.755 158.336 120.291C159.087 112.982 158.775 105.588 151.473 96.1117L142.322 77.4423L139.27 76.0258L140.722 98.6402L114.418 73.6461L101.095 78.4268L97.3204 96.2392L101.485 138.082Z" fill="#455A64"/>
<g opacity="0.3">
<path d="M147.082 185.33C145.375 185.627 133.059 185.804 131.352 186.102C131.061 186.191 130.756 186.22 130.454 186.187C130.152 186.154 129.86 186.06 129.595 185.91C129.382 185.709 129.234 185.448 129.171 185.161C129.108 184.874 129.133 184.575 129.241 184.303C129.467 183.754 129.822 183.268 130.275 182.886C133.257 180.053 137.131 178.417 140.899 176.816C142.103 176.314 143.406 175.797 144.667 176.108C145.285 176.313 145.844 176.664 146.296 177.133C146.747 177.602 147.078 178.174 147.259 178.8C147.618 180.048 147.767 181.348 147.698 182.645" fill="black"/>
</g>
<g opacity="0.3">
<path d="M102.455 148.317C106.853 147.29 109.615 142.955 111.4 138.805C113.185 134.655 114.658 130.072 118.157 127.211C120.721 125.086 124.156 124.151 126.373 121.687C127.426 120.479 128.125 119.004 128.391 117.424C128.658 115.843 128.481 114.22 127.881 112.734C127.244 111.219 125.962 109.788 124.34 109.703C122.428 109.604 120.94 111.261 119.772 112.784C114.427 119.786 109.386 127.01 104.651 134.456C102.108 138.458 99.5725 143.317 101.343 147.715" fill="black"/>
</g>
<path d="M102.483 80.7637C102.483 80.7637 95.0395 83.1292 92.3482 87.7966C89.6568 92.4639 85.1949 115.128 84.1183 121.233C83.0418 127.338 77.8362 152.46 84.1183 156.412C90.4005 160.364 98.6587 154.287 100.812 150.668C102.965 147.049 111.754 128.23 111.754 128.23L103.857 121.594C103.857 121.594 105.274 103.647 104.757 99.8722C104.24 96.0972 102.483 80.7637 102.483 80.7637Z" fill="#F7A9A0"/>
<path d="M79.1394 127.36L96.4136 128.486L104.303 119.222L106.485 104.632L105.904 76.7198C105.904 76.7198 90.4855 80.4806 87.1497 92.2021C84.6779 100.864 79.1394 127.36 79.1394 127.36Z" fill="#455A64"/>
<path d="M109.707 94.3481C108.716 94.2136 107.448 95.3822 108.291 98.201C108.999 100.552 110.331 102.84 110.231 104.15C110.132 105.461 109.622 108.187 109.622 109.604C109.561 110.989 109.426 112.369 109.219 113.74L97.4617 127.905L107.639 136.885L115.692 124.236C115.692 124.236 118.121 124.64 119.531 123.025L121.655 120.596C121.655 120.596 127.109 118.577 125.997 115.638C125.997 115.638 127.612 114.101 126.146 111.636C126.146 111.636 126.911 109.073 125.799 107.564C125.799 107.564 125.7 104.129 124.786 103.52C123.872 102.911 114.424 102.812 114.424 102.812C113.91 101.241 113.316 99.6976 112.647 98.1868C111.612 96.48 111.088 94.5323 109.707 94.3481Z" fill="#F7A9A0"/>
<path d="M113.73 108.279C113.73 108.315 113.482 108.18 113.263 107.847C112.977 107.399 112.852 106.866 112.908 106.337C112.965 105.808 113.2 105.314 113.574 104.936C113.858 104.66 114.098 104.575 114.12 104.611C113.699 105.121 113.409 105.726 113.277 106.374C113.278 107.036 113.433 107.688 113.73 108.279Z" fill="#EB996E"/>
<path d="M125.402 107.309C123.978 107.724 122.513 107.983 121.032 108.081C119.564 108.294 118.077 108.344 116.599 108.23C118.054 107.976 119.522 107.804 120.997 107.713C122.456 107.494 123.927 107.359 125.402 107.309Z" fill="#EB996E"/>
<path d="M126.238 111.36C125.064 111.837 123.825 112.133 122.562 112.239C121.317 112.469 120.045 112.512 118.787 112.366C118.787 112.26 120.459 112.154 122.512 111.87C124.566 111.587 126.217 111.261 126.238 111.36Z" fill="#EB996E"/>
<path d="M126.032 115.518C124.2 116.08 122.274 116.27 120.366 116.077C121.298 115.873 122.246 115.752 123.199 115.716C124.136 115.568 125.084 115.501 126.032 115.518Z" fill="#EB996E"/>
<path d="M117.109 116.793C117.109 116.835 116.91 116.793 116.67 116.658C116.352 116.442 116.129 116.112 116.046 115.737C115.956 115.366 116.006 114.975 116.188 114.639C116.33 114.392 116.485 114.292 116.521 114.321C116.556 114.349 116.23 114.937 116.4 115.652C116.57 116.368 117.158 116.7 117.109 116.793Z" fill="#EB996E"/>
<path d="M114.786 113.421C114.786 113.456 114.552 113.336 114.332 113.031C114.05 112.629 113.888 112.155 113.865 111.665C113.836 111.173 113.943 110.682 114.176 110.248C114.368 109.922 114.552 109.781 114.587 109.809C114.371 110.395 114.251 111.012 114.233 111.636C114.323 112.256 114.51 112.858 114.786 113.421Z" fill="#EB996E"/>
<path d="M123.129 119.987C122.615 120.259 122.051 120.423 121.472 120.468C120.91 120.63 120.321 120.671 119.743 120.589C120.256 120.313 120.821 120.149 121.401 120.107C121.961 119.942 122.551 119.9 123.129 119.987Z" fill="#EB996E"/>
<path d="M118.575 102.875C118.575 102.981 117.158 102.981 115.366 103.159C113.574 103.336 112.193 103.612 112.165 103.513C113.169 103.087 114.242 102.847 115.331 102.804C116.408 102.636 117.506 102.66 118.575 102.875Z" fill="#EB996E"/>
<path d="M149.674 136.921H208.218C209.251 136.921 210.242 137.331 210.972 138.062C211.703 138.792 212.113 139.783 212.113 140.816V182.312H145.793V140.809C145.795 139.78 146.204 138.793 146.931 138.064C147.659 137.336 148.645 136.925 149.674 136.921Z" fill="#E0E0E0"/>
<path d="M212.113 185.329H134.206C134.206 184.537 134.52 183.777 135.081 183.216C135.641 182.656 136.402 182.341 137.194 182.341H212.113V185.329Z" fill="#E0E0E0"/>
<path d="M209.662 139.839H147.804V182.341H209.662V139.839Z" fill="white"/>
<path d="M209.655 182.313C209.655 182.313 209.655 182.043 209.655 181.533C209.655 181.024 209.655 180.259 209.655 179.281C209.655 177.305 209.655 174.416 209.613 170.719C209.613 163.324 209.57 152.722 209.535 139.811L209.684 139.959H147.832L148.016 139.775C148.016 154.953 148.016 169.366 148.016 182.27L147.854 182.1L192.409 182.185L205.158 182.235H208.55H209.422H209.726H209.443H208.586H205.229L192.544 182.277L147.875 182.362H147.705V182.313C147.705 169.401 147.705 154.988 147.705 139.818V139.634H147.889H209.74H209.889V139.818C209.889 152.764 209.832 163.402 209.811 170.818C209.811 174.501 209.811 177.376 209.811 179.317C209.811 180.287 209.811 181.031 209.811 181.541C209.811 182.05 209.655 182.313 209.655 182.313Z" fill="#263238"/>
<path d="M211.787 182.313C211.787 182.419 195.065 182.497 174.441 182.497C153.817 182.497 137.088 182.419 137.088 182.313C137.088 182.206 153.81 182.128 174.441 182.128C195.072 182.128 211.787 182.242 211.787 182.313Z" fill="#263238"/>
<path d="M178.726 177.348C187.703 177.348 194.981 170.07 194.981 161.093C194.981 152.116 187.703 144.839 178.726 144.839C169.749 144.839 162.472 152.116 162.472 161.093C162.472 170.07 169.749 177.348 178.726 177.348Z" fill="#1E8567"/>
<path d="M168.627 161.49L172.069 158.232L176.821 162.609L186.177 153.805L189.577 157.021L176.772 169.174L168.627 161.49Z" fill="white"/>
<path d="M109.233 113.74C109.311 113.804 104.431 119.696 98.3328 126.892C92.2348 134.088 87.2275 139.867 87.1496 139.817C87.0717 139.768 91.9515 133.868 98.0495 126.665C104.148 119.462 109.155 113.676 109.233 113.74Z" fill="#EB996E"/>
<path d="M108.39 104.611C108.231 106.665 107.95 108.709 107.548 110.73C107.269 112.773 106.867 114.798 106.344 116.792C106.502 114.735 106.784 112.69 107.186 110.666C107.47 108.626 107.872 106.604 108.39 104.611Z" fill="#263238"/>
<path d="M153.76 135.462C153.786 135.317 153.824 135.175 153.874 135.037L154.256 133.847C154.596 132.82 155.099 131.333 155.673 129.484C156.358 127.325 156.93 125.131 157.387 122.912C157.957 120.202 158.211 117.436 158.144 114.668C157.888 109.628 156.473 104.715 154.008 100.312C153.276 98.9707 152.472 97.6704 151.6 96.4162C151.303 95.9701 151.048 95.6372 150.892 95.4034C150.801 95.2871 150.722 95.1612 150.658 95.0281C150.766 95.126 150.864 95.2352 150.949 95.3539C151.133 95.5805 151.409 95.8992 151.728 96.3383C152.648 97.5659 153.49 98.8504 154.249 100.184C155.376 102.17 156.304 104.262 157.018 106.431C157.907 109.087 158.419 111.855 158.541 114.654C158.612 117.452 158.346 120.248 157.748 122.983C157.271 125.208 156.67 127.404 155.949 129.562C155.34 131.404 154.801 132.884 154.419 133.897C154.235 134.369 154.086 134.758 153.973 135.065C153.918 135.206 153.847 135.339 153.76 135.462Z" fill="#263238"/>
<path d="M138.71 113.407C138.739 113.737 138.739 114.069 138.71 114.399C138.709 114.787 138.681 115.176 138.625 115.56C138.574 116.074 138.496 116.585 138.392 117.09C138.278 117.703 138.127 118.309 137.938 118.903C137.739 119.593 137.502 120.271 137.23 120.936C136.576 122.435 135.764 123.859 134.808 125.185C133.827 126.509 132.704 127.72 131.458 128.797C130.912 129.264 130.339 129.699 129.744 130.101C129.234 130.463 128.702 130.791 128.15 131.085C127.693 131.35 127.22 131.586 126.734 131.793C126.386 131.963 126.026 132.107 125.657 132.225C125.351 132.352 125.033 132.449 124.708 132.516C124.673 132.438 126.033 132.02 127.987 130.88C128.522 130.572 129.04 130.237 129.538 129.874C130.091 129.506 130.622 129.038 131.203 128.564C133.643 126.417 135.578 123.756 136.869 120.773C137.139 120.125 137.375 119.463 137.577 118.79C137.773 118.204 137.936 117.609 138.066 117.005C138.654 114.824 138.639 113.407 138.71 113.407Z" fill="#263238"/>
<path d="M158.18 119.845C158.14 119.806 158.106 119.76 158.081 119.71L157.833 119.278C157.599 118.889 157.28 118.358 156.877 117.699C156.473 117.04 155.843 116.233 155.184 115.312C154.525 114.391 153.69 113.386 152.804 112.26C149.164 107.812 143.788 101.969 137.626 95.729C131.465 89.4894 125.678 84.05 121.436 80.1476L118.546 77.5625C117.696 76.8117 116.96 76.146 116.344 75.6361L114.927 74.4391L114.566 74.1204C114.519 74.0873 114.479 74.0466 114.446 74C114.496 74.0249 114.544 74.0558 114.587 74.0921C114.693 74.17 114.821 74.262 114.97 74.3824L116.429 75.5227L118.674 77.4067C119.545 78.1574 120.522 79.0144 121.599 79.9564C125.898 83.7809 131.698 89.2132 137.889 95.4457C144.079 101.678 149.412 107.571 153.003 112.068C153.881 113.209 154.674 114.236 155.354 115.156L156.997 117.593C157.372 118.301 157.705 118.811 157.897 119.215L158.123 119.639C158.17 119.776 158.189 119.845 158.18 119.845Z" fill="#263238"/>
<path d="M144.426 152.608C144.296 152.654 144.16 152.68 144.022 152.686L142.868 152.849C141.862 152.984 140.396 153.14 138.618 153.302C134.999 153.628 129.978 153.89 124.453 153.827C118.929 153.763 113.886 153.359 110.288 152.948C108.482 152.743 107.023 152.545 106.039 152.382L104.884 152.198C104.749 152.183 104.616 152.152 104.488 152.106C104.624 152.088 104.762 152.088 104.899 152.106L106.06 152.226C107.066 152.346 108.532 152.502 110.31 152.672C113.915 153.019 118.922 153.38 124.475 153.444C130.027 153.508 135.02 153.281 138.639 153.026C140.446 152.899 141.912 152.785 142.889 152.693L144.051 152.601C144.176 152.591 144.301 152.593 144.426 152.608Z" fill="#263238"/>
<path d="M175.1 136.871C175.1 136.871 186.701 132.346 187.799 131.984C188.897 131.623 199.039 130.83 199.039 130.83L212.113 135.526C212.113 135.526 212.234 138.21 209.181 137.849C206.49 137.394 203.836 136.741 201.242 135.894L199.407 136.985L175.1 136.871Z" fill="#F7A9A0"/>
<path d="M211.482 138.592C211.787 139.209 212.58 139.301 213.189 139.626C213.753 139.956 214.214 140.434 214.523 141.009C214.832 141.584 214.976 142.233 214.939 142.884C214.837 144.187 214.405 145.442 213.685 146.532C213.464 146.972 213.144 147.355 212.75 147.651C212.549 147.791 212.309 147.866 212.063 147.866C211.818 147.866 211.578 147.791 211.376 147.651C211.183 147.415 211.053 147.134 210.998 146.834C210.944 146.534 210.966 146.226 211.065 145.937C211.44 143.678 210.951 140.816 211.482 138.585" fill="#F7A9A0"/>
<path d="M224.628 295.257L225.025 296.362C225.025 296.362 246.555 297.204 248.028 300.703L210.576 313.862L206.702 301.22C213.183 301.843 219.111 300.087 224.628 295.257Z" fill="#455A64"/>
<g opacity="0.6">
<path d="M211.901 303.869C211.578 304.106 211.354 304.454 211.272 304.846C211.19 305.238 211.254 305.646 211.454 305.993C211.68 306.331 212.027 306.567 212.424 306.653C212.82 306.739 213.234 306.667 213.579 306.454C213.921 306.203 214.157 305.835 214.242 305.42C214.327 305.005 214.255 304.573 214.039 304.209C213.769 303.89 213.386 303.688 212.971 303.644C212.555 303.6 212.139 303.719 211.808 303.975" fill="white"/>
</g>
<g opacity="0.6">
<path d="M210.576 313.862L209.648 310.824L245.882 299.322C245.882 299.322 247.801 299.464 248.007 300.739L210.576 313.862Z" fill="white"/>
</g>
<path d="M225.194 296.425C225.251 296.609 224.366 297.013 223.671 297.92C222.977 298.826 222.772 299.761 222.581 299.747C222.39 299.733 222.283 298.578 223.14 297.502C223.997 296.425 225.173 296.241 225.194 296.425Z" fill="#263238"/>
<path d="M229.692 296.666C229.798 296.829 229.111 297.417 228.764 298.408C228.417 299.4 228.523 300.285 228.339 300.342C228.155 300.398 227.673 299.4 228.133 298.174C228.594 296.949 229.628 296.496 229.692 296.666Z" fill="#263238"/>
<path d="M233.573 300.59C233.424 300.689 232.865 299.882 232.964 298.699C233.063 297.516 233.8 296.836 233.927 296.956C234.055 297.077 233.722 297.806 233.637 298.763C233.552 299.719 233.75 300.505 233.573 300.59Z" fill="#263238"/>
</svg>
