<svg width="16" height="17" viewBox="0 0 16 17" fill="none" xmlns="http://www.w3.org/2000/svg">
<path d="M9.83 2C9.83 2 9.11812 2.25 8 2.25C6.88188 2.25 6.17 2 6.17 2C6.05751 2 5.94584 2.01902 5.83969 2.05625L1 3.75L1.51969 6.5L3.04719 6.6725C3.23425 6.69367 3.40651 6.78441 3.52976 6.92671C3.65301 7.06901 3.71824 7.25246 3.7125 7.44063L3.5 15H12.5L12.2875 7.44063C12.2818 7.25246 12.347 7.06901 12.4702 6.92671C12.5935 6.78441 12.7658 6.69367 12.9528 6.6725L14.4803 6.5L15 3.75L10.1603 2.05625C10.0542 2.01902 9.94249 2 9.83 2Z" stroke="#000B1D" stroke-linecap="round" stroke-linejoin="round"/>
<path d="M10.416 2.14562C10.2743 2.67817 9.96058 3.14898 9.52367 3.48484C9.08676 3.8207 8.55112 4.00278 8.00004 4.00278C7.44896 4.00278 6.91332 3.8207 6.47641 3.48484C6.0395 3.14898 5.72581 2.67817 5.58411 2.14562" stroke="#000B1D" stroke-linecap="round" stroke-linejoin="round"/>
</svg>
