<svg width="12" height="12" viewBox="0 0 12 12" fill="none" xmlns="http://www.w3.org/2000/svg">
<g clip-path="url(#clip0_1008_28345)">
<mask id="path-1-outside-1_1008_28345" maskUnits="userSpaceOnUse" x="-0.625" y="-0.25" width="13" height="13" fill="black">
<rect fill="white" x="-0.625" y="-0.25" width="13" height="13"/>
<path d="M3.375 2.25C3.375 1.5 3.9375 0.75 4.875 0.75H7.125C8.0625 0.75 8.625 1.5 8.625 2.25V4.125H10.875C11.0739 4.125 11.2647 4.20402 11.4053 4.34467C11.546 4.48532 11.625 4.67609 11.625 4.875V6C11.625 6.19245 11.5511 6.37756 11.4185 6.51702C11.2859 6.65648 11.1047 6.73963 10.9125 6.74925L9.78562 10.551C9.69376 10.8611 9.5041 11.1333 9.24493 11.3268C8.98576 11.5204 8.67097 11.625 8.3475 11.625H3.6435C3.32271 11.625 3.01037 11.5221 2.75234 11.3315C2.49431 11.1409 2.30419 10.8726 2.20988 10.566L1.03388 6.74475C0.852048 6.72249 0.684653 6.63446 0.563274 6.49726C0.441895 6.36006 0.374925 6.18318 0.375 6V4.875C0.375 4.67609 0.454018 4.48532 0.59467 4.34467C0.735322 4.20402 0.926088 4.125 1.125 4.125H3.375V2.25ZM4.125 4.125H7.875V2.25C7.875 1.3125 7.3125 1.125 6.75 1.125H5.25C4.6875 1.125 4.125 1.3125 4.125 2.25V4.125ZM7.875 4.875H1.125V6H10.875V4.875H8.625V5.25C8.625 5.34946 8.58549 5.44484 8.51517 5.51516C8.44484 5.58549 8.34946 5.625 8.25 5.625C8.15054 5.625 8.05516 5.58549 7.98483 5.51516C7.91451 5.44484 7.875 5.34946 7.875 5.25V4.875ZM9.49275 6.75L9.834 7.09125L10.1108 6.8145L10.1295 6.75H9.49275ZM8.24288 7.09125L8.58413 6.75H7.90162L8.24288 7.09125ZM6.31125 6.75L6.6525 7.09125L6.99375 6.75H6.31125ZM5.06137 7.09125L5.40263 6.75H4.72013L5.06137 7.09125ZM3.47025 7.09125L3.8115 6.75H3.129L3.47025 7.09125ZM1.82025 6.75L1.914 7.056L2.22 6.75H1.82025ZM2.18138 7.92413L2.28863 8.2725L2.40938 8.15175L2.18138 7.92413ZM9.86287 7.65037L9.834 7.6215L9.30375 8.15175L9.62063 8.46863L9.86287 7.65037ZM9.44062 9.07537L9.49912 8.87775L9.03825 8.41687L8.508 8.9475L9.03825 9.47775L9.44062 9.07537ZM9.13575 10.1051L9.03825 10.008L8.508 10.5382L8.736 10.7662C8.892 10.6721 9.012 10.5218 9.06675 10.338L9.13575 10.1051ZM8.3145 10.875L8.24325 10.8038L8.17163 10.875H8.31413H8.3145ZM7.641 10.875L7.97775 10.5382L7.4475 10.008L6.91725 10.5382L7.25362 10.875H7.641ZM6.5805 10.875H6.72338L6.65213 10.8038L6.5805 10.875ZM6.05025 10.875L6.38663 10.5382L5.85637 10.008L5.32613 10.5382L5.66288 10.875H6.05025ZM4.98938 10.875H5.13225L5.061 10.8038L4.98938 10.875ZM4.45913 10.875L4.79587 10.5382L4.26525 10.008L3.735 10.5382L4.07175 10.875H4.45913ZM3.53325 10.8668L3.46988 10.8034L3.42938 10.8439C3.46313 10.854 3.498 10.8615 3.53325 10.8668ZM3.1005 10.6425L3.20475 10.5382L2.88863 10.2221L2.9265 10.3459C2.96175 10.4595 3.02212 10.5604 3.1005 10.6425ZM2.65275 9.45638L2.6745 9.47775L3.20475 8.9475L2.6745 8.41687L2.4135 8.67788L2.65275 9.45638ZM2.6745 6.82612L2.14425 7.35638L2.6745 7.88663L3.20475 7.35638L2.6745 6.82612ZM3.46988 7.6215L2.94 8.15175L3.47025 8.68237L4.0005 8.15175L3.46988 7.6215ZM4.26525 8.41687L3.735 8.9475L4.26525 9.47775L4.79587 8.9475L4.26525 8.41687ZM4.53075 8.15175L5.061 8.68237L5.59125 8.15175L5.061 7.6215L4.53075 8.15175ZM5.061 9.21262L4.53075 9.74288L5.061 10.2731L5.59125 9.74288L5.061 9.21262ZM5.85637 9.47775L6.38663 8.9475L5.85637 8.41687L5.32613 8.9475L5.85637 9.47775ZM4.26525 7.88663L4.79587 7.35638L4.26525 6.82612L3.735 7.35638L4.26525 7.88663ZM7.71262 9.74288L8.24288 10.2731L8.77312 9.74288L8.24288 9.21262L7.71262 9.74288ZM8.77312 8.15175L8.24288 7.6215L7.71262 8.15175L8.24288 8.68237L8.77312 8.15175ZM6.65175 10.2731L7.18237 9.74288L6.65175 9.21262L6.1215 9.74288L6.65175 10.2731ZM6.91725 7.35638L7.4475 7.88663L7.97775 7.35638L7.4475 6.82612L6.91725 7.35638ZM6.38663 7.35638L5.85637 6.82612L5.32613 7.35638L5.85637 7.88663L6.38663 7.35638ZM9.03863 7.88663L9.56888 7.35638L9.03825 6.82612L8.508 7.35638L9.03863 7.88663ZM6.1215 8.15175L6.65175 8.68237L7.18237 8.15175L6.65175 7.6215L6.1215 8.15175ZM3.47025 10.2731L4.00012 9.74288L3.46988 9.21262L2.94 9.7425L3.47025 10.2727V10.2731ZM6.91725 8.9475L7.4475 9.47775L7.97775 8.9475L7.4475 8.41687L6.91725 8.9475Z"/>
</mask>
<path d="M3.375 2.25C3.375 1.5 3.9375 0.75 4.875 0.75H7.125C8.0625 0.75 8.625 1.5 8.625 2.25V4.125H10.875C11.0739 4.125 11.2647 4.20402 11.4053 4.34467C11.546 4.48532 11.625 4.67609 11.625 4.875V6C11.625 6.19245 11.5511 6.37756 11.4185 6.51702C11.2859 6.65648 11.1047 6.73963 10.9125 6.74925L9.78562 10.551C9.69376 10.8611 9.5041 11.1333 9.24493 11.3268C8.98576 11.5204 8.67097 11.625 8.3475 11.625H3.6435C3.32271 11.625 3.01037 11.5221 2.75234 11.3315C2.49431 11.1409 2.30419 10.8726 2.20988 10.566L1.03388 6.74475C0.852048 6.72249 0.684653 6.63446 0.563274 6.49726C0.441895 6.36006 0.374925 6.18318 0.375 6V4.875C0.375 4.67609 0.454018 4.48532 0.59467 4.34467C0.735322 4.20402 0.926088 4.125 1.125 4.125H3.375V2.25ZM4.125 4.125H7.875V2.25C7.875 1.3125 7.3125 1.125 6.75 1.125H5.25C4.6875 1.125 4.125 1.3125 4.125 2.25V4.125ZM7.875 4.875H1.125V6H10.875V4.875H8.625V5.25C8.625 5.34946 8.58549 5.44484 8.51517 5.51516C8.44484 5.58549 8.34946 5.625 8.25 5.625C8.15054 5.625 8.05516 5.58549 7.98483 5.51516C7.91451 5.44484 7.875 5.34946 7.875 5.25V4.875ZM9.49275 6.75L9.834 7.09125L10.1108 6.8145L10.1295 6.75H9.49275ZM8.24288 7.09125L8.58413 6.75H7.90162L8.24288 7.09125ZM6.31125 6.75L6.6525 7.09125L6.99375 6.75H6.31125ZM5.06137 7.09125L5.40263 6.75H4.72013L5.06137 7.09125ZM3.47025 7.09125L3.8115 6.75H3.129L3.47025 7.09125ZM1.82025 6.75L1.914 7.056L2.22 6.75H1.82025ZM2.18138 7.92413L2.28863 8.2725L2.40938 8.15175L2.18138 7.92413ZM9.86287 7.65037L9.834 7.6215L9.30375 8.15175L9.62063 8.46863L9.86287 7.65037ZM9.44062 9.07537L9.49912 8.87775L9.03825 8.41687L8.508 8.9475L9.03825 9.47775L9.44062 9.07537ZM9.13575 10.1051L9.03825 10.008L8.508 10.5382L8.736 10.7662C8.892 10.6721 9.012 10.5218 9.06675 10.338L9.13575 10.1051ZM8.3145 10.875L8.24325 10.8038L8.17163 10.875H8.31413H8.3145ZM7.641 10.875L7.97775 10.5382L7.4475 10.008L6.91725 10.5382L7.25362 10.875H7.641ZM6.5805 10.875H6.72338L6.65213 10.8038L6.5805 10.875ZM6.05025 10.875L6.38663 10.5382L5.85637 10.008L5.32613 10.5382L5.66288 10.875H6.05025ZM4.98938 10.875H5.13225L5.061 10.8038L4.98938 10.875ZM4.45913 10.875L4.79587 10.5382L4.26525 10.008L3.735 10.5382L4.07175 10.875H4.45913ZM3.53325 10.8668L3.46988 10.8034L3.42938 10.8439C3.46313 10.854 3.498 10.8615 3.53325 10.8668ZM3.1005 10.6425L3.20475 10.5382L2.88863 10.2221L2.9265 10.3459C2.96175 10.4595 3.02212 10.5604 3.1005 10.6425ZM2.65275 9.45638L2.6745 9.47775L3.20475 8.9475L2.6745 8.41687L2.4135 8.67788L2.65275 9.45638ZM2.6745 6.82612L2.14425 7.35638L2.6745 7.88663L3.20475 7.35638L2.6745 6.82612ZM3.46988 7.6215L2.94 8.15175L3.47025 8.68237L4.0005 8.15175L3.46988 7.6215ZM4.26525 8.41687L3.735 8.9475L4.26525 9.47775L4.79587 8.9475L4.26525 8.41687ZM4.53075 8.15175L5.061 8.68237L5.59125 8.15175L5.061 7.6215L4.53075 8.15175ZM5.061 9.21262L4.53075 9.74288L5.061 10.2731L5.59125 9.74288L5.061 9.21262ZM5.85637 9.47775L6.38663 8.9475L5.85637 8.41687L5.32613 8.9475L5.85637 9.47775ZM4.26525 7.88663L4.79587 7.35638L4.26525 6.82612L3.735 7.35638L4.26525 7.88663ZM7.71262 9.74288L8.24288 10.2731L8.77312 9.74288L8.24288 9.21262L7.71262 9.74288ZM8.77312 8.15175L8.24288 7.6215L7.71262 8.15175L8.24288 8.68237L8.77312 8.15175ZM6.65175 10.2731L7.18237 9.74288L6.65175 9.21262L6.1215 9.74288L6.65175 10.2731ZM6.91725 7.35638L7.4475 7.88663L7.97775 7.35638L7.4475 6.82612L6.91725 7.35638ZM6.38663 7.35638L5.85637 6.82612L5.32613 7.35638L5.85637 7.88663L6.38663 7.35638ZM9.03863 7.88663L9.56888 7.35638L9.03825 6.82612L8.508 7.35638L9.03863 7.88663ZM6.1215 8.15175L6.65175 8.68237L7.18237 8.15175L6.65175 7.6215L6.1215 8.15175ZM3.47025 10.2731L4.00012 9.74288L3.46988 9.21262L2.94 9.7425L3.47025 10.2727V10.2731ZM6.91725 8.9475L7.4475 9.47775L7.97775 8.9475L7.4475 8.41687L6.91725 8.9475Z" stroke="#525355" stroke-width="1.2" mask="url(#path-1-outside-1_1008_28345)"/>
</g>
<defs>
<clipPath id="clip0_1008_28345">
<rect width="12" height="12" fill="white"/>
</clipPath>
</defs>
</svg>
