<svg width="32" height="32" viewBox="0 0 32 32" fill="none" xmlns="http://www.w3.org/2000/svg">
<mask id="path-1-outside-1_1296_21082" maskUnits="userSpaceOnUse" x="0" y="1" width="32" height="31" fill="black">
<rect fill="white" y="1" width="32" height="31"/>
<path d="M9 6C9 4 10.5 2 13 2H19C21.5 2 23 4 23 6V11H29C29.5304 11 30.0391 11.2107 30.4142 11.5858C30.7893 11.9609 31 12.4696 31 13V16C31.0001 16.5132 30.803 17.0068 30.4493 17.3787C30.0957 17.7506 29.6126 17.9723 29.1 17.998L26.095 28.136C25.85 28.9631 25.3443 29.6888 24.6531 30.2049C23.962 30.721 23.1226 30.9999 22.26 31H9.716C8.86055 31 8.02766 30.7257 7.33958 30.2174C6.65151 29.7091 6.1445 28.9936 5.893 28.176L2.757 17.986C2.27213 17.9266 1.82574 17.6919 1.50206 17.326C1.17839 16.9602 0.999801 16.4885 1 16V13C1 12.4696 1.21071 11.9609 1.58579 11.5858C1.96086 11.2107 2.46957 11 3 11H9V6ZM11 11H21V6C21 3.5 19.5 3 18 3H14C12.5 3 11 3.5 11 6V11ZM21 13H3V16H29V13H23V14C23 14.2652 22.8946 14.5196 22.7071 14.7071C22.5196 14.8946 22.2652 15 22 15C21.7348 15 21.4804 14.8946 21.2929 14.7071C21.1054 14.5196 21 14.2652 21 14V13ZM25.314 18L26.224 18.91L26.962 18.172L27.012 18H25.314ZM21.981 18.91L22.891 18H21.071L21.981 18.91ZM16.83 18L17.74 18.91L18.65 18H16.83ZM13.497 18.91L14.407 18H12.587L13.497 18.91ZM9.254 18.91L10.164 18H8.344L9.254 18.91ZM4.854 18L5.104 18.816L5.92 18H4.854ZM5.817 21.131L6.103 22.06L6.425 21.738L5.817 21.131ZM26.301 20.401L26.224 20.324L24.81 21.738L25.655 22.583L26.301 20.401ZM25.175 24.201L25.331 23.674L24.102 22.445L22.688 23.86L24.102 25.274L25.175 24.201ZM24.362 26.947L24.102 26.688L22.688 28.102L23.296 28.71C23.712 28.459 24.032 28.058 24.178 27.568L24.362 26.947ZM22.172 29L21.982 28.81L21.791 29H22.171H22.172ZM20.376 29L21.274 28.102L19.86 26.688L18.446 28.102L19.343 29H20.376ZM17.548 29H17.929L17.739 28.81L17.548 29ZM16.134 29L17.031 28.102L15.617 26.688L14.203 28.102L15.101 29H16.134ZM13.305 29H13.686L13.496 28.81L13.305 29ZM11.891 29L12.789 28.102L11.374 26.688L9.96 28.102L10.858 29H11.891ZM9.422 28.978L9.253 28.809L9.145 28.917C9.235 28.944 9.328 28.964 9.422 28.978ZM8.268 28.38L8.546 28.102L7.703 27.259L7.804 27.589C7.898 27.892 8.059 28.161 8.268 28.38ZM7.074 25.217L7.132 25.274L8.546 23.86L7.132 22.445L6.436 23.141L7.074 25.217ZM7.132 18.203L5.718 19.617L7.132 21.031L8.546 19.617L7.132 18.203ZM9.253 20.324L7.84 21.738L9.254 23.153L10.668 21.738L9.253 20.324ZM11.374 22.445L9.96 23.86L11.374 25.274L12.789 23.86L11.374 22.445ZM12.082 21.738L13.496 23.153L14.91 21.738L13.496 20.324L12.082 21.738ZM13.496 24.567L12.082 25.981L13.496 27.395L14.91 25.981L13.496 24.567ZM15.617 25.274L17.031 23.86L15.617 22.445L14.203 23.86L15.617 25.274ZM11.374 21.031L12.789 19.617L11.374 18.203L9.96 19.617L11.374 21.031ZM20.567 25.981L21.981 27.395L23.395 25.981L21.981 24.567L20.567 25.981ZM23.395 21.738L21.981 20.324L20.567 21.738L21.981 23.153L23.395 21.738ZM17.738 27.395L19.153 25.981L17.738 24.567L16.324 25.981L17.738 27.395ZM18.446 19.617L19.86 21.031L21.274 19.617L19.86 18.203L18.446 19.617ZM17.031 19.617L15.617 18.203L14.203 19.617L15.617 21.031L17.031 19.617ZM24.103 21.031L25.517 19.617L24.102 18.203L22.688 19.617L24.103 21.031ZM16.324 21.738L17.738 23.153L19.153 21.738L17.738 20.324L16.324 21.738ZM9.254 27.395L10.667 25.981L9.253 24.567L7.84 25.98L9.254 27.394V27.395ZM18.446 23.86L19.86 25.274L21.274 23.86L19.86 22.445L18.446 23.86Z"/>
</mask>
<path d="M9 6C9 4 10.5 2 13 2H19C21.5 2 23 4 23 6V11H29C29.5304 11 30.0391 11.2107 30.4142 11.5858C30.7893 11.9609 31 12.4696 31 13V16C31.0001 16.5132 30.803 17.0068 30.4493 17.3787C30.0957 17.7506 29.6126 17.9723 29.1 17.998L26.095 28.136C25.85 28.9631 25.3443 29.6888 24.6531 30.2049C23.962 30.721 23.1226 30.9999 22.26 31H9.716C8.86055 31 8.02766 30.7257 7.33958 30.2174C6.65151 29.7091 6.1445 28.9936 5.893 28.176L2.757 17.986C2.27213 17.9266 1.82574 17.6919 1.50206 17.326C1.17839 16.9602 0.999801 16.4885 1 16V13C1 12.4696 1.21071 11.9609 1.58579 11.5858C1.96086 11.2107 2.46957 11 3 11H9V6ZM11 11H21V6C21 3.5 19.5 3 18 3H14C12.5 3 11 3.5 11 6V11ZM21 13H3V16H29V13H23V14C23 14.2652 22.8946 14.5196 22.7071 14.7071C22.5196 14.8946 22.2652 15 22 15C21.7348 15 21.4804 14.8946 21.2929 14.7071C21.1054 14.5196 21 14.2652 21 14V13ZM25.314 18L26.224 18.91L26.962 18.172L27.012 18H25.314ZM21.981 18.91L22.891 18H21.071L21.981 18.91ZM16.83 18L17.74 18.91L18.65 18H16.83ZM13.497 18.91L14.407 18H12.587L13.497 18.91ZM9.254 18.91L10.164 18H8.344L9.254 18.91ZM4.854 18L5.104 18.816L5.92 18H4.854ZM5.817 21.131L6.103 22.06L6.425 21.738L5.817 21.131ZM26.301 20.401L26.224 20.324L24.81 21.738L25.655 22.583L26.301 20.401ZM25.175 24.201L25.331 23.674L24.102 22.445L22.688 23.86L24.102 25.274L25.175 24.201ZM24.362 26.947L24.102 26.688L22.688 28.102L23.296 28.71C23.712 28.459 24.032 28.058 24.178 27.568L24.362 26.947ZM22.172 29L21.982 28.81L21.791 29H22.171H22.172ZM20.376 29L21.274 28.102L19.86 26.688L18.446 28.102L19.343 29H20.376ZM17.548 29H17.929L17.739 28.81L17.548 29ZM16.134 29L17.031 28.102L15.617 26.688L14.203 28.102L15.101 29H16.134ZM13.305 29H13.686L13.496 28.81L13.305 29ZM11.891 29L12.789 28.102L11.374 26.688L9.96 28.102L10.858 29H11.891ZM9.422 28.978L9.253 28.809L9.145 28.917C9.235 28.944 9.328 28.964 9.422 28.978ZM8.268 28.38L8.546 28.102L7.703 27.259L7.804 27.589C7.898 27.892 8.059 28.161 8.268 28.38ZM7.074 25.217L7.132 25.274L8.546 23.86L7.132 22.445L6.436 23.141L7.074 25.217ZM7.132 18.203L5.718 19.617L7.132 21.031L8.546 19.617L7.132 18.203ZM9.253 20.324L7.84 21.738L9.254 23.153L10.668 21.738L9.253 20.324ZM11.374 22.445L9.96 23.86L11.374 25.274L12.789 23.86L11.374 22.445ZM12.082 21.738L13.496 23.153L14.91 21.738L13.496 20.324L12.082 21.738ZM13.496 24.567L12.082 25.981L13.496 27.395L14.91 25.981L13.496 24.567ZM15.617 25.274L17.031 23.86L15.617 22.445L14.203 23.86L15.617 25.274ZM11.374 21.031L12.789 19.617L11.374 18.203L9.96 19.617L11.374 21.031ZM20.567 25.981L21.981 27.395L23.395 25.981L21.981 24.567L20.567 25.981ZM23.395 21.738L21.981 20.324L20.567 21.738L21.981 23.153L23.395 21.738ZM17.738 27.395L19.153 25.981L17.738 24.567L16.324 25.981L17.738 27.395ZM18.446 19.617L19.86 21.031L21.274 19.617L19.86 18.203L18.446 19.617ZM17.031 19.617L15.617 18.203L14.203 19.617L15.617 21.031L17.031 19.617ZM24.103 21.031L25.517 19.617L24.102 18.203L22.688 19.617L24.103 21.031ZM16.324 21.738L17.738 23.153L19.153 21.738L17.738 20.324L16.324 21.738ZM9.254 27.395L10.667 25.981L9.253 24.567L7.84 25.98L9.254 27.394V27.395ZM18.446 23.86L19.86 25.274L21.274 23.86L19.86 22.445L18.446 23.86Z" stroke="#313233" stroke-width="2" mask="url(#path-1-outside-1_1296_21082)"/>
</svg>
