<svg width="20" height="20" viewBox="0 0 20 20" fill="none" xmlns="http://www.w3.org/2000/svg">
<g clip-path="url(#clip0_1952_16333)">
<mask id="path-1-outside-1_1952_16333" maskUnits="userSpaceOnUse" x="-0.375" y="0.25" width="21" height="21" fill="black">
<rect fill="white" x="-0.375" y="0.25" width="21" height="21"/>
<path d="M5.625 3.75C5.625 2.5 6.5625 1.25 8.125 1.25L11.875 1.25C13.4375 1.25 14.375 2.5 14.375 3.75V6.875H18.125C18.4565 6.875 18.7745 7.0067 19.0089 7.24112C19.2433 7.47554 19.375 7.79348 19.375 8.125V10C19.3751 10.3208 19.2519 10.6293 19.0308 10.8617C18.8098 11.0941 18.5079 11.2327 18.1875 11.2487L16.3094 17.585C16.1563 18.1019 15.8402 18.5555 15.4082 18.8781C14.9763 19.2006 14.4516 19.375 13.9125 19.375H6.0725C5.53785 19.375 5.01728 19.2035 4.58724 18.8859C4.15719 18.5682 3.84031 18.121 3.68313 17.61L1.72313 11.2413C1.42008 11.2042 1.14109 11.0574 0.93879 10.8288C0.736492 10.6001 0.624875 10.3053 0.625 10L0.625 8.125C0.625 7.79348 0.756696 7.47554 0.991117 7.24112C1.22554 7.0067 1.54348 6.875 1.875 6.875H5.625V3.75ZM6.875 6.875L13.125 6.875V3.75C13.125 2.1875 12.1875 1.875 11.25 1.875H8.75C7.8125 1.875 6.875 2.1875 6.875 3.75V6.875ZM13.125 8.125H1.875V10L18.125 10V8.125H14.375V8.75C14.375 8.91576 14.3092 9.07473 14.1919 9.19194C14.0747 9.30915 13.9158 9.375 13.75 9.375C13.5842 9.375 13.4253 9.30915 13.3081 9.19194C13.1908 9.07473 13.125 8.91576 13.125 8.75V8.125ZM15.8212 11.25L16.39 11.8188L16.8512 11.3575L16.8825 11.25L15.8212 11.25ZM13.7381 11.8188L14.3069 11.25H13.1694L13.7381 11.8188ZM10.5188 11.25L11.0875 11.8188L11.6562 11.25H10.5188ZM8.43563 11.8188L9.00437 11.25H7.86687L8.43563 11.8188ZM5.78375 11.8188L6.3525 11.25H5.215L5.78375 11.8188ZM3.03375 11.25L3.19 11.76L3.7 11.25H3.03375ZM3.63562 13.2069L3.81438 13.7875L4.01563 13.5863L3.63562 13.2069ZM16.4381 12.7506L16.39 12.7025L15.5062 13.5863L16.0344 14.1144L16.4381 12.7506ZM15.7344 15.1256L15.8319 14.7962L15.0637 14.0281L14.18 14.9125L15.0637 15.7963L15.7344 15.1256ZM15.2262 16.8419L15.0637 16.68L14.18 17.5637L14.56 17.9437C14.82 17.7869 15.02 17.5363 15.1112 17.23L15.2262 16.8419ZM13.8575 18.125L13.7388 18.0063L13.6194 18.125H13.8569H13.8575ZM12.735 18.125L13.2963 17.5637L12.4125 16.68L11.5287 17.5637L12.0894 18.125H12.735ZM10.9675 18.125H11.2056L11.0869 18.0063L10.9675 18.125ZM10.0838 18.125L10.6444 17.5637L9.76062 16.68L8.87687 17.5637L9.43812 18.125H10.0838ZM8.31563 18.125H8.55375L8.435 18.0063L8.31563 18.125ZM7.43187 18.125L7.99312 17.5637L7.10875 16.68L6.225 17.5637L6.78625 18.125H7.43187ZM5.88875 18.1112L5.78312 18.0056L5.71563 18.0731C5.77188 18.09 5.83 18.1025 5.88875 18.1112ZM5.1675 17.7375L5.34125 17.5637L4.81437 17.0369L4.8775 17.2431C4.93625 17.4325 5.03687 17.6006 5.1675 17.7375ZM4.42125 15.7606L4.4575 15.7963L5.34125 14.9125L4.4575 14.0281L4.0225 14.4631L4.42125 15.7606ZM4.4575 11.3769L3.57375 12.2606L4.4575 13.1444L5.34125 12.2606L4.4575 11.3769ZM5.78312 12.7025L4.9 13.5863L5.78375 14.4706L6.6675 13.5863L5.78312 12.7025ZM7.10875 14.0281L6.225 14.9125L7.10875 15.7963L7.99312 14.9125L7.10875 14.0281ZM7.55125 13.5863L8.435 14.4706L9.31875 13.5863L8.435 12.7025L7.55125 13.5863ZM8.435 15.3544L7.55125 16.2381L8.435 17.1219L9.31875 16.2381L8.435 15.3544ZM9.76062 15.7963L10.6444 14.9125L9.76062 14.0281L8.87687 14.9125L9.76062 15.7963ZM7.10875 13.1444L7.99312 12.2606L7.10875 11.3769L6.225 12.2606L7.10875 13.1444ZM12.8544 16.2381L13.7381 17.1219L14.6219 16.2381L13.7381 15.3544L12.8544 16.2381ZM14.6219 13.5863L13.7381 12.7025L12.8544 13.5863L13.7381 14.4706L14.6219 13.5863ZM11.0863 17.1219L11.9706 16.2381L11.0863 15.3544L10.2025 16.2381L11.0863 17.1219ZM11.5287 12.2606L12.4125 13.1444L13.2963 12.2606L12.4125 11.3769L11.5287 12.2606ZM10.6444 12.2606L9.76062 11.3769L8.87687 12.2606L9.76062 13.1444L10.6444 12.2606ZM15.0644 13.1444L15.9481 12.2606L15.0637 11.3769L14.18 12.2606L15.0644 13.1444ZM10.2025 13.5863L11.0863 14.4706L11.9706 13.5863L11.0863 12.7025L10.2025 13.5863ZM5.78375 17.1219L6.66687 16.2381L5.78312 15.3544L4.9 16.2375L5.78375 17.1212V17.1219ZM11.5287 14.9125L12.4125 15.7963L13.2963 14.9125L12.4125 14.0281L11.5287 14.9125Z"/>
</mask>
<path d="M5.625 3.75C5.625 2.5 6.5625 1.25 8.125 1.25L11.875 1.25C13.4375 1.25 14.375 2.5 14.375 3.75V6.875H18.125C18.4565 6.875 18.7745 7.0067 19.0089 7.24112C19.2433 7.47554 19.375 7.79348 19.375 8.125V10C19.3751 10.3208 19.2519 10.6293 19.0308 10.8617C18.8098 11.0941 18.5079 11.2327 18.1875 11.2487L16.3094 17.585C16.1563 18.1019 15.8402 18.5555 15.4082 18.8781C14.9763 19.2006 14.4516 19.375 13.9125 19.375H6.0725C5.53785 19.375 5.01728 19.2035 4.58724 18.8859C4.15719 18.5682 3.84031 18.121 3.68313 17.61L1.72313 11.2413C1.42008 11.2042 1.14109 11.0574 0.93879 10.8288C0.736492 10.6001 0.624875 10.3053 0.625 10L0.625 8.125C0.625 7.79348 0.756696 7.47554 0.991117 7.24112C1.22554 7.0067 1.54348 6.875 1.875 6.875H5.625V3.75ZM6.875 6.875L13.125 6.875V3.75C13.125 2.1875 12.1875 1.875 11.25 1.875H8.75C7.8125 1.875 6.875 2.1875 6.875 3.75V6.875ZM13.125 8.125H1.875V10L18.125 10V8.125H14.375V8.75C14.375 8.91576 14.3092 9.07473 14.1919 9.19194C14.0747 9.30915 13.9158 9.375 13.75 9.375C13.5842 9.375 13.4253 9.30915 13.3081 9.19194C13.1908 9.07473 13.125 8.91576 13.125 8.75V8.125ZM15.8212 11.25L16.39 11.8188L16.8512 11.3575L16.8825 11.25L15.8212 11.25ZM13.7381 11.8188L14.3069 11.25H13.1694L13.7381 11.8188ZM10.5188 11.25L11.0875 11.8188L11.6562 11.25H10.5188ZM8.43563 11.8188L9.00437 11.25H7.86687L8.43563 11.8188ZM5.78375 11.8188L6.3525 11.25H5.215L5.78375 11.8188ZM3.03375 11.25L3.19 11.76L3.7 11.25H3.03375ZM3.63562 13.2069L3.81438 13.7875L4.01563 13.5863L3.63562 13.2069ZM16.4381 12.7506L16.39 12.7025L15.5062 13.5863L16.0344 14.1144L16.4381 12.7506ZM15.7344 15.1256L15.8319 14.7962L15.0637 14.0281L14.18 14.9125L15.0637 15.7963L15.7344 15.1256ZM15.2262 16.8419L15.0637 16.68L14.18 17.5637L14.56 17.9437C14.82 17.7869 15.02 17.5363 15.1112 17.23L15.2262 16.8419ZM13.8575 18.125L13.7388 18.0063L13.6194 18.125H13.8569H13.8575ZM12.735 18.125L13.2963 17.5637L12.4125 16.68L11.5287 17.5637L12.0894 18.125H12.735ZM10.9675 18.125H11.2056L11.0869 18.0063L10.9675 18.125ZM10.0838 18.125L10.6444 17.5637L9.76062 16.68L8.87687 17.5637L9.43812 18.125H10.0838ZM8.31563 18.125H8.55375L8.435 18.0063L8.31563 18.125ZM7.43187 18.125L7.99312 17.5637L7.10875 16.68L6.225 17.5637L6.78625 18.125H7.43187ZM5.88875 18.1112L5.78312 18.0056L5.71563 18.0731C5.77188 18.09 5.83 18.1025 5.88875 18.1112ZM5.1675 17.7375L5.34125 17.5637L4.81437 17.0369L4.8775 17.2431C4.93625 17.4325 5.03687 17.6006 5.1675 17.7375ZM4.42125 15.7606L4.4575 15.7963L5.34125 14.9125L4.4575 14.0281L4.0225 14.4631L4.42125 15.7606ZM4.4575 11.3769L3.57375 12.2606L4.4575 13.1444L5.34125 12.2606L4.4575 11.3769ZM5.78312 12.7025L4.9 13.5863L5.78375 14.4706L6.6675 13.5863L5.78312 12.7025ZM7.10875 14.0281L6.225 14.9125L7.10875 15.7963L7.99312 14.9125L7.10875 14.0281ZM7.55125 13.5863L8.435 14.4706L9.31875 13.5863L8.435 12.7025L7.55125 13.5863ZM8.435 15.3544L7.55125 16.2381L8.435 17.1219L9.31875 16.2381L8.435 15.3544ZM9.76062 15.7963L10.6444 14.9125L9.76062 14.0281L8.87687 14.9125L9.76062 15.7963ZM7.10875 13.1444L7.99312 12.2606L7.10875 11.3769L6.225 12.2606L7.10875 13.1444ZM12.8544 16.2381L13.7381 17.1219L14.6219 16.2381L13.7381 15.3544L12.8544 16.2381ZM14.6219 13.5863L13.7381 12.7025L12.8544 13.5863L13.7381 14.4706L14.6219 13.5863ZM11.0863 17.1219L11.9706 16.2381L11.0863 15.3544L10.2025 16.2381L11.0863 17.1219ZM11.5287 12.2606L12.4125 13.1444L13.2963 12.2606L12.4125 11.3769L11.5287 12.2606ZM10.6444 12.2606L9.76062 11.3769L8.87687 12.2606L9.76062 13.1444L10.6444 12.2606ZM15.0644 13.1444L15.9481 12.2606L15.0637 11.3769L14.18 12.2606L15.0644 13.1444ZM10.2025 13.5863L11.0863 14.4706L11.9706 13.5863L11.0863 12.7025L10.2025 13.5863ZM5.78375 17.1219L6.66687 16.2381L5.78312 15.3544L4.9 16.2375L5.78375 17.1212V17.1219ZM11.5287 14.9125L12.4125 15.7963L13.2963 14.9125L12.4125 14.0281L11.5287 14.9125Z" stroke="#1E8567" stroke-width="2" mask="url(#path-1-outside-1_1952_16333)"/>
</g>
<defs>
<clipPath id="clip0_1952_16333">
<rect width="20" height="20" fill="white"/>
</clipPath>
</defs>
</svg>
