<svg width="16" height="17" viewBox="0 0 16 17" fill="none" xmlns="http://www.w3.org/2000/svg">
<path d="M12.0002 6.5H1.3335V9.16667H12.0002V6.5Z" stroke="#525355" stroke-miterlimit="2" stroke-linecap="round" stroke-linejoin="round"/>
<path d="M12.0002 4.50016V11.1668C12.0002 11.5205 11.8597 11.8596 11.6096 12.1096C11.3596 12.3597 11.0205 12.5002 10.6668 12.5002H4.00016M4.00016 12.5002H2.66683C2.31321 12.5002 1.97407 12.3597 1.72402 12.1096C1.47397 11.8596 1.3335 11.5205 1.3335 11.1668V3.16683C1.3335 2.81321 1.47397 2.47407 1.72402 2.22402C1.97407 1.97397 2.31321 1.8335 2.66683 1.8335H13.3335C13.6871 1.8335 14.0263 1.97397 14.2763 2.22402C14.5264 2.47407 14.6668 2.81321 14.6668 3.16683V13.8335C14.6668 14.5702 14.0702 15.1668 13.3335 15.1668H5.3335C4.59683 15.1668 4.00016 14.5702 4.00016 13.8335V12.5002Z" stroke="#525355" stroke-miterlimit="2" stroke-linecap="round" stroke-linejoin="round"/>
</svg>
