<svg width="16" height="17" viewBox="0 0 16 17" fill="none" xmlns="http://www.w3.org/2000/svg">
<path d="M1.5 13.5V10C1.50157 9.47005 1.71278 8.96225 2.08752 8.58752C2.46225 8.21278 2.97005 8.00157 3.5 8H12.5C13.03 8.00157 13.5377 8.21278 13.9125 8.58752C14.2872 8.96225 14.4984 9.47005 14.5 10V13.5M12 8H3V4.75C3.00099 4.41878 3.133 4.10142 3.36721 3.86721C3.60142 3.633 3.91878 3.50099 4.25 3.5H11.75C12.0812 3.50099 12.3986 3.633 12.6328 3.86721C12.867 4.10142 12.999 4.41878 13 4.75V8H12Z" stroke="#525355" stroke-linecap="round" stroke-linejoin="round"/>
<path d="M1.5 13.5V13.25C1.50058 13.0513 1.57978 12.8608 1.72031 12.7203C1.86083 12.5798 2.05127 12.5006 2.25 12.5H13.75C13.9487 12.5006 14.1392 12.5798 14.2797 12.7203C14.4202 12.8608 14.4994 13.0513 14.5 13.25V13.5M3.5 8V7.5C3.50074 7.23501 3.60634 6.98109 3.79371 6.79371C3.98109 6.60634 4.23501 6.50074 4.5 6.5H7C7.26499 6.50074 7.51891 6.60634 7.70629 6.79371C7.89366 6.98109 7.99926 7.23501 8 7.5M8 7.5V8M8 7.5C8.00074 7.23501 8.10634 6.98109 8.29371 6.79371C8.48109 6.60634 8.73501 6.50074 9 6.5H11.5C11.765 6.50074 12.0189 6.60634 12.2063 6.79371C12.3937 6.98109 12.4993 7.23501 12.5 7.5V8" stroke="#525355" stroke-linecap="round" stroke-linejoin="round"/>
</svg>
