<svg width="30" height="20" viewBox="0 0 30 20" fill="none" xmlns="http://www.w3.org/2000/svg">
<path d="M6.99984 6.33337H20.9998L15.6665 11.6667H8.99984L14.3332 6.33337M1.6665 14.3334C1.6665 15.3942 2.08793 16.4117 2.83808 17.1618C3.58822 17.9119 4.60564 18.3334 5.6665 18.3334C6.72737 18.3334 7.74479 17.9119 8.49493 17.1618C9.24508 16.4117 9.6665 15.3942 9.6665 14.3334C9.6665 13.2725 9.24508 12.2551 8.49493 11.5049C7.74479 10.7548 6.72737 10.3334 5.6665 10.3334C4.60564 10.3334 3.58822 10.7548 2.83808 11.5049C2.08793 12.2551 1.6665 13.2725 1.6665 14.3334ZM20.3332 14.3334C20.3332 15.3942 20.7546 16.4117 21.5047 17.1618C22.2549 17.9119 23.2723 18.3334 24.3332 18.3334C25.394 18.3334 26.4115 17.9119 27.1616 17.1618C27.9117 16.4117 28.3332 15.3942 28.3332 14.3334C28.3332 13.2725 27.9117 12.2551 27.1616 11.5049C26.4115 10.7548 25.394 10.3334 24.3332 10.3334C23.2723 10.3334 22.2549 10.7548 21.5047 11.5049C20.7546 12.2551 20.3332 13.2725 20.3332 14.3334Z" stroke="#313233" stroke-width="1.6" stroke-linecap="round" stroke-linejoin="round"/>
<path d="M16.333 1H18.9997L20.9997 5L23.6663 10.3333" stroke="#313233" stroke-width="1.6" stroke-linecap="round" stroke-linejoin="round"/>
</svg>
