<svg id="Layer_1" data-name="Layer 1" xmlns="http://www.w3.org/2000/svg" viewBox="0 0 1190.55 841.89"><defs><style>.cls-1{fill:none;stroke:#2781cd;stroke-miterlimit:10;stroke-width:49.83px;}.cls-2{fill:#2781cd;}.cls-3{fill:#1bd253;}</style></defs><path class="cls-1" d="M500.33,287A257.86,257.86,0,0,0,368.44,701.31c91.19,109.39,253.77,124.18,363.17,33s124.13-253.77,32.93-363.17A256.39,256.39,0,0,0,621,284.22"/><rect class="cls-2" x="284.28" y="42.71" width="48.03" height="513.36"/><path class="cls-2" d="M322.81,517S407,595.35,526.87,576.91s226.32-89.77,296.65-68.4S791.51,734.59,697.46,777s-203.78,22.13-291.38-24S289.9,588.9,293.59,565.85,322.81,517,322.81,517Z"/><circle class="cls-3" cx="560.39" cy="273.78" r="69.6"/><circle class="cls-3" cx="651.63" cy="130.27" r="74.59"/><circle class="cls-3" cx="622.7" cy="385.62" r="28.93"/><circle class="cls-3" cx="556.21" cy="433.48" r="18.93"/><circle class="cls-3" cx="586.59" cy="501.68" r="11.74"/></svg>