<svg width="706" height="499" viewBox="0 0 706 499" fill="none" xmlns="http://www.w3.org/2000/svg">
<path d="M296.552 170.109C271.729 176.702 248.968 189.445 230.371 207.159C211.774 224.874 197.941 246.99 190.151 271.464C182.36 295.938 180.862 321.98 185.796 347.186C190.73 372.391 201.936 395.947 218.38 415.677C272.429 480.514 368.792 489.28 433.634 435.237C498.477 381.193 507.208 284.823 453.152 219.98C431.375 193.75 401.41 175.605 368.075 168.461" stroke="#2781CD" stroke-width="49.83" stroke-miterlimit="10"/>
<path d="M196.965 25.3147H168.497V329.59H196.965V25.3147Z" fill="#2781CD"/>
<path d="M191.334 306.434C191.334 306.434 241.234 352.873 312.283 341.943C383.331 331.014 446.426 288.736 488.111 301.402C529.797 314.068 469.138 435.402 413.394 460.539C357.649 485.676 292.611 473.656 240.689 446.314C188.768 418.972 171.828 349.05 174.015 335.388C176.202 321.726 191.334 306.434 191.334 306.434Z" fill="#2781CD"/>
<path d="M332.151 203.526C354.935 203.526 373.404 185.057 373.404 162.274C373.404 139.49 354.935 121.021 332.151 121.021C309.368 121.021 290.898 139.49 290.898 162.274C290.898 185.057 309.368 203.526 332.151 203.526Z" fill="#1BD253"/>
<path d="M386.231 121.424C410.648 121.424 430.442 101.63 430.442 77.2131C430.442 52.7962 410.648 33.0025 386.231 33.0025C361.814 33.0025 342.021 52.7962 342.021 77.2131C342.021 101.63 361.814 121.424 386.231 121.424Z" fill="#1BD253"/>
<path d="M369.083 245.71C378.553 245.71 386.23 238.033 386.23 228.563C386.23 219.093 378.553 211.416 369.083 211.416C359.613 211.416 351.936 219.093 351.936 228.563C351.936 238.033 359.613 245.71 369.083 245.71Z" fill="#1BD253"/>
<path d="M329.673 268.151C335.869 268.151 340.893 263.127 340.893 256.93C340.893 250.734 335.869 245.71 329.673 245.71C323.476 245.71 318.453 250.734 318.453 256.93C318.453 263.127 323.476 268.151 329.673 268.151Z" fill="#1BD253"/>
<path d="M347.68 304.312C351.523 304.312 354.639 301.197 354.639 297.354C354.639 293.511 351.523 290.396 347.68 290.396C343.837 290.396 340.722 293.511 340.722 297.354C340.722 301.197 343.837 304.312 347.68 304.312Z" fill="#1BD253"/>
</svg>
