<svg width="80" height="56" viewBox="0 0 80 56" fill="none" xmlns="http://www.w3.org/2000/svg">
<path d="M6.65235 25.5187C5.16424 25.9087 3.87238 26.8256 3.02162 28.0955C2.17085 29.3655 1.8203 30.9003 2.0364 32.4091C2.2525 33.9178 3.02023 35.2957 4.1941 36.2815C5.36796 37.2673 6.86638 37.7925 8.40536 37.7577C9.94435 37.7229 11.4169 37.1304 12.5441 36.0925C13.6712 35.0546 14.3745 33.6435 14.5207 32.1265C14.667 30.6096 14.2459 29.0922 13.3374 27.8621C12.4289 26.6319 11.0961 25.7744 9.5915 25.4521" stroke="#00398F" stroke-width="0.858069" stroke-miterlimit="10"/>
<path d="M2.55806 19.6292H1.38818V32.008H2.55806V19.6292Z" fill="#00398F"/>
<path d="M2.32638 31.0635C2.32638 31.0635 4.37719 32.9532 7.29887 32.5089C10.2205 32.0645 12.8089 30.3444 14.5251 30.8592C16.2413 31.3741 13.7456 36.3136 11.4543 37.334C9.16288 38.3544 6.4905 37.8661 4.35636 36.756C2.22222 35.6458 1.52473 32.7995 1.61276 32.2441C1.70078 31.6887 2.32638 31.0635 2.32638 31.0635Z" fill="#00398F"/>
<path d="M8.1138 26.9361C9.08166 26.9361 9.86626 26.1594 9.86626 25.2013C9.86626 24.2432 9.08166 23.4666 8.1138 23.4666C7.14593 23.4666 6.36133 24.2432 6.36133 25.2013C6.36133 26.1594 7.14593 26.9361 8.1138 26.9361Z" fill="#80C0C0"/>
<path d="M10.3365 23.5391C11.34 23.5391 12.1535 22.7339 12.1535 21.7405C12.1535 20.7472 11.34 19.9419 10.3365 19.9419C9.33302 19.9419 8.51953 20.7472 8.51953 21.7405C8.51953 22.7339 9.33302 23.5391 10.3365 23.5391Z" fill="#80C0C0"/>
<path d="M9.63164 28.5957C10.0209 28.5957 10.3365 28.2833 10.3365 27.898C10.3365 27.5126 10.0209 27.2002 9.63164 27.2002C9.24234 27.2002 8.92676 27.5126 8.92676 27.898C8.92676 28.2833 9.24234 28.5957 9.63164 28.5957Z" fill="#80C0C0"/>
<path d="M8.01272 29.5083C8.2673 29.5083 8.47368 29.304 8.47368 29.052C8.47368 28.8 8.2673 28.5957 8.01272 28.5957C7.75814 28.5957 7.55176 28.8 7.55176 29.052C7.55176 29.304 7.75814 29.5083 8.01272 29.5083Z" fill="#80C0C0"/>
<path d="M8.75207 30.9803C8.91017 30.9803 9.03833 30.8534 9.03833 30.6969C9.03833 30.5404 8.91017 30.4136 8.75207 30.4136C8.59398 30.4136 8.46582 30.5404 8.46582 30.6969C8.46582 30.8534 8.59398 30.9803 8.75207 30.9803Z" fill="#80C0C0"/>
<path d="M25.1204 24.8108V32.9718C25.1204 34.0906 24.7123 35.0486 23.8961 35.846C23.0799 36.6433 22.1064 37.0424 20.9757 37.0433C19.7635 37.0433 18.7516 36.6415 17.9398 35.838C17.1187 35.0451 16.7079 34.0895 16.7075 32.9711V24.8108H15.4751V33.0789C15.5065 34.5733 16.0149 35.8083 17.0004 36.7839C17.986 37.7594 19.316 38.2472 20.9905 38.2472C22.5616 38.2472 23.8405 37.7594 24.8274 36.7839C25.8143 35.8083 26.3225 34.573 26.3521 33.0782V24.8108H25.1204Z" fill="#00398F"/>
<path d="M56.0322 17.9716V38.0976H57.1833V17.9716H56.0322Z" fill="#00398F"/>
<path d="M69.0953 35.564C67.9646 36.6837 66.6037 37.2435 65.0125 37.2435C63.4213 37.2435 62.0628 36.6892 60.937 35.5806C59.8095 34.472 59.2459 33.1292 59.2464 31.5523C59.2454 31.3383 59.2597 31.1245 59.2894 30.9125H71.7562C71.7562 29.2717 71.1568 27.8527 69.9581 26.6554C68.5976 25.3086 66.949 24.6348 65.0125 24.6339C63.0956 24.6339 61.4542 25.3077 60.0884 26.6554C58.7225 28.003 58.0396 29.6349 58.0396 31.551C58.0396 33.4494 58.7225 35.0744 60.0884 36.426C61.4542 37.7777 63.0956 38.4539 65.0125 38.4548C66.9486 38.4548 68.5971 37.7763 69.9581 36.4194C70.4186 35.9737 70.7207 35.6323 70.8645 35.395L69.6423 34.968C69.4693 35.1755 69.287 35.3742 69.0953 35.564ZM60.929 27.5081C62.0605 26.3889 63.4217 25.829 65.0125 25.8286C66.6032 25.8281 67.9642 26.388 69.0953 27.5081C69.7318 28.1343 70.2014 28.907 70.462 29.7571H59.5091C59.8002 28.9087 60.2862 28.1389 60.929 27.5081Z" fill="#00398F"/>
<path d="M77.9041 31.8497C77.444 31.3942 76.6726 30.877 75.5899 30.2978C74.9085 29.8708 74.4626 29.548 74.252 29.3293C73.9942 29.0725 73.8188 28.7458 73.748 28.3906C73.6771 28.0353 73.714 27.6672 73.8538 27.3326C73.9937 26.998 74.2304 26.7118 74.5342 26.51C74.8379 26.3082 75.1952 26.1998 75.561 26.1984C76.078 26.1984 76.4946 26.3598 76.8108 26.6826C77.1271 27.0055 77.3287 27.4846 77.4156 28.1201L78.4074 27.721V27.6644C78.4074 26.9913 78.1438 26.3926 77.6165 25.8685C77.0709 25.327 76.3859 25.0565 75.5617 25.057C75.1668 25.0512 74.775 25.1262 74.4107 25.2772C74.0465 25.4283 73.7177 25.6522 73.445 25.935C73.167 26.2101 72.9464 26.5367 72.7959 26.8963C72.6455 27.2558 72.568 27.6411 72.568 28.0303C72.568 28.4194 72.6455 28.8047 72.7959 29.1643C72.9464 29.5238 73.167 29.8504 73.445 30.1255C73.8186 30.4954 74.4906 30.9415 75.4609 31.4639C76.2851 31.9854 76.8317 32.3791 77.1005 32.6452C77.345 32.8733 77.539 33.1491 77.6702 33.4553C77.8014 33.7615 77.8668 34.0913 77.8624 34.4239C77.8674 34.9282 77.7205 35.4226 77.4402 35.8439C77.16 36.2652 76.7593 36.5942 76.2893 36.7889C75.8193 36.9837 75.3013 37.0354 74.8015 36.9373C74.3017 36.8393 73.8427 36.5959 73.4833 36.2385C72.9811 35.74 72.7298 35.1256 72.7294 34.3953L71.5938 34.6793C71.5938 35.5338 71.9521 36.3194 72.6689 37.036C73.0122 37.3768 73.4201 37.6472 73.8691 37.8317C74.3182 38.0162 74.7996 38.1111 75.2858 38.1111C75.772 38.1111 76.2535 38.0162 76.7025 37.8317C77.1516 37.6472 77.5594 37.3768 77.9028 37.036C78.6195 36.3189 78.979 35.4482 78.9813 34.4239C78.9822 33.4292 78.6231 32.5712 77.9041 31.8497Z" fill="#00398F"/>
<path d="M33.7716 38.349C33.5606 38.349 33.3489 38.3394 33.1366 38.3204C31.7798 38.1984 30.49 37.681 29.4303 36.8335C28.3707 35.9859 27.5886 34.8464 27.1832 33.5589C26.7778 32.2714 26.7671 30.8938 27.1526 29.6004C27.538 28.3069 28.3023 27.1556 29.3487 26.2921C30.1983 25.5913 31.2057 25.1033 32.286 24.8693C33.3662 24.6353 34.4875 24.6622 35.5551 24.9477C36.6226 25.2332 37.605 25.7689 38.4193 26.5096C39.2335 27.2502 39.8557 28.1741 40.2331 29.203C40.6105 30.2319 40.7322 31.3356 40.5877 32.4209C40.4433 33.5062 40.037 34.5411 39.4033 35.4381C38.7695 36.3352 37.9269 37.068 36.9467 37.5747C35.9664 38.0813 34.8774 38.3469 33.7716 38.349ZM30.1255 27.2147C29.2634 27.9261 28.6338 28.8746 28.3163 29.9402C27.9987 31.0058 28.0076 32.1407 28.3416 33.2014C28.6757 34.2621 29.32 35.2008 30.193 35.899C31.0661 36.5972 32.1287 37.0235 33.2464 37.1238C34.3642 37.2242 35.4869 36.9942 36.4727 36.463C37.4584 35.9317 38.2628 35.123 38.7842 34.1392C39.3057 33.1553 39.5207 32.0405 39.402 30.9357C39.2834 29.8309 38.8365 28.7858 38.1178 27.9324C37.6436 27.3616 37.0595 26.8897 36.3995 26.5442C35.7395 26.1986 35.0168 25.9863 34.2732 25.9195C33.5297 25.8527 32.7801 25.9329 32.0681 26.1552C31.3561 26.3775 30.6958 26.7377 30.1255 27.2147Z" fill="#00398F"/>
<path d="M28.0546 19.6292H26.8848V32.008H28.0546V19.6292Z" fill="#00398F"/>
<path d="M47.9885 38.3451C46.5728 38.3465 45.191 37.916 44.0314 37.1121C42.8717 36.3082 41.9906 35.1701 41.5079 33.8526C41.0251 32.5352 40.9644 31.1025 41.3338 29.7496C41.7032 28.3968 42.4849 27.1895 43.5724 26.2922C44.4218 25.5902 45.4296 25.1011 46.5105 24.8663C47.5914 24.6315 48.7135 24.6579 49.7818 24.9433C50.8502 25.2287 51.8333 25.7647 52.6481 26.5059C53.4628 27.2472 54.0852 28.1718 54.4625 29.2015C54.8398 30.2313 54.9609 31.3359 54.8156 32.4218C54.6703 33.5077 54.2629 34.543 53.6277 35.44C52.9926 36.337 52.1485 37.0693 51.1669 37.575C50.1853 38.0807 49.0951 38.3448 47.9885 38.3451ZM47.9731 25.9117C46.6478 25.9103 45.3646 26.3717 44.3492 27.2148C43.3406 28.0468 42.6547 29.1993 42.4083 30.4758C42.1619 31.7524 42.3703 33.074 42.998 34.2155C43.6256 35.357 44.6337 36.2477 45.8504 36.736C47.0672 37.2242 48.4173 37.2797 49.6707 36.893C50.9241 36.5062 52.0033 35.7013 52.7244 34.6152C53.4455 33.5291 53.7638 32.2292 53.6252 30.9368C53.4865 29.6444 52.8995 28.4396 51.964 27.5277C51.0286 26.6158 49.8027 26.0531 48.4952 25.9357C48.3211 25.9197 48.1464 25.9117 47.9731 25.9117Z" fill="#00398F"/>
<path d="M42.2783 19.6292H41.1084V32.008H42.2783V19.6292Z" fill="#00398F"/>
</svg>
