<svg width="20" height="20" viewBox="0 0 20 20" fill="none" xmlns="http://www.w3.org/2000/svg">
<path d="M1.66699 18.3335H18.3337" stroke="#525355"/>
<path d="M18.3337 18.4585H1.66699C1.63684 18.4585 1.60556 18.4462 1.57992 18.4206C1.55428 18.3949 1.54199 18.3636 1.54199 18.3335C1.54199 18.3033 1.55428 18.2721 1.57992 18.2464C1.60556 18.2208 1.63684 18.2085 1.66699 18.2085H18.3337C18.3638 18.2085 18.3951 18.2208 18.4207 18.2464C18.4464 18.2721 18.4587 18.3033 18.4587 18.3335C18.4587 18.3636 18.4464 18.3949 18.4207 18.4206C18.3951 18.4462 18.3638 18.4585 18.3337 18.4585Z" fill="#525355" stroke="#525355"/>
<path d="M17.5 18.9582H2.5C2.15833 18.9582 1.875 18.6748 1.875 18.3332V4.99984C1.875 2.48317 3.31667 1.0415 5.83333 1.0415H14.1667C16.6833 1.0415 18.125 2.48317 18.125 4.99984V18.3332C18.125 18.6748 17.8417 18.9582 17.5 18.9582ZM3.125 17.7082H16.875V4.99984C16.875 3.14984 16.0167 2.2915 14.1667 2.2915H5.83333C3.98333 2.2915 3.125 3.14984 3.125 4.99984V17.7082Z" fill="#525355"/>
<path d="M8.33301 14.375H5.83301C5.49134 14.375 5.20801 14.0917 5.20801 13.75C5.20801 13.4083 5.49134 13.125 5.83301 13.125H8.33301C8.67467 13.125 8.95801 13.4083 8.95801 13.75C8.95801 14.0917 8.67467 14.375 8.33301 14.375Z" fill="#525355"/>
<path d="M14.167 14.375H11.667C11.3253 14.375 11.042 14.0917 11.042 13.75C11.042 13.4083 11.3253 13.125 11.667 13.125H14.167C14.5087 13.125 14.792 13.4083 14.792 13.75C14.792 14.0917 14.5087 14.375 14.167 14.375Z" fill="#525355"/>
<path d="M8.33301 10.625H5.83301C5.49134 10.625 5.20801 10.3417 5.20801 10C5.20801 9.65833 5.49134 9.375 5.83301 9.375H8.33301C8.67467 9.375 8.95801 9.65833 8.95801 10C8.95801 10.3417 8.67467 10.625 8.33301 10.625Z" fill="#525355"/>
<path d="M14.167 10.625H11.667C11.3253 10.625 11.042 10.3417 11.042 10C11.042 9.65833 11.3253 9.375 11.667 9.375H14.167C14.5087 9.375 14.792 9.65833 14.792 10C14.792 10.3417 14.5087 10.625 14.167 10.625Z" fill="#525355"/>
<path d="M8.33301 6.875H5.83301C5.49134 6.875 5.20801 6.59167 5.20801 6.25C5.20801 5.90833 5.49134 5.625 5.83301 5.625H8.33301C8.67467 5.625 8.95801 5.90833 8.95801 6.25C8.95801 6.59167 8.67467 6.875 8.33301 6.875Z" fill="#525355"/>
<path d="M14.167 6.875H11.667C11.3253 6.875 11.042 6.59167 11.042 6.25C11.042 5.90833 11.3253 5.625 11.667 5.625H14.167C14.5087 5.625 14.792 5.90833 14.792 6.25C14.792 6.59167 14.5087 6.875 14.167 6.875Z" fill="#525355"/>
</svg>
