<svg width="16" height="17" viewBox="0 0 16 17" fill="none" xmlns="http://www.w3.org/2000/svg">
<path d="M14.6468 12.7202C14.6468 12.9602 14.5935 13.2068 14.4802 13.4468C14.3668 13.6868 14.2202 13.9135 14.0268 14.1268C13.7002 14.4868 13.3402 14.7468 12.9335 14.9135C12.5335 15.0802 12.1002 15.1668 11.6335 15.1668C10.9535 15.1668 10.2268 15.0068 9.46016 14.6802C8.6935 14.3535 7.92683 13.9135 7.16683 13.3602C6.40016 12.8002 5.6735 12.1802 4.98016 11.4935C4.2935 10.8002 3.6735 10.0735 3.12016 9.3135C2.5735 8.5535 2.1335 7.7935 1.8135 7.04016C1.4935 6.28016 1.3335 5.5535 1.3335 4.86016C1.3335 4.40683 1.4135 3.9735 1.5735 3.5735C1.7335 3.16683 1.98683 2.7935 2.34016 2.46016C2.76683 2.04016 3.2335 1.8335 3.72683 1.8335C3.9135 1.8335 4.10016 1.8735 4.26683 1.9535C4.44016 2.0335 4.5935 2.1535 4.7135 2.32683L6.26016 4.50683C6.38016 4.6735 6.46683 4.82683 6.52683 4.9735C6.58683 5.1135 6.62016 5.2535 6.62016 5.38016C6.62016 5.54016 6.5735 5.70016 6.48016 5.8535C6.3935 6.00683 6.26683 6.16683 6.10683 6.32683L5.60016 6.8535C5.52683 6.92683 5.4935 7.0135 5.4935 7.12016C5.4935 7.1735 5.50016 7.22016 5.5135 7.2735C5.5335 7.32683 5.5535 7.36683 5.56683 7.40683C5.68683 7.62683 5.8935 7.9135 6.18683 8.26016C6.48683 8.60683 6.80683 8.96016 7.1535 9.3135C7.5135 9.66683 7.86016 9.9935 8.2135 10.2935C8.56016 10.5868 8.84683 10.7868 9.0735 10.9068C9.10683 10.9202 9.14683 10.9402 9.1935 10.9602C9.24683 10.9802 9.30016 10.9868 9.36016 10.9868C9.4735 10.9868 9.56016 10.9468 9.6335 10.8735L10.1402 10.3735C10.3068 10.2068 10.4668 10.0802 10.6202 10.0002C10.7735 9.90683 10.9268 9.86016 11.0935 9.86016C11.2202 9.86016 11.3535 9.88683 11.5002 9.94683C11.6468 10.0068 11.8002 10.0935 11.9668 10.2068L14.1735 11.7735C14.3468 11.8935 14.4668 12.0335 14.5402 12.2002C14.6068 12.3668 14.6468 12.5335 14.6468 12.7202Z" stroke="#525355" stroke-miterlimit="10"/>
</svg>
