<svg width="20" height="20" viewBox="0 0 20 20" fill="none" xmlns="http://www.w3.org/2000/svg">
<path d="M14.0833 10.8334H13.3333C12.8913 10.8334 12.4674 10.6578 12.1548 10.3452C11.8423 10.0327 11.6667 9.60874 11.6667 9.16671C11.6667 9.60874 11.4911 10.0327 11.1785 10.3452C10.866 10.6578 10.442 10.8334 10 10.8334C9.55797 10.8334 9.13405 10.6578 8.82149 10.3452C8.50893 10.0327 8.33333 9.60874 8.33333 9.16671C8.33333 9.60874 8.15774 10.0327 7.84518 10.3452C7.53262 10.6578 7.10869 10.8334 6.66667 10.8334H5.91667M4.58333 3.33337H7.08333M7.26417 17.5H12.7358C13.3012 17.5 13.8572 17.6438 14.3517 17.9179C14.8462 18.192 15.2629 18.5873 15.5625 19.0667V19.0667C15.6014 19.1289 15.6696 19.1667 15.7429 19.1667H16.2936C16.9599 19.1667 17.5 18.6266 17.5 17.9603V2.83338C17.5 1.72881 16.6046 0.833374 15.5 0.833374H4.5C3.39543 0.833374 2.5 1.7288 2.5 2.83337V17.9603C2.5 18.6266 3.04011 19.1667 3.70637 19.1667H4.25707C4.33043 19.1667 4.39862 19.1289 4.4375 19.0667V19.0667C4.73714 18.5873 5.15379 18.192 5.64827 17.9179C6.14275 17.6438 6.69881 17.5 7.26417 17.5ZM10 14.1667C8.89493 14.1667 7.83512 13.7277 7.05372 12.9463C6.27232 12.1649 5.83333 11.1051 5.83333 10C5.83333 8.89497 6.27232 7.83516 7.05372 7.05376C7.83512 6.27236 8.89493 5.83337 10 5.83337C11.1051 5.83337 12.1649 6.27236 12.9463 7.05376C13.7277 7.83516 14.1667 8.89497 14.1667 10C14.1667 11.1051 13.7277 12.1649 12.9463 12.9463C12.1649 13.7277 11.1051 14.1667 10 14.1667Z" stroke="#525355"/>
</svg>
