<svg width="16" height="16" viewBox="0 0 16 16" fill="none" xmlns="http://www.w3.org/2000/svg">
<path d="M7.86631 4.1001C7.81108 4.1001 7.76631 4.05533 7.76631 4.0001C7.76631 3.94487 7.81108 3.9001 7.86631 3.9001C7.92154 3.9001 7.96631 3.94487 7.96631 4.0001C7.96631 4.05533 7.92154 4.1001 7.86631 4.1001ZM9.56631 4.0001C9.56631 4.05533 9.52154 4.1001 9.46631 4.1001C9.41108 4.1001 9.36631 4.05533 9.36631 4.0001C9.36631 3.94487 9.41108 3.9001 9.46631 3.9001C9.52154 3.9001 9.56631 3.94487 9.56631 4.0001ZM11.0663 4.1001C11.0111 4.1001 10.9663 4.05533 10.9663 4.0001C10.9663 3.94487 11.0111 3.9001 11.0663 3.9001C11.1215 3.9001 11.1663 3.94487 11.1663 4.0001C11.1663 4.05533 11.1215 4.1001 11.0663 4.1001ZM7.96631 5.6001C7.96631 5.65533 7.92154 5.7001 7.86631 5.7001C7.81108 5.7001 7.76631 5.65533 7.76631 5.6001C7.76631 5.54487 7.81108 5.5001 7.86631 5.5001C7.92154 5.5001 7.96631 5.54487 7.96631 5.6001ZM9.46631 5.7001C9.41108 5.7001 9.36631 5.65533 9.36631 5.6001C9.36631 5.54487 9.41108 5.5001 9.46631 5.5001C9.52154 5.5001 9.56631 5.54487 9.56631 5.6001C9.56631 5.65533 9.52154 5.7001 9.46631 5.7001ZM11.1663 5.6001C11.1663 5.65533 11.1215 5.7001 11.0663 5.7001C11.0111 5.7001 10.9663 5.65533 10.9663 5.6001C10.9663 5.54487 11.0111 5.5001 11.0663 5.5001C11.1215 5.5001 11.1663 5.54487 11.1663 5.6001ZM7.86631 7.3001C7.81108 7.3001 7.76631 7.25533 7.76631 7.2001C7.76631 7.14487 7.81108 7.1001 7.86631 7.1001C7.92154 7.1001 7.96631 7.14487 7.96631 7.2001C7.96631 7.25533 7.92154 7.3001 7.86631 7.3001ZM9.56631 7.2001C9.56631 7.25533 9.52154 7.3001 9.46631 7.3001C9.41108 7.3001 9.36631 7.25533 9.36631 7.2001C9.36631 7.14487 9.41108 7.1001 9.46631 7.1001C9.52154 7.1001 9.56631 7.14487 9.56631 7.2001ZM11.0663 7.3001C11.0111 7.3001 10.9663 7.25533 10.9663 7.2001C10.9663 7.14487 11.0111 7.1001 11.0663 7.1001C11.1215 7.1001 11.1663 7.14487 11.1663 7.2001C11.1663 7.25533 11.1215 7.3001 11.0663 7.3001ZM7.96631 8.8001C7.96631 8.85533 7.92154 8.9001 7.86631 8.9001C7.81108 8.9001 7.76631 8.85533 7.76631 8.8001C7.76631 8.74487 7.81108 8.7001 7.86631 8.7001C7.92154 8.7001 7.96631 8.74487 7.96631 8.8001ZM9.46631 8.9001C9.41108 8.9001 9.36631 8.85533 9.36631 8.8001C9.36631 8.74487 9.41108 8.7001 9.46631 8.7001C9.52154 8.7001 9.56631 8.74487 9.56631 8.8001C9.56631 8.85533 9.52154 8.9001 9.46631 8.9001ZM7.96631 10.4001C7.96631 10.4553 7.92154 10.5001 7.86631 10.5001C7.81108 10.5001 7.76631 10.4553 7.76631 10.4001C7.76631 10.3449 7.81108 10.3001 7.86631 10.3001C7.92154 10.3001 7.96631 10.3449 7.96631 10.4001ZM9.46631 10.5001C9.41108 10.5001 9.36631 10.4553 9.36631 10.4001C9.36631 10.3449 9.41108 10.3001 9.46631 10.3001C9.52154 10.3001 9.56631 10.3449 9.56631 10.4001C9.56631 10.4553 9.52154 10.5001 9.46631 10.5001ZM7.96631 12.0001C7.96631 12.0553 7.92154 12.1001 7.86631 12.1001C7.81108 12.1001 7.76631 12.0553 7.76631 12.0001C7.76631 11.9449 7.81108 11.9001 7.86631 11.9001C7.92154 11.9001 7.96631 11.9449 7.96631 12.0001ZM9.46631 12.1001C9.41108 12.1001 9.36631 12.0553 9.36631 12.0001C9.36631 11.9449 9.41108 11.9001 9.46631 11.9001C9.52154 11.9001 9.56631 11.9449 9.56631 12.0001C9.56631 12.0553 9.52154 12.1001 9.46631 12.1001ZM7.96631 13.6001C7.96631 13.6553 7.92154 13.7001 7.86631 13.7001C7.81108 13.7001 7.76631 13.6553 7.76631 13.6001C7.76631 13.5449 7.81108 13.5001 7.86631 13.5001C7.92154 13.5001 7.96631 13.5449 7.96631 13.6001ZM9.46631 13.7001C9.41108 13.7001 9.36631 13.6553 9.36631 13.6001C9.36631 13.5449 9.41108 13.5001 9.46631 13.5001C9.52154 13.5001 9.56631 13.5449 9.56631 13.6001C9.56631 13.6553 9.52154 13.7001 9.46631 13.7001Z" fill="#525355" stroke="#525355"/>
<path d="M6.7665 1.2025C6.7665 0.969765 6.99896 0.808672 7.21688 0.890391L7.63825 1.0484C7.2786 1.12107 6.96082 1.34129 6.7665 1.65253V1.2025ZM11.715 8.31271C11.9613 8.16588 12.1562 7.94194 12.2665 7.6742C12.3737 7.93433 12.5607 8.15311 12.7971 8.3H11.8998C11.8371 8.3 11.7754 8.30433 11.715 8.31271ZM14.1665 8.93061C14.0581 8.75608 13.9104 8.60845 13.7359 8.5H14.1665V8.93061ZM14.0322 15.5C14.1289 15.4218 14.209 15.324 14.2665 15.2127C14.324 15.324 14.4042 15.4218 14.5008 15.5H14.0322ZM12.572 14.9C12.5987 15.1418 12.7212 15.3547 12.9008 15.5H12.0322C12.2118 15.3547 12.3343 15.1418 12.361 14.9H12.572ZM10.5943 15.0226C10.6428 15.2134 10.7523 15.3798 10.9008 15.5H10.1359C10.3258 15.382 10.4839 15.2176 10.5943 15.0226ZM6.6665 14.8742C6.77366 15.1343 6.96072 15.3531 7.19711 15.5H6.13589C6.37228 15.3531 6.55934 15.1343 6.6665 14.8742ZM3.93876 15.0226C4.04914 15.2176 4.2072 15.382 4.39711 15.5H3.63224C3.78072 15.3798 3.89021 15.2134 3.93876 15.0226ZM11.218 8.48729C11.0344 8.59679 10.8792 8.74916 10.7665 8.93061V8.5H11.0332C11.0959 8.5 11.1576 8.49567 11.218 8.48729ZM6.08914 6.87225C6.27991 6.82371 6.44635 6.71422 6.5665 6.56573V7.33061C6.4485 7.1407 6.2841 6.98263 6.08914 6.87225ZM4.99868 6.23935C5.04925 6.42313 5.15664 6.58337 5.30077 6.7H5.09984C4.62135 6.7 4.20173 6.95204 3.9665 7.33061V6.89621C4.40979 6.86249 4.79093 6.60646 4.99868 6.23935Z" fill="#525355" stroke="#525355"/>
</svg>
