<svg width="12" height="12" viewBox="0 0 12 12" fill="none" xmlns="http://www.w3.org/2000/svg">
<path d="M4.57982 5.81C4.56482 5.81 4.55482 5.81 4.53982 5.81C4.51482 5.805 4.47982 5.805 4.44982 5.81C2.99982 5.765 1.90482 4.625 1.90482 3.22C1.90482 1.79 3.06982 0.625 4.49982 0.625C5.92982 0.625 7.09482 1.79 7.09482 3.22C7.08982 4.625 5.98982 5.765 4.59482 5.81C4.58982 5.81 4.58482 5.81 4.57982 5.81ZM4.49982 1.375C3.48482 1.375 2.65482 2.205 2.65482 3.22C2.65482 4.22 3.43482 5.025 4.42982 5.06C4.45982 5.055 4.52482 5.055 4.58982 5.06C5.56982 5.015 6.33982 4.21 6.34482 3.22C6.34482 2.205 5.51482 1.375 4.49982 1.375Z" fill="#525355"/>
<path d="M8.26978 5.875C8.25478 5.875 8.23978 5.875 8.22478 5.87C8.01978 5.89 7.80978 5.745 7.78978 5.54C7.76978 5.335 7.89478 5.15 8.09978 5.125C8.15978 5.12 8.22478 5.12 8.27978 5.12C9.00978 5.08 9.57978 4.48 9.57978 3.745C9.57978 2.985 8.96478 2.37 8.20478 2.37C7.99978 2.375 7.82978 2.205 7.82978 2C7.82978 1.795 7.99978 1.625 8.20478 1.625C9.37478 1.625 10.3298 2.58 10.3298 3.75C10.3298 4.9 9.42978 5.83 8.28478 5.875C8.27978 5.875 8.27478 5.875 8.26978 5.875Z" fill="#525355"/>
<path d="M4.5848 11.275C3.6048 11.275 2.6198 11.025 1.8748 10.525C1.1798 10.065 0.799805 9.435 0.799805 8.75C0.799805 8.065 1.1798 7.43 1.8748 6.965C3.3748 5.97 5.8048 5.97 7.2948 6.965C7.9848 7.425 8.3698 8.055 8.3698 8.74C8.3698 9.425 7.9898 10.06 7.2948 10.525C6.5448 11.025 5.56481 11.275 4.5848 11.275ZM2.2898 7.595C1.8098 7.915 1.5498 8.325 1.5498 8.755C1.5498 9.18 1.8148 9.59 2.2898 9.905C3.5348 10.74 5.6348 10.74 6.8798 9.905C7.3598 9.585 7.6198 9.175 7.6198 8.745C7.6198 8.32 7.3548 7.91 6.8798 7.595C5.6348 6.765 3.5348 6.765 2.2898 7.595Z" fill="#525355"/>
<path d="M9.16979 10.375C8.99479 10.375 8.83979 10.255 8.80479 10.075C8.76479 9.87001 8.89479 9.67501 9.09479 9.63001C9.40979 9.56501 9.69979 9.44001 9.92479 9.26501C10.2098 9.05001 10.3648 8.78001 10.3648 8.49501C10.3648 8.21001 10.2098 7.94001 9.92979 7.73001C9.70979 7.56001 9.43479 7.44001 9.10979 7.36501C8.90979 7.32001 8.77979 7.12001 8.82479 6.91501C8.86979 6.71501 9.06979 6.58501 9.27479 6.63001C9.70479 6.72501 10.0798 6.89501 10.3848 7.13001C10.8498 7.48001 11.1148 7.97501 11.1148 8.49501C11.1148 9.01501 10.8448 9.51001 10.3798 9.86501C10.0698 10.105 9.67979 10.28 9.24979 10.365C9.21979 10.375 9.19479 10.375 9.16979 10.375Z" fill="#525355"/>
</svg>
