<svg width="21" height="20" viewBox="0 0 21 20" fill="none" xmlns="http://www.w3.org/2000/svg">
<path d="M12.7738 18.8406L10.5562 14.3586L8.80273 12.1168C8.54369 11.6785 8.40703 11.1787 8.40703 10.6695V5.625M8.40703 5.625H9.01914C9.22549 5.62495 9.42983 5.66555 9.62049 5.74448C9.81115 5.82341 9.98439 5.93913 10.1303 6.08502C10.2763 6.23092 10.392 6.40413 10.471 6.59477C10.55 6.78541 10.5906 6.98974 10.5906 7.19609V14.3586M8.40703 5.625C6.95156 5.625 5.49609 8.53633 5.49609 8.53633V11.4473M14.957 10.7195L12.375 9.02344M7.16133 18.6859L9.25 15.625" stroke="#525355" stroke-linecap="round" stroke-linejoin="round"/>
<path d="M10.5907 4.16954C11.3946 4.16954 12.0462 3.51791 12.0462 2.71407C12.0462 1.91024 11.3946 1.25861 10.5907 1.25861C9.78689 1.25861 9.13525 1.91024 9.13525 2.71407C9.13525 3.51791 9.78689 4.16954 10.5907 4.16954Z" stroke="#525355" stroke-linecap="round" stroke-linejoin="round"/>
</svg>
