<svg width="20" height="20" viewBox="0 0 20 20" fill="none" xmlns="http://www.w3.org/2000/svg">
<path d="M4.99984 8.33331H13.7498L10.4165 11.6666H6.24984L9.58317 8.33331M1.6665 13.3333C1.6665 13.9964 1.9299 14.6322 2.39874 15.1011C2.86758 15.5699 3.50346 15.8333 4.1665 15.8333C4.82955 15.8333 5.46543 15.5699 5.93427 15.1011C6.40311 14.6322 6.6665 13.9964 6.6665 13.3333C6.6665 12.6703 6.40311 12.0344 5.93427 11.5655C5.46543 11.0967 4.82955 10.8333 4.1665 10.8333C3.50346 10.8333 2.86758 11.0967 2.39874 11.5655C1.9299 12.0344 1.6665 12.6703 1.6665 13.3333ZM13.3332 13.3333C13.3332 13.9964 13.5966 14.6322 14.0654 15.1011C14.5342 15.5699 15.1701 15.8333 15.8332 15.8333C16.4962 15.8333 17.1321 15.5699 17.6009 15.1011C18.0698 14.6322 18.3332 13.9964 18.3332 13.3333C18.3332 12.6703 18.0698 12.0344 17.6009 11.5655C17.1321 11.0967 16.4962 10.8333 15.8332 10.8333C15.1701 10.8333 14.5342 11.0967 14.0654 11.5655C13.5966 12.0344 13.3332 12.6703 13.3332 13.3333Z" stroke="#313233" stroke-linecap="round" stroke-linejoin="round"/>
<path d="M10.833 5H12.4997L13.7497 7.5L15.4163 10.8333" stroke="#313233" stroke-linecap="round" stroke-linejoin="round"/>
</svg>
