<svg width="32" height="32" viewBox="0 0 32 32" fill="none" xmlns="http://www.w3.org/2000/svg">
<path d="M13 20C13 19.2044 13.3161 18.4413 13.8787 17.8787C14.4413 17.3161 15.2044 17 16 17C16.7956 17 17.5587 17.3161 18.1213 17.8787C18.6839 18.4413 19 19.2044 19 20C19 20.7956 18.6839 21.5587 18.1213 22.1213C17.5587 22.6839 16.7956 23 16 23C15.2044 23 14.4413 22.6839 13.8787 22.1213C13.3161 21.5587 13 20.7956 13 20Z" fill="#55AAAA"/>
<path fill-rule="evenodd" clip-rule="evenodd" d="M4 12H28V17.3333C28 22.3613 28 24.876 26.4373 26.4373C26.0283 26.844 25.5387 27.1606 25 27.3667V29.3333C25 29.5985 24.8946 29.8529 24.7071 30.0404C24.5196 30.228 24.2652 30.3333 24 30.3333C23.7348 30.3333 23.4804 30.228 23.2929 30.0404C23.1054 29.8529 23 29.5985 23 29.3333V27.828C21.5733 28 19.7413 28 17.3333 28H14.6667C12.2587 28 10.4267 28 9 27.828V29.3333C9 29.5985 8.89464 29.8529 8.70711 30.0404C8.51957 30.228 8.26522 30.3333 8 30.3333C7.73478 30.3333 7.48043 30.228 7.29289 30.0404C7.10536 29.8529 7 29.5985 7 29.3333V27.3667C6.4613 27.1606 5.97169 26.844 5.56267 26.4373C4 24.876 4 22.3613 4 17.3333V12ZM16 15C14.6739 15 13.4021 15.5268 12.4645 16.4645C11.5268 17.4021 11 18.6739 11 20C11 21.3261 11.5268 22.5979 12.4645 23.5355C13.4021 24.4732 14.6739 25 16 25C17.3261 25 18.5979 24.4732 19.5355 23.5355C20.4732 22.5979 21 21.3261 21 20C21 18.6739 20.4732 17.4021 19.5355 16.4645C18.5979 15.5268 17.3261 15 16 15Z" fill="#008080"/>
<path opacity="0.5" d="M5.56272 4.22935C4.26406 5.52802 4.04406 7.48535 4.00806 11V12H28.0001V11C27.9627 7.48535 27.7374 5.52802 26.4387 4.22935C24.8761 2.66669 22.3601 2.66669 17.3334 2.66669H14.6667C9.64006 2.66669 7.12406 2.66669 5.56272 4.22935Z" fill="#008080"/>
<path d="M8.66663 6.33333C8.40141 6.33333 8.14706 6.43869 7.95952 6.62623C7.77198 6.81376 7.66663 7.06812 7.66663 7.33333C7.66663 7.59855 7.77198 7.8529 7.95952 8.04044C8.14706 8.22798 8.40141 8.33333 8.66663 8.33333H12.6666C12.9318 8.33333 13.1862 8.22798 13.3737 8.04044C13.5613 7.8529 13.6666 7.59855 13.6666 7.33333C13.6666 7.06812 13.5613 6.81376 13.3737 6.62623C13.1862 6.43869 12.9318 6.33333 12.6666 6.33333H8.66663ZM20.6666 7.33333C20.6666 7.68696 20.5262 8.02609 20.2761 8.27614C20.0261 8.52619 19.6869 8.66667 19.3333 8.66667C18.9797 8.66667 18.6405 8.52619 18.3905 8.27614C18.1404 8.02609 18 7.68696 18 7.33333C18 6.97971 18.1404 6.64057 18.3905 6.39052C18.6405 6.14048 18.9797 6 19.3333 6C19.6869 6 20.0261 6.14048 20.2761 6.39052C20.5262 6.64057 20.6666 6.97971 20.6666 7.33333ZM23.3333 8.66667C23.6869 8.66667 24.0261 8.52619 24.2761 8.27614C24.5262 8.02609 24.6666 7.68696 24.6666 7.33333C24.6666 6.97971 24.5262 6.64057 24.2761 6.39052C24.0261 6.14048 23.6869 6 23.3333 6C22.9797 6 22.6405 6.14048 22.3905 6.39052C22.1404 6.64057 22 6.97971 22 7.33333C22 7.68696 22.1404 8.02609 22.3905 8.27614C22.6405 8.52619 22.9797 8.66667 23.3333 8.66667Z" fill="#008080"/>
</svg>
