<svg width="16" height="17" viewBox="0 0 16 17" fill="none" xmlns="http://www.w3.org/2000/svg">
<path d="M14.6668 9.16683V6.50016C14.6668 3.16683 13.3335 1.8335 10.0002 1.8335H6.00016C2.66683 1.8335 1.3335 3.16683 1.3335 6.50016V10.5002C1.3335 13.8335 2.66683 15.1668 6.00016 15.1668H8.66683" stroke="#525355" stroke-linecap="round" stroke-linejoin="round"/>
<path d="M14.6668 9.16683V6.50016C14.6668 3.16683 13.3335 1.8335 10.0002 1.8335H6.00016C2.66683 1.8335 1.3335 3.16683 1.3335 6.50016V10.5002C1.3335 13.8335 2.66683 15.1668 6.00016 15.1668H8.66683" stroke="#525355" stroke-linecap="round" stroke-linejoin="round"/>
<path d="M14.6668 9.16683V6.50016C14.6668 3.16683 13.3335 1.8335 10.0002 1.8335H6.00016C2.66683 1.8335 1.3335 3.16683 1.3335 6.50016V10.5002C1.3335 13.8335 2.66683 15.1668 6.00016 15.1668H8.66683" stroke="#525355" stroke-linecap="round" stroke-linejoin="round"/>
<path d="M10.6665 13.4535L11.7198 14.5002L13.9998 11.8335" stroke="#525355" stroke-linecap="round" stroke-linejoin="round"/>
<path d="M4.6665 7.5V9.5" stroke="#525355" stroke-linecap="round" stroke-linejoin="round"/>
<path d="M8 7.5V9.5" stroke="#525355" stroke-linecap="round" stroke-linejoin="round"/>
<path d="M11.3335 7.5V9.5" stroke="#525355" stroke-linecap="round" stroke-linejoin="round"/>
</svg>
