<svg width="16" height="17" viewBox="0 0 16 17" fill="none" xmlns="http://www.w3.org/2000/svg">
<path d="M9.33333 9.16667L10 7.83333M2.66667 4.5H6.284C6.40042 4.50008 6.51479 4.53065 6.61573 4.58866C6.71667 4.64668 6.80066 4.73011 6.85933 4.83067L7.56867 6.046C7.70496 6.27971 7.88725 6.48335 8.10451 6.64457C8.32177 6.8058 8.56949 6.92127 8.83267 6.984L11.9507 7.72667C12.5341 7.86551 13.0537 8.19698 13.4256 8.66753C13.7974 9.13809 13.9998 9.72025 14 10.32V11.8333C14 12.0101 13.9298 12.1797 13.8047 12.3047C13.6797 12.4298 13.5101 12.5 13.3333 12.5H2.66667C2.48986 12.5 2.32029 12.4298 2.19526 12.3047C2.07024 12.1797 2 12.0101 2 11.8333V5.16667C2 4.98986 2.07024 4.82029 2.19526 4.69526C2.32029 4.57024 2.48986 4.5 2.66667 4.5Z" stroke="#525355" stroke-linecap="round" stroke-linejoin="round"/>
<path d="M5.33333 12.5V11.8333C5.33333 11.1261 5.05238 10.4478 4.55228 9.94772C4.05219 9.44762 3.37391 9.16667 2.66667 9.16667H2M6.66667 8.5L7.66667 6.5" stroke="#525355" stroke-linecap="round" stroke-linejoin="round"/>
</svg>
