<svg width="17" height="17" viewBox="0 0 17 17" fill="none" xmlns="http://www.w3.org/2000/svg">
<path d="M6.25 4.5H11.2227C11.6961 4.50003 12.1542 4.66801 12.5154 4.97405C12.8766 5.28009 13.1175 5.70434 13.1953 6.17133L13.58 8.48067L14.12 11.724C14.1359 11.8194 14.1308 11.9171 14.1051 12.0104C14.0794 12.1036 14.0337 12.1902 13.9713 12.264C13.9088 12.3378 13.831 12.3972 13.7433 12.4379C13.6556 12.4787 13.56 12.4999 13.4633 12.5H2.25C2.25 11.2623 2.74167 10.0753 3.61683 9.20017C4.492 8.325 5.67899 7.83333 6.91667 7.83333H13.45M8.25 10.5H8.25667" stroke="#525355" stroke-linecap="round" stroke-linejoin="round"/>
</svg>
