<svg width="20" height="20" viewBox="0 0 20 20" fill="none" xmlns="http://www.w3.org/2000/svg">
<g clip-path="url(#clip0_1519_31082)">
<path d="M11.6533 14.1591C11.8321 13.8292 12.0983 13.5575 12.4215 13.375" stroke="#313233" stroke-linecap="round" stroke-linejoin="round"/>
<path d="M14.7754 6.0625C14.861 5.90479 14.9883 5.77484 15.1427 5.6875" stroke="#313233" stroke-linecap="round" stroke-linejoin="round"/>
<path d="M3.57129 4.50475C3.85736 3.9769 4.28336 3.54202 4.80045 3.25" stroke="#313233" stroke-linecap="round" stroke-linejoin="round"/>
<path d="M10.4185 6.0625C10.4185 8.59212 8.41243 10.625 5.95925 10.625C3.50608 10.625 1.5 8.59212 1.5 6.0625C1.5 3.53288 3.50608 1.5 5.95925 1.5C8.41243 1.5 10.4185 3.53288 10.4185 6.0625ZM17.497 8.67068C17.0462 9.13089 16.4369 9.3875 15.8039 9.3875C15.1709 9.3875 14.5617 9.13089 14.1108 8.67068C13.6597 8.21012 13.4044 7.58331 13.4044 6.92762C13.4044 6.27194 13.6597 5.64513 14.1108 5.18457C14.5617 4.72436 15.1709 4.46775 15.8039 4.46775C16.4369 4.46775 17.0462 4.72436 17.497 5.18457C17.9482 5.64513 18.2034 6.27194 18.2034 6.92762C18.2034 7.58331 17.9482 8.21012 17.497 8.67068ZM16.2961 15.25C16.2961 17.0547 14.8657 18.5 13.1226 18.5C11.3795 18.5 9.9491 17.0547 9.9491 15.25C9.9491 13.4453 11.3795 12 13.1226 12C14.8657 12 16.2961 13.4453 16.2961 15.25Z" fill="white" stroke="#525355"/>
<path d="M8.71396 6.0625C8.71396 6.70897 8.46239 7.32895 8.01459 7.78607C7.5668 8.24319 6.95945 8.5 6.32617 8.5" stroke="#525355" stroke-linecap="round" stroke-linejoin="round"/>
<path d="M15.326 15.25C15.326 15.7473 15.1325 16.2242 14.788 16.5758C14.4436 16.9275 13.9764 17.125 13.4893 17.125" stroke="#CCD0D5" stroke-linecap="round" stroke-linejoin="round"/>
<path d="M17.3462 7.1875C17.3462 7.48587 17.2301 7.77202 17.0234 7.983C16.8167 8.19397 16.5364 8.3125 16.2441 8.3125" stroke="#CCD0D5" stroke-linecap="round" stroke-linejoin="round"/>
<path d="M11.6523 14.1591C11.8311 13.8292 12.0973 13.5575 12.4205 13.375" stroke="#EEEFF1" stroke-linecap="round" stroke-linejoin="round"/>
<path d="M14.7754 6.0625C14.861 5.90479 14.9883 5.77484 15.1427 5.6875" stroke="#EEEFF1" stroke-linecap="round" stroke-linejoin="round"/>
<path d="M3.57129 4.50475C3.85736 3.9769 4.28336 3.54202 4.80045 3.25" stroke="#EEEFF1" stroke-linecap="round" stroke-linejoin="round"/>
<path d="M6.32644 11.125C9.06542 11.125 11.2857 8.8585 11.2857 6.0625C11.2857 3.2665 9.06542 1 6.32644 1C3.58746 1 1.36719 3.2665 1.36719 6.0625C1.36719 8.8585 3.58746 11.125 6.32644 11.125ZM16.0613 10C16.8407 10 17.5882 9.68393 18.1393 9.12132C18.6905 8.55871 19.0001 7.79565 19.0001 7C19.0001 6.20435 18.6905 5.44129 18.1393 4.87868C17.5882 4.31607 16.8407 4 16.0613 4C15.2818 4 14.5343 4.31607 13.9832 4.87868C13.4321 5.44129 13.1225 6.20435 13.1225 7C13.1225 7.79565 13.4321 8.55871 13.9832 9.12132C14.5343 9.68393 15.2818 10 16.0613 10ZM13.4898 19C15.5187 19 17.1633 17.3211 17.1633 15.25C17.1633 13.1789 15.5187 11.5 13.4898 11.5C11.4609 11.5 9.81629 13.1789 9.81629 15.25C9.81629 17.3211 11.4609 19 13.4898 19Z" stroke="#313233" stroke-linecap="round" stroke-linejoin="round"/>
<path d="M13.4899 19C15.5188 19 17.1634 17.3211 17.1634 15.25C17.1634 13.1789 15.5188 11.5 13.4899 11.5C11.461 11.5 9.81641 13.1789 9.81641 15.25C9.81641 17.3211 11.461 19 13.4899 19Z" stroke="#313233" stroke-linecap="round" stroke-linejoin="round"/>
</g>
<defs>
<clipPath id="clip0_1519_31082">
<rect width="20" height="20" fill="white"/>
</clipPath>
</defs>
</svg>
