<svg width="20" height="20" viewBox="0 0 20 20" fill="none" xmlns="http://www.w3.org/2000/svg">
<path d="M18.7057 8.90417V8.87498L18.6777 8.86671C17.927 8.64473 17.2437 8.23844 16.6901 7.68486C16.1366 7.13129 15.7303 6.44801 15.5083 5.69726L15.5 5.66927H15.4708H4.52917H4.49998L4.49171 5.69726C4.26973 6.44801 3.86344 7.13129 3.30986 7.68486C2.75629 8.23844 2.07301 8.64473 1.32226 8.86671L1.29427 8.87498V8.90417V11.8458V11.875L1.32226 11.8833C2.07301 12.1053 2.75629 12.5116 3.30986 13.0651C3.86344 13.6187 4.26973 14.302 4.49171 15.0527L4.49998 15.0807H4.52917H15.4708H15.5L15.5083 15.0527C15.7303 14.302 16.1366 13.6187 16.6901 13.0651C17.2437 12.5116 17.927 12.1053 18.6777 11.8833L18.7057 11.875V11.8458V8.90417ZM13.2943 10.375C13.2943 11.0265 13.1011 11.6635 12.7391 12.2052C12.3771 12.7469 11.8626 13.1692 11.2607 13.4185C10.6587 13.6678 9.99635 13.7331 9.35732 13.606C8.71829 13.4789 8.13131 13.1651 7.6706 12.7044C7.20989 12.2437 6.89614 11.6567 6.76903 11.0177C6.64192 10.3787 6.70716 9.71629 6.95649 9.11434C7.20583 8.51239 7.62806 7.99789 8.1698 7.63591C8.71154 7.27394 9.34846 7.08073 10 7.08073C10.8737 7.08073 11.7116 7.4278 12.3294 8.0456C12.9472 8.66339 13.2943 9.50131 13.2943 10.375ZM19.9609 5.04167V15.7083C19.9609 15.8748 19.8948 16.0344 19.7771 16.1521C19.6594 16.2698 19.4998 16.3359 19.3333 16.3359H0.666667C0.500216 16.3359 0.340582 16.2698 0.222883 16.1521C0.105185 16.0344 0.0390625 15.8748 0.0390625 15.7083V5.04167C0.0390625 4.87522 0.105185 4.71558 0.222883 4.59788C0.340582 4.48019 0.500216 4.41406 0.666667 4.41406H19.3333C19.4998 4.41406 19.6594 4.48018 19.7771 4.59788C19.8948 4.71558 19.9609 4.87522 19.9609 5.04167Z" fill="#008080" stroke="#008080" stroke-width="0.078125"/>
</svg>
