<svg width="20" height="20" viewBox="0 0 20 20" fill="none" xmlns="http://www.w3.org/2000/svg">
<g clip-path="url(#clip0_2163_9668)">
<path d="M1.00691 8.80028L0.977887 8.808V8.83803V12.0889V12.1189L1.00691 12.1266C1.78978 12.3349 2.50375 12.7463 3.07658 13.3191C3.6494 13.8919 4.06076 14.6059 4.26903 15.3888L4.27675 15.4178H4.30678H15.6932H15.7232L15.731 15.3888C15.9392 14.6059 16.3506 13.8919 16.9234 13.3191C17.4963 12.7463 18.2102 12.3349 18.9931 12.1266L19.0221 12.1189V12.0889V8.83803V8.808L18.9931 8.80028C18.2102 8.59201 17.4963 8.18065 16.9234 7.60783C16.3506 7.035 15.9392 6.32103 15.731 5.53816L15.7232 5.50914H15.6932H4.30678H4.27675L4.26903 5.53816C4.06076 6.32103 3.6494 7.035 3.07658 7.60783C2.50375 8.18065 1.78978 8.59201 1.00691 8.80028ZM18.9702 7.81304L19.0221 7.83119V7.77617V5.5482V5.50914H18.9831H16.7551H16.7001L16.7182 5.56108C16.9001 6.08163 17.197 6.55446 17.5869 6.94436C17.9768 7.33426 18.4496 7.63119 18.9702 7.81304ZM3.28179 5.56108L3.29994 5.50914H3.24492H1.01695H0.977887V5.5482V7.77617V7.83119L1.02983 7.81304C1.55038 7.63119 2.02321 7.33426 2.41311 6.94436C2.80301 6.55446 3.09994 6.08163 3.28179 5.56108ZM1.02983 13.1139L0.977887 13.0957V13.1507V15.3787V15.4178H1.01695H3.24492H3.29994L3.28179 15.3658C3.09994 14.8453 2.80301 14.3724 2.41311 13.9825C2.02321 13.5926 1.55038 13.2957 1.02983 13.1139ZM16.7182 15.3658L16.7001 15.4178H16.7551H18.9831H19.0221V15.3787V13.1507V13.0957L18.9702 13.1139C18.4496 13.2957 17.9768 13.5926 17.5869 13.9825C17.197 14.3724 16.9001 14.8453 16.7182 15.3658ZM11.7674 13.1086C11.2443 13.4582 10.6292 13.6447 10 13.6447C9.15627 13.6447 8.3471 13.3096 7.7505 12.713C7.15389 12.1164 6.81872 11.3072 6.81872 10.4635C6.81872 9.83426 7.0053 9.21919 7.35487 8.69603C7.70443 8.17287 8.20128 7.76512 8.78258 7.52434C9.36388 7.28355 10.0035 7.22055 10.6206 7.3433C11.2377 7.46605 11.8046 7.76904 12.2495 8.21395C12.6944 8.65886 12.9974 9.22571 13.1201 9.84282C13.2429 10.4599 13.1799 11.0996 12.9391 11.6809C12.6983 12.2622 12.2906 12.759 11.7674 13.1086ZM11.2458 8.59892C10.8771 8.35252 10.4435 8.221 10 8.221C9.40526 8.221 8.83489 8.45726 8.41435 8.8778C7.99381 9.29834 7.75755 9.86872 7.75755 10.4635C7.75755 10.907 7.88907 11.3405 8.13547 11.7093C8.38187 12.0781 8.7321 12.3655 9.14185 12.5352C9.55161 12.7049 10.0025 12.7493 10.4375 12.6628C10.8725 12.5763 11.272 12.3627 11.5857 12.0491C11.8993 11.7355 12.1128 11.3359 12.1994 10.9009C12.2859 10.4659 12.2415 10.0151 12.0718 9.6053C11.902 9.19555 11.6146 8.84533 11.2458 8.59892ZM0.508475 4.57031H19.4915C19.616 4.57031 19.7354 4.61977 19.8235 4.7078C19.9115 4.79583 19.9609 4.91523 19.9609 5.03972V15.8872C19.9609 16.0117 19.9115 16.1311 19.8235 16.2191C19.7354 16.3071 19.616 16.3566 19.4915 16.3566H0.508475C0.383979 16.3566 0.264582 16.3071 0.17655 16.2191C0.0885183 16.1311 0.0390625 16.0117 0.0390625 15.8872V5.03972C0.0390625 4.91523 0.0885183 4.79583 0.17655 4.7078C0.264582 4.61977 0.383979 4.57031 0.508475 4.57031Z" fill="#525355" stroke="#525355" stroke-width="0.078125"/>
</g>
<defs>
<clipPath id="clip0_2163_9668">
<rect width="20" height="20" fill="white"/>
</clipPath>
</defs>
</svg>
