<svg width="342" height="346" viewBox="0 0 342 346" fill="none" xmlns="http://www.w3.org/2000/svg">
<path d="M266.629 307.356C266.629 307.356 265.658 302.138 262.182 298.663C258.706 295.187 254.475 294.809 251.354 293.83C249.126 293.004 247.045 291.828 245.188 290.347C245.188 290.347 248.857 298.824 251.176 301.753C253.496 304.682 256.571 306.585 258.521 306.971C260.471 307.356 266.629 307.356 266.629 307.356Z" fill="#008080" stroke="#263238" stroke-width="0.844444" stroke-miterlimit="10"/>
<path d="M272.425 275.649C272.425 275.649 272.425 270.817 274.359 268.497C276.294 266.177 286.536 262.886 286.536 262.886C286.536 262.886 283.638 268.883 279.6 272.135C275.561 275.387 272.425 275.649 272.425 275.649Z" fill="#008080" stroke="#263238" stroke-width="0.844444" stroke-miterlimit="10"/>
<path d="M269.72 279.719C269.72 279.719 267.407 279.526 266.637 273.337C265.866 267.149 269.535 255.742 269.535 255.742C269.535 255.742 273.388 264.991 272.818 270.825C272.247 276.659 271.654 276.42 269.72 279.719Z" fill="#008080" stroke="#263238" stroke-width="0.844444" stroke-miterlimit="10"/>
<path d="M272.81 296.343C272.81 296.343 273.195 288.22 278.421 285.322C282.506 283.157 286.704 281.215 290.999 279.503C290.999 279.503 288.871 286.655 285.974 289.746C283.076 292.836 280.17 296.512 277.496 297.453C276.69 297.731 275.821 297.775 274.992 297.578C274.162 297.382 273.405 296.953 272.81 296.343Z" fill="#008080" stroke="#263238" stroke-width="0.844444" stroke-miterlimit="10"/>
<path d="M265.273 282.809C263.56 278.769 260.83 275.24 257.35 272.567C251.546 268.12 248.263 267.942 248.263 267.942C248.263 267.942 249.612 276.058 254.251 280.119C258.891 284.181 265.273 282.809 265.273 282.809Z" fill="#008080" stroke="#263238" stroke-width="0.844444" stroke-miterlimit="10"/>
<path d="M269.912 321.082V273.915" stroke="#263238" stroke-width="0.844444" stroke-miterlimit="10"/>
<path d="M270.105 310.262L260.055 301.175" stroke="#263238" stroke-width="0.844444" stroke-miterlimit="10"/>
<path d="M270.298 299.241L281.126 289.383" stroke="#263238" stroke-width="0.844444" stroke-miterlimit="10"/>
<path d="M269.912 286.478L257.35 277.399" stroke="#263238" stroke-width="0.844444" stroke-miterlimit="10"/>
<path d="M270.298 277.784L276.679 271.595" stroke="#263238" stroke-width="0.844444" stroke-miterlimit="10"/>
<path d="M253.381 325.537C253.381 325.537 267.115 319.055 269.982 318.863C272.849 318.67 286.767 325.745 286.767 325.745L253.381 325.537Z" fill="#263238" stroke="#263238" stroke-width="0.844444" stroke-miterlimit="10"/>
<path d="M64.9748 307.356C64.9748 307.356 64.0114 302.138 60.5278 298.663C57.0443 295.187 52.8208 294.809 49.738 293.83C47.5107 293.004 45.4294 291.828 43.5724 290.347C43.5724 290.347 47.2486 298.824 49.5684 301.753C51.8883 304.682 54.9634 306.585 56.9132 306.971C58.8631 307.356 64.9748 307.356 64.9748 307.356Z" fill="#008080" stroke="#263238" stroke-width="0.844444" stroke-miterlimit="10"/>
<path d="M70.7782 275.649C70.7782 275.649 70.7782 270.817 72.705 268.497C74.6317 266.177 84.8898 262.886 84.8898 262.886C84.8898 262.886 81.9842 268.883 77.9534 272.135C73.9227 275.387 70.7782 275.649 70.7782 275.649Z" fill="#008080" stroke="#263238" stroke-width="0.844444" stroke-miterlimit="10"/>
<path d="M68.0653 279.719C68.0653 279.719 65.7532 279.526 64.9825 273.337C64.2118 267.149 67.8803 255.742 67.8803 255.742C67.8803 255.742 71.7339 264.991 71.1712 270.825C70.6086 276.659 69.9998 276.42 68.0653 279.719Z" fill="#008080" stroke="#263238" stroke-width="0.844444" stroke-miterlimit="10"/>
<path d="M71.1636 296.343C71.1636 296.343 71.5489 288.22 76.7666 285.322C80.8487 283.157 85.0448 281.214 89.3367 279.503C89.3367 279.503 87.2096 286.655 84.304 289.746C81.3985 292.836 78.5084 296.512 75.8263 297.453C75.0236 297.727 74.1597 297.768 73.3346 297.571C72.5095 297.375 71.7568 296.949 71.1636 296.343Z" fill="#008080" stroke="#263238" stroke-width="0.844444" stroke-miterlimit="10"/>
<path d="M63.6415 282.809C61.9239 278.765 59.186 275.236 55.6956 272.567C49.8999 268.12 46.609 267.942 46.609 267.942C46.609 267.942 47.9654 276.058 52.6051 280.119C57.2447 284.181 63.6415 282.809 63.6415 282.809Z" fill="#008080" stroke="#263238" stroke-width="0.844444" stroke-miterlimit="10"/>
<path d="M68.2656 321.082V273.915" stroke="#263238" stroke-width="0.844444" stroke-miterlimit="10"/>
<path d="M68.4584 310.262L58.4008 301.175" stroke="#263238" stroke-width="0.844444" stroke-miterlimit="10"/>
<path d="M68.651 299.241L79.4717 289.383" stroke="#263238" stroke-width="0.844444" stroke-miterlimit="10"/>
<path d="M68.2657 286.478L55.6956 277.399" stroke="#263238" stroke-width="0.844444" stroke-miterlimit="10"/>
<path d="M68.651 277.784L75.0247 271.595" stroke="#263238" stroke-width="0.844444" stroke-miterlimit="10"/>
<path d="M51.7264 325.537C51.7264 325.537 65.4681 319.055 68.3274 318.863C71.1867 318.67 85.121 325.745 85.121 325.745L51.7264 325.537Z" fill="#263238" stroke="#263238" stroke-width="0.844444" stroke-miterlimit="10"/>
<path d="M323.869 325.707H10.3397" stroke="#263238" stroke-width="0.844444" stroke-miterlimit="10"/>
<path d="M110.122 38.3503C110.122 38.3503 101.406 28.123 92.7355 28.123C84.0651 28.123 80.9745 33.2328 77.9071 34.7665C74.8397 36.3002 67.6799 32.2155 62.0538 31.6837C56.4277 31.1519 52.8516 37.8493 50.8015 38.8435C48.7515 39.8377 44.1581 36.8011 39.0406 38.8435C33.9232 40.8859 33.9309 43.4677 31.8808 43.4677C29.8307 43.4677 25.2374 40.9167 21.6536 40.9167C18.0698 40.9167 12.4514 46.0265 12.4514 46.0265H134.153C134.153 46.0265 131.602 40.9167 124.442 39.383C117.282 37.8493 117.282 40.909 110.122 38.3503Z" stroke="#263238" stroke-width="0.844444" stroke-miterlimit="10"/>
<path d="M318.243 111.983C318.243 111.983 312.779 105.555 307.314 105.555C301.85 105.555 299.923 108.769 297.997 109.733C296.07 110.696 291.569 108.13 288.031 107.806C284.494 107.482 282.243 111.659 280.956 112.307C279.669 112.954 276.779 111.02 273.565 112.307C270.351 113.594 270.351 115.197 269.064 115.197C267.777 115.197 264.887 113.594 262.637 113.594C260.386 113.594 256.857 116.808 256.857 116.808H333.387C332.726 115.717 331.839 114.78 330.786 114.06C329.734 113.34 328.539 112.852 327.283 112.63C322.744 111.667 322.744 113.594 318.243 111.983Z" stroke="#263238" stroke-width="0.844444" stroke-miterlimit="10"/>
<path d="M82.1383 113.74C82.1383 113.74 78.6624 109.656 75.202 109.656C71.7415 109.656 70.5007 111.698 69.2753 112.314C68.0499 112.931 65.1906 111.289 62.9478 111.089C60.7051 110.889 59.2716 113.54 58.4546 113.948C57.6377 114.357 55.7957 113.131 53.7533 113.948C51.711 114.765 51.711 115.783 50.894 115.783C50.0771 115.783 48.2428 114.765 46.8093 114.765C45.3758 114.765 43.1331 116.808 43.1331 116.808H91.7412C91.3236 116.117 90.7642 115.523 90.0999 115.065C89.4356 114.606 88.6816 114.294 87.8877 114.149C84.9745 113.54 84.9745 114.765 82.1383 113.74Z" stroke="#263238" stroke-width="0.844444" stroke-miterlimit="10"/>
<path d="M272.733 70.0723C286.294 70.0723 297.287 59.0788 297.287 45.5177C297.287 31.9566 286.294 20.9631 272.733 20.9631C259.172 20.9631 248.178 31.9566 248.178 45.5177C248.178 59.0788 259.172 70.0723 272.733 70.0723Z" stroke="#263238" stroke-width="0.844444" stroke-miterlimit="10"/>
<path d="M272.733 78.7502V90.5112" stroke="#263238" stroke-width="0.844444" stroke-miterlimit="10"/>
<path d="M272.733 0V11.7609" stroke="#263238" stroke-width="0.844444" stroke-miterlimit="10"/>
<path d="M306.228 45.2556H317.989" stroke="#263238" stroke-width="0.844444" stroke-miterlimit="10"/>
<path d="M227.477 45.2556H239.238" stroke="#263238" stroke-width="0.844444" stroke-miterlimit="10"/>
<path d="M296.417 21.5719L304.733 13.2483" stroke="#263238" stroke-width="0.844444" stroke-miterlimit="10"/>
<path d="M240.733 77.2551L249.049 68.9392" stroke="#263238" stroke-width="0.844444" stroke-miterlimit="10"/>
<path d="M249.049 21.5719L240.733 13.2483" stroke="#263238" stroke-width="0.844444" stroke-miterlimit="10"/>
<path d="M304.733 77.2551L296.417 68.9392" stroke="#263238" stroke-width="0.844444" stroke-miterlimit="10"/>
<path d="M220.14 143.089C220.14 143.089 223.3 140.453 223.562 132.815C223.824 125.177 215.924 119.914 215.924 119.914C215.924 119.914 216.98 114.65 216.187 110.442C215.393 106.234 206.992 102.773 206.992 102.773C207.426 99.7828 207.245 96.7354 206.46 93.8175C205.142 89.6095 199.092 88.2916 199.092 88.2916C186.908 71.3362 172.781 75.8216 170.26 76.8081C167.74 75.8216 153.613 71.3285 141.428 88.2916C141.428 88.2916 135.371 89.6095 134.053 93.8175C133.273 96.7363 133.094 99.7833 133.529 102.773C133.529 102.773 125.105 106.195 124.28 110.411C123.456 114.627 124.542 119.883 124.542 119.883C124.542 119.883 116.65 125.154 116.912 132.784C117.174 140.414 120.35 143.089 120.35 143.089C120.35 143.089 115.61 145.986 115.61 149.67C115.61 153.354 120.088 159.15 124.034 160.198C127.764 161.192 165.968 160.314 170.276 160.198C174.545 160.298 212.757 161.177 216.479 160.198C220.433 159.15 224.911 153.354 224.911 149.67C224.911 145.986 220.14 143.089 220.14 143.089Z" fill="#263238" stroke="#263238" stroke-width="0.844444" stroke-miterlimit="10"/>
<path d="M153.043 136.923C153.043 136.923 127.718 150.449 123.656 155.674C119.594 160.899 132.55 216.952 132.904 219.072C133.259 221.191 134.068 227.773 158.808 229.708C183.547 231.642 195.539 226.424 197.281 224.49C198.315 223.334 199.411 222.236 200.564 221.199C200.564 221.199 220.279 160.113 217.767 155.689C215.254 151.265 198.437 141.185 193.22 138.672C188.002 136.16 185.682 135.967 185.682 135.967L153.043 136.923Z" fill="#008080"/>
<path opacity="0.3" d="M153.043 136.923C153.043 136.923 127.718 150.449 123.656 155.674C119.594 160.899 132.55 216.952 132.904 219.072C133.259 221.191 134.068 227.773 158.808 229.708C183.547 231.642 195.539 226.424 197.281 224.49C198.315 223.334 199.411 222.236 200.564 221.199C200.564 221.199 220.279 160.113 217.767 155.689C215.254 151.265 198.437 141.185 193.22 138.672C188.002 136.16 185.682 135.967 185.682 135.967L153.043 136.923Z" fill="white"/>
<path opacity="0.15" d="M214.522 171.604V170.341H215.524L216.04 168.229H214.499V161.485H217.45C217.589 160.714 217.697 160.013 217.774 159.373H214.499V154.749H217.042C214.221 151.397 206.059 146.04 199.74 142.318V143.366H195.115V142.102H199.385C198.029 141.331 196.765 140.561 195.663 139.998H195.115V139.697C194.345 139.304 193.721 138.965 193.196 138.711L193.004 138.626V140.006H186.26V136.152C185.859 136.075 185.659 136.052 185.659 136.052L184.118 136.098V140.006H182.854V136.098L171.47 136.437V140.006H166.846V136.568L164.742 136.63V140.006H157.991V136.83L155.887 136.892V139.975H154.623V136.892L153.043 136.923C153.043 136.923 148.688 139.235 143.301 142.318V143.289H141.621C134.338 147.528 125.86 152.815 123.656 155.62C121.675 158.163 123.748 172.838 126.438 187.435V182.895H127.702V187.519H126.454L126.847 189.624H127.702V194.078C128.966 200.537 130.245 206.594 131.224 211.126H136.558V215.75H132.234C132.427 216.613 132.581 217.292 132.696 217.862H136.55V224.243C138.212 225.307 140.012 226.139 141.899 226.717H143.293V227.141C148.378 228.48 153.582 229.311 158.831 229.623C172.703 230.702 182.515 229.546 188.811 227.981H186.306V226.717H192.988C194.464 226.244 195.852 225.53 197.096 224.606H195.162V217.862H199.786V221.847L200.557 221.114C200.557 221.114 206.268 203.427 211.154 186.387V182.864H212.148C213.273 178.88 214.321 175.003 215.231 171.481L214.522 171.604ZM127.664 171.604H126.4V170.341H127.664V171.604ZM127.664 168.229H126.4V161.485H127.664V168.229ZM127.664 159.373H126.4V154.749H127.664V159.373ZM136.519 199.851H129.775V198.579H136.519V199.851ZM136.519 196.483H129.775V189.716H136.519V196.483ZM136.519 187.627H129.775V183.003H136.519V187.627ZM136.519 171.604H129.775V170.341H136.519V171.604ZM136.519 168.229H129.775V161.485H136.519V168.229ZM136.519 159.373H129.775V154.749H136.519V159.373ZM143.263 224.729H138.638V217.985H143.263V224.729ZM143.263 215.874H138.638V211.249H143.263V215.874ZM143.263 199.851H138.638V198.579H143.263V199.851ZM143.263 196.483H138.638V189.716H143.263V196.483ZM143.263 187.627H138.638V183.003H143.263V187.627ZM143.263 171.604H138.638V170.341H143.263V171.604ZM143.263 168.229H138.638V161.485H143.263V168.229ZM143.263 159.373H138.638V154.749H143.263V159.373ZM155.918 228.105H154.654V226.841H155.918V228.105ZM155.918 224.729H154.654V217.985H155.918V224.729ZM155.918 215.874H154.654V211.249H155.918V215.874ZM155.918 199.851H154.654V198.579H155.918V199.851ZM155.918 196.483H154.654V189.716H155.918V196.483ZM155.918 187.627H154.654V183.003H155.918V187.627ZM155.918 171.604H154.654V170.341H155.918V171.604ZM155.918 168.229H154.654V161.485H155.918V168.229ZM155.918 159.373H154.654V154.749H155.918V159.373ZM155.918 143.351H154.654V142.087H155.918V143.351ZM164.773 228.128H158.022V226.864H164.773V228.128ZM164.773 224.752H158.022V218.008H164.773V224.752ZM164.773 215.897H158.022V211.273H164.773V215.897ZM164.773 199.874H158.022V198.579H164.773V199.874ZM164.773 196.506H158.022V189.716H164.773V196.506ZM164.773 187.651H158.022V183.026H164.773V187.651ZM164.773 171.628H158.022V170.364H164.773V171.628ZM164.773 168.252H158.022V161.508H164.773V168.252ZM164.773 159.397H158.022V154.772H164.773V159.397ZM164.773 143.374H158.022V142.11H164.773V143.374ZM171.517 228.151H166.892V226.887H171.517V228.151ZM171.517 224.775H166.892V218.032H171.517V224.775ZM171.517 215.92H166.892V211.296H171.517V215.92ZM171.517 199.897H166.892V198.579H171.517V199.897ZM171.517 196.529H166.892V189.716H171.517V196.529ZM171.517 187.674H166.892V183.049H171.517V187.674ZM171.54 171.604H166.916V170.341H171.54V171.604ZM171.54 168.229H166.916V161.485H171.54V168.229ZM171.54 159.373H166.916V154.749H171.54V159.373ZM171.54 143.351H166.916V142.087H171.54V143.351ZM184.187 228.128H182.923V226.864H184.187V228.128ZM184.187 224.752H182.923V218.008H184.187V224.752ZM184.187 215.897H182.923V211.273H184.187V215.897ZM184.187 199.874H182.923V198.579H184.187V199.874ZM184.187 196.506H182.923V189.716H184.187V196.506ZM184.187 187.651H182.923V183.026H184.187V187.651ZM184.187 171.628H182.923V170.364H184.187V171.628ZM184.187 168.252H182.923V161.508H184.187V168.252ZM184.187 159.397H182.923V154.772H184.187V159.397ZM184.187 143.374H182.923V142.11H184.187V143.374ZM193.042 224.752H186.299V218.008H193.042V224.752ZM193.042 215.897H186.299V211.273H193.042V215.897ZM193.042 199.874H186.299V198.579H193.042V199.874ZM193.042 196.506H186.299V189.716H193.042V196.506ZM193.042 187.651H186.299V183.026H193.042V187.651ZM193.042 171.628H186.299V170.364H193.042V171.628ZM193.042 168.252H186.299V161.508H193.042V168.252ZM193.042 159.397H186.299V154.772H193.042V159.397ZM193.042 143.374H186.299V142.11H193.042V143.374ZM199.786 215.897H195.162V211.273H199.786V215.897ZM199.786 199.874H195.162V198.579H199.786V199.874ZM199.786 196.506H195.162V189.716H199.786V196.506ZM199.786 187.651H195.162V183.026H199.786V187.651ZM199.786 171.628H195.162V170.364H199.786V171.628ZM199.786 168.252H195.162V161.508H199.786V168.252ZM199.786 159.397H195.162V154.772H199.786V159.397ZM212.387 171.604H211.154V170.341H212.387V171.604ZM212.387 168.229H211.154V161.485H212.387V168.229ZM212.387 159.373H211.154V154.749H212.387V159.373Z" fill="black"/>
<path d="M153.043 136.923C153.043 136.923 127.718 150.449 123.656 155.674C119.594 160.899 132.55 216.952 132.904 219.072C133.259 221.191 134.068 227.773 158.808 229.708C183.547 231.642 195.539 226.424 197.281 224.49C198.315 223.334 199.411 222.236 200.564 221.199C200.564 221.199 220.279 160.113 217.767 155.689C215.254 151.265 198.437 141.185 193.22 138.672C188.002 136.16 185.682 135.967 185.682 135.967L153.043 136.923Z" stroke="#263238" stroke-width="0.844444" stroke-miterlimit="10"/>
<path d="M122.153 286.817C122.153 286.817 117.868 287.279 115.594 289.221C113.321 291.163 111.664 297.961 111.664 297.961L102.685 317.645C101.067 321.213 102.038 324.45 103.009 324.774C103.98 325.097 108.519 325.097 108.519 325.097H125.429C125.915 324.148 126.069 323.062 125.868 322.015C125.282 319.98 123.456 317.737 124.396 316.049C126.014 313.136 132.388 302.701 129.791 294.924C127.194 287.148 122.153 286.817 122.153 286.817Z" fill="#263238" stroke="#263238" stroke-width="0.844444" stroke-miterlimit="10"/>
<path d="M213.196 286.817C213.196 286.817 217.481 287.279 219.747 289.221C222.013 291.163 223.685 298 223.685 298C223.685 298 231.038 314.123 232.656 317.683C234.275 321.244 233.311 324.489 232.333 324.812C231.354 325.136 226.83 325.136 226.83 325.136H209.921C209.435 324.186 209.28 323.101 209.481 322.053C210.067 320.018 211.886 317.776 210.953 316.088C209.327 313.175 202.961 302.739 205.559 294.963C208.156 287.187 213.196 286.817 213.196 286.817Z" fill="#263238" stroke="#263238" stroke-width="0.844444" stroke-miterlimit="10"/>
<path d="M129.151 325.699H207.138C207.77 324.496 216.017 311.556 216.526 295.996C216.799 284.722 215.921 273.45 213.905 262.354L120.334 270.902C120.334 270.902 118.207 282.308 119.756 297.969C121.221 312.828 127.039 323.795 129.151 325.699Z" fill="#A1A1A1" stroke="#263238" stroke-width="0.844444" stroke-miterlimit="10"/>
<path d="M139.278 144.483L146.623 218.517L134.292 214.263C134.292 214.263 122.693 255.441 120.566 269.168C118.438 282.894 122.878 299.125 129.267 308.211C135.656 317.298 155.17 323.872 168.311 323.101C181.451 322.331 193.443 318.654 200.595 308.797C207.747 298.94 213.551 285.214 214.129 265.299C214.707 245.384 203.493 215.812 203.493 215.812L190.391 218.71L204.988 145.539L200.364 142.456L195.416 175.034C195.416 175.034 188.264 177.161 171.447 177.161C154.631 177.161 146.507 172.537 146.507 172.537L143.425 142.379L139.278 144.483Z" fill="white" stroke="#263238" stroke-width="0.844444" stroke-miterlimit="10"/>
<path d="M142.546 225.947C142.546 225.947 156.472 232.428 166.522 234.378" stroke="#263238" stroke-width="0.844444" stroke-miterlimit="10"/>
<path d="M193.412 232.752C182.895 238.756 170.439 240.387 158.731 237.291" stroke="#263238" stroke-width="0.844444" stroke-miterlimit="10"/>
<path d="M169.112 234.378C171.986 234.69 174.891 234.241 177.536 233.076" stroke="#263238" stroke-width="0.844444" stroke-miterlimit="10"/>
<path d="M166.145 283.664C166.145 283.664 165.181 278.447 161.706 274.963C158.23 271.48 153.999 271.11 150.877 270.131C148.65 269.308 146.569 268.134 144.712 266.655C144.712 266.655 148.388 275.133 150.708 278.054C153.027 280.975 156.103 282.894 158.052 283.279C160.002 283.664 166.145 283.664 166.145 283.664Z" fill="#008080" stroke="#263238" stroke-width="0.844444" stroke-miterlimit="10"/>
<path d="M171.948 251.958C171.948 251.958 171.948 247.125 173.883 244.806C175.817 242.486 186.06 239.203 186.06 239.203C186.06 239.203 183.162 245.199 179.123 248.451C175.085 251.703 171.948 251.958 171.948 251.958Z" fill="#008080" stroke="#263238" stroke-width="0.844444" stroke-miterlimit="10"/>
<path d="M169.228 256.019C169.228 256.019 166.915 255.827 166.145 249.638C165.374 243.449 169.05 232.051 169.05 232.051C169.05 232.051 172.904 241.299 172.334 247.125C171.763 252.952 171.177 252.736 169.228 256.019Z" fill="#008080" stroke="#263238" stroke-width="0.844444" stroke-miterlimit="10"/>
<path d="M172.31 272.643C172.31 272.643 172.696 264.528 177.913 261.63C181.996 259.47 186.192 257.533 190.484 255.827C190.484 255.827 188.356 262.979 185.459 266.069C182.561 269.16 179.655 272.836 176.981 273.776C176.175 274.047 175.309 274.084 174.482 273.884C173.656 273.684 172.903 273.253 172.31 272.643Z" fill="#008080" stroke="#263238" stroke-width="0.844444" stroke-miterlimit="10"/>
<path d="M164.796 259.11C163.09 255.072 160.368 251.544 156.896 248.867C151.093 244.42 147.81 244.243 147.81 244.243C147.81 244.243 149.159 252.366 153.798 256.42C158.438 260.474 164.796 259.11 164.796 259.11Z" fill="#008080" stroke="#263238" stroke-width="0.844444" stroke-miterlimit="10"/>
<path d="M169.436 297.391V250.224" stroke="#263238" stroke-width="0.844444" stroke-miterlimit="10"/>
<path d="M169.628 286.562L159.578 277.476" stroke="#263238" stroke-width="0.844444" stroke-miterlimit="10"/>
<path d="M169.821 275.541L180.649 265.684" stroke="#263238" stroke-width="0.844444" stroke-miterlimit="10"/>
<path d="M169.436 262.786L156.873 253.7" stroke="#263238" stroke-width="0.844444" stroke-miterlimit="10"/>
<path d="M169.821 254.085L176.202 247.904" stroke="#263238" stroke-width="0.844444" stroke-miterlimit="10"/>
<path d="M214.483 326.762C214.483 326.762 190.869 310.809 188.225 307.633C185.582 304.458 181.135 300.828 177.166 299.24C173.197 297.653 170.284 295.533 162.607 299.24C154.931 302.947 154.276 308.003 152.588 309.182L127.14 327.286L119.433 330.199C119.433 330.199 131.078 329.668 133.991 329.136C136.904 328.604 143.779 328.612 143.779 328.612C143.779 328.612 136.635 331.787 140.604 332.049C144.573 332.311 151.987 329.406 153.837 329.136C155.686 328.866 157.012 328.874 163.37 330.723C169.729 332.573 170.777 333.375 171.571 332.843C172.54 331.953 173.427 330.978 174.222 329.93C174.222 329.93 169.721 330.7 183.216 332.311C196.711 333.922 196.202 329.937 196.202 329.937C196.202 329.937 200.965 329.937 205.451 329.675C209.936 329.413 212.071 331.001 216.572 331.001C221.073 331.001 214.483 326.762 214.483 326.762Z" fill="#263238" stroke="#263238" stroke-width="0.844444" stroke-miterlimit="10"/>
<path d="M177.166 161.685L174.461 217.554L187.408 216.197L189.721 149.316C189.721 149.316 185.089 160.529 177.166 161.685Z" fill="#A1A1A1" stroke="#263238" stroke-width="0.844444" stroke-miterlimit="10"/>
<path d="M153.39 133.069C153.39 133.069 150.684 135.582 150.877 136.923C151.07 138.264 149.336 139.05 150.299 142.526C151.263 146.002 160.542 165.917 163.054 167.658C165.567 169.4 172.526 171.512 176.01 169.007C179.493 166.502 189.343 153.74 190.507 147.165C191.67 140.591 192.248 136.923 188.765 132.669L185.289 128.445C185.289 128.445 184.125 135.019 174.268 138.302C164.411 141.586 153.39 133.069 153.39 133.069Z" fill="#A1A1A1" stroke="#263238" stroke-width="0.844444" stroke-miterlimit="10"/>
<path d="M158.438 139.235C158.438 139.235 169.266 158.757 172.164 157.208C175.062 155.659 180.48 137.493 180.48 137.493L158.438 139.235Z" fill="white" stroke="#263238" stroke-width="0.844444" stroke-miterlimit="10"/>
<path d="M172.141 157.238C172.141 157.238 166.923 159.751 164.218 159.751C161.513 159.751 156.511 152.044 154.16 148.152" stroke="#263238" stroke-width="0.844444" stroke-miterlimit="10"/>
<path d="M187.023 130.757C187.023 130.757 188.958 137.694 187.408 144.484C185.859 151.273 183.355 158.21 178.16 160.136" stroke="#263238" stroke-width="0.844444" stroke-miterlimit="10"/>
<path d="M192.988 109.301C192.988 109.301 193.243 103.906 196.441 105.794C199.64 107.682 195.956 116.222 194.314 118.125C193.214 119.375 191.911 120.43 190.46 121.247L192.11 110.811L192.988 109.301Z" fill="white" stroke="#263238" stroke-width="0.844444" stroke-miterlimit="10"/>
<path d="M144.712 107.151C144.712 107.151 147.201 124.592 148.943 128.63C150.685 132.669 158.191 142.179 163.84 144.815C165.777 145.794 167.949 146.213 170.111 146.025C172.273 145.838 174.34 145.05 176.079 143.751C178.283 142.21 184.418 135.197 187.786 129.378C191.154 123.559 192.41 105.602 192.41 105.602L191.069 92.8772C191.069 92.8772 163.964 76.6925 158.314 77.4632C152.665 78.2339 142.199 99.2047 142.854 101.709C143.36 103.56 143.981 105.377 144.712 107.151Z" fill="white" stroke="#263238" stroke-width="0.844444" stroke-miterlimit="10"/>
<path d="M165.975 128.229C165.975 128.229 168.565 130.719 173.127 128.368" stroke="#263238" stroke-width="0.844444" stroke-miterlimit="10"/>
<path d="M163.771 133.84C163.771 133.84 168.812 137.855 175.416 133.169" stroke="#263238" stroke-width="0.844444" stroke-miterlimit="10"/>
<path d="M152.488 110.38C152.488 110.38 157.112 107.251 161.844 108.954" stroke="#263238" stroke-width="0.844444" stroke-miterlimit="10"/>
<path d="M174.992 109.239C174.992 109.239 181.096 107.074 184.387 111.097" stroke="#263238" stroke-width="0.844444" stroke-miterlimit="10"/>
<path d="M159.37 116.407C159.309 117.632 158.661 118.626 157.906 118.634C157.151 118.642 156.604 117.648 156.657 116.422C156.711 115.197 157.367 114.203 158.122 114.195C158.877 114.187 159.424 115.181 159.37 116.407Z" fill="#263238"/>
<path d="M179.886 116.252C179.832 117.478 179.177 118.472 178.43 118.48C177.682 118.488 177.12 117.493 177.181 116.268C177.243 115.042 177.89 114.048 178.638 114.041C179.385 114.033 179.948 115.019 179.886 116.252Z" fill="#263238"/>
<path d="M161.59 85.6018C161.59 85.6018 160.303 88.3147 158.507 92.7616C156.711 97.2086 152.28 101.694 149.721 102.673C148.067 103.293 146.359 103.76 144.619 104.068C144.619 104.068 146.222 107.151 144.673 107.151C143.124 107.151 141.76 103.12 141.76 103.12C141.76 103.12 136.588 89.648 139.81 78.8119C140.731 75.6727 142.371 72.7914 144.6 70.3967C146.828 68.002 149.585 66.1598 152.65 65.0163C152.65 65.0163 157.644 57.6407 171.694 59.2746C185.744 60.9085 192.827 66.6425 197.744 81.4631C202.661 96.2837 195.308 104.453 194.291 105.424C193.274 106.395 193.944 108.715 192.95 109.278C191.956 109.84 190.746 106.781 190.746 106.781C186.259 105.38 182.001 103.332 178.106 100.7C172.488 96.6922 165.937 87.8599 164.472 85.9409C163.008 84.0218 161.59 85.6018 161.59 85.6018Z" fill="#263238" stroke="#263238" stroke-width="0.844444" stroke-miterlimit="10"/>
<path d="M144.712 107.15C144.712 107.15 142.531 104.068 140.858 106.796C139.186 109.524 139.941 113.948 141.552 116.638C143.163 119.328 147.008 121.092 147.008 121.092L144.712 107.15Z" fill="white" stroke="#263238" stroke-width="0.844444" stroke-miterlimit="10"/>
<path d="M137.729 146.418C137.729 146.418 113.182 160.337 111.826 166.711C110.469 173.084 116.858 211.558 116.858 211.558L116.658 241.33C116.658 241.33 123.594 237.654 129.421 237.654C135.247 237.654 139.278 237.846 139.278 237.846C139.278 237.846 135.602 213.107 135.602 212.336C135.602 211.565 135.802 170.387 135.802 170.387" fill="#008080"/>
<path opacity="0.3" d="M137.729 146.418C137.729 146.418 113.182 160.337 111.826 166.711C110.469 173.084 116.858 211.558 116.858 211.558L116.658 241.33C116.658 241.33 123.594 237.654 129.421 237.654C135.247 237.654 139.278 237.846 139.278 237.846C139.278 237.846 135.602 213.107 135.602 212.336C135.602 211.565 135.802 170.387 135.802 170.387" fill="white"/>
<path opacity="0.15" d="M136.519 219.018V224.714H129.775V217.97H136.365C136.257 217.199 136.157 216.498 136.072 215.858H129.775V211.234H135.61C135.61 209.284 135.61 204.976 135.664 199.851H129.775V198.579H135.671C135.671 197.885 135.671 197.184 135.671 196.475H129.768V189.716H135.702C135.702 189.015 135.702 188.306 135.702 187.612H129.76V182.988H135.725C135.725 177.893 135.771 173.601 135.779 171.604H129.76V170.341H135.787L135.956 168.229H129.791V161.485H136.534L137.744 146.433C137.744 146.433 121.991 155.366 115.032 162.202V168.229H111.679C111.679 168.838 111.679 169.547 111.679 170.341H115.04V171.604H111.718C111.864 174.687 112.25 178.68 112.758 182.988H115.07V187.612H113.367L113.645 189.716H115.07V196.467H114.508C114.608 197.176 114.716 197.885 114.816 198.571H114.993V199.774C115.995 206.51 116.835 211.558 116.835 211.558L116.635 241.33C116.635 241.33 123.571 237.654 129.398 237.654C135.224 237.654 139.255 237.846 139.255 237.846C139.255 237.846 137.629 226.586 136.519 219.018ZM129.775 154.718H136.519V159.343H129.775V154.718ZM127.664 228.089H126.4V226.825H127.664V228.089ZM127.664 224.714H126.4V217.97H127.664V224.714ZM127.664 215.858H126.4V211.234H127.664V215.858ZM127.664 199.835H126.4V198.579H127.664V199.835ZM127.664 196.467H126.4V189.716H127.664V196.467ZM127.664 187.612H126.4V182.988H127.664V187.612ZM127.664 171.589H126.4V170.325H127.664V171.589ZM127.664 168.213H126.4V161.47H127.664V168.213ZM127.664 159.358H126.4V154.734H127.664V159.358ZM136.519 228.089H129.775V226.825H136.519V228.089Z" fill="black"/>
<path d="M137.729 146.418C137.729 146.418 113.182 160.337 111.826 166.711C110.469 173.084 116.858 211.558 116.858 211.558L116.658 241.33C116.658 241.33 123.594 237.654 129.421 237.654C135.247 237.654 139.278 237.846 139.278 237.846C139.278 237.846 135.602 213.107 135.602 212.336C135.602 211.565 135.802 170.387 135.802 170.387" stroke="#263238" stroke-width="0.844444" stroke-miterlimit="10"/>
<path d="M125.745 231.665C125.745 231.665 118.038 235.519 115.887 237.654C113.737 239.788 113.182 240.559 113.76 241.33C114.338 242.1 115.502 254.432 117.051 255.827C118.6 257.222 123.617 259.503 131.933 256.79C140.249 254.077 142.369 251.187 142.723 249.253C143.078 247.318 142.137 245.777 141.182 240.004C140.226 234.232 137.729 229.345 125.745 231.665Z" fill="#A1A1A1" stroke="#263238" stroke-width="0.844444" stroke-miterlimit="10"/>
<path d="M138.893 248.867C138.893 248.867 135.409 247.711 128.65 248.482C121.891 249.253 120.72 252.929 120.72 252.929C120.72 252.929 131.933 283.472 134.446 289.075C136.958 294.678 133.675 302.416 133.29 304.543C132.904 306.67 132.897 314.015 132.897 314.015C132.897 314.015 135.802 321.167 135.602 323.487C135.401 325.807 137.914 325.421 138.122 323.679C138.33 321.938 136.581 315.972 136.581 315.972C136.581 315.972 144.288 322.138 144.889 322.731C145.49 323.325 147.794 322.731 146.631 320.997C145.499 319.442 144.274 317.957 142.962 316.55C142.962 316.55 147.794 320.026 149.128 319.633C149.299 319.608 149.462 319.545 149.607 319.451C149.752 319.356 149.874 319.231 149.967 319.085C150.059 318.939 150.118 318.774 150.141 318.603C150.164 318.431 150.149 318.257 150.099 318.092C150.099 318.092 152.026 318.092 152.226 316.55C152.426 315.009 149.513 309.013 149.32 307.656C149.128 306.3 151.632 301.082 151.632 301.082C151.632 301.082 156.657 304.759 158.207 304.936C159.756 305.113 164.01 303.772 163.039 301.853C162.068 299.934 160.334 300.497 157.243 298C154.679 296.06 151.701 294.741 148.542 294.146C147.186 293.953 145.459 291.834 145.459 291.834L138.893 248.867Z" fill="white" stroke="#263238" stroke-width="0.844444" stroke-miterlimit="10"/>
<path d="M145.274 301.445L142.954 306.67L150.106 318.069" stroke="#263238" stroke-width="0.844444" stroke-miterlimit="10"/>
<path d="M140.442 305.892C140.442 305.892 137.151 312.466 138.7 312.828C140.249 313.19 142.954 316.504 142.954 316.504" stroke="#263238" stroke-width="0.844444" stroke-miterlimit="10"/>
<path d="M136.766 307.826C136.766 307.826 133.683 311.309 134.454 312.658C135.224 314.007 136.581 315.949 136.581 315.949" stroke="#263238" stroke-width="0.844444" stroke-miterlimit="10"/>
<path d="M135.602 212.336L127.679 190.679" stroke="#263238" stroke-width="0.844444" stroke-miterlimit="10"/>
<path d="M206.761 146.896C206.761 146.896 226.745 156.853 228.102 163.235C229.458 169.616 220.703 211.558 220.703 211.558L220.896 241.33C220.896 241.33 213.959 237.654 208.133 237.654C202.306 237.654 198.275 237.846 198.275 237.846C198.275 237.846 201.952 213.107 201.952 212.336C201.952 211.565 201.759 170.387 201.759 170.387" fill="#008080"/>
<path opacity="0.3" d="M206.761 146.896C206.761 146.896 226.745 156.853 228.102 163.235C229.458 169.616 220.703 211.558 220.703 211.558L220.896 241.33C220.896 241.33 213.959 237.654 208.133 237.654C202.306 237.654 198.275 237.846 198.275 237.846C198.275 237.846 201.952 213.107 201.952 212.336C201.952 211.565 201.759 170.387 201.759 170.387" fill="white"/>
<path opacity="0.15" d="M228.017 162.957V168.213H223.393V161.47H227.339C226.847 160.71 226.279 160.002 225.643 159.358H223.393V157.292C222.73 156.738 222.021 156.183 221.289 155.643V159.358H214.537V154.734H220.009C215.769 151.847 211.349 149.234 206.776 146.911L201.774 170.402C201.774 170.402 201.967 211.573 201.967 212.351C201.967 212.783 200.803 220.829 199.778 227.765V228.105H199.732C198.961 233.338 198.291 237.862 198.291 237.862C198.291 237.862 202.352 237.669 208.148 237.669C211.056 237.795 213.922 238.41 216.626 239.488H220.865L220.795 228.105H214.506V226.841H220.788V224.729H214.522V217.985H220.741V215.874H214.537V211.249H220.788C221.088 209.808 222.329 203.82 223.693 196.498H223.393V189.716H224.934C225.057 189.015 225.188 188.313 225.312 187.612H223.393V182.988H226.098C226.776 178.88 227.369 174.926 227.762 171.604H223.393V170.34H227.909C228.256 167.026 228.371 164.475 228.117 163.25C228.078 163.127 228.04 163.05 228.017 162.957ZM212.387 228.089H211.154V226.825H212.387V228.089ZM212.387 224.714H211.154V217.97H212.387V224.714ZM212.387 215.858H211.154V211.234H212.387V215.858ZM212.387 199.835H211.154V198.579H212.387V199.835ZM212.387 196.467H211.154V189.716H212.387V196.467ZM212.387 187.612H211.154V182.988H212.387V187.612ZM212.387 171.604H211.154V170.34H212.387V171.604ZM212.387 168.229H211.154V161.485H212.387V168.229ZM212.387 159.373H211.154V154.749H212.387V159.373ZM221.242 199.851H214.491V198.579H221.242V199.851ZM221.242 196.483H214.491V189.716H221.242V196.483ZM221.242 187.627H214.491V183.003H221.242V187.627ZM221.242 171.604H214.491V170.34H221.242V171.604ZM221.242 168.229H214.491V161.485H221.242V168.229Z" fill="black"/>
<path d="M206.761 146.896C206.761 146.896 226.745 156.853 228.102 163.235C229.458 169.616 220.703 211.558 220.703 211.558L220.896 241.33C220.896 241.33 213.959 237.654 208.133 237.654C202.306 237.654 198.275 237.846 198.275 237.846C198.275 237.846 201.952 213.107 201.952 212.336C201.952 211.565 201.759 170.387 201.759 170.387" stroke="#263238" stroke-width="0.844444" stroke-miterlimit="10"/>
<path d="M211.809 231.665C211.809 231.665 216.526 232.205 221.666 237.654C223.732 239.842 224.371 240.559 223.793 241.33C223.215 242.1 222.052 254.432 220.51 255.827C218.969 257.222 213.936 259.503 205.62 256.79C197.304 254.077 195.185 251.187 194.83 249.253C194.476 247.318 195.408 245.777 196.372 240.004C197.335 234.232 199.824 229.345 211.809 231.665Z" fill="#A1A1A1" stroke="#263238" stroke-width="0.844444" stroke-miterlimit="10"/>
<path d="M198.661 248.867C198.661 248.867 202.144 247.711 208.911 248.482C215.678 249.253 216.834 252.929 216.834 252.929C216.834 252.929 205.62 283.472 203.108 289.075C200.595 294.678 203.878 302.416 204.271 304.543C204.664 306.67 204.657 314.015 204.657 314.015C204.657 314.015 201.759 321.167 201.952 323.487C202.144 325.807 199.64 325.421 199.439 323.679C199.239 321.938 200.981 315.972 200.981 315.972C200.981 315.972 193.274 322.138 192.672 322.731C192.071 323.325 189.775 322.731 190.931 320.997C192.066 319.443 193.294 317.958 194.607 316.55C194.607 316.55 189.775 320.026 188.441 319.633C188.27 319.608 188.107 319.546 187.962 319.451C187.818 319.356 187.696 319.231 187.604 319.085C187.512 318.938 187.454 318.774 187.432 318.602C187.41 318.431 187.426 318.257 187.478 318.092C187.478 318.092 185.543 318.092 185.351 316.55C185.158 315.009 188.056 309.013 188.249 307.656C188.441 306.3 185.936 301.082 185.936 301.082C185.936 301.082 180.911 304.759 179.362 304.936C177.813 305.113 173.567 303.772 174.53 301.853C175.493 299.934 177.235 300.497 180.333 298C182.895 296.061 185.871 294.742 189.027 294.146C190.383 293.953 192.11 291.834 192.11 291.834L198.661 248.867Z" fill="white" stroke="#263238" stroke-width="0.844444" stroke-miterlimit="10"/>
<path d="M192.287 301.445L194.607 306.67L187.455 318.069" stroke="#263238" stroke-width="0.844444" stroke-miterlimit="10"/>
<path d="M197.119 305.892C197.119 305.892 200.402 312.466 198.853 312.828C197.304 313.19 194.607 316.504 194.607 316.504" stroke="#263238" stroke-width="0.844444" stroke-miterlimit="10"/>
<path d="M200.826 307.826C200.826 307.826 203.909 311.309 203.139 312.658C202.368 314.007 201.011 315.949 201.011 315.949" stroke="#263238" stroke-width="0.844444" stroke-miterlimit="10"/>
<path d="M201.952 212.336L209.874 190.679" stroke="#263238" stroke-width="0.844444" stroke-miterlimit="10"/>
</svg>
