<svg width="32" height="33" viewBox="0 0 32 33" fill="none" xmlns="http://www.w3.org/2000/svg">
<path d="M12 8.5H21.9453C22.8922 8.50007 23.8083 8.83602 24.5308 9.4481C25.2532 10.0602 25.7351 10.9087 25.8907 11.8427L26.66 16.4613L27.74 22.948C27.7717 23.1388 27.7615 23.3342 27.7102 23.5207C27.6588 23.7072 27.5675 23.8803 27.4425 24.028C27.3176 24.1756 27.162 24.2943 26.9866 24.3758C26.8112 24.4574 26.6201 24.4997 26.4267 24.5H4C4 22.0246 4.98333 19.6507 6.73367 17.9003C8.48401 16.15 10.858 15.1667 13.3333 15.1667H26.4M16 20.5H16.0133" stroke="#525355" stroke-linecap="round" stroke-linejoin="round"/>
</svg>
