<svg width="16" height="17" viewBox="0 0 16 17" fill="none" xmlns="http://www.w3.org/2000/svg">
<path d="M1.3335 14.5002L6.00016 3.8335L9.3335 11.8335L10.6668 7.8335L14.6668 14.5002H1.3335ZM12.3335 5.16683C12.7755 5.16683 13.1994 4.99123 13.512 4.67867C13.8246 4.36611 14.0002 3.94219 14.0002 3.50016C14.0002 3.05814 13.8246 2.63421 13.512 2.32165C13.1994 2.00909 12.7755 1.8335 12.3335 1.8335C11.8915 1.8335 11.4675 2.00909 11.155 2.32165C10.8424 2.63421 10.6668 3.05814 10.6668 3.50016C10.6668 3.94219 10.8424 4.36611 11.155 4.67867C11.4675 4.99123 11.8915 5.16683 12.3335 5.16683Z" stroke="#525355" stroke-linejoin="round"/>
</svg>
