<svg width="342" height="325" viewBox="0 0 342 325" fill="none" xmlns="http://www.w3.org/2000/svg">
<path d="M171 324.7C265.441 324.7 342 281.212 342 227.566C342 173.921 265.441 130.432 171 130.432C76.5593 130.432 0 173.921 0 227.566C0 281.212 76.5593 324.7 171 324.7Z" fill="#F5F5F5"/>
<path d="M78.953 244.259C107.743 244.259 131.083 230.861 131.083 214.335C131.083 197.809 107.743 184.412 78.953 184.412C50.1627 184.412 26.8235 197.809 26.8235 214.335C26.8235 230.861 50.1627 244.259 78.953 244.259Z" fill="#E0E0E0"/>
<path d="M138.742 306.931C155.017 306.931 168.211 299.358 168.211 290.015C168.211 280.672 155.017 273.098 138.742 273.098C122.467 273.098 109.274 280.672 109.274 290.015C109.274 299.358 122.467 306.931 138.742 306.931Z" fill="#E0E0E0"/>
<path d="M184.896 291.453H203.207L334.861 215.513L205.136 136.213L145.629 173.464L234.872 225.753L153.469 273.113L184.896 291.453Z" fill="#E0E0E0"/>
<path d="M56.3567 195.786L47.6275 200.779C47.6275 200.779 52.1656 186.71 49.9038 172.474C49.0511 167.098 47.1506 164.417 46.4858 162.972C45.821 161.527 40.7049 152.617 45.3441 148.584C49.9833 144.552 60.7069 152.805 59.9698 174.678C59.6514 181.837 58.4376 188.928 56.3567 195.786Z" fill="#455A64"/>
<path d="M52.2956 198.452C52.2574 198.459 52.2182 198.459 52.18 198.452C52.0935 198.42 52.0232 198.355 51.984 198.271C51.9449 198.187 51.94 198.092 51.9704 198.004C51.9704 197.918 55.3451 188.863 55.3451 174.245C55.3451 159.626 47.9238 151.901 47.8515 151.844C47.8192 151.811 47.7935 151.773 47.776 151.731C47.7585 151.689 47.7495 151.644 47.7495 151.598C47.7495 151.552 47.7585 151.507 47.776 151.465C47.7935 151.423 47.8192 151.385 47.8515 151.352C47.9175 151.289 48.0056 151.253 48.0972 151.253C48.1889 151.253 48.2769 151.289 48.3429 151.352C48.4224 151.432 56.0388 159.431 56.0388 174.259C56.0388 189.087 52.6497 198.178 52.6136 198.265C52.5851 198.324 52.5397 198.373 52.4831 198.407C52.4265 198.44 52.3613 198.456 52.2956 198.452Z" fill="white"/>
<path d="M54.4274 196.819L39.9751 205.165C39.9751 205.165 33.4282 204.11 33.999 197.874C34.5699 191.638 37.2508 190.2 33.999 187.418C30.7473 184.636 29.8512 184.441 30.0463 181.753C30.2414 179.064 32.0407 177.915 32.8934 176.86C33.7461 175.805 36.1235 173.601 34.5049 170.357C32.8862 167.112 30.6894 163.94 34.0352 162.495C36.0224 161.628 39.3464 162.777 41.5359 165.176C43.7255 167.575 45.5175 169.302 47.6059 169.88C49.6943 170.458 54.0661 170.552 53.8782 174.216C53.6903 177.879 52.7365 179.115 53.5892 180.719C55.1861 183.769 62.2172 185.496 54.4274 196.819Z" fill="#37474F"/>
<path d="M48.5526 200.562C48.507 200.559 48.4625 200.546 48.4218 200.525C48.3811 200.504 48.345 200.476 48.3154 200.441C48.2858 200.406 48.2635 200.365 48.2496 200.322C48.2358 200.278 48.2307 200.232 48.2346 200.187C48.2346 199.97 50.0339 178.739 35.6105 164.634C35.5724 164.604 35.5412 164.566 35.5187 164.523C35.4963 164.479 35.4832 164.432 35.4802 164.383C35.4773 164.335 35.4846 164.286 35.5017 164.241C35.5188 164.195 35.5453 164.154 35.5794 164.119C35.6135 164.084 35.6546 164.057 35.6999 164.04C35.7452 164.022 35.7937 164.014 35.8423 164.016C35.8909 164.018 35.9384 164.031 35.9819 164.052C36.0254 164.074 36.0638 164.105 36.0947 164.143C50.7566 178.479 48.95 200.035 48.9283 200.273C48.9157 200.361 48.8694 200.44 48.7992 200.494C48.729 200.548 48.6405 200.573 48.5526 200.562Z" fill="white"/>
<path d="M46.1968 182.027C46.1054 182.018 46.0212 181.974 45.9618 181.904C45.9025 181.833 45.8727 181.743 45.8788 181.651C46.0043 179.887 46.4927 178.168 47.3133 176.601C48.134 175.034 49.2693 173.654 50.6481 172.546C50.6855 172.52 50.7278 172.502 50.7724 172.492C50.8171 172.482 50.8632 172.481 50.9082 172.489C50.9532 172.497 50.9962 172.514 51.0346 172.539C51.0731 172.563 51.1062 172.596 51.1323 172.633C51.1598 172.67 51.1796 172.712 51.1906 172.756C51.2015 172.801 51.2033 172.847 51.1959 172.892C51.1884 172.937 51.1719 172.981 51.1473 173.019C51.1227 173.058 51.0906 173.091 51.0528 173.117C49.7662 174.174 48.7063 175.48 47.9365 176.956C47.1666 178.433 46.7027 180.049 46.5725 181.709C46.5689 181.755 46.5563 181.799 46.5354 181.84C46.5145 181.881 46.4858 181.917 46.4508 181.946C46.4159 181.976 46.3755 181.998 46.3319 182.012C46.2883 182.026 46.2424 182.031 46.1968 182.027Z" fill="white"/>
<path d="M47.2157 185.727C47.1661 185.726 47.1172 185.715 47.0723 185.694C47.0274 185.673 46.9876 185.642 46.9556 185.604C46.9556 185.568 43.3425 181.601 35.1046 182.649C35.0088 182.66 34.9124 182.633 34.8365 182.573C34.7606 182.514 34.7115 182.426 34.7 182.331C34.6885 182.235 34.7155 182.138 34.7751 182.062C34.8348 181.987 34.9221 181.937 35.0179 181.926C43.646 180.835 47.3024 184.946 47.4758 185.12C47.5082 185.152 47.5338 185.19 47.5513 185.233C47.5688 185.275 47.5779 185.32 47.5779 185.366C47.5779 185.411 47.5688 185.456 47.5513 185.499C47.5338 185.541 47.5082 185.579 47.4758 185.611C47.4434 185.648 47.4034 185.678 47.3585 185.698C47.3136 185.718 47.2648 185.728 47.2157 185.727Z" fill="white"/>
<path d="M79.8853 228.376C104.19 228.376 123.893 217.065 123.893 203.113C123.893 189.161 104.19 177.85 79.8853 177.85C55.5807 177.85 35.8779 189.161 35.8779 203.113C35.8779 217.065 55.5807 228.376 79.8853 228.376Z" fill="#37474F"/>
<path d="M123.893 203.113C123.893 217.067 104.194 228.405 79.8853 228.405C55.5765 228.405 35.8707 217.067 35.8707 203.113V210.173C35.8707 224.12 55.5693 235.429 79.8709 235.429C104.172 235.429 123.878 224.12 123.878 210.173V203.113H123.893Z" fill="#253239"/>
<path d="M79.8853 225.363C57.318 225.363 38.9563 215.383 38.9563 203.113C38.9563 190.843 57.318 180.864 79.8853 180.864C102.453 180.864 120.822 190.843 120.822 203.113C120.822 215.383 102.46 225.363 79.8853 225.363ZM79.8853 181.63C57.7371 181.63 39.715 191.262 39.715 203.113C39.715 214.964 57.7371 224.597 79.8853 224.597C102.034 224.597 120.056 214.957 120.056 203.113C120.056 191.269 102.041 181.63 79.8853 181.63Z" fill="#008080"/>
<path d="M79.8853 91.5267C57.318 91.5267 38.9563 81.5402 38.9563 69.2701C38.9563 57.0001 57.318 47.0208 79.8853 47.0208C102.453 47.0208 120.822 57.0001 120.822 69.2701C120.822 81.5402 102.46 91.5267 79.8853 91.5267ZM79.8853 47.7867C57.7371 47.7867 39.715 57.4264 39.715 69.2701C39.715 81.1138 57.7371 90.7607 79.8853 90.7607C102.034 90.7607 120.056 81.0994 120.056 69.2701C120.056 57.4409 102.041 47.7867 79.8853 47.7867Z" fill="#008080"/>
<path d="M120.056 203.12V203.113H120.822L120.056 203.12Z" fill="#008080"/>
<path d="M38.9563 203.12V203.113H39.7223L38.9563 203.12Z" fill="#008080"/>
<path d="M120.822 203.113H120.056C120.056 191.262 102.041 181.63 79.8854 181.63C57.7299 181.63 39.7151 191.262 39.7151 203.113H38.9925V179.679C38.9722 173.279 40.6871 166.993 43.9547 161.49C47.2223 155.986 51.9204 151.472 57.5493 148.426L68.7282 142.406C69.7238 141.866 70.5552 141.067 71.1345 140.093C71.7138 139.119 72.0196 138.008 72.0196 136.875C72.0196 135.742 71.7138 134.63 71.1345 133.656C70.5552 132.683 69.7238 131.883 68.7282 131.343L57.5493 125.324C51.919 122.285 47.2172 117.778 43.9434 112.282C40.6696 106.785 38.9462 100.504 38.9563 94.1066V70.2603H39.7657V70.5999C41.0592 81.9088 58.6621 90.7681 79.8492 90.7681C101.036 90.7681 118.646 81.9088 119.94 70.5999L119.976 70.2603H120.785V94.1066C120.804 100.506 119.087 106.791 115.818 112.293C112.549 117.795 107.851 122.308 102.221 125.353L91.0353 131.372C90.0416 131.914 89.2123 132.714 88.6345 133.687C88.0567 134.661 87.7518 135.772 87.7518 136.904C87.7518 138.036 88.0567 139.147 88.6345 140.12C89.2123 141.093 90.0416 141.893 91.0353 142.435L102.221 148.455C113.559 155.124 120.67 167.091 120.785 179.708L120.822 203.113ZM79.8854 180.864C99.7573 180.864 116.363 188.596 120.056 198.814V179.679C119.947 167.337 112.981 155.616 101.882 149.098L90.7101 143.086C89.5941 142.478 88.6624 141.581 88.0133 140.489C87.3641 139.396 87.0216 138.149 87.0216 136.878C87.0216 135.608 87.3641 134.36 88.0133 133.268C88.6624 132.176 89.5941 131.278 90.7101 130.671L101.896 124.652C107.4 121.675 111.994 117.264 115.192 111.885C118.389 106.507 120.07 100.363 120.056 94.1066V73.5843C116.37 83.8671 99.6561 91.5558 79.8854 91.5558C60.1146 91.5558 43.4077 83.8671 39.7151 73.5843V94.1066C39.697 100.369 41.3767 106.519 44.5756 111.903C47.7745 117.286 52.3729 121.702 57.8817 124.681L69.0678 130.7C70.1839 131.307 71.1155 132.205 71.7646 133.297C72.4138 134.389 72.7564 135.636 72.7564 136.907C72.7564 138.178 72.4138 139.425 71.7646 140.517C71.1155 141.61 70.1839 142.507 69.0678 143.114L57.8817 149.134C52.3724 152.112 47.7735 156.527 44.5746 161.911C41.3756 167.295 39.6962 173.445 39.7151 179.708V198.814C43.4077 188.596 60.0206 180.864 79.8854 180.864Z" fill="#008080"/>
<path d="M83.3322 162.921C82.2839 162.321 81.0969 162.005 79.8889 162.005C78.681 162.005 77.494 162.321 76.4457 162.921C67.3407 168.131 43.3209 182.692 43.3209 191.515C43.3209 202.405 59.6882 211.235 79.8853 211.235C100.082 211.235 116.457 202.405 116.457 191.515C116.457 182.692 92.4372 168.131 83.3322 162.921Z" fill="#008080"/>
<path opacity="0.3" d="M83.3322 162.921C82.2839 162.321 81.0969 162.005 79.8889 162.005C78.681 162.005 77.494 162.321 76.4457 162.921C67.3407 168.131 43.3209 182.692 43.3209 191.515C43.3209 202.405 59.6882 211.235 79.8853 211.235C100.082 211.235 116.457 202.405 116.457 191.515C116.457 182.692 92.4372 168.131 83.3322 162.921Z" fill="white"/>
<path d="M79.8853 211.235C59.6882 211.235 43.3209 202.405 43.3209 191.515V201.509C43.3209 212.399 59.6954 221.229 79.8853 221.229C100.075 221.229 116.457 212.399 116.457 201.509V191.515C116.457 202.405 100.082 211.235 79.8853 211.235Z" fill="#008080"/>
<path d="M43.3209 70.6357V92.3142C43.3085 98.0233 44.8416 103.629 47.7575 108.538C50.6734 113.446 54.8635 117.473 59.8833 120.193L69.9999 125.62C70.1516 125.706 70.3034 125.793 70.4407 125.887C70.802 126.118 71.1633 126.342 71.5391 126.552C73.6075 127.846 75.3125 129.646 76.4933 131.781C77.674 133.916 78.2918 136.317 78.2883 138.757V148.151C78.2864 148.587 78.4571 149.005 78.7632 149.315C79.0692 149.626 79.4857 149.802 79.9214 149.806C80.3578 149.802 80.775 149.626 81.0822 149.316C81.3894 149.006 81.5618 148.587 81.5617 148.151V138.757C81.5582 136.318 82.1751 133.918 83.3545 131.782C84.5339 129.647 86.2371 127.847 88.3038 126.552C88.6795 126.342 89.0264 126.118 89.4094 125.887C89.5467 125.793 89.6984 125.706 89.8502 125.62L99.9307 120.193C104.95 117.473 109.14 113.446 112.056 108.538C114.972 103.629 116.505 98.0233 116.493 92.3142V70.6357H43.3209Z" fill="#008080"/>
<path d="M81.5255 154.886C81.5241 154.561 81.4267 154.245 81.2456 153.976C81.0645 153.707 80.8078 153.498 80.5079 153.375C80.2081 153.252 79.8785 153.221 79.5608 153.285C79.2431 153.349 78.9515 153.506 78.7228 153.735C78.4941 153.965 78.3386 154.257 78.2759 154.575C78.2132 154.893 78.2461 155.223 78.3704 155.522C78.4948 155.821 78.705 156.077 78.9746 156.257C79.2442 156.437 79.5611 156.533 79.8852 156.533C80.3203 156.529 80.7364 156.354 81.0434 156.046C81.3505 155.738 81.5237 155.321 81.5255 154.886Z" fill="#008080"/>
<path opacity="0.3" d="M43.3209 70.6357V92.3142C43.3085 98.0233 44.8416 103.629 47.7575 108.538C50.6734 113.446 54.8635 117.473 59.8833 120.193L69.9999 125.62C70.1516 125.706 70.3034 125.793 70.4407 125.887C70.802 126.118 71.1633 126.342 71.5391 126.552C73.6075 127.846 75.3125 129.646 76.4933 131.781C77.674 133.916 78.2918 136.317 78.2883 138.757V148.151C78.2864 148.587 78.4571 149.005 78.7632 149.315C79.0692 149.626 79.4857 149.802 79.9214 149.806C80.3578 149.802 80.775 149.626 81.0822 149.316C81.3894 149.006 81.5618 148.587 81.5617 148.151V138.757C81.5582 136.318 82.1751 133.918 83.3545 131.782C84.5339 129.647 86.2371 127.847 88.3038 126.552C88.6795 126.342 89.0264 126.118 89.4094 125.887C89.5467 125.793 89.6984 125.706 89.8502 125.62L99.9307 120.193C104.95 117.473 109.14 113.446 112.056 108.538C114.972 103.629 116.505 98.0233 116.493 92.3142V70.6357H43.3209Z" fill="white"/>
<g opacity="0.3">
<path d="M81.5255 154.886C81.5241 154.561 81.4267 154.245 81.2456 153.976C81.0645 153.707 80.8078 153.498 80.5079 153.375C80.2081 153.252 79.8785 153.221 79.5608 153.285C79.2431 153.349 78.9515 153.506 78.7228 153.735C78.4941 153.965 78.3386 154.257 78.2759 154.575C78.2132 154.893 78.2461 155.223 78.3704 155.522C78.4948 155.821 78.705 156.077 78.9746 156.257C79.2442 156.437 79.5611 156.533 79.8852 156.533C80.3203 156.529 80.7364 156.354 81.0434 156.046C81.3505 155.738 81.5237 155.321 81.5255 154.886Z" fill="white"/>
</g>
<path d="M79.8853 90.3562C100.083 90.3562 116.457 81.5271 116.457 70.636C116.457 59.7448 100.083 50.9158 79.8853 50.9158C59.6874 50.9158 43.3137 59.7448 43.3137 70.636C43.3137 81.5271 59.6874 90.3562 79.8853 90.3562Z" fill="#008080"/>
<g style="mix-blend-mode:overlay" opacity="0.5">
<path d="M76.8791 142.746L69.7686 148.765C62.5424 154.849 58.0911 166.737 58.0911 179.679V220.911C55.8825 220.156 53.7328 219.238 51.6598 218.165V179.679C51.6598 166.737 56.7976 154.849 65.0354 148.765L73.1649 142.746C76.5539 140.238 76.5539 133.503 73.1649 131.01L65.0354 124.991C56.8265 118.907 51.6598 107.012 51.6598 94.1063V70.6357H58.0911V94.1063C58.0911 107.048 62.5785 118.943 69.7686 125.027L76.8791 131.046C79.8346 133.503 79.8346 140.238 76.8791 142.746Z" fill="white"/>
</g>
<path d="M79.8853 94.5327C104.19 94.5327 123.893 83.2222 123.893 69.27C123.893 55.3178 104.19 44.0073 79.8853 44.0073C55.5807 44.0073 35.8779 55.3178 35.8779 69.27C35.8779 83.2222 55.5807 94.5327 79.8853 94.5327Z" fill="#37474F"/>
<path d="M123.893 69.27C123.893 83.2237 104.194 94.5616 79.8853 94.5616C55.5765 94.5616 35.8707 83.2237 35.8707 69.27V76.33C35.8707 90.2837 55.5693 101.622 79.8709 101.622C104.172 101.622 123.878 90.3126 123.878 76.33V69.27H123.893Z" fill="#253239"/>
<path d="M223.888 139.602V111.724L184.91 88.9904V61.1118L145.94 38.3711V177.757L184.91 200.497L223.888 223.231L262.859 245.972V162.343L223.888 139.602Z" fill="#008080"/>
<path opacity="0.3" d="M223.888 139.602V167.481L262.859 190.222V162.343L223.888 139.602Z" fill="white"/>
<path d="M262.859 162.343V190.222L223.888 212.962V240.834L184.91 263.574V291.453L223.888 268.712L262.859 245.971L301.837 223.231V139.602L262.859 162.343Z" fill="#008080"/>
<path opacity="0.1" d="M262.859 162.343V190.222L223.888 212.962V240.834L184.91 263.574V291.453L223.888 268.712L262.859 245.971L301.837 223.231V139.602L262.859 162.343Z" fill="white"/>
<path d="M184.91 61.1116L145.94 38.3709L184.91 15.6301L223.888 38.3709L184.91 61.1116Z" fill="#008080"/>
<path opacity="0.7" d="M184.91 61.1116L145.94 38.3709L184.91 15.6301L223.888 38.3709L184.91 61.1116Z" fill="white"/>
<path d="M184.91 88.9904V61.1118L223.888 38.3711V66.2496L184.91 88.9904Z" fill="#008080"/>
<path opacity="0.1" d="M184.91 88.9904V61.1118L223.888 38.3711V66.2496L184.91 88.9904Z" fill="black"/>
<path d="M223.888 111.724L184.91 88.9903L223.888 66.2495L262.859 88.9903L223.888 111.724Z" fill="#008080"/>
<path d="M223.888 139.602V111.724L262.859 88.9902V116.862L223.888 139.602Z" fill="#008080"/>
<path opacity="0.7" d="M223.888 111.724L184.91 88.9903L223.888 66.2495L262.859 88.9903L223.888 111.724Z" fill="white"/>
<path opacity="0.1" d="M223.888 139.602V111.724L262.859 88.9902V116.862L223.888 139.602Z" fill="black"/>
<path d="M262.859 162.343L223.888 139.602L262.859 116.862L301.837 139.602L262.859 162.343Z" fill="#008080"/>
<g opacity="0.7">
<path d="M262.859 162.343L223.888 139.602L262.859 116.862L301.837 139.602L262.859 162.343Z" fill="white"/>
</g>
<path d="M223.888 212.962L262.859 190.222L223.888 167.481L184.91 190.222L223.888 212.962Z" fill="#008080"/>
<path opacity="0.7" d="M223.888 212.962L262.859 190.222L223.888 167.481L184.91 190.222L223.888 212.962Z" fill="white"/>
<path d="M223.888 240.834V212.962L184.91 190.222V218.1L223.888 240.834Z" fill="#008080"/>
<path opacity="0.3" d="M223.888 240.834V212.962L184.91 190.222V218.1L223.888 240.834Z" fill="white"/>
<path d="M184.91 263.574L223.888 240.833L184.91 218.1L145.94 240.833L184.91 263.574Z" fill="#008080"/>
<path d="M184.91 291.453V263.574L145.94 240.834V268.712L184.91 291.453Z" fill="#008080"/>
<path opacity="0.7" d="M184.91 263.574L223.888 240.833L184.91 218.1L145.94 240.833L184.91 263.574Z" fill="white"/>
<path opacity="0.3" d="M184.91 291.453V263.574L145.94 240.834V268.712L184.91 291.453Z" fill="white"/>
<path d="M216.352 236.44L177.381 259.181L153.477 245.234L192.455 222.494L216.352 236.44Z" fill="#008080"/>
<path opacity="0.4" d="M216.352 236.44L177.381 259.181L153.477 245.234L192.455 222.494L216.352 236.44Z" fill="white"/>
<path d="M177.381 259.181V287.052L153.469 273.113V245.234H153.477L177.381 259.181Z" fill="#008080"/>
<path d="M255.329 185.821L216.352 208.561L192.455 194.622L231.425 171.881L255.329 185.821Z" fill="#008080"/>
<path opacity="0.4" d="M255.329 185.821L216.352 208.561L192.455 194.622L231.425 171.881L255.329 185.821Z" fill="white"/>
<path d="M216.352 208.562V236.44L192.447 222.494V194.623H192.455L216.352 208.562Z" fill="#008080"/>
<path d="M255.329 157.95V185.821L231.418 171.882V144.003H231.425L255.329 157.95Z" fill="#008080"/>
<path d="M255.329 157.95V185.821L231.418 171.882V144.003H231.425L255.329 157.95Z" fill="#008080"/>
<path d="M192.447 84.5896L231.418 107.33L255.322 93.391L216.344 70.6431L192.447 84.5896Z" fill="#008080"/>
<g style="mix-blend-mode:overlay" opacity="0.5">
<path d="M192.447 84.5896L231.418 107.33L255.322 93.391L216.344 70.6431L192.447 84.5896Z" fill="white"/>
</g>
<path d="M231.418 107.33V135.209L255.329 121.262V93.3909H255.322L231.418 107.33Z" fill="#008080"/>
<path opacity="0.3" d="M231.418 107.33V135.209L255.329 121.262V93.3909H255.322L231.418 107.33Z" fill="black"/>
<path d="M153.469 33.9703L192.447 56.7183L216.344 42.7717L177.374 20.031L153.469 33.9703Z" fill="#008080"/>
<g style="mix-blend-mode:overlay" opacity="0.5">
<path d="M153.469 33.9703L192.447 56.7183L216.344 42.7717L177.374 20.031L153.469 33.9703Z" fill="white"/>
</g>
<path d="M192.447 56.718V84.5893L216.352 70.6428V42.7715H216.344L192.447 56.718Z" fill="#008080"/>
<path opacity="0.3" d="M192.447 56.718V84.5893L216.352 70.6428V42.7715H216.344L192.447 56.718Z" fill="black"/>
<path d="M262.859 125.663L255.322 121.255L231.418 135.202L238.962 139.602L231.425 144.003L255.329 157.942L262.859 153.549L286.763 139.602L262.859 125.663Z" fill="#008080"/>
<path opacity="0.4" d="M262.859 125.663L255.322 121.255L231.418 135.202L238.962 139.602L231.425 144.003L255.329 157.942L262.859 153.549L286.763 139.602L262.859 125.663Z" fill="white"/>
<path d="M169.389 29.6634C169.328 29.6629 169.269 29.648 169.215 29.6201L167.77 28.7674C167.73 28.7443 167.696 28.7136 167.668 28.677C167.641 28.6405 167.621 28.5989 167.609 28.5545C167.598 28.5102 167.595 28.464 167.602 28.4187C167.608 28.3734 167.624 28.3298 167.647 28.2905C167.692 28.2114 167.767 28.1534 167.855 28.129C167.943 28.1047 168.037 28.116 168.117 28.1604L169.562 29.0131C169.642 29.0599 169.7 29.136 169.724 29.2251C169.748 29.3142 169.737 29.4093 169.692 29.49C169.662 29.5437 169.618 29.5882 169.564 29.6188C169.511 29.6493 169.45 29.6648 169.389 29.6634Z" fill="#008080"/>
<path d="M198.011 46.3704C197.95 46.3706 197.89 46.3531 197.838 46.3198L194.948 44.6505C194.908 44.6278 194.873 44.5974 194.845 44.5611C194.816 44.5248 194.796 44.4833 194.784 44.439C194.772 44.3947 194.768 44.3485 194.774 44.303C194.78 44.2574 194.795 44.2135 194.817 44.1736C194.84 44.1338 194.871 44.0988 194.907 44.0707C194.943 44.0426 194.985 44.0219 195.029 44.0098C195.073 43.9977 195.119 43.9945 195.165 44.0003C195.211 44.0061 195.254 44.0208 195.294 44.0436L198.185 45.7128C198.224 45.7359 198.259 45.7666 198.286 45.8032C198.314 45.8397 198.334 45.8813 198.346 45.9257C198.357 45.97 198.36 46.0162 198.353 46.0615C198.347 46.1068 198.331 46.1504 198.308 46.1897C198.28 46.2442 198.237 46.2899 198.185 46.3218C198.133 46.3537 198.073 46.3705 198.011 46.3704ZM192.288 43.0247C192.228 43.0241 192.168 43.0092 192.115 42.9813L189.224 41.3121C189.185 41.2893 189.15 41.2589 189.121 41.2226C189.093 41.1863 189.073 41.1448 189.061 41.1005C189.048 41.0562 189.045 41.01 189.051 40.9645C189.057 40.9189 189.072 40.875 189.094 40.8351C189.117 40.7953 189.147 40.7603 189.184 40.7322C189.22 40.7041 189.262 40.6834 189.306 40.6713C189.35 40.6592 189.396 40.656 189.442 40.6618C189.487 40.6676 189.531 40.6823 189.571 40.7051L192.462 42.3743C192.501 42.3974 192.536 42.4281 192.563 42.4647C192.591 42.5012 192.611 42.5428 192.622 42.5872C192.634 42.6315 192.636 42.6777 192.63 42.723C192.623 42.7683 192.608 42.8119 192.585 42.8512C192.556 42.9049 192.514 42.9496 192.461 42.9802C192.409 43.0109 192.349 43.0263 192.288 43.0247ZM186.565 39.6862C186.505 39.6865 186.445 39.6716 186.392 39.6428L183.501 37.9736C183.421 37.9254 183.363 37.848 183.339 37.7577C183.314 37.6674 183.326 37.5713 183.371 37.4894C183.394 37.4499 183.425 37.4153 183.462 37.3878C183.498 37.3602 183.54 37.3401 183.584 37.3287C183.628 37.3172 183.675 37.3147 183.72 37.3212C183.765 37.3277 183.809 37.3431 183.848 37.3666L186.739 39.0358C186.806 39.0733 186.86 39.1323 186.89 39.2035C186.92 39.2747 186.926 39.354 186.906 39.4287C186.886 39.5035 186.842 39.5695 186.78 39.6161C186.718 39.6628 186.643 39.6874 186.565 39.6862ZM180.842 36.3477C180.78 36.3498 180.72 36.3321 180.669 36.2971L177.778 34.6279C177.699 34.581 177.64 34.5049 177.616 34.4159C177.592 34.3268 177.603 34.2317 177.648 34.1509C177.67 34.1117 177.701 34.0773 177.736 34.0497C177.772 34.0222 177.813 34.0022 177.857 33.9907C177.901 33.9793 177.946 33.9767 177.991 33.9831C178.036 33.9895 178.079 34.0048 178.118 34.0281L181.008 35.6973C181.087 35.7453 181.143 35.8219 181.166 35.9109C181.189 35.9999 181.176 36.0944 181.131 36.1743C181.101 36.2249 181.059 36.2673 181.009 36.2976C180.958 36.3279 180.901 36.3451 180.842 36.3477ZM175.112 33.0092C175.05 33.0095 174.99 32.9919 174.938 32.9586L172.048 31.2894C171.969 31.2414 171.913 31.1648 171.89 31.0758C171.867 30.9868 171.88 30.8923 171.925 30.8124C171.97 30.7334 172.045 30.6754 172.133 30.651C172.221 30.6267 172.315 30.6379 172.395 30.6824L175.285 32.3516C175.365 32.3984 175.423 32.4745 175.447 32.5636C175.471 32.6527 175.46 32.7478 175.415 32.8285C175.385 32.8831 175.342 32.9286 175.288 32.9604C175.235 32.9922 175.174 33.009 175.112 33.0092Z" fill="#008080"/>
<path d="M202.333 48.8922C202.271 48.8925 202.211 48.8749 202.159 48.8416L200.714 47.989C200.675 47.9658 200.64 47.9351 200.612 47.8986C200.585 47.8621 200.565 47.8204 200.553 47.7761C200.542 47.7317 200.539 47.6856 200.546 47.6403C200.552 47.5949 200.568 47.5514 200.591 47.512C200.613 47.472 200.643 47.4369 200.678 47.4088C200.714 47.3807 200.755 47.3602 200.799 47.3487C200.843 47.3372 200.889 47.3348 200.934 47.3418C200.979 47.3488 201.022 47.3649 201.061 47.3892L202.506 48.2346C202.586 48.2815 202.644 48.3576 202.668 48.4466C202.693 48.5357 202.681 48.6308 202.636 48.7116C202.606 48.7661 202.563 48.8116 202.509 48.8434C202.456 48.8752 202.395 48.8921 202.333 48.8922Z" fill="#008080"/>
<g opacity="0.3">
<path d="M169.389 29.6634C169.328 29.6629 169.269 29.648 169.215 29.6201L167.77 28.7674C167.73 28.7443 167.696 28.7136 167.668 28.677C167.641 28.6405 167.621 28.5989 167.609 28.5545C167.598 28.5102 167.595 28.464 167.602 28.4187C167.608 28.3734 167.624 28.3298 167.647 28.2905C167.692 28.2114 167.767 28.1534 167.855 28.129C167.943 28.1047 168.037 28.116 168.117 28.1604L169.562 29.0131C169.642 29.0599 169.7 29.136 169.724 29.2251C169.748 29.3142 169.737 29.4093 169.692 29.49C169.662 29.5437 169.618 29.5882 169.564 29.6188C169.511 29.6493 169.45 29.6648 169.389 29.6634Z" fill="black"/>
<path d="M198.011 46.3704C197.95 46.3706 197.89 46.3531 197.838 46.3198L194.948 44.6505C194.908 44.6278 194.873 44.5974 194.845 44.5611C194.816 44.5248 194.796 44.4833 194.784 44.439C194.772 44.3947 194.768 44.3485 194.774 44.303C194.78 44.2574 194.795 44.2135 194.817 44.1736C194.84 44.1338 194.871 44.0988 194.907 44.0707C194.943 44.0426 194.985 44.0219 195.029 44.0098C195.073 43.9977 195.119 43.9945 195.165 44.0003C195.211 44.0061 195.254 44.0208 195.294 44.0436L198.185 45.7128C198.224 45.7359 198.259 45.7666 198.286 45.8032C198.314 45.8397 198.334 45.8813 198.346 45.9257C198.357 45.97 198.36 46.0162 198.353 46.0615C198.347 46.1068 198.331 46.1504 198.308 46.1897C198.28 46.2442 198.237 46.2899 198.185 46.3218C198.133 46.3537 198.073 46.3705 198.011 46.3704ZM192.288 43.0247C192.228 43.0241 192.168 43.0092 192.115 42.9813L189.224 41.3121C189.185 41.2893 189.15 41.2589 189.121 41.2226C189.093 41.1863 189.073 41.1448 189.061 41.1005C189.048 41.0562 189.045 41.01 189.051 40.9645C189.057 40.9189 189.072 40.875 189.094 40.8351C189.117 40.7953 189.147 40.7603 189.184 40.7322C189.22 40.7041 189.262 40.6834 189.306 40.6713C189.35 40.6592 189.396 40.656 189.442 40.6618C189.487 40.6676 189.531 40.6823 189.571 40.7051L192.462 42.3743C192.501 42.3974 192.536 42.4281 192.563 42.4647C192.591 42.5012 192.611 42.5428 192.622 42.5872C192.634 42.6315 192.636 42.6777 192.63 42.723C192.623 42.7683 192.608 42.8119 192.585 42.8512C192.556 42.9049 192.514 42.9496 192.461 42.9802C192.409 43.0109 192.349 43.0263 192.288 43.0247ZM186.565 39.6862C186.505 39.6865 186.445 39.6716 186.392 39.6428L183.501 37.9736C183.421 37.9254 183.363 37.848 183.339 37.7577C183.314 37.6674 183.326 37.5713 183.371 37.4894C183.394 37.4499 183.425 37.4153 183.462 37.3878C183.498 37.3602 183.54 37.3401 183.584 37.3287C183.628 37.3172 183.675 37.3147 183.72 37.3212C183.765 37.3277 183.809 37.3431 183.848 37.3666L186.739 39.0358C186.806 39.0733 186.86 39.1323 186.89 39.2035C186.92 39.2747 186.926 39.354 186.906 39.4287C186.886 39.5035 186.842 39.5695 186.78 39.6161C186.718 39.6628 186.643 39.6874 186.565 39.6862ZM180.842 36.3477C180.78 36.3498 180.72 36.3321 180.669 36.2971L177.778 34.6279C177.699 34.581 177.64 34.5049 177.616 34.4159C177.592 34.3268 177.603 34.2317 177.648 34.1509C177.67 34.1117 177.701 34.0773 177.736 34.0497C177.772 34.0222 177.813 34.0022 177.857 33.9907C177.901 33.9793 177.946 33.9767 177.991 33.9831C178.036 33.9895 178.079 34.0048 178.118 34.0281L181.008 35.6973C181.087 35.7453 181.143 35.8219 181.166 35.9109C181.189 35.9999 181.176 36.0944 181.131 36.1743C181.101 36.2249 181.059 36.2673 181.009 36.2976C180.958 36.3279 180.901 36.3451 180.842 36.3477ZM175.112 33.0092C175.05 33.0095 174.99 32.9919 174.938 32.9586L172.048 31.2894C171.969 31.2414 171.913 31.1648 171.89 31.0758C171.867 30.9868 171.88 30.8923 171.925 30.8124C171.97 30.7334 172.045 30.6754 172.133 30.651C172.221 30.6267 172.315 30.6379 172.395 30.6824L175.285 32.3516C175.365 32.3984 175.423 32.4745 175.447 32.5636C175.471 32.6527 175.46 32.7478 175.415 32.8285C175.385 32.8831 175.342 32.9286 175.288 32.9604C175.235 32.9922 175.174 33.009 175.112 33.0092Z" fill="black"/>
<path d="M202.333 48.8922C202.271 48.8925 202.211 48.8749 202.159 48.8416L200.714 47.989C200.675 47.9658 200.64 47.9351 200.612 47.8986C200.585 47.8621 200.565 47.8204 200.553 47.7761C200.542 47.7317 200.539 47.6856 200.546 47.6403C200.552 47.5949 200.568 47.5514 200.591 47.512C200.613 47.472 200.643 47.4369 200.678 47.4088C200.714 47.3807 200.755 47.3602 200.799 47.3487C200.843 47.3372 200.889 47.3348 200.934 47.3418C200.979 47.3488 201.022 47.3649 201.061 47.3892L202.506 48.2346C202.586 48.2815 202.644 48.3576 202.668 48.4466C202.693 48.5357 202.681 48.6308 202.636 48.7116C202.606 48.7661 202.563 48.8116 202.509 48.8434C202.456 48.8752 202.395 48.8921 202.333 48.8922Z" fill="black"/>
</g>
<path d="M208.157 80.1601C208.096 80.1603 208.035 80.1428 207.984 80.1095L206.538 79.2568C206.499 79.2337 206.464 79.203 206.437 79.1665C206.409 79.1299 206.389 79.0883 206.378 79.0439C206.366 78.9996 206.364 78.9534 206.37 78.9081C206.377 78.8628 206.392 78.8192 206.416 78.7799C206.438 78.7406 206.468 78.7062 206.504 78.6787C206.54 78.6512 206.581 78.6311 206.625 78.6197C206.668 78.6083 206.714 78.6057 206.759 78.6121C206.803 78.6185 206.847 78.6338 206.885 78.657L208.331 79.5097C208.398 79.5472 208.451 79.6062 208.482 79.6774C208.512 79.7486 208.518 79.8279 208.498 79.9026C208.478 79.9774 208.434 80.0434 208.372 80.09C208.31 80.1367 208.234 80.1613 208.157 80.1601Z" fill="#008080"/>
<path d="M236.809 96.8811C236.749 96.8821 236.691 96.8644 236.642 96.8305L233.752 95.1613C233.712 95.1385 233.677 95.1081 233.649 95.0718C233.621 95.0355 233.6 94.994 233.588 94.9497C233.576 94.9054 233.573 94.8592 233.579 94.8137C233.584 94.7681 233.599 94.7242 233.622 94.6843C233.645 94.6445 233.675 94.6095 233.711 94.5814C233.748 94.5533 233.789 94.5326 233.833 94.5205C233.878 94.5084 233.924 94.5052 233.969 94.511C234.015 94.5168 234.059 94.5315 234.099 94.5543L236.989 96.2307C237.069 96.2776 237.127 96.3536 237.151 96.4427C237.176 96.5318 237.164 96.6269 237.119 96.7077C237.087 96.7614 237.042 96.8058 236.987 96.8362C236.933 96.8667 236.871 96.8822 236.809 96.8811ZM231.078 93.5354C231.018 93.5348 230.958 93.5199 230.905 93.492L228.014 91.8155C227.934 91.7695 227.875 91.6935 227.851 91.604C227.826 91.5146 227.838 91.4191 227.884 91.3386C227.93 91.2581 228.006 91.1992 228.096 91.1748C228.185 91.1504 228.281 91.1626 228.361 91.2085L231.252 92.885C231.319 92.9225 231.373 92.9815 231.403 93.0527C231.433 93.1239 231.439 93.2032 231.419 93.2779C231.399 93.3527 231.355 93.4187 231.293 93.4653C231.231 93.512 231.156 93.5366 231.078 93.5354ZM225.348 90.1897C225.288 90.1891 225.228 90.1742 225.175 90.1463L222.284 88.4698C222.204 88.423 222.146 88.3469 222.122 88.2578C222.098 88.1687 222.109 88.0737 222.154 87.9929C222.177 87.9534 222.208 87.9188 222.244 87.8912C222.281 87.8636 222.323 87.8436 222.367 87.8321C222.411 87.8207 222.457 87.8182 222.503 87.8247C222.548 87.8312 222.592 87.8466 222.631 87.8701L225.521 89.5393C225.601 89.5861 225.659 89.6622 225.683 89.7513C225.708 89.8404 225.696 89.9355 225.651 90.0162C225.621 90.0699 225.577 90.1144 225.524 90.145C225.47 90.1755 225.409 90.191 225.348 90.1897ZM219.618 86.8801C219.557 86.8795 219.498 86.8646 219.444 86.8367L216.554 85.1675C216.474 85.1206 216.416 85.0446 216.392 84.9555C216.367 84.8664 216.379 84.7713 216.424 84.6905C216.446 84.6504 216.476 84.6152 216.513 84.5869C216.549 84.5586 216.59 84.5377 216.635 84.5256C216.679 84.5135 216.726 84.5104 216.771 84.5164C216.817 84.5223 216.861 84.5373 216.901 84.5605L219.791 86.2297C219.871 86.2766 219.929 86.3526 219.953 86.4417C219.977 86.5308 219.966 86.6259 219.921 86.7066C219.891 86.7603 219.847 86.8049 219.793 86.8354C219.74 86.866 219.679 86.8814 219.618 86.8801ZM213.887 83.5416C213.826 83.5418 213.766 83.5243 213.714 83.491L210.823 81.8218C210.783 81.799 210.749 81.7686 210.72 81.7323C210.692 81.696 210.672 81.6545 210.66 81.6102C210.647 81.5659 210.644 81.5197 210.65 81.4742C210.656 81.4286 210.67 81.3847 210.693 81.3448C210.716 81.305 210.746 81.27 210.783 81.2419C210.819 81.2138 210.861 81.1931 210.905 81.181C210.949 81.1689 210.995 81.1657 211.041 81.1715C211.086 81.1773 211.13 81.192 211.17 81.2148L214.061 82.884C214.141 82.9322 214.199 83.0096 214.223 83.0999C214.248 83.1901 214.236 83.2863 214.191 83.3682C214.155 83.4142 214.109 83.4508 214.056 83.4747C214.003 83.4987 213.945 83.5092 213.887 83.5055V83.5416Z" fill="#008080"/>
<path d="M241.137 99.4029C241.077 99.4024 241.017 99.3875 240.964 99.3596L239.519 98.5069C239.479 98.4838 239.444 98.453 239.417 98.4165C239.389 98.38 239.369 98.3383 239.358 98.294C239.346 98.2497 239.344 98.2035 239.35 98.1582C239.357 98.1129 239.372 98.0693 239.396 98.0299C239.417 97.9901 239.447 97.955 239.483 97.9267C239.518 97.8985 239.559 97.8777 239.603 97.8656C239.647 97.8535 239.693 97.8502 239.738 97.8561C239.783 97.862 239.826 97.8769 239.865 97.8999L241.311 98.7526C241.35 98.7757 241.385 98.8064 241.412 98.8429C241.44 98.8795 241.46 98.9211 241.471 98.9654C241.483 99.0098 241.485 99.0559 241.479 99.1013C241.472 99.1466 241.457 99.1902 241.433 99.2295C241.403 99.2812 241.36 99.3242 241.308 99.3545C241.256 99.3849 241.197 99.4015 241.137 99.4029Z" fill="#008080"/>
<g opacity="0.3">
<path d="M208.157 80.1601C208.096 80.1603 208.035 80.1428 207.984 80.1095L206.538 79.2568C206.499 79.2337 206.464 79.203 206.437 79.1665C206.409 79.1299 206.389 79.0883 206.378 79.0439C206.366 78.9996 206.364 78.9534 206.37 78.9081C206.377 78.8628 206.392 78.8192 206.416 78.7799C206.438 78.7406 206.468 78.7062 206.504 78.6787C206.54 78.6512 206.581 78.6311 206.625 78.6197C206.668 78.6083 206.714 78.6057 206.759 78.6121C206.803 78.6185 206.847 78.6338 206.885 78.657L208.331 79.5097C208.398 79.5472 208.451 79.6062 208.482 79.6774C208.512 79.7486 208.518 79.8279 208.498 79.9026C208.478 79.9774 208.434 80.0434 208.372 80.09C208.31 80.1367 208.234 80.1613 208.157 80.1601Z" fill="black"/>
<path d="M236.809 96.8813C236.75 96.8824 236.691 96.8647 236.643 96.8307L233.752 95.1615C233.712 95.1387 233.677 95.1083 233.649 95.072C233.621 95.0357 233.6 94.9943 233.588 94.95C233.576 94.9057 233.573 94.8595 233.579 94.8139C233.585 94.7684 233.599 94.7244 233.622 94.6846C233.645 94.6447 233.675 94.6097 233.712 94.5816C233.748 94.5535 233.789 94.5328 233.834 94.5208C233.878 94.5087 233.924 94.5054 233.97 94.5112C234.015 94.517 234.059 94.5317 234.099 94.5545L236.99 96.231C237.069 96.2778 237.127 96.3539 237.152 96.443C237.176 96.5321 237.164 96.6271 237.12 96.7079C237.088 96.7617 237.042 96.806 236.988 96.8365C236.933 96.8669 236.871 96.8824 236.809 96.8813ZM231.079 93.5356C231.018 93.535 230.959 93.5202 230.905 93.4923L228.015 91.8158C227.934 91.7698 227.875 91.6937 227.851 91.6043C227.826 91.5148 227.839 91.4193 227.885 91.3389C227.931 91.2584 228.007 91.1994 228.096 91.1751C228.186 91.1507 228.281 91.1628 228.362 91.2088L231.252 92.8853C231.32 92.9227 231.373 92.9817 231.403 93.0529C231.434 93.1241 231.439 93.2034 231.419 93.2782C231.399 93.3529 231.355 93.4189 231.293 93.4655C231.231 93.5122 231.156 93.5369 231.079 93.5356ZM225.348 90.1899C225.288 90.1893 225.228 90.1745 225.175 90.1465L222.284 88.4701C222.205 88.4232 222.147 88.3472 222.122 88.2581C222.098 88.169 222.109 88.0739 222.154 87.9931C222.177 87.9536 222.208 87.9191 222.245 87.8915C222.281 87.8639 222.323 87.8438 222.367 87.8324C222.411 87.821 222.458 87.8184 222.503 87.8249C222.548 87.8315 222.592 87.8469 222.631 87.8703L225.522 89.5395C225.601 89.5864 225.659 89.6625 225.684 89.7516C225.708 89.8406 225.696 89.9357 225.652 90.0165C225.622 90.0702 225.577 90.1147 225.524 90.1452C225.471 90.1758 225.41 90.1912 225.348 90.1899ZM219.618 86.8803C219.557 86.8797 219.498 86.8649 219.444 86.837L216.554 85.1677C216.474 85.1209 216.416 85.0448 216.392 84.9557C216.368 84.8666 216.379 84.7715 216.424 84.6908C216.446 84.6507 216.477 84.6154 216.513 84.5871C216.549 84.5588 216.591 84.538 216.635 84.5259C216.679 84.5138 216.726 84.5106 216.771 84.5166C216.817 84.5226 216.861 84.5376 216.901 84.5607L219.791 86.23C219.871 86.2768 219.929 86.3529 219.953 86.442C219.978 86.5311 219.966 86.6261 219.921 86.7069C219.891 86.7606 219.847 86.8051 219.794 86.8356C219.74 86.8662 219.679 86.8816 219.618 86.8803ZM213.887 83.5418C213.826 83.5421 213.766 83.5245 213.714 83.4912L210.824 81.822C210.784 81.7992 210.749 81.7688 210.721 81.7325C210.693 81.6962 210.672 81.6548 210.66 81.6105C210.648 81.5662 210.644 81.52 210.65 81.4744C210.656 81.4289 210.671 81.3849 210.694 81.3451C210.716 81.3052 210.747 81.2702 210.783 81.2421C210.819 81.214 210.861 81.1933 210.905 81.1813C210.949 81.1692 210.996 81.1659 211.041 81.1717C211.087 81.1775 211.131 81.1922 211.17 81.215L214.061 82.8842C214.141 82.9324 214.199 83.0098 214.224 83.1001C214.248 83.1904 214.236 83.2865 214.191 83.3684C214.156 83.4144 214.109 83.451 214.056 83.475C214.003 83.4989 213.945 83.5095 213.887 83.5057V83.5418Z" fill="black"/>
<path d="M241.137 99.4034C241.077 99.4028 241.017 99.388 240.964 99.3601L239.519 98.5074C239.479 98.4842 239.444 98.4535 239.417 98.417C239.389 98.3805 239.369 98.3388 239.358 98.2945C239.346 98.2502 239.344 98.204 239.35 98.1587C239.357 98.1133 239.372 98.0698 239.396 98.0304C239.417 97.9906 239.447 97.9555 239.483 97.9272C239.518 97.899 239.559 97.8782 239.603 97.8661C239.647 97.8539 239.693 97.8507 239.738 97.8566C239.783 97.8625 239.826 97.8774 239.865 97.9004L241.311 98.753C241.35 98.7762 241.385 98.8069 241.412 98.8434C241.44 98.88 241.46 98.9216 241.471 98.9659C241.483 99.0103 241.485 99.0564 241.479 99.1017C241.472 99.1471 241.457 99.1906 241.433 99.23C241.403 99.2816 241.36 99.3247 241.308 99.355C241.256 99.3853 241.197 99.402 241.137 99.4034Z" fill="black"/>
</g>
<path d="M243.377 151.316C243.317 151.315 243.259 151.298 243.207 151.268C243.155 151.237 243.112 151.194 243.081 151.143C243.036 151.063 243.023 150.968 243.046 150.879C243.069 150.79 243.126 150.714 243.204 150.666L244.649 149.813C244.729 149.769 244.823 149.757 244.911 149.782C244.999 149.806 245.073 149.864 245.119 149.943C245.164 150.024 245.175 150.119 245.151 150.208C245.127 150.297 245.068 150.373 244.989 150.42L243.544 151.273C243.493 151.301 243.436 151.316 243.377 151.316Z" fill="#008080"/>
<path d="M248.154 148.534C248.093 148.534 248.034 148.519 247.982 148.488C247.929 148.458 247.887 148.413 247.858 148.36C247.833 148.321 247.817 148.278 247.81 148.232C247.803 148.187 247.805 148.14 247.817 148.095C247.828 148.051 247.849 148.009 247.877 147.973C247.905 147.936 247.94 147.906 247.98 147.883L251.29 145.947C251.33 145.924 251.374 145.909 251.419 145.903C251.465 145.897 251.511 145.9 251.556 145.912C251.6 145.924 251.642 145.945 251.678 145.973C251.714 146.001 251.744 146.037 251.767 146.077C251.812 146.158 251.823 146.253 251.799 146.342C251.775 146.431 251.716 146.507 251.637 146.554L248.32 148.483C248.27 148.515 248.213 148.533 248.154 148.534ZM254.78 144.668C254.719 144.668 254.659 144.651 254.606 144.621C254.552 144.591 254.508 144.547 254.477 144.494C254.432 144.414 254.421 144.318 254.445 144.229C254.469 144.14 254.527 144.064 254.607 144.017L257.916 142.081C257.997 142.035 258.092 142.023 258.182 142.047C258.271 142.071 258.347 142.13 258.393 142.211C258.439 142.291 258.451 142.387 258.427 142.476C258.403 142.566 258.344 142.642 258.263 142.688L254.954 144.617C254.904 144.658 254.844 144.683 254.78 144.689V144.668Z" fill="#008080"/>
<path d="M261.407 140.802C261.345 140.802 261.285 140.785 261.232 140.755C261.179 140.725 261.134 140.681 261.103 140.628C261.058 140.548 261.047 140.452 261.071 140.363C261.096 140.274 261.154 140.198 261.233 140.151L262.165 139.602L261.233 139.053C261.193 139.03 261.158 139 261.13 138.963C261.102 138.927 261.082 138.886 261.069 138.841C261.057 138.797 261.054 138.751 261.06 138.705C261.066 138.66 261.08 138.616 261.103 138.576C261.126 138.536 261.156 138.501 261.193 138.473C261.229 138.445 261.27 138.424 261.315 138.412C261.359 138.4 261.405 138.397 261.451 138.403C261.496 138.408 261.54 138.423 261.58 138.446L263.025 139.299C263.091 139.339 263.141 139.4 263.17 139.471C263.199 139.543 263.204 139.622 263.184 139.696C263.17 139.75 263.142 139.8 263.105 139.841C263.067 139.883 263.02 139.915 262.968 139.935L261.522 140.751C261.488 140.776 261.449 140.794 261.407 140.802Z" fill="#008080"/>
<path d="M258.531 137.42C258.47 137.421 258.41 137.406 258.357 137.377L255.467 135.7C255.387 135.653 255.329 135.577 255.305 135.488C255.28 135.399 255.292 135.304 255.337 135.223C255.358 135.183 255.388 135.148 255.424 135.12C255.459 135.092 255.5 135.071 255.544 135.059C255.588 135.047 255.634 135.043 255.679 135.049C255.724 135.055 255.767 135.07 255.806 135.093L258.697 136.77C258.775 136.818 258.832 136.894 258.855 136.983C258.878 137.072 258.865 137.167 258.82 137.246C258.791 137.298 258.749 137.341 258.698 137.372C258.648 137.402 258.59 137.419 258.531 137.42ZM252.75 134.067C252.69 134.068 252.632 134.05 252.584 134.016L249.693 132.34C249.615 132.292 249.558 132.215 249.535 132.126C249.512 132.037 249.525 131.943 249.57 131.863C249.616 131.784 249.69 131.726 249.778 131.702C249.866 131.677 249.96 131.688 250.04 131.733L252.93 133.409C253.01 133.458 253.069 133.535 253.093 133.625C253.117 133.716 253.106 133.812 253.06 133.894C253.03 133.944 252.988 133.987 252.938 134.017C252.887 134.047 252.83 134.064 252.771 134.067H252.75Z" fill="#008080"/>
<path d="M247.019 130.707C246.959 130.706 246.899 130.691 246.846 130.664L245.401 129.811C245.322 129.763 245.266 129.686 245.243 129.597C245.22 129.508 245.232 129.414 245.278 129.334C245.323 129.255 245.398 129.197 245.486 129.172C245.574 129.148 245.668 129.159 245.747 129.204L247.193 130.057C247.26 130.094 247.314 130.153 247.344 130.224C247.374 130.295 247.38 130.375 247.36 130.449C247.34 130.524 247.296 130.59 247.234 130.637C247.172 130.683 247.097 130.708 247.019 130.707Z" fill="#008080"/>
<path d="M241.91 180.04C241.85 180.04 241.791 180.024 241.739 179.994C241.687 179.963 241.644 179.919 241.614 179.867C241.569 179.786 241.558 179.691 241.582 179.602C241.606 179.513 241.665 179.437 241.744 179.39L243.189 178.537C243.269 178.493 243.363 178.481 243.451 178.506C243.539 178.53 243.614 178.588 243.659 178.667C243.704 178.748 243.715 178.843 243.691 178.932C243.667 179.021 243.609 179.097 243.529 179.144L242.084 179.997C242.031 180.026 241.971 180.041 241.91 180.04Z" fill="#008080"/>
<path d="M208.641 199.457C208.581 199.457 208.522 199.441 208.47 199.41C208.417 199.38 208.374 199.336 208.345 199.283C208.321 199.244 208.306 199.2 208.3 199.155C208.293 199.11 208.296 199.064 208.307 199.019C208.318 198.975 208.338 198.933 208.366 198.897C208.394 198.86 208.428 198.829 208.468 198.806L211.243 197.188C211.322 197.143 211.416 197.132 211.504 197.156C211.592 197.181 211.667 197.239 211.712 197.318C211.736 197.357 211.751 197.401 211.758 197.446C211.764 197.491 211.762 197.537 211.75 197.582C211.739 197.626 211.719 197.668 211.691 197.704C211.664 197.741 211.629 197.772 211.589 197.795L208.815 199.413C208.761 199.442 208.702 199.457 208.641 199.457ZM214.191 196.219C214.129 196.221 214.069 196.205 214.015 196.175C213.962 196.144 213.917 196.1 213.887 196.046C213.843 195.965 213.831 195.87 213.855 195.781C213.88 195.692 213.938 195.616 214.017 195.569L216.785 193.95C216.825 193.928 216.869 193.913 216.914 193.907C216.96 193.901 217.006 193.905 217.05 193.917C217.095 193.929 217.136 193.949 217.173 193.978C217.209 194.006 217.239 194.041 217.262 194.08C217.285 194.12 217.299 194.164 217.305 194.21C217.311 194.255 217.308 194.302 217.296 194.346C217.284 194.39 217.263 194.432 217.235 194.468C217.207 194.504 217.172 194.535 217.132 194.557L214.357 196.176C214.306 196.205 214.249 196.22 214.191 196.219ZM219.733 192.989C219.673 192.99 219.613 192.974 219.561 192.944C219.509 192.913 219.466 192.869 219.437 192.816C219.389 192.735 219.376 192.639 219.399 192.548C219.422 192.458 219.48 192.38 219.56 192.332L222.306 190.72C222.345 190.697 222.388 190.682 222.432 190.675C222.477 190.669 222.523 190.671 222.567 190.683C222.61 190.694 222.651 190.714 222.687 190.742C222.723 190.769 222.753 190.804 222.776 190.843C222.821 190.923 222.834 191.017 222.811 191.106C222.788 191.195 222.731 191.272 222.653 191.32L219.878 192.939C219.835 192.967 219.785 192.984 219.733 192.989ZM225.276 189.752C225.216 189.751 225.157 189.734 225.105 189.704C225.053 189.673 225.01 189.63 224.98 189.579C224.934 189.499 224.922 189.404 224.944 189.315C224.967 189.226 225.024 189.15 225.102 189.102L227.877 187.483C227.916 187.459 227.959 187.443 228.004 187.436C228.049 187.429 228.095 187.431 228.139 187.442C228.183 187.454 228.224 187.474 228.26 187.503C228.296 187.531 228.325 187.566 228.347 187.606C228.371 187.645 228.388 187.688 228.395 187.734C228.402 187.78 228.399 187.826 228.388 187.871C228.376 187.915 228.356 187.957 228.328 187.994C228.3 188.03 228.264 188.06 228.224 188.083L225.449 189.701C225.398 189.735 225.337 189.753 225.276 189.752ZM230.825 186.515C230.748 186.516 230.673 186.491 230.611 186.445C230.549 186.398 230.505 186.332 230.485 186.257C230.465 186.182 230.47 186.103 230.501 186.032C230.531 185.961 230.584 185.902 230.652 185.864L233.427 184.246C233.466 184.223 233.51 184.208 233.555 184.202C233.6 184.196 233.645 184.199 233.689 184.211C233.733 184.223 233.774 184.244 233.81 184.273C233.845 184.301 233.875 184.336 233.897 184.376C233.941 184.456 233.953 184.552 233.929 184.641C233.904 184.73 233.846 184.806 233.767 184.853L230.977 186.471C230.93 186.496 230.879 186.511 230.825 186.515ZM236.368 183.277C236.307 183.279 236.247 183.264 236.195 183.233C236.143 183.202 236.1 183.158 236.072 183.104C236.048 183.065 236.033 183.021 236.026 182.976C236.02 182.93 236.022 182.884 236.034 182.84C236.045 182.796 236.065 182.754 236.093 182.717C236.12 182.681 236.155 182.65 236.195 182.627L238.969 181.008C239.049 180.964 239.143 180.953 239.231 180.977C239.319 181.001 239.394 181.059 239.439 181.138C239.463 181.178 239.478 181.221 239.484 181.267C239.491 181.312 239.488 181.358 239.477 181.402C239.466 181.447 239.445 181.488 239.418 181.525C239.39 181.561 239.356 181.592 239.316 181.615L236.541 183.234C236.488 183.262 236.428 183.277 236.368 183.277Z" fill="#008080"/>
<path d="M204.407 201.928C204.347 201.926 204.288 201.91 204.236 201.879C204.184 201.849 204.141 201.806 204.11 201.754C204.065 201.675 204.052 201.58 204.075 201.491C204.098 201.402 204.155 201.325 204.233 201.277L205.678 200.425C205.718 200.402 205.761 200.387 205.806 200.381C205.851 200.375 205.897 200.378 205.941 200.39C205.985 200.403 206.026 200.423 206.061 200.452C206.097 200.48 206.126 200.515 206.148 200.555C206.193 200.636 206.204 200.731 206.18 200.82C206.156 200.909 206.098 200.985 206.018 201.032L204.573 201.884C204.522 201.913 204.465 201.928 204.407 201.928Z" fill="#008080"/>
<path d="M202.94 230.681C202.879 230.681 202.82 230.665 202.768 230.634C202.716 230.604 202.673 230.56 202.643 230.507C202.6 230.427 202.588 230.333 202.611 230.245C202.634 230.156 202.689 230.08 202.766 230.03L204.211 229.178C204.291 229.133 204.385 229.122 204.473 229.146C204.561 229.171 204.636 229.229 204.681 229.308C204.726 229.389 204.737 229.484 204.713 229.573C204.689 229.662 204.631 229.738 204.551 229.785L203.106 230.637C203.055 230.666 202.998 230.68 202.94 230.681Z" fill="#008080"/>
<path d="M169.67 250.069C169.61 250.07 169.55 250.055 169.498 250.024C169.445 249.994 169.402 249.949 169.374 249.895C169.351 249.856 169.335 249.812 169.329 249.767C169.322 249.722 169.325 249.676 169.336 249.631C169.348 249.587 169.368 249.545 169.395 249.509C169.423 249.472 169.458 249.442 169.497 249.418L172.272 247.8C172.352 247.755 172.446 247.744 172.533 247.768C172.621 247.793 172.696 247.851 172.742 247.93C172.765 247.969 172.78 248.013 172.787 248.058C172.793 248.103 172.791 248.15 172.779 248.194C172.768 248.238 172.748 248.28 172.72 248.316C172.693 248.353 172.658 248.384 172.619 248.407L169.844 250.025C169.79 250.053 169.731 250.068 169.67 250.069ZM175.213 246.831C175.153 246.831 175.093 246.815 175.041 246.785C174.989 246.754 174.946 246.711 174.917 246.658C174.873 246.578 174.861 246.484 174.884 246.395C174.907 246.307 174.963 246.23 175.04 246.181L177.814 244.562C177.854 244.54 177.898 244.525 177.944 244.519C177.989 244.513 178.035 244.517 178.08 244.529C178.124 244.541 178.166 244.561 178.202 244.59C178.238 244.618 178.269 244.653 178.291 244.693C178.314 244.732 178.329 244.776 178.335 244.822C178.34 244.867 178.337 244.914 178.325 244.958C178.313 245.002 178.292 245.044 178.264 245.08C178.236 245.116 178.201 245.147 178.161 245.169L175.386 246.788C175.333 246.817 175.274 246.832 175.213 246.831ZM180.763 243.601C180.701 243.601 180.64 243.584 180.586 243.553C180.533 243.521 180.489 243.475 180.459 243.421C180.414 243.34 180.403 243.245 180.427 243.156C180.451 243.067 180.51 242.991 180.589 242.944L183.364 241.332C183.403 241.309 183.446 241.294 183.491 241.287C183.535 241.281 183.581 241.284 183.625 241.295C183.668 241.306 183.709 241.326 183.745 241.354C183.781 241.382 183.811 241.416 183.834 241.455C183.879 241.536 183.89 241.631 183.866 241.72C183.841 241.809 183.783 241.885 183.704 241.932L180.936 243.551C180.884 243.584 180.824 243.602 180.763 243.601ZM186.305 240.364C186.228 240.365 186.152 240.341 186.09 240.294C186.029 240.247 185.984 240.181 185.964 240.107C185.944 240.032 185.95 239.953 185.98 239.881C186.011 239.81 186.064 239.751 186.132 239.714L188.907 238.095C188.945 238.071 188.988 238.055 189.033 238.048C189.078 238.041 189.124 238.043 189.168 238.055C189.212 238.066 189.253 238.086 189.289 238.115C189.325 238.143 189.355 238.178 189.376 238.218C189.401 238.257 189.417 238.301 189.424 238.346C189.431 238.392 189.429 238.438 189.417 238.483C189.406 238.527 189.385 238.569 189.357 238.606C189.329 238.642 189.294 238.672 189.253 238.695L186.479 240.313C186.427 240.348 186.367 240.365 186.305 240.364ZM191.855 237.127C191.777 237.128 191.702 237.103 191.64 237.057C191.578 237.01 191.534 236.944 191.514 236.869C191.494 236.795 191.5 236.715 191.53 236.644C191.56 236.573 191.614 236.514 191.681 236.476L194.449 234.858C194.489 234.835 194.533 234.82 194.578 234.814C194.624 234.808 194.67 234.811 194.715 234.823C194.759 234.835 194.801 234.856 194.837 234.884C194.873 234.912 194.903 234.948 194.926 234.988C194.971 235.069 194.982 235.164 194.958 235.253C194.934 235.342 194.875 235.418 194.796 235.465L192.021 237.083C191.97 237.112 191.913 237.127 191.855 237.127ZM197.397 233.889C197.337 233.891 197.277 233.876 197.224 233.845C197.172 233.814 197.129 233.77 197.101 233.716C197.078 233.677 197.062 233.633 197.056 233.588C197.049 233.542 197.052 233.496 197.063 233.452C197.074 233.408 197.095 233.366 197.122 233.329C197.15 233.293 197.184 233.262 197.224 233.239L199.999 231.62C200.078 231.576 200.172 231.565 200.26 231.589C200.348 231.613 200.423 231.671 200.468 231.75C200.512 231.831 200.524 231.925 200.501 232.013C200.478 232.102 200.423 232.178 200.346 232.227L197.571 233.846C197.517 233.874 197.458 233.889 197.397 233.889Z" fill="#008080"/>
<path d="M165.436 252.54C165.376 252.539 165.317 252.522 165.265 252.492C165.214 252.461 165.17 252.418 165.14 252.367C165.094 252.287 165.082 252.192 165.105 252.103C165.128 252.014 165.184 251.938 165.262 251.89L166.708 251.037C166.747 251.014 166.791 250.999 166.837 250.993C166.883 250.987 166.929 250.99 166.973 251.002C167.018 251.014 167.059 251.035 167.096 251.063C167.132 251.092 167.162 251.127 167.185 251.167C167.229 251.248 167.241 251.343 167.217 251.432C167.192 251.521 167.134 251.597 167.055 251.644L165.609 252.497C165.556 252.525 165.496 252.54 165.436 252.54Z" fill="#008080"/>
<path d="M188.242 40.3149C187.21 40.8455 186.067 41.1223 184.907 41.1223C183.747 41.1223 182.603 40.8455 181.572 40.3149C179.736 39.2454 179.736 37.5039 181.572 36.4272C182.603 35.8967 183.747 35.6199 184.907 35.6199C186.067 35.6199 187.21 35.8967 188.242 36.4272C190.084 37.5039 190.084 39.2454 188.242 40.3149Z" fill="#455A64"/>
<path d="M184.91 19.6477V3.99585L205.136 11.8218L184.91 19.6477Z" fill="#008080"/>
<path d="M184.91 39.0719C184.719 39.0719 184.535 38.9957 184.399 38.8602C184.264 38.7247 184.188 38.5409 184.188 38.3493V0.924948C184.156 0.817253 184.15 0.703723 184.17 0.59335C184.191 0.482977 184.236 0.378791 184.303 0.289045C184.371 0.199299 184.458 0.126458 184.558 0.0762879C184.659 0.0261183 184.769 0 184.881 0C184.994 0 185.104 0.0261183 185.205 0.0762879C185.305 0.126458 185.392 0.199299 185.46 0.289045C185.527 0.378791 185.572 0.482977 185.592 0.59335C185.612 0.703723 185.607 0.817253 185.575 0.924948V38.3709C185.57 38.5492 185.5 38.7194 185.377 38.8488C185.254 38.9782 185.088 39.0577 184.91 39.0719Z" fill="#263238"/>
<path d="M150.485 159.084H142.03V172.712H150.485V159.084Z" fill="#FFA8A7"/>
<path d="M155.536 155.962L157.545 158.853C157.632 158.977 157.672 159.128 157.657 159.279C157.643 159.43 157.575 159.571 157.465 159.676C156.962 160.225 156.276 160.572 155.536 160.652V155.962Z" fill="#F28F8F"/>
<path d="M147.067 145.275C147.067 145.275 153.65 140.607 155.738 156.836C157.458 170.328 149.083 167.235 145.968 165.371C142.854 163.506 136.9 157.884 140.816 149.979C142.587 146.387 147.067 145.275 147.067 145.275Z" fill="#FFA8A7"/>
<path d="M153.137 150.47C153.137 150.47 153.188 153.426 150.485 153.57C151.154 154.346 151.493 155.352 151.432 156.374C151.432 158.296 150.774 157.928 150.485 157.559C150.196 157.191 147.197 157.559 147.197 157.559L148.729 160.45C148.917 161.545 148.82 162.67 148.45 163.717C148.079 164.765 147.446 165.7 146.612 166.433C146.612 166.433 142.594 167.539 140.766 166.433C140.766 166.433 135.707 160.818 134.775 156.837C133.843 152.855 133.829 149.379 136.163 147.753C136.163 147.753 136.885 142.731 142.225 142.731C147.566 142.731 149.134 144.104 152.017 143.454C153.188 143.194 154.943 142.348 154.943 143.526C154.943 144.704 153.498 145.694 153.498 145.694C153.498 145.694 154.943 145.614 155.724 145.542C156.504 145.47 158.246 145.21 157.95 147.464C157.653 149.719 155.637 150.861 153.137 150.47Z" fill="#263238"/>
<path d="M136.871 147.934C136.871 147.934 135.469 145.101 133.72 146.734C133.706 146.747 133.695 146.762 133.688 146.778C133.68 146.795 133.676 146.813 133.676 146.832C133.676 146.85 133.68 146.869 133.688 146.885C133.695 146.902 133.706 146.917 133.72 146.929L136.849 148.815L136.871 147.934Z" fill="#263238"/>
<path d="M150.485 157.581V161.967C150.485 161.967 145.947 161.88 145.947 158.52C145.947 155.427 149.596 156.121 150.485 157.581Z" fill="#FFA8A7"/>
<path d="M117.324 271.415C117.324 271.415 117.115 277.246 125.208 279.638C125.208 279.638 126.415 271.415 117.324 271.415Z" fill="#253239"/>
<path d="M123.632 284.537V281.025C123.632 280.284 123.801 279.552 124.126 278.885C124.452 278.219 124.926 277.636 125.511 277.181C125.511 277.181 124.312 272.058 119.456 272.361C117.886 272.966 116.534 274.029 115.575 275.411C115.222 275.883 114.975 276.425 114.85 277.001C114.726 277.577 114.726 278.173 114.853 278.749C114.821 278.619 114.826 278.482 114.867 278.355C114.908 278.227 114.984 278.114 115.085 278.027C115.187 277.94 115.312 277.883 115.444 277.862C115.576 277.842 115.712 277.859 115.835 277.911L117.006 278.395C117.736 278.695 118.382 279.169 118.886 279.776C119.39 280.383 119.737 281.105 119.897 281.878L121.342 288.707C121.462 289.342 121.775 289.924 122.238 290.375C122.701 290.826 123.291 291.124 123.929 291.229H124.03C124.162 291.236 124.295 291.236 124.427 291.229H124.536C124.666 291.224 124.797 291.212 124.926 291.192H125.034C125.168 291.171 125.301 291.142 125.432 291.106H125.519C125.68 291.059 125.837 290.999 125.988 290.925C126.152 290.851 126.309 290.764 126.458 290.665L127.686 289.863C127.865 289.747 128.01 289.587 128.108 289.398C128.205 289.21 128.252 288.999 128.243 288.786C128.149 287.399 127.535 284.537 123.632 284.537Z" fill="#37474F"/>
<path d="M127.643 289.848L126.415 290.65C126.265 290.75 126.108 290.837 125.945 290.911C125.794 290.984 125.637 291.045 125.475 291.091H125.388C125.258 291.127 125.125 291.156 124.991 291.178H124.883H124.731H124.492H124.239H123.987H123.907C123.281 291.075 122.7 290.786 122.241 290.347C121.782 289.909 121.466 289.342 121.335 288.721C121.338 288.7 121.338 288.678 121.335 288.656L119.889 281.827C119.729 281.055 119.382 280.333 118.878 279.725C118.374 279.118 117.729 278.644 116.999 278.344L115.828 277.86C115.315 277.629 114.983 278.026 114.773 278.229C114.58 278.4 114.44 278.623 114.371 278.872C114.301 279.121 114.306 279.384 114.383 279.631L115.828 285.982C116.151 287.433 117.011 288.709 118.235 289.552L121.32 291.669C121.823 291.989 122.389 292.194 122.98 292.27C123.571 292.347 124.171 292.292 124.738 292.11H124.753H124.825C125.043 292.034 125.255 291.942 125.461 291.836L126.783 291.113C127.068 290.958 127.315 290.742 127.505 290.479C127.695 290.216 127.823 289.914 127.881 289.595C127.818 289.693 127.737 289.779 127.643 289.848Z" fill="#263238"/>
<path d="M118.451 272.824C118.451 272.824 124.001 273.358 123.979 279.226L127.426 273.843L121.768 267.932L118.451 272.824Z" fill="#FFA8A7"/>
<path d="M130.794 204.898V214.248C130.794 217.972 130.962 221.686 131.299 225.391L132.434 237.907C132.579 239.433 132.388 240.973 131.874 242.418C131.359 243.862 130.534 245.176 129.457 246.268C127.735 248.032 126.301 250.056 125.208 252.265C121.775 259.022 117.324 271.407 117.324 271.407C117.324 271.407 125.208 271.407 125.208 279.631L143.165 249.657C144.436 247.532 145.235 245.159 145.506 242.698L149.322 208.439L130.794 204.898Z" fill="#455A64"/>
<path d="M170.321 258.812C170.653 259.411 171.174 259.883 171.802 260.156H171.874C173.18 260.735 174.659 260.784 176.001 260.294L187.432 256.139C188.242 255.784 188.256 254.578 188.206 254.079H170.321V258.812Z" fill="#263238"/>
<path d="M171 252.041C171 252.041 169.389 253.718 169.981 256.89C170.078 257.39 170.295 257.86 170.613 258.257C170.932 258.655 171.342 258.97 171.809 259.174L171.882 259.21C173.188 259.786 174.667 259.832 176.008 259.34L187.44 255.185C187.718 255.077 187.947 254.869 188.081 254.602C188.214 254.335 188.243 254.027 188.162 253.74C187.635 251.882 185.77 250.011 181.449 251.145C180.357 251.504 179.231 251.746 178.089 251.868L177.504 250.914L171 252.041Z" fill="#37474F"/>
<path d="M178.089 251.832C177.489 253.436 175.199 254 172.554 253.111C171.95 252.905 171.387 252.594 170.892 252.193V245.856H178.118L178.089 251.832Z" fill="#FFA8A7"/>
<path d="M138.974 207.29V208.359C138.965 211.588 140.022 214.729 141.983 217.294C143.943 219.859 146.696 221.705 149.813 222.544L168.225 227.415C168.487 227.483 168.718 227.637 168.883 227.852C169.048 228.066 169.137 228.329 169.136 228.6V250.582C169.136 250.582 178.024 255.048 180.596 248.125V224.38C180.603 222.443 180.026 220.55 178.941 218.946C177.856 217.343 176.312 216.104 174.512 215.39L155.399 207.89L138.974 207.29Z" fill="#455A64"/>
<path d="M147.024 228.954L147.746 221.684C147.746 221.684 141.821 219.697 140.91 216.973C140.607 219.798 144.574 222.385 145.571 222.963C145.94 225.153 147.024 228.954 147.024 228.954Z" fill="#37474F"/>
<path d="M140.462 172.416C140.462 172.416 140.628 168.926 141.828 168.926C142.789 168.926 147.66 170.306 149.538 170.855C150.051 170.995 150.492 171.323 150.774 171.773C151.525 172.864 151.967 174.137 152.053 175.458L140.462 172.416Z" fill="#37474F"/>
<path d="M161.982 184.39C161.982 184.39 167.423 178.855 168.189 179.332C169.128 179.924 167.994 182.056 167.134 182.945L171.405 180.155C171.538 180.068 171.687 180.009 171.844 179.983C172.001 179.956 172.161 179.963 172.315 180.001C172.469 180.04 172.614 180.11 172.74 180.208C172.865 180.305 172.969 180.428 173.045 180.567C174.237 182.735 175.524 187.793 164.114 191.146L161.982 184.39Z" fill="#FFA8A7"/>
<path d="M165.725 191.804C165.725 191.804 162.892 193.105 159.221 194.695C153.065 197.383 144.545 200.931 142.984 200.678C138.89 200.019 134.848 199.073 130.888 197.845L131.675 186.89L143.468 190.359L161.144 183.429L161.866 183.14C166.852 184.975 165.725 191.804 165.725 191.804Z" fill="#263238"/>
<path d="M138.988 170.602L134.587 169.396C133.873 169.203 133.125 169.177 132.4 169.322C131.674 169.467 130.993 169.777 130.408 170.229C129.822 170.682 129.35 171.263 129.027 171.928C128.704 172.593 128.54 173.324 128.546 174.064V175.632C128.542 177.666 129.013 179.673 129.921 181.493C130.83 183.314 132.15 184.897 133.778 186.117L138.901 189.947L138.988 170.602Z" fill="#37474F"/>
<path d="M157.834 200.801L161.281 216.308C161.281 216.308 151.735 221.099 141.394 218.078C131.054 215.058 129.833 212.464 129.833 212.464L130.888 197.86L131.675 186.905L132.6 174.136C132.641 173.514 132.817 172.909 133.116 172.362C133.415 171.816 133.83 171.342 134.332 170.973C134.834 170.603 135.411 170.349 136.021 170.226C136.632 170.103 137.263 170.116 137.868 170.263L152.364 173.876C154.928 174.534 157.199 176.028 158.818 178.122C160.437 180.216 161.312 182.791 161.302 185.438L159.221 194.723L157.834 200.801Z" fill="#263238"/>
<path d="M164.735 219.191C164.735 219.191 170.422 224.351 170.061 225.182C169.699 226.013 167.351 225.124 166.448 224.315L169.432 228.47C169.526 228.599 169.592 228.747 169.626 228.903C169.661 229.059 169.663 229.221 169.632 229.378C169.602 229.535 169.54 229.685 169.449 229.817C169.359 229.949 169.242 230.061 169.107 230.146C167.04 231.468 162.09 233.036 158.181 221.699L164.735 219.191Z" fill="#FFA8A7"/>
<path d="M154.568 174.671C154.568 174.671 149.3 184.788 147.616 200.866C147.349 203.402 157.61 223.361 157.61 223.361C157.61 223.361 164.417 224.134 165.956 219.025L157.834 200.822L161.238 186.124C161.543 184.838 161.518 183.496 161.165 182.222C160.464 179.7 158.716 175.87 154.568 174.671Z" fill="#37474F"/>
<path d="M261.811 47.2592L269.103 51.4504V48.8417C269.103 48.6538 269.103 48.4732 269.103 48.2853C269.103 48.0974 269.103 47.9312 269.103 47.765V47.7C269.37 44.2459 271.957 42.9163 275.122 44.7662C276.563 45.6529 277.796 46.8411 278.735 48.2492C279.458 43.5522 283.237 41.8612 287.818 44.5349C292.913 47.5049 297.039 54.7238 297.039 60.6637V66.2568C297.044 66.6941 297.161 67.1228 297.379 67.5023C297.596 67.8817 297.907 68.1992 298.282 68.4246L302.574 70.9682C303.508 71.5241 304.281 72.3134 304.817 73.2587C305.353 74.2039 305.633 75.2724 305.631 76.359C305.636 76.8084 305.521 77.2512 305.299 77.6421C305.077 78.033 304.756 78.3581 304.367 78.5842C303.979 78.8104 303.537 78.9296 303.088 78.9297C302.638 78.9297 302.197 78.8107 301.808 78.5846L261.941 55.3164C260.879 54.6921 259.999 53.8007 259.388 52.7308C258.777 51.6608 258.456 50.4496 258.458 49.2175C258.46 48.8254 258.564 48.4407 258.76 48.1011C258.956 47.7616 259.237 47.479 259.576 47.2813C259.914 47.0835 260.299 46.9775 260.691 46.9736C261.083 46.9698 261.469 47.0682 261.811 47.2592Z" fill="#E6E6E6"/>
<path d="M256.608 13.2674L261.327 15.9772V14.2935C261.327 14.1706 261.327 14.055 261.327 13.9394C261.327 13.8238 261.327 13.7082 261.327 13.5925C261.5 11.3596 263.17 10.507 265.215 11.6993C266.132 12.2598 266.92 13.0085 267.527 13.896C267.99 10.861 270.418 9.76989 273.395 11.4969C276.683 13.4119 279.349 18.08 279.349 21.9171V25.5302C279.344 25.8202 279.416 26.1064 279.557 26.3601C279.698 26.6138 279.903 26.8259 280.151 26.9754L282.926 28.6157C283.529 28.9754 284.027 29.4856 284.373 30.0962C284.719 30.7069 284.9 31.397 284.899 32.0987C284.902 32.3895 284.828 32.676 284.685 32.929C284.542 33.182 284.334 33.3926 284.083 33.5394C283.832 33.6862 283.547 33.764 283.256 33.7648C282.965 33.7656 282.679 33.6894 282.427 33.544L256.681 18.5136C255.996 18.1108 255.429 17.5362 255.034 16.8467C254.64 16.1572 254.433 15.3767 254.433 14.5825C254.421 14.3224 254.479 14.0638 254.601 13.834C254.724 13.6042 254.906 13.4118 255.129 13.2771C255.352 13.1423 255.607 13.0703 255.867 13.0686C256.128 13.0669 256.384 13.1356 256.608 13.2674Z" fill="#E6E6E6"/>
</svg>
