<svg width="16" height="17" viewBox="0 0 16 17" fill="none" xmlns="http://www.w3.org/2000/svg">
<path d="M12.5 1.5C12.3674 1.5 12.2402 1.55268 12.1464 1.64645C12.0527 1.74021 12 1.86739 12 2V3H10V2C10 1.86739 9.94732 1.74021 9.85355 1.64645C9.75979 1.55268 9.63261 1.5 9.5 1.5C9.36739 1.5 9.24021 1.55268 9.14645 1.64645C9.05268 1.74021 9 1.86739 9 2V3H7V2C7 1.86739 6.94732 1.74021 6.85355 1.64645C6.75979 1.55268 6.63261 1.5 6.5 1.5C6.36739 1.5 6.24021 1.55268 6.14645 1.64645C6.05268 1.74021 6 1.86739 6 2V3H4V2C4 1.86739 3.94732 1.74021 3.85355 1.64645C3.75979 1.55268 3.63261 1.5 3.5 1.5C3.36739 1.5 3.24021 1.55268 3.14645 1.64645C3.05268 1.74021 3 1.86739 3 2V15C3 15.1326 3.05268 15.2598 3.14645 15.3536C3.24021 15.4473 3.36739 15.5 3.5 15.5C3.63261 15.5 3.75979 15.4473 3.85355 15.3536C3.94732 15.2598 4 15.1326 4 15V14H6V15C6 15.1326 6.05268 15.2598 6.14645 15.3536C6.24021 15.4473 6.36739 15.5 6.5 15.5C6.63261 15.5 6.75979 15.4473 6.85355 15.3536C6.94732 15.2598 7 15.1326 7 15V14H9V15C9 15.1326 9.05268 15.2598 9.14645 15.3536C9.24021 15.4473 9.36739 15.5 9.5 15.5C9.63261 15.5 9.75979 15.4473 9.85355 15.3536C9.94732 15.2598 10 15.1326 10 15V14H12V15C12 15.1326 12.0527 15.2598 12.1464 15.3536C12.2402 15.4473 12.3674 15.5 12.5 15.5C12.6326 15.5 12.7598 15.4473 12.8536 15.3536C12.9473 15.2598 13 15.1326 13 15V2C13 1.86739 12.9473 1.74021 12.8536 1.64645C12.7598 1.55268 12.6326 1.5 12.5 1.5ZM4 4H12V13H4V4ZM8 11.5C8.08632 11.5 8.17118 11.4777 8.24631 11.4352C8.32144 11.3927 8.3843 11.3315 8.42875 11.2575L9.92875 8.7575C9.97547 8.67973 10.0002 8.59072 10.0002 8.5C10.0002 8.40928 9.97547 8.32027 9.92875 8.2425L8.42875 5.7425C8.38433 5.66846 8.32149 5.60719 8.24635 5.56464C8.17122 5.5221 8.08634 5.49974 8 5.49974C7.91366 5.49974 7.82878 5.5221 7.75365 5.56464C7.67851 5.60719 7.61567 5.66846 7.57125 5.7425L6.07125 8.2425C6.02453 8.32027 5.99985 8.40928 5.99985 8.5C5.99985 8.59072 6.02453 8.67973 6.07125 8.7575L7.57125 11.2575C7.6157 11.3315 7.67856 11.3927 7.75369 11.4352C7.82882 11.4777 7.91368 11.5 8 11.5ZM8 6.97188L8.91687 8.5L8 10.0281L7.08313 8.5L8 6.97188Z" fill="#525355"/>
</svg>
