<svg width="17" height="17" viewBox="0 0 17 17" fill="none" xmlns="http://www.w3.org/2000/svg">
<g clip-path="url(#clip0_1008_29184)">
<path d="M12.0167 9.1665H11.4167C11.063 9.1665 10.7239 9.02603 10.4739 8.77598C10.2238 8.52593 10.0833 8.18679 10.0833 7.83317C10.0833 8.18679 9.94286 8.52593 9.69281 8.77598C9.44276 9.02603 9.10362 9.1665 8.75 9.1665C8.39638 9.1665 8.05724 9.02603 7.80719 8.77598C7.55714 8.52593 7.41667 8.18679 7.41667 7.83317C7.41667 8.18679 7.27619 8.52593 7.02614 8.77598C6.77609 9.02603 6.43696 9.1665 6.08333 9.1665H5.48333M4.41667 3.1665H6.41667M6.56133 14.4998H10.9387C11.3909 14.4998 11.8358 14.6149 12.2314 14.8341C12.627 15.0534 12.9603 15.3696 13.2 15.7532V15.7532C13.2311 15.8029 13.2857 15.8332 13.3443 15.8332H13.7849C14.3179 15.8332 14.75 15.4011 14.75 14.8681V3.16651C14.75 2.06194 13.8546 1.1665 12.75 1.1665H4.75C3.64543 1.1665 2.75 2.06193 2.75 3.1665V14.8681C2.75 15.4011 3.18209 15.8332 3.7151 15.8332H4.15566C4.21435 15.8332 4.2689 15.8029 4.3 15.7532V15.7532C4.53971 15.3696 4.87303 15.0534 5.26862 14.8341C5.6642 14.6149 6.10905 14.4998 6.56133 14.4998ZM8.75 11.8332C7.86595 11.8332 7.0181 11.482 6.39298 10.8569C5.76786 10.2317 5.41667 9.38389 5.41667 8.49984C5.41667 7.61578 5.76786 6.76794 6.39298 6.14281C7.0181 5.51769 7.86595 5.1665 8.75 5.1665C9.63406 5.1665 10.4819 5.51769 11.107 6.14281C11.7321 6.76794 12.0833 7.61578 12.0833 8.49984C12.0833 9.38389 11.7321 10.2317 11.107 10.8569C10.4819 11.482 9.63406 11.8332 8.75 11.8332Z" stroke="#525355"/>
</g>
<defs>
<clipPath id="clip0_1008_29184">
<rect width="16" height="16" fill="white" transform="translate(0.75 0.5)"/>
</clipPath>
</defs>
</svg>
