<svg width="32" height="32" viewBox="0 0 32 32" fill="none" xmlns="http://www.w3.org/2000/svg">
<path opacity="0.5" d="M4 13.3334C4 8.30535 4 5.79069 5.56267 4.22935C7.124 2.66669 9.63867 2.66669 14.6667 2.66669H17.3333C22.3613 2.66669 24.876 2.66669 26.4373 4.22935C28 5.79069 28 8.30535 28 13.3334V18.6667C28 23.6947 28 26.2094 26.4373 27.7707C24.876 29.3334 22.3613 29.3334 17.3333 29.3334H14.6667C9.63867 29.3334 7.124 29.3334 5.56267 27.7707C4 26.2094 4 23.6947 4 18.6667V13.3334Z" fill="#FD9549"/>
<path d="M9.66663 8C9.66663 7.73478 9.77198 7.48043 9.95952 7.29289C10.1471 7.10536 10.4014 7 10.6666 7H21.3333C21.5985 7 21.8529 7.10536 22.0404 7.29289C22.2279 7.48043 22.3333 7.73478 22.3333 8C22.3333 8.26522 22.2279 8.51957 22.0404 8.70711C21.8529 8.89464 21.5985 9 21.3333 9H10.6666C10.4014 9 10.1471 8.89464 9.95952 8.70711C9.77198 8.51957 9.66663 8.26522 9.66663 8Z" fill="#C25302"/>
<rect x="9.33337" y="12" width="13.3333" height="13.3333" rx="6.66667" fill="#C25302"/>
<path d="M16.0534 18.56C16.6425 18.56 17.12 18.0825 17.12 17.4934C17.12 16.9043 16.6425 16.4267 16.0534 16.4267C15.4643 16.4267 14.9867 16.9043 14.9867 17.4934C14.9867 18.0825 15.4643 18.56 16.0534 18.56Z" fill="#FD9549"/>
<path d="M16.0535 19.0933C14.9847 19.0933 14.1143 19.8101 14.1143 20.6933C14.1143 20.7531 14.1612 20.8 14.2209 20.8H17.886C17.9457 20.8 17.9927 20.7531 17.9927 20.6933C17.9927 19.8101 17.1223 19.0933 16.0535 19.0933Z" fill="#FD9549"/>
<rect x="9.33337" y="12" width="13.3333" height="13.3333" rx="6.66667" stroke="#FFEDE1" stroke-width="2.4"/>
</svg>
