<svg width="20" height="20" viewBox="0 0 20 20" fill="none" xmlns="http://www.w3.org/2000/svg">
<path d="M18.3332 17.7085H1.6665C1.32484 17.7085 1.0415 17.9918 1.0415 18.3335C1.0415 18.6752 1.32484 18.9585 1.6665 18.9585H18.3332C18.6748 18.9585 18.9582 18.6752 18.9582 18.3335C18.9582 17.9918 18.6748 17.7085 18.3332 17.7085Z" fill="#008080"/>
<path d="M14.1667 1.6665H5.83333C3.33333 1.6665 2.5 3.15817 2.5 4.99984V18.3332H17.5V4.99984C17.5 3.15817 16.6667 1.6665 14.1667 1.6665ZM8.33333 14.3748H5.83333C5.49167 14.3748 5.20833 14.0915 5.20833 13.7498C5.20833 13.4082 5.49167 13.1248 5.83333 13.1248H8.33333C8.675 13.1248 8.95833 13.4082 8.95833 13.7498C8.95833 14.0915 8.675 14.3748 8.33333 14.3748ZM8.33333 10.6248H5.83333C5.49167 10.6248 5.20833 10.3415 5.20833 9.99984C5.20833 9.65817 5.49167 9.37484 5.83333 9.37484H8.33333C8.675 9.37484 8.95833 9.65817 8.95833 9.99984C8.95833 10.3415 8.675 10.6248 8.33333 10.6248ZM8.33333 6.87484H5.83333C5.49167 6.87484 5.20833 6.5915 5.20833 6.24984C5.20833 5.90817 5.49167 5.62484 5.83333 5.62484H8.33333C8.675 5.62484 8.95833 5.90817 8.95833 6.24984C8.95833 6.5915 8.675 6.87484 8.33333 6.87484ZM14.1667 14.3748H11.6667C11.325 14.3748 11.0417 14.0915 11.0417 13.7498C11.0417 13.4082 11.325 13.1248 11.6667 13.1248H14.1667C14.5083 13.1248 14.7917 13.4082 14.7917 13.7498C14.7917 14.0915 14.5083 14.3748 14.1667 14.3748ZM14.1667 10.6248H11.6667C11.325 10.6248 11.0417 10.3415 11.0417 9.99984C11.0417 9.65817 11.325 9.37484 11.6667 9.37484H14.1667C14.5083 9.37484 14.7917 9.65817 14.7917 9.99984C14.7917 10.3415 14.5083 10.6248 14.1667 10.6248ZM14.1667 6.87484H11.6667C11.325 6.87484 11.0417 6.5915 11.0417 6.24984C11.0417 5.90817 11.325 5.62484 11.6667 5.62484H14.1667C14.5083 5.62484 14.7917 5.90817 14.7917 6.24984C14.7917 6.5915 14.5083 6.87484 14.1667 6.87484Z" fill="#008080"/>
</svg>
