<svg width="16" height="16" viewBox="0 0 16 16" fill="none" xmlns="http://www.w3.org/2000/svg">
<path d="M13.8632 4.52293L13.5034 4.17579L13.8632 4.52293C14.0458 4.33367 14.1478 4.08097 14.1478 3.81801C14.1478 3.55504 14.0458 3.30234 13.8632 3.11309L13.5085 3.45526L13.8632 3.11308C13.6807 2.92383 13.4318 2.81279 13.169 2.80333L13.1613 2.80305C13.2912 2.80428 13.4197 2.83044 13.5398 2.88016C13.6629 2.93115 13.7749 3.00592 13.8692 3.1002C13.9634 3.19447 14.0382 3.3064 14.0892 3.42959C14.1402 3.55277 14.1664 3.6848 14.1663 3.81812V3.81867C14.1665 3.98463 14.1258 4.14807 14.048 4.29463C13.9701 4.4412 13.8575 4.5664 13.7199 4.65925L13.4997 4.80793V4.83301H13.16L13.169 4.83268C13.4318 4.82323 13.6807 4.71218 13.8632 4.52293ZM3.5489 2.11711L3.19535 2.47067L3.5489 2.11711C3.36699 1.9352 3.12027 1.83301 2.86301 1.83301C3.28189 1.83301 3.64016 2.09885 3.77547 2.47303L3.89479 2.80301H3.83301C3.83301 2.54575 3.73081 2.29902 3.5489 2.11711ZM4.41879 11.5806C4.48388 11.6456 4.553 11.7058 4.62555 11.7607L3.83301 11.1646L3.83301 10.1673C3.83327 10.6974 4.04395 11.2057 4.41879 11.5806ZM4.63589 11.7685C4.97951 12.0253 5.39899 12.1663 5.83301 12.1663L5.83229 12.1663C5.40088 12.167 4.98098 12.0273 4.63589 11.7685ZM6.83301 8.30634V8.30631C6.83301 8.28223 6.83822 8.25845 6.84829 8.23658C6.85836 8.21472 6.87304 8.19529 6.89134 8.17964L6.89163 8.1794L8.66636 6.65909L10.4415 8.17921C10.4598 8.19488 10.4744 8.21431 10.4845 8.23617C10.4945 8.25804 10.4997 8.28182 10.4997 8.30588V8.30634V10.1663H9.83301V9.66634C9.83301 9.44533 9.74521 9.23337 9.58893 9.07709C9.43265 8.9208 9.22069 8.83301 8.99967 8.83301H8.33301C8.11199 8.83301 7.90003 8.9208 7.74375 9.07709L8.07011 9.40344L7.74375 9.07709C7.58747 9.23337 7.49967 9.44533 7.49967 9.66634V10.1663H6.83301V8.30634Z" fill="#525355" stroke="#525355"/>
</svg>
