<svg width="342" height="326" viewBox="0 0 342 326" fill="none" xmlns="http://www.w3.org/2000/svg">
<path d="M287.172 89.114C305.683 125.998 299.827 172.561 276.686 206.74C253.544 240.92 215.058 263.064 174.578 271.095C145.687 276.852 114.597 275.681 88.1994 262.603C61.8016 249.525 41.04 223.226 39.461 193.806C38.8566 182.692 41.2138 170.891 48.6254 162.58C60.4644 149.336 80.682 148.868 98.4442 149.412C116.206 149.956 136.401 149.548 148.308 136.349C157.45 126.21 158.795 111.5 163.615 98.7241C171.805 77.003 191.569 60.0416 214.28 55.2441C217.421 54.5886 220.605 54.1594 223.807 53.9597C248.785 52.4034 272.478 65.2925 285.586 86.583L287.172 89.114Z" fill="#EBEBEB"/>
<path d="M342 320.763C342 320.869 265.436 320.959 171.011 320.959C76.5868 320.959 0 320.869 0 320.763C0 320.657 76.549 320.567 171.011 320.567C265.474 320.567 342 320.65 342 320.763Z" fill="#263238"/>
<path d="M231.566 101.701H107.254C102.434 101.701 98.5273 105.608 98.5273 110.427V311.787C98.5273 316.607 102.434 320.514 107.254 320.514H231.566C236.386 320.514 240.293 316.607 240.293 311.787V110.427C240.293 105.608 236.386 101.701 231.566 101.701Z" fill="#455A64"/>
<path d="M173.754 310.337C173.678 311.396 173.294 312.41 172.649 313.255C172.004 314.099 171.127 314.736 170.125 315.089C169.123 315.442 168.04 315.495 167.009 315.241C165.978 314.987 165.043 314.437 164.32 313.659C163.596 312.882 163.115 311.91 162.937 310.863C162.758 309.816 162.888 308.739 163.313 307.766C163.737 306.792 164.436 305.963 165.325 305.381C166.213 304.799 167.252 304.489 168.314 304.489C169.81 304.546 171.222 305.194 172.242 306.29C173.261 307.386 173.805 308.841 173.754 310.337Z" fill="#263238"/>
<path d="M189.832 108.002H148.981C148.472 108.002 148.059 108.415 148.059 108.924V109.498C148.059 110.007 148.472 110.419 148.981 110.419H189.832C190.341 110.419 190.754 110.007 190.754 109.498V108.924C190.754 108.415 190.341 108.002 189.832 108.002Z" fill="#263238"/>
<path d="M236.182 114.258H103.363V298.868H236.182V114.258Z" fill="#263238"/>
<path d="M201.701 279.814L202.192 279.769C202.669 279.739 203.144 279.676 203.612 279.58C204.37 279.418 205.106 279.164 205.803 278.824C206.76 278.373 207.632 277.76 208.379 277.011C209.325 276.079 210.062 274.956 210.54 273.717C211.099 272.244 211.308 270.661 211.152 269.093C210.983 267.174 210.234 265.352 209.002 263.87C207.771 262.387 206.118 261.316 204.262 260.798C203.746 260.658 203.221 260.557 202.69 260.496C202.146 260.496 201.602 260.435 201.036 260.443H197.591H190.285H174.155H137.202C135.601 260.454 134.027 260.864 132.624 261.636C131.249 262.415 130.092 263.527 129.259 264.869C128.426 266.212 127.944 267.742 127.856 269.32C127.734 270.864 127.969 272.415 128.544 273.853C129.131 275.24 130.034 276.472 131.181 277.449C132.315 278.398 133.655 279.068 135.094 279.406C136.527 279.664 137.985 279.753 139.439 279.671H143.722L173.905 279.716L194.251 279.776L199.782 279.814H194.251L173.905 279.875L143.722 279.92H137.217C136.847 279.92 136.462 279.92 136.092 279.852C135.718 279.805 135.348 279.74 134.981 279.655C133.483 279.306 132.088 278.61 130.909 277.623C129.714 276.607 128.773 275.326 128.159 273.883C127.566 272.402 127.321 270.805 127.441 269.214C127.54 267.603 128.047 266.043 128.914 264.681C129.785 263.283 130.997 262.129 132.435 261.327C133.897 260.518 135.539 260.09 137.21 260.08H174.162H190.292H201.043C201.602 260.08 202.169 260.08 202.728 260.133C203.274 260.202 203.815 260.31 204.345 260.458C206.262 261.005 207.965 262.128 209.222 263.675C210.479 265.223 211.229 267.12 211.371 269.108C211.521 270.707 211.296 272.319 210.714 273.815C210.218 275.071 209.461 276.206 208.493 277.147C207.726 277.9 206.833 278.513 205.856 278.96C205.147 279.302 204.398 279.556 203.627 279.716C203.153 279.802 202.673 279.85 202.192 279.859C201.897 279.822 201.701 279.814 201.701 279.814Z" fill="white"/>
<path d="M152.736 268.791L152.268 269.38C152.1 269.195 151.896 269.046 151.669 268.942C151.442 268.838 151.195 268.781 150.946 268.776C150.716 268.76 150.486 268.792 150.27 268.869C150.054 268.947 149.855 269.067 149.688 269.224C149.52 269.381 149.386 269.571 149.294 269.782C149.203 269.992 149.156 270.22 149.156 270.449C149.156 270.679 149.203 270.906 149.294 271.117C149.386 271.328 149.52 271.518 149.688 271.674C149.855 271.831 150.054 271.952 150.27 272.029C150.486 272.106 150.716 272.138 150.946 272.123C151.441 272.112 151.915 271.912 152.268 271.564L152.744 272.093C152.248 272.57 151.588 272.84 150.9 272.848C150.573 272.866 150.245 272.818 149.937 272.705C149.629 272.593 149.348 272.418 149.109 272.193C148.871 271.968 148.681 271.696 148.552 271.395C148.422 271.094 148.355 270.77 148.355 270.442C148.355 270.114 148.422 269.79 148.552 269.488C148.681 269.187 148.871 268.916 149.109 268.691C149.348 268.465 149.629 268.291 149.937 268.178C150.245 268.066 150.573 268.017 150.9 268.035C151.587 268.038 152.246 268.309 152.736 268.791Z" fill="white"/>
<path d="M158.077 270.461C158.102 270.964 157.974 271.463 157.712 271.894C157.45 272.325 157.065 272.667 156.606 272.876C156.148 273.086 155.637 273.154 155.14 273.07C154.643 272.987 154.182 272.757 153.817 272.409C153.452 272.061 153.199 271.612 153.092 271.12C152.984 270.627 153.026 270.114 153.213 269.646C153.4 269.178 153.723 268.776 154.14 268.493C154.557 268.21 155.05 268.059 155.554 268.058C155.878 268.046 156.202 268.099 156.506 268.214C156.81 268.329 157.087 268.503 157.322 268.727C157.557 268.951 157.745 269.22 157.875 269.518C158.005 269.815 158.074 270.136 158.077 270.461ZM153.847 270.461C153.85 270.912 154.033 271.344 154.355 271.661C154.676 271.978 155.11 272.155 155.562 272.153C155.895 272.149 156.22 272.046 156.496 271.857C156.771 271.668 156.984 271.402 157.109 271.093C157.233 270.783 157.264 270.444 157.196 270.117C157.128 269.79 156.965 269.491 156.728 269.256C156.49 269.022 156.188 268.863 155.861 268.799C155.533 268.736 155.194 268.771 154.886 268.899C154.578 269.028 154.315 269.245 154.13 269.523C153.945 269.801 153.847 270.127 153.847 270.461Z" fill="white"/>
<path d="M162.308 272.841L159.77 269.426V272.841H158.969V268.081H159.724L162.278 271.503V268.081H163.033V272.841H162.308Z" fill="white"/>
<path d="M165.156 268.799V270.174H167.317V270.891H165.156V272.841H164.348V268.081H167.551V268.799H165.156Z" fill="white"/>
<path d="M168.261 272.841V268.081H169.062V272.841H168.261Z" fill="white"/>
<path d="M172.432 271.375H171.087V272.81H170.316V268.051H172.243C173.459 268.051 174.162 268.64 174.162 269.675C174.182 269.999 174.098 270.321 173.921 270.593C173.744 270.865 173.484 271.073 173.18 271.186L174.245 272.78H173.331L172.432 271.375ZM172.213 270.665C172.968 270.665 173.369 270.347 173.369 269.705C173.369 269.063 172.953 268.776 172.213 268.776H171.087V270.665H172.213Z" fill="white"/>
<path d="M179.519 272.841V269.282L178.008 272.304H177.479L175.968 269.282V272.841H175.212V268.081H176.21L177.781 271.239L179.345 268.081H180.297V272.841H179.519Z" fill="white"/>
<path d="M182.322 268.799V270.083H184.649V270.838H182.322V272.13H185.004V272.848H181.498V268.088H184.898V268.806L182.322 268.799Z" fill="white"/>
<path d="M187.935 268.081C188.567 268.081 189.172 268.332 189.618 268.778C190.064 269.224 190.315 269.83 190.315 270.461C190.315 271.092 190.064 271.697 189.618 272.144C189.172 272.59 188.567 272.841 187.935 272.841H186.001V268.081H187.935ZM186.787 272.13H187.95C188.168 272.136 188.385 272.096 188.587 272.015C188.788 271.933 188.971 271.811 189.124 271.656C189.277 271.501 189.397 271.316 189.476 271.113C189.554 270.91 189.591 270.693 189.582 270.476C189.589 270.255 189.55 270.036 189.469 269.831C189.387 269.626 189.265 269.44 189.11 269.284C188.954 269.128 188.769 269.005 188.564 268.923C188.36 268.841 188.141 268.801 187.92 268.806H186.787V272.13Z" fill="white"/>
<path d="M118.45 178.612L219.055 177.887L221.858 246.284L117.687 245.317L118.45 178.612Z" fill="#008080"/>
<path d="M118.45 178.612L169.523 137.286L219.055 177.887" fill="#008080"/>
<g opacity="0.3">
<path d="M118.45 178.612L169.523 137.286L219.055 177.887" fill="black"/>
</g>
<path d="M117.687 245.317C117.559 245.204 125.612 236.409 135.676 225.674C145.739 214.938 153.99 206.34 154.118 206.461C154.247 206.582 146.193 215.368 136.129 226.104C126.066 236.84 117.815 245.438 117.687 245.317Z" fill="#263238"/>
<path d="M221.858 246.284C221.729 246.397 213.887 237.785 204.345 227.041C194.803 216.298 187.164 207.496 187.293 207.398C187.421 207.299 195.264 215.897 204.806 226.641C214.348 237.384 221.986 246.171 221.858 246.284Z" fill="#263238"/>
<g opacity="0.5">
<path d="M219.055 177.887L168.533 218.247L118.45 178.612" fill="black"/>
</g>
<path d="M123.519 182.352L123.368 153.091L211.484 150.93L212.444 182.949L168.533 217.718L123.519 182.352Z" fill="#EBEBEB"/>
<path d="M169.765 207.201C166.674 207.209 163.616 206.563 160.792 205.305C157.968 204.048 155.443 202.206 153.381 199.903C151.32 197.6 149.769 194.886 148.831 191.941C147.893 188.995 147.588 185.885 147.938 182.813C148.592 177.036 151.514 171.756 156.062 168.134C160.609 164.511 166.409 162.844 172.186 163.498C177.963 164.153 183.243 167.075 186.866 171.622C190.488 176.17 192.155 181.97 191.501 187.747C190.898 193.092 188.35 198.029 184.341 201.617C180.333 205.205 175.144 207.192 169.765 207.201ZM169.704 164.137C165.624 164.141 161.631 165.326 158.208 167.548C154.785 169.77 152.078 172.934 150.413 176.66C148.748 180.386 148.197 184.514 148.825 188.546C149.452 192.578 151.233 196.343 153.952 199.386C156.671 202.429 160.212 204.621 164.149 205.697C168.085 206.773 172.249 206.688 176.138 205.451C180.027 204.214 183.475 201.879 186.067 198.727C188.659 195.575 190.284 191.741 190.746 187.686C191.061 184.924 190.829 182.126 190.062 179.454C189.296 176.781 188.01 174.286 186.278 172.11C184.546 169.935 182.402 168.122 179.97 166.776C177.537 165.43 174.862 164.577 172.099 164.265C171.305 164.162 170.505 164.104 169.704 164.091V164.137Z" fill="#008080"/>
<path d="M154.821 188.321L158.485 183.833L167.052 190.021L180.977 173.611L185.177 177.305L167.264 197.946L154.821 188.321Z" fill="#008080"/>
<path d="M264.552 217.99C264.589 218.124 264.657 218.248 264.75 218.352C264.843 218.456 264.959 218.537 265.088 218.589C265.217 218.641 265.357 218.662 265.496 218.651C265.635 218.64 265.77 218.598 265.889 218.526C266.121 218.356 266.299 218.124 266.404 217.857C266.508 217.589 266.534 217.297 266.479 217.015C266.358 216.458 266.13 215.929 265.806 215.459C266.027 215.582 266.273 215.654 266.525 215.668C266.778 215.682 267.03 215.638 267.263 215.54C267.496 215.441 267.703 215.291 267.87 215.101C268.036 214.91 268.156 214.685 268.222 214.44C268.288 214.196 268.297 213.94 268.249 213.692C268.201 213.444 268.097 213.21 267.945 213.008C267.793 212.806 267.597 212.642 267.371 212.527C267.146 212.412 266.898 212.35 266.645 212.346C267.363 212.241 268.044 211.958 268.624 211.523C268.907 211.295 269.113 210.986 269.213 210.637C269.313 210.288 269.303 209.916 269.183 209.573C269.109 209.413 268.998 209.273 268.859 209.164C268.72 209.056 268.557 208.981 268.384 208.947C268.211 208.913 268.032 208.921 267.863 208.969C267.693 209.018 267.537 209.106 267.408 209.226C267.799 209.008 268.141 208.712 268.413 208.357C268.546 208.177 268.622 207.962 268.632 207.738C268.641 207.514 268.583 207.293 268.466 207.103C268.288 206.916 268.055 206.79 267.801 206.744C267.547 206.698 267.285 206.733 267.053 206.846C266.591 207.069 266.144 207.321 265.716 207.601C265.171 207.89 264.561 208.03 263.945 208.007C263.33 207.985 262.731 207.8 262.21 207.473L259.392 209.8L264.552 217.99Z" fill="#263238"/>
<path d="M249.495 205.199C248.713 205.458 248.022 205.934 247.502 206.573C246.983 207.211 246.657 207.985 246.563 208.803C246.516 209.1 246.529 209.403 246.6 209.695C246.672 209.986 246.8 210.261 246.979 210.503C247.231 210.762 247.549 210.95 247.898 211.045C248.248 211.141 248.616 211.141 248.966 211.047C249.66 210.854 250.306 210.517 250.862 210.057C251.303 209.803 251.689 209.463 251.995 209.057C252.301 208.65 252.522 208.186 252.645 207.692C252.671 207.19 252.539 206.692 252.268 206.268C251.997 205.844 251.601 205.515 251.134 205.328C250.667 205.151 250.168 205.074 249.67 205.103C249.171 205.131 248.684 205.265 248.24 205.494" fill="#263238"/>
<path d="M251.935 219.153C251.688 220.156 251.266 221.108 250.688 221.964C250.398 222.391 250.021 222.752 249.583 223.024C249.144 223.296 248.653 223.473 248.142 223.543C247.63 223.6 247.113 223.487 246.671 223.223C246.229 222.958 245.886 222.556 245.694 222.077C245.609 222.371 245.449 222.637 245.229 222.849C245.009 223.062 244.737 223.212 244.44 223.286C244.141 223.351 243.828 223.318 243.548 223.193C243.269 223.068 243.036 222.857 242.884 222.591C242.748 222.318 242.717 222.004 242.798 221.71C242.879 221.416 243.066 221.162 243.322 220.997C242.718 221.337 241.962 221.684 241.365 221.329C241.109 221.168 240.921 220.918 240.836 220.627C240.527 219.675 241.116 218.677 241.773 217.922C242.43 217.166 243.201 216.411 243.36 215.444C243.406 214.642 243.285 213.839 243.005 213.087C242.759 212.226 242.722 211.32 242.899 210.442C242.99 210.002 243.171 209.585 243.431 209.218C243.691 208.852 244.024 208.543 244.41 208.312C244.796 208.086 245.24 207.979 245.686 208.004C246.132 208.03 246.561 208.187 246.918 208.455L247.047 209.74L251.958 219.153" fill="#263238"/>
<path d="M263.683 234.128C263.683 234.128 265.444 252.751 263.963 255.177C262.482 257.602 244.319 282.949 244.319 282.949H244.365C244.01 283.1 243.609 283.244 243.216 283.403C242.583 283.627 241.916 283.745 241.244 283.75C240.411 283.789 239.577 283.71 238.766 283.516C238.011 283.259 237.384 284.022 237.777 284.596C238.169 285.171 240.156 285.911 242.619 285.677C245.082 285.443 242.31 288.17 241.32 289.182C240.33 290.195 237.414 293.481 237.489 294.033C237.595 294.841 238.479 294.879 239.446 293.844C240.413 292.809 243.519 289.9 244.032 290.452C244.546 291.003 239.424 296.088 239.424 296.088C239.424 296.088 238.154 297.002 238.729 297.659C239.748 298.838 244.773 293.02 245.249 292.454C245.574 292.061 246.148 292.635 245.778 293.036C245.407 293.436 240.564 298.007 241.599 299.216C242.393 300.145 245.785 294.463 247.311 294.078C248.837 293.693 244.289 298.12 245.098 298.981C245.392 299.299 245.657 299.495 247.893 296.571C249.663 294.024 251.289 291.381 252.766 288.653C255.146 286.077 278.605 260.609 278.786 255.849C278.975 250.84 279.874 233.886 279.874 233.886L263.683 234.128Z" fill="#EB996E"/>
<path d="M235.706 317.023L235.487 310.11L248.437 309.627L248.86 319.735L248.059 319.819C244.493 320.151 229.926 321.254 227.486 320.619C224.796 319.909 235.706 317.023 235.706 317.023Z" fill="#008080"/>
<g opacity="0.4">
<path d="M230.38 318.625C230.38 318.625 226.564 319.879 227.071 320.499C227.577 321.118 242.355 320.551 248.86 319.743L248.822 319.456L231.589 320.257C231.589 320.257 231.135 318.625 230.38 318.625Z" fill="white"/>
</g>
<path d="M249.026 319.433H248.807L248.173 319.494L245.823 319.69C243.836 319.834 241.093 320 238.056 320.121C235.019 320.242 232.269 320.279 230.282 320.287H227.925H227.283C227.207 320.298 227.131 320.298 227.056 320.287H227.283H227.925L230.274 320.249C232.269 320.211 235.019 320.151 238.049 320.03C241.078 319.909 243.828 319.766 245.815 319.645L248.165 319.501H248.807L249.026 319.433Z" fill="#263238"/>
<path d="M231.597 320.483C231.481 320.096 231.322 319.723 231.121 319.373C230.874 319.053 230.592 318.762 230.282 318.504C230.686 318.629 231.03 318.898 231.249 319.259C231.52 319.607 231.644 320.046 231.597 320.483Z" fill="#263238"/>
<path d="M235.344 318.368C235.344 318.368 235.117 318.179 234.921 317.884C234.778 317.721 234.675 317.527 234.619 317.318C234.656 317.318 234.845 317.507 235.049 317.794C235.253 318.081 235.382 318.345 235.344 318.368Z" fill="#263238"/>
<path d="M236.371 317.771C236.371 317.771 236.137 317.68 235.903 317.484C235.669 317.288 235.51 317.114 235.54 317.076C235.57 317.038 235.774 317.174 236.008 317.363C236.243 317.552 236.401 317.741 236.371 317.771Z" fill="#263238"/>
<path d="M236.991 316.525C236.777 316.611 236.548 316.65 236.318 316.638C236.299 316.719 236.25 316.79 236.182 316.838C236.114 316.885 236.03 316.906 235.948 316.896C235.865 316.886 235.789 316.847 235.734 316.784C235.678 316.722 235.648 316.642 235.648 316.559C235.648 316.475 235.678 316.395 235.734 316.333C235.789 316.271 235.865 316.231 235.948 316.221C236.03 316.211 236.114 316.232 236.182 316.28C236.25 316.327 236.299 316.398 236.318 316.479C236.543 316.445 236.773 316.46 236.991 316.525Z" fill="#263238"/>
<path d="M237.187 315.656C236.966 315.812 236.703 315.899 236.432 315.905C236.178 315.95 235.916 315.923 235.676 315.829C235.925 315.781 236.178 315.753 236.432 315.746C236.68 315.691 236.933 315.661 237.187 315.656Z" fill="#263238"/>
<path d="M234.86 317.257C234.585 317.306 234.304 317.306 234.029 317.257C233.728 317.231 233.429 317.178 233.137 317.099C232.96 317.053 232.788 316.99 232.624 316.91C232.521 316.854 232.443 316.763 232.405 316.653C232.39 316.592 232.392 316.529 232.412 316.47C232.432 316.411 232.469 316.359 232.518 316.32C232.828 316.149 233.189 316.092 233.537 316.16C233.885 316.227 234.198 316.415 234.422 316.691C234.558 316.849 234.658 317.034 234.716 317.235C234.733 317.309 234.733 317.387 234.716 317.461C234.621 317.208 234.483 316.973 234.308 316.766C234.105 316.549 233.842 316.397 233.553 316.328C233.389 316.279 233.217 316.264 233.047 316.282C232.878 316.3 232.713 316.352 232.563 316.434C232.435 316.54 232.495 316.691 232.646 316.774C232.796 316.85 232.953 316.91 233.115 316.955C233.398 317.043 233.689 317.106 233.984 317.144C234.543 317.242 234.86 317.227 234.86 317.257Z" fill="#263238"/>
<path d="M234.649 317.303C234.542 317.132 234.502 316.927 234.535 316.728C234.548 316.51 234.619 316.299 234.739 316.116C234.802 315.989 234.897 315.88 235.015 315.8C235.133 315.721 235.27 315.673 235.412 315.663C235.496 315.678 235.571 315.725 235.622 315.794C235.673 315.863 235.695 315.948 235.684 316.033C235.673 316.168 235.629 316.298 235.555 316.411C235.455 316.6 235.33 316.775 235.185 316.932C234.928 317.197 234.732 317.303 234.717 317.287C234.702 317.272 234.875 317.129 235.102 316.857C235.228 316.7 235.337 316.531 235.427 316.351C235.533 316.169 235.601 315.844 235.389 315.822C235.178 315.799 234.981 316.018 234.86 316.192C234.749 316.358 234.675 316.546 234.641 316.743C234.627 316.93 234.629 317.117 234.649 317.303Z" fill="#263238"/>
<path d="M248.626 315.897C248.626 315.897 248.255 315.897 247.674 315.965C246.915 316.087 246.205 316.413 245.619 316.91C245.042 317.414 244.616 318.068 244.387 318.799C244.206 319.365 244.206 319.735 244.176 319.735C244.162 319.648 244.162 319.559 244.176 319.471C244.19 319.234 244.228 318.998 244.289 318.768C244.492 317.999 244.923 317.309 245.526 316.79C246.129 316.271 246.875 315.946 247.666 315.86C247.902 315.833 248.14 315.833 248.376 315.86C248.461 315.857 248.546 315.87 248.626 315.897Z" fill="#263238"/>
<path d="M247.084 310.564C247.207 311.443 247.277 312.328 247.296 313.215C247.369 314.102 247.387 314.993 247.349 315.882C247.231 315 247.16 314.113 247.137 313.223C247.064 312.338 247.047 311.45 247.084 310.564Z" fill="#263238"/>
<path d="M242.483 318.61C241.87 318.776 241.238 318.862 240.602 318.867C239.967 318.921 239.327 318.896 238.698 318.791C238.698 318.746 239.552 318.791 240.595 318.708C241.637 318.625 242.476 318.564 242.483 318.61Z" fill="#263238"/>
<path d="M245.022 318.512C245.022 318.512 244.954 318.693 244.878 318.889C244.803 319.086 244.757 319.259 244.712 319.259C244.667 319.259 244.636 319.055 244.712 318.829C244.788 318.602 244.961 318.481 245.022 318.512Z" fill="#263238"/>
<path d="M245.928 317.28C245.928 317.28 245.883 317.446 245.755 317.59C245.626 317.733 245.498 317.824 245.46 317.794C245.422 317.764 245.513 317.628 245.641 317.484C245.77 317.34 245.898 317.25 245.928 317.28Z" fill="#263238"/>
<path d="M247.281 316.706C247.281 316.751 247.1 316.759 246.911 316.834C246.722 316.91 246.586 317.016 246.556 316.985C246.525 316.955 246.624 316.774 246.858 316.683C247.092 316.592 247.288 316.645 247.281 316.706Z" fill="#263238"/>
<path d="M248.24 316.396C248.24 316.434 248.188 316.502 248.082 316.547C247.976 316.593 247.878 316.6 247.855 316.547C247.832 316.494 247.916 316.434 248.021 316.389C248.127 316.343 248.225 316.351 248.24 316.396Z" fill="#263238"/>
<g opacity="0.3">
<path d="M248.595 315.55L235.653 315.829L235.615 314.266L248.671 314.726L248.595 315.55Z" fill="black"/>
</g>
<path d="M284.452 270.121L243.518 269.562C243.518 269.562 232.117 270.619 232.117 285.458L233.56 314.673H251.005L249.819 286.674C250.794 286.674 264 287.112 264 287.112L284.452 270.121Z" fill="#263238"/>
<path d="M233.568 314.674C233.533 314.507 233.515 314.337 233.515 314.167C233.515 313.797 233.463 313.314 233.432 312.717L233.123 307.383C232.858 302.85 232.367 296.662 232.004 289.772C231.883 286.334 231.619 283.04 232.004 280.041C232.097 279.31 232.246 278.587 232.45 277.88C232.663 277.216 232.944 276.575 233.289 275.968C233.909 274.883 234.712 273.912 235.661 273.097C236.444 272.431 237.307 271.865 238.23 271.413C238.931 271.097 239.659 270.844 240.406 270.657L241.222 270.461L241.834 270.362C242 270.328 242.17 270.31 242.34 270.31C242.182 270.372 242.017 270.415 241.849 270.438L241.252 270.574L240.443 270.801C239.719 271.03 239.012 271.31 238.328 271.639C237.434 272.101 236.599 272.669 235.842 273.332C234.937 274.143 234.171 275.097 233.576 276.157C233.264 276.751 233.011 277.373 232.82 278.016C232.629 278.707 232.487 279.412 232.397 280.124C232.012 283.055 232.284 286.349 232.397 289.787C232.737 296.662 233.206 302.88 233.402 307.398C233.508 309.664 233.561 311.478 233.583 312.739C233.583 313.344 233.583 313.82 233.583 314.198C233.596 314.356 233.591 314.516 233.568 314.674Z" fill="#455A64"/>
<path d="M311.697 317.031L304.791 317.492L303.892 304.572L313.978 303.817L314.092 304.572C314.545 308.123 316.162 322.705 315.603 325.1C314.968 327.835 311.697 317.031 311.697 317.031Z" fill="#008080"/>
<g opacity="0.4">
<path d="M313.487 322.297C313.487 322.297 314.869 326.074 315.474 325.538C316.078 325.001 314.99 310.261 313.963 303.794H313.676L315.088 320.997C315.088 320.997 313.457 321.541 313.487 322.297Z" fill="white"/>
</g>
<path d="M313.631 303.635C313.655 303.706 313.67 303.78 313.676 303.854C313.676 304.043 313.729 304.255 313.759 304.489C313.835 305.124 313.925 305.909 314.031 306.831C314.25 308.811 314.515 311.546 314.734 314.575C314.953 317.605 315.104 320.347 315.179 322.342C315.179 323.264 315.232 324.057 315.255 324.692C315.255 324.933 315.255 325.145 315.255 325.334C315.263 325.409 315.263 325.485 315.255 325.56C315.25 325.485 315.25 325.409 315.255 325.334C315.255 325.145 315.255 324.933 315.217 324.699C315.217 324.057 315.142 323.271 315.089 322.342C314.983 320.355 314.824 317.612 314.605 314.583C314.386 311.553 314.129 308.818 313.94 306.839C313.857 305.917 313.782 305.131 313.721 304.497C313.721 304.255 313.683 304.051 313.661 303.854C313.638 303.658 313.631 303.635 313.631 303.635Z" fill="#263238"/>
<path d="M315.262 321.012C314.883 321.149 314.518 321.323 314.174 321.533C313.861 321.789 313.58 322.08 313.336 322.402C313.454 321.987 313.723 321.631 314.091 321.405C314.421 321.136 314.837 320.996 315.262 321.012Z" fill="#263238"/>
<path d="M313.049 317.34C313.049 317.378 312.867 317.575 312.588 317.786C312.308 317.998 312.051 318.141 312.021 318.104C311.991 318.066 312.21 317.869 312.49 317.658C312.652 317.515 312.843 317.407 313.049 317.34Z" fill="#263238"/>
<path d="M312.422 316.336C312.422 316.336 312.331 316.577 312.15 316.819C311.968 317.061 311.787 317.227 311.757 317.197C311.727 317.167 311.84 316.955 312.029 316.721C312.218 316.487 312.384 316.313 312.422 316.336Z" fill="#263238"/>
<path d="M311.152 315.769C311.198 315.769 311.258 316.064 311.288 316.434C311.34 316.658 311.34 316.89 311.288 317.114C311.243 317.114 311.183 316.819 311.152 316.449C311.122 316.079 311.107 315.769 311.152 315.769Z" fill="#263238"/>
<path d="M310.276 315.603C310.445 315.82 310.54 316.084 310.548 316.358C310.607 316.609 310.591 316.872 310.503 317.114C310.443 316.866 310.408 316.613 310.397 316.358C310.332 316.111 310.292 315.858 310.276 315.603Z" fill="#263238"/>
<path d="M311.953 317.862C312.024 318.133 312.045 318.415 312.013 318.693C311.997 318.996 311.951 319.297 311.877 319.592C311.841 319.771 311.785 319.946 311.711 320.113C311.66 320.215 311.575 320.296 311.469 320.34C311.408 320.358 311.343 320.358 311.282 320.341C311.22 320.323 311.165 320.289 311.122 320.242C310.94 319.936 310.871 319.577 310.927 319.226C310.984 318.875 311.163 318.555 311.432 318.323C311.586 318.182 311.769 318.076 311.968 318.013C312.037 317.982 312.112 317.969 312.187 317.975C311.936 318.075 311.705 318.221 311.507 318.406C311.299 318.611 311.157 318.874 311.099 319.161C311.055 319.326 311.044 319.498 311.069 319.667C311.094 319.836 311.153 319.998 311.243 320.143C311.349 320.272 311.5 320.211 311.575 320.053C311.645 319.9 311.701 319.74 311.741 319.577C311.818 319.289 311.871 318.996 311.9 318.7C311.953 318.217 311.93 317.869 311.953 317.862Z" fill="#263238"/>
<path d="M312.014 318.073C311.847 318.191 311.642 318.242 311.439 318.217C311.222 318.204 311.01 318.142 310.82 318.036C310.691 317.974 310.58 317.881 310.496 317.764C310.413 317.648 310.361 317.513 310.344 317.371C310.357 317.286 310.402 317.211 310.47 317.158C310.537 317.106 310.622 317.082 310.707 317.091C310.842 317.098 310.974 317.137 311.092 317.204C311.284 317.297 311.462 317.417 311.621 317.56C311.778 317.677 311.904 317.83 311.991 318.005C311.991 318.005 311.832 317.854 311.553 317.643C311.389 317.523 311.214 317.42 311.032 317.333C310.843 317.235 310.525 317.174 310.503 317.386C310.48 317.597 310.722 317.794 310.896 317.907C311.065 318.013 311.256 318.08 311.455 318.104C311.642 318.114 311.829 318.104 312.014 318.073Z" fill="#263238"/>
<path d="M310.117 304.157C310.117 304.157 310.117 304.527 310.223 305.109C310.367 305.86 310.715 306.558 311.228 307.126C311.755 307.684 312.423 308.089 313.162 308.297C313.736 308.448 314.107 308.44 314.107 308.471C314.019 308.485 313.93 308.485 313.842 308.471C313.605 308.466 313.37 308.436 313.139 308.38C312.364 308.202 311.66 307.794 311.12 307.209C310.581 306.623 310.231 305.889 310.117 305.101C310.089 304.865 310.089 304.627 310.117 304.391C310.105 304.313 310.105 304.234 310.117 304.157Z" fill="#263238"/>
<path d="M304.836 305.887C305.711 305.736 306.594 305.635 307.48 305.585C308.363 305.48 309.251 305.429 310.14 305.434C309.265 305.59 308.382 305.69 307.495 305.736C306.613 305.841 305.725 305.891 304.836 305.887Z" fill="#263238"/>
<path d="M313.041 310.201C313.23 310.809 313.339 311.439 313.366 312.074C313.453 312.706 313.453 313.347 313.366 313.978C313.321 313.978 313.313 313.132 313.222 312.09C313.132 311.047 312.996 310.216 313.041 310.201Z" fill="#263238"/>
<path d="M312.852 307.64C312.852 307.64 313.033 307.7 313.237 307.768C313.441 307.836 313.608 307.874 313.608 307.919C313.608 307.964 313.411 308.002 313.185 307.919C312.958 307.836 312.822 307.7 312.852 307.64Z" fill="#263238"/>
<path d="M311.59 306.801C311.59 306.801 311.764 306.846 311.908 306.967C312.051 307.088 312.149 307.216 312.119 307.254C312.089 307.292 311.953 307.209 311.802 307.088C311.651 306.967 311.568 306.839 311.59 306.801Z" fill="#263238"/>
<path d="M310.948 305.479C310.994 305.479 311.009 305.653 311.084 305.842C311.16 306.03 311.281 306.159 311.25 306.189C311.22 306.219 311.039 306.136 310.941 305.902C310.842 305.668 310.91 305.471 310.948 305.479Z" fill="#263238"/>
<path d="M310.623 304.527C310.623 304.527 310.737 304.572 310.782 304.678C310.827 304.784 310.843 304.882 310.782 304.905C310.722 304.927 310.669 304.852 310.616 304.746C310.563 304.64 310.586 304.542 310.623 304.527Z" fill="#263238"/>
<g opacity="0.3">
<path d="M309.77 304.194L310.502 317.121L308.946 317.219V304.157L309.77 304.194Z" fill="black"/>
</g>
<path d="M269.364 304.255C269.364 304.255 304.247 285.208 308.198 279.005C309.383 277.19 310.108 275.113 310.311 272.954C310.514 270.795 310.188 268.62 309.362 266.615L280.01 270.536L259.135 291.441C254.602 295.045 246.389 302.578 246.389 310.004C246.389 322.712 262.822 320.634 274.615 320.665C290.738 320.702 308.833 320.77 308.833 320.77L308.878 303.446L269.364 304.255Z" fill="#263238"/>
<path d="M261.077 307.881C262.548 307.422 263.984 306.859 265.376 306.197C266.811 305.634 268.203 304.965 269.538 304.194C268.067 304.654 266.63 305.22 265.24 305.887C263.804 306.447 262.413 307.114 261.077 307.881Z" fill="#455A64"/>
<path d="M263.849 303.635C264.844 303.832 265.857 303.921 266.871 303.9C267.893 303.986 268.921 303.963 269.939 303.832C268.943 303.636 267.931 303.545 266.917 303.56C265.895 303.468 264.865 303.493 263.849 303.635Z" fill="#455A64"/>
<path d="M277.713 273.475C277.616 273.606 277.507 273.727 277.388 273.838L276.391 274.82L272.681 278.394L260.344 290.074C257.934 292.34 255.591 294.478 253.544 296.496C251.719 298.253 250.106 300.218 248.739 302.351C247.83 303.795 247.162 305.377 246.759 307.035L246.586 307.791C246.586 308.017 246.533 308.206 246.503 308.38C246.493 308.542 246.462 308.702 246.412 308.856C246.394 308.695 246.394 308.533 246.412 308.372C246.412 308.199 246.412 308.002 246.457 307.776C246.503 307.549 246.54 307.277 246.593 306.975C246.944 305.278 247.586 303.655 248.49 302.177C249.837 299.999 251.443 297.993 253.272 296.201C255.304 294.154 257.639 292.031 260.072 289.749L272.492 278.174L276.27 274.699L277.32 273.762C277.444 273.657 277.575 273.561 277.713 273.475Z" fill="#455A64"/>
<path d="M267.242 235.631C266.505 236.029 265.693 236.267 264.858 236.331C264.023 236.394 263.184 236.282 262.396 236C261.607 235.719 260.887 235.275 260.281 234.697C259.675 234.12 259.197 233.421 258.878 232.647L257.548 229.406C257.548 229.406 253.015 231.007 250.749 226.875C249.464 224.555 247.643 220.596 246.299 217.567C245.743 216.307 245.521 214.925 245.653 213.554C245.785 212.184 246.268 210.87 247.054 209.74C250.749 205.078 253.68 205.856 259.55 206.808L260.427 206.952L269.878 227.917C270.497 229.298 270.569 230.862 270.079 232.294C269.59 233.725 268.576 234.918 267.242 235.631Z" fill="#FFBE9D"/>
<path d="M249.177 219.614C249.224 219.486 249.231 219.347 249.198 219.214C249.166 219.082 249.094 218.962 248.993 218.87C248.892 218.778 248.766 218.719 248.631 218.699C248.495 218.679 248.358 218.7 248.234 218.759C248.111 218.818 248.008 218.912 247.939 219.03C247.87 219.147 247.837 219.283 247.845 219.419C247.853 219.556 247.901 219.686 247.983 219.795C248.066 219.904 248.179 219.986 248.308 220.03C248.393 220.06 248.482 220.073 248.571 220.068C248.661 220.063 248.748 220.041 248.829 220.002C248.91 219.964 248.982 219.91 249.042 219.843C249.101 219.776 249.148 219.699 249.177 219.614Z" fill="#263238"/>
<path d="M247.319 218.919C247.425 218.957 247.659 218.421 248.233 218.111C248.807 217.801 249.381 217.869 249.404 217.763C249.427 217.658 249.283 217.62 249.026 217.582C248.687 217.532 248.341 217.598 248.044 217.771C247.74 217.941 247.501 218.206 247.364 218.526C247.228 218.745 247.273 218.904 247.319 218.919Z" fill="#263238"/>
<path d="M254.149 216.222C254.08 216.34 254.048 216.475 254.056 216.611C254.065 216.747 254.113 216.877 254.196 216.985C254.278 217.094 254.391 217.175 254.52 217.219C254.649 217.263 254.788 217.268 254.919 217.233C255.051 217.198 255.169 217.125 255.259 217.022C255.349 216.92 255.406 216.793 255.424 216.658C255.442 216.523 255.419 216.386 255.359 216.264C255.299 216.142 255.203 216.041 255.085 215.973C255.008 215.927 254.922 215.897 254.832 215.885C254.743 215.872 254.652 215.878 254.565 215.901C254.478 215.924 254.396 215.965 254.324 216.02C254.253 216.075 254.193 216.144 254.149 216.222Z" fill="#263238"/>
<path d="M253.574 216.086C253.68 216.124 253.914 215.587 254.488 215.278C255.062 214.968 255.637 215.036 255.659 214.93C255.682 214.824 255.538 214.787 255.282 214.749C254.942 214.698 254.596 214.765 254.299 214.938C253.996 215.108 253.757 215.373 253.619 215.693C253.514 215.912 253.529 216.071 253.574 216.086Z" fill="#263238"/>
<path d="M254.028 222.153C253.669 222.189 253.321 222.291 253 222.455C252.841 222.515 252.705 222.546 252.653 222.455C252.566 222.309 252.522 222.141 252.524 221.971C252.471 221.511 252.411 221.05 252.35 220.566C252.253 219.35 252.028 218.147 251.678 216.978C251.66 218.196 251.764 219.413 251.988 220.612C252.056 221.095 252.124 221.556 252.192 222.017C252.196 222.261 252.284 222.495 252.441 222.682C252.493 222.728 252.555 222.761 252.622 222.778C252.689 222.795 252.759 222.796 252.826 222.78C252.924 222.759 253.019 222.723 253.106 222.674C253.725 222.402 254.08 222.198 254.028 222.153Z" fill="#263238"/>
<path d="M257.51 229.353C259.45 228.355 261.047 226.8 262.096 224.888C262.096 224.888 262.429 228.567 258.084 230.433L257.51 229.353Z" fill="#EB996E"/>
<path d="M262.286 211.606C262.354 211.53 265.61 209.604 266.577 213.155C267.416 216.23 263.94 216.758 263.895 216.66C263.85 216.562 262.286 211.606 262.286 211.606Z" fill="#FFBE9D"/>
<path d="M264.522 214.855C264.522 214.855 264.582 214.855 264.688 214.855C264.829 214.859 264.967 214.811 265.074 214.719C265.218 214.528 265.309 214.302 265.338 214.065C265.367 213.827 265.333 213.586 265.24 213.366C265.155 213.111 265.013 212.878 264.824 212.686C264.763 212.605 264.683 212.54 264.591 212.496C264.498 212.453 264.397 212.432 264.295 212.437C264.232 212.445 264.173 212.474 264.128 212.519C264.083 212.564 264.054 212.623 264.046 212.686C264.046 212.784 264.046 212.837 264.046 212.845C264.046 212.852 263.963 212.845 263.948 212.694C263.935 212.615 263.951 212.535 263.993 212.467C264.052 212.375 264.144 212.31 264.25 212.286C264.379 212.264 264.512 212.276 264.635 212.321C264.759 212.366 264.868 212.443 264.953 212.543C265.17 212.753 265.333 213.012 265.429 213.298C265.534 213.55 265.563 213.827 265.514 214.095C265.464 214.364 265.337 214.612 265.149 214.809C265.08 214.862 265 214.898 264.915 214.915C264.83 214.932 264.742 214.929 264.658 214.907C264.552 214.93 264.514 214.87 264.522 214.855Z" fill="#EB996E"/>
<path d="M260.775 235.11C260.775 235.11 268.896 221.511 281.453 232.957C289.651 240.436 303.023 255.864 307.798 261.908C308.871 263.26 310.541 265.323 309.37 266.592C305.788 270.461 296.027 279.134 277.963 272.636L260.828 248.807C259.397 246.815 258.621 244.426 258.609 241.973C258.597 239.52 259.348 237.124 260.76 235.117L260.775 235.11Z" fill="#008080"/>
<path d="M271.186 228.635L268.896 224.888L257.201 234.196L259.384 237.709L271.186 228.635Z" fill="#008080"/>
<g opacity="0.3">
<path d="M270.687 229.119C270.687 229.119 261.477 237.082 261.349 236.946C261.22 236.81 257.669 234.256 257.669 234.256L260.911 236.077L270.687 229.119Z" fill="black"/>
</g>
<path d="M271.283 228.59C271.074 228.67 270.876 228.776 270.694 228.907C270.332 229.134 269.81 229.474 269.183 229.912C267.914 230.781 266.214 232.043 264.34 233.433C263.063 234.377 261.862 235.246 260.835 235.956H260.986C259.89 235.367 258.976 234.876 258.334 234.551C258.005 234.357 257.658 234.195 257.299 234.067C257.592 234.311 257.911 234.521 258.251 234.694C258.87 235.072 259.762 235.594 260.842 236.205L260.918 236.243L260.993 236.198C262.043 235.503 263.26 234.649 264.537 233.705L269.319 230.108L270.77 229.02C270.958 228.899 271.131 228.754 271.283 228.59Z" fill="#263238"/>
<path d="M221.352 264.341L219.131 263.442C217.827 263.084 216.561 262.598 215.353 261.991C214.748 261.704 214.198 261.313 213.729 260.835C213.117 260.267 212.588 259.616 212.157 258.901C212.111 258.739 212.011 258.597 211.875 258.498C211.738 258.399 211.572 258.348 211.404 258.354C211.235 258.36 211.073 258.423 210.944 258.531C210.815 258.64 210.726 258.789 210.691 258.954C210.563 259.642 211.447 261.576 213.313 263.162C215.179 264.749 211.318 264.673 209.906 264.673C208.493 264.673 204.103 264.9 203.756 265.338C203.25 265.973 203.846 266.63 205.267 266.592C206.687 266.555 210.941 266.743 210.903 267.491C210.865 268.239 203.658 268.156 203.658 268.156C203.658 268.156 202.147 267.892 202.048 268.753C201.927 270.317 209.603 269.826 210.359 269.758C210.865 269.713 210.858 270.514 210.306 270.551C209.755 270.589 203.114 270.31 202.97 271.896C202.864 273.112 209.294 271.556 210.639 272.372C211.983 273.188 205.645 273.06 205.592 274.223C205.592 274.661 205.592 274.979 209.271 274.533C212.95 274.087 222.938 271.178 222.938 271.178L221.261 264.22" fill="#FFBE9D"/>
<path d="M264.749 239.855C264.749 239.855 252.804 256.325 250.039 256.967C247.273 257.609 216.479 262.452 216.479 262.452L217.99 272.501C217.99 272.501 256.211 271.428 259.913 268.051C263.615 264.673 274.797 247.5 274.797 247.5L264.749 239.855Z" fill="#FFBE9D"/>
<path d="M256.339 267.763C256.339 267.763 256.422 267.899 256.657 268.043C257.003 268.232 257.397 268.314 257.79 268.277C258.087 268.252 258.374 268.16 258.629 268.006C258.885 267.853 259.101 267.643 259.263 267.393C259.472 267.088 259.592 266.73 259.609 266.361C259.627 265.991 259.541 265.624 259.361 265.3C259.174 264.948 258.861 264.678 258.485 264.545C258.128 264.43 257.74 264.46 257.405 264.628C257.265 264.702 257.142 264.803 257.044 264.927C256.945 265.05 256.872 265.192 256.831 265.344C256.789 265.496 256.779 265.655 256.801 265.811C256.823 265.968 256.877 266.118 256.959 266.252C257.082 266.421 257.258 266.545 257.458 266.605C257.659 266.665 257.873 266.658 258.069 266.585C258.334 266.471 258.402 266.305 258.387 266.298C258.372 266.29 258.266 266.396 258.024 266.456C257.864 266.495 257.695 266.485 257.541 266.425C257.387 266.366 257.255 266.261 257.163 266.124C257.108 266.019 257.074 265.904 257.064 265.786C257.053 265.668 257.067 265.549 257.102 265.436C257.138 265.322 257.196 265.218 257.273 265.127C257.349 265.036 257.443 264.962 257.548 264.908C257.809 264.787 258.107 264.771 258.379 264.862C258.673 264.967 258.918 265.177 259.067 265.452C259.197 265.702 259.266 265.98 259.268 266.263C259.27 266.545 259.204 266.824 259.076 267.076C258.948 267.328 258.762 267.546 258.533 267.711C258.304 267.877 258.039 267.985 257.76 268.028C257.271 268.077 256.778 267.985 256.339 267.763Z" fill="#EB996E"/>
<path d="M278.386 244.871L267.053 264.326L253.982 253.507C253.982 253.507 263.049 238.684 267.317 234.09L278.386 244.871Z" fill="#008080"/>
<path d="M245.883 282.012C246.933 282.39 247.851 283.062 248.529 283.947C249.207 284.833 249.616 285.895 249.706 287.006C249.023 284.963 247.678 283.205 245.883 282.012Z" fill="#455A64"/>
<path d="M259.415 213.374C259.496 213.528 259.612 213.66 259.754 213.761C259.895 213.862 260.059 213.929 260.231 213.955C260.571 214.023 260.918 214.016 261.266 214.084C261.806 214.186 262.294 214.472 262.648 214.892C262.789 215.084 262.948 215.261 263.124 215.421C263.215 215.499 263.327 215.546 263.446 215.559C263.565 215.571 263.684 215.547 263.789 215.489C264.091 215.263 263.955 214.794 263.789 214.454C263.079 213.049 262.374 211.644 261.674 210.238L257.669 211.107L259.392 213.109" fill="#263238"/>
<path d="M246.337 208.591C246.797 208.04 247.485 207.586 248.029 208.062C248.532 208.59 248.86 209.26 248.966 209.981C249.078 210.699 249.319 211.39 249.676 212.021C249.935 212.399 250.291 212.699 250.707 212.89C251.123 213.082 251.583 213.156 252.038 213.107C252.493 213.057 252.926 212.885 253.291 212.609C253.656 212.332 253.94 211.962 254.111 211.538C254.608 212.395 255.246 213.161 256 213.804C256.38 214.118 256.833 214.332 257.318 214.425C257.802 214.519 258.302 214.49 258.772 214.341C259 214.254 259.207 214.123 259.383 213.955C259.558 213.786 259.698 213.584 259.794 213.361C259.89 213.138 259.94 212.897 259.941 212.654C259.942 212.411 259.894 212.17 259.8 211.946C260.313 212.372 260.954 212.617 261.621 212.641C261.951 212.65 262.278 212.563 262.559 212.39C262.841 212.217 263.066 211.965 263.207 211.666C263.267 211.513 263.294 211.349 263.288 211.184C263.282 211.02 263.242 210.859 263.171 210.71C263.101 210.562 263 210.429 262.877 210.321C262.753 210.212 262.608 210.13 262.452 210.08C262.82 210.322 263.254 210.447 263.695 210.438C264.137 210.428 264.564 210.285 264.922 210.027C265.269 209.753 265.507 209.365 265.594 208.932C265.681 208.499 265.612 208.049 265.398 207.662C265.159 207.3 264.787 207.047 264.362 206.96C263.937 206.872 263.495 206.956 263.132 207.194C263.652 206.935 264.093 206.541 264.409 206.053C264.556 205.804 264.602 205.507 264.536 205.226C264.47 204.944 264.297 204.699 264.053 204.542C263.426 204.255 262.754 204.836 262.066 204.965C260.948 205.169 260.034 204.164 259.135 203.454C258.297 202.86 257.343 202.449 256.336 202.247C255.328 202.045 254.29 202.058 253.287 202.283C251.28 202.753 249.429 203.738 247.916 205.139C246.903 206.023 245.929 207.307 246.337 208.584" fill="#263238"/>
<path d="M248.739 216.736C248.739 217.061 248.429 217.34 248.051 217.491C247.892 217.577 247.711 217.615 247.53 217.602C247.35 217.589 247.176 217.524 247.031 217.416C246.812 217.181 247.031 216.66 247.621 216.396C248.21 216.131 248.739 216.411 248.739 216.736Z" fill="#263238"/>
<path d="M254.693 213.865C254.625 214.19 254.224 214.394 253.824 214.583C253.423 214.771 252.993 214.923 252.706 214.749C252.634 214.68 252.588 214.588 252.574 214.49C252.56 214.391 252.58 214.291 252.63 214.205C252.77 213.891 253.024 213.643 253.34 213.51C253.651 213.359 254.009 213.335 254.337 213.442C254.587 213.54 254.708 213.706 254.693 213.865Z" fill="#263238"/>
<path d="M256.423 220.831C256.521 220.793 256.778 221.586 256.423 222.417C256.068 223.248 255.312 223.611 255.274 223.513C255.236 223.415 255.743 222.999 256.03 222.259C256.317 221.518 256.294 220.846 256.423 220.831Z" fill="#263238"/>
<path d="M265.141 208.758C265.141 208.758 265.088 208.803 264.967 208.863C264.785 208.939 264.591 208.98 264.393 208.984C264.018 208.996 263.648 208.902 263.324 208.712C263.001 208.522 262.737 208.245 262.565 207.911L262.769 207.957C262.087 208.58 261.2 208.933 260.276 208.946C259.711 208.968 259.148 208.866 258.626 208.648C258.104 208.43 257.636 208.102 257.254 207.685L257.586 207.549C257.587 207.805 257.522 208.058 257.397 208.283C257.273 208.508 257.094 208.697 256.876 208.833C256.446 209.123 255.925 209.249 255.41 209.188C254.602 209.016 253.877 208.574 253.355 207.934C252.834 207.367 252.418 206.778 251.935 206.317C251.509 205.861 250.957 205.542 250.348 205.403C249.814 205.316 249.266 205.384 248.769 205.599C248.031 205.93 247.369 206.411 246.827 207.012C246.629 207.241 246.411 207.454 246.178 207.647C246.326 207.375 246.506 207.121 246.714 206.891C247.234 206.229 247.898 205.694 248.656 205.327C249.203 205.074 249.811 204.982 250.409 205.063C251.086 205.199 251.706 205.539 252.184 206.038C252.705 206.529 253.136 207.118 253.635 207.654C254.1 208.222 254.74 208.618 255.456 208.78C256.287 208.901 257.246 208.312 257.208 207.549V206.997L257.571 207.42C257.921 207.8 258.348 208.102 258.823 208.305C259.299 208.508 259.812 208.608 260.329 208.599C261.177 208.599 261.999 208.3 262.648 207.753L262.784 207.632L262.852 207.79C262.997 208.094 263.222 208.352 263.503 208.537C263.784 208.722 264.11 208.827 264.446 208.841C264.68 208.833 264.912 208.805 265.141 208.758Z" fill="#455A64"/>
<path d="M280.282 241.864C280.244 241.864 280.282 241.411 280.108 240.625C279.907 239.507 279.488 238.44 278.877 237.482C277.986 236.06 276.68 234.945 275.137 234.286C273.237 233.502 271.119 233.427 269.168 234.075C268.176 234.421 267.249 234.932 266.426 235.586C265.65 236.202 264.941 236.899 264.31 237.664C263.253 238.985 262.294 240.381 261.439 241.842C260.684 243.073 260.064 244.108 259.603 244.75C259.384 245.09 259.195 245.34 259.067 245.506C258.939 245.672 258.871 245.763 258.855 245.755C259.035 245.376 259.242 245.009 259.475 244.66C259.913 243.904 260.495 242.899 261.198 241.69C262.029 240.196 262.976 238.768 264.031 237.422C265.322 235.724 267.059 234.416 269.047 233.644C271.086 232.962 273.303 233.051 275.28 233.894C276.607 234.485 277.761 235.405 278.632 236.568C279.503 237.73 280.063 239.095 280.259 240.535C280.302 240.847 280.32 241.163 280.312 241.479C280.327 241.608 280.317 241.739 280.282 241.864Z" fill="#263238"/>
<path d="M276.95 248.981C276.946 248.863 276.916 248.746 276.864 248.64C276.812 248.533 276.739 248.438 276.648 248.362C276.43 248.193 276.167 248.093 275.892 248.075C275.491 248.065 275.093 247.994 274.714 247.863C274.25 247.601 273.85 247.24 273.543 246.805C273.236 246.37 273.03 245.872 272.938 245.347C272.78 244.788 272.659 244.206 272.447 243.64C272.267 243.058 271.91 242.546 271.427 242.174C270.917 241.835 270.33 241.63 269.72 241.577C269.131 241.536 268.54 241.536 267.952 241.577C266.922 241.691 265.881 241.535 264.93 241.124C264.609 240.965 264.326 240.742 264.097 240.467C263.868 240.193 263.699 239.873 263.6 239.53C263.549 239.343 263.536 239.148 263.562 238.956C263.567 238.89 263.585 238.825 263.615 238.767C263.64 239.021 263.683 239.274 263.744 239.522C263.987 240.137 264.458 240.635 265.058 240.912C265.988 241.261 266.99 241.375 267.975 241.245C269.085 241.199 270.49 241.094 271.692 241.917C272.237 242.333 272.639 242.909 272.84 243.564C273.059 244.169 273.173 244.765 273.316 245.317C273.387 245.793 273.558 246.249 273.818 246.655C274.079 247.06 274.423 247.405 274.827 247.667C275.181 247.804 275.552 247.89 275.93 247.924C276.243 247.958 276.536 248.096 276.761 248.316C276.837 248.383 276.899 248.464 276.943 248.555C276.987 248.646 277.013 248.744 277.018 248.845C276.995 248.921 276.958 248.981 276.95 248.981Z" fill="#FAFAFA"/>
<path d="M272.44 255.441C272.394 255.441 272.379 255.192 272.115 254.836C271.723 254.369 271.194 254.037 270.604 253.885C269.848 253.635 268.881 253.665 267.816 253.318C267.241 253.14 266.738 252.782 266.38 252.298C266.025 251.792 265.829 251.202 265.504 250.726C264.839 249.759 263.645 249.435 262.633 249.215C261.677 249.059 260.762 248.712 259.943 248.196C259.398 247.804 259.016 247.226 258.871 246.571C258.809 246.332 258.83 246.079 258.931 245.853C258.969 245.853 258.931 246.11 259.022 246.533C259.198 247.113 259.569 247.615 260.072 247.954C260.877 248.413 261.761 248.718 262.678 248.853C263.24 248.963 263.79 249.13 264.318 249.351C264.91 249.594 265.421 250 265.791 250.522C266.154 251.066 266.343 251.648 266.66 252.086C266.965 252.513 267.4 252.831 267.899 252.993C268.874 253.333 269.863 253.341 270.657 253.635C271.298 253.82 271.855 254.22 272.236 254.768C272.332 254.923 272.396 255.095 272.424 255.275C272.447 255.38 272.455 255.441 272.44 255.441Z" fill="#FAFAFA"/>
<path d="M293.315 245.204C293.335 245.309 293.335 245.416 293.315 245.521C293.247 245.818 293.135 246.103 292.982 246.367C292.369 247.311 291.484 248.046 290.444 248.475C289.809 248.77 289.092 249.034 288.351 249.359C287.563 249.679 286.843 250.146 286.228 250.734C284.944 252.003 284.317 253.968 283.41 255.894C282.995 256.866 282.401 257.75 281.657 258.501C281.476 258.683 281.276 258.845 281.06 258.984C280.86 259.139 280.645 259.273 280.418 259.385C279.979 259.593 279.518 259.751 279.043 259.853C277.207 260.246 275.538 260.148 274.23 260.563C273.179 260.815 272.269 261.472 271.7 262.392C271.514 262.742 271.384 263.119 271.314 263.51C271.314 263.51 271.314 263.397 271.314 263.193C271.345 262.89 271.432 262.595 271.571 262.324C271.843 261.828 272.212 261.393 272.656 261.044C273.1 260.695 273.61 260.439 274.155 260.291C275.515 259.83 277.215 259.898 278.968 259.498C279.415 259.398 279.848 259.246 280.26 259.045C280.468 258.941 280.665 258.817 280.849 258.675C281.049 258.545 281.234 258.393 281.4 258.221C282.105 257.498 282.669 256.65 283.062 255.72C283.954 253.839 284.574 251.822 285.979 250.477C286.633 249.861 287.404 249.381 288.245 249.064C289.001 248.74 289.719 248.498 290.346 248.218C291.357 247.829 292.235 247.158 292.877 246.284C293.068 245.944 293.215 245.581 293.315 245.204Z" fill="#FAFAFA"/>
<path d="M300.908 254.549C300.851 254.978 300.685 255.384 300.424 255.728C299.722 256.673 298.766 257.399 297.667 257.821C296.322 258.44 294.569 258.72 292.907 259.619C292.039 260.075 291.323 260.773 290.844 261.629C290.367 262.586 289.943 263.57 289.575 264.575C288.732 266.551 287.272 268.2 285.412 269.274C283.901 270.148 282.178 270.59 280.433 270.551C279.269 270.531 278.119 270.295 277.041 269.856C276.748 269.737 276.463 269.601 276.187 269.448C275.998 269.335 275.908 269.274 275.915 269.259C275.923 269.244 276.331 269.441 277.094 269.713C278.17 270.086 279.302 270.275 280.441 270.272C282.125 270.27 283.779 269.819 285.231 268.965C287.006 267.915 288.4 266.327 289.212 264.432C289.584 263.399 290.018 262.39 290.512 261.41C291.033 260.501 291.804 259.762 292.733 259.279C294.486 258.357 296.239 258.115 297.561 257.541C298.628 257.154 299.574 256.492 300.303 255.622C300.54 255.286 300.743 254.926 300.908 254.549Z" fill="#FAFAFA"/>
<path d="M307.76 261.938C306.679 262.422 305.663 263.042 304.738 263.782C303.756 264.611 302.942 265.621 302.343 266.759C301.996 267.386 301.754 268.111 301.436 268.859C301.141 269.673 300.616 270.384 299.925 270.906C299.19 271.35 298.358 271.609 297.5 271.662C296.692 271.753 295.929 271.775 295.234 271.896C293.964 272.098 292.732 272.487 291.577 273.052C290.513 273.6 289.501 274.245 288.555 274.979C288.75 274.718 288.979 274.484 289.235 274.284C289.91 273.7 290.647 273.194 291.433 272.772C292.603 272.158 293.863 271.732 295.166 271.511C295.921 271.375 296.677 271.345 297.432 271.246C298.233 271.196 299.01 270.955 299.699 270.544C300.329 270.063 300.808 269.413 301.081 268.67C301.391 267.915 301.656 267.204 302.018 266.547C302.653 265.38 303.516 264.352 304.557 263.525C305.245 262.97 306.008 262.515 306.823 262.173C307.118 262.059 307.345 261.984 307.503 261.938C307.662 261.893 307.753 261.923 307.76 261.938Z" fill="#FAFAFA"/>
<path d="M277.449 247.954C278.094 247.717 278.681 247.346 279.172 246.866C279.686 246.329 280.096 245.701 280.38 245.015C280.722 244.16 280.992 243.278 281.189 242.378C281.398 241.456 281.699 240.558 282.088 239.696C282.426 238.986 282.91 238.355 283.508 237.845C283.908 237.49 284.383 237.232 284.898 237.089C285.084 237.029 285.28 237.014 285.473 237.044C284.816 237.242 284.208 237.577 283.69 238.026C283.154 238.542 282.72 239.155 282.413 239.832C282.053 240.678 281.772 241.556 281.574 242.454C281.365 243.373 281.077 244.273 280.713 245.143C280.394 245.86 279.937 246.507 279.368 247.047C278.981 247.412 278.52 247.688 278.016 247.856C277.839 247.94 277.643 247.974 277.449 247.954Z" fill="#FAFAFA"/>
<path d="M275.265 234.354C275.419 233.551 275.793 232.805 276.345 232.201C276.897 231.597 277.606 231.157 278.393 230.932C278.438 231.038 277.486 231.514 276.633 232.443C275.779 233.372 275.371 234.422 275.265 234.354Z" fill="#FAFAFA"/>
<path d="M269.961 226.618C269.621 227.245 269.224 227.839 268.775 228.393C268.334 229.032 267.86 229.647 267.355 230.237C267.033 230.595 266.643 230.886 266.206 231.091C265.726 231.278 265.211 231.363 264.695 231.34C264.215 231.305 263.733 231.305 263.252 231.34C262.826 231.402 262.414 231.54 262.036 231.748C261.388 232.11 260.878 232.675 260.585 233.357C260.335 234.006 260.229 234.703 260.276 235.397C260.179 235.224 260.127 235.029 260.125 234.83C260.065 234.295 260.135 233.754 260.329 233.251C260.606 232.49 261.141 231.849 261.84 231.438C262.252 231.192 262.709 231.03 263.184 230.962C263.686 230.911 264.192 230.898 264.695 230.924C265.142 230.965 265.592 230.899 266.008 230.732C266.424 230.565 266.795 230.302 267.09 229.965C267.672 229.353 268.133 228.703 268.556 228.197C268.974 227.627 269.444 227.099 269.961 226.618Z" fill="#FAFAFA"/>
<g opacity="0.2">
<path d="M279.995 244.305L274.26 267.537L269.244 260.548L279.995 244.305Z" fill="black"/>
</g>
<path d="M304.866 320.786C304.761 320.786 304.67 316.925 304.67 312.165C304.67 307.405 304.761 303.537 304.866 303.537C304.972 303.537 305.063 307.398 305.063 312.165C305.063 316.932 304.98 320.786 304.866 320.786Z" fill="#455A64"/>
<path d="M49.4264 277.971C50.5666 278.058 51.6772 278.376 52.6913 278.904C53.7054 279.433 54.602 280.161 55.327 281.045C56.766 282.823 57.7791 284.906 58.2886 287.135C59.3917 291.404 58.6512 296.42 57.3971 300.644C52.8035 298.959 50.0081 294.018 48.7389 291.426C46.7443 287.324 45.6261 278.703 49.4415 277.971" fill="#008080"/>
<path d="M63.9701 305.864C63.287 304.785 62.9014 303.544 62.8523 302.268C62.8032 300.991 63.0924 299.725 63.6906 298.596C64.3092 297.481 65.1434 296.5 66.1447 295.71C67.146 294.92 68.2945 294.337 69.5232 293.995C70.0698 293.779 70.6569 293.684 71.2438 293.716C71.8308 293.749 72.4037 293.908 72.923 294.184C73.3612 294.521 73.701 294.969 73.907 295.482C74.1129 295.995 74.1775 296.554 74.0941 297.1C73.9132 298.192 73.4466 299.216 72.7417 300.069C70.4751 303.091 67.7326 305.585 63.9701 305.864Z" fill="#008080"/>
<path d="M64.393 320.091C64.3001 319.8 64.2319 319.501 64.189 319.199C64.0757 318.572 63.9246 317.756 63.7357 316.774C63.1585 314.097 63.0131 311.345 63.305 308.622C63.6406 305.872 64.7077 303.263 66.3951 301.067C66.9103 300.415 67.5012 299.826 68.1555 299.314C68.3301 299.173 68.5144 299.044 68.707 298.929C68.7706 298.881 68.8389 298.841 68.911 298.808C68.0553 299.529 67.271 300.331 66.5689 301.203C64.9748 303.392 63.9611 305.95 63.6224 308.637C63.3352 311.329 63.4498 314.048 63.9623 316.706C64.121 317.733 64.2419 318.572 64.3174 319.154C64.372 319.463 64.3973 319.777 64.393 320.091Z" fill="#263238"/>
<path d="M50.8616 284.46C50.9326 284.57 50.9933 284.687 51.0429 284.808L51.5038 285.843C51.9042 286.734 52.4708 288.042 53.1508 289.658C54.5107 292.892 56.324 297.387 58.2203 302.396C60.1167 307.405 61.7259 311.984 62.8441 315.316C63.4032 316.978 63.8489 318.338 64.136 319.26C64.272 319.705 64.3853 320.06 64.4684 320.34C64.5132 320.465 64.5461 320.594 64.5667 320.725C64.5035 320.609 64.4505 320.488 64.408 320.363L64.0227 319.305C63.6827 318.338 63.2067 317.038 62.6325 315.384C61.4539 312.082 59.8145 307.519 57.9181 302.54C56.0218 297.561 54.2463 293.028 52.9392 289.772C52.2971 288.178 51.7757 286.863 51.4282 285.919L51.0202 284.868C50.9472 284.741 50.8937 284.604 50.8616 284.46Z" fill="#263238"/>
<path d="M58.9609 310.662C57.6008 308.338 55.7063 306.372 53.4346 304.927C51.1628 303.481 48.5792 302.598 45.8981 302.351C44.5306 302.245 42.876 302.457 42.2791 303.673C41.6823 304.89 42.4605 306.355 43.3746 307.368C45.3324 309.448 47.8618 310.904 50.6446 311.55C53.4274 312.197 56.3392 312.006 59.0138 311.002" fill="#008080"/>
<path d="M47.9378 306.015C48.2231 306.01 48.5084 306.025 48.7915 306.061C49.1239 306.077 49.4546 306.118 49.7812 306.181C50.1666 306.257 50.6123 306.302 51.0883 306.438C51.5998 306.559 52.1043 306.708 52.5993 306.884C53.1866 307.073 53.7619 307.298 54.3219 307.556C56.9206 308.721 59.1933 310.506 60.9402 312.754C61.3159 313.24 61.6664 313.744 61.9904 314.265C62.2656 314.724 62.5177 315.195 62.7459 315.678C62.9801 316.117 63.1237 316.54 63.2748 316.895C63.4074 317.204 63.5185 317.522 63.6072 317.847C63.7075 318.113 63.7785 318.389 63.8188 318.67C63.7508 318.67 63.4334 317.514 62.5419 315.784C62.3009 315.311 62.0335 314.852 61.7411 314.409C61.4167 313.886 61.0636 313.382 60.6834 312.898C59.809 311.813 58.8184 310.828 57.7293 309.959C56.6243 309.113 55.4342 308.383 54.1784 307.783C53.6278 307.522 53.0628 307.292 52.486 307.096C51.9907 306.911 51.4864 306.752 50.975 306.62C49.1466 306.166 47.9302 306.129 47.9378 306.015Z" fill="#263238"/>
</svg>
