<svg width="32" height="32" viewBox="0 0 32 32" fill="none" xmlns="http://www.w3.org/2000/svg">
<path d="M4.79986 7.20003C5.59986 7.99999 8.79986 7.19999 9.59986 6.40001C10.3999 5.60003 14.6884 7.60006 15.9999 7.90745C17.1696 7.60002 19.6328 7.20002 19.9999 7.20002C20.367 7.20002 22.3999 6.40002 22.3999 6.40002C22.3999 6.40002 22.808 6.25299 23.9999 7.20002C25.1918 8.14706 26.3137 7.81437 26.8 8.30131C28.0805 9.58354 26 17.9178 26 17.9178L25.2 19.6H7.19999L6.39999 18.4C6.39999 18.4 3.99985 6.40008 4.79986 7.20003Z" fill="#557BB4"/>
<path d="M4.64807 7.9533C4.87207 7.97997 5.1014 7.9973 5.3334 7.99997C6.38674 8.01197 7.3854 7.76264 8.00007 7.3333C8.61474 6.90663 9.6134 6.6573 10.6667 6.66663C11.7201 6.6573 12.7187 6.90663 13.3334 7.3333C13.9481 7.76264 14.9467 8.01197 16.0001 7.99997C17.0534 8.01197 18.0521 7.76264 18.6667 7.3333C19.2814 6.90663 20.2801 6.6573 21.3334 6.66663C22.3867 6.6573 23.3854 6.90663 24.0001 7.3333C24.6147 7.76264 25.6134 8.01197 26.6667 7.99997C26.8934 7.99997 27.1187 7.9813 27.3374 7.95464" stroke="#00398F" stroke-linecap="round" stroke-linejoin="round"/>
<path d="M4 4L6.29467 17.772C6.39851 18.3947 6.71987 18.9603 7.20157 19.3682C7.68327 19.7762 8.29408 20.0001 8.92533 20H23.0747C23.7059 20.0001 24.3167 19.7762 24.7984 19.3682C25.2801 18.9603 25.6015 18.3947 25.7053 17.772L28 4M6.66667 24H25.3333M6.66667 28H25.3333" stroke="#00398F" stroke-linecap="round" stroke-linejoin="round"/>
</svg>
