<svg width="17" height="17" viewBox="0 0 17 17" fill="none" xmlns="http://www.w3.org/2000/svg">
<g clip-path="url(#clip0_1008_29175)">
<path d="M2.10645 5.26293C2.24085 5.28427 2.37845 5.29813 2.51765 5.30027C3.14965 5.30987 3.74885 5.1104 4.11765 4.76693C4.48645 4.4256 5.08565 4.22613 5.71765 4.2336C6.34965 4.22613 6.94884 4.4256 7.31764 4.76693C7.68644 5.1104 8.28564 5.30987 8.91764 5.30027C9.54964 5.30987 10.1488 5.1104 10.5176 4.76693C10.8864 4.4256 11.4856 4.22613 12.1176 4.2336C12.7496 4.22613 13.3488 4.4256 13.7176 4.76693C14.0864 5.1104 14.6856 5.30987 15.3176 5.30027C15.4536 5.30027 15.5888 5.28533 15.72 5.264" stroke="#525355" stroke-linecap="round" stroke-linejoin="round"/>
<path d="M1.71777 2.1001L3.09457 13.1177C3.15688 13.6158 3.34969 14.0683 3.63871 14.3947C3.92774 14.7211 4.29422 14.9002 4.67297 14.9001H13.1626C13.5413 14.9002 13.9078 14.7211 14.1968 14.3947C14.4859 14.0683 14.6787 13.6158 14.741 13.1177L16.1178 2.1001" stroke="#525355" stroke-linecap="round" stroke-linejoin="round"/>
</g>
<defs>
<clipPath id="clip0_1008_29175">
<rect width="16" height="16" fill="white" transform="translate(0.75 0.5)"/>
</clipPath>
</defs>
</svg>
