<svg id="Layer_1" data-name="Layer 1" xmlns="http://www.w3.org/2000/svg" viewBox="0 0 1190.55 841.89"><defs><style>.cls-1{fill:#fff;}.cls-2{fill:#1bd253;}</style></defs><path class="cls-1" d="M567,819q-13,0-26.08-1.19A282.83,282.83,0,0,1,284.56,558,284.33,284.33,0,0,1,309.7,417.59,283.35,283.35,0,0,1,494,262.87L506.7,311A233.49,233.49,0,0,0,354.94,438.47a234.26,234.26,0,0,0-20.7,115.71,233,233,0,1,0,281.52-245.6l10.46-48.72A282.77,282.77,0,0,1,567,819Z"/><rect class="cls-1" x="284.28" y="42.71" width="48.03" height="513.36"/><path class="cls-1" d="M322.81,517S407,595.35,526.87,576.91s226.32-89.77,296.65-68.4S791.51,734.59,697.46,777s-203.78,22.13-291.38-24S289.9,588.9,293.59,565.85,322.81,517,322.81,517Z"/><circle class="cls-2" cx="560.39" cy="273.78" r="69.6"/><circle class="cls-2" cx="651.63" cy="130.27" r="74.59"/><circle class="cls-2" cx="622.7" cy="385.62" r="28.93"/><circle class="cls-2" cx="556.21" cy="433.48" r="18.93"/><circle class="cls-2" cx="586.59" cy="501.68" r="11.74"/></svg>