<svg width="52" height="124" viewBox="0 0 52 124" fill="none" xmlns="http://www.w3.org/2000/svg">
<path d="M22.6666 26H29.3333" stroke="#313233" stroke-linecap="round" stroke-linejoin="round"/>
<path d="M26 29.3333V22.6667" stroke="#313233" stroke-linecap="round" stroke-linejoin="round"/>
<path d="M23.5 34.3333H28.5C32.6666 34.3333 34.3333 32.6667 34.3333 28.5V23.5C34.3333 19.3333 32.6666 17.6667 28.5 17.6667H23.5C19.3333 17.6667 17.6666 19.3333 17.6666 23.5V28.5C17.6666 32.6667 19.3333 34.3333 23.5 34.3333Z" stroke="#313233" stroke-linecap="round" stroke-linejoin="round"/>
<path d="M29.4916 53.6667H22.5083C19.475 53.6667 17.6666 55.475 17.6666 58.5083V65.4833C17.6666 68.525 19.475 70.3333 22.5083 70.3333H29.4833C32.5166 70.3333 34.325 68.525 34.325 65.4917V58.5083C34.3333 55.475 32.525 53.6667 29.4916 53.6667ZM31 62.625H26.625V67C26.625 67.3417 26.3416 67.625 26 67.625C25.6583 67.625 25.375 67.3417 25.375 67V62.625H21C20.6583 62.625 20.375 62.3417 20.375 62C20.375 61.6583 20.6583 61.375 21 61.375H25.375V57C25.375 56.6583 25.6583 56.375 26 56.375C26.3416 56.375 26.625 56.6583 26.625 57V61.375H31C31.3416 61.375 31.625 61.6583 31.625 62C31.625 62.3417 31.3416 62.625 31 62.625Z" fill="#313233"/>
<path d="M29.4916 89.6667H22.5083C19.475 89.6667 17.6666 91.475 17.6666 94.5083V101.483C17.6666 104.525 19.475 106.333 22.5083 106.333H29.4833C32.5166 106.333 34.325 104.525 34.325 101.492V94.5083C34.3333 91.475 32.525 89.6667 29.4916 89.6667ZM29.9833 96.0833L25.2583 100.808C25.1416 100.925 24.9833 100.992 24.8166 100.992C24.65 100.992 24.4916 100.925 24.375 100.808L22.0166 98.45C21.775 98.2083 21.775 97.8083 22.0166 97.5667C22.2583 97.325 22.6583 97.325 22.9 97.5667L24.8166 99.4833L29.1 95.2C29.3416 94.9583 29.7416 94.9583 29.9833 95.2C30.225 95.4417 30.225 95.8333 29.9833 96.0833Z" fill="#313233"/>
<rect x="0.5" y="0.5" width="51" height="123" rx="4.5" stroke="#9747FF" stroke-dasharray="10 5"/>
</svg>
