<svg width="52" height="88" viewBox="0 0 52 88" fill="none" xmlns="http://www.w3.org/2000/svg">
<path d="M21 26H31" stroke="#313233" stroke-linecap="round" stroke-linejoin="round"/>
<path d="M26 31V21" stroke="#313233" stroke-linecap="round" stroke-linejoin="round"/>
<path d="M29.4917 53.6667H22.5084C19.4751 53.6667 17.6667 55.475 17.6667 58.5083V65.4833C17.6667 68.525 19.4751 70.3333 22.5084 70.3333H29.4834C32.5167 70.3333 34.3251 68.525 34.3251 65.4917V58.5083C34.3334 55.475 32.5251 53.6667 29.4917 53.6667ZM31.0001 62.625H26.6251V67C26.6251 67.3417 26.3417 67.625 26.0001 67.625C25.6584 67.625 25.3751 67.3417 25.3751 67V62.625H21.0001C20.6584 62.625 20.3751 62.3417 20.3751 62C20.3751 61.6583 20.6584 61.375 21.0001 61.375H25.3751V57C25.3751 56.6583 25.6584 56.375 26.0001 56.375C26.3417 56.375 26.6251 56.6583 26.6251 57V61.375H31.0001C31.3417 61.375 31.6251 61.6583 31.6251 62C31.6251 62.3417 31.3417 62.625 31.0001 62.625Z" fill="#313233"/>
<rect x="0.5" y="0.5" width="51" height="87" rx="4.5" stroke="#9747FF" stroke-dasharray="10 5"/>
</svg>
