<svg width="52" height="88" viewBox="0 0 52 88" fill="none" xmlns="http://www.w3.org/2000/svg">
<path d="M17.6667 34.3333H34.3334" stroke="#313233" stroke-linecap="round" stroke-linejoin="round"/>
<path d="M26 21C21.8583 21 18.5 24.3583 18.5 28.5V34.3333H33.5V28.5C33.5 24.3583 30.1417 21 26 21Z" stroke="#313233" stroke-linecap="round" stroke-linejoin="round"/>
<path d="M26 17.6667V18.5" stroke="#313233" stroke-linecap="round" stroke-linejoin="round"/>
<path d="M19.3333 19.3333L20.1666 20.1667" stroke="#313233" stroke-linecap="round" stroke-linejoin="round"/>
<path d="M32.6666 19.3333L31.8333 20.1667" stroke="#313233" stroke-linecap="round" stroke-linejoin="round"/>
<path d="M34.3334 69.7083H33.5001V64.5C33.5001 60.3583 30.1417 57 26.0001 57C21.8584 57 18.5001 60.3583 18.5001 64.5V69.7083H17.6667C17.3251 69.7083 17.0417 69.9917 17.0417 70.3333C17.0417 70.675 17.3251 70.9583 17.6667 70.9583H34.3334C34.6751 70.9583 34.9584 70.675 34.9584 70.3333C34.9584 69.9917 34.6751 69.7083 34.3334 69.7083Z" fill="#313233"/>
<path d="M26 55.125C25.6583 55.125 25.375 54.8417 25.375 54.5V53.6667C25.375 53.325 25.6583 53.0417 26 53.0417C26.3417 53.0417 26.625 53.325 26.625 53.6667V54.5C26.625 54.8417 26.3417 55.125 26 55.125Z" fill="#313233"/>
<path d="M20.1667 56.7917C20.0084 56.7917 19.85 56.7333 19.725 56.6083L18.8917 55.775C18.65 55.5333 18.65 55.1333 18.8917 54.8917C19.1334 54.65 19.5334 54.65 19.775 54.8917L20.6084 55.725C20.85 55.9667 20.85 56.3667 20.6084 56.6083C20.4834 56.7333 20.325 56.7917 20.1667 56.7917Z" fill="#313233"/>
<path d="M31.8334 56.7917C31.675 56.7917 31.5167 56.7333 31.3917 56.6083C31.15 56.3667 31.15 55.9667 31.3917 55.725L32.225 54.8917C32.4667 54.65 32.8667 54.65 33.1084 54.8917C33.35 55.1333 33.35 55.5333 33.1084 55.775L32.275 56.6083C32.15 56.7333 31.9917 56.7917 31.8334 56.7917Z" fill="#313233"/>
<rect x="0.5" y="0.5" width="51" height="87" rx="4.5" stroke="#9747FF" stroke-dasharray="10 5"/>
</svg>
