<svg width="52" height="88" viewBox="0 0 52 88" fill="none" xmlns="http://www.w3.org/2000/svg">
<path d="M28.4999 33.225C28.3416 33.225 28.1832 33.1667 28.0582 33.0417L22.6249 27.6083C21.7416 26.725 21.7416 25.275 22.6249 24.3917L28.0582 18.9583C28.2999 18.7167 28.6999 18.7167 28.9416 18.9583C29.1832 19.2 29.1832 19.6 28.9416 19.8417L23.5082 25.275C23.1082 25.675 23.1082 26.325 23.5082 26.725L28.9416 32.1583C29.1832 32.4 29.1832 32.8 28.9416 33.0417C28.8166 33.1583 28.6582 33.225 28.4999 33.225Z" fill="#313233"/>
<path d="M27.6501 56.4333L24.9751 59.1083L23.3334 60.7417C22.6418 61.4333 22.6418 62.5583 23.3334 63.25L27.6501 67.5667C28.2168 68.1333 29.1834 67.725 29.1834 66.9333V62.2583V57.0667C29.1834 56.2667 28.2168 55.8667 27.6501 56.4333Z" fill="#313233"/>
<rect x="0.5" y="0.5" width="51" height="87" rx="4.5" stroke="#9747FF" stroke-dasharray="10 5"/>
</svg>
