<svg width="52" height="88" viewBox="0 0 52 88" fill="none" xmlns="http://www.w3.org/2000/svg">
<path d="M28.0249 20.9417L33.0832 26L28.0249 31.0583" stroke="#313233" stroke-miterlimit="10" stroke-linecap="round" stroke-linejoin="round"/>
<path d="M18.9167 26H32.9417" stroke="#313233" stroke-miterlimit="10" stroke-linecap="round" stroke-linejoin="round"/>
<path d="M29.4917 53.6667H22.5084C19.4751 53.6667 17.6667 55.475 17.6667 58.5083V65.4833C17.6667 68.525 19.4751 70.3333 22.5084 70.3333H29.4834C32.5167 70.3333 34.3251 68.525 34.3251 65.4917V58.5083C34.3334 55.475 32.5251 53.6667 29.4917 53.6667ZM31.4417 62.4417L27.8667 66.0167C27.7417 66.1417 27.5834 66.2 27.4251 66.2C27.2667 66.2 27.1084 66.1417 26.9834 66.0167C26.7417 65.775 26.7417 65.375 26.9834 65.1333L29.4917 62.625H21.0001C20.6584 62.625 20.3751 62.3417 20.3751 62C20.3751 61.6583 20.6584 61.375 21.0001 61.375H29.4917L26.9834 58.8667C26.7417 58.625 26.7417 58.225 26.9834 57.9833C27.2251 57.7417 27.6251 57.7417 27.8667 57.9833L31.4417 61.5583C31.5584 61.675 31.6251 61.8333 31.6251 62C31.6251 62.1667 31.5584 62.325 31.4417 62.4417Z" fill="#313233"/>
<rect x="0.5" y="0.5" width="51" height="87" rx="4.5" stroke="#9747FF" stroke-dasharray="10 5"/>
</svg>
