<svg width="52" height="88" viewBox="0 0 52 88" fill="none" xmlns="http://www.w3.org/2000/svg">
<path d="M23.9751 20.9417L18.9167 26L23.9751 31.0583" stroke="#313233" stroke-miterlimit="10" stroke-linecap="round" stroke-linejoin="round"/>
<path d="M33.0833 26H19.0583" stroke="#313233" stroke-miterlimit="10" stroke-linecap="round" stroke-linejoin="round"/>
<path d="M29.4917 53.6667H22.5084C19.4751 53.6667 17.6667 55.475 17.6667 58.5083V65.4833C17.6667 68.525 19.4751 70.3333 22.5084 70.3333H29.4834C32.5167 70.3333 34.3251 68.525 34.3251 65.4917V58.5083C34.3334 55.475 32.5251 53.6667 29.4917 53.6667ZM31.0001 62.625H22.5084L25.0167 65.1333C25.2584 65.375 25.2584 65.775 25.0167 66.0167C24.8917 66.1417 24.7334 66.2 24.5751 66.2C24.4167 66.2 24.2584 66.1417 24.1334 66.0167L20.5584 62.4417C20.4417 62.325 20.3751 62.1667 20.3751 62C20.3751 61.8333 20.4417 61.675 20.5584 61.5583L24.1334 57.9833C24.3751 57.7417 24.7751 57.7417 25.0167 57.9833C25.2584 58.225 25.2584 58.625 25.0167 58.8667L22.5084 61.375H31.0001C31.3417 61.375 31.6251 61.6583 31.6251 62C31.6251 62.3417 31.3417 62.625 31.0001 62.625Z" fill="#313233"/>
<rect x="0.5" y="0.5" width="51" height="87" rx="4.5" stroke="#9747FF" stroke-dasharray="10 5"/>
</svg>
