<svg width="52" height="88" viewBox="0 0 52 88" fill="none" xmlns="http://www.w3.org/2000/svg">
<path opacity="0.93" d="M26.0001 17.6667C21.4001 17.6667 17.6667 21.4 17.6667 26C17.6667 30.6 21.4001 34.3333 26.0001 34.3333C30.6001 34.3333 34.3334 30.6 34.3334 26C34.3334 21.4 30.6001 17.6667 26.0001 17.6667ZM29.6417 27.9583L27.7917 29.8083C27.3417 30.2583 26.7584 30.475 26.1751 30.475C25.5917 30.475 25.0001 30.25 24.5584 29.8083C24.1251 29.375 23.8834 28.8 23.8834 28.1917C23.8834 27.5833 24.1251 27 24.5584 26.575L25.7334 25.4C25.9751 25.1583 26.3751 25.1583 26.6167 25.4C26.8584 25.6417 26.8584 26.0417 26.6167 26.2833L25.4417 27.4583C25.2417 27.6583 25.1334 27.9167 25.1334 28.1917C25.1334 28.4667 25.2417 28.7333 25.4417 28.925C25.8501 29.3333 26.5084 29.3333 26.9167 28.925L28.7667 27.075C29.8251 26.0167 29.8251 24.3 28.7667 23.2417C27.7084 22.1833 25.9917 22.1833 24.9334 23.2417L22.9167 25.2583C22.4917 25.6833 22.2584 26.2417 22.2584 26.8333C22.2584 27.425 22.4917 27.9917 22.9167 28.4083C23.1584 28.65 23.1584 29.05 22.9167 29.2917C22.6751 29.5333 22.2751 29.5333 22.0334 29.2917C21.3667 28.65 21.0001 27.775 21.0001 26.8417C21.0001 25.9083 21.3584 25.0333 22.0167 24.375L24.0334 22.3583C25.5751 20.8167 28.0917 20.8167 29.6334 22.3583C31.1834 23.9 31.1834 26.4167 29.6417 27.9583Z" fill="#313233"/>
<path d="M26.2302 61.9875L24.0303 64.329C22.8133 65.6243 22.8133 67.7333 24.0303 69.0285C25.2472 70.3238 27.2287 70.3238 28.4457 69.0285L31.9094 65.342C34.3433 62.7514 34.3433 58.5501 31.9094 55.9429C29.4755 53.3524 25.5281 53.3524 23.0786 55.9429L19.3029 59.9616C17.2122 62.1868 17.2122 65.7903 19.3029 68.0155" stroke="#313233" stroke-linecap="round" stroke-linejoin="round"/>
<rect x="0.5" y="0.5" width="51" height="87" rx="4.5" stroke="#9747FF" stroke-dasharray="10 5"/>
</svg>
