<svg width="52" height="88" viewBox="0 0 52 88" fill="none" xmlns="http://www.w3.org/2000/svg">
<path d="M26.3084 17.7917L33.8084 20.7917C34.1001 20.9083 34.3334 21.2583 34.3334 21.5667V24.3333C34.3334 24.7917 33.9584 25.1667 33.5001 25.1667H18.5001C18.0417 25.1667 17.6667 24.7917 17.6667 24.3333V21.5667C17.6667 21.2583 17.9001 20.9083 18.1918 20.7917L25.6918 17.7917C25.8584 17.725 26.1417 17.725 26.3084 17.7917Z" stroke="#313233" stroke-miterlimit="10" stroke-linecap="round" stroke-linejoin="round"/>
<path d="M34.3334 34.3333H17.6667V31.8333C17.6667 31.375 18.0417 31 18.5001 31H33.5001C33.9584 31 34.3334 31.375 34.3334 31.8333V34.3333Z" stroke="#313233" stroke-miterlimit="10" stroke-linecap="round" stroke-linejoin="round"/>
<path d="M19.3333 31V25.1666" stroke="#313233" stroke-miterlimit="10" stroke-linecap="round" stroke-linejoin="round"/>
<path d="M22.6667 31V25.1666" stroke="#313233" stroke-miterlimit="10" stroke-linecap="round" stroke-linejoin="round"/>
<path d="M26 31V25.1666" stroke="#313233" stroke-miterlimit="10" stroke-linecap="round" stroke-linejoin="round"/>
<path d="M29.3333 31V25.1666" stroke="#313233" stroke-miterlimit="10" stroke-linecap="round" stroke-linejoin="round"/>
<path d="M32.6667 31V25.1666" stroke="#313233" stroke-miterlimit="10" stroke-linecap="round" stroke-linejoin="round"/>
<path d="M16.8333 34.3334H35.1666" stroke="#313233" stroke-miterlimit="10" stroke-linecap="round" stroke-linejoin="round"/>
<path d="M26 23.0834C26.6904 23.0834 27.25 22.5237 27.25 21.8334C27.25 21.143 26.6904 20.5834 26 20.5834C25.3096 20.5834 24.75 21.143 24.75 21.8334C24.75 22.5237 25.3096 23.0834 26 23.0834Z" stroke="#313233" stroke-miterlimit="10" stroke-linecap="round" stroke-linejoin="round"/>
<path d="M34.3334 67.8333V70.3333H17.6667V67.8333C17.6667 67.375 18.0417 67 18.5001 67H33.5001C33.9584 67 34.3334 67.375 34.3334 67.8333Z" fill="#313233" stroke="#313233" stroke-miterlimit="10" stroke-linecap="round" stroke-linejoin="round"/>
<path d="M21.8334 61.1666H20.1667V67H21.8334V61.1666Z" fill="#313233"/>
<path d="M25.1667 61.1666H23.5V67H25.1667V61.1666Z" fill="#313233"/>
<path d="M28.4999 61.1666H26.8333V67H28.4999V61.1666Z" fill="#313233"/>
<path d="M31.8334 61.1666H30.1667V67H31.8334V61.1666Z" fill="#313233"/>
<path d="M35.1666 70.9584H16.8333C16.4916 70.9584 16.2083 70.675 16.2083 70.3334C16.2083 69.9917 16.4916 69.7084 16.8333 69.7084H35.1666C35.5083 69.7084 35.7916 69.9917 35.7916 70.3334C35.7916 70.675 35.5083 70.9584 35.1666 70.9584Z" fill="#313233"/>
<path d="M33.8084 56.7917L26.3084 53.7917C26.1417 53.725 25.8584 53.725 25.6917 53.7917L18.1917 56.7917C17.9001 56.9084 17.6667 57.25 17.6667 57.5667V60.3334C17.6667 60.7917 18.0417 61.1667 18.5001 61.1667H33.5001C33.9584 61.1667 34.3334 60.7917 34.3334 60.3334V57.5667C34.3334 57.25 34.1001 56.9084 33.8084 56.7917ZM26.0001 59.0834C25.3084 59.0834 24.7501 58.525 24.7501 57.8334C24.7501 57.1417 25.3084 56.5834 26.0001 56.5834C26.6917 56.5834 27.2501 57.1417 27.2501 57.8334C27.2501 58.525 26.6917 59.0834 26.0001 59.0834Z" fill="#313233"/>
<rect x="0.5" y="0.5" width="51" height="87" rx="4.5" stroke="#9747FF" stroke-dasharray="10 5"/>
</svg>
