<svg width="52" height="92" viewBox="0 0 52 92" fill="none" xmlns="http://www.w3.org/2000/svg">
<g clip-path="url(#clip0_309_15439)">
<mask id="path-2-outside-1_309_15439" maskUnits="userSpaceOnUse" x="15.625" y="16.25" width="21" height="21" fill="black">
<rect fill="white" x="15.625" y="16.25" width="21" height="21"/>
<path d="M21.625 19.75C21.625 18.5 22.5625 17.25 24.125 17.25H27.875C29.4375 17.25 30.375 18.5 30.375 19.75V22.875H34.125C34.4565 22.875 34.7745 23.0067 35.0089 23.2411C35.2433 23.4755 35.375 23.7935 35.375 24.125V26C35.3751 26.3208 35.2519 26.6293 35.0308 26.8617C34.8098 27.0941 34.5079 27.2327 34.1875 27.2487L32.3094 33.585C32.1563 34.1019 31.8402 34.5555 31.4082 34.8781C30.9763 35.2006 30.4516 35.375 29.9125 35.375H22.0725C21.5378 35.375 21.0173 35.2035 20.5872 34.8859C20.1572 34.5682 19.8403 34.121 19.6831 33.61L17.7231 27.2413C17.4201 27.2042 17.1411 27.0574 16.9388 26.8288C16.7365 26.6001 16.6249 26.3053 16.625 26V24.125C16.625 23.7935 16.7567 23.4755 16.9911 23.2411C17.2255 23.0067 17.5435 22.875 17.875 22.875H21.625V19.75ZM22.875 22.875H29.125V19.75C29.125 18.1875 28.1875 17.875 27.25 17.875H24.75C23.8125 17.875 22.875 18.1875 22.875 19.75V22.875ZM29.125 24.125H17.875V26H34.125V24.125H30.375V24.75C30.375 24.9158 30.3092 25.0747 30.1919 25.1919C30.0747 25.3092 29.9158 25.375 29.75 25.375C29.5842 25.375 29.4253 25.3092 29.3081 25.1919C29.1908 25.0747 29.125 24.9158 29.125 24.75V24.125ZM31.8212 27.25L32.39 27.8188L32.8512 27.3575L32.8825 27.25H31.8212ZM29.7381 27.8188L30.3069 27.25H29.1694L29.7381 27.8188ZM26.5188 27.25L27.0875 27.8188L27.6562 27.25H26.5188ZM24.4356 27.8188L25.0044 27.25H23.8669L24.4356 27.8188ZM21.7837 27.8188L22.3525 27.25H21.215L21.7837 27.8188ZM19.0338 27.25L19.19 27.76L19.7 27.25H19.0338ZM19.6356 29.2069L19.8144 29.7875L20.0156 29.5863L19.6356 29.2069ZM32.4381 28.7506L32.39 28.7025L31.5062 29.5863L32.0344 30.1144L32.4381 28.7506ZM31.7344 31.1256L31.8319 30.7962L31.0637 30.0281L30.18 30.9125L31.0637 31.7963L31.7344 31.1256ZM31.2262 32.8419L31.0637 32.68L30.18 33.5637L30.56 33.9437C30.82 33.7869 31.02 33.5363 31.1112 33.23L31.2262 32.8419ZM29.8575 34.125L29.7388 34.0063L29.6194 34.125H29.8569H29.8575ZM28.735 34.125L29.2963 33.5637L28.4125 32.68L27.5287 33.5637L28.0894 34.125H28.735ZM26.9675 34.125H27.2056L27.0869 34.0063L26.9675 34.125ZM26.0838 34.125L26.6444 33.5637L25.7606 32.68L24.8769 33.5637L25.4381 34.125H26.0838ZM24.3156 34.125H24.5538L24.435 34.0063L24.3156 34.125ZM23.4319 34.125L23.9931 33.5637L23.1087 32.68L22.225 33.5637L22.7863 34.125H23.4319ZM21.8888 34.1112L21.7831 34.0056L21.7156 34.0731C21.7719 34.09 21.83 34.1025 21.8888 34.1112ZM21.1675 33.7375L21.3412 33.5637L20.8144 33.0369L20.8775 33.2431C20.9362 33.4325 21.0369 33.6006 21.1675 33.7375ZM20.4212 31.7606L20.4575 31.7963L21.3412 30.9125L20.4575 30.0281L20.0225 30.4631L20.4212 31.7606ZM20.4575 27.3769L19.5738 28.2606L20.4575 29.1444L21.3412 28.2606L20.4575 27.3769ZM21.7831 28.7025L20.9 29.5863L21.7837 30.4706L22.6675 29.5863L21.7831 28.7025ZM23.1087 30.0281L22.225 30.9125L23.1087 31.7963L23.9931 30.9125L23.1087 30.0281ZM23.5512 29.5863L24.435 30.4706L25.3188 29.5863L24.435 28.7025L23.5512 29.5863ZM24.435 31.3544L23.5512 32.2381L24.435 33.1219L25.3188 32.2381L24.435 31.3544ZM25.7606 31.7963L26.6444 30.9125L25.7606 30.0281L24.8769 30.9125L25.7606 31.7963ZM23.1087 29.1444L23.9931 28.2606L23.1087 27.3769L22.225 28.2606L23.1087 29.1444ZM28.8544 32.2381L29.7381 33.1219L30.6219 32.2381L29.7381 31.3544L28.8544 32.2381ZM30.6219 29.5863L29.7381 28.7025L28.8544 29.5863L29.7381 30.4706L30.6219 29.5863ZM27.0863 33.1219L27.9706 32.2381L27.0863 31.3544L26.2025 32.2381L27.0863 33.1219ZM27.5287 28.2606L28.4125 29.1444L29.2963 28.2606L28.4125 27.3769L27.5287 28.2606ZM26.6444 28.2606L25.7606 27.3769L24.8769 28.2606L25.7606 29.1444L26.6444 28.2606ZM31.0644 29.1444L31.9481 28.2606L31.0637 27.3769L30.18 28.2606L31.0644 29.1444ZM26.2025 29.5863L27.0863 30.4706L27.9706 29.5863L27.0863 28.7025L26.2025 29.5863ZM21.7837 33.1219L22.6669 32.2381L21.7831 31.3544L20.9 32.2375L21.7837 33.1212V33.1219ZM27.5287 30.9125L28.4125 31.7963L29.2963 30.9125L28.4125 30.0281L27.5287 30.9125Z"/>
</mask>
<path d="M21.625 19.75C21.625 18.5 22.5625 17.25 24.125 17.25H27.875C29.4375 17.25 30.375 18.5 30.375 19.75V22.875H34.125C34.4565 22.875 34.7745 23.0067 35.0089 23.2411C35.2433 23.4755 35.375 23.7935 35.375 24.125V26C35.3751 26.3208 35.2519 26.6293 35.0308 26.8617C34.8098 27.0941 34.5079 27.2327 34.1875 27.2487L32.3094 33.585C32.1563 34.1019 31.8402 34.5555 31.4082 34.8781C30.9763 35.2006 30.4516 35.375 29.9125 35.375H22.0725C21.5378 35.375 21.0173 35.2035 20.5872 34.8859C20.1572 34.5682 19.8403 34.121 19.6831 33.61L17.7231 27.2413C17.4201 27.2042 17.1411 27.0574 16.9388 26.8288C16.7365 26.6001 16.6249 26.3053 16.625 26V24.125C16.625 23.7935 16.7567 23.4755 16.9911 23.2411C17.2255 23.0067 17.5435 22.875 17.875 22.875H21.625V19.75ZM22.875 22.875H29.125V19.75C29.125 18.1875 28.1875 17.875 27.25 17.875H24.75C23.8125 17.875 22.875 18.1875 22.875 19.75V22.875ZM29.125 24.125H17.875V26H34.125V24.125H30.375V24.75C30.375 24.9158 30.3092 25.0747 30.1919 25.1919C30.0747 25.3092 29.9158 25.375 29.75 25.375C29.5842 25.375 29.4253 25.3092 29.3081 25.1919C29.1908 25.0747 29.125 24.9158 29.125 24.75V24.125ZM31.8212 27.25L32.39 27.8188L32.8512 27.3575L32.8825 27.25H31.8212ZM29.7381 27.8188L30.3069 27.25H29.1694L29.7381 27.8188ZM26.5188 27.25L27.0875 27.8188L27.6562 27.25H26.5188ZM24.4356 27.8188L25.0044 27.25H23.8669L24.4356 27.8188ZM21.7837 27.8188L22.3525 27.25H21.215L21.7837 27.8188ZM19.0338 27.25L19.19 27.76L19.7 27.25H19.0338ZM19.6356 29.2069L19.8144 29.7875L20.0156 29.5863L19.6356 29.2069ZM32.4381 28.7506L32.39 28.7025L31.5062 29.5863L32.0344 30.1144L32.4381 28.7506ZM31.7344 31.1256L31.8319 30.7962L31.0637 30.0281L30.18 30.9125L31.0637 31.7963L31.7344 31.1256ZM31.2262 32.8419L31.0637 32.68L30.18 33.5637L30.56 33.9437C30.82 33.7869 31.02 33.5363 31.1112 33.23L31.2262 32.8419ZM29.8575 34.125L29.7388 34.0063L29.6194 34.125H29.8569H29.8575ZM28.735 34.125L29.2963 33.5637L28.4125 32.68L27.5287 33.5637L28.0894 34.125H28.735ZM26.9675 34.125H27.2056L27.0869 34.0063L26.9675 34.125ZM26.0838 34.125L26.6444 33.5637L25.7606 32.68L24.8769 33.5637L25.4381 34.125H26.0838ZM24.3156 34.125H24.5538L24.435 34.0063L24.3156 34.125ZM23.4319 34.125L23.9931 33.5637L23.1087 32.68L22.225 33.5637L22.7863 34.125H23.4319ZM21.8888 34.1112L21.7831 34.0056L21.7156 34.0731C21.7719 34.09 21.83 34.1025 21.8888 34.1112ZM21.1675 33.7375L21.3412 33.5637L20.8144 33.0369L20.8775 33.2431C20.9362 33.4325 21.0369 33.6006 21.1675 33.7375ZM20.4212 31.7606L20.4575 31.7963L21.3412 30.9125L20.4575 30.0281L20.0225 30.4631L20.4212 31.7606ZM20.4575 27.3769L19.5738 28.2606L20.4575 29.1444L21.3412 28.2606L20.4575 27.3769ZM21.7831 28.7025L20.9 29.5863L21.7837 30.4706L22.6675 29.5863L21.7831 28.7025ZM23.1087 30.0281L22.225 30.9125L23.1087 31.7963L23.9931 30.9125L23.1087 30.0281ZM23.5512 29.5863L24.435 30.4706L25.3188 29.5863L24.435 28.7025L23.5512 29.5863ZM24.435 31.3544L23.5512 32.2381L24.435 33.1219L25.3188 32.2381L24.435 31.3544ZM25.7606 31.7963L26.6444 30.9125L25.7606 30.0281L24.8769 30.9125L25.7606 31.7963ZM23.1087 29.1444L23.9931 28.2606L23.1087 27.3769L22.225 28.2606L23.1087 29.1444ZM28.8544 32.2381L29.7381 33.1219L30.6219 32.2381L29.7381 31.3544L28.8544 32.2381ZM30.6219 29.5863L29.7381 28.7025L28.8544 29.5863L29.7381 30.4706L30.6219 29.5863ZM27.0863 33.1219L27.9706 32.2381L27.0863 31.3544L26.2025 32.2381L27.0863 33.1219ZM27.5287 28.2606L28.4125 29.1444L29.2963 28.2606L28.4125 27.3769L27.5287 28.2606ZM26.6444 28.2606L25.7606 27.3769L24.8769 28.2606L25.7606 29.1444L26.6444 28.2606ZM31.0644 29.1444L31.9481 28.2606L31.0637 27.3769L30.18 28.2606L31.0644 29.1444ZM26.2025 29.5863L27.0863 30.4706L27.9706 29.5863L27.0863 28.7025L26.2025 29.5863ZM21.7837 33.1219L22.6669 32.2381L21.7831 31.3544L20.9 32.2375L21.7837 33.1212V33.1219ZM27.5287 30.9125L28.4125 31.7963L29.2963 30.9125L28.4125 30.0281L27.5287 30.9125Z" stroke="#313233" stroke-width="2" mask="url(#path-2-outside-1_309_15439)"/>
</g>
<path d="M21.625 59.75C21.625 58.5 22.5625 57.25 24.125 57.25H27.875C29.4375 57.25 30.375 58.5 30.375 59.75V62.875H34.125C34.4565 62.875 34.7745 63.0067 35.0089 63.2411C35.2433 63.4755 35.375 63.7935 35.375 64.125V66C35.3751 66.3208 35.2519 66.6293 35.0308 66.8617C34.8098 67.0941 34.5079 67.2327 34.1875 67.2487L32.3094 73.585C32.1563 74.1019 31.8402 74.5555 31.4082 74.8781C30.9763 75.2006 30.4516 75.375 29.9125 75.375H22.0725C21.5378 75.375 21.0173 75.2035 20.5872 74.8859C20.1572 74.5682 19.8403 74.121 19.6831 73.61L17.7231 67.2413C17.4201 67.2042 17.1411 67.0574 16.9388 66.8288C16.7365 66.6001 16.6249 66.3053 16.625 66V64.125C16.625 63.7935 16.7567 63.4755 16.9911 63.2411C17.2255 63.0067 17.5435 62.875 17.875 62.875H21.625V59.75ZM22.875 62.875H29.125V59.75C29.125 58.1875 28.1875 57.875 27.25 57.875H24.75C23.8125 57.875 22.875 58.1875 22.875 59.75V62.875ZM29.125 64.125H17.875V66H34.125V64.125H30.375V64.75C30.375 64.9158 30.3092 65.0747 30.1919 65.1919C30.0747 65.3092 29.9158 65.375 29.75 65.375C29.5842 65.375 29.4253 65.3092 29.3081 65.1919C29.1908 65.0747 29.125 64.9158 29.125 64.75V64.125ZM31.8212 67.25L32.39 67.8188L32.8512 67.3575L32.8825 67.25H31.8212ZM29.7381 67.8188L30.3069 67.25H29.1694L29.7381 67.8188ZM26.5188 67.25L27.0875 67.8188L27.6562 67.25H26.5188ZM24.4356 67.8188L25.0044 67.25H23.8669L24.4356 67.8188ZM21.7837 67.8188L22.3525 67.25H21.215L21.7837 67.8188ZM19.0338 67.25L19.19 67.76L19.7 67.25H19.0338ZM19.6356 69.2069L19.8144 69.7875L20.0156 69.5863L19.6356 69.2069ZM32.4381 68.7506L32.39 68.7025L31.5062 69.5863L32.0344 70.1144L32.4381 68.7506ZM31.7344 71.1256L31.8319 70.7962L31.0637 70.0281L30.18 70.9125L31.0637 71.7963L31.7344 71.1256ZM31.2262 72.8419L31.0637 72.68L30.18 73.5637L30.56 73.9437C30.82 73.7869 31.02 73.5363 31.1112 73.23L31.2262 72.8419ZM29.8575 74.125L29.7388 74.0063L29.6194 74.125H29.8569H29.8575ZM28.735 74.125L29.2963 73.5637L28.4125 72.68L27.5287 73.5637L28.0894 74.125H28.735ZM26.9675 74.125H27.2056L27.0869 74.0063L26.9675 74.125ZM26.0838 74.125L26.6444 73.5637L25.7606 72.68L24.8769 73.5637L25.4381 74.125H26.0838ZM24.3156 74.125H24.5538L24.435 74.0063L24.3156 74.125ZM23.4319 74.125L23.9931 73.5637L23.1087 72.68L22.225 73.5637L22.7863 74.125H23.4319ZM21.8888 74.1112L21.7831 74.0056L21.7156 74.0731C21.7719 74.09 21.83 74.1025 21.8888 74.1112ZM21.1675 73.7375L21.3412 73.5637L20.8144 73.0369L20.8775 73.2431C20.9362 73.4325 21.0369 73.6006 21.1675 73.7375ZM20.4212 71.7606L20.4575 71.7963L21.3412 70.9125L20.4575 70.0281L20.0225 70.4631L20.4212 71.7606ZM20.4575 67.3769L19.5738 68.2606L20.4575 69.1444L21.3412 68.2606L20.4575 67.3769ZM21.7831 68.7025L20.9 69.5863L21.7837 70.4706L22.6675 69.5863L21.7831 68.7025ZM23.1087 70.0281L22.225 70.9125L23.1087 71.7963L23.9931 70.9125L23.1087 70.0281ZM23.5512 69.5863L24.435 70.4706L25.3188 69.5863L24.435 68.7025L23.5512 69.5863ZM24.435 71.3544L23.5512 72.2381L24.435 73.1219L25.3188 72.2381L24.435 71.3544ZM25.7606 71.7963L26.6444 70.9125L25.7606 70.0281L24.8769 70.9125L25.7606 71.7963ZM23.1087 69.1444L23.9931 68.2606L23.1087 67.3769L22.225 68.2606L23.1087 69.1444ZM28.8544 72.2381L29.7381 73.1219L30.6219 72.2381L29.7381 71.3544L28.8544 72.2381ZM30.6219 69.5863L29.7381 68.7025L28.8544 69.5863L29.7381 70.4706L30.6219 69.5863ZM27.0863 73.1219L27.9706 72.2381L27.0863 71.3544L26.2025 72.2381L27.0863 73.1219ZM27.5287 68.2606L28.4125 69.1444L29.2963 68.2606L28.4125 67.3769L27.5287 68.2606ZM26.6444 68.2606L25.7606 67.3769L24.8769 68.2606L25.7606 69.1444L26.6444 68.2606ZM31.0644 69.1444L31.9481 68.2606L31.0637 67.3769L30.18 68.2606L31.0644 69.1444ZM26.2025 69.5863L27.0863 70.4706L27.9706 69.5863L27.0863 68.7025L26.2025 69.5863ZM21.7837 73.1219L22.6669 72.2381L21.7831 71.3544L20.9 72.2375L21.7837 73.1212V73.1219ZM27.5287 70.9125L28.4125 71.7963L29.2963 70.9125L28.4125 70.0281L27.5287 70.9125Z" fill="#313233"/>
<rect x="0.5" y="0.5" width="51" height="91" rx="4.5" stroke="#9747FF" stroke-dasharray="10 5"/>
<defs>
<clipPath id="clip0_309_15439">
<rect width="20" height="20" fill="white" transform="translate(16 16)"/>
</clipPath>
</defs>
</svg>
