<svg width="52" height="88" viewBox="0 0 52 88" fill="none" xmlns="http://www.w3.org/2000/svg">
<path d="M34.3334 33.7084H17.6667C17.3251 33.7084 17.0417 33.9917 17.0417 34.3334C17.0417 34.675 17.3251 34.9584 17.6667 34.9584H34.3334C34.6751 34.9584 34.9584 34.675 34.9584 34.3334C34.9584 33.9917 34.6751 33.7084 34.3334 33.7084Z" fill="#292D32"/>
<path d="M30.1667 17.6667H21.8333C19.3333 17.6667 18.5 19.1584 18.5 21V34.3334H33.5V21C33.5 19.1584 32.6667 17.6667 30.1667 17.6667ZM24.3333 30.375H21.8333C21.4917 30.375 21.2083 30.0917 21.2083 29.75C21.2083 29.4084 21.4917 29.125 21.8333 29.125H24.3333C24.675 29.125 24.9583 29.4084 24.9583 29.75C24.9583 30.0917 24.675 30.375 24.3333 30.375ZM24.3333 26.625H21.8333C21.4917 26.625 21.2083 26.3417 21.2083 26C21.2083 25.6584 21.4917 25.375 21.8333 25.375H24.3333C24.675 25.375 24.9583 25.6584 24.9583 26C24.9583 26.3417 24.675 26.625 24.3333 26.625ZM24.3333 22.875H21.8333C21.4917 22.875 21.2083 22.5917 21.2083 22.25C21.2083 21.9084 21.4917 21.625 21.8333 21.625H24.3333C24.675 21.625 24.9583 21.9084 24.9583 22.25C24.9583 22.5917 24.675 22.875 24.3333 22.875ZM30.1667 30.375H27.6667C27.325 30.375 27.0417 30.0917 27.0417 29.75C27.0417 29.4084 27.325 29.125 27.6667 29.125H30.1667C30.5083 29.125 30.7917 29.4084 30.7917 29.75C30.7917 30.0917 30.5083 30.375 30.1667 30.375ZM30.1667 26.625H27.6667C27.325 26.625 27.0417 26.3417 27.0417 26C27.0417 25.6584 27.325 25.375 27.6667 25.375H30.1667C30.5083 25.375 30.7917 25.6584 30.7917 26C30.7917 26.3417 30.5083 26.625 30.1667 26.625ZM30.1667 22.875H27.6667C27.325 22.875 27.0417 22.5917 27.0417 22.25C27.0417 21.9084 27.325 21.625 27.6667 21.625H30.1667C30.5083 21.625 30.7917 21.9084 30.7917 22.25C30.7917 22.5917 30.5083 22.875 30.1667 22.875Z" fill="#292D32"/>
<path d="M34.3334 70.9583H17.6667C17.3251 70.9583 17.0417 70.675 17.0417 70.3333C17.0417 69.9916 17.3251 69.7083 17.6667 69.7083H34.3334C34.6751 69.7083 34.9584 69.9916 34.9584 70.3333C34.9584 70.675 34.6751 70.9583 34.3334 70.9583Z" fill="#292D32"/>
<path d="M33.5 70.9584H18.5C18.1583 70.9584 17.875 70.675 17.875 70.3334V57C17.875 54.4834 19.3167 53.0417 21.8333 53.0417H30.1667C32.6833 53.0417 34.125 54.4834 34.125 57V70.3334C34.125 70.675 33.8417 70.9584 33.5 70.9584ZM19.125 69.7084H32.875V57C32.875 55.15 32.0167 54.2917 30.1667 54.2917H21.8333C19.9833 54.2917 19.125 55.15 19.125 57V69.7084Z" fill="#292D32"/>
<path d="M24.3333 66.375H21.8333C21.4916 66.375 21.2083 66.0917 21.2083 65.75C21.2083 65.4083 21.4916 65.125 21.8333 65.125H24.3333C24.6749 65.125 24.9583 65.4083 24.9583 65.75C24.9583 66.0917 24.6749 66.375 24.3333 66.375Z" fill="#292D32"/>
<path d="M30.1667 66.375H27.6667C27.3251 66.375 27.0417 66.0917 27.0417 65.75C27.0417 65.4083 27.3251 65.125 27.6667 65.125H30.1667C30.5084 65.125 30.7917 65.4083 30.7917 65.75C30.7917 66.0917 30.5084 66.375 30.1667 66.375Z" fill="#292D32"/>
<path d="M24.3333 62.625H21.8333C21.4916 62.625 21.2083 62.3417 21.2083 62C21.2083 61.6583 21.4916 61.375 21.8333 61.375H24.3333C24.6749 61.375 24.9583 61.6583 24.9583 62C24.9583 62.3417 24.6749 62.625 24.3333 62.625Z" fill="#292D32"/>
<path d="M30.1667 62.625H27.6667C27.3251 62.625 27.0417 62.3417 27.0417 62C27.0417 61.6583 27.3251 61.375 27.6667 61.375H30.1667C30.5084 61.375 30.7917 61.6583 30.7917 62C30.7917 62.3417 30.5084 62.625 30.1667 62.625Z" fill="#292D32"/>
<path d="M24.3333 58.875H21.8333C21.4916 58.875 21.2083 58.5917 21.2083 58.25C21.2083 57.9083 21.4916 57.625 21.8333 57.625H24.3333C24.6749 57.625 24.9583 57.9083 24.9583 58.25C24.9583 58.5917 24.6749 58.875 24.3333 58.875Z" fill="#292D32"/>
<path d="M30.1667 58.875H27.6667C27.3251 58.875 27.0417 58.5917 27.0417 58.25C27.0417 57.9083 27.3251 57.625 27.6667 57.625H30.1667C30.5084 57.625 30.7917 57.9083 30.7917 58.25C30.7917 58.5917 30.5084 58.875 30.1667 58.875Z" fill="#292D32"/>
<rect x="0.5" y="0.5" width="51" height="87" rx="4.5" stroke="#9747FF" stroke-dasharray="10 5"/>
</svg>
