<svg width="52" height="88" viewBox="0 0 52 88" fill="none" xmlns="http://www.w3.org/2000/svg">
<path d="M22.6667 17.6666V20.1666" stroke="#313233" stroke-miterlimit="10" stroke-linecap="round" stroke-linejoin="round"/>
<path d="M29.3333 17.6666V20.1666" stroke="#313233" stroke-miterlimit="10" stroke-linecap="round" stroke-linejoin="round"/>
<path d="M18.9167 23.575H33.0834" stroke="#313233" stroke-miterlimit="10" stroke-linecap="round" stroke-linejoin="round"/>
<path d="M33.5 23.0833V30.1666C33.5 32.6666 32.25 34.3333 29.3333 34.3333H22.6667C19.75 34.3333 18.5 32.6666 18.5 30.1666V23.0833C18.5 20.5833 19.75 18.9166 22.6667 18.9166H29.3333C32.25 18.9166 33.5 20.5833 33.5 23.0833Z" stroke="#313233" stroke-miterlimit="10" stroke-linecap="round" stroke-linejoin="round"/>
<path d="M29.0788 27.4167H29.0863" stroke="#313233" stroke-linecap="round" stroke-linejoin="round"/>
<path d="M29.0788 29.9167H29.0863" stroke="#313233" stroke-linecap="round" stroke-linejoin="round"/>
<path d="M25.9963 27.4167H26.0038" stroke="#313233" stroke-linecap="round" stroke-linejoin="round"/>
<path d="M25.9963 29.9167H26.0038" stroke="#313233" stroke-linecap="round" stroke-linejoin="round"/>
<path d="M22.9118 27.4167H22.9193" stroke="#313233" stroke-linecap="round" stroke-linejoin="round"/>
<path d="M22.9118 29.9167H22.9193" stroke="#313233" stroke-linecap="round" stroke-linejoin="round"/>
<path d="M29.9584 54.9666V53.6666C29.9584 53.325 29.6751 53.0416 29.3334 53.0416C28.9918 53.0416 28.7084 53.325 28.7084 53.6666V54.9166H23.2918V53.6666C23.2918 53.325 23.0084 53.0416 22.6668 53.0416C22.3251 53.0416 22.0418 53.325 22.0418 53.6666V54.9666C19.7918 55.175 18.7001 56.5166 18.5334 58.5083C18.5168 58.75 18.7168 58.95 18.9501 58.95H33.0501C33.2918 58.95 33.4918 58.7416 33.4668 58.5083C33.3001 56.5166 32.2084 55.175 29.9584 54.9666Z" fill="#313233"/>
<path d="M32.6667 60.2H19.3333C18.875 60.2 18.5 60.575 18.5 61.0333V66.1666C18.5 68.6666 19.75 70.3333 22.6667 70.3333H29.3333C32.25 70.3333 33.5 68.6666 33.5 66.1666V61.0333C33.5 60.575 33.125 60.2 32.6667 60.2ZM23.675 67.175C23.6333 67.2083 23.5917 67.25 23.55 67.275C23.5 67.3083 23.45 67.3333 23.4 67.35C23.35 67.375 23.3 67.3916 23.25 67.4C23.1917 67.4083 23.1417 67.4166 23.0833 67.4166C22.975 67.4166 22.8667 67.3916 22.7667 67.35C22.6583 67.3083 22.575 67.2499 22.4917 67.175C22.3417 67.0166 22.25 66.8 22.25 66.5833C22.25 66.3666 22.3417 66.15 22.4917 65.9916C22.575 65.9166 22.6583 65.8583 22.7667 65.8166C22.9167 65.75 23.0833 65.7333 23.25 65.7666C23.3 65.775 23.35 65.7916 23.4 65.8166C23.45 65.8333 23.5 65.8583 23.55 65.8916C23.5917 65.925 23.6333 65.9583 23.675 65.9916C23.825 66.15 23.9167 66.3666 23.9167 66.5833C23.9167 66.8 23.825 67.0166 23.675 67.175ZM23.675 64.2583C23.5167 64.4083 23.3 64.5 23.0833 64.5C22.8667 64.5 22.65 64.4083 22.4917 64.2583C22.3417 64.1 22.25 63.8833 22.25 63.6666C22.25 63.45 22.3417 63.2333 22.4917 63.075C22.725 62.8416 23.0917 62.7666 23.4 62.9C23.5083 62.9416 23.6 63 23.675 63.075C23.825 63.2333 23.9167 63.45 23.9167 63.6666C23.9167 63.8833 23.825 64.1 23.675 64.2583ZM26.5917 67.175C26.4333 67.325 26.2167 67.4166 26 67.4166C25.7833 67.4166 25.5667 67.325 25.4083 67.175C25.2583 67.0166 25.1667 66.8 25.1667 66.5833C25.1667 66.3666 25.2583 66.15 25.4083 65.9916C25.7167 65.6833 26.2833 65.6833 26.5917 65.9916C26.7417 66.15 26.8333 66.3666 26.8333 66.5833C26.8333 66.8 26.7417 67.0166 26.5917 67.175ZM26.5917 64.2583C26.55 64.2916 26.5083 64.325 26.4667 64.3583C26.4167 64.3916 26.3667 64.4166 26.3167 64.4333C26.2667 64.4583 26.2167 64.475 26.1667 64.4833C26.1083 64.4916 26.0583 64.5 26 64.5C25.7833 64.5 25.5667 64.4083 25.4083 64.2583C25.2583 64.1 25.1667 63.8833 25.1667 63.6666C25.1667 63.45 25.2583 63.2333 25.4083 63.075C25.4833 63 25.575 62.9416 25.6833 62.9C25.9917 62.7666 26.3583 62.8416 26.5917 63.075C26.7417 63.2333 26.8333 63.45 26.8333 63.6666C26.8333 63.8833 26.7417 64.1 26.5917 64.2583ZM29.5083 67.175C29.35 67.325 29.1333 67.4166 28.9167 67.4166C28.7 67.4166 28.4833 67.325 28.325 67.175C28.175 67.0166 28.0833 66.8 28.0833 66.5833C28.0833 66.3666 28.175 66.15 28.325 65.9916C28.6333 65.6833 29.2 65.6833 29.5083 65.9916C29.6583 66.15 29.75 66.3666 29.75 66.5833C29.75 66.8 29.6583 67.0166 29.5083 67.175ZM29.5083 64.2583C29.4667 64.2916 29.425 64.325 29.3833 64.3583C29.3333 64.3916 29.2833 64.4166 29.2333 64.4333C29.1833 64.4583 29.1333 64.475 29.0833 64.4833C29.025 64.4916 28.9667 64.5 28.9167 64.5C28.7 64.5 28.4833 64.4083 28.325 64.2583C28.175 64.1 28.0833 63.8833 28.0833 63.6666C28.0833 63.45 28.175 63.2333 28.325 63.075C28.4083 63 28.4917 62.9416 28.6 62.9C28.75 62.8333 28.9167 62.8166 29.0833 62.85C29.1333 62.8583 29.1833 62.875 29.2333 62.9C29.2833 62.9166 29.3333 62.9416 29.3833 62.975C29.425 63.0083 29.4667 63.0416 29.5083 63.075C29.6583 63.2333 29.75 63.45 29.75 63.6666C29.75 63.8833 29.6583 64.1 29.5083 64.2583Z" fill="#313233"/>
<rect x="0.5" y="0.5" width="51" height="87" rx="4.5" stroke="#9747FF" stroke-dasharray="10 5"/>
</svg>
