<svg width="52" height="88" viewBox="0 0 52 88" fill="none" xmlns="http://www.w3.org/2000/svg">
<path d="M34.3084 31.275C34.3084 31.575 34.2417 31.8833 34.1001 32.1833C33.9584 32.4833 33.7751 32.7667 33.5334 33.0333C33.1251 33.4833 32.6751 33.8083 32.1667 34.0167C31.6667 34.225 31.1251 34.3333 30.5417 34.3333C29.6917 34.3333 28.7834 34.1333 27.8251 33.725C26.8667 33.3167 25.9084 32.7667 24.9584 32.075C24.0001 31.375 23.0917 30.6 22.2251 29.7417C21.3667 28.875 20.5917 27.9667 19.9001 27.0167C19.2167 26.0667 18.6667 25.1167 18.2667 24.175C17.8667 23.225 17.6667 22.3167 17.6667 21.45C17.6667 20.8833 17.7667 20.3417 17.9667 19.8417C18.1667 19.3333 18.4834 18.8667 18.9251 18.45C19.4584 17.925 20.0417 17.6667 20.6584 17.6667C20.8917 17.6667 21.1251 17.7167 21.3334 17.8167C21.5501 17.9167 21.7417 18.0667 21.8917 18.2833L23.8251 21.0083C23.9751 21.2167 24.0834 21.4083 24.1584 21.5917C24.2334 21.7667 24.2751 21.9417 24.2751 22.1C24.2751 22.3 24.2167 22.5 24.1001 22.6917C23.9917 22.8833 23.8334 23.0833 23.6334 23.2833L23.0001 23.9417C22.9084 24.0333 22.8667 24.1417 22.8667 24.275C22.8667 24.3417 22.8751 24.4 22.8917 24.4667C22.9167 24.5333 22.9417 24.5833 22.9584 24.6333C23.1084 24.9083 23.3667 25.2667 23.7334 25.7C24.1084 26.1333 24.5084 26.575 24.9417 27.0167C25.3917 27.4583 25.8251 27.8667 26.2667 28.2417C26.7001 28.6083 27.0584 28.8583 27.3417 29.0083C27.3834 29.025 27.4334 29.05 27.4917 29.075C27.5584 29.1 27.6251 29.1083 27.7001 29.1083C27.8417 29.1083 27.9501 29.0583 28.0417 28.9667L28.6751 28.3417C28.8834 28.1333 29.0834 27.975 29.2751 27.875C29.4667 27.7583 29.6584 27.7 29.8667 27.7C30.0251 27.7 30.1917 27.7333 30.3751 27.8083C30.5584 27.8833 30.7501 27.9917 30.9584 28.1333L33.7167 30.0917C33.9334 30.2417 34.0834 30.4167 34.1751 30.625C34.2584 30.8333 34.3084 31.0417 34.3084 31.275Z" stroke="#313233" stroke-miterlimit="10"/>
<path d="M25.2084 64.4583L23.6667 66C23.3417 66.325 22.8251 66.325 22.4917 66.0083C22.4001 65.9167 22.3084 65.8333 22.2167 65.7417C21.3584 64.875 20.5834 63.9667 19.8917 63.0167C19.2084 62.0667 18.6584 61.1167 18.2584 60.175C17.8667 59.225 17.6667 58.3167 17.6667 57.45C17.6667 56.8833 17.7667 56.3417 17.9667 55.8417C18.1667 55.3333 18.4834 54.8667 18.9251 54.45C19.4584 53.925 20.0417 53.6667 20.6584 53.6667C20.8917 53.6667 21.1251 53.7167 21.3334 53.8167C21.5501 53.9167 21.7417 54.0667 21.8917 54.2833L23.8251 57.0083C23.9751 57.2167 24.0834 57.4083 24.1584 57.5917C24.2334 57.7667 24.2751 57.9417 24.2751 58.1C24.2751 58.3 24.2167 58.5 24.1001 58.6917C23.9917 58.8833 23.8334 59.0833 23.6334 59.2833L23.0001 59.9417C22.9084 60.0333 22.8667 60.1417 22.8667 60.275C22.8667 60.3417 22.8751 60.4 22.8917 60.4667C22.9167 60.5333 22.9417 60.5833 22.9584 60.6333C23.1084 60.9083 23.3667 61.2667 23.7334 61.7C24.1084 62.1333 24.5084 62.575 24.9417 63.0167C25.0251 63.1 25.1167 63.1833 25.2001 63.2667C25.5334 63.5917 25.5417 64.125 25.2084 64.4583Z" fill="#313233"/>
<path d="M34.3083 67.275C34.3083 67.5083 34.2667 67.75 34.1833 67.9833C34.1583 68.05 34.1333 68.1167 34.1 68.1833C33.9583 68.4833 33.775 68.7667 33.5333 69.0333C33.125 69.4833 32.675 69.8083 32.1667 70.0167C32.1583 70.0167 32.15 70.025 32.1417 70.025C31.65 70.225 31.1167 70.3333 30.5417 70.3333C29.6917 70.3333 28.7833 70.1333 27.825 69.725C26.8667 69.3167 25.9083 68.7667 24.9583 68.075C24.6333 67.8333 24.3083 67.5917 24 67.3333L26.725 64.6083C26.9583 64.7833 27.1667 64.9167 27.3417 65.0083C27.3833 65.025 27.4333 65.05 27.4917 65.075C27.5583 65.1 27.625 65.1083 27.7 65.1083C27.8417 65.1083 27.95 65.0583 28.0417 64.9667L28.675 64.3417C28.8833 64.1333 29.0833 63.975 29.275 63.875C29.4667 63.7583 29.6583 63.7 29.8667 63.7C30.025 63.7 30.1917 63.7333 30.375 63.8083C30.5583 63.8833 30.75 63.9917 30.9583 64.1333L33.7167 66.0917C33.9333 66.2417 34.0833 66.4167 34.175 66.625C34.2583 66.8333 34.3083 67.0417 34.3083 67.275Z" fill="#313233"/>
<rect x="0.5" y="0.5" width="51" height="87" rx="4.5" stroke="#9747FF" stroke-dasharray="10 5"/>
</svg>
