<svg width="52" height="88" viewBox="0 0 52 88" fill="none" xmlns="http://www.w3.org/2000/svg">
<path d="M21.6334 34.3333H30.3667C32.6667 34.3333 33.5834 32.925 33.6917 31.2083L34.1251 24.325C34.2417 22.525 32.8084 21 31.0001 21C30.4917 21 30.0251 20.7083 29.7917 20.2583L29.1917 19.05C28.8084 18.2917 27.8084 17.6667 26.9584 17.6667H25.0501C24.1917 17.6667 23.1917 18.2917 22.8084 19.05L22.2084 20.2583C21.9751 20.7083 21.5084 21 21.0001 21C19.1917 21 17.7584 22.525 17.8751 24.325L18.3084 31.2083C18.4084 32.925 19.3334 34.3333 21.6334 34.3333Z" stroke="#313233" stroke-linecap="round" stroke-linejoin="round"/>
<path d="M24.75 22.6667H27.25" stroke="#313233" stroke-linecap="round" stroke-linejoin="round"/>
<path d="M26.0001 31C27.4917 31 28.7084 29.7833 28.7084 28.2917C28.7084 26.8 27.4917 25.5833 26.0001 25.5833C24.5084 25.5833 23.2917 26.8 23.2917 28.2917C23.2917 29.7833 24.5084 31 26.0001 31Z" stroke="#313233" stroke-linecap="round" stroke-linejoin="round"/>
<path d="M31.0001 57C30.4917 57 30.0251 56.7083 29.7917 56.2583L29.1917 55.05C28.8084 54.2917 27.8084 53.6667 26.9584 53.6667H25.0501C24.1917 53.6667 23.1917 54.2917 22.8084 55.05L22.2084 56.2583C21.9751 56.7083 21.5084 57 21.0001 57C19.1917 57 17.7584 58.525 17.8751 60.325L18.3084 67.2083C18.4084 68.925 19.3334 70.3333 21.6334 70.3333H30.3667C32.6667 70.3333 33.5834 68.925 33.6917 67.2083L34.1251 60.325C34.2417 58.525 32.8084 57 31.0001 57ZM24.7501 58.0417H27.2501C27.5917 58.0417 27.8751 58.325 27.8751 58.6667C27.8751 59.0083 27.5917 59.2917 27.2501 59.2917H24.7501C24.4084 59.2917 24.1251 59.0083 24.1251 58.6667C24.1251 58.325 24.4084 58.0417 24.7501 58.0417ZM26.0001 67.1C24.4501 67.1 23.1834 65.8417 23.1834 64.2833C23.1834 62.725 24.4417 61.4667 26.0001 61.4667C27.5584 61.4667 28.8167 62.725 28.8167 64.2833C28.8167 65.8417 27.5501 67.1 26.0001 67.1Z" fill="#313233"/>
<rect x="0.5" y="0.5" width="51" height="87" rx="4.5" stroke="#9747FF" stroke-dasharray="10 5"/>
</svg>
