<svg width="52" height="88" viewBox="0 0 52 88" fill="none" xmlns="http://www.w3.org/2000/svg">
<path d="M21.4167 34.3333V28.5" stroke="#313233" stroke-miterlimit="10" stroke-linecap="round" stroke-linejoin="round"/>
<path d="M21.4167 20.1667V17.6667" stroke="#313233" stroke-miterlimit="10" stroke-linecap="round" stroke-linejoin="round"/>
<path d="M30.5833 34.3333V31.8333" stroke="#313233" stroke-miterlimit="10" stroke-linecap="round" stroke-linejoin="round"/>
<path d="M30.5833 23.5V17.6667" stroke="#313233" stroke-miterlimit="10" stroke-linecap="round" stroke-linejoin="round"/>
<path d="M23.9167 21.8333V26.8333C23.9167 27.75 23.5001 28.5 22.2501 28.5H20.5834C19.3334 28.5 18.9167 27.75 18.9167 26.8333V21.8333C18.9167 20.9167 19.3334 20.1667 20.5834 20.1667H22.2501C23.5001 20.1667 23.9167 20.9167 23.9167 21.8333Z" stroke="#313233" stroke-miterlimit="10" stroke-linecap="round" stroke-linejoin="round"/>
<path d="M33.0833 25.1667V30.1667C33.0833 31.0833 32.6666 31.8333 31.4166 31.8333H29.7499C28.4999 31.8333 28.0833 31.0833 28.0833 30.1667V25.1667C28.0833 24.25 28.4999 23.5 29.7499 23.5H31.4166C32.6666 23.5 33.0833 24.25 33.0833 25.1667Z" stroke="#313233" stroke-miterlimit="10" stroke-linecap="round" stroke-linejoin="round"/>
<path d="M22.25 55.75H22.0417V53.6667C22.0417 53.325 21.7583 53.0417 21.4167 53.0417C21.075 53.0417 20.7917 53.325 20.7917 53.6667V55.75H20.5833C19.2583 55.75 18.5 56.5083 18.5 57.8333V62.8333C18.5 64.1583 19.2583 64.9167 20.5833 64.9167H20.7917V70.3333C20.7917 70.675 21.075 70.9583 21.4167 70.9583C21.7583 70.9583 22.0417 70.675 22.0417 70.3333V64.9167H22.25C23.575 64.9167 24.3333 64.1583 24.3333 62.8333V57.8333C24.3333 56.5083 23.575 55.75 22.25 55.75Z" fill="#313233"/>
<path d="M31.4167 59.0833H31.2084V53.6667C31.2084 53.325 30.9251 53.0417 30.5834 53.0417C30.2417 53.0417 29.9584 53.325 29.9584 53.6667V59.0833H29.7501C28.4251 59.0833 27.6667 59.8417 27.6667 61.1667V66.1667C27.6667 67.4917 28.4251 68.25 29.7501 68.25H29.9584V70.3333C29.9584 70.675 30.2417 70.9583 30.5834 70.9583C30.9251 70.9583 31.2084 70.675 31.2084 70.3333V68.25H31.4167C32.7417 68.25 33.5001 67.4917 33.5001 66.1667V61.1667C33.5001 59.8417 32.7417 59.0833 31.4167 59.0833Z" fill="#313233"/>
<rect x="0.5" y="0.5" width="51" height="87" rx="4.5" stroke="#9747FF" stroke-dasharray="10 5"/>
</svg>
