<svg width="52" height="88" viewBox="0 0 52 88" fill="none" xmlns="http://www.w3.org/2000/svg">
<g clip-path="url(#clip0_75_1364)">
<path d="M34.5183 29.14L34.3308 28.2025H32.2358L31.9025 29.1333L30.2233 29.1367C31.0227 27.2143 31.8238 25.2926 32.6267 23.3717C32.7633 23.0458 33.0058 22.88 33.3633 22.8817C33.6367 22.8842 34.0825 22.8842 34.7017 22.8825L36 29.1375L34.5183 29.14ZM32.7075 26.9183H34.0575L33.5533 24.5683L32.7075 26.9183ZM21.8833 22.8808L23.5717 22.8825L20.9617 29.1408L19.2525 29.1392C18.8227 27.4861 18.3983 25.8316 17.9792 24.1758C17.8958 23.8458 17.7308 23.615 17.4133 23.5058C16.9444 23.3487 16.4732 23.1981 16 23.0542L16 22.8833H18.6975C19.1642 22.8833 19.4367 23.1092 19.5242 23.5725C19.6125 24.0367 19.8342 25.2183 20.1908 27.1175L21.8833 22.8808ZM25.8917 22.8825L24.5567 29.1392L22.95 29.1375L24.2833 22.8808L25.8917 22.8825ZM29.15 22.7667C29.6308 22.7667 30.2367 22.9167 30.585 23.0542L30.3033 24.3517C29.9883 24.225 29.47 24.0542 29.0342 24.06C28.4008 24.0708 28.0092 24.3367 28.0092 24.5917C28.0092 25.0067 28.6892 25.2158 29.3892 25.6692C30.1883 26.1858 30.2933 26.65 30.2833 27.1542C30.2725 28.2008 29.3892 29.2333 27.5258 29.2333C26.6758 29.2208 26.3692 29.1492 25.6758 28.9033L25.9692 27.5492C26.675 27.845 26.9742 27.9392 27.5775 27.9392C28.13 27.9392 28.6042 27.7158 28.6083 27.3267C28.6117 27.05 28.4417 26.9125 27.8217 26.5708C27.2017 26.2283 26.3317 25.7542 26.3433 24.8025C26.3575 23.5842 27.5117 22.7667 29.1508 22.7667H29.15Z" fill="#313233"/>
</g>
<path d="M28.0612 56.7587H23.9275V67.2413H28.0612V56.7587Z" fill="#313233"/>
<path d="M24.1901 62C24.1894 60.9904 24.3515 59.9939 24.6641 59.0858C24.9768 58.1778 25.4317 57.382 25.9944 56.7587C25.2975 55.9856 24.4605 55.5049 23.5792 55.3714C22.6978 55.2379 21.8076 55.4571 21.0103 56.0038C20.213 56.5505 19.5408 57.4027 19.0705 58.4631C18.6002 59.5234 18.3508 60.7491 18.3508 62C18.3508 63.2509 18.6002 64.4766 19.0705 65.5369C19.5408 66.5973 20.213 67.4495 21.0103 67.9962C21.8076 68.5429 22.6978 68.7621 23.5792 68.6286C24.4605 68.4951 25.2975 68.0143 25.9944 67.2413C25.4317 66.618 24.9768 65.8222 24.6642 64.9142C24.3515 64.0061 24.1894 63.0096 24.1901 62Z" fill="#313233"/>
<path d="M33.6378 62C33.6378 63.2509 33.3884 64.4766 32.9182 65.5369C32.4479 66.5973 31.7757 67.4495 30.9784 67.9962C30.1812 68.5429 29.291 68.7621 28.4096 68.6286C27.5282 68.4951 26.6913 68.0144 25.9944 67.2413C26.5567 66.6174 27.0112 65.8215 27.3238 64.9135C27.6363 64.0056 27.7987 63.0094 27.7987 62C27.7987 60.9906 27.6363 59.9944 27.3238 59.0865C27.0112 58.1785 26.5567 57.3826 25.9944 56.7587C26.6913 55.9856 27.5282 55.5049 28.4096 55.3714C29.291 55.2379 30.1812 55.4571 30.9784 56.0038C31.7757 56.5505 32.4479 57.4027 32.9182 58.4631C33.3884 59.5234 33.6378 60.7491 33.6378 62Z" fill="#313233"/>
<path d="M33.1871 66.131V65.9164H33.2485V65.8727H33.0923V65.9164H33.1536V66.131H33.1871ZM33.4903 66.131V65.8723H33.4425L33.3874 66.0503L33.3323 65.8723H33.2844V66.131H33.3182V65.9359L33.3699 66.1041H33.4049L33.4566 65.9354V66.131H33.4903Z" fill="#313233"/>
<rect x="0.5" y="0.5" width="51" height="87" rx="4.5" stroke="#9747FF" stroke-dasharray="10 5"/>
<defs>
<clipPath id="clip0_75_1364">
<rect width="20" height="20" fill="white" transform="translate(16 16)"/>
</clipPath>
</defs>
</svg>
