<svg width="52" height="88" viewBox="0 0 52 88" fill="none" xmlns="http://www.w3.org/2000/svg">
<path d="M17.6667 23.0875H34.3334" stroke="#313233" stroke-miterlimit="10" stroke-linecap="round" stroke-linejoin="round"/>
<path d="M21 29.7542H22.6667" stroke="#313233" stroke-miterlimit="10" stroke-linecap="round" stroke-linejoin="round"/>
<path d="M24.75 29.7542H28.0833" stroke="#313233" stroke-miterlimit="10" stroke-linecap="round" stroke-linejoin="round"/>
<path d="M21.3667 18.9208H30.6251C33.5917 18.9208 34.3334 19.6541 34.3334 22.5791V29.4208C34.3334 32.3458 33.5917 33.0791 30.6334 33.0791H21.3667C18.4084 33.0874 17.6667 32.3541 17.6667 29.4291V22.5791C17.6667 19.6541 18.4084 18.9208 21.3667 18.9208Z" stroke="#313233" stroke-linecap="round" stroke-linejoin="round"/>
<path d="M34.3334 58.2917C34.3334 58.8417 33.8834 59.2917 33.3334 59.2917H18.6667C18.1167 59.2917 17.6667 58.8417 17.6667 58.2917V58.2834C17.6667 56.375 19.2084 54.8334 21.1167 54.8334H30.8751C32.7834 54.8334 34.3334 56.3834 34.3334 58.2917Z" fill="#313233"/>
<path d="M17.6667 61.5416V65.7166C17.6667 67.625 19.2084 69.1666 21.1167 69.1666H30.8751C32.7834 69.1666 34.3334 67.6166 34.3334 65.7083V61.5416C34.3334 60.9916 33.8834 60.5416 33.3334 60.5416H18.6667C18.1167 60.5416 17.6667 60.9916 17.6667 61.5416ZM22.6667 66.375H21.0001C20.6584 66.375 20.3751 66.0916 20.3751 65.75C20.3751 65.4083 20.6584 65.125 21.0001 65.125H22.6667C23.0084 65.125 23.2917 65.4083 23.2917 65.75C23.2917 66.0916 23.0084 66.375 22.6667 66.375ZM28.0834 66.375H24.7501C24.4084 66.375 24.1251 66.0916 24.1251 65.75C24.1251 65.4083 24.4084 65.125 24.7501 65.125H28.0834C28.4251 65.125 28.7084 65.4083 28.7084 65.75C28.7084 66.0916 28.4251 66.375 28.0834 66.375Z" fill="#313233"/>
<rect x="0.5" y="0.5" width="51" height="87" rx="4.5" stroke="#9747FF" stroke-dasharray="10 5"/>
</svg>
