<svg width="52" height="88" viewBox="0 0 52 88" fill="none" xmlns="http://www.w3.org/2000/svg">
<path d="M17.6666 17.6667H19.1166C20.0166 17.6667 20.725 18.4417 20.65 19.3333L19.9583 27.6333C19.8416 28.9917 20.9166 30.1583 22.2833 30.1583H31.1583C32.3583 30.1583 33.4083 29.175 33.5 27.9833L33.95 21.7333C34.05 20.35 33 19.225 31.6083 19.225H20.85" stroke="#313233" stroke-miterlimit="10" stroke-linecap="round" stroke-linejoin="round"/>
<path d="M29.5417 34.3333C30.117 34.3333 30.5833 33.867 30.5833 33.2917C30.5833 32.7164 30.117 32.25 29.5417 32.25C28.9664 32.25 28.5 32.7164 28.5 33.2917C28.5 33.867 28.9664 34.3333 29.5417 34.3333Z" stroke="#313233" stroke-miterlimit="10" stroke-linecap="round" stroke-linejoin="round"/>
<path d="M22.875 34.3333C23.4503 34.3333 23.9167 33.867 23.9167 33.2917C23.9167 32.7164 23.4503 32.25 22.875 32.25C22.2997 32.25 21.8334 32.7164 21.8334 33.2917C21.8334 33.867 22.2997 34.3333 22.875 34.3333Z" stroke="#313233" stroke-miterlimit="10" stroke-linecap="round" stroke-linejoin="round"/>
<path d="M23.5 22.6667H33.5" stroke="#313233" stroke-miterlimit="10" stroke-linecap="round" stroke-linejoin="round"/>
<path d="M29.5417 70.75C30.3471 70.75 31 70.0971 31 69.2917C31 68.4862 30.3471 67.8333 29.5417 67.8333C28.7363 67.8333 28.0834 68.4862 28.0834 69.2917C28.0834 70.0971 28.7363 70.75 29.5417 70.75Z" fill="#313233"/>
<path d="M22.875 70.75C23.6804 70.75 24.3333 70.0971 24.3333 69.2917C24.3333 68.4862 23.6804 67.8333 22.875 67.8333C22.0695 67.8333 21.4166 68.4862 21.4166 69.2917C21.4166 70.0971 22.0695 70.75 22.875 70.75Z" fill="#313233"/>
<path d="M20.0333 55.2833L19.8666 57.325C19.8333 57.7167 20.1416 58.0417 20.5333 58.0417H33.2916C33.6416 58.0417 33.9333 57.775 33.9583 57.425C34.0666 55.95 32.9416 54.75 31.4666 54.75H21.225C21.1416 54.3833 20.975 54.0333 20.7166 53.7417C20.3 53.3 19.7166 53.0417 19.1166 53.0417H17.6666C17.325 53.0417 17.0416 53.325 17.0416 53.6667C17.0416 54.0083 17.325 54.2917 17.6666 54.2917H19.1166C19.375 54.2917 19.6166 54.4 19.7916 54.5833C19.9666 54.775 20.05 55.025 20.0333 55.2833Z" fill="#313233"/>
<path d="M33.0916 59.2917H20.3083C19.9583 59.2917 19.675 59.5583 19.6416 59.9L19.3416 63.525C19.225 64.95 20.3416 66.1667 21.7666 66.1667H31.0333C32.2833 66.1667 33.3833 65.1417 33.475 63.8917L33.75 60C33.7833 59.6167 33.4833 59.2917 33.0916 59.2917Z" fill="#313233"/>
<rect x="0.5" y="0.5" width="51" height="87" rx="4.5" stroke="#9747FF" stroke-dasharray="10 5"/>
</svg>
