<svg width="52" height="88" viewBox="0 0 52 88" fill="none" xmlns="http://www.w3.org/2000/svg">
<path d="M34.3334 24.3333V26.8333C34.3334 30.1667 32.6667 31.8333 29.3334 31.8333H28.9167C28.6584 31.8333 28.4084 31.9583 28.2501 32.1667L27.0001 33.8333C26.4501 34.5667 25.5501 34.5667 25.0001 33.8333L23.7501 32.1667C23.6167 31.9833 23.3084 31.8333 23.0834 31.8333H22.6667C19.3334 31.8333 17.6667 31 17.6667 26.8333V22.6667C17.6667 19.3333 19.3334 17.6667 22.6667 17.6667H27.6667" stroke="#313233" stroke-miterlimit="10" stroke-linecap="round" stroke-linejoin="round"/>
<path d="M32.2501 21.8333C33.4007 21.8333 34.3334 20.9006 34.3334 19.75C34.3334 18.5994 33.4007 17.6667 32.2501 17.6667C31.0995 17.6667 30.1667 18.5994 30.1667 19.75C30.1667 20.9006 31.0995 21.8333 32.2501 21.8333Z" stroke="#313233" stroke-linecap="round" stroke-linejoin="round"/>
<path d="M29.3303 25.1667H29.3378" stroke="#313233" stroke-linecap="round" stroke-linejoin="round"/>
<path d="M25.9963 25.1667H26.0038" stroke="#313233" stroke-linecap="round" stroke-linejoin="round"/>
<path d="M22.6621 25.1667H22.6696" stroke="#313233" stroke-linecap="round" stroke-linejoin="round"/>
<path d="M32.6667 57.625C33.9323 57.625 34.9583 56.599 34.9583 55.3333C34.9583 54.0677 33.9323 53.0417 32.6667 53.0417C31.401 53.0417 30.375 54.0677 30.375 55.3333C30.375 56.599 31.401 57.625 32.6667 57.625Z" fill="#313233"/>
<path d="M31.8667 58.7917C30.5584 58.5083 29.4917 57.4417 29.2084 56.1333C29.1001 55.625 29.0917 55.1333 29.1834 54.6667C29.2917 54.15 28.9084 53.6667 28.3751 53.6667H21.8334C19.5334 53.6667 17.6667 55.5333 17.6667 57.8333V63.625C17.6667 65.925 19.5334 67.7917 21.8334 67.7917H23.0834C23.3167 67.7917 23.6167 67.9417 23.7501 68.125L25.0001 69.7833C25.5501 70.5167 26.4501 70.5167 27.0001 69.7833L28.2501 68.125C28.4084 67.9167 28.6501 67.7917 28.9167 67.7917H30.1751C32.4751 67.7917 34.3334 65.9333 34.3334 63.6333V59.625C34.3334 59.1 33.8501 58.7167 33.3334 58.8167C32.8667 58.9 32.3751 58.9 31.8667 58.7917ZM22.6667 62C22.2001 62 21.8334 61.625 21.8334 61.1667C21.8334 60.7083 22.2001 60.3333 22.6667 60.3333C23.1251 60.3333 23.5001 60.7083 23.5001 61.1667C23.5001 61.625 23.1334 62 22.6667 62ZM26.0001 62C25.5334 62 25.1667 61.625 25.1667 61.1667C25.1667 60.7083 25.5334 60.3333 26.0001 60.3333C26.4584 60.3333 26.8334 60.7083 26.8334 61.1667C26.8334 61.625 26.4667 62 26.0001 62ZM29.3334 62C28.8667 62 28.5001 61.625 28.5001 61.1667C28.5001 60.7083 28.8667 60.3333 29.3334 60.3333C29.7917 60.3333 30.1667 60.7083 30.1667 61.1667C30.1667 61.625 29.8001 62 29.3334 62Z" fill="#313233"/>
<rect x="0.5" y="0.5" width="51" height="87" rx="4.5" stroke="#9747FF" stroke-dasharray="10 5"/>
</svg>
