<svg width="52" height="88" viewBox="0 0 52 88" fill="none" xmlns="http://www.w3.org/2000/svg">
<path d="M23.0834 31.8333H22.6667C19.3334 31.8333 17.6667 31 17.6667 26.8333V22.6667C17.6667 19.3333 19.3334 17.6667 22.6667 17.6667H29.3334C32.6667 17.6667 34.3334 19.3333 34.3334 22.6667V26.8333C34.3334 30.1667 32.6667 31.8333 29.3334 31.8333H28.9167C28.6584 31.8333 28.4084 31.9583 28.2501 32.1667L27.0001 33.8333C26.4501 34.5667 25.5501 34.5667 25.0001 33.8333L23.7501 32.1667C23.6167 31.9833 23.3084 31.8333 23.0834 31.8333Z" stroke="#313233" stroke-miterlimit="10" stroke-linecap="round" stroke-linejoin="round"/>
<path d="M29.3303 25.1667H29.3378" stroke="#313233" stroke-linecap="round" stroke-linejoin="round"/>
<path d="M25.9963 25.1667H26.0038" stroke="#313233" stroke-linecap="round" stroke-linejoin="round"/>
<path d="M22.6621 25.1667H22.6696" stroke="#313233" stroke-linecap="round" stroke-linejoin="round"/>
<path d="M30.1667 53.6667H21.8334C19.5334 53.6667 17.6667 55.525 17.6667 57.8167V62.8V63.6333C17.6667 65.925 19.5334 67.7833 21.8334 67.7833H23.0834C23.3084 67.7833 23.6084 67.9333 23.7501 68.1167L25.0001 69.775C25.5501 70.5083 26.4501 70.5083 27.0001 69.775L28.2501 68.1167C28.4084 67.9083 28.6584 67.7833 28.9167 67.7833H30.1667C32.4667 67.7833 34.3334 65.925 34.3334 63.6333V57.8167C34.3334 55.525 32.4667 53.6667 30.1667 53.6667ZM22.6667 62C22.2001 62 21.8334 61.625 21.8334 61.1667C21.8334 60.7083 22.2084 60.3333 22.6667 60.3333C23.1251 60.3333 23.5001 60.7083 23.5001 61.1667C23.5001 61.625 23.1334 62 22.6667 62ZM26.0001 62C25.5334 62 25.1667 61.625 25.1667 61.1667C25.1667 60.7083 25.5417 60.3333 26.0001 60.3333C26.4584 60.3333 26.8334 60.7083 26.8334 61.1667C26.8334 61.625 26.4667 62 26.0001 62ZM29.3334 62C28.8667 62 28.5001 61.625 28.5001 61.1667C28.5001 60.7083 28.8751 60.3333 29.3334 60.3333C29.7917 60.3333 30.1667 60.7083 30.1667 61.1667C30.1667 61.625 29.8001 62 29.3334 62Z" fill="#313233"/>
<rect x="0.5" y="0.5" width="51" height="87" rx="4.5" stroke="#9747FF" stroke-dasharray="10 5"/>
</svg>
