<svg width="52" height="88" viewBox="0 0 52 88" fill="none" xmlns="http://www.w3.org/2000/svg">
<path d="M23.5001 34.3333H28.5001C32.6667 34.3333 34.3334 32.6667 34.3334 28.5V23.5C34.3334 19.3333 32.6667 17.6667 28.5001 17.6667H23.5001C19.3334 17.6667 17.6667 19.3333 17.6667 23.5V28.5C17.6667 32.6667 19.3334 34.3333 23.5001 34.3333Z" stroke="#313233" stroke-linecap="round" stroke-linejoin="round"/>
<path d="M22.4583 26L24.8166 28.3583L29.5416 23.6417" stroke="#313233" stroke-linecap="round" stroke-linejoin="round"/>
<path d="M29.4917 53.6667H22.5084C19.4751 53.6667 17.6667 55.475 17.6667 58.5083V65.4833C17.6667 68.525 19.4751 70.3333 22.5084 70.3333H29.4834C32.5167 70.3333 34.3251 68.525 34.3251 65.4917V58.5083C34.3334 55.475 32.5251 53.6667 29.4917 53.6667ZM29.9834 60.0833L25.2584 64.8083C25.1417 64.925 24.9834 64.9917 24.8167 64.9917C24.6501 64.9917 24.4917 64.925 24.3751 64.8083L22.0167 62.45C21.7751 62.2083 21.7751 61.8083 22.0167 61.5667C22.2584 61.325 22.6584 61.325 22.9001 61.5667L24.8167 63.4833L29.1001 59.2C29.3417 58.9583 29.7417 58.9583 29.9834 59.2C30.2251 59.4417 30.2251 59.8333 29.9834 60.0833Z" fill="#313233"/>
<rect x="0.5" y="0.5" width="51" height="87" rx="4.5" stroke="#9747FF" stroke-dasharray="10 5"/>
</svg>
