<svg width="52" height="88" viewBox="0 0 52 88" fill="none" xmlns="http://www.w3.org/2000/svg">
<path d="M34.3334 26C34.3334 30.6 30.6001 34.3333 26.0001 34.3333C21.4001 34.3333 17.6667 30.6 17.6667 26C17.6667 21.4 21.4001 17.6667 26.0001 17.6667C30.6001 17.6667 34.3334 21.4 34.3334 26Z" stroke="#313233" stroke-linecap="round" stroke-linejoin="round"/>
<path d="M29.0917 28.65L26.5083 27.1083C26.0583 26.8417 25.6917 26.2 25.6917 25.675V22.2583" stroke="#313233" stroke-linecap="round" stroke-linejoin="round"/>
<path d="M26.0001 53.6667C21.4084 53.6667 17.6667 57.4083 17.6667 62C17.6667 66.5917 21.4084 70.3333 26.0001 70.3333C30.5917 70.3333 34.3334 66.5917 34.3334 62C34.3334 57.4083 30.5917 53.6667 26.0001 53.6667ZM29.6251 64.975C29.5084 65.175 29.3001 65.2833 29.0834 65.2833C28.9751 65.2833 28.8667 65.2583 28.7667 65.1917L26.1834 63.65C25.5417 63.2667 25.0667 62.425 25.0667 61.6833V58.2667C25.0667 57.925 25.3501 57.6417 25.6917 57.6417C26.0334 57.6417 26.3167 57.925 26.3167 58.2667V61.6833C26.3167 61.9833 26.5667 62.425 26.8251 62.575L29.4084 64.1167C29.7084 64.2917 29.8084 64.675 29.6251 64.975Z" fill="#313233"/>
<rect x="0.5" y="0.5" width="51" height="87" rx="4.5" stroke="#9747FF" stroke-dasharray="10 5"/>
</svg>
