<svg width="52" height="88" viewBox="0 0 52 88" fill="none" xmlns="http://www.w3.org/2000/svg">
<path d="M25.2501 34.9583H21.7501C18.4917 34.9583 17.0417 33.5083 17.0417 30.25V26.75C17.0417 23.4917 18.4917 22.0417 21.7501 22.0417H25.2501C28.5084 22.0417 29.9584 23.4917 29.9584 26.75V30.25C29.9584 33.5083 28.5084 34.9583 25.2501 34.9583ZM21.7501 23.2917C19.1667 23.2917 18.2917 24.1667 18.2917 26.75V30.25C18.2917 32.8333 19.1667 33.7083 21.7501 33.7083H25.2501C27.8334 33.7083 28.7084 32.8333 28.7084 30.25V26.75C28.7084 24.1667 27.8334 23.2917 25.2501 23.2917H21.7501Z" fill="#313233"/>
<path d="M30.2501 29.9583H29.3334C28.9917 29.9583 28.7084 29.675 28.7084 29.3333V26.75C28.7084 24.1667 27.8334 23.2917 25.2501 23.2917H22.6667C22.3251 23.2917 22.0417 23.0083 22.0417 22.6667V21.75C22.0417 18.4917 23.4917 17.0417 26.7501 17.0417H30.2501C33.5084 17.0417 34.9584 18.4917 34.9584 21.75V25.25C34.9584 28.5083 33.5084 29.9583 30.2501 29.9583ZM29.9584 28.7083H30.2501C32.8334 28.7083 33.7084 27.8333 33.7084 25.25V21.75C33.7084 19.1667 32.8334 18.2917 30.2501 18.2917H26.7501C24.1667 18.2917 23.2917 19.1667 23.2917 21.75V22.0417H25.2501C28.5084 22.0417 29.9584 23.4917 29.9584 26.75V28.7083Z" fill="#313233"/>
<path d="M29.3334 62.75V66.25C29.3334 69.1667 28.1667 70.3333 25.2501 70.3333H21.7501C18.8334 70.3333 17.6667 69.1667 17.6667 66.25V62.75C17.6667 59.8333 18.8334 58.6667 21.7501 58.6667H25.2501C28.1667 58.6667 29.3334 59.8333 29.3334 62.75Z" fill="#313233"/>
<path d="M30.25 53.6667H26.75C24.2466 53.6667 23.0385 54.5323 22.746 56.6157C22.6686 57.1673 23.13 57.625 23.687 57.625H25.25C28.75 57.625 30.375 59.25 30.375 62.75V64.3131C30.375 64.87 30.8328 65.3315 31.3843 65.254C33.4677 64.9616 34.3334 63.7535 34.3334 61.25V57.75C34.3334 54.8333 33.1667 53.6667 30.25 53.6667Z" fill="#313233"/>
<rect x="0.5" y="0.5" width="51" height="87" rx="4.5" stroke="#9747FF" stroke-dasharray="10 5"/>
</svg>
