<svg width="52" height="88" viewBox="0 0 52 88" fill="none" xmlns="http://www.w3.org/2000/svg">
<path d="M26 23.5V27.6667" stroke="#313233" stroke-linecap="round" stroke-linejoin="round"/>
<path d="M25.9996 33.8411H20.9496C18.058 33.8411 16.8496 31.7744 18.2496 29.2494L20.8496 24.5661L23.2996 20.1661C24.783 17.4911 27.2163 17.4911 28.6996 20.1661L31.1496 24.5744L33.7496 29.2577C35.1496 31.7827 33.933 33.8494 31.0496 33.8494H25.9996V33.8411Z" stroke="#313233" stroke-linecap="round" stroke-linejoin="round"/>
<path d="M25.9951 30.1667H26.0026" stroke="#313233" stroke-linecap="round" stroke-linejoin="round"/>
<path d="M34.1333 65.2667L28.8 55.6667C28.0833 54.375 27.0916 53.6667 26 53.6667C24.9083 53.6667 23.9166 54.375 23.2 55.6667L17.8666 65.2667C17.1916 66.4917 17.1166 67.6667 17.6583 68.5917C18.2 69.5167 19.2666 70.025 20.6666 70.025H31.3333C32.7333 70.025 33.8 69.5167 34.3416 68.5917C34.8833 67.6667 34.8083 66.4833 34.1333 65.2667ZM25.375 59.5C25.375 59.1583 25.6583 58.875 26 58.875C26.3416 58.875 26.625 59.1583 26.625 59.5V63.6667C26.625 64.0083 26.3416 64.2917 26 64.2917C25.6583 64.2917 25.375 64.0083 25.375 63.6667V59.5ZM26.5916 66.7583C26.55 66.7917 26.5083 66.825 26.4666 66.8583C26.4166 66.8917 26.3666 66.9167 26.3166 66.9333C26.2666 66.9583 26.2166 66.975 26.1583 66.9833C26.1083 66.9917 26.05 67 26 67C25.95 67 25.8916 66.9917 25.8333 66.9833C25.7833 66.975 25.7333 66.9583 25.6833 66.9333C25.6333 66.9167 25.5833 66.8917 25.5333 66.8583C25.4916 66.825 25.45 66.7917 25.4083 66.7583C25.2583 66.6 25.1666 66.3833 25.1666 66.1667C25.1666 65.95 25.2583 65.7333 25.4083 65.575C25.45 65.5417 25.4916 65.5083 25.5333 65.475C25.5833 65.4417 25.6333 65.4167 25.6833 65.4C25.7333 65.375 25.7833 65.3583 25.8333 65.35C25.9416 65.325 26.0583 65.325 26.1583 65.35C26.2166 65.3583 26.2666 65.375 26.3166 65.4C26.3666 65.4167 26.4166 65.4417 26.4666 65.475C26.5083 65.5083 26.55 65.5417 26.5916 65.575C26.7416 65.7333 26.8333 65.95 26.8333 66.1667C26.8333 66.3833 26.7416 66.6 26.5916 66.7583Z" fill="#313233"/>
<rect x="0.5" y="0.5" width="51" height="87" rx="4.5" stroke="#9747FF" stroke-dasharray="10 5"/>
</svg>
