<svg width="52" height="88" viewBox="0 0 52 88" fill="none" xmlns="http://www.w3.org/2000/svg">
<path d="M34.3333 23.1V19.3167C34.3333 18.1417 33.8 17.6667 32.475 17.6667H29.1083C27.7833 17.6667 27.25 18.1417 27.25 19.3167V23.0917C27.25 24.275 27.7833 24.7417 29.1083 24.7417H32.475C33.8 24.75 34.3333 24.275 34.3333 23.1Z" stroke="#313233" stroke-linecap="round" stroke-linejoin="round"/>
<path d="M34.3333 32.475V29.1083C34.3333 27.7833 33.8 27.25 32.475 27.25H29.1083C27.7833 27.25 27.25 27.7833 27.25 29.1083V32.475C27.25 33.8 27.7833 34.3333 29.1083 34.3333H32.475C33.8 34.3333 34.3333 33.8 34.3333 32.475Z" stroke="#313233" stroke-linecap="round" stroke-linejoin="round"/>
<path d="M24.75 23.1V19.3167C24.75 18.1417 24.2166 17.6667 22.8916 17.6667H19.525C18.2 17.6667 17.6666 18.1417 17.6666 19.3167V23.0917C17.6666 24.275 18.2 24.7417 19.525 24.7417H22.8916C24.2166 24.75 24.75 24.275 24.75 23.1Z" stroke="#313233" stroke-linecap="round" stroke-linejoin="round"/>
<path d="M24.75 32.475V29.1083C24.75 27.7833 24.2166 27.25 22.8916 27.25H19.525C18.2 27.25 17.6666 27.7833 17.6666 29.1083V32.475C17.6666 33.8 18.2 34.3333 19.525 34.3333H22.8916C24.2166 34.3333 24.75 33.8 24.75 32.475Z" stroke="#313233" stroke-linecap="round" stroke-linejoin="round"/>
<path d="M34.3333 59.1V55.3167C34.3333 54.1417 33.8 53.6667 32.475 53.6667H29.1083C27.7833 53.6667 27.25 54.1417 27.25 55.3167V59.0917C27.25 60.275 27.7833 60.7417 29.1083 60.7417H32.475C33.8 60.75 34.3333 60.275 34.3333 59.1Z" fill="#313233"/>
<path d="M34.3333 68.475V65.1083C34.3333 63.7833 33.8 63.25 32.475 63.25H29.1083C27.7833 63.25 27.25 63.7833 27.25 65.1083V68.475C27.25 69.8 27.7833 70.3333 29.1083 70.3333H32.475C33.8 70.3333 34.3333 69.8 34.3333 68.475Z" fill="#313233"/>
<path d="M24.75 59.1V55.3167C24.75 54.1417 24.2166 53.6667 22.8916 53.6667H19.525C18.2 53.6667 17.6666 54.1417 17.6666 55.3167V59.0917C17.6666 60.275 18.2 60.7417 19.525 60.7417H22.8916C24.2166 60.75 24.75 60.275 24.75 59.1Z" fill="#313233"/>
<path d="M24.75 68.475V65.1083C24.75 63.7833 24.2166 63.25 22.8916 63.25H19.525C18.2 63.25 17.6666 63.7833 17.6666 65.1083V68.475C17.6666 69.8 18.2 70.3333 19.525 70.3333H22.8916C24.2166 70.3333 24.75 69.8 24.75 68.475Z" fill="#313233"/>
<rect x="0.5" y="0.5" width="51" height="87" rx="4.5" stroke="#9747FF" stroke-dasharray="10 5"/>
</svg>
