<svg width="52" height="92" viewBox="0 0 52 92" fill="none" xmlns="http://www.w3.org/2000/svg">
<path d="M28.2738 34.8406L26.0562 30.3586L24.3027 28.1168C24.0437 27.6785 23.907 27.1787 23.907 26.6695V21.625M23.907 21.625H24.5191C24.7255 21.6249 24.9298 21.6655 25.1205 21.7445C25.3112 21.8234 25.4844 21.9391 25.6303 22.085C25.7763 22.2309 25.892 22.4041 25.971 22.5948C26.05 22.7854 26.0906 22.9897 26.0906 23.1961V30.3586M23.907 21.625C22.4516 21.625 20.9961 24.5363 20.9961 24.5363V27.4473M30.457 26.7195L27.875 25.0234M22.6613 34.6859L24.75 31.625" stroke="black" stroke-width="1.25" stroke-linecap="round" stroke-linejoin="round"/>
<path d="M26.0906 20.1695C26.8944 20.1695 27.5461 19.5178 27.5461 18.714C27.5461 17.9102 26.8944 17.2585 26.0906 17.2585C25.2868 17.2585 24.6351 17.9102 24.6351 18.714C24.6351 19.5178 25.2868 20.1695 26.0906 20.1695Z" stroke="black" stroke-width="1.25" stroke-linecap="round" stroke-linejoin="round"/>
<g clip-path="url(#clip0_497_12199)">
<path d="M27.6666 58.5C28.1087 58.5 28.5326 58.6756 28.8451 58.9882C29.1577 59.3007 29.3333 59.7246 29.3333 60.1667H31.8333C32.2753 60.1667 32.6992 60.3423 33.0118 60.6548C33.3244 60.9674 33.5 61.3913 33.5 61.8333V63.5C33.5001 63.8711 33.3765 64.2316 33.1485 64.5245C32.9206 64.8173 32.6014 65.0257 32.2416 65.1167L34.0266 69.28C34.2466 69.7192 34.3333 70.1008 34.3333 70.5833C34.3336 71.2458 34.1084 71.8886 33.6947 72.406C33.281 72.9234 32.7035 73.2846 32.0572 73.4301C31.4109 73.5755 30.7344 73.4967 30.1389 73.2065C29.5434 72.9163 29.0644 72.432 28.7808 71.8333H24.0525C23.7843 72.3999 23.3407 72.865 22.7875 73.1597C22.2343 73.4544 21.6009 73.5631 20.9811 73.4695C20.3613 73.376 19.7881 73.0853 19.3464 72.6405C18.9048 72.1957 18.6182 71.6205 18.5291 71H18.5C18.2789 71 18.067 70.9122 17.9107 70.7559C17.7544 70.5996 17.6666 70.3877 17.6666 70.1667V63.5C17.6666 63.058 17.8422 62.634 18.1548 62.3215C18.4673 62.0089 18.8913 61.8333 19.3333 61.8333H22.6666C23.1087 61.8333 23.5326 62.0089 23.8451 62.3215C24.1577 62.634 24.3333 63.058 24.3333 63.5V65.1667C24.3333 65.6087 24.5089 66.0326 24.8214 66.3452C25.134 66.6577 25.5579 66.8333 26 66.8333C26.442 66.8333 26.8659 66.6577 27.1785 66.3452C27.491 66.0326 27.6666 65.6087 27.6666 65.1667V60.1667H26C25.7789 60.1667 25.567 60.0789 25.4107 59.9226C25.2544 59.7663 25.1666 59.5543 25.1666 59.3333C25.1666 59.1123 25.2544 58.9004 25.4107 58.7441C25.567 58.5878 25.7789 58.5 26 58.5H27.6666ZM21.4166 69.3333C21.0851 69.3333 20.7672 69.465 20.5327 69.6995C20.2983 69.9339 20.1666 70.2518 20.1666 70.5833C20.1666 70.9149 20.2983 71.2328 20.5327 71.4672C20.7672 71.7016 21.0851 71.8333 21.4166 71.8333C21.7481 71.8333 22.0661 71.7016 22.3005 71.4672C22.5349 71.2328 22.6666 70.9149 22.6666 70.5833C22.6666 70.2518 22.5349 69.9339 22.3005 69.6995C22.0661 69.465 21.7481 69.3333 21.4166 69.3333ZM31.4166 69.3333C31.1694 69.3333 30.9277 69.4066 30.7222 69.544C30.5166 69.6813 30.3564 69.8766 30.2618 70.105C30.1672 70.3334 30.1424 70.5847 30.1906 70.8272C30.2389 71.0697 30.3579 71.2924 30.5327 71.4672C30.7076 71.642 30.9303 71.7611 31.1728 71.8093C31.4152 71.8575 31.6666 71.8328 31.895 71.7382C32.1234 71.6436 32.3186 71.4834 32.456 71.2778C32.5933 71.0722 32.6666 70.8306 32.6666 70.5833C32.6666 69.9075 32.0958 69.3333 31.4166 69.3333ZM30.45 65.1667H29.3333C29.3336 65.9007 29.0916 66.6143 28.6448 67.1967C28.1981 67.7791 27.5716 68.1978 26.8626 68.3877C26.1536 68.5777 25.4017 68.5283 24.7236 68.2473C24.0455 67.9662 23.4792 67.4692 23.1125 66.8333H19.3333V68.5417C19.7139 68.153 20.1956 67.8785 20.724 67.7492C21.2524 67.6199 21.8064 67.641 22.3235 67.81C22.8406 67.979 23.3001 68.2893 23.6501 68.7058C24 69.1222 24.2266 69.6282 24.3041 70.1667H28.5291C28.7375 68.7092 30.0541 67.6167 31.5225 67.6683L30.45 65.1667ZM22.6666 63.5H19.3333V65.1667H22.6666V63.5ZM31.8333 61.8333H29.3333V63.5H31.8333V61.8333Z" fill="black"/>
</g>
<rect x="0.5" y="0.5" width="51" height="91" rx="4.5" stroke="#9747FF" stroke-dasharray="10 5"/>
<defs>
<clipPath id="clip0_497_12199">
<rect width="20" height="20" fill="white" transform="translate(16 56)"/>
</clipPath>
</defs>
</svg>
