<svg width="52" height="88" viewBox="0 0 52 88" fill="none" xmlns="http://www.w3.org/2000/svg">
<path d="M29.7665 20.7084L27.1832 18.7084C26.8499 18.375 26.0999 18.2084 25.5999 18.2084H22.4332C21.4332 18.2084 20.3499 18.9584 20.0999 19.9584L18.0999 26.0417C17.6832 27.2084 18.4332 28.2084 19.6832 28.2084H23.0165C23.5165 28.2084 23.9332 28.625 23.8499 29.2084L23.4332 31.875C23.2665 32.625 23.7665 33.4584 24.5165 33.7084C25.1832 33.9584 26.0165 33.625 26.3499 33.125L29.7665 28.0417" stroke="#313233" stroke-miterlimit="10"/>
<path d="M34.0168 20.7083V28.875C34.0168 30.0417 33.5168 30.4583 32.3501 30.4583H31.5168C30.3501 30.4583 29.8501 30.0417 29.8501 28.875V20.7083C29.8501 19.5417 30.3501 19.125 31.5168 19.125H32.3501C33.5168 19.125 34.0168 19.5417 34.0168 20.7083Z" stroke="#313233" stroke-linecap="round" stroke-linejoin="round"/>
<path d="M29.0084 56.5833V65.05C29.0084 65.3833 28.9084 65.7083 28.7251 65.9833L26.4501 69.3667C26.0918 69.9083 25.2001 70.2917 24.4418 70.0083C23.6251 69.7333 23.0834 68.8167 23.2584 68L23.6918 65.275C23.7251 65.025 23.6584 64.8 23.5168 64.625C23.3751 64.4667 23.1668 64.3667 22.9418 64.3667H19.5168C18.8584 64.3667 18.2918 64.1 17.9584 63.6333C17.6418 63.1833 17.5834 62.6 17.7918 62.0083L19.8418 55.7667C20.1001 54.7333 21.2251 53.8917 22.3418 53.8917H25.5918C26.1501 53.8917 26.9334 54.0833 27.2918 54.4417L28.3584 55.2667C28.7668 55.5833 29.0084 56.0667 29.0084 56.5833Z" fill="#313233"/>
<path d="M31.6582 66.675H32.5166C33.8082 66.675 34.3332 66.175 34.3332 64.9416V56.5666C34.3332 55.3333 33.8082 54.8333 32.5166 54.8333H31.6582C30.3666 54.8333 29.8416 55.3333 29.8416 56.5666V64.95C29.8416 66.175 30.3666 66.675 31.6582 66.675Z" fill="#313233"/>
<rect x="0.5" y="0.5" width="51" height="87" rx="4.5" stroke="#9747FF" stroke-dasharray="10 5"/>
</svg>
