<svg width="20" height="20" viewBox="0 0 20 20" fill="none" xmlns="http://www.w3.org/2000/svg">
<path d="M9.90005 12.4917C9.74172 12.4917 9.58338 12.4334 9.45838 12.3084L7.32505 10.1751C7.08338 9.93339 7.08338 9.53339 7.32505 9.29172C7.56672 9.05006 7.96672 9.05006 8.20838 9.29172L9.90005 10.9834L11.5917 9.29172C11.8334 9.05006 12.2334 9.05006 12.475 9.29172C12.7167 9.53339 12.7167 9.93339 12.475 10.1751L10.3417 12.3084C10.2167 12.4334 10.0584 12.4917 9.90005 12.4917Z" fill="#313233"/>
<path d="M9.8999 12.4334C9.55824 12.4334 9.2749 12.15 9.2749 11.8084V3.33337C9.2749 2.99171 9.55824 2.70837 9.8999 2.70837C10.2416 2.70837 10.5249 2.99171 10.5249 3.33337V11.8084C10.5249 12.15 10.2416 12.4334 9.8999 12.4334Z" fill="#313233"/>
<path d="M9.99992 17.4417C5.70825 17.4417 2.70825 14.4417 2.70825 10.15C2.70825 9.80836 2.99159 9.52502 3.33325 9.52502C3.67492 9.52502 3.95825 9.80836 3.95825 10.15C3.95825 13.7084 6.44159 16.1917 9.99992 16.1917C13.5583 16.1917 16.0416 13.7084 16.0416 10.15C16.0416 9.80836 16.3249 9.52502 16.6666 9.52502C17.0083 9.52502 17.2916 9.80836 17.2916 10.15C17.2916 14.4417 14.2916 17.4417 9.99992 17.4417Z" fill="#313233"/>
</svg>
