<svg width="52" height="88" viewBox="0 0 52 88" fill="none" xmlns="http://www.w3.org/2000/svg">
<path d="M20.6167 32.2666C20.1083 32.2666 19.6333 32.0916 19.2917 31.7666C18.8583 31.3583 18.65 30.7416 18.725 30.075L19.0333 27.375C19.0917 26.8666 19.4 26.1916 19.7583 25.825L26.6 18.5833C28.3083 16.775 30.0917 16.725 31.9 18.4333C33.7083 20.1416 33.7583 21.925 32.05 23.7333L25.2083 30.975C24.8583 31.35 24.2083 31.7 23.7 31.7833L21.0167 32.2416C20.875 32.25 20.75 32.2666 20.6167 32.2666ZM29.275 18.425C28.6333 18.425 28.075 18.825 27.5083 19.425L20.6667 26.675C20.5 26.85 20.3083 27.2666 20.275 27.5083L19.9667 30.2083C19.9333 30.4833 20 30.7083 20.15 30.85C20.3 30.9916 20.525 31.0416 20.8 31L23.4833 30.5416C23.725 30.5 24.125 30.2833 24.2917 30.1083L31.1333 22.8666C32.1667 21.7666 32.5417 20.75 31.0333 19.3333C30.3667 18.6916 29.7917 18.425 29.275 18.425Z" fill="#313233"/>
<path d="M30.45 25.125C30.4333 25.125 30.4083 25.125 30.3916 25.125C27.7916 24.8667 25.7 22.8917 25.3 20.3084C25.25 19.9667 25.4833 19.65 25.825 19.5917C26.1666 19.5417 26.4833 19.775 26.5416 20.1167C26.8583 22.1334 28.4916 23.6834 30.525 23.8834C30.8666 23.9167 31.1166 24.225 31.0833 24.5667C31.0416 24.8834 30.7666 25.125 30.45 25.125Z" fill="#313233"/>
<path d="M33.5 34.9584H18.5C18.1583 34.9584 17.875 34.675 17.875 34.3334C17.875 33.9917 18.1583 33.7084 18.5 33.7084H33.5C33.8417 33.7084 34.125 33.9917 34.125 34.3334C34.125 34.675 33.8417 34.9584 33.5 34.9584Z" fill="#313233"/>
<path d="M33.5 70.3334H18.5C18.1583 70.3334 17.875 70.05 17.875 69.7084C17.875 69.3667 18.1583 69.0834 18.5 69.0834H33.5C33.8417 69.0834 34.125 69.3667 34.125 69.7084C34.125 70.05 33.8417 70.3334 33.5 70.3334Z" fill="#313233"/>
<path d="M31.85 54.9C30.2333 53.2834 28.65 53.2417 26.9916 54.9L25.9833 55.9084C25.9 55.9917 25.8666 56.1251 25.9 56.2417C26.5333 58.4501 28.3 60.2167 30.5083 60.85C30.5416 60.8584 30.575 60.8667 30.6083 60.8667C30.7 60.8667 30.7833 60.8334 30.85 60.7667L31.85 59.7584C32.675 58.9417 33.075 58.1501 33.075 57.35C33.0833 56.525 32.6833 55.725 31.85 54.9Z" fill="#313233"/>
<path d="M29.0084 61.6083C28.7668 61.4916 28.5334 61.375 28.3084 61.2416C28.1251 61.1333 27.9501 61.0166 27.7751 60.8916C27.6334 60.8 27.4668 60.6666 27.3084 60.5333C27.2918 60.525 27.2334 60.475 27.1668 60.4083C26.8918 60.175 26.5834 59.875 26.3084 59.5416C26.2834 59.525 26.2418 59.4666 26.1834 59.3916C26.1001 59.2916 25.9584 59.125 25.8334 58.9333C25.7334 58.8083 25.6168 58.625 25.5084 58.4416C25.3751 58.2166 25.2584 57.9916 25.1418 57.7583C24.9888 57.4305 24.5586 57.3331 24.3028 57.5889L19.6168 62.275C19.5084 62.3833 19.4084 62.5916 19.3834 62.7333L18.9334 65.925C18.8501 66.4916 19.0084 67.025 19.3584 67.3833C19.6584 67.675 20.0751 67.8333 20.5251 67.8333C20.6251 67.8333 20.7251 67.825 20.8251 67.8083L24.0251 67.3583C24.1751 67.3333 24.3834 67.2333 24.4834 67.125L29.1772 62.4312C29.4279 62.1805 29.3337 61.7492 29.0084 61.6083Z" fill="#313233"/>
<rect x="0.5" y="0.5" width="51" height="87" rx="4.5" stroke="#9747FF" stroke-dasharray="10 5"/>
</svg>
