<svg width="52" height="88" viewBox="0 0 52 88" fill="none" xmlns="http://www.w3.org/2000/svg">
<path d="M30.1666 34.9584H21.8333C18.1583 34.9584 17.0416 33.8417 17.0416 30.1667V21.8334C17.0416 18.1584 18.1583 17.0417 21.8333 17.0417H23.0833C24.5416 17.0417 25 17.5167 25.5833 18.2917L26.8333 19.9584C27.1083 20.325 27.15 20.375 27.6666 20.375H30.1666C33.8416 20.375 34.9583 21.4917 34.9583 25.1667V30.1667C34.9583 33.8417 33.8416 34.9584 30.1666 34.9584ZM21.8333 18.2917C18.8583 18.2917 18.2916 18.8584 18.2916 21.8334V30.1667C18.2916 33.1417 18.8583 33.7084 21.8333 33.7084H30.1666C33.1416 33.7084 33.7083 33.1417 33.7083 30.1667V25.1667C33.7083 22.1917 33.1416 21.625 30.1666 21.625H27.6666C26.6 21.625 26.25 21.2584 25.8333 20.7084L24.5833 19.0417C24.15 18.4667 24.025 18.2917 23.0833 18.2917H21.8333Z" fill="#313233"/>
<path d="M33.3728 58.4696C33.8002 59.0142 33.3288 59.7084 32.6365 59.7084H18.6666C18.1143 59.7084 17.6666 59.2606 17.6666 58.7084V57.35C17.6666 55.3167 19.3166 53.6667 21.35 53.6667H23.2833C24.6416 53.6667 25.0666 54.1084 25.6083 54.8334L26.775 56.3834C27.0333 56.725 27.0666 56.7667 27.55 56.7667H29.875C31.2938 56.7667 32.5588 57.4322 33.3728 58.4696Z" fill="#313233"/>
<path d="M33.32 60.9581C33.871 60.9581 34.3181 61.4038 34.32 61.9548L34.3333 65.875C34.3333 68.3334 32.3333 70.3334 29.875 70.3334H22.125C19.6666 70.3334 17.6666 68.3334 17.6666 65.875V61.9583C17.6666 61.4061 18.1143 60.9583 18.6666 60.9583L33.32 60.9581Z" fill="#313233"/>
<rect x="0.5" y="0.5" width="51" height="87" rx="4.5" stroke="#9747FF" stroke-dasharray="10 5"/>
</svg>
