<svg width="52" height="88" viewBox="0 0 52 88" fill="none" xmlns="http://www.w3.org/2000/svg">
<path d="M23.6497 31.0339V33.0673C23.6497 34.4673 24.408 34.7506 25.333 33.7006L31.6413 26.5339C32.4163 25.6589 32.0913 24.9339 30.9163 24.9339H30.1413" stroke="#313233" stroke-miterlimit="10" stroke-linecap="round" stroke-linejoin="round"/>
<path d="M28.3501 23.3674V18.9341C28.3501 17.5341 27.5917 17.2507 26.6667 18.3007L20.3584 25.4674C19.5834 26.3424 19.9084 27.0674 21.0834 27.0674H23.6584V28.0507" stroke="#313233" stroke-miterlimit="10" stroke-linecap="round" stroke-linejoin="round"/>
<path d="M34.3332 17.6667L17.6665 34.3333" stroke="#313233" stroke-linecap="round" stroke-linejoin="round"/>
<path d="M34.1417 53.8583C33.8917 53.6083 33.4834 53.6083 33.2334 53.8583L17.8584 69.2417C17.6084 69.4917 17.6084 69.9 17.8584 70.15C17.9834 70.2667 18.1417 70.3333 18.3084 70.3333C18.4751 70.3333 18.6334 70.2667 18.7584 70.1417L34.1417 54.7583C34.4001 54.5083 34.4001 54.1083 34.1417 53.8583Z" fill="#313233"/>
<path d="M28.35 54.9333V59.65L23.65 64.35V63.0667H21.075C19.9083 63.0667 19.5833 62.35 20.3583 61.475L26 55.0583L26.6667 54.3C27.5917 53.25 28.35 53.5333 28.35 54.9333Z" fill="#313233"/>
<path d="M31.6416 62.525L25.9999 68.9417L25.3332 69.7C24.4082 70.75 23.6499 70.4667 23.6499 69.0667V66.85L29.5666 60.9333H30.9249C32.0916 60.9333 32.4166 61.65 31.6416 62.525Z" fill="#313233"/>
<rect x="0.5" y="0.5" width="51" height="87" rx="4.5" stroke="#9747FF" stroke-dasharray="10 5"/>
</svg>
