<svg width="52" height="88" viewBox="0 0 52 88" fill="none" xmlns="http://www.w3.org/2000/svg">
<path d="M21.0744 27.0674H23.6494V33.0674C23.6494 34.4674 24.4078 34.7507 25.3328 33.7007L31.6411 26.5341C32.4161 25.6591 32.0911 24.9341 30.9161 24.9341H28.3411V18.9341C28.3411 17.5341 27.5828 17.2507 26.6578 18.3007L20.3494 25.4674C19.5828 26.3507 19.9078 27.0674 21.0744 27.0674Z" stroke="#313233" stroke-miterlimit="10" stroke-linecap="round" stroke-linejoin="round"/>
<path d="M30.925 60.9333H28.35V54.9333C28.35 53.5333 27.5917 53.25 26.6667 54.3L26 55.0583L20.3583 61.475C19.5833 62.35 19.9083 63.0667 21.075 63.0667H23.65V69.0667C23.65 70.4667 24.4083 70.75 25.3333 69.7L26 68.9417L31.6417 62.525C32.4167 61.65 32.0917 60.9333 30.925 60.9333Z" fill="#313233"/>
<rect x="0.5" y="0.5" width="51" height="87" rx="4.5" stroke="#9747FF" stroke-dasharray="10 5"/>
</svg>
