<svg width="52" height="88" viewBox="0 0 52 88" fill="none" xmlns="http://www.w3.org/2000/svg">
<path d="M34.3334 25.1667V30.1667C34.3334 33.5 33.5001 34.3333 30.1667 34.3333H21.8334C18.5001 34.3333 17.6667 33.5 17.6667 30.1667V21.8333C17.6667 18.5 18.5001 17.6667 21.8334 17.6667H23.0834C24.3334 17.6667 24.6084 18.0333 25.0834 18.6667L26.3334 20.3333C26.6501 20.75 26.8334 21 27.6667 21H30.1667C33.5001 21 34.3334 21.8333 34.3334 25.1667Z" stroke="#313233" stroke-miterlimit="10"/>
<path d="M22.6667 17.6667H30.1667C31.8334 17.6667 32.6667 18.5 32.6667 20.1667V21.3167" stroke="#313233" stroke-miterlimit="10" stroke-linecap="round" stroke-linejoin="round"/>
<path d="M33.3729 58.4695C33.8003 59.0142 33.3289 59.7083 32.6366 59.7083H18.6667C18.1145 59.7083 17.6667 59.2606 17.6667 58.7083V57.35C17.6667 55.3167 19.3167 53.6667 21.3501 53.6667H23.2834C24.6417 53.6667 25.0667 54.1083 25.6084 54.8333L26.7751 56.3833C27.0334 56.725 27.0667 56.7667 27.5501 56.7667H29.8751C31.2939 56.7667 32.5589 57.4322 33.3729 58.4695Z" fill="#313233"/>
<path d="M33.3201 60.9581C33.8711 60.9581 34.3183 61.4038 34.3201 61.9547L34.3334 65.875C34.3334 68.3333 32.3334 70.3333 29.8751 70.3333H22.1251C19.6667 70.3333 17.6667 68.3333 17.6667 65.875V61.9583C17.6667 61.406 18.1145 60.9583 18.6667 60.9583L33.3201 60.9581Z" fill="#313233"/>
<rect x="0.5" y="0.5" width="51" height="87" rx="4.5" stroke="#9747FF" stroke-dasharray="10 5"/>
</svg>
