<svg width="52" height="88" viewBox="0 0 52 88" fill="none" xmlns="http://www.w3.org/2000/svg">
<path d="M28.4166 17.6667H23.5833C23.0166 17.6667 22.2166 18 21.8166 18.4L18.4 21.8167C18 22.2167 17.6666 23.0167 17.6666 23.5833V28.4167C17.6666 28.9833 18 29.7833 18.4 30.1833L21.8166 33.6C22.2166 34 23.0166 34.3333 23.5833 34.3333H28.4166C28.9833 34.3333 29.7833 34 30.1833 33.6L33.6 30.1833C34 29.7833 34.3333 28.9833 34.3333 28.4167V23.5833C34.3333 23.0167 34 22.2167 33.6 21.8167L30.1833 18.4C29.7833 18 28.9833 17.6667 28.4166 17.6667Z" stroke="#313233" stroke-linecap="round" stroke-linejoin="round"/>
<path d="M20.1162 31.8995L31.8995 20.1162" stroke="#313233" stroke-linecap="round" stroke-linejoin="round"/>
<path d="M30.1833 54.4C29.7833 54 28.9833 53.6667 28.4166 53.6667H23.5833C23.0166 53.6667 22.2166 54 21.8166 54.4L18.4 57.8167C18 58.2167 17.6666 59.0167 17.6666 59.5833V64.4167C17.6666 64.9833 18 65.7833 18.4 66.1833L19.675 67.4583L31.4583 55.675L30.1833 54.4Z" fill="#313233"/>
<path d="M33.6 57.8167L32.3417 56.5583L20.5583 68.3417L21.8167 69.6C22.2167 70 23.0167 70.3333 23.5833 70.3333H28.4167C28.9833 70.3333 29.7833 70 30.1834 69.6L33.6 66.1833C34 65.7833 34.3334 64.9833 34.3334 64.4167V59.5833C34.3334 59.0167 34 58.2167 33.6 57.8167Z" fill="#313233"/>
<path d="M18.0749 69.0583C17.8333 69.3 17.8333 69.7 18.0749 69.9417C18.1999 70.0667 18.3583 70.125 18.5166 70.125C18.6749 70.125 18.8333 70.0667 18.9583 69.9417L20.5583 68.3417L19.6749 67.4583L18.0749 69.0583Z" fill="#313233"/>
<path d="M33.9416 54.9583C34.1833 54.7167 34.1833 54.3167 33.9416 54.075C33.6999 53.8333 33.2999 53.8333 33.0583 54.075L31.4583 55.675L32.3416 56.5583L33.9416 54.9583Z" fill="#313233"/>
<rect x="0.5" y="0.5" width="51" height="87" rx="4.5" stroke="#9747FF" stroke-dasharray="10 5"/>
</svg>
