<svg width="52" height="88" viewBox="0 0 52 88" fill="none" xmlns="http://www.w3.org/2000/svg">
<path d="M34.3334 23.5V28.5C34.3334 30.5833 33.9168 32.0417 32.9834 32.9833L27.6667 27.6667L34.1084 21.225C34.2584 21.8833 34.3334 22.6333 34.3334 23.5Z" stroke="#313233" stroke-linecap="round" stroke-linejoin="round"/>
<path d="M34.1084 21.225L21.2251 34.1083C18.7167 33.5333 17.6667 31.8 17.6667 28.5V23.5C17.6667 19.3333 19.3334 17.6667 23.5001 17.6667H28.5001C31.8001 17.6667 33.5334 18.7167 34.1084 21.225Z" stroke="#313233" stroke-linecap="round" stroke-linejoin="round"/>
<path d="M32.9834 32.9833C32.0418 33.9167 30.5834 34.3333 28.5001 34.3333H23.5001C22.6334 34.3333 21.8834 34.2583 21.2251 34.1083L27.6668 27.6667L32.9834 32.9833Z" stroke="#313233" stroke-linecap="round" stroke-linejoin="round"/>
<path d="M21.2 22.65C21.7666 20.2083 25.4333 20.2083 26 22.65C26.325 24.0833 25.425 25.3 24.6333 26.05C24.0583 26.6 23.15 26.6 22.5667 26.05C21.775 25.3 20.8666 24.0833 21.2 22.65Z" stroke="#313233"/>
<path d="M23.5788 23.25H23.5863" stroke="#313233" stroke-linecap="round" stroke-linejoin="round"/>
<path d="M18.1499 67.8417L18.1333 67.8583C17.9083 67.3667 17.7666 66.8083 17.7083 66.1917C17.7666 66.8 17.9249 67.35 18.1499 67.8417Z" fill="#313233"/>
<path d="M23.4999 60.65C24.5953 60.65 25.4833 59.762 25.4833 58.6667C25.4833 57.5713 24.5953 56.6833 23.4999 56.6833C22.4046 56.6833 21.5166 57.5713 21.5166 58.6667C21.5166 59.762 22.4046 60.65 23.4999 60.65Z" fill="#313233"/>
<path d="M29.4917 53.6667H22.5084C19.4751 53.6667 17.6667 55.475 17.6667 58.5083V65.4917C17.6667 66.4 17.8251 67.1917 18.1334 67.8583C18.8501 69.4417 20.3834 70.3333 22.5084 70.3333H29.4917C32.5251 70.3333 34.3334 68.525 34.3334 65.4917V63.5833V58.5083C34.3334 55.475 32.5251 53.6667 29.4917 53.6667ZM32.9751 62.4167C32.3251 61.8583 31.2751 61.8583 30.6251 62.4167L27.1584 65.3917C26.5084 65.95 25.4584 65.95 24.8084 65.3917L24.5251 65.1583C23.9334 64.6417 22.9917 64.5917 22.3251 65.0417L19.2084 67.1333C19.0251 66.6667 18.9167 66.125 18.9167 65.4917V58.5083C18.9167 56.1583 20.1584 54.9167 22.5084 54.9167H29.4917C31.8417 54.9167 33.0834 56.1583 33.0834 58.5083V62.5083L32.9751 62.4167Z" fill="#313233"/>
<rect x="0.5" y="0.5" width="51" height="87" rx="4.5" stroke="#9747FF" stroke-dasharray="10 5"/>
</svg>
