<svg width="52" height="88" viewBox="0 0 52 88" fill="none" xmlns="http://www.w3.org/2000/svg">
<path d="M26.0001 34.3333C30.6025 34.3333 34.3334 30.6023 34.3334 26C34.3334 21.3976 30.6025 17.6666 26.0001 17.6666C21.3977 17.6666 17.6667 21.3976 17.6667 26C17.6667 30.6023 21.3977 34.3333 26.0001 34.3333Z" stroke="#313233" stroke-linecap="round" stroke-linejoin="round"/>
<path d="M22.6667 18.5H23.5C21.875 23.3667 21.875 28.6333 23.5 33.5H22.6667" stroke="#313233" stroke-linecap="round" stroke-linejoin="round"/>
<path d="M28.5 18.5C30.125 23.3667 30.125 28.6333 28.5 33.5" stroke="#313233" stroke-linecap="round" stroke-linejoin="round"/>
<path d="M18.5 29.3333V28.5C23.3667 30.125 28.6333 30.125 33.5 28.5V29.3333" stroke="#313233" stroke-linecap="round" stroke-linejoin="round"/>
<path d="M18.5 23.5C23.3667 21.875 28.6333 21.875 33.5 23.5" stroke="#313233" stroke-linecap="round" stroke-linejoin="round"/>
<path d="M22.375 69.425C22.35 69.425 22.3167 69.4417 22.2917 69.4417C20.675 68.6417 19.3584 67.3167 18.55 65.7C18.55 65.675 18.5667 65.6417 18.5667 65.6167C19.5834 65.9167 20.6334 66.1417 21.675 66.3167C21.8584 67.3667 22.075 68.4084 22.375 69.425Z" fill="#313233"/>
<path d="M33.45 65.7084C32.625 67.3667 31.25 68.7084 29.575 69.5167C29.8916 68.4584 30.1583 67.3917 30.3333 66.3167C31.3833 66.1417 32.4166 65.9167 33.4333 65.6167C33.425 65.65 33.45 65.6834 33.45 65.7084Z" fill="#313233"/>
<path d="M33.5166 58.4249C32.4666 58.1083 31.4083 57.8499 30.3333 57.6666C30.1583 56.5916 29.9 55.5249 29.575 54.4833C31.3 55.3083 32.6916 56.6999 33.5166 58.4249Z" fill="#313233"/>
<path d="M22.3751 54.575C22.0751 55.5917 21.8584 56.625 21.6834 57.675C20.6084 57.8417 19.5417 58.1084 18.4834 58.425C19.2917 56.75 20.6334 55.375 22.2917 54.55C22.3167 54.55 22.3501 54.575 22.3751 54.575Z" fill="#313233"/>
<path d="M28.9082 57.4916C26.9749 57.275 25.0249 57.275 23.0916 57.4916C23.2999 56.35 23.5666 55.2083 23.9416 54.1083C23.9582 54.0416 23.9499 53.9916 23.9582 53.925C24.6166 53.7666 25.2916 53.6666 25.9999 53.6666C26.6999 53.6666 27.3832 53.7666 28.0332 53.925C28.0416 53.9916 28.0416 54.0416 28.0582 54.1083C28.4332 55.2166 28.6999 56.35 28.9082 57.4916Z" fill="#313233"/>
<path d="M21.4917 64.9083C20.3417 64.7 19.2084 64.4333 18.1084 64.0583C18.0417 64.0417 17.9917 64.05 17.9251 64.0417C17.7667 63.3833 17.6667 62.7083 17.6667 62C17.6667 61.3 17.7667 60.6167 17.9251 59.9667C17.9917 59.9583 18.0417 59.9583 18.1084 59.9417C19.2167 59.575 20.3417 59.3 21.4917 59.0917C21.2834 61.025 21.2834 62.975 21.4917 64.9083Z" fill="#313233"/>
<path d="M34.3333 62C34.3333 62.7083 34.2333 63.3833 34.075 64.0417C34.0083 64.05 33.9583 64.0417 33.8916 64.0583C32.7833 64.425 31.65 64.7 30.5083 64.9083C30.725 62.975 30.725 61.025 30.5083 59.0917C31.65 59.3 32.7916 59.5667 33.8916 59.9417C33.9583 59.9583 34.0083 59.9667 34.075 59.9667C34.2333 60.625 34.3333 61.3 34.3333 62Z" fill="#313233"/>
<path d="M28.9082 66.5083C28.6999 67.6583 28.4332 68.7916 28.0582 69.8916C28.0416 69.9583 28.0416 70.0083 28.0332 70.075C27.3832 70.2333 26.6999 70.3333 25.9999 70.3333C25.2916 70.3333 24.6166 70.2333 23.9582 70.075C23.9499 70.0083 23.9582 69.9583 23.9416 69.8916C23.5749 68.7833 23.2999 67.6583 23.0916 66.5083C24.0582 66.6166 25.0249 66.6916 25.9999 66.6916C26.9749 66.6916 27.9499 66.6166 28.9082 66.5083Z" fill="#313233"/>
<path d="M29.1362 65.1361C27.0519 65.399 24.9482 65.399 22.864 65.1361C22.601 63.0518 22.601 60.9481 22.864 58.8639C24.9482 58.6009 27.0519 58.6009 29.1362 58.8639C29.3992 60.9481 29.3992 63.0518 29.1362 65.1361Z" fill="#313233"/>
<rect x="0.5" y="0.5" width="51" height="87" rx="4.5" stroke="#9747FF" stroke-dasharray="10 5"/>
</svg>
