<svg width="52" height="88" viewBox="0 0 52 88" fill="none" xmlns="http://www.w3.org/2000/svg">
<path d="M31.2667 26.625H28.5C26.425 26.625 25.375 25.45 25.375 23.125V20.7333C25.375 19.8833 25.475 18.6667 26.3583 18C27.1 17.45 28.1667 17.4083 29.7417 17.8667C31.8083 18.4667 33.5333 20.1917 34.1333 22.2583C34.5917 23.825 34.55 24.9 34 25.6333C33.3333 26.525 32.1167 26.625 31.2667 26.625ZM27.9 18.8C27.5583 18.8 27.2917 18.8667 27.1167 19C26.7917 19.2417 26.6333 19.8083 26.6333 20.7333V23.1333C26.6333 25 27.35 25.3833 28.5083 25.3833H31.275C32.1917 25.3833 32.7583 25.225 33.0083 24.9C33.3 24.5167 33.275 23.75 32.95 22.625C32.4667 20.9833 31.05 19.5583 29.4083 19.0833C28.7917 18.8917 28.2917 18.8 27.9 18.8Z" fill="#313233"/>
<path d="M25.2249 34.9583C24.7832 34.9583 24.3332 34.925 23.8832 34.85C20.4749 34.3 17.6999 31.5333 17.1499 28.125C16.4416 23.7417 19.2666 19.6083 23.5916 18.725C23.9332 18.6583 24.2582 18.875 24.3332 19.2083C24.3999 19.55 24.1832 19.875 23.8499 19.95C20.1916 20.7 17.7916 24.2 18.3999 27.925C18.8666 30.8083 21.2082 33.15 24.0916 33.6167C27.8332 34.2167 31.3249 31.8083 32.0666 28.1333C32.1332 27.7917 32.4666 27.575 32.7999 27.6417C33.1416 27.7083 33.3582 28.0417 33.2916 28.375C32.4999 32.2667 29.0999 34.9583 25.2249 34.9583Z" fill="#313233"/>
<path d="M34.0582 57.7917C33.5249 55.9833 32.0166 54.475 30.2082 53.9417C28.8332 53.5417 27.8832 53.575 27.2249 54.0667C26.4332 54.6583 26.3416 55.725 26.3416 56.4833V58.5583C26.3416 60.6083 27.2749 61.65 29.1082 61.65H31.4999C32.2499 61.65 33.3249 61.5583 33.9166 60.7667C34.4249 60.1167 34.4666 59.1667 34.0582 57.7917Z" fill="#313233"/>
<path d="M31.7582 63.1333C31.5416 62.8833 31.2249 62.7417 30.8999 62.7417H27.9166C26.4499 62.7417 25.2582 61.55 25.2582 60.0833V57.1C25.2582 56.775 25.1166 56.4583 24.8666 56.2417C24.6249 56.025 24.2916 55.925 23.9749 55.9667C22.0166 56.2167 20.2166 57.2917 19.0416 58.9083C17.8582 60.5333 17.4249 62.5167 17.7999 64.5C18.3416 67.3667 20.6332 69.6583 23.5082 70.2C23.9666 70.2917 24.4249 70.3333 24.8832 70.3333C26.3916 70.3333 27.8499 69.8667 29.0916 68.9583C30.7082 67.7833 31.7832 65.9833 32.0332 64.025C32.0749 63.7 31.9749 63.375 31.7582 63.1333Z" fill="#313233"/>
<rect x="0.5" y="0.5" width="51" height="87" rx="4.5" stroke="#9747FF" stroke-dasharray="10 5"/>
</svg>
