<svg width="20" height="20" viewBox="0 0 20 20" fill="none" xmlns="http://www.w3.org/2000/svg">
<path d="M15.8156 4.96479C15.2541 4.1769 13.895 2.55659 11.9812 2.18745C11.2781 2.05643 10.5628 2.32831 9.99969 2.89877C9.4375 2.36206 8.72188 2.08666 8.01562 2.22104C5.525 2.7019 3.95937 5.32026 3.89375 5.43354C3.64862 5.85112 3.72091 6.43823 4.05391 6.74487C4.18234 6.86326 4.33777 6.92703 4.49734 6.92678C4.72878 6.92678 4.95641 6.79495 5.10297 6.54467C5.11566 6.52268 6.35891 4.43881 8.24359 4.07475C8.47663 4.03721 8.71172 4.10092 8.91734 4.24987L7.1 6.57026C6.7125 7.05073 6.47188 7.6601 6.47188 8.37885C6.47188 9.06245 6.68475 9.70463 7.07062 10.1871C7.48438 10.6718 7.99687 10.9023 8.54375 10.9023C9.09062 10.9023 9.60437 10.6362 9.99094 10.1527L10.3456 9.70932L14.2269 13.6507C14.2991 13.724 14.3099 13.8558 14.2425 13.9621L13.3772 15.3585C13.3196 15.4464 13.2131 15.4599 13.1536 15.4001L12.4592 14.67L11.6407 15.754C11.5675 15.8663 11.4738 15.8931 11.4249 15.8992C11.3732 15.9053 11.2824 15.9041 11.2121 15.8321L10.1993 14.7516L9.70938 15.3242L9.6215 15.4389C9.43888 15.7185 9.18119 15.8944 8.894 15.9311C8.59809 15.9629 8.32369 15.8628 8.12838 15.6662L5.32188 12.4921H3V5.01167H0V14.996L2 14.9976C2.36687 14.9976 2.67406 14.7356 2.84812 14.3671H4.74312L7.15125 17.0882C7.61562 17.5624 8.18437 17.8124 8.775 17.8124C8.86484 17.8124 8.95566 17.8076 9.0455 17.7953C9.47112 17.7404 9.87081 17.5585 10.2164 17.268L10.2448 17.2998C10.6207 17.6855 11.0972 17.8626 11.5788 17.799C11.991 17.7453 12.3688 17.5243 12.6385 17.1994C13.2976 17.5192 14.0788 17.2909 14.5526 16.556L15.4179 15.1595C15.9951 14.2681 15.8857 12.9533 15.1728 12.2294L11.4134 8.41069L11.6753 8.08327C11.9683 7.71702 11.9683 7.1235 11.6753 6.75748C11.3823 6.39123 10.9078 6.39123 10.6147 6.75748L8.93125 8.85932C8.725 9.12104 8.36563 9.12104 8.15938 8.85932C8.05587 8.73112 7.99922 8.56022 7.99922 8.37846C7.99922 8.19534 8.05584 8.0244 8.16425 7.88901L10.8489 4.46557C11.0931 4.15913 11.428 4.00659 11.7533 4.07377C13.6205 4.43393 14.8846 6.52417 14.8971 6.54604C14.9936 6.70834 15.1241 6.81737 15.2671 6.87323H17V13.7131C17 14.4033 17.4478 14.965 17.9719 14.965L20 14.9999V5.00385L15.8156 4.96479ZM1.5 13.7499C1.22656 13.7499 1 13.4669 1 13.1253C1 12.7786 1.22656 12.5007 1.5 12.5007C1.77344 12.5007 2 12.7812 2 13.1289C2 13.4687 1.77344 13.7499 1.5 13.7499ZM18.5 13.7499C18.2266 13.7499 18 13.4669 18 13.1253C18 12.7786 18.2266 12.5007 18.5 12.5007C18.7734 12.5007 19 12.7787 19 13.1253C19 13.4687 18.775 13.7499 18.5 13.7499Z" fill="#313233"/>
</svg>
