<svg width="52" height="88" viewBox="0 0 52 88" fill="none" xmlns="http://www.w3.org/2000/svg">
<path d="M20.55 31.4083V28.975C20.55 28.1667 21.1834 27.4417 22.0834 27.4417C22.8917 27.4417 23.6167 28.075 23.6167 28.975V31.3167C23.6167 32.9417 22.2667 34.2917 20.6417 34.2917C19.0167 34.2917 17.6667 32.9333 17.6667 31.3167V26.1833C17.575 21.5 21.275 17.7083 25.9584 17.7083C30.6417 17.7083 34.3334 21.5 34.3334 26.0917V31.225C34.3334 32.85 32.9834 34.2 31.3584 34.2C29.7334 34.2 28.3834 32.85 28.3834 31.225V28.8833C28.3834 28.075 29.0167 27.35 29.9167 27.35C30.725 27.35 31.45 27.9833 31.45 28.8833V31.4083" stroke="#313233" stroke-linecap="round" stroke-linejoin="round"/>
<path d="M18.2916 67.5417C17.95 67.5417 17.6666 67.2583 17.6666 66.9167V62.1667C17.625 59.9083 18.4666 57.775 20.0333 56.175C21.6 54.5833 23.7 53.7083 25.9583 53.7083C30.575 53.7083 34.3333 57.4667 34.3333 62.0833V66.8333C34.3333 67.175 34.05 67.4583 33.7083 67.4583C33.3666 67.4583 33.0833 67.175 33.0833 66.8333V62.0833C33.0833 58.1583 29.8916 54.9583 25.9583 54.9583C24.0333 54.9583 22.25 55.7 20.925 57.05C19.5916 58.4083 18.8833 60.2167 18.9166 62.15V66.9083C18.9166 67.2583 18.6416 67.5417 18.2916 67.5417Z" fill="#313233"/>
<path d="M20.95 62.375H20.8416C19.0916 62.375 17.6666 63.8 17.6666 65.55V67.1167C17.6666 68.8667 19.0916 70.2917 20.8416 70.2917H20.95C22.7 70.2917 24.125 68.8667 24.125 67.1167V65.55C24.125 63.8 22.7 62.375 20.95 62.375Z" fill="#313233"/>
<path d="M31.1583 62.375H31.05C29.3 62.375 27.875 63.8 27.875 65.55V67.1167C27.875 68.8667 29.3 70.2917 31.05 70.2917H31.1583C32.9083 70.2917 34.3333 68.8667 34.3333 67.1167V65.55C34.3333 63.8 32.9083 62.375 31.1583 62.375Z" fill="#313233"/>
<rect x="0.5" y="0.5" width="51" height="87" rx="4.5" stroke="#9747FF" stroke-dasharray="10 5"/>
</svg>
