<svg width="52" height="88" viewBox="0 0 52 88" fill="none" xmlns="http://www.w3.org/2000/svg">
<path d="M26.5167 33.3416C26.2334 33.4416 25.7667 33.4416 25.4834 33.3416C23.0667 32.5166 17.6667 29.075 17.6667 23.2416C17.6667 20.6666 19.7417 18.5833 22.3001 18.5833C23.8167 18.5833 25.1584 19.3166 26.0001 20.45C26.8417 19.3166 28.1917 18.5833 29.7001 18.5833C32.2584 18.5833 34.3334 20.6666 34.3334 23.2416C34.3334 29.075 28.9334 32.5166 26.5167 33.3416Z" stroke="#313233" stroke-linecap="round" stroke-linejoin="round"/>
<path d="M29.7001 54.5833C28.1917 54.5833 26.8417 55.3166 26.0001 56.4416C25.1584 55.3166 23.8084 54.5833 22.3001 54.5833C19.7417 54.5833 17.6667 56.6666 17.6667 59.2416C17.6667 60.2333 17.8251 61.15 18.1001 62C19.4167 66.1666 23.4751 68.6583 25.4834 69.3416C25.7667 69.4416 26.2334 69.4416 26.5167 69.3416C28.5251 68.6583 32.5834 66.1666 33.9001 62C34.1751 61.15 34.3334 60.2333 34.3334 59.2416C34.3334 56.6666 32.2584 54.5833 29.7001 54.5833Z" fill="#313233"/>
<rect x="0.5" y="0.5" width="51" height="87" rx="4.5" stroke="#9747FF" stroke-dasharray="10 5"/>
</svg>
