<svg width="52" height="88" viewBox="0 0 52 88" fill="none" xmlns="http://www.w3.org/2000/svg">
<path d="M28.1083 23.8917L23.8916 28.1083C23.3499 27.5667 23.0166 26.825 23.0166 26C23.0166 24.35 24.3499 23.0167 25.9999 23.0167C26.8249 23.0167 27.5666 23.35 28.1083 23.8917Z" stroke="#313233" stroke-linecap="round" stroke-linejoin="round"/>
<path d="M30.8501 20.8083C29.3918 19.7083 27.7251 19.1083 26.0001 19.1083C23.0584 19.1083 20.3168 20.8417 18.4084 23.8417C17.6584 25.0167 17.6584 26.9917 18.4084 28.1667C19.0668 29.2 19.8334 30.0917 20.6668 30.8083" stroke="#313233" stroke-linecap="round" stroke-linejoin="round"/>
<path d="M23.0166 32.275C23.9666 32.675 24.9749 32.8917 25.9999 32.8917C28.9416 32.8917 31.6833 31.1583 33.5916 28.1583C34.3416 26.9833 34.3416 25.0083 33.5916 23.8333C33.3166 23.4 33.0166 22.9917 32.7083 22.6083" stroke="#313233" stroke-linecap="round" stroke-linejoin="round"/>
<path d="M28.925 26.5833C28.7083 27.7583 27.75 28.7166 26.575 28.9333" stroke="#313233" stroke-linecap="round" stroke-linejoin="round"/>
<path d="M23.8917 28.1083L17.6667 34.3333" stroke="#313233" stroke-linecap="round" stroke-linejoin="round"/>
<path d="M34.3334 17.6667L28.1084 23.8917" stroke="#313233" stroke-linecap="round" stroke-linejoin="round"/>
<path d="M33.725 59.65C33.4834 59.2666 33.225 58.9083 32.9584 58.575C32.65 58.1833 32.0667 58.15 31.7167 58.5L29.2167 61C29.4 61.55 29.4334 62.1833 29.2667 62.8416C28.975 64.0166 28.025 64.9666 26.85 65.2583C26.1917 65.425 25.5584 65.3916 25.0084 65.2083C25.0084 65.2083 23.8167 66.4 22.9584 67.2583C22.5417 67.675 22.675 68.4083 23.2334 68.625C24.125 68.9666 25.05 69.1416 26 69.1416C27.4834 69.1416 28.925 68.7083 30.2417 67.9C31.5834 67.0666 32.7917 65.8416 33.7667 64.2833C34.5584 63.025 34.5167 60.9083 33.725 59.65Z" fill="#313233"/>
<path d="M27.6834 60.3166L24.3167 63.6833C23.8917 63.25 23.6167 62.65 23.6167 62C23.6167 60.6916 24.6834 59.6166 26 59.6166C26.65 59.6166 27.25 59.8916 27.6834 60.3166Z" fill="#313233"/>
<path d="M31.2084 56.7917L28.3834 59.6167C27.7751 59 26.9334 58.6333 26.0001 58.6333C24.1334 58.6333 22.6334 60.1417 22.6334 62C22.6334 62.9333 23.0084 63.775 23.6167 64.3833L20.8001 67.2083H20.7917C19.8667 66.4583 19.0167 65.5 18.2917 64.3667C17.4584 63.0583 17.4584 60.9333 18.2917 59.625C19.2584 58.1083 20.4417 56.9167 21.7584 56.1C23.0751 55.3 24.5167 54.8583 26.0001 54.8583C27.8584 54.8583 29.6584 55.5417 31.2084 56.7917Z" fill="#313233"/>
<path d="M28.3834 62C28.3834 63.3083 27.3167 64.3833 26.0001 64.3833C25.9501 64.3833 25.9084 64.3833 25.8584 64.3667L28.3667 61.8583C28.3834 61.9083 28.3834 61.95 28.3834 62Z" fill="#313233"/>
<path d="M34.1417 53.8583C33.8917 53.6083 33.4834 53.6083 33.2334 53.8583L17.8584 69.2417C17.6084 69.4917 17.6084 69.9 17.8584 70.15C17.9834 70.2667 18.1417 70.3333 18.3084 70.3333C18.4751 70.3333 18.6334 70.2667 18.7584 70.1417L34.1417 54.7583C34.4001 54.5083 34.4001 54.1083 34.1417 53.8583Z" fill="#313233"/>
<rect x="0.5" y="0.5" width="51" height="87" rx="4.5" stroke="#9747FF" stroke-dasharray="10 5"/>
</svg>
