<svg width="20" height="20" viewBox="0 0 20 20" fill="none" xmlns="http://www.w3.org/2000/svg">
<path d="M12.7499 13.9167L9.16658 10.3334V5.83337H10.8333V9.66671L13.9166 12.75L12.7499 13.9167ZM2.37492 13.3959C2.19436 12.9931 2.04853 12.5764 1.93742 12.1459C1.82631 11.7153 1.74992 11.2778 1.70825 10.8334H3.39575C3.43742 11.125 3.49631 11.4167 3.57242 11.7084C3.64853 12 3.74242 12.2848 3.85409 12.5625L2.37492 13.3959ZM1.70825 9.16671C1.74992 8.72226 1.82631 8.28115 1.93742 7.84337C2.04853 7.4056 2.20131 6.9856 2.39575 6.58337L3.85409 7.41671C3.74297 7.69448 3.64909 7.97921 3.57242 8.27087C3.49575 8.56254 3.43686 8.86115 3.39575 9.16671H1.70825ZM5.14575 16.7917C4.77075 16.5139 4.42353 16.2117 4.10409 15.885C3.78464 15.5584 3.48603 15.2078 3.20825 14.8334L4.66659 14C4.86103 14.25 5.06603 14.4828 5.28159 14.6984C5.49714 14.9139 5.72964 15.1187 5.97908 15.3125L5.14575 16.7917ZM4.68742 5.97921L3.20825 5.14587C3.48603 4.77087 3.78464 4.42365 4.10409 4.10421C4.42353 3.78476 4.77075 3.48615 5.14575 3.20837L5.97908 4.68754C5.74297 4.88199 5.51742 5.08671 5.30242 5.30171C5.08742 5.51671 4.88242 5.74254 4.68742 5.97921ZM9.16658 18.2917C8.72214 18.25 8.28103 18.1737 7.84325 18.0625C7.40547 17.9514 6.98547 17.7987 6.58325 17.6042L7.41658 16.1459C7.69436 16.257 7.97908 16.3509 8.27075 16.4275C8.56242 16.5042 8.86103 16.5631 9.16658 16.6042V18.2917ZM7.41658 3.85421L6.58325 2.39587C6.98603 2.20143 7.40631 2.04865 7.84409 1.93754C8.28186 1.82643 8.7227 1.75004 9.16658 1.70837V3.39587C8.86103 3.43754 8.56242 3.49671 8.27075 3.57337C7.97908 3.65004 7.69436 3.74365 7.41658 3.85421ZM10.8333 18.2917V16.6042C11.1388 16.5625 11.4374 16.5034 11.7291 16.4267C12.0208 16.35 12.3055 16.2564 12.5833 16.1459L13.4166 17.6042C13.0138 17.7987 12.5935 17.9514 12.1558 18.0625C11.718 18.1737 11.2771 18.25 10.8333 18.2917ZM12.5833 3.85421C12.3055 3.7431 12.0208 3.64921 11.7291 3.57254C11.4374 3.49587 11.1388 3.43699 10.8333 3.39587V1.70837C11.2777 1.75004 11.7188 1.82643 12.1566 1.93754C12.5944 2.04865 13.0144 2.20143 13.4166 2.39587L12.5833 3.85421ZM14.8541 16.7917L14.0208 15.3125C14.2569 15.1181 14.4827 14.9131 14.6983 14.6975C14.9138 14.482 15.1185 14.2564 15.3124 14.0209L16.7916 14.8542C16.5138 15.2292 16.2152 15.58 15.8958 15.9067C15.5763 16.2334 15.2291 16.5284 14.8541 16.7917ZM15.3124 5.97921C15.118 5.7431 14.913 5.51726 14.6974 5.30171C14.4819 5.08615 14.2563 4.88143 14.0208 4.68754L14.8541 3.20837C15.2291 3.47226 15.5763 3.76393 15.8958 4.08337C16.2152 4.40282 16.5069 4.75004 16.7708 5.12504L15.3124 5.97921ZM16.6041 9.16671C16.5624 8.86115 16.5033 8.56254 16.4266 8.27087C16.3499 7.97921 16.2566 7.69448 16.1466 7.41671L17.6049 6.56254C17.7855 6.97921 17.9346 7.40643 18.0524 7.84421C18.1702 8.28198 18.2499 8.72282 18.2916 9.16671H16.6041ZM17.6041 13.4167L16.1458 12.5834C16.2569 12.3056 16.3508 12.0209 16.4274 11.7292C16.5041 11.4375 16.5627 11.1389 16.6033 10.8334H18.2908C18.2491 11.2778 18.1727 11.7187 18.0616 12.1559C17.9505 12.5931 17.7985 13.0134 17.6041 13.4167Z" fill="#313233"/>
</svg>
