<svg width="52" height="88" viewBox="0 0 52 88" fill="none" xmlns="http://www.w3.org/2000/svg">
<path d="M23.5167 18.3667L19.0251 21.8667C18.2751 22.45 17.6667 23.6917 17.6667 24.6333V30.8083C17.6667 32.7417 19.2417 34.325 21.1751 34.325H30.8251C32.7584 34.325 34.3334 32.7417 34.3334 30.8167V24.75C34.3334 23.7417 33.6584 22.45 32.8334 21.875L27.6834 18.2667C26.5167 17.45 24.6417 17.4917 23.5167 18.3667Z" stroke="#313233" stroke-linecap="round" stroke-linejoin="round"/>
<path d="M26 30.9917V28.4917" stroke="#313233" stroke-linecap="round" stroke-linejoin="round"/>
<path d="M32.7001 57.6833L27.9001 54.325C26.5918 53.4083 24.5834 53.4583 23.3251 54.4333L19.1501 57.6917C18.3168 58.3417 17.6584 59.675 17.6584 60.725V66.475C17.6584 68.6 19.3834 70.3333 21.5084 70.3333H30.4918C32.6168 70.3333 34.3418 68.6083 34.3418 66.4833V60.8333C34.3418 59.7083 33.6168 58.325 32.7001 57.6833ZM26.6251 67C26.6251 67.3417 26.3418 67.625 26.0001 67.625C25.6584 67.625 25.3751 67.3417 25.3751 67V64.5C25.3751 64.1583 25.6584 63.875 26.0001 63.875C26.3418 63.875 26.6251 64.1583 26.6251 64.5V67Z" fill="#313233"/>
<rect x="0.5" y="0.5" width="51" height="87" rx="4.5" stroke="#9747FF" stroke-dasharray="10 5"/>
</svg>
