<svg width="52" height="88" viewBox="0 0 52 88" fill="none" xmlns="http://www.w3.org/2000/svg">
<path d="M26.0001 34.3333C30.5834 34.3333 34.3334 30.5833 34.3334 26C34.3334 21.4166 30.5834 17.6666 26.0001 17.6666C21.4167 17.6666 17.6667 21.4166 17.6667 26C17.6667 30.5833 21.4167 34.3333 26.0001 34.3333Z" stroke="#313233" stroke-linecap="round" stroke-linejoin="round"/>
<path d="M26 22.6666V26.8333" stroke="#313233" stroke-linecap="round" stroke-linejoin="round"/>
<path d="M25.9954 29.3334H26.0028" stroke="#313233" stroke-linecap="round" stroke-linejoin="round"/>
<path d="M26.0001 53.6666C21.4084 53.6666 17.6667 57.4083 17.6667 62C17.6667 66.5916 21.4084 70.3333 26.0001 70.3333C30.5917 70.3333 34.3334 66.5916 34.3334 62C34.3334 57.4083 30.5917 53.6666 26.0001 53.6666ZM25.3751 58.6666C25.3751 58.325 25.6584 58.0416 26.0001 58.0416C26.3417 58.0416 26.6251 58.325 26.6251 58.6666V62.8333C26.6251 63.175 26.3417 63.4583 26.0001 63.4583C25.6584 63.4583 25.3751 63.175 25.3751 62.8333V58.6666ZM26.7667 65.65C26.7251 65.7583 26.6667 65.8416 26.5917 65.925C26.5084 66 26.4167 66.0583 26.3167 66.1C26.2167 66.1416 26.1084 66.1666 26.0001 66.1666C25.8917 66.1666 25.7834 66.1416 25.6834 66.1C25.5834 66.0583 25.4917 66 25.4084 65.925C25.3334 65.8416 25.2751 65.7583 25.2334 65.65C25.1917 65.55 25.1667 65.4416 25.1667 65.3333C25.1667 65.225 25.1917 65.1166 25.2334 65.0166C25.2751 64.9166 25.3334 64.825 25.4084 64.7416C25.4917 64.6666 25.5834 64.6083 25.6834 64.5666C25.8834 64.4833 26.1167 64.4833 26.3167 64.5666C26.4167 64.6083 26.5084 64.6666 26.5917 64.7416C26.6667 64.825 26.7251 64.9166 26.7667 65.0166C26.8084 65.1166 26.8334 65.225 26.8334 65.3333C26.8334 65.4416 26.8084 65.55 26.7667 65.65Z" fill="#313233"/>
<rect x="0.5" y="0.5" width="51" height="87" rx="4.5" stroke="#9747FF" stroke-dasharray="10 5"/>
</svg>
