<svg width="52" height="160" viewBox="0 0 52 160" fill="none" xmlns="http://www.w3.org/2000/svg">
<path d="M25.9999 26C28.3011 26 30.1666 24.1345 30.1666 21.8333C30.1666 19.5321 28.3011 17.6667 25.9999 17.6667C23.6987 17.6667 21.8333 19.5321 21.8333 21.8333C21.8333 24.1345 23.6987 26 25.9999 26Z" stroke="#313233" stroke-linecap="round" stroke-linejoin="round"/>
<path d="M33.1582 34.3333C33.1582 31.1083 29.9499 28.5 25.9999 28.5C22.0499 28.5 18.8416 31.1083 18.8416 34.3333" stroke="#313233" stroke-linecap="round" stroke-linejoin="round"/>
<path d="M30.1667 69.0833H21.8334C19.3334 69.0833 17.6667 67.8333 17.6667 64.9167V59.0833C17.6667 56.1667 19.3334 54.9167 21.8334 54.9167H30.1667C32.6667 54.9167 34.3334 56.1667 34.3334 59.0833V64.9167C34.3334 67.8333 32.6667 69.0833 30.1667 69.0833Z" stroke="#313233" stroke-miterlimit="10" stroke-linecap="round" stroke-linejoin="round"/>
<path d="M30.1666 59.5L27.5582 61.5833C26.6999 62.2667 25.2916 62.2667 24.4332 61.5833L21.8333 59.5" stroke="#313233" stroke-miterlimit="10" stroke-linecap="round" stroke-linejoin="round"/>
<path d="M21 96.3333V94.6667C21 91.9083 21.8333 89.6667 26 89.6667C30.1667 89.6667 31 91.9083 31 94.6667V96.3333" stroke="#313233" stroke-linecap="round" stroke-linejoin="round"/>
<path d="M26.0001 103.417C27.1507 103.417 28.0834 102.484 28.0834 101.333C28.0834 100.183 27.1507 99.25 26.0001 99.25C24.8495 99.25 23.9167 100.183 23.9167 101.333C23.9167 102.484 24.8495 103.417 26.0001 103.417Z" stroke="#313233" stroke-linecap="round" stroke-linejoin="round"/>
<path d="M30.1667 106.333H21.8334C18.5001 106.333 17.6667 105.5 17.6667 102.167V100.5C17.6667 97.1667 18.5001 96.3333 21.8334 96.3333H30.1667C33.5001 96.3333 34.3334 97.1667 34.3334 100.5V102.167C34.3334 105.5 33.5001 106.333 30.1667 106.333Z" stroke="#313233" stroke-linecap="round" stroke-linejoin="round"/>
<rect x="0.5" y="0.5" width="51" height="159" rx="4.5" stroke="#9747FF" stroke-dasharray="10 5"/>
</svg>
