<svg width="52" height="88" viewBox="0 0 52 88" fill="none" xmlns="http://www.w3.org/2000/svg">
<path d="M22.2334 31.2917L24.8167 33.2917C25.1501 33.625 25.9001 33.7917 26.4001 33.7917H29.5667C30.5667 33.7917 31.6501 33.0417 31.9001 32.0417L33.9001 25.9583C34.3167 24.7917 33.5667 23.7917 32.3167 23.7917H28.9834C28.4834 23.7917 28.0667 23.375 28.1501 22.7917L28.5667 20.125C28.7334 19.375 28.2334 18.5417 27.4834 18.2917C26.8167 18.0417 25.9834 18.375 25.6501 18.875L22.2334 23.9583" stroke="#313233" stroke-miterlimit="10"/>
<path d="M17.9834 31.2917V23.125C17.9834 21.9584 18.4834 21.5417 19.6501 21.5417H20.4834C21.6501 21.5417 22.1501 21.9584 22.1501 23.125V31.2917C22.1501 32.4584 21.6501 32.875 20.4834 32.875H19.6501C18.4834 32.875 17.9834 32.4584 17.9834 31.2917Z" stroke="#313233" stroke-linecap="round" stroke-linejoin="round"/>
<path d="M22.9917 67.4084V58.9417C22.9917 58.6084 23.0917 58.2834 23.275 58.0084L25.55 54.625C25.9084 54.0834 26.8 53.7 27.5584 53.9834C28.375 54.2584 28.9167 55.175 28.7417 55.9917L28.3084 58.7167C28.275 58.9667 28.3417 59.1917 28.4834 59.3667C28.625 59.525 28.8334 59.625 29.0584 59.625H32.4834C33.1417 59.625 33.7084 59.8917 34.0417 60.3584C34.3584 60.8084 34.4167 61.3917 34.2084 61.9834L32.1584 68.225C31.9 69.2584 30.775 70.1 29.6584 70.1H26.4084C25.85 70.1 25.0667 69.9084 24.7084 69.55L23.6417 68.725C23.2334 68.4167 22.9917 67.925 22.9917 67.4084Z" fill="#313233"/>
<path d="M20.3417 57.3167H19.4834C18.1917 57.3167 17.6667 57.8167 17.6667 59.05V67.4333C17.6667 68.6667 18.1917 69.1667 19.4834 69.1667H20.3417C21.6334 69.1667 22.1584 68.6667 22.1584 67.4333V59.05C22.1584 57.8167 21.6334 57.3167 20.3417 57.3167Z" fill="#313233"/>
<rect x="0.5" y="0.5" width="51" height="87" rx="4.5" stroke="#9747FF" stroke-dasharray="10 5"/>
</svg>
