<svg width="52" height="88" viewBox="0 0 52 88" fill="none" xmlns="http://www.w3.org/2000/svg">
<path d="M25.9999 27.1917C27.4358 27.1917 28.5999 26.0276 28.5999 24.5917C28.5999 23.1557 27.4358 21.9917 25.9999 21.9917C24.564 21.9917 23.3999 23.1557 23.3999 24.5917C23.3999 26.0276 24.564 27.1917 25.9999 27.1917Z" stroke="#313233"/>
<path d="M19.0167 23.075C20.6584 15.8583 31.3501 15.8667 32.9834 23.0833C33.9418 27.3167 31.3084 30.9 29.0001 33.1167C27.3251 34.7333 24.6751 34.7333 22.9918 33.1167C20.6918 30.9 18.0584 27.3083 19.0167 23.075Z" stroke="#313233"/>
<path d="M33.1834 59.0417C32.3084 55.1917 28.9501 53.4583 26.0001 53.4583C26.0001 53.4583 26.0001 53.4583 25.9917 53.4583C23.0501 53.4583 19.6834 55.1833 18.8084 59.0333C17.8334 63.3333 20.4667 66.975 22.8501 69.2667C23.7334 70.1167 24.8667 70.5417 26.0001 70.5417C27.1334 70.5417 28.2667 70.1167 29.1417 69.2667C31.5251 66.975 34.1584 63.3417 33.1834 59.0417ZM26.0001 63.2167C24.5501 63.2167 23.3751 62.0417 23.3751 60.5917C23.3751 59.1417 24.5501 57.9667 26.0001 57.9667C27.4501 57.9667 28.6251 59.1417 28.6251 60.5917C28.6251 62.0417 27.4501 63.2167 26.0001 63.2167Z" fill="#313233"/>
<rect x="0.5" y="0.5" width="51" height="87" rx="4.5" stroke="#9747FF" stroke-dasharray="10 5"/>
</svg>
