<svg width="52" height="88" viewBox="0 0 52 88" fill="none" xmlns="http://www.w3.org/2000/svg">
<path d="M24.3501 30.6C24.7334 31.0917 25.3334 31.4167 26.0001 31.4167C27.1501 31.4167 28.0834 30.4833 28.0834 29.3333C28.0834 28.8583 27.9251 28.4167 27.6584 28.0667" stroke="#313233" stroke-linecap="round" stroke-linejoin="round"/>
<path d="M18.3501 33.3333C17.8417 32.7 17.6667 31.6916 17.6667 30.1666V28.5C17.6667 25.1666 18.5001 24.3333 21.8334 24.3333H30.1667C30.4667 24.3333 30.7417 24.3416 31.0001 24.3583C33.6417 24.5083 34.3334 25.4666 34.3334 28.5V30.1666C34.3334 33.5 33.5001 34.3333 30.1667 34.3333H21.8334C21.5334 34.3333 21.2584 34.325 21.0001 34.3083" stroke="#313233" stroke-linecap="round" stroke-linejoin="round"/>
<path d="M21 24.3334V22.6667C21 19.9084 21.8333 17.6667 26 17.6667C29.4583 17.6667 30.6167 18.8167 30.9167 20.6334" stroke="#313233" stroke-linecap="round" stroke-linejoin="round"/>
<path d="M34.3334 17.6667L17.6667 34.3334" stroke="#313233" stroke-linecap="round" stroke-linejoin="round"/>
<path d="M27.3584 65.1C27.3584 65.85 26.7501 66.4583 26.0001 66.4583C25.4667 66.4583 25.0084 66.15 24.7917 65.7083L26.6084 63.8917C27.0501 64.1083 27.3584 64.5667 27.3584 65.1Z" fill="#313233"/>
<path d="M34.1418 53.8584C33.8918 53.6084 33.4834 53.6084 33.2334 53.8584L30.8918 56.2C30.2501 54.5167 28.6084 53.6667 26.0001 53.6667C21.3084 53.6667 20.7668 56.65 20.7668 58.9V59.9417C20.7751 59.9417 20.7834 59.9417 20.7918 59.9417C18.4334 60.225 17.6668 61.4 17.6668 64.325V65.875C17.6668 67.2084 17.8251 68.175 18.2251 68.8667L17.8501 69.2417C17.6001 69.4917 17.6001 69.9 17.8501 70.15C17.9834 70.2667 18.1418 70.3334 18.3084 70.3334C18.4751 70.3334 18.6334 70.2667 18.7584 70.1417L34.1418 54.7584C34.4001 54.5084 34.4001 54.1084 34.1418 53.8584ZM22.1251 59.8667C22.0584 59.8667 22.0001 59.8667 21.9334 59.8667V58.9C21.9334 56.4584 22.6251 54.8334 26.0001 54.8334C28.8334 54.8334 29.7251 55.9167 29.9751 57.125L27.2334 59.8667H22.1251Z" fill="#313233"/>
<path d="M34.3332 64.325V65.875C34.3332 69.2917 33.2915 70.3333 29.8749 70.3333H22.1749C21.4332 70.3333 21.0665 69.4333 21.5915 68.9083L23.9415 66.5583C23.9999 66.6417 24.0665 66.7167 24.1332 66.7917C24.7165 67.425 25.5832 67.7583 26.5415 67.5583C26.6165 67.5417 26.6915 67.525 26.7665 67.4917C26.8415 67.475 26.9082 67.45 26.9749 67.4167C27.1415 67.3583 27.2999 67.2667 27.4499 67.1583C27.5082 67.125 27.5582 67.0833 27.5999 67.0417C27.7249 66.9417 27.8415 66.825 27.9415 66.7C27.9832 66.6583 28.0249 66.6083 28.0582 66.55C28.1665 66.4 28.2582 66.2417 28.3165 66.075C28.3499 66.0083 28.3749 65.9417 28.3915 65.8667C28.4249 65.7917 28.4415 65.7167 28.4582 65.6417C28.6582 64.6833 28.3249 63.8167 27.6915 63.2333C27.6249 63.1667 27.5415 63.1 27.4582 63.0417L30.0582 60.4417C30.0999 60.4 30.1332 60.3667 30.1749 60.3333C30.5082 60.0583 30.9332 59.925 31.3582 59.9583C31.4332 59.9667 31.5165 59.975 31.5915 59.9917C31.7332 60.0167 31.8749 60.05 32.0082 60.0833C32.1415 60.1167 32.2665 60.1583 32.3915 60.2C32.6332 60.2917 32.8415 60.4 33.0332 60.525C33.2249 60.65 33.3832 60.8 33.5332 60.975C33.6082 61.0667 33.6832 61.1667 33.7415 61.275C33.7999 61.3667 33.8499 61.4667 33.8999 61.575C33.9499 61.6833 33.9915 61.8 34.0332 61.9167C34.0832 62.0583 34.1249 62.2167 34.1582 62.3833C34.1915 62.5 34.2082 62.625 34.2332 62.7583C34.2499 62.8833 34.2665 63.0167 34.2832 63.1583C34.3165 63.5083 34.3332 63.9 34.3332 64.325Z" fill="#313233"/>
<rect x="0.5" y="0.5" width="51" height="87" rx="4.5" stroke="#9747FF" stroke-dasharray="10 5"/>
</svg>
