<svg width="52" height="88" viewBox="0 0 52 88" fill="none" xmlns="http://www.w3.org/2000/svg">
<path d="M21 24.3334V22.6667C21 19.9084 21.8333 17.6667 26 17.6667C30.1667 17.6667 31 19.9084 31 22.6667V24.3334" stroke="#313233" stroke-linecap="round" stroke-linejoin="round"/>
<path d="M26.0001 31.4167C27.1507 31.4167 28.0834 30.4839 28.0834 29.3333C28.0834 28.1827 27.1507 27.25 26.0001 27.25C24.8495 27.25 23.9167 28.1827 23.9167 29.3333C23.9167 30.4839 24.8495 31.4167 26.0001 31.4167Z" stroke="#313233" stroke-linecap="round" stroke-linejoin="round"/>
<path d="M30.1667 34.3333H21.8334C18.5001 34.3333 17.6667 33.5 17.6667 30.1666V28.5C17.6667 25.1666 18.5001 24.3333 21.8334 24.3333H30.1667C33.5001 24.3333 34.3334 25.1666 34.3334 28.5V30.1666C34.3334 33.5 33.5001 34.3333 30.1667 34.3333Z" stroke="#313233" stroke-linecap="round" stroke-linejoin="round"/>
<path d="M25.9999 66.4583C26.7501 66.4583 27.3583 65.8502 27.3583 65.1C27.3583 64.3498 26.7501 63.7416 25.9999 63.7416C25.2497 63.7416 24.6416 64.3498 24.6416 65.1C24.6416 65.8502 25.2497 66.4583 25.9999 66.4583Z" fill="#313233"/>
<path d="M31.2334 59.9417V58.9C31.2334 56.65 30.6917 53.6667 26.0001 53.6667C21.3084 53.6667 20.7667 56.65 20.7667 58.9V59.9417C18.4334 60.2334 17.6667 61.4167 17.6667 64.325V65.875C17.6667 69.2917 18.7084 70.3334 22.1251 70.3334H29.8751C33.2917 70.3334 34.3334 69.2917 34.3334 65.875V64.325C34.3334 61.4167 33.5667 60.2334 31.2334 59.9417ZM26.0001 67.6167C24.6084 67.6167 23.4834 66.4834 23.4834 65.1C23.4834 63.7084 24.6167 62.5834 26.0001 62.5834C27.3834 62.5834 28.5167 63.7167 28.5167 65.1C28.5167 66.4917 27.3917 67.6167 26.0001 67.6167ZM22.1251 59.8667C22.0584 59.8667 22.0001 59.8667 21.9334 59.8667V58.9C21.9334 56.4584 22.6251 54.8334 26.0001 54.8334C29.3751 54.8334 30.0667 56.4584 30.0667 58.9V59.875C30.0001 59.875 29.9417 59.875 29.8751 59.875H22.1251V59.8667Z" fill="#313233"/>
<rect x="0.5" y="0.5" width="51" height="87" rx="4.5" stroke="#9747FF" stroke-dasharray="10 5"/>
</svg>
