<svg width="52" height="88" viewBox="0 0 52 88" fill="none" xmlns="http://www.w3.org/2000/svg">
<path d="M23.4167 22.3C23.6751 19.3 25.2167 18.075 28.5917 18.075H28.7001C32.4251 18.075 33.9167 19.5667 33.9167 23.2917V28.725C33.9167 32.45 32.4251 33.9417 28.7001 33.9417H28.5917C25.2417 33.9417 23.7001 32.7333 23.4251 29.7833" stroke="#313233" stroke-linecap="round" stroke-linejoin="round"/>
<path d="M28.4999 26H19.0166" stroke="#313233" stroke-linecap="round" stroke-linejoin="round"/>
<path d="M20.8749 23.2083L18.0833 26L20.8749 28.7917" stroke="#313233" stroke-linecap="round" stroke-linejoin="round"/>
<path d="M30 53.6667H27.8333C25.1667 53.6667 23.5 55.3333 23.5 58V61.375H28.7083C29.05 61.375 29.3333 61.6583 29.3333 62C29.3333 62.3417 29.05 62.625 28.7083 62.625H23.5V66C23.5 68.6667 25.1667 70.3333 27.8333 70.3333H29.9917C32.6583 70.3333 34.325 68.6667 34.325 66V58C34.3333 55.3333 32.6667 53.6667 30 53.6667Z" fill="#313233"/>
<path d="M19.8 61.375L21.525 59.65C21.65 59.525 21.7083 59.3667 21.7083 59.2083C21.7083 59.05 21.65 58.8833 21.525 58.7667C21.2833 58.525 20.8833 58.525 20.6416 58.7667L17.85 61.5583C17.6083 61.8 17.6083 62.2 17.85 62.4417L20.6416 65.2333C20.8833 65.475 21.2833 65.475 21.525 65.2333C21.7666 64.9917 21.7666 64.5917 21.525 64.35L19.8 62.625H23.5V61.375H19.8Z" fill="#313233"/>
<rect x="0.5" y="0.5" width="51" height="87" rx="4.5" stroke="#9747FF" stroke-dasharray="10 5"/>
</svg>
