<svg width="52" height="88" viewBox="0 0 52 88" fill="none" xmlns="http://www.w3.org/2000/svg">
<path d="M18.9167 33.0833C19.6084 33.775 20.725 33.775 21.4167 33.0833L32.25 22.25C32.9417 21.5583 32.9417 20.4417 32.25 19.75C31.5584 19.0583 30.4417 19.0583 29.75 19.75L18.9167 30.5833C18.225 31.275 18.225 32.3917 18.9167 33.0833Z" stroke="#313233" stroke-linecap="round" stroke-linejoin="round"/>
<path d="M31.0083 23.4917L28.5083 20.9917" stroke="#313233" stroke-linecap="round" stroke-linejoin="round"/>
<path d="M23.0833 18.0333L24.3333 17.6667L23.9666 18.9167L24.3333 20.1667L23.0833 19.8L21.8333 20.1667L22.1999 18.9167L21.8333 17.6667L23.0833 18.0333Z" stroke="#313233" stroke-linecap="round" stroke-linejoin="round"/>
<path d="M19.75 23.0333L21 22.6667L20.6333 23.9167L21 25.1667L19.75 24.8L18.5 25.1667L18.8667 23.9167L18.5 22.6667L19.75 23.0333Z" stroke="#313233" stroke-linecap="round" stroke-linejoin="round"/>
<path d="M32.25 27.2L33.5 26.8333L33.1333 28.0833L33.5 29.3333L32.25 28.9667L31 29.3333L31.3667 28.0833L31 26.8333L32.25 27.2Z" stroke="#313233" stroke-linecap="round" stroke-linejoin="round"/>
<path d="M32.25 58.25L31.0083 59.4917L28.5083 56.9917L29.75 55.75C30.1 55.4 30.55 55.2333 31 55.2333C31.45 55.2333 31.9 55.4 32.25 55.75C32.9416 56.4417 32.9416 57.5583 32.25 58.25Z" fill="#313233"/>
<path d="M30.425 60.0833L21.4167 69.0833C20.725 69.775 19.6084 69.775 18.9167 69.0833C18.225 68.3917 18.225 67.275 18.9167 66.5833L27.925 57.5833L30.425 60.0833Z" fill="#313233"/>
<path d="M24.2918 54.9167L24.6334 53.7583C24.6668 53.65 24.6334 53.5333 24.5584 53.45C24.4834 53.3667 24.3501 53.3333 24.2418 53.3667L23.0834 53.7083L21.9251 53.3667C21.8168 53.3333 21.7001 53.3667 21.6168 53.4417C21.5334 53.525 21.5084 53.6417 21.5418 53.75L21.8751 54.9167L21.5334 56.075C21.5001 56.1833 21.5334 56.3 21.6084 56.3833C21.6918 56.4667 21.8084 56.4917 21.9168 56.4583L23.0834 56.125L24.2418 56.4667C24.2751 56.475 24.3001 56.4833 24.3334 56.4833C24.4168 56.4833 24.4918 56.45 24.5584 56.3917C24.6418 56.3083 24.6668 56.1917 24.6334 56.0833L24.2918 54.9167Z" fill="#313233"/>
<path d="M20.9583 59.9167L21.2999 58.7583C21.3333 58.65 21.2999 58.5333 21.2249 58.45C21.1416 58.3667 21.0249 58.3417 20.9166 58.375L19.7499 58.7083L18.5916 58.3667C18.4833 58.3333 18.3666 58.3667 18.2833 58.4417C18.1999 58.525 18.1749 58.6417 18.2083 58.75L18.5416 59.9167L18.1999 61.075C18.1666 61.1833 18.1999 61.3 18.2749 61.3833C18.3583 61.4667 18.4749 61.4917 18.5833 61.4583L19.7416 61.1167L20.8999 61.4583C20.9249 61.4667 20.9583 61.4667 20.9916 61.4667C21.0749 61.4667 21.1499 61.4333 21.2166 61.375C21.2999 61.2917 21.3249 61.175 21.2916 61.0667L20.9583 59.9167Z" fill="#313233"/>
<path d="M33.4583 64.0833L33.8 62.925C33.8333 62.8167 33.8 62.7 33.725 62.6167C33.6417 62.5333 33.525 62.5083 33.4167 62.5417L32.2583 62.8833L31.1 62.5417C30.9917 62.5083 30.875 62.5417 30.7917 62.6167C30.7083 62.7 30.6833 62.8167 30.7167 62.925L31.0583 64.0833L30.7167 65.2417C30.6833 65.35 30.7167 65.4667 30.7917 65.55C30.875 65.6333 30.9917 65.6583 31.1 65.625L32.2583 65.2833L33.4167 65.625C33.4417 65.6333 33.475 65.6333 33.5083 65.6333C33.5917 65.6333 33.6667 65.6 33.7333 65.5417C33.8167 65.4583 33.8417 65.3417 33.8083 65.2333L33.4583 64.0833Z" fill="#313233"/>
<rect x="0.5" y="0.5" width="51" height="87" rx="4.5" stroke="#9747FF" stroke-dasharray="10 5"/>
</svg>
