<svg width="52" height="88" viewBox="0 0 52 88" fill="none" xmlns="http://www.w3.org/2000/svg">
<path d="M30.1667 33.7083H21.8334C18.7917 33.7083 17.0417 31.9583 17.0417 28.9167V23.0833C17.0417 20.0417 18.7917 18.2917 21.8334 18.2917H26.0001C26.3417 18.2917 26.6251 18.575 26.6251 18.9167C26.6251 19.2583 26.3417 19.5417 26.0001 19.5417H21.8334C19.4501 19.5417 18.2917 20.7 18.2917 23.0833V28.9167C18.2917 31.3 19.4501 32.4583 21.8334 32.4583H30.1667C32.5501 32.4583 33.7084 31.3 33.7084 28.9167V25.5833C33.7084 25.2417 33.9917 24.9583 34.3334 24.9583C34.6751 24.9583 34.9584 25.2417 34.9584 25.5833V28.9167C34.9584 31.9583 33.2084 33.7083 30.1667 33.7083Z" fill="#313233"/>
<path d="M25.9997 26.725C25.2997 26.725 24.5914 26.5084 24.0497 26.0667L21.4414 23.9834C21.1747 23.7667 21.1247 23.375 21.3414 23.1084C21.5581 22.8417 21.9497 22.7917 22.2164 23.0084L24.8247 25.0917C25.4581 25.6 26.5331 25.6 27.1664 25.0917C27.4331 24.875 27.8247 24.9167 28.0414 25.1917C28.2581 25.4584 28.2164 25.8584 27.9414 26.0667C27.4081 26.5084 26.6997 26.725 25.9997 26.725Z" fill="#313233"/>
<path d="M34.8337 21C34.8337 21.625 34.6587 22.2167 34.3503 22.7167C34.1753 23.0167 33.9503 23.2833 33.692 23.5C33.1087 24.025 32.342 24.3333 31.5003 24.3333C30.2837 24.3333 29.2253 23.6833 28.6503 22.7167C28.342 22.2167 28.167 21.625 28.167 21C28.167 19.95 28.6503 19.0083 29.417 18.4C29.992 17.9417 30.717 17.6667 31.5003 17.6667C33.342 17.6667 34.8337 19.1583 34.8337 21Z" stroke="#313233" stroke-miterlimit="10" stroke-linecap="round" stroke-linejoin="round"/>
<path d="M30.2 20.9996L31.0249 21.8246L32.7999 20.1829" stroke="#313233" stroke-linecap="round" stroke-linejoin="round"/>
<path d="M31.8333 52.8333C29.9917 52.8333 28.5 54.325 28.5 56.1667C28.5 56.7917 28.675 57.3833 28.9833 57.8833C29.5583 58.85 30.6167 59.5 31.8333 59.5C33.05 59.5 34.1083 58.85 34.6833 57.8833C34.9917 57.3833 35.1667 56.7917 35.1667 56.1667C35.1667 54.325 33.675 52.8333 31.8333 52.8333ZM33.475 55.8917L31.7 57.5334C31.5833 57.6417 31.425 57.7 31.275 57.7C31.1167 57.7 30.9583 57.6417 30.8333 57.5167L30.0083 56.6917C29.7667 56.45 29.7667 56.05 30.0083 55.8083C30.25 55.5667 30.65 55.5667 30.8917 55.8083L31.2917 56.2083L32.625 54.975C32.875 54.7417 33.275 54.7583 33.5083 55.0083C33.7417 55.2583 33.725 55.6583 33.475 55.8917Z" fill="#313233"/>
<path d="M33.9167 59.9167C33.5001 60.2031 33.5001 60.3333 32.6667 60.3333C32.6667 60.3333 31.8334 60.3333 31.4167 60.3333C31.0001 60.3333 31.0001 60.3333 30.5834 60.3333C30.1667 60.3333 29.9334 60.05 29.7501 59.9167C29.5667 59.7833 28.9167 59.5 28.5001 59.0833C28.0834 58.6667 28.0834 58.25 28.0167 57.7917C28.0834 57 27.6667 55.9957 27.6667 55.3333C27.6667 55.1083 27.2584 54.9167 26.9751 54.9167H21.8334C19.3334 54.9167 17.6667 56.1667 17.6667 59.0833V64.9167C17.6667 67.8333 19.3334 69.0833 21.8334 69.0833H30.1667C32.6667 69.0833 34.3334 67.8333 34.3334 64.9167V59.9167C34.3334 59.7583 34.0501 59.825 33.9167 59.9167ZM27.9501 62.075C27.4001 62.5167 26.7001 62.7333 26.0001 62.7333C25.3001 62.7333 24.5917 62.5167 24.0501 62.075L21.4417 59.9917C21.1751 59.775 21.1334 59.375 21.3417 59.1083C21.5584 58.8417 21.9501 58.7917 22.2167 59.0083L24.8251 61.0917C25.4584 61.6 26.5334 61.6 27.1667 61.0917C27.4334 60.875 27.8251 60.9167 28.0417 61.1917C28.2667 61.4583 28.2251 61.8583 27.9501 62.075Z" fill="#313233"/>
<rect x="0.5" y="0.5" width="51" height="87" rx="4.5" stroke="#9747FF" stroke-dasharray="10 5"/>
</svg>
