<svg width="52" height="88" viewBox="0 0 52 88" fill="none" xmlns="http://www.w3.org/2000/svg">
<path d="M18.5 21.8333H33.5" stroke="#313233" stroke-linecap="round"/>
<path d="M18.5 26H33.5" stroke="#313233" stroke-linecap="round"/>
<path d="M18.5 30.1667H33.5" stroke="#313233" stroke-linecap="round"/>
<path d="M29.4917 53.6667H22.5084C19.4751 53.6667 17.6667 55.475 17.6667 58.5083V65.4833C17.6667 68.525 19.4751 70.3333 22.5084 70.3333H29.4834C32.5167 70.3333 34.3251 68.525 34.3251 65.4917V58.5083C34.3334 55.475 32.5251 53.6667 29.4917 53.6667ZM30.1667 66.375H21.8334C21.4917 66.375 21.2084 66.0917 21.2084 65.75C21.2084 65.4083 21.4917 65.125 21.8334 65.125H30.1667C30.5084 65.125 30.7917 65.4083 30.7917 65.75C30.7917 66.0917 30.5084 66.375 30.1667 66.375ZM30.1667 62.625H21.8334C21.4917 62.625 21.2084 62.3417 21.2084 62C21.2084 61.6583 21.4917 61.375 21.8334 61.375H30.1667C30.5084 61.375 30.7917 61.6583 30.7917 62C30.7917 62.3417 30.5084 62.625 30.1667 62.625ZM30.1667 58.875H21.8334C21.4917 58.875 21.2084 58.5917 21.2084 58.25C21.2084 57.9083 21.4917 57.625 21.8334 57.625H30.1667C30.5084 57.625 30.7917 57.9083 30.7917 58.25C30.7917 58.5917 30.5084 58.875 30.1667 58.875Z" fill="#313233"/>
<rect x="0.5" y="0.5" width="51" height="87" rx="4.5" stroke="#9747FF" stroke-dasharray="10 5"/>
</svg>
