<svg width="52" height="88" viewBox="0 0 52 88" fill="none" xmlns="http://www.w3.org/2000/svg">
<path d="M30.1667 33.0833H21.8334C19.3334 33.0833 17.6667 31.8333 17.6667 28.9167V23.0833C17.6667 20.1667 19.3334 18.9167 21.8334 18.9167H30.1667C32.6667 18.9167 34.3334 20.1667 34.3334 23.0833V28.9167C34.3334 31.8333 32.6667 33.0833 30.1667 33.0833Z" stroke="#313233" stroke-miterlimit="10" stroke-linecap="round" stroke-linejoin="round"/>
<path d="M30.1666 23.5L27.5582 25.5833C26.6999 26.2667 25.2916 26.2667 24.4332 25.5833L21.8333 23.5" stroke="#313233" stroke-miterlimit="10" stroke-linecap="round" stroke-linejoin="round"/>
<path d="M30.1667 54.9167H21.8334C19.3334 54.9167 17.6667 56.1667 17.6667 59.0833V64.9167C17.6667 67.8333 19.3334 69.0833 21.8334 69.0833H30.1667C32.6667 69.0833 34.3334 67.8333 34.3334 64.9167V59.0833C34.3334 56.1667 32.6667 54.9167 30.1667 54.9167ZM30.5584 59.9917L27.9501 62.075C27.4001 62.5167 26.7001 62.7333 26.0001 62.7333C25.3001 62.7333 24.5917 62.5167 24.0501 62.075L21.4417 59.9917C21.1751 59.775 21.1334 59.375 21.3417 59.1083C21.5584 58.8417 21.9501 58.7917 22.2167 59.0083L24.8251 61.0917C25.4584 61.6 26.5334 61.6 27.1667 61.0917L29.7751 59.0083C30.0417 58.7917 30.4417 58.8333 30.6501 59.1083C30.8667 59.375 30.8251 59.775 30.5584 59.9917Z" fill="#313233"/>
<rect x="0.5" y="0.5" width="51" height="87" rx="4.5" stroke="#9747FF" stroke-dasharray="10 5"/>
</svg>
