<svg width="52" height="88" viewBox="0 0 52 88" fill="none" xmlns="http://www.w3.org/2000/svg">
<path d="M22.6667 26H29.3334" stroke="#313233" stroke-linecap="round" stroke-linejoin="round"/>
<path d="M23.5001 34.3333H28.5001C32.6667 34.3333 34.3334 32.6666 34.3334 28.5V23.5C34.3334 19.3333 32.6667 17.6666 28.5001 17.6666H23.5001C19.3334 17.6666 17.6667 19.3333 17.6667 23.5V28.5C17.6667 32.6666 19.3334 34.3333 23.5001 34.3333Z" stroke="#313233" stroke-linecap="round" stroke-linejoin="round"/>
<path d="M29.4917 53.6666H22.5084C19.4751 53.6666 17.6667 55.475 17.6667 58.5083V65.4833C17.6667 68.525 19.4751 70.3333 22.5084 70.3333H29.4834C32.5167 70.3333 34.3251 68.525 34.3251 65.4916V58.5083C34.3334 55.475 32.5251 53.6666 29.4917 53.6666ZM29.3334 62.625H22.6667C22.3251 62.625 22.0417 62.3416 22.0417 62C22.0417 61.6583 22.3251 61.375 22.6667 61.375H29.3334C29.6751 61.375 29.9584 61.6583 29.9584 62C29.9584 62.3416 29.6751 62.625 29.3334 62.625Z" fill="#313233"/>
<rect x="0.5" y="0.5" width="51" height="87" rx="4.5" stroke="#9747FF" stroke-dasharray="10 5"/>
</svg>
