<svg width="52" height="88" viewBox="0 0 52 88" fill="none" xmlns="http://www.w3.org/2000/svg">
<path d="M34.6667 17H17.3333C16.9797 17 16.6406 17.2107 16.3905 17.5858C16.1405 17.9609 16 18.4696 16 19V33C16 33.5304 16.1405 34.0391 16.3905 34.4142C16.6406 34.7893 16.9797 35 17.3333 35H34.6667C35.0203 35 35.3594 34.7893 35.6095 34.4142C35.8595 34.0391 36 33.5304 36 33V19C36 18.4696 35.8595 17.9609 35.6095 17.5858C35.3594 17.2107 35.0203 17 34.6667 17ZM22.25 33L17.3333 26.55V25.45L22.25 19H29.75L34.6667 25.45V26.55L29.75 33H22.25ZM34.6667 22.8L31.775 19H34.6667V22.8ZM20.225 19L17.3333 22.8V19H20.225ZM17.3333 29.2L20.225 33H17.3333V29.2ZM34.6667 33H31.775L34.6667 29.2V33ZM26 21C25.3407 21 24.6963 21.2932 24.1481 21.8427C23.5999 22.3921 23.1727 23.173 22.9204 24.0866C22.6681 25.0002 22.6021 26.0055 22.7307 26.9755C22.8593 27.9454 23.1768 28.8363 23.643 29.5355C24.1092 30.2348 24.7031 30.711 25.3497 30.9039C25.9963 31.0969 26.6665 30.9978 27.2756 30.6194C27.8847 30.241 28.4053 29.6001 28.7716 28.7779C29.1378 27.9556 29.3333 26.9889 29.3333 26C29.3333 24.6739 28.9821 23.4021 28.357 22.4645C27.7319 21.5268 26.8841 21 26 21ZM26 29C25.6044 29 25.2178 28.8241 24.8889 28.4944C24.56 28.1648 24.3036 27.6962 24.1522 27.1481C24.0009 26.5999 23.9613 25.9967 24.0384 25.4147C24.1156 24.8328 24.3061 24.2982 24.5858 23.8787C24.8655 23.4591 25.2219 23.1734 25.6098 23.0576C25.9978 22.9419 26.3999 23.0013 26.7654 23.2284C27.1308 23.4554 27.4432 23.8399 27.6629 24.3333C27.8827 24.8266 28 25.4067 28 26C27.9978 26.7946 27.7864 27.5558 27.4118 28.1177C27.0372 28.6796 26.5298 28.9967 26 29Z" fill="#313233"/>
<path d="M34.6667 53H17.3333C16.9797 53 16.6406 53.2107 16.3905 53.5858C16.1405 53.9609 16 54.4696 16 55V69C16 69.5304 16.1405 70.0391 16.3905 70.4142C16.6406 70.7893 16.9797 71 17.3333 71H34.6667C35.0203 71 35.3594 70.7893 35.6095 70.4142C35.8595 70.0391 36 69.5304 36 69V55C36 54.4696 35.8595 53.9609 35.6095 53.5858C35.3594 53.2107 35.0203 53 34.6667 53ZM21.5833 69L17.3333 63.5375V60.4625L21.5833 55H30.4167L34.6667 60.4625V63.5375L30.4167 69H21.5833ZM29.3333 62C29.3333 62.9889 29.1378 63.9556 28.7716 64.7779C28.4053 65.6001 27.8847 66.241 27.2756 66.6194C26.6665 66.9978 25.9963 67.0969 25.3497 66.9039C24.7031 66.711 24.1092 66.2348 23.643 65.5355C23.1768 64.8363 22.8593 63.9454 22.7307 62.9755C22.6021 62.0055 22.6681 61.0002 22.9204 60.0866C23.1727 59.173 23.5999 58.3921 24.1481 57.8427C24.6963 57.2932 25.3407 57 26 57C26.8841 57 27.7319 57.5268 28.357 58.4645C28.9821 59.4021 29.3333 60.6739 29.3333 62Z" fill="#313233"/>
<rect x="0.5" y="0.5" width="51" height="87" rx="4.5" stroke="#9747FF" stroke-dasharray="10 5"/>
</svg>
