<svg width="20" height="20" viewBox="0 0 20 20" fill="none" xmlns="http://www.w3.org/2000/svg">
<path d="M7.29175 15.6864C6.95008 15.6864 6.66675 15.4031 6.66675 15.0614V5.0614C6.66675 4.71973 6.95008 4.4364 7.29175 4.4364C7.63341 4.4364 7.91675 4.71973 7.91675 5.0614V15.0614C7.91675 15.4031 7.63341 15.6864 7.29175 15.6864Z" fill="#313233"/>
<path d="M13.2952 15.4023C12.9964 15.568 12.596 15.43 12.4119 15.098L7.02515 5.37996C6.8411 5.04793 6.93629 4.63522 7.23511 4.46958C7.53394 4.30393 7.93438 4.44191 8.11842 4.77395L13.5052 14.4919C13.6892 14.824 13.5941 15.2367 13.2952 15.4023Z" fill="#313233"/>
<path d="M13.125 15.6864C12.7833 15.6864 12.5 15.4031 12.5 15.0614V5.0614C12.5 4.71973 12.7833 4.4364 13.125 4.4364C13.4667 4.4364 13.75 4.71973 13.75 5.0614V15.0614C13.75 15.4031 13.4667 15.6864 13.125 15.6864Z" fill="#313233"/>
<path d="M15.4167 9.22803C15.4167 9.56969 15.1334 9.85303 14.7917 9.85303H4.79175C4.45008 9.85303 4.16675 9.56969 4.16675 9.22803C4.16675 8.88636 4.45008 8.60303 4.79175 8.60303H14.7917C15.1334 8.60303 15.4167 8.88636 15.4167 9.22803Z" fill="#313233"/>
<path d="M15.4167 12.5614C15.4167 12.9031 15.1334 13.1864 14.7917 13.1864H4.79175C4.45008 13.1864 4.16675 12.9031 4.16675 12.5614C4.16675 12.2197 4.45008 11.9364 4.79175 11.9364H14.7917C15.1334 11.9364 15.4167 12.2197 15.4167 12.5614Z" fill="#313233"/>
<path d="M10.0001 18.9583C5.05841 18.9583 1.04175 14.9416 1.04175 9.99996C1.04175 5.05829 5.05841 1.04163 10.0001 1.04163C14.9417 1.04163 18.9584 5.05829 18.9584 9.99996C18.9584 14.9416 14.9417 18.9583 10.0001 18.9583ZM10.0001 2.29163C5.75008 2.29163 2.29175 5.74996 2.29175 9.99996C2.29175 14.25 5.75008 17.7083 10.0001 17.7083C14.2501 17.7083 17.7084 14.25 17.7084 9.99996C17.7084 5.74996 14.2501 2.29163 10.0001 2.29163Z" fill="#313233"/>
</svg>
