<svg width="52" height="88" viewBox="0 0 52 88" fill="none" xmlns="http://www.w3.org/2000/svg">
<path d="M20.1667 24.3333C19.25 24.3333 18.5 25.0833 18.5 26C18.5 26.9167 19.25 27.6667 20.1667 27.6667C21.0833 27.6667 21.8333 26.9167 21.8333 26C21.8333 25.0833 21.0833 24.3333 20.1667 24.3333Z" stroke="#313233"/>
<path d="M31.8334 24.3333C30.9167 24.3333 30.1667 25.0833 30.1667 26C30.1667 26.9167 30.9167 27.6667 31.8334 27.6667C32.7501 27.6667 33.5001 26.9167 33.5001 26C33.5001 25.0833 32.7501 24.3333 31.8334 24.3333Z" stroke="#313233"/>
<path d="M25.9999 24.3333C25.0833 24.3333 24.3333 25.0833 24.3333 26C24.3333 26.9167 25.0833 27.6667 25.9999 27.6667C26.9166 27.6667 27.6666 26.9167 27.6666 26C27.6666 25.0833 26.9166 24.3333 25.9999 24.3333Z" stroke="#313233"/>
<path d="M29.4917 53.6667H22.5084C19.4751 53.6667 17.6667 55.475 17.6667 58.5083V65.4833C17.6667 68.525 19.4751 70.3333 22.5084 70.3333H29.4834C32.5167 70.3333 34.3251 68.525 34.3251 65.4917V58.5083C34.3334 55.475 32.5251 53.6667 29.4917 53.6667ZM21.8334 63.0917C21.2334 63.0917 20.7417 62.6 20.7417 62C20.7417 61.4 21.2334 60.9083 21.8334 60.9083C22.4334 60.9083 22.9251 61.4 22.9251 62C22.9251 62.6 22.4334 63.0917 21.8334 63.0917ZM26.0001 63.0917C25.4001 63.0917 24.9084 62.6 24.9084 62C24.9084 61.4 25.4001 60.9083 26.0001 60.9083C26.6001 60.9083 27.0917 61.4 27.0917 62C27.0917 62.6 26.6001 63.0917 26.0001 63.0917ZM30.1667 63.0917C29.5667 63.0917 29.0751 62.6 29.0751 62C29.0751 61.4 29.5667 60.9083 30.1667 60.9083C30.7667 60.9083 31.2584 61.4 31.2584 62C31.2584 62.6 30.7667 63.0917 30.1667 63.0917Z" fill="#313233"/>
<rect x="0.5" y="0.5" width="51" height="87" rx="4.5" stroke="#9747FF" stroke-dasharray="10 5"/>
</svg>
