<svg width="52" height="88" viewBox="0 0 52 88" fill="none" xmlns="http://www.w3.org/2000/svg">
<path d="M34.3334 24.75V28.9167C34.3334 31.8333 32.6667 33.0833 30.1667 33.0833H21.8334C19.3334 33.0833 17.6667 31.8333 17.6667 28.9167V23.0833C17.6667 20.1667 19.3334 18.9167 21.8334 18.9167H27.6667" stroke="#313233" stroke-miterlimit="10" stroke-linecap="round" stroke-linejoin="round"/>
<path d="M21.8333 23.5L24.4416 25.5833C25.2999 26.2667 26.7083 26.2667 27.5666 25.5833L28.5499 24.8" stroke="#313233" stroke-miterlimit="10" stroke-linecap="round" stroke-linejoin="round"/>
<path d="M32.2501 22.6667C33.4007 22.6667 34.3334 21.7339 34.3334 20.5833C34.3334 19.4327 33.4007 18.5 32.2501 18.5C31.0995 18.5 30.1667 19.4327 30.1667 20.5833C30.1667 21.7339 31.0995 22.6667 32.2501 22.6667Z" stroke="#313233" stroke-miterlimit="10" stroke-linecap="round" stroke-linejoin="round"/>
<path d="M32.2501 58.6667C33.4007 58.6667 34.3334 57.7339 34.3334 56.5833C34.3334 55.4327 33.4007 54.5 32.2501 54.5C31.0995 54.5 30.1667 55.4327 30.1667 56.5833C30.1667 57.7339 31.0995 58.6667 32.2501 58.6667Z" fill="#313233"/>
<path d="M32.2501 58.6667C33.4007 58.6667 34.3334 57.7339 34.3334 56.5833C34.3334 55.4327 33.4007 54.5 32.2501 54.5C31.0995 54.5 30.1667 55.4327 30.1667 56.5833C30.1667 57.7339 31.0995 58.6667 32.2501 58.6667Z" fill="#313233"/>
<path d="M33.2667 59.7583C32.6834 59.9417 32.0417 59.975 31.3751 59.8083C30.2584 59.5167 29.3501 58.625 29.0417 57.5083C28.8917 56.9667 28.8834 56.4333 28.9751 55.95C29.0834 55.4167 28.7084 54.9167 28.1751 54.9167H21.8334C19.3334 54.9167 17.6667 56.1667 17.6667 59.0833V64.9167C17.6667 67.8333 19.3334 69.0833 21.8334 69.0833H30.1667C32.6667 69.0833 34.3334 67.8333 34.3334 64.9167V60.55C34.3334 60 33.8001 59.5833 33.2667 59.7583ZM28.9334 61.2917L27.9501 62.075C27.4001 62.5167 26.7001 62.7333 26.0001 62.7333C25.3001 62.7333 24.5917 62.5167 24.0501 62.075L21.4417 59.9917C21.1751 59.775 21.1334 59.375 21.3417 59.1083C21.5584 58.8417 21.9501 58.7917 22.2167 59.0083L24.8251 61.0917C25.4584 61.6 26.5334 61.6 27.1667 61.0917L28.1501 60.3083C28.4167 60.0917 28.8167 60.1333 29.0251 60.4083C29.2417 60.675 29.2001 61.075 28.9334 61.2917Z" fill="#313233"/>
<rect x="0.5" y="0.5" width="51" height="87" rx="4.5" stroke="#9747FF" stroke-dasharray="10 5"/>
</svg>
