<svg width="52" height="88" viewBox="0 0 52 88" fill="none" xmlns="http://www.w3.org/2000/svg">
<path d="M26.0167 18.425C23.2584 18.425 21.0167 20.6667 21.0167 23.425V25.8333C21.0167 26.3417 20.8001 27.1167 20.5417 27.55L19.5834 29.1417C18.9917 30.125 19.4001 31.2167 20.4834 31.5833C24.0751 32.7833 27.9501 32.7833 31.5417 31.5833C32.5501 31.25 32.9917 30.0583 32.4417 29.1417L31.4834 27.55C31.2334 27.1167 31.0167 26.3417 31.0167 25.8333V23.425C31.0167 20.675 28.7667 18.425 26.0167 18.425Z" stroke="#313233" stroke-miterlimit="10" stroke-linecap="round"/>
<path d="M27.5584 18.6667C27.3001 18.5917 27.0334 18.5333 26.7584 18.5C25.9584 18.4 25.1918 18.4583 24.4751 18.6667C24.7168 18.05 25.3168 17.6167 26.0168 17.6167C26.7168 17.6167 27.3168 18.05 27.5584 18.6667Z" stroke="#313233" stroke-miterlimit="10" stroke-linecap="round" stroke-linejoin="round"/>
<path d="M28.5166 31.8833C28.5166 33.2583 27.3916 34.3833 26.0166 34.3833C25.3333 34.3833 24.6999 34.1 24.2499 33.65C23.7999 33.2 23.5166 32.5667 23.5166 31.8833" stroke="#313233" stroke-miterlimit="10"/>
<path d="M32.1168 64.075L31.2834 62.6917C31.1084 62.3833 30.9501 61.8 30.9501 61.4583V59.35C30.9501 57.3917 29.8001 55.7 28.1418 54.9083C27.7084 54.1417 26.9084 53.6667 25.9918 53.6667C25.0834 53.6667 24.2668 54.1583 23.8334 54.9333C22.2084 55.7417 21.0834 57.4167 21.0834 59.35V61.4583C21.0834 61.8 20.9251 62.3833 20.7501 62.6833L19.9084 64.075C19.5751 64.6333 19.5001 65.25 19.7084 65.8167C19.9084 66.375 20.3834 66.8083 21.0001 67.0167C22.6168 67.5667 24.3168 67.8333 26.0168 67.8333C27.7168 67.8333 29.4168 67.5667 31.0334 67.025C31.6168 66.8333 32.0668 66.3917 32.2834 65.8167C32.5001 65.2417 32.4418 64.6083 32.1168 64.075Z" fill="#313233"/>
<path d="M28.3582 68.675C28.0082 69.6417 27.0832 70.3333 25.9999 70.3333C25.3416 70.3333 24.6916 70.0667 24.2332 69.5917C23.9666 69.3417 23.7666 69.0083 23.6499 68.6667C23.7582 68.6833 23.8666 68.6917 23.9832 68.7083C24.1749 68.7333 24.3749 68.7583 24.5749 68.775C25.0499 68.8167 25.5332 68.8417 26.0166 68.8417C26.4916 68.8417 26.9666 68.8167 27.4332 68.775C27.6082 68.7583 27.7832 68.75 27.9499 68.725C28.0832 68.7083 28.2166 68.6917 28.3582 68.675Z" fill="#313233"/>
<rect x="0.5" y="0.5" width="51" height="87" rx="4.5" stroke="#9747FF" stroke-dasharray="10 5"/>
</svg>
