<svg width="52" height="88" viewBox="0 0 52 88" fill="none" xmlns="http://www.w3.org/2000/svg">
<path d="M33.6953 21.6797C33.6088 21.5374 33.4879 21.4192 33.3438 21.3359L26.4688 17.4609C26.3272 17.3843 26.1688 17.3442 26.0078 17.3442C25.8469 17.3442 25.6884 17.3843 25.5469 17.4609L18.6719 21.3281C18.5277 21.4114 18.4068 21.5296 18.3203 21.6719C18.2399 21.8151 18.1969 21.9763 18.1953 22.1406V29.8437C18.1962 30.0102 18.2407 30.1735 18.3243 30.3174C18.4079 30.4613 18.5277 30.5808 18.6719 30.664L25.5469 34.5312C25.6803 34.607 25.8309 34.6474 25.9844 34.6484H26.0312C26.1838 34.641 26.3329 34.6011 26.4688 34.5312L33.3438 30.664C33.4895 30.5827 33.6107 30.4636 33.6945 30.3193C33.7784 30.1749 33.8218 30.0107 33.8203 29.8437V22.1484C33.8187 21.9841 33.7757 21.8229 33.6953 21.6797ZM25.8594 18.0078C25.905 17.9829 25.9559 17.9695 26.0078 17.9687C26.0622 17.9698 26.1156 17.9831 26.1641 18.0078L32.875 21.7812L29.8516 23.5L22.8984 19.6719L25.8594 18.0078ZM26.0781 25.6406L19.1484 21.7812L22.2578 20.0312L29.2109 23.8672L26.0781 25.6406ZM18.9844 30.125C18.9344 30.099 18.8927 30.0597 18.8637 30.0114C18.8348 29.9632 18.8197 29.9078 18.8203 29.8515V22.3125L25.7656 26.1797L25.7031 33.9062L18.9844 30.125ZM33.0391 30.125L26.3281 33.8984L26.3906 26.1797L29.5234 24.4062V27.914C29.5234 27.9969 29.5564 28.0764 29.615 28.135C29.6736 28.1936 29.7531 28.2265 29.8359 28.2265C29.9188 28.2265 29.9983 28.1936 30.0569 28.135C30.1155 28.0764 30.1484 27.9969 30.1484 27.914V24.0469L33.1953 22.3203V29.8515C33.1958 29.9069 33.1816 29.9613 33.1542 30.0094C33.1267 30.0574 33.087 30.0973 33.0391 30.125Z" fill="#313233"/>
<path d="M33.9688 57.5312H33.961C33.8488 57.341 33.6902 57.1824 33.5001 57.0703L26.6251 53.1874C26.4374 53.0835 26.2263 53.0289 26.0118 53.0289C25.7972 53.0289 25.5862 53.0835 25.3985 53.1874L18.5235 57.0546C18.3294 57.1643 18.1677 57.3233 18.0547 57.5156C18.0547 57.5166 18.0545 57.5176 18.0541 57.5186C18.0538 57.5195 18.0532 57.5204 18.0525 57.5211C18.0517 57.5218 18.0509 57.5224 18.0499 57.5228C18.049 57.5232 18.048 57.5234 18.0469 57.5234V57.539C17.9375 57.7233 17.8808 57.9341 17.8829 58.1484V65.8515C17.8833 66.0742 17.9428 66.2928 18.0553 66.485C18.1679 66.6771 18.3294 66.836 18.5235 66.9453L25.3985 70.8124C25.5716 70.9069 25.764 70.9603 25.961 70.9687H26.0704C26.2647 70.9591 26.4543 70.9057 26.6251 70.8124L33.5001 66.9453C33.6921 66.8344 33.8517 66.675 33.9627 66.483C34.0738 66.2911 34.1325 66.0733 34.1329 65.8515V58.1484C34.134 57.9317 34.0774 57.7187 33.9688 57.5312ZM26.0079 54.2812L32.2422 57.7812L29.8438 59.1406L23.5469 55.664L26.0079 54.2812ZM26.0782 61.2812L19.7891 57.7812L22.2657 56.3906L28.5704 59.8671L26.0782 61.2812ZM26.6407 69.3671L26.7032 62.3671L29.211 60.9374V63.914C29.211 64.0798 29.2768 64.2387 29.3941 64.356C29.5113 64.4732 29.6702 64.539 29.836 64.539C30.0018 64.539 30.1607 64.4732 30.2779 64.356C30.3951 64.2387 30.461 64.0798 30.461 63.914V60.2265L32.8829 58.8515V65.8515L26.6407 69.3671Z" fill="#313233"/>
<rect x="0.5" y="0.5" width="51" height="87" rx="4.5" stroke="#9747FF" stroke-dasharray="10 5"/>
</svg>
