<svg width="52" height="88" viewBox="0 0 52 88" fill="none" xmlns="http://www.w3.org/2000/svg">
<path d="M30.9999 21.9667C30.9499 21.9583 30.8916 21.9583 30.8416 21.9667C29.6916 21.925 28.7749 20.9833 28.7749 19.8167C28.7749 18.625 29.7332 17.6667 30.9249 17.6667C32.1166 17.6667 33.0749 18.6333 33.0749 19.8167C33.0666 20.9833 32.1499 21.925 30.9999 21.9667Z" stroke="#313233" stroke-linecap="round" stroke-linejoin="round"/>
<path d="M30.1415 28.0334C31.2831 28.225 32.5415 28.025 33.4248 27.4334C34.5998 26.65 34.5998 25.3667 33.4248 24.5834C32.5331 23.9917 31.2581 23.7917 30.1165 23.9917" stroke="#313233" stroke-linecap="round" stroke-linejoin="round"/>
<path d="M20.9749 21.9667C21.0249 21.9583 21.0832 21.9583 21.1332 21.9667C22.2832 21.925 23.1999 20.9833 23.1999 19.8167C23.1999 18.625 22.2416 17.6667 21.0499 17.6667C19.8582 17.6667 18.8999 18.6333 18.8999 19.8167C18.9082 20.9833 19.8249 21.925 20.9749 21.9667Z" stroke="#313233" stroke-linecap="round" stroke-linejoin="round"/>
<path d="M21.8333 28.0334C20.6916 28.225 19.4333 28.025 18.55 27.4334C17.375 26.65 17.375 25.3667 18.55 24.5834C19.4416 23.9917 20.7166 23.7917 21.8583 23.9917" stroke="#313233" stroke-linecap="round" stroke-linejoin="round"/>
<path d="M26.0001 28.1917C25.9501 28.1833 25.8918 28.1833 25.8418 28.1917C24.6918 28.15 23.7751 27.2083 23.7751 26.0417C23.7751 24.85 24.7335 23.8917 25.9251 23.8917C27.1168 23.8917 28.0751 24.8583 28.0751 26.0417C28.0668 27.2083 27.1501 28.1583 26.0001 28.1917Z" stroke="#313233" stroke-linecap="round" stroke-linejoin="round"/>
<path d="M23.5751 30.8167C22.4001 31.6 22.4001 32.8833 23.5751 33.6667C24.9084 34.5583 27.0918 34.5583 28.4251 33.6667C29.6001 32.8833 29.6001 31.6 28.4251 30.8167C27.1001 29.9333 24.9084 29.9333 23.5751 30.8167Z" stroke="#313233" stroke-linecap="round" stroke-linejoin="round"/>
<path d="M30.6084 58.475C30.55 58.4667 30.4917 58.4667 30.4334 58.475C29.1417 58.4333 28.1167 57.375 28.1167 56.075C28.1167 54.75 29.1917 53.6667 30.525 53.6667C31.85 53.6667 32.9334 54.7417 32.9334 56.075C32.925 57.375 31.9 58.4333 30.6084 58.475Z" fill="#313233"/>
<path d="M33.3249 64.25C32.3916 64.875 31.0833 65.1083 29.8749 64.95C30.1916 64.2667 30.3583 63.5083 30.3666 62.7083C30.3666 61.875 30.1833 61.0833 29.8333 60.3917C31.0666 60.225 32.3749 60.4583 33.3166 61.0833C34.6333 61.95 34.6333 63.375 33.3249 64.25Z" fill="#313233"/>
<path d="M21.3667 58.475C21.425 58.4667 21.4834 58.4667 21.5417 58.475C22.8334 58.4333 23.8584 57.375 23.8584 56.075C23.8584 54.7417 22.7834 53.6667 21.45 53.6667C20.125 53.6667 19.05 54.7417 19.05 56.075C19.05 57.375 20.075 58.4333 21.3667 58.475Z" fill="#313233"/>
<path d="M21.4584 62.7083C21.4584 63.5167 21.6334 64.2833 21.9501 64.975C20.7751 65.1 19.5501 64.85 18.6501 64.2583C17.3334 63.3833 17.3334 61.9583 18.6501 61.0833C19.5418 60.4833 20.8001 60.2417 21.9834 60.375C21.6418 61.075 21.4584 61.8667 21.4584 62.7083Z" fill="#313233"/>
<path d="M26.1 65.225C26.0333 65.2167 25.9583 65.2167 25.8833 65.225C24.35 65.175 23.125 63.9167 23.125 62.3667C23.1333 60.7833 24.4083 59.5 26 59.5C27.5833 59.5 28.8667 60.7833 28.8667 62.3667C28.8583 63.9167 27.6417 65.175 26.1 65.225Z" fill="#313233"/>
<path d="M23.3917 66.95C22.1334 67.7917 22.1334 69.175 23.3917 70.0083C24.8251 70.9667 27.1751 70.9667 28.6084 70.0083C29.8667 69.1667 29.8667 67.7833 28.6084 66.95C27.1834 65.9917 24.8334 65.9917 23.3917 66.95Z" fill="#313233"/>
<rect x="0.5" y="0.5" width="51" height="87" rx="4.5" stroke="#9747FF" stroke-dasharray="10 5"/>
</svg>
