<svg width="20" height="20" viewBox="0 0 20 20" fill="none" xmlns="http://www.w3.org/2000/svg">
<path d="M12.7907 20H7.2093C2.15814 20 0 17.8419 0 12.7907V7.2093C0 2.15814 2.15814 0 7.2093 0H11.8605C12.2419 0 12.5581 0.316279 12.5581 0.697674C12.5581 1.07907 12.2419 1.39535 11.8605 1.39535H7.2093C2.92093 1.39535 1.39535 2.92093 1.39535 7.2093V12.7907C1.39535 17.0791 2.92093 18.6047 7.2093 18.6047H12.7907C17.0791 18.6047 18.6047 17.0791 18.6047 12.7907V8.13953C18.6047 7.75814 18.9209 7.44186 19.3023 7.44186C19.6837 7.44186 20 7.75814 20 8.13953V12.7907C20 17.8419 17.8419 20 12.7907 20Z" fill="#313233"/>
<path d="M19.3434 8.33333H15.8341C12.8336 8.33333 11.6667 7.16649 11.6667 4.16602V0.656702C11.6667 0.393503 11.8247 0.147851 12.0703 0.0513447C12.316 -0.0539348 12.5967 0.00747829 12.7897 0.191717L19.8084 7.21035C19.9926 7.39459 20.054 7.68411 19.9487 7.92976C19.8435 8.17541 19.6066 8.33333 19.3434 8.33333ZM12.9827 2.24467V4.16602C12.9827 6.42953 13.5706 7.01734 15.8341 7.01734H17.7554L12.9827 2.24467Z" fill="#313233"/>
<path d="M12.7083 11.875H6.04159C5.58603 11.875 5.20825 11.4973 5.20825 11.0417C5.20825 10.5862 5.58603 10.2084 6.04159 10.2084H12.7083C13.1638 10.2084 13.5416 10.5862 13.5416 11.0417C13.5416 11.4973 13.1638 11.875 12.7083 11.875Z" fill="#313233"/>
<path d="M10.2461 15.1325H6.00371C5.56886 15.1325 5.20825 14.7719 5.20825 14.3371C5.20825 13.9022 5.56886 13.5416 6.00371 13.5416H10.2461C10.681 13.5416 11.0416 13.9022 11.0416 14.3371C11.0416 14.7719 10.681 15.1325 10.2461 15.1325Z" fill="#313233"/>
</svg>
