<svg width="52" height="88" viewBox="0 0 52 88" fill="none" xmlns="http://www.w3.org/2000/svg">
<path d="M22.6667 34.5999C22.4334 34.5999 22.1917 34.5416 21.9751 34.4249C21.5001 34.1749 21.2084 33.6749 21.2084 33.1416V31.9583C18.6917 31.7 17.0417 29.8499 17.0417 27.1999V22.2C17.0417 19.3333 18.9667 17.4083 21.8334 17.4083H30.1667C33.0334 17.4083 34.9584 19.3333 34.9584 22.2V27.1999C34.9584 30.0666 33.0334 31.9916 30.1667 31.9916H27.0251L23.4751 34.3583C23.2334 34.5166 22.9501 34.5999 22.6667 34.5999ZM21.8334 18.65C19.6834 18.65 18.2917 20.0416 18.2917 22.1916V27.1917C18.2917 29.3417 19.6834 30.7333 21.8334 30.7333C22.1751 30.7333 22.4584 31.0167 22.4584 31.3583V33.1333C22.4584 33.2417 22.5251 33.2916 22.5668 33.3167C22.6084 33.3417 22.6918 33.3666 22.7834 33.3083L26.4918 30.8417C26.5918 30.775 26.7168 30.7333 26.8418 30.7333H30.1751C32.3251 30.7333 33.7168 29.3417 33.7168 27.1917V22.1916C33.7168 20.0416 32.3251 18.65 30.1751 18.65H21.8334Z" fill="#313233"/>
<path d="M25.9998 26.0916C25.6581 26.0916 25.3748 25.8083 25.3748 25.4666V25.2917C25.3748 24.325 26.0831 23.85 26.3498 23.6667C26.6581 23.4583 26.7581 23.3167 26.7581 23.1C26.7581 22.6833 26.4164 22.3416 25.9998 22.3416C25.5831 22.3416 25.2415 22.6833 25.2415 23.1C25.2415 23.4417 24.9581 23.725 24.6165 23.725C24.2748 23.725 23.9915 23.4417 23.9915 23.1C23.9915 21.9917 24.8914 21.0916 25.9998 21.0916C27.1081 21.0916 28.0081 21.9917 28.0081 23.1C28.0081 24.05 27.3081 24.525 27.0498 24.7C26.7248 24.9167 26.6248 25.0583 26.6248 25.2917V25.4666C26.6248 25.8166 26.3414 26.0916 25.9998 26.0916Z" fill="#313233"/>
<path d="M26 28.1667C25.65 28.1667 25.375 27.8833 25.375 27.5417C25.375 27.2 25.6583 26.9167 26 26.9167C26.3417 26.9167 26.625 27.2 26.625 27.5417C26.625 27.8833 26.35 28.1667 26 28.1667Z" fill="#313233"/>
<path d="M30.1667 54.025H21.8334C19.3334 54.025 17.6667 55.6917 17.6667 58.1917V63.1917C17.6667 65.6917 19.3334 67.3583 21.8334 67.3583V69.1333C21.8334 69.8 22.5751 70.2 23.1251 69.825L26.8334 67.3583H30.1667C32.6667 67.3583 34.3334 65.6917 34.3334 63.1917V58.1917C34.3334 55.6917 32.6667 54.025 30.1667 54.025ZM26.0001 64.1667C25.6501 64.1667 25.3751 63.8833 25.3751 63.5417C25.3751 63.2 25.6501 62.9167 26.0001 62.9167C26.3501 62.9167 26.6251 63.2 26.6251 63.5417C26.6251 63.8833 26.3501 64.1667 26.0001 64.1667ZM27.0501 60.7083C26.7251 60.925 26.6251 61.0667 26.6251 61.3V61.475C26.6251 61.8167 26.3417 62.1 26.0001 62.1C25.6584 62.1 25.3751 61.8167 25.3751 61.475V61.3C25.3751 60.3333 26.0834 59.8583 26.3501 59.675C26.6584 59.4667 26.7584 59.325 26.7584 59.1083C26.7584 58.6917 26.4167 58.35 26.0001 58.35C25.5834 58.35 25.2417 58.6917 25.2417 59.1083C25.2417 59.45 24.9584 59.7333 24.6167 59.7333C24.2751 59.7333 23.9917 59.45 23.9917 59.1083C23.9917 58 24.8917 57.1 26.0001 57.1C27.1084 57.1 28.0084 58 28.0084 59.1083C28.0084 60.0583 27.3084 60.5333 27.0501 60.7083Z" fill="#313233"/>
<rect x="0.5" y="0.5" width="51" height="87" rx="4.5" stroke="#9747FF" stroke-dasharray="10 5"/>
</svg>
