<svg width="52" height="88" viewBox="0 0 52 88" fill="none" xmlns="http://www.w3.org/2000/svg">
<path d="M25.9999 27.6667C26.9204 27.6667 27.6666 26.9205 27.6666 26C27.6666 25.0796 26.9204 24.3334 25.9999 24.3334C25.0794 24.3334 24.3333 25.0796 24.3333 26C24.3333 26.9205 25.0794 27.6667 25.9999 27.6667Z" stroke="#313233" stroke-linecap="round" stroke-linejoin="round"/>
<path d="M32.6667 31C33.7167 29.6083 34.3334 27.875 34.3334 26C34.3334 24.125 33.7167 22.3917 32.6667 21" stroke="#313233" stroke-linecap="round" stroke-linejoin="round"/>
<path d="M19.3334 21C18.2834 22.3917 17.6667 24.125 17.6667 26C17.6667 27.875 18.2834 29.6083 19.3334 31" stroke="#313233" stroke-linecap="round" stroke-linejoin="round"/>
<path d="M30 29C30.625 28.1667 31 27.125 31 26C31 24.875 30.625 23.8333 30 23" stroke="#313233" stroke-linecap="round" stroke-linejoin="round"/>
<path d="M22 23C21.375 23.8333 21 24.875 21 26C21 27.125 21.375 28.1667 22 29" stroke="#313233" stroke-linecap="round" stroke-linejoin="round"/>
<path d="M25.9999 63.9834C27.0953 63.9834 27.9833 63.0954 27.9833 62.0001C27.9833 60.9047 27.0953 60.0167 25.9999 60.0167C24.9046 60.0167 24.0166 60.9047 24.0166 62.0001C24.0166 63.0954 24.9046 63.9834 25.9999 63.9834Z" fill="#313233"/>
<path d="M32.6667 67.625C32.5334 67.625 32.4084 67.5833 32.2917 67.5C32.0167 67.2916 31.9584 66.9 32.1667 66.625C33.1751 65.2833 33.7084 63.6833 33.7084 62C33.7084 60.3166 33.1751 58.7166 32.1667 57.375C31.9584 57.1 32.0167 56.7083 32.2917 56.5C32.5667 56.2916 32.9584 56.35 33.1667 56.625C34.3417 58.1833 34.9584 60.0416 34.9584 62C34.9584 63.9583 34.3417 65.8167 33.1667 67.375C33.0417 67.5416 32.8584 67.625 32.6667 67.625Z" fill="#313233"/>
<path d="M19.3334 67.625C19.1417 67.625 18.9584 67.5416 18.8334 67.375C17.6584 65.8167 17.0417 63.9583 17.0417 62C17.0417 60.0416 17.6584 58.1833 18.8334 56.625C19.0417 56.35 19.4334 56.2916 19.7084 56.5C19.9834 56.7083 20.0417 57.1 19.8334 57.375C18.8251 58.7166 18.2917 60.3166 18.2917 62C18.2917 63.6833 18.8251 65.2833 19.8334 66.625C20.0417 66.9 19.9834 67.2916 19.7084 67.5C19.6001 67.5833 19.4667 67.625 19.3334 67.625Z" fill="#313233"/>
<path d="M30 65.625C29.8666 65.625 29.7416 65.5833 29.625 65.5C29.35 65.2917 29.2917 64.9 29.5 64.625C30.075 63.8666 30.375 62.9583 30.375 62C30.375 61.0416 30.075 60.1333 29.5 59.375C29.2917 59.1 29.35 58.7083 29.625 58.5C29.9 58.2917 30.2916 58.35 30.5 58.625C31.2333 59.6083 31.625 60.775 31.625 62C31.625 63.225 31.2333 64.4 30.5 65.375C30.375 65.5416 30.1916 65.625 30 65.625Z" fill="#313233"/>
<path d="M22 65.625C21.8083 65.625 21.625 65.5416 21.5 65.375C20.7667 64.4 20.375 63.225 20.375 62C20.375 60.775 20.7667 59.6 21.5 58.625C21.7083 58.35 22.1 58.2917 22.375 58.5C22.65 58.7083 22.7083 59.1 22.5 59.375C21.925 60.1333 21.625 61.0416 21.625 62C21.625 62.9583 21.925 63.8666 22.5 64.625C22.7083 64.9 22.65 65.2917 22.375 65.5C22.2667 65.5833 22.1333 65.625 22 65.625Z" fill="#313233"/>
<rect x="0.5" y="0.5" width="51" height="87" rx="4.5" stroke="#9747FF" stroke-dasharray="10 5"/>
</svg>
