<svg width="52" height="88" viewBox="0 0 52 88" fill="none" xmlns="http://www.w3.org/2000/svg">
<path d="M28.9833 26C28.9833 27.65 27.6499 28.9833 25.9999 28.9833C24.3499 28.9833 23.0166 27.65 23.0166 26C23.0166 24.35 24.3499 23.0167 25.9999 23.0167C27.6499 23.0167 28.9833 24.35 28.9833 26Z" stroke="#313233" stroke-linecap="round" stroke-linejoin="round"/>
<path d="M26.0001 32.8916C28.9418 32.8916 31.6834 31.1583 33.5918 28.1583C34.3418 26.9833 34.3418 25.0083 33.5918 23.8333C31.6834 20.8333 28.9418 19.1 26.0001 19.1C23.0584 19.1 20.3168 20.8333 18.4084 23.8333C17.6584 25.0083 17.6584 26.9833 18.4084 28.1583C20.3168 31.1583 23.0584 32.8916 26.0001 32.8916Z" stroke="#313233" stroke-linecap="round" stroke-linejoin="round"/>
<path d="M33.7084 59.625C31.7834 56.6 28.9667 54.8583 26.0001 54.8583C24.5167 54.8583 23.0751 55.2917 21.7584 56.1C20.4417 56.9167 19.2584 58.1083 18.2917 59.625C17.4584 60.9333 17.4584 63.0583 18.2917 64.3667C20.2167 67.4 23.0334 69.1333 26.0001 69.1333C27.4834 69.1333 28.9251 68.7 30.2417 67.8917C31.5584 67.075 32.7417 65.8833 33.7084 64.3667C34.5417 63.0667 34.5417 60.9333 33.7084 59.625ZM26.0001 65.3667C24.1334 65.3667 22.6334 63.8583 22.6334 62C22.6334 60.1417 24.1334 58.6333 26.0001 58.6333C27.8667 58.6333 29.3667 60.1417 29.3667 62C29.3667 63.8583 27.8667 65.3667 26.0001 65.3667Z" fill="#313233"/>
<path d="M26 59.6166C24.6917 59.6166 23.625 60.6833 23.625 62C23.625 63.3083 24.6917 64.375 26 64.375C27.3083 64.375 28.3833 63.3083 28.3833 62C28.3833 60.6916 27.3083 59.6166 26 59.6166Z" fill="#313233"/>
<rect x="0.5" y="0.5" width="51" height="87" rx="4.5" stroke="#9747FF" stroke-dasharray="10 5"/>
</svg>
