<svg width="52" height="88" viewBox="0 0 52 88" fill="none" xmlns="http://www.w3.org/2000/svg">
<path d="M23.5001 34.3333H28.5001C32.6667 34.3333 34.3334 32.6667 34.3334 28.5V23.5C34.3334 19.3333 32.6667 17.6667 28.5001 17.6667H23.5001C19.3334 17.6667 17.6667 19.3333 17.6667 23.5V28.5C17.6667 32.6667 19.3334 34.3333 23.5001 34.3333Z" stroke="#313233" stroke-linecap="round" stroke-linejoin="round"/>
<path d="M21.8333 23.2917C22.6666 22.4583 24.0249 22.4583 24.8666 23.2917" stroke="#313233" stroke-miterlimit="10" stroke-linecap="round" stroke-linejoin="round"/>
<path d="M27.1333 23.2917C27.9666 22.4583 29.325 22.4583 30.1666 23.2917" stroke="#313233" stroke-miterlimit="10" stroke-linecap="round" stroke-linejoin="round"/>
<path d="M23 30.75H29C29.4167 30.75 29.75 30.4167 29.75 30C29.75 27.925 28.075 26.25 26 26.25C23.925 26.25 22.25 27.925 22.25 30C22.25 30.4167 22.5833 30.75 23 30.75Z" stroke="#313233" stroke-miterlimit="10" stroke-linecap="round" stroke-linejoin="round"/>
<path d="M29.4917 53.6667H22.5084C19.4751 53.6667 17.6667 55.475 17.6667 58.5083V65.4833C17.6667 68.525 19.4751 70.3333 22.5084 70.3333H29.4834C32.5167 70.3333 34.3251 68.525 34.3251 65.4917V58.5083C34.3334 55.475 32.5251 53.6667 29.4917 53.6667ZM21.3917 59.7333C21.1501 59.4917 21.1501 59.0917 21.3917 58.85C22.4667 57.775 24.2251 57.775 25.3084 58.85C25.5501 59.0917 25.5501 59.4917 25.3084 59.7333C25.1834 59.8583 25.0251 59.9167 24.8667 59.9167C24.7084 59.9167 24.5501 59.8583 24.4251 59.7333C23.8334 59.1417 22.8667 59.1417 22.2751 59.7333C22.0334 59.9833 21.6334 59.9833 21.3917 59.7333ZM29.0001 67.0667H23.0001C22.4167 67.0667 21.9417 66.5917 21.9417 66C21.9417 63.7583 23.7667 61.9333 26.0084 61.9333C28.2501 61.9333 30.0751 63.7583 30.0751 66C30.0667 66.5833 29.5834 67.0667 29.0001 67.0667ZM30.6084 59.7333C30.3667 59.975 29.9667 59.975 29.7251 59.7333C29.1334 59.1417 28.1667 59.1417 27.5751 59.7333C27.4501 59.8583 27.2917 59.9167 27.1334 59.9167C26.9751 59.9167 26.8167 59.8583 26.6917 59.7333C26.4501 59.4917 26.4501 59.0917 26.6917 58.85C27.7667 57.775 29.5251 57.775 30.6084 58.85C30.8501 59.1 30.8501 59.4917 30.6084 59.7333Z" fill="#313233"/>
<rect x="0.5" y="0.5" width="51" height="87" rx="4.5" stroke="#9747FF" stroke-dasharray="10 5"/>
</svg>
