<svg width="52" height="88" viewBox="0 0 52 88" fill="none" xmlns="http://www.w3.org/2000/svg">
<path d="M24.3334 30.125H21.1751C18.3667 30.125 17.6667 29.425 17.6667 26.6167V21.6167C17.6667 18.8083 18.3667 18.1083 21.1751 18.1083H29.9501C32.7584 18.1083 33.4584 18.8083 33.4584 21.6167" stroke="#313233" stroke-linecap="round" stroke-linejoin="round"/>
<path d="M24.3333 33.8917V30.125" stroke="#313233" stroke-linecap="round" stroke-linejoin="round"/>
<path d="M17.6667 26.7917H24.3334" stroke="#313233" stroke-linecap="round" stroke-linejoin="round"/>
<path d="M21.6167 33.8917H24.3334" stroke="#313233" stroke-linecap="round" stroke-linejoin="round"/>
<path d="M34.3333 26.6667V31.425C34.3333 33.4 33.8417 33.8917 31.8667 33.8917H28.9083C26.9333 33.8917 26.4417 33.4 26.4417 31.425V26.6667C26.4417 24.6917 26.9333 24.2 28.9083 24.2H31.8667C33.8417 24.2 34.3333 24.6917 34.3333 26.6667Z" stroke="#313233" stroke-linecap="round" stroke-linejoin="round"/>
<path d="M30.3703 31.2083H30.3778" stroke="#313233" stroke-linecap="round" stroke-linejoin="round"/>
<path d="M33.4917 60.0917C33.2083 59.975 32.8333 59.9167 32.3667 59.9167H27.9667C26.5167 59.9167 26 60.4333 26 61.9V68.35C26 68.8333 26.0583 69.2083 26.1833 69.5C26.4417 70.1 26.9917 70.3333 27.9667 70.3333H32.3667C33.8167 70.3333 34.3333 69.8083 34.3333 68.35V61.9C34.3333 60.9083 34.1 60.35 33.4917 60.0917ZM31 68.4583H29.3333C29.3167 68.4583 29.2917 68.4583 29.275 68.45C29.15 68.4417 29.0417 68.4 28.95 68.3167C28.8 68.2083 28.7083 68.0333 28.7083 67.8333C28.7083 67.4917 28.9917 67.2083 29.3333 67.2083H31C31.3417 67.2083 31.625 67.4917 31.625 67.8333C31.625 68.175 31.3417 68.4583 31 68.4583Z" fill="#313233"/>
<path d="M33.4917 57.1583V57.8333C33.4917 58.2917 33.1167 58.6667 32.6584 58.6667H27.9667C25.8334 58.6667 24.75 59.7583 24.75 61.9V69.5C24.75 69.9583 24.375 70.3333 23.9167 70.3333H22.2917C21.9584 70.3333 21.6917 70.0667 21.6917 69.7417C21.6917 69.4083 21.9584 69.15 22.2917 69.15H23.9167V65.9583H21C19.15 65.8667 17.675 64.3417 17.675 62.4667V57.1583C17.675 55.2333 19.2417 53.6667 21.175 53.6667H30C31.925 53.6667 33.4917 55.2333 33.4917 57.1583Z" fill="#313233"/>
<rect x="0.5" y="0.5" width="51" height="87" rx="4.5" stroke="#9747FF" stroke-dasharray="10 5"/>
</svg>
