<svg width="52" height="88" viewBox="0 0 52 88" fill="none" xmlns="http://www.w3.org/2000/svg">
<path d="M25.1667 32.6666C29.3089 32.6666 32.6667 29.3088 32.6667 25.1666C32.6667 21.0245 29.3089 17.6666 25.1667 17.6666C21.0246 17.6666 17.6667 21.0245 17.6667 25.1666C17.6667 29.3088 21.0246 32.6666 25.1667 32.6666Z" stroke="#313233" stroke-linecap="round" stroke-linejoin="round"/>
<path d="M31.775 33.2415C32.2167 34.5748 33.225 34.7081 34 33.5415C34.7084 32.4748 34.2417 31.5998 32.9584 31.5998C32.0084 31.5915 31.475 32.3331 31.775 33.2415Z" stroke="#313233" stroke-linecap="round" stroke-linejoin="round"/>
<path d="M25.1751 68.6833C29.3218 68.6833 32.6834 65.3217 32.6834 61.175C32.6834 57.0282 29.3218 53.6666 25.1751 53.6666C21.0283 53.6666 17.6667 57.0282 17.6667 61.175C17.6667 65.3217 21.0283 68.6833 25.1751 68.6833Z" fill="#313233"/>
<path d="M34.325 67.7917C34.05 67.2833 33.4666 67 32.6833 67C32.0916 67 31.5833 67.2417 31.2833 67.6583C30.9833 68.075 30.9166 68.6333 31.1 69.1917C31.4583 70.275 32.0833 70.5167 32.425 70.5583C32.475 70.5667 32.525 70.5667 32.5833 70.5667C32.95 70.5667 33.5166 70.4083 34.0666 69.5833C34.5083 68.9417 34.5916 68.3 34.325 67.7917Z" fill="#313233"/>
<rect x="0.5" y="0.5" width="51" height="87" rx="4.5" stroke="#9747FF" stroke-dasharray="10 5"/>
</svg>
