<svg width="52" height="88" viewBox="0 0 52 88" fill="none" xmlns="http://www.w3.org/2000/svg">
<path d="M33.425 25.2666C33.425 29.3416 30.4666 33.1583 26.425 34.275C26.15 34.35 25.8499 34.35 25.5749 34.275C21.5333 33.1583 18.575 29.3416 18.575 25.2666V21.6083C18.575 20.925 19.0916 20.15 19.7333 19.8916L24.3749 17.9917C25.4166 17.5667 26.5916 17.5667 27.6333 17.9917L32.275 19.8916C32.9083 20.15 33.4333 20.925 33.4333 21.6083L33.425 25.2666Z" stroke="#313233" stroke-linecap="round" stroke-linejoin="round"/>
<path d="M33.0084 57.8V59.325C33.0084 59.8583 32.7584 60.3583 32.325 60.6667L23.1584 67.3833C22.5667 67.8167 21.7584 67.8167 21.175 67.375L19.975 66.475C19.4334 66.0667 18.9917 65.1833 18.9917 64.5083V57.8C18.9917 56.8667 19.7084 55.8333 20.5834 55.5083L25.1417 53.8C25.6167 53.625 26.3834 53.625 26.8584 53.8L31.4167 55.5083C32.2917 55.8333 33.0084 56.8667 33.0084 57.8Z" fill="#313233"/>
<path d="M31.6833 62.2833C32.2333 61.8833 33.0083 62.275 33.0083 62.9583V64.525C33.0083 65.2 32.5666 66.075 32.0249 66.4833L27.4666 69.8917C27.0666 70.1833 26.5333 70.3333 25.9999 70.3333C25.4666 70.3333 24.9333 70.1833 24.5333 69.8833L23.8416 69.3667C23.3916 69.0333 23.3916 68.3583 23.8499 68.025L31.6833 62.2833Z" fill="#313233"/>
<rect x="0.5" y="0.5" width="51" height="87" rx="4.5" stroke="#9747FF" stroke-dasharray="10 5"/>
</svg>
