<svg width="52" height="88" viewBox="0 0 52 88" fill="none" xmlns="http://www.w3.org/2000/svg">
<path d="M24.7416 17.8583L20.5832 19.425C19.6249 19.7833 18.8416 20.9167 18.8416 21.9333V28.125C18.8416 29.1083 19.4916 30.4 20.2832 30.9917L23.8666 33.6667C25.0416 34.55 26.9749 34.55 28.1499 33.6667L31.7332 30.9917C32.5249 30.4 33.1749 29.1083 33.1749 28.125V21.9333C33.1749 20.9083 32.3916 19.775 31.4332 19.4167L27.2749 17.8583C26.5666 17.6 25.4332 17.6 24.7416 17.8583Z" stroke="#313233" stroke-linecap="round" stroke-linejoin="round"/>
<path d="M23.5417 25.8917L24.8834 27.2333L28.4667 23.65" stroke="#313233" stroke-linecap="round" stroke-linejoin="round"/>
<path d="M31.4499 55.4333L26.8666 53.7167C26.3916 53.5417 25.6166 53.5417 25.1416 53.7167L20.5583 55.4333C19.6749 55.7667 18.9583 56.8 18.9583 57.7417V64.4917C18.9583 65.1667 19.3999 66.0583 19.9416 66.4583L24.5249 69.8833C25.3333 70.4917 26.6583 70.4917 27.4666 69.8833L32.0499 66.4583C32.5916 66.05 33.0333 65.1667 33.0333 64.4917V57.7417C33.0416 56.8 32.3249 55.7667 31.4499 55.4333ZM28.8999 60.1L25.3166 63.6833C25.1916 63.8083 25.0333 63.8667 24.8749 63.8667C24.7166 63.8667 24.5583 63.8083 24.4333 63.6833L23.0999 62.3333C22.8583 62.0917 22.8583 61.6917 23.0999 61.45C23.3416 61.2083 23.7416 61.2083 23.9833 61.45L24.8833 62.35L28.0249 59.2083C28.2666 58.9667 28.6666 58.9667 28.9083 59.2083C29.1499 59.45 29.1499 59.8583 28.8999 60.1Z" fill="#313233"/>
<rect x="0.5" y="0.5" width="51" height="87" rx="4.5" stroke="#9747FF" stroke-dasharray="10 5"/>
</svg>
