<svg width="52" height="88" viewBox="0 0 52 88" fill="none" xmlns="http://www.w3.org/2000/svg">
<path d="M33.425 25.2666C33.425 29.3416 30.4666 33.1583 26.425 34.275C26.15 34.35 25.8499 34.35 25.5749 34.275C21.5333 33.1583 18.575 29.3416 18.575 25.2666V21.6083C18.575 20.925 19.0916 20.15 19.7333 19.8916L24.3749 17.9917C25.4166 17.5667 26.5916 17.5667 27.6333 17.9917L32.275 19.8916C32.9083 20.15 33.4333 20.925 33.4333 21.6083L33.425 25.2666Z" stroke="#313233" stroke-linecap="round" stroke-linejoin="round"/>
<path d="M25.9999 26.4167C26.9204 26.4167 27.6666 25.6705 27.6666 24.75C27.6666 23.8295 26.9204 23.0833 25.9999 23.0833C25.0794 23.0833 24.3333 23.8295 24.3333 24.75C24.3333 25.6705 25.0794 26.4167 25.9999 26.4167Z" stroke="#313233" stroke-miterlimit="10" stroke-linecap="round" stroke-linejoin="round"/>
<path d="M26 26.4167V28.9167" stroke="#313233" stroke-miterlimit="10" stroke-linecap="round" stroke-linejoin="round"/>
<path d="M33.425 61.2667V57.6083C33.425 56.925 32.9083 56.15 32.2666 55.8917L27.625 53.9917C26.5833 53.5667 25.4083 53.5667 24.3666 53.9917L19.725 55.8917C19.0916 56.15 18.575 56.925 18.575 57.6083V61.2667C18.575 65.3417 21.5333 69.1583 25.575 70.275C25.85 70.35 26.15 70.35 26.425 70.275C30.4666 69.1583 33.425 65.3417 33.425 61.2667ZM26.625 62.725V64.9167C26.625 65.2583 26.3416 65.5417 26 65.5417C25.6583 65.5417 25.375 65.2583 25.375 64.9167V62.725C24.5333 62.4583 23.9166 61.675 23.9166 60.75C23.9166 59.6 24.85 58.6667 26 58.6667C27.15 58.6667 28.0833 59.6 28.0833 60.75C28.0833 61.6833 27.4666 62.4583 26.625 62.725Z" fill="#313233"/>
<rect x="0.5" y="0.5" width="51" height="87" rx="4.5" stroke="#9747FF" stroke-dasharray="10 5"/>
</svg>
