<svg width="52" height="88" viewBox="0 0 52 88" fill="none" xmlns="http://www.w3.org/2000/svg">
<path d="M23.925 19.525L31.0583 23.0917C34.2583 24.6917 34.2583 27.3083 31.0583 28.9083L23.925 32.475C19.125 34.875 17.1666 32.9083 19.5666 28.1167L20.2916 26.675C20.475 26.3083 20.475 25.7 20.2916 25.3333L19.5666 23.8833C17.1666 19.0917 19.1333 17.125 23.925 19.525Z" stroke="#313233" stroke-linecap="round" stroke-linejoin="round"/>
<path d="M20.5334 26H25.0334" stroke="#313233" stroke-linecap="round" stroke-linejoin="round"/>
<path d="M31.0583 59.0917L23.925 55.525C19.1333 53.125 17.1666 55.0917 19.5666 59.8833L20.2916 61.3333C20.5 61.7583 20.5 62.25 20.2916 62.675L19.5666 64.1167C17.1666 68.9083 19.125 70.875 23.925 68.475L31.0583 64.9083C34.2583 63.3083 34.2583 60.6917 31.0583 59.0917ZM28.3666 62.625H23.8666C23.525 62.625 23.2416 62.3417 23.2416 62C23.2416 61.6583 23.525 61.375 23.8666 61.375H28.3666C28.7083 61.375 28.9916 61.6583 28.9916 62C28.9916 62.3417 28.7083 62.625 28.3666 62.625Z" fill="#313233"/>
<rect x="0.5" y="0.5" width="51" height="87" rx="4.5" stroke="#9747FF" stroke-dasharray="10 5"/>
</svg>
