<svg width="52" height="172" viewBox="0 0 52 172" fill="none" xmlns="http://www.w3.org/2000/svg">
<path d="M30.0833 26.8333H29.3333C28.8913 26.8333 28.4674 26.6577 28.1548 26.3452C27.8423 26.0326 27.6667 25.6087 27.6667 25.1667C27.6667 25.6087 27.4911 26.0326 27.1785 26.3452C26.866 26.6577 26.442 26.8333 26 26.8333C25.558 26.8333 25.134 26.6577 24.8215 26.3452C24.5089 26.0326 24.3333 25.6087 24.3333 25.1667C24.3333 25.6087 24.1577 26.0326 23.8452 26.3452C23.5326 26.6577 23.1087 26.8333 22.6667 26.8333H21.9167M20.5833 19.3333H23.0833M23.2642 33.5H28.7358C29.3012 33.5 29.8572 33.6438 30.3517 33.9179C30.8462 34.1919 31.2629 34.5873 31.5625 35.0667V35.0667C31.6014 35.1289 31.6696 35.1667 31.7429 35.1667H32.2936C32.9599 35.1667 33.5 34.6266 33.5 33.9603V18.8333C33.5 17.7288 32.6046 16.8333 31.5 16.8333H20.5C19.3954 16.8333 18.5 17.7288 18.5 18.8333V33.9603C18.5 34.6266 19.0401 35.1667 19.7064 35.1667H20.2571C20.3304 35.1667 20.3986 35.1289 20.4375 35.0667V35.0667C20.7371 34.5873 21.1538 34.1919 21.6483 33.9179C22.1428 33.6438 22.6988 33.5 23.2642 33.5ZM26 30.1667C24.8949 30.1667 23.8351 29.7277 23.0537 28.9463C22.2723 28.1649 21.8333 27.1051 21.8333 26C21.8333 24.8949 22.2723 23.8351 23.0537 23.0537C23.8351 22.2723 24.8949 21.8333 26 21.8333C27.1051 21.8333 28.1649 22.2723 28.9463 23.0537C29.7277 23.8351 30.1667 24.8949 30.1667 26C30.1667 27.1051 29.7277 28.1649 28.9463 28.9463C28.1649 29.7277 27.1051 30.1667 26 30.1667Z" stroke="#313233"/>
<path d="M23.5 61H29.7158C30.3076 61 30.8802 61.21 31.3317 61.5926C31.7832 61.9751 32.0844 62.5054 32.1817 63.0892L32.6625 65.9758L33.3375 70.03C33.3573 70.1493 33.351 70.2714 33.3189 70.388C33.2868 70.5045 33.2297 70.6127 33.1516 70.705C33.0735 70.7973 32.9762 70.8715 32.8666 70.9224C32.757 70.9733 32.6376 70.9998 32.5167 71H18.5C18.5 69.4529 19.1146 67.9692 20.2085 66.8752C21.3025 65.7812 22.7862 65.1667 24.3333 65.1667H32.5M26 68.5H26.0083" stroke="#313233" stroke-linecap="round" stroke-linejoin="round"/>
<path fill-rule="evenodd" clip-rule="evenodd" d="M25.1201 97.0417H26.8801C28.4118 97.0417 29.6251 97.0417 30.5743 97.1692C31.5509 97.3008 32.3418 97.5775 32.9659 98.2008C33.5893 98.825 33.8659 99.6158 33.9976 100.592C34.1018 101.366 34.1209 102.315 34.1243 103.467C34.1253 103.488 34.1253 103.508 34.1243 103.528L34.1251 104.287V106.88C34.1251 108.412 34.1251 109.625 33.9976 110.574C33.8659 111.551 33.5893 112.342 32.9659 112.966C32.5826 113.348 32.1376 113.6 31.6251 113.768V114.333C31.6251 114.499 31.5593 114.658 31.442 114.775C31.3248 114.892 31.1659 114.958 31.0001 114.958C30.8343 114.958 30.6754 114.892 30.5582 114.775C30.441 114.658 30.3751 114.499 30.3751 114.333V114.022C29.4568 114.125 28.3068 114.125 26.8801 114.125H25.1201C23.6934 114.125 22.5434 114.125 21.6251 114.022V114.333C21.6251 114.499 21.5593 114.658 21.442 114.775C21.3248 114.892 21.1659 114.958 21.0001 114.958C20.8343 114.958 20.6754 114.892 20.5582 114.775C20.441 114.658 20.3751 114.499 20.3751 114.333V113.768C19.8626 113.6 19.4168 113.348 19.0343 112.966C18.4109 112.342 18.1343 111.551 18.0026 110.574C17.8751 109.624 17.8751 108.412 17.8751 106.88V103.528C17.8744 103.508 17.8747 103.488 17.8759 103.468C17.8793 102.315 17.8984 101.366 18.0026 100.592C18.1343 99.6158 18.4109 98.825 19.0343 98.2008C19.6584 97.5775 20.4493 97.3008 21.4259 97.1692C22.3759 97.0417 23.5884 97.0417 25.1201 97.0417ZM19.1251 104.125V106.833C19.1251 108.422 19.1268 109.552 19.2418 110.408C19.3543 111.246 19.5659 111.729 19.9184 112.082C20.2709 112.434 20.7543 112.646 21.5926 112.758C22.4493 112.873 23.5776 112.875 25.1668 112.875H26.8334C28.4226 112.875 29.5518 112.873 30.4084 112.758C31.2459 112.646 31.7293 112.434 32.0818 112.082C32.4343 111.729 32.6459 111.246 32.7584 110.407C32.8734 109.552 32.8751 108.422 32.8751 106.833V104.125H19.1251ZM32.8701 102.875H19.1301C19.1384 102.013 19.1651 101.327 19.2418 100.758C19.3543 99.9208 19.5659 99.4375 19.9184 99.085C20.2709 98.7325 20.7543 98.5208 21.5926 98.4083C22.4493 98.2933 23.5776 98.2917 25.1668 98.2917H26.8334C28.4226 98.2917 29.5518 98.2933 30.4084 98.4083C31.2459 98.5208 31.7293 98.7325 32.0818 99.085C32.4343 99.4375 32.6459 99.9208 32.7584 100.759C32.8351 101.326 32.8609 102.013 32.8701 102.875ZM20.7918 100.583C20.7918 100.418 20.8576 100.259 20.9748 100.141C21.092 100.024 21.251 99.9583 21.4168 99.9583H23.9168C24.0825 99.9583 24.2415 100.024 24.3587 100.141C24.4759 100.259 24.5418 100.418 24.5418 100.583C24.5418 100.749 24.4759 100.908 24.3587 101.025C24.2415 101.142 24.0825 101.208 23.9168 101.208H21.4168C21.251 101.208 21.092 101.142 20.9748 101.025C20.8576 100.908 20.7918 100.749 20.7918 100.583ZM26.0001 106.625C25.5028 106.625 25.0259 106.823 24.6743 107.174C24.3226 107.526 24.1251 108.003 24.1251 108.5C24.1251 108.997 24.3226 109.474 24.6743 109.826C25.0259 110.177 25.5028 110.375 26.0001 110.375C26.4974 110.375 26.9743 110.177 27.3259 109.826C27.6776 109.474 27.8751 108.997 27.8751 108.5C27.8751 108.003 27.6776 107.526 27.3259 107.174C26.9743 106.823 26.4974 106.625 26.0001 106.625ZM22.8751 108.5C22.8751 107.671 23.2043 106.876 23.7904 106.29C24.3764 105.704 25.1713 105.375 26.0001 105.375C26.8289 105.375 27.6238 105.704 28.2098 106.29C28.7959 106.876 29.1251 107.671 29.1251 108.5C29.1251 109.329 28.7959 110.124 28.2098 110.71C27.6238 111.296 26.8289 111.625 26.0001 111.625C25.1713 111.625 24.3764 111.296 23.7904 110.71C23.2043 110.124 22.8751 109.329 22.8751 108.5Z" fill="#313233"/>
<path d="M28.9167 100.583C28.9167 100.804 28.8289 101.016 28.6726 101.173C28.5163 101.329 28.3043 101.417 28.0833 101.417C27.8623 101.417 27.6504 101.329 27.4941 101.173C27.3378 101.016 27.25 100.804 27.25 100.583C27.25 100.362 27.3378 100.15 27.4941 99.9941C27.6504 99.8378 27.8623 99.75 28.0833 99.75C28.3043 99.75 28.5163 99.8378 28.6726 99.9941C28.8289 100.15 28.9167 100.362 28.9167 100.583ZM31.4167 100.583C31.4167 100.804 31.3289 101.016 31.1726 101.173C31.0163 101.329 30.8043 101.417 30.5833 101.417C30.3623 101.417 30.1504 101.329 29.9941 101.173C29.8378 101.016 29.75 100.804 29.75 100.583C29.75 100.362 29.8378 100.15 29.9941 99.9941C30.1504 99.8378 30.3623 99.75 30.5833 99.75C30.8043 99.75 31.0163 99.8378 31.1726 99.9941C31.3289 100.15 31.4167 100.362 31.4167 100.583Z" fill="#313233"/>
<path d="M17.696 141.953C17.864 141.98 18.036 141.997 18.21 142C19 142.012 19.749 141.763 20.21 141.333C20.671 140.907 21.42 140.657 22.21 140.667C23 140.657 23.749 140.907 24.21 141.333C24.671 141.763 25.42 142.012 26.21 142C27 142.012 27.749 141.763 28.21 141.333C28.671 140.907 29.42 140.657 30.21 140.667C31 140.657 31.749 140.907 32.21 141.333C32.671 141.763 33.42 142.012 34.21 142C34.38 142 34.549 141.981 34.713 141.955" stroke="#313233" stroke-linecap="round" stroke-linejoin="round"/>
<path d="M17.21 138L18.931 151.772C19.0088 152.395 19.2499 152.96 19.6111 153.368C19.9724 153.776 20.4305 154 20.904 154H31.516C31.9894 154 32.4475 153.776 32.8088 153.368C33.1701 152.96 33.4111 152.395 33.489 151.772L35.21 138" stroke="#313233" stroke-linecap="round" stroke-linejoin="round"/>
<rect x="0.5" y="0.5" width="51" height="171" rx="4.5" stroke="#9747FF" stroke-dasharray="10 5"/>
</svg>
