<svg width="52" height="172" viewBox="0 0 52 172" fill="none" xmlns="http://www.w3.org/2000/svg">
<path d="M34.3334 20.1667L32.7051 30.4283C32.6428 30.8202 32.4427 31.177 32.1409 31.4345C31.839 31.6921 31.4552 31.8335 31.0584 31.8333H20.9417C20.5451 31.8333 20.1615 31.6918 19.8598 31.4343C19.5581 31.1767 19.3582 30.8201 19.2959 30.4283L17.6667 20.1667" stroke="#313233" stroke-linecap="round" stroke-linejoin="round"/>
<path d="M19 25.4999C19.5 25.4999 22.2 23.4999 22.2 23.4999C22.2 23.4999 23 25.2399 26 25.2399C29 25.2399 29.8 23.4999 29.8 23.4999C29.8 23.4999 31 24.9999 32.5 25.4999C34 25.9999 32 30.9999 32 30.9999L31.5 31.4999H20.5L20 30.9999C20 30.9999 18.5 25.4999 19 25.4999Z" fill="#313233"/>
<path d="M33.5 25.1667C31.8333 25.1667 29.75 22.6667 29.75 22.6667C29.75 22.6667 27.9592 25.1667 26 25.1667C24.0408 25.1667 22.25 22.6667 22.25 22.6667C22.25 22.6667 20.1667 25.1667 18.5 25.1667" stroke="#313233" stroke-linecap="round" stroke-linejoin="round"/>
<g clip-path="url(#clip0_433_10061)">
<path d="M30.1666 57.6667C30.8296 57.6667 31.4655 57.93 31.9344 58.3989C32.4032 58.8677 32.6666 59.5036 32.6666 60.1667V71.8333C32.6666 72.4964 32.4032 73.1322 31.9344 73.6011C31.4655 74.0699 30.8296 74.3333 30.1666 74.3333H21.8333C21.1702 74.3333 20.5343 74.0699 20.0655 73.6011C19.5966 73.1322 19.3333 72.4964 19.3333 71.8333V60.1667C19.3333 59.5036 19.5966 58.8677 20.0655 58.3989C20.5343 57.93 21.1702 57.6667 21.8333 57.6667H30.1666ZM25.9999 65.1667C25.1159 65.1667 24.268 65.5178 23.6429 66.143C23.0178 66.7681 22.6666 67.6159 22.6666 68.5C22.6666 69.384 23.0178 70.2319 23.6429 70.857C24.268 71.4821 25.1159 71.8333 25.9999 71.8333C26.884 71.8333 27.7318 71.4821 28.3569 70.857C28.9821 70.2319 29.3333 69.384 29.3333 68.5C29.3333 67.6159 28.9821 66.7681 28.3569 66.143C27.7318 65.5178 26.884 65.1667 25.9999 65.1667ZM25.9999 66.8333C26.4419 66.8333 26.8659 67.0089 27.1784 67.3215C27.491 67.634 27.6666 68.058 27.6666 68.5C27.6666 68.942 27.491 69.3659 27.1784 69.6785C26.8659 69.9911 26.4419 70.1667 25.9999 70.1667C25.5579 70.1667 25.134 69.9911 24.8214 69.6785C24.5088 69.3659 24.3333 68.942 24.3333 68.5C24.3333 68.058 24.5088 67.634 24.8214 67.3215C25.134 67.0089 25.5579 66.8333 25.9999 66.8333ZM30.1666 59.3333H21.8333C21.6291 59.3334 21.4321 59.4083 21.2796 59.5439C21.1271 59.6796 21.0296 59.8664 21.0058 60.0692L20.9999 60.1667V62.6667H30.9999V60.1667C30.9999 59.9456 30.9121 59.7337 30.7558 59.5774C30.5996 59.4211 30.3876 59.3333 30.1666 59.3333ZM29.3333 60.1667C29.5457 60.1669 29.7499 60.2482 29.9044 60.394C30.0588 60.5398 30.1518 60.7391 30.1642 60.9512C30.1767 61.1632 30.1077 61.372 29.9714 61.5349C29.835 61.6977 29.6417 61.8024 29.4308 61.8275L29.3333 61.8333H28.4999C28.2875 61.8331 28.0832 61.7518 27.9288 61.6059C27.7743 61.4601 27.6814 61.2609 27.6689 61.0488C27.6565 60.8368 27.7255 60.628 27.8618 60.4651C27.9981 60.3023 28.1915 60.1976 28.4024 60.1725L28.4999 60.1667H29.3333ZM25.9999 60.1667C26.2209 60.1667 26.4329 60.2545 26.5892 60.4107C26.7455 60.567 26.8333 60.779 26.8333 61C26.8333 61.221 26.7455 61.433 26.5892 61.5892C26.4329 61.7455 26.2209 61.8333 25.9999 61.8333C25.7789 61.8333 25.5669 61.7455 25.4107 61.5892C25.2544 61.433 25.1666 61.221 25.1666 61C25.1666 60.779 25.2544 60.567 25.4107 60.4107C25.5669 60.2545 25.7789 60.1667 25.9999 60.1667Z" fill="#313233"/>
</g>
<mask id="mask0_433_10061" style="mask-type:luminance" maskUnits="userSpaceOnUse" x="17" y="98" width="18" height="16">
<path d="M17.6667 112.667H34.3334L33.5001 106H24.3334C20.6513 106 17.6667 108.985 17.6667 112.667Z" fill="white" stroke="white" stroke-linecap="round" stroke-linejoin="round"/>
<path d="M22.6667 99.3333H32.6667L33.5001 106" stroke="white" stroke-linecap="round" stroke-linejoin="round"/>
<path d="M23.0835 109.333H23.9168M26.4168 109.333H27.2502M29.7502 109.333H30.5835" stroke="black" stroke-linecap="round" stroke-linejoin="round"/>
</mask>
<g mask="url(#mask0_433_10061)">
<path d="M16 96H36V116H16V96Z" fill="#313233"/>
</g>
<path fill-rule="evenodd" clip-rule="evenodd" d="M18.5 144.333C18.5 141.191 18.5 139.619 19.4767 138.643C20.4525 137.667 22.0242 137.667 25.1667 137.667H26.8333C29.9758 137.667 31.5475 137.667 32.5233 138.643C33.5 139.619 33.5 141.191 33.5 144.333V147.667C33.5 150.809 33.5 152.381 32.5233 153.357C31.5475 154.333 29.9758 154.333 26.8333 154.333H25.1667C22.0242 154.333 20.4525 154.333 19.4767 153.357C18.5 152.381 18.5 150.809 18.5 147.667V144.333ZM30.7917 147.667C30.7917 147.483 30.7817 147.303 30.7617 147.126L30.7783 147.115L30.7025 146.742C30.4701 145.576 29.8128 144.538 28.8583 143.83C27.9037 143.121 26.72 142.793 25.5368 142.908C24.3537 143.023 23.2556 143.574 22.4558 144.453C21.6559 145.333 21.2113 146.478 21.2083 147.667C21.2083 148.938 21.7132 150.156 22.6118 151.055C23.5104 151.954 24.7292 152.458 26 152.458C27.2708 152.458 28.4896 151.954 29.3882 151.055C30.2868 150.156 30.7917 148.938 30.7917 147.667ZM22.6667 140.375C22.5009 140.375 22.3419 140.441 22.2247 140.558C22.1075 140.675 22.0417 140.834 22.0417 141C22.0417 141.166 22.1075 141.325 22.2247 141.442C22.3419 141.559 22.5009 141.625 22.6667 141.625H29.3333C29.4991 141.625 29.6581 141.559 29.7753 141.442C29.8925 141.325 29.9583 141.166 29.9583 141C29.9583 140.834 29.8925 140.675 29.7753 140.558C29.6581 140.441 29.4991 140.375 29.3333 140.375H22.6667Z" fill="#313233"/>
<rect x="22.6667" y="144.333" width="6.66667" height="6.66667" rx="3.33333" fill="#313233"/>
<path d="M26.0001 147.667C26.3836 147.667 26.6946 147.356 26.6946 146.972C26.6946 146.589 26.3836 146.278 26.0001 146.278C25.6166 146.278 25.3057 146.589 25.3057 146.972C25.3057 147.356 25.6166 147.667 26.0001 147.667Z" fill="white"/>
<path d="M26 148.014C25.3042 148.014 24.7375 148.481 24.7375 149.056C24.7375 149.094 24.7681 149.125 24.807 149.125H27.1931C27.232 149.125 27.2625 149.094 27.2625 149.056C27.2625 148.481 26.6959 148.014 26 148.014Z" fill="white"/>
<rect x="0.5" y="0.5" width="51" height="171" rx="4.5" stroke="#9747FF" stroke-dasharray="10 5"/>
<defs>
<clipPath id="clip0_433_10061">
<rect width="20" height="20" fill="white" transform="translate(16 56)"/>
</clipPath>
</defs>
</svg>
