<svg width="52" height="232" viewBox="0 0 52 232" fill="none" xmlns="http://www.w3.org/2000/svg">
<path d="M28.2875 17.875C28.2875 17.875 27.3977 18.1875 26 18.1875C24.6023 18.1875 23.7125 17.875 23.7125 17.875C23.5719 17.875 23.4323 17.8988 23.2996 17.9453L17.25 20.0625L17.8996 23.5L19.809 23.7156C20.0428 23.7421 20.2581 23.8555 20.4122 24.0334C20.5663 24.2113 20.6478 24.4406 20.6406 24.6758L20.375 34.125H31.625L31.3594 24.6758C31.3522 24.4406 31.4337 24.2113 31.5878 24.0334C31.7419 23.8555 31.9572 23.7421 32.191 23.7156L34.1004 23.5L34.75 20.0625L28.7004 17.9453C28.5677 17.8988 28.4281 17.875 28.2875 17.875Z" stroke="#313233" stroke-linecap="round" stroke-linejoin="round"/>
<path d="M29.0198 18.057C28.8427 18.7227 28.4506 19.3112 27.9044 19.7311C27.3583 20.1509 26.6888 20.3785 25.9999 20.3785C25.3111 20.3785 24.6415 20.1509 24.0954 19.7311C23.5492 19.3112 23.1571 18.7227 22.98 18.057" stroke="#313233" stroke-linecap="round" stroke-linejoin="round"/>
<path d="M30.9998 59.5H17.6665V62.8333H30.9998V59.5Z" stroke="#313233" stroke-miterlimit="2" stroke-linecap="round" stroke-linejoin="round"/>
<path d="M30.9998 57V65.3333C30.9998 65.7754 30.8242 66.1993 30.5117 66.5118C30.1991 66.8244 29.7752 67 29.3332 67H20.9998M20.9998 67H19.3332C18.8911 67 18.4672 66.8244 18.1547 66.5118C17.8421 66.1993 17.6665 65.7754 17.6665 65.3333V55.3333C17.6665 54.8913 17.8421 54.4674 18.1547 54.1548C18.4672 53.8423 18.8911 53.6667 19.3332 53.6667H32.6665C33.1085 53.6667 33.5325 53.8423 33.845 54.1548C34.1576 54.4674 34.3332 54.8913 34.3332 55.3333V68.6667C34.3332 69.5875 33.5873 70.3333 32.6665 70.3333H22.6665C21.7457 70.3333 20.9998 69.5875 20.9998 68.6667V67Z" stroke="#313233" stroke-miterlimit="2" stroke-linecap="round" stroke-linejoin="round"/>
<path d="M17.6665 105.5L23.4998 92.1667L27.6665 102.167L29.3332 97.1667L34.3332 105.5H17.6665ZM31.4165 93.8334C31.969 93.8334 32.4989 93.6139 32.8896 93.2232C33.2803 92.8325 33.4998 92.3026 33.4998 91.75C33.4998 91.1975 33.2803 90.6676 32.8896 90.2769C32.4989 89.8862 31.969 89.6667 31.4165 89.6667C30.864 89.6667 30.3341 89.8862 29.9434 90.2769C29.5527 90.6676 29.3332 91.1975 29.3332 91.75C29.3332 92.3026 29.5527 92.8325 29.9434 93.2232C30.3341 93.6139 30.864 93.8334 31.4165 93.8334Z" stroke="#313233" stroke-linejoin="round"/>
<path d="M31.625 125.25C31.4592 125.25 31.3003 125.316 31.1831 125.433C31.0658 125.55 31 125.709 31 125.875V127.125H28.5V125.875C28.5 125.709 28.4342 125.55 28.3169 125.433C28.1997 125.316 28.0408 125.25 27.875 125.25C27.7092 125.25 27.5503 125.316 27.4331 125.433C27.3158 125.55 27.25 125.709 27.25 125.875V127.125H24.75V125.875C24.75 125.709 24.6842 125.55 24.5669 125.433C24.4497 125.316 24.2908 125.25 24.125 125.25C23.9592 125.25 23.8003 125.316 23.6831 125.433C23.5658 125.55 23.5 125.709 23.5 125.875V127.125H21V125.875C21 125.709 20.9342 125.55 20.8169 125.433C20.6997 125.316 20.5408 125.25 20.375 125.25C20.2092 125.25 20.0503 125.316 19.9331 125.433C19.8158 125.55 19.75 125.709 19.75 125.875V142.125C19.75 142.291 19.8158 142.45 19.9331 142.567C20.0503 142.684 20.2092 142.75 20.375 142.75C20.5408 142.75 20.6997 142.684 20.8169 142.567C20.9342 142.45 21 142.291 21 142.125V140.875H23.5V142.125C23.5 142.291 23.5658 142.45 23.6831 142.567C23.8003 142.684 23.9592 142.75 24.125 142.75C24.2908 142.75 24.4497 142.684 24.5669 142.567C24.6842 142.45 24.75 142.291 24.75 142.125V140.875H27.25V142.125C27.25 142.291 27.3158 142.45 27.4331 142.567C27.5503 142.684 27.7092 142.75 27.875 142.75C28.0408 142.75 28.1997 142.684 28.3169 142.567C28.4342 142.45 28.5 142.291 28.5 142.125V140.875H31V142.125C31 142.291 31.0658 142.45 31.1831 142.567C31.3003 142.684 31.4592 142.75 31.625 142.75C31.7908 142.75 31.9497 142.684 32.0669 142.567C32.1842 142.45 32.25 142.291 32.25 142.125V125.875C32.25 125.709 32.1842 125.55 32.0669 125.433C31.9497 125.316 31.7908 125.25 31.625 125.25ZM21 128.375H31V139.625H21V128.375ZM26 137.75C26.1079 137.75 26.214 137.722 26.3079 137.669C26.4018 137.616 26.4804 137.539 26.5359 137.447L28.4109 134.322C28.4693 134.225 28.5002 134.113 28.5002 134C28.5002 133.887 28.4693 133.775 28.4109 133.678L26.5359 130.553C26.4804 130.461 26.4019 130.384 26.3079 130.331C26.214 130.278 26.1079 130.25 26 130.25C25.8921 130.25 25.786 130.278 25.6921 130.331C25.5981 130.384 25.5196 130.461 25.4641 130.553L23.5891 133.678C23.5307 133.775 23.4998 133.887 23.4998 134C23.4998 134.113 23.5307 134.225 23.5891 134.322L25.4641 137.447C25.5196 137.539 25.5982 137.616 25.6921 137.669C25.786 137.722 25.8921 137.75 26 137.75ZM26 132.09L27.1461 134L26 135.91L24.8539 134L26 132.09Z" fill="#313233"/>
<path d="M17.875 176.25V171.875C17.877 171.213 18.141 170.578 18.6094 170.109C19.0778 169.641 19.7126 169.377 20.375 169.375H31.625C32.2874 169.377 32.9222 169.641 33.3906 170.109C33.859 170.578 34.123 171.213 34.125 171.875V176.25M31 169.375H19.75V165.312C19.7512 164.898 19.9163 164.502 20.209 164.209C20.5018 163.916 20.8985 163.751 21.3125 163.75H30.6875C31.1015 163.751 31.4982 163.916 31.791 164.209C32.0837 164.502 32.2488 164.898 32.25 165.312V169.375H31Z" stroke="#313233" stroke-linecap="round" stroke-linejoin="round"/>
<path d="M17.875 176.25V175.938C17.8757 175.689 17.9747 175.451 18.1504 175.275C18.326 175.1 18.5641 175.001 18.8125 175H33.1875C33.4359 175.001 33.674 175.1 33.8496 175.275C34.0253 175.451 34.1243 175.689 34.125 175.938V176.25M20.375 169.375V168.75C20.3759 168.419 20.5079 168.101 20.7421 167.867C20.9764 167.633 21.2938 167.501 21.625 167.5H24.75C25.0812 167.501 25.3986 167.633 25.6329 167.867C25.8671 168.101 25.9991 168.419 26 168.75M26 168.75V169.375M26 168.75C26.0009 168.419 26.1329 168.101 26.3671 167.867C26.6014 167.633 26.9188 167.501 27.25 167.5H30.375C30.7062 167.501 31.0236 167.633 31.2579 167.867C31.4921 168.101 31.6241 168.419 31.625 168.75V169.375" stroke="#313233" stroke-linecap="round" stroke-linejoin="round"/>
<path d="M27.6667 206.833L28.5 205.167M19.3333 201H23.855C24.0005 201 24.1435 201.038 24.2697 201.111C24.3958 201.183 24.5008 201.288 24.5742 201.413L25.4608 202.933C25.6312 203.225 25.8591 203.479 26.1306 203.681C26.4022 203.882 26.7119 204.027 27.0408 204.105L30.9383 205.033C31.6676 205.207 32.3172 205.621 32.782 206.209C33.2468 206.798 33.4997 207.525 33.5 208.275V210.167C33.5 210.388 33.4122 210.6 33.2559 210.756C33.0996 210.912 32.8877 211 32.6667 211H19.3333C19.1123 211 18.9004 210.912 18.7441 210.756C18.5878 210.6 18.5 210.388 18.5 210.167V201.833C18.5 201.612 18.5878 201.4 18.7441 201.244C18.9004 201.088 19.1123 201 19.3333 201Z" stroke="#313233" stroke-width="0.833333" stroke-linecap="round" stroke-linejoin="round"/>
<path d="M22.6667 211V210.167C22.6667 209.283 22.3155 208.435 21.6904 207.81C21.0652 207.185 20.2174 206.833 19.3333 206.833H18.5M24.3333 206L25.5833 203.5" stroke="#313233" stroke-width="0.833333" stroke-linecap="round" stroke-linejoin="round"/>
<rect x="0.5" y="0.5" width="51" height="231" rx="4.5" stroke="#9747FF" stroke-dasharray="10 5"/>
</svg>
