<svg width="52" height="172" viewBox="0 0 52 172" fill="none" xmlns="http://www.w3.org/2000/svg">
<path d="M19 20.5C19.5 21 21.5 20.5 22 20C22.5 19.5 25.1804 20.75 26 20.9421C26.7311 20.75 28.2706 20.5 28.5 20.5C28.7294 20.5 30 20 30 20C30 20 30.2551 19.9081 31 20.5C31.7449 21.0919 32.4461 20.884 32.7501 21.1883C33.5504 21.9897 32.2501 27.1986 32.2501 27.1986L31.7501 28.25H20.5001L20.0001 27.5C20.0001 27.5 18.5 20 19 20.5Z" fill="#7B7D80"/>
<path d="M18.905 20.9708C19.045 20.9875 19.1884 20.9983 19.3334 21C19.9917 21.0075 20.6159 20.8517 21 20.5833C21.3842 20.3167 22.0084 20.1608 22.6667 20.1667C23.325 20.1608 23.9492 20.3167 24.3334 20.5833C24.7175 20.8517 25.3417 21.0075 26 21C26.6584 21.0075 27.2825 20.8517 27.6667 20.5833C28.0509 20.3167 28.675 20.1608 29.3334 20.1667C29.9917 20.1608 30.6159 20.3167 31 20.5833C31.3842 20.8517 32.0084 21.0075 32.6667 21C32.8084 21 32.9492 20.9883 33.0859 20.9717" stroke="#000B1D" stroke-linecap="round" stroke-linejoin="round"/>
<path d="M18.5 18.5L19.9342 27.1075C19.9991 27.4967 20.1999 27.8502 20.501 28.1052C20.802 28.3601 21.1838 28.5 21.5783 28.5H30.4217C30.8162 28.5 31.198 28.3601 31.499 28.1052C31.8001 27.8502 32.0009 27.4967 32.0658 27.1075L33.5 18.5M20.1667 31H31.8333M20.1667 33.5H31.8333" stroke="#000B1D" stroke-linecap="round" stroke-linejoin="round"/>
<mask id="mask0_697_23537" style="mask-type:luminance" maskUnits="userSpaceOnUse" x="16" y="58" width="20" height="16">
<path d="M17.6667 72.6667H34.3334L33.5001 66H24.3334C20.6513 66 17.6667 68.9846 17.6667 72.6667Z" fill="#555555" stroke="white" stroke-width="1.66667" stroke-linecap="round" stroke-linejoin="round"/>
<path d="M22.6667 59.3333H32.6667L33.5001 66M23.0834 69.3333H23.9167M26.4167 69.3333H27.2501M29.7501 69.3333H30.5834" stroke="white" stroke-width="1.66667" stroke-linecap="round" stroke-linejoin="round"/>
</mask>
<g mask="url(#mask0_697_23537)">
<path d="M16 56H36V76H16V56Z" fill="black"/>
</g>
<path opacity="0.5" d="M18.5 104.333C18.5 101.191 18.5 99.6192 19.4767 98.6433C20.4525 97.6667 22.0242 97.6667 25.1667 97.6667H26.8333C29.9758 97.6667 31.5475 97.6667 32.5233 98.6433C33.5 99.6192 33.5 101.191 33.5 104.333V107.667C33.5 110.809 33.5 112.381 32.5233 113.357C31.5475 114.333 29.9758 114.333 26.8333 114.333H25.1667C22.0242 114.333 20.4525 114.333 19.4767 113.357C18.5 112.381 18.5 110.809 18.5 107.667V104.333Z" fill="black"/>
<path d="M22.0417 101C22.0417 100.834 22.1076 100.675 22.2248 100.558C22.342 100.441 22.501 100.375 22.6667 100.375H29.3334C29.4992 100.375 29.6581 100.441 29.7754 100.558C29.8926 100.675 29.9584 100.834 29.9584 101C29.9584 101.166 29.8926 101.325 29.7754 101.442C29.6581 101.559 29.4992 101.625 29.3334 101.625H22.6667C22.501 101.625 22.342 101.559 22.2248 101.442C22.1076 101.325 22.0417 101.166 22.0417 101Z" fill="black"/>
<rect x="21.8333" y="103.5" width="8.33333" height="8.33333" rx="4.16667" fill="black"/>
<path d="M26.0334 107.6C26.4016 107.6 26.7 107.302 26.7 106.933C26.7 106.565 26.4016 106.267 26.0334 106.267C25.6652 106.267 25.3667 106.565 25.3667 106.933C25.3667 107.302 25.6652 107.6 26.0334 107.6Z" fill="white"/>
<path d="M26.0333 107.933C25.3653 107.933 24.8213 108.381 24.8213 108.933C24.8213 108.971 24.8506 109 24.888 109H27.1786C27.216 109 27.2453 108.971 27.2453 108.933C27.2453 108.381 26.7013 107.933 26.0333 107.933Z" fill="white"/>
<rect x="21.8333" y="103.5" width="8.33333" height="8.33333" rx="4.16667" stroke="#EEEFF1" stroke-width="2"/>
<path d="M24.125 148.5C24.125 148.003 24.3225 147.526 24.6742 147.174C25.0258 146.823 25.5027 146.625 26 146.625C26.4973 146.625 26.9742 146.823 27.3258 147.174C27.6775 147.526 27.875 148.003 27.875 148.5C27.875 148.997 27.6775 149.474 27.3258 149.826C26.9742 150.177 26.4973 150.375 26 150.375C25.5027 150.375 25.0258 150.177 24.6742 149.826C24.3225 149.474 24.125 148.997 24.125 148.5Z" fill="black"/>
<path fill-rule="evenodd" clip-rule="evenodd" d="M18.5 143.5H33.5V146.833C33.5 149.976 33.5 151.547 32.5233 152.523C32.2677 152.778 31.9617 152.975 31.625 153.104V154.333C31.625 154.499 31.5592 154.658 31.4419 154.775C31.3247 154.892 31.1658 154.958 31 154.958C30.8342 154.958 30.6753 154.892 30.5581 154.775C30.4408 154.658 30.375 154.499 30.375 154.333V153.392C29.4833 153.5 28.3383 153.5 26.8333 153.5H25.1667C23.6617 153.5 22.5167 153.5 21.625 153.392V154.333C21.625 154.499 21.5592 154.658 21.4419 154.775C21.3247 154.892 21.1658 154.958 21 154.958C20.8342 154.958 20.6753 154.892 20.5581 154.775C20.4408 154.658 20.375 154.499 20.375 154.333V153.104C20.0383 152.975 19.7323 152.778 19.4767 152.523C18.5 151.547 18.5 149.976 18.5 146.833V143.5ZM26 145.375C25.1712 145.375 24.3763 145.704 23.7903 146.29C23.2042 146.876 22.875 147.671 22.875 148.5C22.875 149.329 23.2042 150.124 23.7903 150.71C24.3763 151.296 25.1712 151.625 26 151.625C26.8288 151.625 27.6237 151.296 28.2097 150.71C28.7958 150.124 29.125 149.329 29.125 148.5C29.125 147.671 28.7958 146.876 28.2097 146.29C27.6237 145.704 26.8288 145.375 26 145.375Z" fill="black"/>
<path opacity="0.5" d="M19.4765 138.643C18.6649 139.455 18.5274 140.678 18.5049 142.875V143.5H33.4999V142.875C33.4766 140.678 33.3357 139.455 32.524 138.643C31.5474 137.667 29.9749 137.667 26.8332 137.667H25.1665C22.0249 137.667 20.4524 137.667 19.4765 138.643Z" fill="black"/>
<path d="M21.4167 139.958C21.251 139.958 21.092 140.024 20.9748 140.141C20.8576 140.259 20.7917 140.418 20.7917 140.583C20.7917 140.749 20.8576 140.908 20.9748 141.025C21.092 141.142 21.251 141.208 21.4167 141.208H23.9167C24.0825 141.208 24.2415 141.142 24.3587 141.025C24.4759 140.908 24.5417 140.749 24.5417 140.583C24.5417 140.418 24.4759 140.259 24.3587 140.141C24.2415 140.024 24.0825 139.958 23.9167 139.958H21.4167ZM28.9167 140.583C28.9167 140.804 28.8289 141.016 28.6727 141.173C28.5164 141.329 28.3044 141.417 28.0834 141.417C27.8624 141.417 27.6504 141.329 27.4942 141.173C27.3379 141.016 27.2501 140.804 27.2501 140.583C27.2501 140.362 27.3379 140.15 27.4942 139.994C27.6504 139.838 27.8624 139.75 28.0834 139.75C28.3044 139.75 28.5164 139.838 28.6727 139.994C28.8289 140.15 28.9167 140.362 28.9167 140.583ZM30.5834 141.417C30.8044 141.417 31.0164 141.329 31.1727 141.173C31.329 141.016 31.4167 140.804 31.4167 140.583C31.4167 140.362 31.329 140.15 31.1727 139.994C31.0164 139.838 30.8044 139.75 30.5834 139.75C30.3624 139.75 30.1504 139.838 29.9942 139.994C29.8379 140.15 29.7501 140.362 29.7501 140.583C29.7501 140.804 29.8379 141.016 29.9942 141.173C30.1504 141.329 30.3624 141.417 30.5834 141.417Z" fill="black"/>
<rect x="0.5" y="0.5" width="51" height="171" rx="4.5" stroke="#9747FF" stroke-dasharray="10 5"/>
</svg>
