<svg width="52" height="88" viewBox="0 0 52 88" fill="none" xmlns="http://www.w3.org/2000/svg">
<path d="M26 28.5C27.3807 28.5 28.5 27.3807 28.5 26C28.5 24.6193 27.3807 23.5 26 23.5C24.6193 23.5 23.5 24.6193 23.5 26C23.5 27.3807 24.6193 28.5 26 28.5Z" stroke="#313233" stroke-miterlimit="10" stroke-linecap="round" stroke-linejoin="round"/>
<path d="M17.6667 26.7333V25.2667C17.6667 24.4 18.3751 23.6833 19.2501 23.6833C20.7584 23.6833 21.3751 22.6167 20.6167 21.3083C20.1834 20.5583 20.4417 19.5833 21.2001 19.15L22.6417 18.325C23.3001 17.9333 24.1501 18.1667 24.5417 18.825L24.6334 18.9833C25.3834 20.2917 26.6167 20.2917 27.3751 18.9833L27.4667 18.825C27.8584 18.1667 28.7084 17.9333 29.3667 18.325L30.8084 19.15C31.5667 19.5833 31.8251 20.5583 31.3917 21.3083C30.6334 22.6167 31.2501 23.6833 32.7584 23.6833C33.6251 23.6833 34.3417 24.3917 34.3417 25.2667V26.7333C34.3417 27.6 33.6334 28.3167 32.7584 28.3167C31.2501 28.3167 30.6334 29.3833 31.3917 30.6917C31.8251 31.45 31.5667 32.4167 30.8084 32.85L29.3667 33.675C28.7084 34.0667 27.8584 33.8333 27.4667 33.175L27.3751 33.0167C26.6251 31.7083 25.3917 31.7083 24.6334 33.0167L24.5417 33.175C24.1501 33.8333 23.3001 34.0667 22.6417 33.675L21.2001 32.85C20.4417 32.4167 20.1834 31.4417 20.6167 30.6917C21.3751 29.3833 20.7584 28.3167 19.2501 28.3167C18.3751 28.3167 17.6667 27.6 17.6667 26.7333Z" stroke="#313233" stroke-miterlimit="10" stroke-linecap="round" stroke-linejoin="round"/>
<path d="M32.7501 59.6833C31.2417 59.6833 30.6251 58.6167 31.3751 57.3083C31.8084 56.55 31.5501 55.5833 30.7917 55.15L29.3501 54.325C28.6917 53.9333 27.8417 54.1667 27.4501 54.825L27.3584 54.9833C26.6084 56.2917 25.3751 56.2917 24.6167 54.9833L24.5251 54.825C24.1501 54.1667 23.3001 53.9333 22.6417 54.325L21.2001 55.15C20.4417 55.5833 20.1834 56.5583 20.6167 57.3167C21.3751 58.6167 20.7584 59.6833 19.2501 59.6833C18.3834 59.6833 17.6667 60.3917 17.6667 61.2667V62.7333C17.6667 63.6 18.3751 64.3167 19.2501 64.3167C20.7584 64.3167 21.3751 65.3833 20.6167 66.6917C20.1834 67.45 20.4417 68.4167 21.2001 68.85L22.6417 69.675C23.3001 70.0667 24.1501 69.8333 24.5417 69.175L24.6334 69.0167C25.3834 67.7083 26.6167 67.7083 27.3751 69.0167L27.4667 69.175C27.8584 69.8333 28.7084 70.0667 29.3667 69.675L30.8084 68.85C31.5667 68.4167 31.8251 67.4417 31.3917 66.6917C30.6334 65.3833 31.2501 64.3167 32.7584 64.3167C33.6251 64.3167 34.3417 63.6083 34.3417 62.7333V61.2667C34.3334 60.4 33.6251 59.6833 32.7501 59.6833ZM26.0001 64.7083C24.5084 64.7083 23.2917 63.4917 23.2917 62C23.2917 60.5083 24.5084 59.2917 26.0001 59.2917C27.4917 59.2917 28.7084 60.5083 28.7084 62C28.7084 63.4917 27.4917 64.7083 26.0001 64.7083Z" fill="#313233"/>
<rect x="0.5" y="0.5" width="51" height="87" rx="4.5" stroke="#9747FF" stroke-dasharray="10 5"/>
</svg>
