<svg width="52" height="88" viewBox="0 0 52 88" fill="none" xmlns="http://www.w3.org/2000/svg">
<path d="M31 34.3333C30.3056 34.3333 29.7153 34.0903 29.2292 33.6042C28.7431 33.118 28.5 32.5278 28.5 31.8333C28.5 31.7361 28.5069 31.6353 28.5208 31.5308C28.5347 31.4264 28.5556 31.3328 28.5833 31.25L22.7083 27.8333C22.4722 28.0417 22.2083 28.205 21.9167 28.3233C21.625 28.4417 21.3194 28.5005 21 28.5C20.3056 28.5 19.7153 28.2569 19.2292 27.7708C18.7431 27.2847 18.5 26.6944 18.5 26C18.5 25.3055 18.7431 24.7153 19.2292 24.2292C19.7153 23.743 20.3056 23.5 21 23.5C21.3194 23.5 21.625 23.5592 21.9167 23.6775C22.2083 23.7958 22.4722 23.9589 22.7083 24.1667L28.5833 20.75C28.5556 20.6667 28.5347 20.573 28.5208 20.4692C28.5069 20.3653 28.5 20.2644 28.5 20.1667C28.5 19.4722 28.7431 18.8819 29.2292 18.3958C29.7153 17.9097 30.3056 17.6667 31 17.6667C31.6944 17.6667 32.2847 17.9097 32.7708 18.3958C33.2569 18.8819 33.5 19.4722 33.5 20.1667C33.5 20.8611 33.2569 21.4514 32.7708 21.9375C32.2847 22.4236 31.6944 22.6667 31 22.6667C30.6806 22.6667 30.375 22.6078 30.0833 22.49C29.7917 22.3722 29.5278 22.2089 29.2917 22L23.4167 25.4167C23.4444 25.5 23.4653 25.5939 23.4792 25.6983C23.4931 25.8028 23.5 25.9033 23.5 26C23.5 26.0972 23.4931 26.198 23.4792 26.3025C23.4653 26.4069 23.4444 26.5005 23.4167 26.5833L29.2917 30C29.5278 29.7917 29.7917 29.6286 30.0833 29.5108C30.375 29.393 30.6806 29.3339 31 29.3333C31.6944 29.3333 32.2847 29.5764 32.7708 30.0625C33.2569 30.5486 33.5 31.1389 33.5 31.8333C33.5 32.5278 33.2569 33.118 32.7708 33.6042C32.2847 34.0903 31.6944 34.3333 31 34.3333ZM31 21C31.2361 21 31.4342 20.92 31.5942 20.76C31.7542 20.6 31.8339 20.4022 31.8333 20.1667C31.8333 19.9305 31.7533 19.7325 31.5933 19.5725C31.4333 19.4125 31.2356 19.3328 31 19.3333C30.7639 19.3333 30.5658 19.4133 30.4058 19.5733C30.2458 19.7333 30.1661 19.9311 30.1667 20.1667C30.1667 20.4028 30.2467 20.6008 30.4067 20.7608C30.5667 20.9208 30.7644 21.0005 31 21ZM21 26.8333C21.2361 26.8333 21.4342 26.7533 21.5942 26.5933C21.7542 26.4333 21.8339 26.2355 21.8333 26C21.8333 25.7639 21.7533 25.5658 21.5933 25.4058C21.4333 25.2458 21.2356 25.1661 21 25.1667C20.7639 25.1667 20.5658 25.2467 20.4058 25.4067C20.2458 25.5667 20.1661 25.7644 20.1667 26C20.1667 26.2361 20.2467 26.4342 20.4067 26.5942C20.5667 26.7542 20.7644 26.8339 21 26.8333ZM31 32.6667C31.2361 32.6667 31.4342 32.5867 31.5942 32.4267C31.7542 32.2667 31.8339 32.0689 31.8333 31.8333C31.8333 31.5972 31.7533 31.3992 31.5933 31.2392C31.4333 31.0792 31.2356 30.9994 31 31C30.7639 31 30.5658 31.08 30.4058 31.24C30.2458 31.4 30.1661 31.5978 30.1667 31.8333C30.1667 32.0694 30.2467 32.2675 30.4067 32.4275C30.5667 32.5875 30.7644 32.6672 31 32.6667Z" fill="#313233"/>
<path d="M31 70.3333C30.3056 70.3333 29.7153 70.0903 29.2292 69.6042C28.7431 69.118 28.5 68.5278 28.5 67.8333C28.5 67.7361 28.5069 67.6353 28.5208 67.5308C28.5347 67.4264 28.5556 67.3328 28.5833 67.25L22.7083 63.8333C22.4722 64.0417 22.2083 64.205 21.9167 64.3233C21.625 64.4417 21.3194 64.5005 21 64.5C20.3056 64.5 19.7153 64.2569 19.2292 63.7708C18.7431 63.2847 18.5 62.6944 18.5 62C18.5 61.3055 18.7431 60.7153 19.2292 60.2292C19.7153 59.743 20.3056 59.5 21 59.5C21.3194 59.5 21.625 59.5592 21.9167 59.6775C22.2083 59.7958 22.4722 59.9589 22.7083 60.1667L28.5833 56.75C28.5556 56.6667 28.5347 56.573 28.5208 56.4692C28.5069 56.3653 28.5 56.2644 28.5 56.1667C28.5 55.4722 28.7431 54.8819 29.2292 54.3958C29.7153 53.9097 30.3056 53.6667 31 53.6667C31.6944 53.6667 32.2847 53.9097 32.7708 54.3958C33.2569 54.8819 33.5 55.4722 33.5 56.1667C33.5 56.8611 33.2569 57.4514 32.7708 57.9375C32.2847 58.4236 31.6944 58.6667 31 58.6667C30.6806 58.6667 30.375 58.6078 30.0833 58.49C29.7917 58.3722 29.5278 58.2089 29.2917 58L23.4167 61.4167C23.4444 61.5 23.4653 61.5939 23.4792 61.6983C23.4931 61.8028 23.5 61.9033 23.5 62C23.5 62.0972 23.4931 62.198 23.4792 62.3025C23.4653 62.4069 23.4444 62.5005 23.4167 62.5833L29.2917 66C29.5278 65.7917 29.7917 65.6286 30.0833 65.5108C30.375 65.393 30.6806 65.3339 31 65.3333C31.6944 65.3333 32.2847 65.5764 32.7708 66.0625C33.2569 66.5486 33.5 67.1389 33.5 67.8333C33.5 68.5278 33.2569 69.118 32.7708 69.6042C32.2847 70.0903 31.6944 70.3333 31 70.3333Z" fill="#313233"/>
<rect x="0.5" y="0.5" width="51" height="87" rx="4.5" stroke="#9747FF" stroke-dasharray="10 5"/>
</svg>
