<svg width="52" height="88" viewBox="0 0 52 88" fill="none" xmlns="http://www.w3.org/2000/svg">
<path d="M26 29.75C28.0711 29.75 29.75 28.0711 29.75 26C29.75 23.9289 28.0711 22.25 26 22.25C23.9289 22.25 22.25 23.9289 22.25 26C22.25 28.0711 23.9289 29.75 26 29.75Z" stroke="#313233" stroke-linecap="round" stroke-linejoin="round"/>
<path d="M17.6667 26H21.8334" stroke="#313233" stroke-linecap="round" stroke-linejoin="round"/>
<path d="M30.1667 26H34.3334" stroke="#313233" stroke-linecap="round" stroke-linejoin="round"/>
<path d="M26 65.75C28.0711 65.75 29.75 64.0711 29.75 62C29.75 59.9289 28.0711 58.25 26 58.25C23.9289 58.25 22.25 59.9289 22.25 62C22.25 64.0711 23.9289 65.75 26 65.75Z" fill="#313233"/>
<path d="M24.3334 62.625H17.6667C17.3251 62.625 17.0417 62.3417 17.0417 62C17.0417 61.6583 17.3251 61.375 17.6667 61.375H24.3334C24.6751 61.375 24.9584 61.6583 24.9584 62C24.9584 62.3417 24.6751 62.625 24.3334 62.625Z" fill="#313233"/>
<path d="M34.3334 62.625H27.6667C27.3251 62.625 27.0417 62.3417 27.0417 62C27.0417 61.6583 27.3251 61.375 27.6667 61.375H34.3334C34.6751 61.375 34.9584 61.6583 34.9584 62C34.9584 62.3417 34.6751 62.625 34.3334 62.625Z" fill="#313233"/>
<rect x="0.5" y="0.5" width="51" height="87" rx="4.5" stroke="#9747FF" stroke-dasharray="10 5"/>
</svg>
