<svg width="52" height="196" viewBox="0 0 52 196" fill="none" xmlns="http://www.w3.org/2000/svg">
<path fill-rule="evenodd" clip-rule="evenodd" d="M16 26.0559C16 31.0279 19.6111 35.162 24.3333 36L24.3892 35.9551C24.3706 35.9515 24.3519 35.9478 24.3333 35.944V28.8491H21.8333V26.0558H24.3333V23.8211C24.3333 21.3072 25.9444 19.9105 28.2222 19.9105C28.9444 19.9105 29.7222 20.0223 30.4444 20.134V22.7038H29.1667C27.9444 22.7038 27.6667 23.3183 27.6667 24.1005V26.0558H30.3333L29.8889 28.8491H27.6667V35.944C27.6481 35.9478 27.6294 35.9515 27.6108 35.9551L27.6667 36C32.3889 35.162 36 31.0279 36 26.0559C36 20.5251 31.5 16 26 16C20.5 16 16 20.5251 16 26.0559Z" fill="#313233"/>
<g clip-path="url(#clip0_75_1658)">
<path d="M26.0009 52C23.2851 52 22.9442 52.0119 21.8776 52.0604C20.813 52.1092 20.0863 52.2777 19.4505 52.525C18.7927 52.7804 18.2348 53.1221 17.679 53.6781C17.1227 54.234 16.781 54.7919 16.5248 55.4494C16.2769 56.0854 16.1081 56.8123 16.0602 57.8765C16.0125 58.9431 16 59.2842 16 62C16 64.7158 16.0121 65.0556 16.0604 66.1223C16.1094 67.1869 16.2779 67.9135 16.525 68.5494C16.7806 69.2071 17.1223 69.765 17.6784 70.3208C18.234 70.8771 18.7919 71.2196 19.4492 71.475C20.0855 71.7223 20.8123 71.8908 21.8767 71.9396C22.9434 71.9881 23.284 72 25.9997 72C28.7158 72 29.0556 71.9881 30.1222 71.9396C31.1868 71.8908 31.9143 71.7223 32.5506 71.475C33.2081 71.2196 33.7652 70.8771 34.3208 70.3208C34.8771 69.765 35.2187 69.2071 35.475 68.5496C35.7208 67.9135 35.8896 67.1867 35.9396 66.1225C35.9875 65.0558 36 64.7158 36 62C36 59.2842 35.9875 58.9433 35.9396 57.8767C35.8896 56.8121 35.7208 56.0854 35.475 55.4496C35.2187 54.7919 34.8771 54.234 34.3208 53.6781C33.7646 53.1219 33.2083 52.7802 32.55 52.525C31.9125 52.2777 31.1854 52.1092 30.1208 52.0604C29.0541 52.0119 28.7145 52 25.9978 52H26.0009ZM25.1038 53.8021C25.3701 53.8017 25.6672 53.8021 26.0009 53.8021C28.671 53.8021 28.9874 53.8117 30.0418 53.8596C31.0168 53.9042 31.546 54.0671 31.8985 54.204C32.3652 54.3852 32.6979 54.6019 33.0477 54.9519C33.3977 55.3019 33.6143 55.6352 33.796 56.1019C33.9329 56.454 34.096 56.9831 34.1404 57.9581C34.1883 59.0123 34.1987 59.329 34.1987 61.9977C34.1987 64.6665 34.1883 64.9831 34.1404 66.0373C34.0958 67.0123 33.9329 67.5415 33.796 67.8935C33.6148 68.3602 33.3977 68.6925 33.0477 69.0423C32.6977 69.3923 32.3654 69.609 31.8985 69.7902C31.5464 69.9277 31.0168 70.0902 30.0418 70.1348C28.9876 70.1827 28.671 70.1931 26.0009 70.1931C23.3307 70.1931 23.0142 70.1827 21.9601 70.1348C20.9851 70.0898 20.4559 69.9269 20.1032 69.79C19.6365 69.6087 19.3032 69.3921 18.9532 69.0421C18.6032 68.6921 18.3865 68.3596 18.2048 67.8927C18.0679 67.5406 17.9048 67.0115 17.8604 66.0365C17.8125 64.9823 17.8029 64.6656 17.8029 61.9952C17.8029 59.3248 17.8125 59.0098 17.8604 57.9556C17.905 56.9806 18.0679 56.4515 18.2048 56.099C18.3861 55.6323 18.6032 55.299 18.9532 54.949C19.3032 54.599 19.6365 54.3823 20.1032 54.2006C20.4557 54.0631 20.9851 53.9006 21.9601 53.8558C22.8826 53.8142 23.2401 53.8017 25.1038 53.7996V53.8021ZM31.3389 55.4625C30.6764 55.4625 30.1389 55.9994 30.1389 56.6621C30.1389 57.3246 30.6764 57.8621 31.3389 57.8621C32.0014 57.8621 32.5389 57.3246 32.5389 56.6621C32.5389 55.9996 32.0014 55.4621 31.3389 55.4621V55.4625ZM26.0009 56.8646C23.1649 56.8646 20.8655 59.164 20.8655 62C20.8655 64.836 23.1649 67.1344 26.0009 67.1344C28.837 67.1344 31.1356 64.836 31.1356 62C31.1356 59.164 28.8368 56.8646 26.0007 56.8646H26.0009ZM26.0009 58.6667C27.8418 58.6667 29.3343 60.159 29.3343 62C29.3343 63.8408 27.8418 65.3333 26.0009 65.3333C24.1599 65.3333 22.6676 63.8408 22.6676 62C22.6676 60.159 24.1599 58.6667 26.0009 58.6667Z" fill="#313233"/>
</g>
<path fill-rule="evenodd" clip-rule="evenodd" d="M33.9536 92.9775C33.9611 93.1974 33.9636 93.4172 33.9636 93.6371C33.9636 100.304 29.8367 108 22.29 108C19.9718 108 17.8162 107.16 16 105.731C16.321 105.771 16.6471 105.801 16.9782 105.801C18.9003 105.801 20.6706 104.991 22.0749 103.632C20.2795 103.602 18.7635 102.133 18.2407 100.134C18.4917 100.194 18.7502 100.224 19.0145 100.224C19.3872 100.224 19.7492 100.164 20.0961 100.044C18.2173 99.5843 16.8022 97.5453 16.8022 95.0965C16.8022 95.0666 16.8022 95.0565 16.8022 95.0365C17.3559 95.4063 17.9897 95.6361 18.6626 95.6661C17.5602 94.7565 16.8355 93.2074 16.8355 91.4582C16.8355 90.5387 17.0373 89.6691 17.3926 88.9195C19.4156 91.9779 22.4401 93.987 25.8499 94.1968C25.7799 93.827 25.744 93.4373 25.744 93.0475C25.744 90.2589 27.581 88 29.8475 88C31.0275 88 32.0932 88.6098 32.8412 89.5893C33.7777 89.3694 34.6549 88.9496 35.4488 88.3699C35.1411 89.5493 34.4915 90.5386 33.6426 91.1583C34.4731 91.0384 35.2653 90.7687 36 90.3689C35.4488 91.3784 34.755 92.2678 33.9536 92.9775Z" fill="#313233"/>
<path d="M30.1048 129.473C29.0473 128.482 27.7022 127.977 26.2041 127.977C23.5464 127.977 21.2968 129.736 20.4944 132.1C20.2904 132.7 20.1744 133.341 20.1744 134C20.1744 134.659 20.2903 135.3 20.4944 135.9C21.2968 138.264 23.5464 140.023 26.2041 140.023C27.577 140.023 28.7458 139.668 29.6596 139.068C30.7402 138.359 31.4592 137.3 31.6957 136.05H26.2041V132.182H35.8145C35.9351 132.836 36 133.518 36 134.227C36 137.273 34.8868 139.836 32.9573 141.577C31.269 143.105 28.9592 144 26.2041 144C22.2152 144 18.7644 141.759 17.0854 138.491C16.3943 137.141 16 135.614 16 134C16 132.386 16.3942 130.859 17.0853 129.509C18.7644 126.241 22.2152 124 26.2041 124C28.9546 124 31.2644 124.991 33.0315 126.605L30.1048 129.473Z" fill="#313233"/>
<path fill-rule="evenodd" clip-rule="evenodd" d="M26.5392 160.012C29.0158 160.133 31.3235 161.15 33.0861 162.907C34.9662 164.78 36.001 167.27 36 169.918C35.9977 175.382 31.5301 179.828 26.0419 179.828C23.978 179.828 22.338 179.197 21.279 178.622L16 180L17.4128 174.864C16.5413 173.361 16.0828 171.657 16.0835 169.91C16.0857 164.446 20.5529 160 26.0417 160L26.5392 160.012ZM21.5235 176.828L21.8258 177.006C23.0966 177.757 24.5533 178.154 26.0385 178.154H26.0418C30.6038 178.154 34.3168 174.459 34.3186 169.917C34.3195 167.716 33.4594 165.647 31.8967 164.09C30.334 162.533 28.2559 161.675 26.0451 161.674C21.4797 161.674 17.7667 165.369 17.7648 169.91C17.7642 171.467 18.2018 172.983 19.0303 174.294L19.2271 174.606L18.391 177.646L21.5235 176.828ZM31.0587 172.274C30.9965 172.171 30.8307 172.109 30.5818 171.985C30.333 171.861 29.1097 171.262 28.8816 171.179C28.6536 171.097 28.4877 171.056 28.3218 171.303C28.156 171.551 27.6791 172.109 27.5339 172.274C27.3888 172.44 27.2436 172.46 26.9949 172.336C26.7461 172.212 25.9443 171.951 24.9939 171.107C24.2542 170.451 23.7548 169.64 23.6097 169.392C23.4646 169.144 23.5942 169.01 23.7188 168.886C23.8307 168.775 23.9676 168.597 24.092 168.453C24.2165 168.308 24.2579 168.205 24.3409 168.04C24.4238 167.874 24.3823 167.73 24.3201 167.606C24.2579 167.482 23.7603 166.263 23.553 165.767C23.3509 165.284 23.1458 165.35 22.9931 165.342C22.8481 165.335 22.6821 165.333 22.5162 165.333C22.3503 165.333 22.0808 165.395 21.8527 165.643C21.6246 165.891 20.9818 166.49 20.9818 167.709C20.9818 168.928 21.8734 170.105 21.9979 170.271C22.1223 170.436 23.7524 172.937 26.2484 174.01C26.8421 174.265 27.3055 174.417 27.6669 174.531C28.263 174.72 28.8054 174.693 29.2341 174.629C29.7122 174.558 30.7063 174.03 30.9136 173.452C31.1209 172.873 31.1209 172.378 31.0587 172.274Z" fill="#313233"/>
<rect x="0.5" y="0.5" width="51" height="195" rx="4.5" stroke="#9747FF" stroke-dasharray="10 5"/>
<defs>
<clipPath id="clip0_75_1658">
<rect width="20" height="20" fill="white" transform="translate(16 52)"/>
</clipPath>
</defs>
</svg>
