<svg width="52" height="88" viewBox="0 0 52 88" fill="none" xmlns="http://www.w3.org/2000/svg">
<path d="M27.4416 18.925L28.9083 21.8583C29.1083 22.2666 29.6416 22.6583 30.0916 22.7333L32.7499 23.175C34.4499 23.4583 34.8499 24.6916 33.6249 25.9083L31.5583 27.975C31.2083 28.325 31.0166 29 31.1249 29.4833L31.7166 32.0416C32.1833 34.0666 31.1083 34.85 29.3166 33.7916L26.8249 32.3166C26.3749 32.05 25.6333 32.05 25.1749 32.3166L22.6833 33.7916C20.8999 34.85 19.8166 34.0583 20.2833 32.0416L20.8749 29.4833C20.9833 29 20.7916 28.325 20.4416 27.975L18.3749 25.9083C17.1583 24.6916 17.5499 23.4583 19.2499 23.175L21.9083 22.7333C22.3499 22.6583 22.8833 22.2666 23.0833 21.8583L24.5499 18.925C25.3499 17.3333 26.6499 17.3333 27.4416 18.925Z" stroke="#313233" stroke-linecap="round" stroke-linejoin="round"/>
<path d="M27.4416 54.925L28.9083 57.8583C29.1083 58.2666 29.6416 58.6583 30.0916 58.7333L32.7499 59.175C34.4499 59.4583 34.8499 60.6916 33.6249 61.9083L31.5583 63.975C31.2083 64.325 31.0166 65 31.1249 65.4833L31.7166 68.0416C32.1833 70.0666 31.1083 70.85 29.3166 69.7916L26.8249 68.3166C26.3749 68.05 25.6333 68.05 25.1749 68.3166L22.6833 69.7916C20.8999 70.85 19.8166 70.0583 20.2833 68.0416L20.8749 65.4833C20.9833 65 20.7916 64.325 20.4416 63.975L18.3749 61.9083C17.1583 60.6916 17.5499 59.4583 19.2499 59.175L21.9083 58.7333C22.3499 58.6583 22.8833 58.2666 23.0833 57.8583L24.5499 54.925C25.3499 53.3333 26.6499 53.3333 27.4416 54.925Z" fill="#313233"/>
<rect x="0.5" y="0.5" width="51" height="87" rx="4.5" stroke="#9747FF" stroke-dasharray="10 5"/>
</svg>
