<svg width="52" height="88" viewBox="0 0 52 88" fill="none" xmlns="http://www.w3.org/2000/svg">
<path d="M19.416 27.3296H22.6198V34.7944C22.6198 35.8837 23.9975 36.4283 24.7023 35.5953L32.5516 26.6568C33.5127 25.5675 33.0962 24.6704 31.6545 24.6704H28.4507V17.2056C28.4507 16.1163 27.0731 15.5717 26.3683 16.4047L18.519 25.3432C17.5578 26.4325 17.9743 27.3296 19.416 27.3296Z" fill="#313233" stroke="#313233" stroke-miterlimit="10" stroke-linecap="round" stroke-linejoin="round"/>
<path d="M30.2 52H21.8C18.1714 52 16 54.1714 16 57.8V66.2C16 69.8286 18.1714 72 21.8 72H30.2C33.8286 72 36 69.8286 36 66.2V57.8C36 54.1714 33.8286 52 30.2 52ZM30.7714 62.4571L26 67.8857L25.4286 68.5429C24.6571 69.4286 24 69.2 24 68V62.9143H21.8286C20.8286 62.9143 20.5714 62.3143 21.2286 61.5714L26 56.1429L26.5714 55.4857C27.3429 54.6 28 54.8286 28 56.0286V61.1143H30.1714C31.1714 61.0857 31.4286 61.7143 30.7714 62.4571Z" fill="#313233" stroke="#313233"/>
<rect x="0.5" y="0.5" width="51" height="87" rx="4.5" stroke="#9747FF" stroke-dasharray="10 5"/>
</svg>
