<svg width="52" height="88" viewBox="0 0 52 88" fill="none" xmlns="http://www.w3.org/2000/svg">
<path d="M33.2917 27.0417C33.2917 31.0667 30.025 34.3333 26 34.3333C21.975 34.3333 18.7084 31.0667 18.7084 27.0417C18.7084 23.0167 21.975 19.75 26 19.75C30.025 19.75 33.2917 23.0167 33.2917 27.0417Z" stroke="#313233" stroke-linecap="round" stroke-linejoin="round"/>
<path d="M26 22.6667V26.8333" stroke="#313233" stroke-linecap="round" stroke-linejoin="round"/>
<path d="M23.5 17.6667H28.5" stroke="#313233" stroke-miterlimit="10" stroke-linecap="round" stroke-linejoin="round"/>
<path d="M26 55.875C22.0167 55.875 18.775 59.1167 18.775 63.1C18.775 67.0833 22.0167 70.3333 26 70.3333C29.9834 70.3333 33.225 67.0917 33.225 63.1083C33.225 59.125 29.9834 55.875 26 55.875ZM26.625 62.8333C26.625 63.175 26.3417 63.4583 26 63.4583C25.6584 63.4583 25.375 63.175 25.375 62.8333V58.6667C25.375 58.325 25.6584 58.0417 26 58.0417C26.3417 58.0417 26.625 58.325 26.625 58.6667V62.8333Z" fill="#313233"/>
<path d="M28.4084 54.875H23.5917C23.2584 54.875 22.9917 54.6083 22.9917 54.275C22.9917 53.9417 23.2584 53.6667 23.5917 53.6667H28.4084C28.7417 53.6667 29.0084 53.9333 29.0084 54.2667C29.0084 54.6 28.7417 54.875 28.4084 54.875Z" fill="#313233"/>
<rect x="0.5" y="0.5" width="51" height="87" rx="4.5" stroke="#9747FF" stroke-dasharray="10 5"/>
</svg>
