<svg width="52" height="88" viewBox="0 0 52 88" fill="none" xmlns="http://www.w3.org/2000/svg">
<path d="M26 22.6667V26.8333" stroke="#313233" stroke-linecap="round" stroke-linejoin="round"/>
<path d="M25.9999 34.3333C21.9749 34.3333 18.7083 31.0667 18.7083 27.0417C18.7083 23.0167 21.9749 19.75 25.9999 19.75C30.0249 19.75 33.2916 23.0167 33.2916 27.0417" stroke="#313233" stroke-linecap="round" stroke-linejoin="round"/>
<path d="M23.5 17.6667H28.5" stroke="#313233" stroke-miterlimit="10" stroke-linecap="round" stroke-linejoin="round"/>
<path d="M28.4167 31.4167V30.45C28.4167 29.2583 29.2667 28.7667 30.3001 29.3667L31.1334 29.85L31.9667 30.3333C33.0001 30.9333 33.0001 31.9083 31.9667 32.5083L31.1334 32.9917L30.3001 33.475C29.2667 34.075 28.4167 33.5833 28.4167 32.3917V31.4167Z" stroke="#313233" stroke-miterlimit="10" stroke-linecap="round" stroke-linejoin="round"/>
<path d="M28.4084 54.875H23.5917C23.2584 54.875 22.9917 54.6083 22.9917 54.275C22.9917 53.9417 23.2584 53.6667 23.5917 53.6667H28.4084C28.7417 53.6667 29.0084 53.9333 29.0084 54.2667C29.0084 54.6 28.7417 54.875 28.4084 54.875Z" fill="#313233"/>
<path d="M32.6417 64.5H30.1917C29.1333 64.5 28.5 65.1333 28.5 66.1917V68.6417C28.5 69.7 29.1333 70.3333 30.1917 70.3333H32.6417C33.7 70.3333 34.3333 69.7 34.3333 68.6417V66.1917C34.3333 65.1333 33.7 64.5 32.6417 64.5ZM32.4083 68.2167L31.425 68.7833C31.225 68.9 31.025 68.9583 30.8417 68.9583C30.7 68.9583 30.575 68.925 30.4583 68.8583C30.1917 68.7 30.0417 68.3917 30.0417 67.9833V66.85C30.0417 66.4417 30.1917 66.1333 30.4583 65.975C30.725 65.8167 31.0667 65.85 31.425 66.05L32.4083 66.6167C32.7583 66.825 32.9583 67.1083 32.9583 67.4167C32.9583 67.725 32.7667 68.0083 32.4083 68.2167Z" fill="#313233"/>
<path d="M27.6666 68.6417V66.1917C27.6666 64.6833 28.6832 63.6667 30.1916 63.6667H32.6416C32.8332 63.6667 33.0166 63.6833 33.1916 63.7167C33.2082 63.5167 33.2249 63.3167 33.2249 63.1083C33.2249 59.1167 29.9832 55.875 25.9999 55.875C22.0166 55.875 18.7749 59.1167 18.7749 63.1083C18.7749 67.0917 22.0166 70.3333 25.9999 70.3333C26.7082 70.3333 27.3832 70.2167 28.0332 70.0333C27.7999 69.6417 27.6666 69.175 27.6666 68.6417ZM26.6249 62.8333C26.6249 63.175 26.3416 63.4583 25.9999 63.4583C25.6582 63.4583 25.3749 63.175 25.3749 62.8333V58.6667C25.3749 58.325 25.6582 58.0417 25.9999 58.0417C26.3416 58.0417 26.6249 58.325 26.6249 58.6667V62.8333Z" fill="#313233"/>
<rect x="0.5" y="0.5" width="51" height="87" rx="4.5" stroke="#9747FF" stroke-dasharray="10 5"/>
</svg>
