<svg width="52" height="88" viewBox="0 0 52 88" fill="none" xmlns="http://www.w3.org/2000/svg">
<path d="M25.9999 34.3333C21.9749 34.3333 18.7083 31.0667 18.7083 27.0417C18.7083 23.0167 21.9749 19.75 25.9999 19.75C30.0249 19.75 33.2916 23.0167 33.2916 27.0417" stroke="#313233" stroke-linecap="round" stroke-linejoin="round"/>
<path d="M26 22.6667V26.8333" stroke="#313233" stroke-linecap="round" stroke-linejoin="round"/>
<path d="M23.5 17.6667H28.5" stroke="#313233" stroke-miterlimit="10" stroke-linecap="round" stroke-linejoin="round"/>
<path d="M31.8333 30.1667V33.5" stroke="#313233" stroke-linecap="round" stroke-linejoin="round"/>
<path d="M29.3333 30.1667V33.5" stroke="#313233" stroke-linecap="round" stroke-linejoin="round"/>
<path d="M28.4084 54.875H23.5917C23.2584 54.875 22.9917 54.6083 22.9917 54.275C22.9917 53.9417 23.2584 53.6667 23.5917 53.6667H28.4084C28.7417 53.6667 29.0084 53.9333 29.0084 54.2667C29.0084 54.6 28.7417 54.875 28.4084 54.875Z" fill="#313233"/>
<path d="M27.6666 68.6417V66.1917C27.6666 64.6833 28.6832 63.6667 30.1916 63.6667H32.6416C32.8332 63.6667 33.0166 63.6833 33.1916 63.7167C33.2082 63.5167 33.2249 63.3167 33.2249 63.1083C33.2249 59.1167 29.9832 55.875 25.9999 55.875C22.0166 55.875 18.7749 59.1167 18.7749 63.1083C18.7749 67.0917 22.0166 70.3333 25.9999 70.3333C26.7082 70.3333 27.3832 70.2167 28.0332 70.0333C27.7999 69.6417 27.6666 69.175 27.6666 68.6417ZM26.6249 62.8333C26.6249 63.175 26.3416 63.4583 25.9999 63.4583C25.6582 63.4583 25.3749 63.175 25.3749 62.8333V58.6667C25.3749 58.325 25.6582 58.0417 25.9999 58.0417C26.3416 58.0417 26.6249 58.325 26.6249 58.6667V62.8333Z" fill="#313233"/>
<path d="M32.6417 64.5H30.2C29.1333 64.5 28.5 65.1333 28.5 66.1917V68.6417C28.5 69.7 29.1333 70.3333 30.2 70.3333H32.6417C33.7 70.3333 34.3333 69.7 34.3333 68.6417V66.1917C34.3333 65.1333 33.7 64.5 32.6417 64.5ZM30.9333 68.7167C30.9333 68.9833 30.7167 69.2 30.4417 69.2C30.175 69.2 29.9583 68.9833 29.9583 68.7167V66.1167C29.9583 65.85 30.175 65.6333 30.4417 65.6333C30.7167 65.6333 30.9333 65.85 30.9333 66.1167V68.7167ZM32.875 68.7167C32.875 68.9833 32.6583 69.2 32.3917 69.2C32.125 69.2 31.9 68.9833 31.9 68.7167V66.1167C31.9 65.85 32.125 65.6333 32.3917 65.6333C32.6583 65.6333 32.875 65.85 32.875 66.1167V68.7167Z" fill="#313233"/>
<rect x="0.5" y="0.5" width="51" height="87" rx="4.5" stroke="#9747FF" stroke-dasharray="10 5"/>
</svg>
