<svg width="20" height="20" viewBox="0 0 20 20" fill="none" xmlns="http://www.w3.org/2000/svg">
<g clip-path="url(#clip0_75_1902)">
<path d="M8.40005 0C8.29396 0 8.19222 0.0421427 8.11721 0.117157C8.04219 0.192172 8.00005 0.293913 8.00005 0.4V1.2C8.00005 1.30609 8.04219 1.40783 8.11721 1.48284C8.19222 1.55786 8.29396 1.6 8.40005 1.6H9.00005V2.659C4.67285 3.157 1.30005 6.8418 1.30005 11.3C1.30005 16.0966 5.20345 20 10 20C14.7966 20 18.7 16.0966 18.7 11.3C18.7014 9.65826 18.2353 8.05008 17.356 6.6636L18.2036 5.9774L18.5812 6.4438C18.6143 6.48464 18.655 6.51858 18.7012 6.54367C18.7474 6.56876 18.798 6.58451 18.8502 6.59003C18.9025 6.59555 18.9553 6.59072 19.0057 6.57582C19.0561 6.56092 19.103 6.53624 19.1439 6.5032L19.7659 5.9996C19.8482 5.93279 19.9006 5.83603 19.9117 5.73057C19.9227 5.62511 19.8914 5.51959 19.8246 5.4372L17.811 2.95C17.778 2.90916 17.7372 2.87522 17.6911 2.85013C17.6449 2.82504 17.5943 2.80929 17.5421 2.80377C17.4898 2.79825 17.437 2.80308 17.3866 2.81798C17.3362 2.83288 17.2893 2.85756 17.2484 2.8906L16.6264 3.3942C16.5441 3.46101 16.4917 3.55777 16.4806 3.66323C16.4696 3.76869 16.5009 3.87421 16.5676 3.9566L16.9454 4.423L16.1014 5.1058C14.7541 3.7782 12.9766 2.887 11 2.6594V1.6H11.6C11.7061 1.6 11.8079 1.55786 11.8829 1.48284C11.9579 1.40783 12 1.30609 12 1.2V0.4C12 0.293913 11.9579 0.192172 11.8829 0.117157C11.8079 0.0421427 11.7061 0 11.6 0L8.40005 0ZM10 4C14.04 4 17.3 7.26 17.3 11.3C17.3 15.34 14.04 18.6 10 18.6C5.96005 18.6 2.70005 15.34 2.70005 11.3C2.70005 7.26 5.96005 4 10 4ZM10.0004 5.4886L10 11.3L14.6468 14.7894C15.295 13.9262 15.69 12.8995 15.7874 11.8245C15.8848 10.7494 15.6809 9.66846 15.1984 8.7028C14.716 7.73717 13.9742 6.925 13.0561 6.35732C12.138 5.78964 11.0799 5.4889 10.0004 5.4888V5.4886Z" fill="#313233"/>
</g>
<defs>
<clipPath id="clip0_75_1902">
<rect width="20" height="20" fill="white"/>
</clipPath>
</defs>
</svg>
