<svg width="20" height="20" viewBox="0 0 20 20" fill="none" xmlns="http://www.w3.org/2000/svg">
<path d="M9.9999 7.80005C9.76998 7.80005 9.54522 7.86823 9.35405 7.99597C9.16288 8.1237 9.01388 8.30526 8.92589 8.51768C8.83791 8.7301 8.81488 8.96384 8.85974 9.18934C8.9046 9.41484 9.01531 9.62198 9.17789 9.78456C9.34047 9.94714 9.54761 10.0579 9.77311 10.1027C9.99861 10.1476 10.2324 10.1245 10.4448 10.0366C10.6572 9.94857 10.8387 9.79957 10.9665 9.6084C11.0942 9.41723 11.1624 9.19247 11.1624 8.96255C11.1624 8.65424 11.0399 8.35855 10.8219 8.14054C10.6039 7.92253 10.3082 7.80005 9.9999 7.80005Z" stroke="#313233" stroke-linecap="round" stroke-linejoin="round"/>
<path d="M16.5875 1.875L10.1791 3.39167C10.061 3.41663 9.93892 3.41663 9.82078 3.39167L3.41245 1.875C3.20691 1.875 3.00978 1.95665 2.86444 2.10199C2.7191 2.24733 2.63745 2.44446 2.63745 2.65V15.8333C2.63745 16.0389 2.7191 16.236 2.86444 16.3813C3.00978 16.5267 3.20691 16.6083 3.41245 16.6083L9.82078 18.1125C9.93845 18.1416 10.0614 18.1416 10.1791 18.1125L16.5875 16.6083C16.793 16.6083 16.9901 16.5267 17.1355 16.3813C17.2808 16.236 17.3624 16.0389 17.3624 15.8333V2.65C17.3624 2.54823 17.3424 2.44745 17.3035 2.35342C17.2645 2.25939 17.2074 2.17396 17.1355 2.10199C17.0635 2.03003 16.9781 1.97294 16.884 1.93399C16.79 1.89505 16.6892 1.875 16.5875 1.875ZM10.1916 15.8333C10.1743 15.8545 10.153 15.8719 10.1288 15.8846C10.1047 15.8973 10.0783 15.9051 10.0511 15.9074C10.0239 15.9098 9.99649 15.9066 9.97053 15.8982C9.94458 15.8898 9.92058 15.8762 9.89995 15.8583L9.87495 15.8333C9.20412 15.0583 6.61662 11.8625 6.61662 9.21667C6.61662 8.31935 6.97308 7.45879 7.60757 6.82429C8.24207 6.18979 9.10264 5.83333 9.99995 5.83333C10.8973 5.83333 11.7578 6.18979 12.3923 6.82429C13.0268 7.45879 13.3833 8.31935 13.3833 9.21667C13.3833 11.8292 10.8333 15.0208 10.1916 15.8333Z" stroke="#313233" stroke-linecap="round" stroke-linejoin="round"/>
</svg>
