<svg width="52" height="304" viewBox="0 0 52 304" fill="none" xmlns="http://www.w3.org/2000/svg">
<path d="M28.3194 26.3333C28.3194 27.4322 27.4321 28.3195 26.3333 28.3195C25.2344 28.3195 24.3472 27.4322 24.3472 26.3333C24.3472 25.2345 25.2344 24.3472 26.3333 24.3472C27.4321 24.3472 28.3194 25.2345 28.3194 26.3333Z" stroke="#313233" stroke-linecap="round" stroke-linejoin="round"/>
<path d="M32.2382 27.8629L32.2377 27.8636C30.7147 30.2578 28.5725 31.5764 26.3332 31.5764C24.0939 31.5764 21.9517 30.2578 20.4287 27.8636L20.4283 27.8629C20.1794 27.473 20.0381 26.9166 20.0381 26.3299C20.0381 25.7431 20.1794 25.1867 20.4283 24.7968L20.4287 24.7961C21.9517 22.4019 24.0939 21.0833 26.3332 21.0833C28.5725 21.0833 30.7147 22.4019 32.2377 24.7961L32.2382 24.7968C32.487 25.1867 32.6284 25.7431 32.6284 26.3299C32.6284 26.9166 32.487 27.473 32.2382 27.8629Z" stroke="#313233" stroke-linecap="round" stroke-linejoin="round"/>
<mask id="path-4-inside-1_75_1503" fill="white">
<path d="M21.6316 66.3692L26.0008 62L21.6316 66.3692ZM30.3699 57.6308L25.9999 62L30.3699 57.6308ZM25.9999 62L21.6316 57.6308L25.9999 62ZM26.0008 62L30.3699 66.3692L26.0008 62Z"/>
</mask>
<path d="M20.9245 65.6621C20.534 66.0526 20.534 66.6857 20.9245 67.0763C21.315 67.4668 21.9482 67.4668 22.3387 67.0763L20.9245 65.6621ZM26.7079 62.7071C27.0984 62.3166 27.0984 61.6834 26.7079 61.2929C26.3173 60.9024 25.6842 60.9024 25.2937 61.2929L26.7079 62.7071ZM31.077 58.338C31.4675 57.9475 31.4676 57.3144 31.0771 56.9238C30.6866 56.5332 30.0534 56.5332 29.6629 56.9237L31.077 58.338ZM25.2929 61.2928C24.9023 61.6833 24.9023 62.3165 25.2928 62.707C25.6832 63.0976 26.3164 63.0977 26.707 62.7072L25.2929 61.2928ZM25.2928 62.707C25.6832 63.0976 26.3164 63.0977 26.707 62.7072C27.0975 62.3167 27.0976 61.6835 26.7071 61.293L25.2928 62.707ZM22.3388 56.9238C21.9483 56.5332 21.3151 56.5332 20.9246 56.9237C20.534 57.3141 20.5339 57.9473 20.9244 58.3379L22.3388 56.9238ZM26.7079 61.2929C26.3173 60.9024 25.6842 60.9024 25.2937 61.2929C24.9031 61.6834 24.9031 62.3166 25.2937 62.7071L26.7079 61.2929ZM29.6628 67.0763C30.0533 67.4668 30.6865 67.4668 31.077 67.0763C31.4676 66.6857 31.4676 66.0526 31.077 65.6621L29.6628 67.0763ZM22.3387 67.0763L26.7079 62.7071L25.2937 61.2929L20.9245 65.6621L22.3387 67.0763ZM29.6629 56.9237L25.2929 61.2928L26.707 62.7072L31.077 58.338L29.6629 56.9237ZM26.7071 61.293L22.3388 56.9238L20.9244 58.3379L25.2928 62.707L26.7071 61.293ZM25.2937 62.7071L29.6628 67.0763L31.077 65.6621L26.7079 61.2929L25.2937 62.7071Z" fill="#313233" mask="url(#path-4-inside-1_75_1503)"/>
<path d="M24.3333 94.3472C24.7012 94.3472 25.0438 94.4464 25.3387 94.6208L22.6208 97.3388C22.4464 97.0439 22.3472 96.7013 22.3472 96.3333C22.3472 95.2345 23.2344 94.3472 24.3333 94.3472Z" stroke="#313233" stroke-linecap="round" stroke-linejoin="round"/>
<mask id="path-7-inside-2_75_1503" fill="white">
<path d="M28.3749 92.0069C27.1596 91.0903 25.7707 90.5903 24.3332 90.5903C21.8818 90.5903 19.5971 92.0347 18.0068 94.5347C17.3818 95.5139 17.3818 97.1597 18.0068 98.1389C18.5554 99 19.1943 99.743 19.8888 100.34"/>
</mask>
<path d="M27.7727 92.8053C28.2136 93.1379 28.8407 93.05 29.1732 92.6091C29.5058 92.1682 29.418 91.5412 28.9771 91.2086L27.7727 92.8053ZM18.0068 94.5347L18.8498 95.0728L18.8506 95.0714L18.0068 94.5347ZM18.0068 98.1389L18.8502 97.6016L18.8498 97.6008L18.0068 98.1389ZM19.2367 101.098C19.6555 101.459 20.2869 101.411 20.647 100.992C21.0071 100.574 20.9596 99.9422 20.5408 99.5821L19.2367 101.098ZM28.9771 91.2086C27.6069 90.1751 26.0102 89.5903 24.3332 89.5903V91.5903C25.5312 91.5903 26.7123 92.0055 27.7727 92.8053L28.9771 91.2086ZM24.3332 89.5903C21.4576 89.5903 18.8879 91.2864 17.1631 93.998L18.8506 95.0714C20.3063 92.783 22.306 91.5903 24.3332 91.5903V89.5903ZM17.1639 93.9967C16.7242 94.6856 16.5381 95.5416 16.5381 96.3368C16.5381 97.132 16.7242 97.988 17.1639 98.6769L18.8498 97.6008C18.6645 97.3106 18.5381 96.8541 18.5381 96.3368C18.5381 95.8195 18.6645 95.363 18.8498 95.0728L17.1639 93.9967ZM17.1635 98.6762C17.7604 99.6131 18.4622 100.432 19.2367 101.098L20.5408 99.5821C19.9265 99.0538 19.3505 98.3869 18.8502 97.6016L17.1635 98.6762Z" fill="#313233" mask="url(#path-7-inside-2_75_1503)"/>
<mask id="path-9-inside-3_75_1503" fill="white">
<path d="M21.8472 101.563C22.6388 101.896 23.4791 102.076 24.3333 102.076C26.7847 102.076 29.0694 100.632 30.6597 98.132C31.2847 97.1528 31.2847 95.507 30.6597 94.5278C30.4305 94.1667 30.1805 93.8264 29.9236 93.507"/>
</mask>
<path d="M22.2352 100.641C21.7262 100.427 21.1399 100.665 20.9255 101.174C20.7112 101.683 20.9501 102.27 21.4591 102.484L22.2352 100.641ZM30.6597 98.132L29.8167 97.5939L29.8159 97.5952L30.6597 98.132ZM30.6597 94.5278L29.8153 95.0636L29.8167 95.0658L30.6597 94.5278ZM30.7028 92.8802C30.3566 92.4499 29.7271 92.3816 29.2968 92.7277C28.8664 93.0739 28.7982 93.7034 29.1443 94.1337L30.7028 92.8802ZM21.4591 102.484C22.3653 102.866 23.3371 103.076 24.3333 103.076V101.076C23.6212 101.076 22.9124 100.926 22.2352 100.641L21.4591 102.484ZM24.3333 103.076C27.2089 103.076 29.7786 101.38 31.5034 98.6687L29.8159 97.5952C28.3602 99.8837 26.3605 101.076 24.3333 101.076V103.076ZM31.5026 98.67C31.9423 97.9811 32.1284 97.1251 32.1284 96.3299C32.1284 95.5346 31.9423 94.6787 31.5026 93.9898L29.8167 95.0658C30.002 95.3561 30.1284 95.8126 30.1284 96.3299C30.1284 96.8471 30.002 97.3037 29.8167 97.5939L31.5026 98.67ZM31.504 93.992C31.2511 93.5934 30.9782 93.2227 30.7028 92.8802L29.1443 94.1337C29.3828 94.4301 29.6099 94.7399 29.8153 95.0636L31.504 93.992Z" fill="#313233" mask="url(#path-9-inside-3_75_1503)"/>
<mask id="path-11-inside-4_75_1503" fill="white">
<path d="M26.7708 96.8195C26.5903 97.7986 25.7917 98.5972 24.8125 98.7778L26.7708 96.8195Z"/>
</mask>
<path d="M27.7543 97.0008C27.8544 96.4577 27.4953 95.9362 26.9522 95.836C26.409 95.7359 25.8876 96.095 25.7874 96.6381L27.7543 97.0008ZM24.6312 97.7944C24.088 97.8945 23.7289 98.416 23.8291 98.9591C23.9292 99.5023 24.4507 99.8614 24.9938 99.7612L24.6312 97.7944ZM25.7874 96.6381C25.6821 97.2095 25.2025 97.689 24.6312 97.7944L24.9938 99.7612C26.3808 99.5055 27.4985 98.3878 27.7543 97.0008L25.7874 96.6381Z" fill="#313233" mask="url(#path-11-inside-4_75_1503)"/>
<path d="M22.5764 98.0903L17.3889 103.278" stroke="#313233" stroke-linecap="round" stroke-linejoin="round"/>
<path d="M31.2778 89.3889L26.0903 94.5764" stroke="#313233" stroke-linecap="round" stroke-linejoin="round"/>
<mask id="path-15-inside-5_75_1503" fill="white">
<path d="M21 134L26 139L34.3333 129"/>
</mask>
<path d="M21.7071 133.293C21.3166 132.902 20.6834 132.902 20.2929 133.293C19.9024 133.683 19.9024 134.317 20.2929 134.707L21.7071 133.293ZM26 139L25.2929 139.707C25.4916 139.906 25.7646 140.012 26.0453 139.999C26.326 139.986 26.5884 139.856 26.7682 139.64L26 139ZM35.1016 129.64C35.4551 129.216 35.3978 128.585 34.9735 128.232C34.5492 127.878 33.9187 127.936 33.5651 128.36L35.1016 129.64ZM20.2929 134.707L25.2929 139.707L26.7071 138.293L21.7071 133.293L20.2929 134.707ZM26.7682 139.64L35.1016 129.64L33.5651 128.36L25.2318 138.36L26.7682 139.64Z" fill="#313233" mask="url(#path-15-inside-5_75_1503)"/>
<mask id="path-17-inside-6_75_1503" fill="white">
<path d="M32.5999 167.458L27.1666 172.892C26.5249 173.533 25.4749 173.533 24.8332 172.892L19.3999 167.458"/>
</mask>
<path d="M33.307 168.165C33.6975 167.775 33.6975 167.142 33.307 166.751C32.9165 166.361 32.2833 166.361 31.8928 166.751L33.307 168.165ZM20.107 166.751C19.7165 166.361 19.0833 166.361 18.6928 166.751C18.3023 167.142 18.3023 167.775 18.6928 168.165L20.107 166.751ZM31.8928 166.751L26.4595 172.185L27.8737 173.599L33.307 168.165L31.8928 166.751ZM26.4595 172.185C26.2083 172.436 25.7915 172.436 25.5403 172.185L24.1261 173.599C25.1583 174.631 26.8415 174.631 27.8737 173.599L26.4595 172.185ZM25.5403 172.185L20.107 166.751L18.6928 168.165L24.1261 173.599L25.5403 172.185Z" fill="#313233" mask="url(#path-17-inside-6_75_1503)"/>
<mask id="path-19-inside-7_75_1503" fill="white">
<path d="M32.5999 208.542L27.1666 203.108C26.5249 202.467 25.4749 202.467 24.8332 203.108L19.3999 208.542"/>
</mask>
<path d="M31.8928 209.249C32.2833 209.639 32.9165 209.639 33.307 209.249C33.6975 208.858 33.6975 208.225 33.307 207.835L31.8928 209.249ZM27.1666 203.108L26.4595 203.815L27.1666 203.108ZM24.8332 203.108L25.5403 203.815L24.8332 203.108ZM18.6928 207.835C18.3023 208.225 18.3023 208.858 18.6928 209.249C19.0833 209.639 19.7165 209.639 20.107 209.249L18.6928 207.835ZM33.307 207.835L27.8737 202.401L26.4595 203.815L31.8928 209.249L33.307 207.835ZM27.8737 202.401C26.8415 201.369 25.1583 201.369 24.1261 202.401L25.5403 203.815C25.7915 203.564 26.2083 203.564 26.4595 203.815L27.8737 202.401ZM24.1261 202.401L18.6928 207.835L20.107 209.249L25.5403 203.815L24.1261 202.401Z" fill="#313233" mask="url(#path-19-inside-7_75_1503)"/>
<path d="M25.1667 248.667C29.3089 248.667 32.6667 245.309 32.6667 241.167C32.6667 237.025 29.3089 233.667 25.1667 233.667C21.0246 233.667 17.6667 237.025 17.6667 241.167C17.6667 245.309 21.0246 248.667 25.1667 248.667Z" stroke="#313233" stroke-linecap="round" stroke-linejoin="round"/>
<path d="M31.775 249.242C32.2167 250.575 33.225 250.708 34 249.542C34.7084 248.475 34.2417 247.6 32.9584 247.6C32.0084 247.592 31.475 248.333 31.775 249.242Z" stroke="#313233" stroke-linecap="round" stroke-linejoin="round"/>
<rect x="0.5" y="0.5" width="51" height="303" rx="4.5" stroke="#9747FF" stroke-dasharray="10 5"/>
</svg>
