<svg width="52" height="88" viewBox="0 0 52 88" fill="none" xmlns="http://www.w3.org/2000/svg">
<path d="M17.6667 30.2167H26.0001" stroke="#313233" stroke-miterlimit="10" stroke-linecap="round" stroke-linejoin="round"/>
<path d="M19.5167 27.25H24.1501C25.6334 27.25 26.0001 27.6167 26.0001 29.0833V32.5083C26.0001 33.975 25.6334 34.3417 24.1501 34.3417H19.5167C18.0334 34.3417 17.6667 33.975 17.6667 32.5083V29.0833C17.6667 27.6167 18.0334 27.25 19.5167 27.25Z" stroke="#313233" stroke-linecap="round" stroke-linejoin="round"/>
<path d="M34.3333 28.5C34.3333 31.725 31.725 34.3333 28.5 34.3333L29.375 32.875" stroke="#313233" stroke-linecap="round" stroke-linejoin="round"/>
<path d="M17.6667 23.5C17.6667 20.275 20.2751 17.6666 23.5001 17.6666L22.6251 19.125" stroke="#313233" stroke-linecap="round" stroke-linejoin="round"/>
<path d="M31.4167 25.1666C33.4878 25.1666 35.1667 23.4877 35.1667 21.4166C35.1667 19.3456 33.4878 17.6666 31.4167 17.6666C29.3457 17.6666 27.6667 19.3456 27.6667 21.4166C27.6667 23.4877 29.3457 25.1666 31.4167 25.1666Z" stroke="#313233" stroke-linecap="round" stroke-linejoin="round"/>
<path d="M26.0001 65.0833V65.175C26.0001 65.4083 25.8167 65.5917 25.5834 65.5917H18.0834C17.8501 65.5917 17.6667 65.4083 17.6667 65.175V65.0833C17.6667 63.6167 18.0334 63.25 19.5167 63.25H24.1501C25.6334 63.25 26.0001 63.6167 26.0001 65.0833Z" fill="#313233"/>
<path d="M18.0834 66.425C17.8501 66.425 17.6667 66.6084 17.6667 66.8417V67.675V68.5C17.6667 69.9667 18.0334 70.3334 19.5167 70.3334H24.1501C25.6334 70.3334 26.0001 69.9667 26.0001 68.5V67.675V66.8417C26.0001 66.6084 25.8167 66.425 25.5834 66.425H18.0834Z" fill="#313233"/>
<path d="M34.3333 64.5C34.3333 67.725 31.725 70.3333 28.5 70.3333L29.375 68.875" stroke="#313233" stroke-linecap="round" stroke-linejoin="round"/>
<path d="M17.6667 59.5C17.6667 56.275 20.2751 53.6666 23.5001 53.6666L22.6251 55.125" stroke="#313233" stroke-linecap="round" stroke-linejoin="round"/>
<path d="M31.4167 61.1666C33.4878 61.1666 35.1667 59.4877 35.1667 57.4166C35.1667 55.3456 33.4878 53.6666 31.4167 53.6666C29.3457 53.6666 27.6667 55.3456 27.6667 57.4166C27.6667 59.4877 29.3457 61.1666 31.4167 61.1666Z" fill="#313233"/>
<rect x="0.5" y="0.5" width="51" height="87" rx="4.5" stroke="#9747FF" stroke-dasharray="10 5"/>
</svg>
