<svg width="52" height="88" viewBox="0 0 52 88" fill="none" xmlns="http://www.w3.org/2000/svg">
<path d="M33.5 20.9837C30.725 20.7087 27.9333 20.5671 25.15 20.5671C23.5 20.5671 21.85 20.6504 20.2 20.8171L18.5 20.9837" stroke="#313233" stroke-linecap="round" stroke-linejoin="round"/>
<path d="M23.0834 20.1417L23.2667 19.05C23.4 18.2583 23.5 17.6667 24.9084 17.6667H27.0917C28.5 17.6667 28.6084 18.2917 28.7334 19.0583L28.9167 20.1417" stroke="#313233" stroke-linecap="round" stroke-linejoin="round"/>
<path d="M31.7087 23.6172L31.167 32.0089C31.0753 33.3172 31.0003 34.3339 28.6753 34.3339H23.3253C21.0003 34.3339 20.9253 33.3172 20.8337 32.0089L20.292 23.6172" stroke="#313233" stroke-linecap="round" stroke-linejoin="round"/>
<path d="M24.6083 29.75H27.3833" stroke="#313233" stroke-linecap="round" stroke-linejoin="round"/>
<path d="M23.9166 26.4167H28.0833" stroke="#313233" stroke-linecap="round" stroke-linejoin="round"/>
<path d="M33.5584 56.3583C32.2167 56.225 30.875 56.125 29.525 56.05V56.0417L29.3417 54.9583C29.2167 54.1917 29.0334 53.0417 27.0834 53.0417H24.9C22.9584 53.0417 22.775 54.1417 22.6417 54.95L22.4667 56.0167C21.6917 56.0667 20.9167 56.1167 20.1417 56.1917L18.4417 56.3583C18.0917 56.3917 17.8417 56.7 17.875 57.0417C17.9084 57.3833 18.2084 57.6333 18.5584 57.6L20.2584 57.4333C24.625 57 29.0251 57.1667 33.4417 57.6083C33.4667 57.6083 33.4834 57.6083 33.5084 57.6083C33.8251 57.6083 34.1 57.3667 34.1334 57.0417C34.1584 56.7 33.9084 56.3917 33.5584 56.3583Z" fill="#313233"/>
<path d="M32.025 58.7833C31.825 58.575 31.55 58.4583 31.2666 58.4583H20.7333C20.45 58.4583 20.1666 58.575 19.975 58.7833C19.7833 58.9917 19.675 59.275 19.6916 59.5667L20.2083 68.1167C20.3 69.3833 20.4166 70.9667 23.325 70.9667H28.675C31.5833 70.9667 31.7 69.3917 31.7916 68.1167L32.3083 59.575C32.325 59.275 32.2166 58.9917 32.025 58.7833ZM27.3833 66.7917H24.6083C24.2666 66.7917 23.9833 66.5083 23.9833 66.1667C23.9833 65.825 24.2666 65.5417 24.6083 65.5417H27.3833C27.725 65.5417 28.0083 65.825 28.0083 66.1667C28.0083 66.5083 27.725 66.7917 27.3833 66.7917ZM28.0833 63.4583H23.9166C23.575 63.4583 23.2916 63.175 23.2916 62.8333C23.2916 62.4917 23.575 62.2083 23.9166 62.2083H28.0833C28.425 62.2083 28.7083 62.4917 28.7083 62.8333C28.7083 63.175 28.425 63.4583 28.0833 63.4583Z" fill="#313233"/>
<rect x="0.5" y="0.5" width="51" height="87" rx="4.5" stroke="#9747FF" stroke-dasharray="10 5"/>
</svg>
