<svg width="52" height="88" viewBox="0 0 52 88" fill="none" xmlns="http://www.w3.org/2000/svg">
<path d="M26.8334 28.2917H17.6667C17.3251 28.2917 17.0417 28.0083 17.0417 27.6667V21C17.0417 18.8167 18.8167 17.0417 21.0001 17.0417H28.5001C28.8417 17.0417 29.1251 17.325 29.1251 17.6667V26C29.1251 27.2667 28.1001 28.2917 26.8334 28.2917ZM18.2917 27.0417H26.8334C27.4084 27.0417 27.8751 26.575 27.8751 26V18.2917H21.0001C19.5084 18.2917 18.2917 19.5083 18.2917 21V27.0417Z" fill="#313233"/>
<path d="M31.8334 33.2917H31.0001C30.6584 33.2917 30.3751 33.0083 30.3751 32.6667C30.3751 32.0917 29.9084 31.625 29.3334 31.625C28.7584 31.625 28.2917 32.0917 28.2917 32.6667C28.2917 33.0083 28.0084 33.2917 27.6667 33.2917H24.3334C23.9917 33.2917 23.7084 33.0083 23.7084 32.6667C23.7084 32.0917 23.2417 31.625 22.6667 31.625C22.0917 31.625 21.6251 32.0917 21.6251 32.6667C21.6251 33.0083 21.3417 33.2917 21.0001 33.2917H20.1667C18.4417 33.2917 17.0417 31.8917 17.0417 30.1667V27.6667C17.0417 27.325 17.3251 27.0417 17.6667 27.0417H26.8334C27.4084 27.0417 27.8751 26.575 27.8751 26V20.1667C27.8751 19.825 28.1584 19.5417 28.5001 19.5417H30.0334C30.8584 19.5417 31.6168 19.9833 32.0251 20.7L33.4501 23.1917C33.5584 23.3833 33.5584 23.625 33.4501 23.8167C33.3417 24.0083 33.1334 24.125 32.9084 24.125H31.8334C31.7167 24.125 31.6251 24.2167 31.6251 24.3333V26.8333C31.6251 26.95 31.7167 27.0417 31.8334 27.0417H34.3334C34.6751 27.0417 34.9584 27.325 34.9584 27.6667V30.1667C34.9584 31.8917 33.5584 33.2917 31.8334 33.2917ZM31.5417 32.0417H31.8334C32.8667 32.0417 33.7084 31.2 33.7084 30.1667V28.2917H31.8334C31.0334 28.2917 30.3751 27.6333 30.3751 26.8333V24.3333C30.3751 23.5333 31.0251 22.875 31.8334 22.875L30.9417 21.3167C30.7584 20.9917 30.4084 20.7917 30.0334 20.7917H29.1251V26C29.1251 27.2667 28.1001 28.2917 26.8334 28.2917H18.2917V30.1667C18.2917 31.2 19.1334 32.0417 20.1667 32.0417H20.4584C20.7334 31.0833 21.6167 30.375 22.6667 30.375C23.7167 30.375 24.6001 31.0833 24.8751 32.0417H27.1334C27.4084 31.0833 28.2918 30.375 29.3418 30.375C30.3918 30.375 31.2667 31.0833 31.5417 32.0417Z" fill="#313233"/>
<path d="M22.6667 34.9583C21.4 34.9583 20.375 33.9333 20.375 32.6667C20.375 31.4 21.4 30.375 22.6667 30.375C23.9333 30.375 24.9583 31.4 24.9583 32.6667C24.9583 33.9333 23.9333 34.9583 22.6667 34.9583ZM22.6667 31.625C22.0917 31.625 21.625 32.0917 21.625 32.6667C21.625 33.2417 22.0917 33.7083 22.6667 33.7083C23.2417 33.7083 23.7083 33.2417 23.7083 32.6667C23.7083 32.0917 23.2417 31.625 22.6667 31.625Z" fill="#313233"/>
<path d="M29.3334 34.9583C28.0667 34.9583 27.0417 33.9333 27.0417 32.6667C27.0417 31.4 28.0667 30.375 29.3334 30.375C30.6001 30.375 31.6251 31.4 31.6251 32.6667C31.6251 33.9333 30.6001 34.9583 29.3334 34.9583ZM29.3334 31.625C28.7584 31.625 28.2917 32.0917 28.2917 32.6667C28.2917 33.2417 28.7584 33.7083 29.3334 33.7083C29.9084 33.7083 30.3751 33.2417 30.3751 32.6667C30.3751 32.0917 29.9084 31.625 29.3334 31.625Z" fill="#313233"/>
<path d="M34.3333 28.2917H31.8333C31.0333 28.2917 30.375 27.6333 30.375 26.8333V24.3333C30.375 23.5333 31.0333 22.875 31.8333 22.875H32.9083C33.1333 22.875 33.3417 22.9917 33.45 23.1917L34.875 25.6917C34.925 25.7833 34.9583 25.8917 34.9583 26V27.6667C34.9583 28.0083 34.675 28.2917 34.3333 28.2917ZM31.8333 24.125C31.7167 24.125 31.625 24.2167 31.625 24.3333V26.8333C31.625 26.95 31.7167 27.0417 31.8333 27.0417H33.7083V26.1667L32.5417 24.125H31.8333Z" fill="#313233"/>
<path d="M27.6667 54.4333V61.3583C27.6667 62.2083 26.9751 62.9 26.1251 62.9H18.5001C18.0417 62.9 17.6667 62.525 17.6667 62.0667V56.7417C17.6667 55.0417 19.0417 53.6667 20.7417 53.6667H26.8917C27.3251 53.6667 27.6667 54.0083 27.6667 54.4333Z" fill="#313233"/>
<path d="M33.9167 64.9167C34.1501 64.9167 34.3334 65.1 34.3334 65.3333V66.1667C34.3334 67.55 33.2167 68.6667 31.8334 68.6667C31.8334 67.2917 30.7084 66.1667 29.3334 66.1667C27.9584 66.1667 26.8334 67.2917 26.8334 68.6667H25.1667C25.1667 67.2917 24.0417 66.1667 22.6667 66.1667C21.2917 66.1667 20.1667 67.2917 20.1667 68.6667C18.7834 68.6667 17.6667 67.55 17.6667 66.1667V64.5C17.6667 64.0417 18.0417 63.6667 18.5001 63.6667H26.4167C27.5667 63.6667 28.5001 62.7333 28.5001 61.5833V57C28.5001 56.5417 28.8751 56.1667 29.3334 56.1667H30.0334C30.6334 56.1667 31.1834 56.4917 31.4834 57.0083L32.0167 57.9417C32.0917 58.075 31.9917 58.25 31.8334 58.25C30.6834 58.25 29.7501 59.1833 29.7501 60.3333V62.8333C29.7501 63.9833 30.6834 64.9167 31.8334 64.9167H33.9167Z" fill="#313233"/>
<path d="M22.6667 70.3333C23.5871 70.3333 24.3333 69.5871 24.3333 68.6667C24.3333 67.7462 23.5871 67 22.6667 67C21.7462 67 21 67.7462 21 68.6667C21 69.5871 21.7462 70.3333 22.6667 70.3333Z" fill="#313233"/>
<path d="M29.3334 70.3333C30.2539 70.3333 31.0001 69.5871 31.0001 68.6667C31.0001 67.7462 30.2539 67 29.3334 67C28.4129 67 27.6667 67.7462 27.6667 68.6667C27.6667 69.5871 28.4129 70.3333 29.3334 70.3333Z" fill="#313233"/>
<path d="M34.3333 62.4417V63.6667H31.8333C31.375 63.6667 31 63.2917 31 62.8333V60.3333C31 59.875 31.375 59.5 31.8333 59.5H32.9083L34.1167 61.6167C34.2583 61.8667 34.3333 62.15 34.3333 62.4417Z" fill="#313233"/>
<rect x="0.5" y="0.5" width="51" height="87" rx="4.5" stroke="#9747FF" stroke-dasharray="10 5"/>
</svg>
