<svg width="52" height="88" viewBox="0 0 52 88" fill="none" xmlns="http://www.w3.org/2000/svg">
<path d="M25.9999 26C28.3011 26 30.1666 24.1345 30.1666 21.8333C30.1666 19.5321 28.3011 17.6667 25.9999 17.6667C23.6987 17.6667 21.8333 19.5321 21.8333 21.8333C21.8333 24.1345 23.6987 26 25.9999 26Z" stroke="#313233" stroke-linecap="round" stroke-linejoin="round"/>
<path d="M33.1582 34.3333C33.1582 31.1083 29.9499 28.5 25.9999 28.5C22.0499 28.5 18.8416 31.1083 18.8416 34.3333" stroke="#313233" stroke-linecap="round" stroke-linejoin="round"/>
<path d="M25.9999 62C28.3011 62 30.1666 60.1345 30.1666 57.8333C30.1666 55.5321 28.3011 53.6667 25.9999 53.6667C23.6987 53.6667 21.8333 55.5321 21.8333 57.8333C21.8333 60.1345 23.6987 62 25.9999 62Z" fill="#313233"/>
<path d="M26 64.0833C21.825 64.0833 18.425 66.8833 18.425 70.3333C18.425 70.5667 18.6084 70.75 18.8417 70.75H33.1584C33.3917 70.75 33.575 70.5667 33.575 70.3333C33.575 66.8833 30.175 64.0833 26 64.0833Z" fill="#313233"/>
<rect x="0.5" y="0.5" width="51" height="87" rx="4.5" stroke="#9747FF" stroke-dasharray="10 5"/>
</svg>
