<svg width="52" height="88" viewBox="0 0 52 88" fill="none" xmlns="http://www.w3.org/2000/svg">
<path d="M23.633 25.6833C23.608 25.6833 23.5913 25.6833 23.5663 25.6833C23.5247 25.675 23.4663 25.675 23.4163 25.6833C20.9997 25.6083 19.1747 23.7083 19.1747 21.3666C19.1747 18.9833 21.1163 17.0416 23.4997 17.0416C25.883 17.0416 27.8247 18.9833 27.8247 21.3666C27.8163 23.7083 25.983 25.6083 23.658 25.6833C23.6497 25.6833 23.6413 25.6833 23.633 25.6833ZM23.4997 18.2916C21.808 18.2916 20.4247 19.675 20.4247 21.3666C20.4247 23.0333 21.7247 24.375 23.383 24.4333C23.433 24.425 23.5413 24.425 23.6497 24.4333C25.283 24.3583 26.5663 23.0166 26.5747 21.3666C26.5747 19.675 25.1913 18.2916 23.4997 18.2916Z" fill="#313233"/>
<path d="M29.783 25.7917C29.758 25.7917 29.733 25.7917 29.708 25.7834C29.3663 25.8167 29.0163 25.575 28.983 25.2334C28.9496 24.8917 29.158 24.5834 29.4996 24.5417C29.5996 24.5334 29.708 24.5334 29.7996 24.5334C31.0163 24.4667 31.9663 23.4667 31.9663 22.2417C31.9663 20.975 30.9413 19.95 29.6746 19.95C29.333 19.9584 29.0496 19.675 29.0496 19.3334C29.0496 18.9917 29.333 18.7084 29.6746 18.7084C31.6246 18.7084 33.2163 20.3 33.2163 22.25C33.2163 24.1667 31.7163 25.7167 29.808 25.7917C29.7996 25.7917 29.7913 25.7917 29.783 25.7917Z" fill="#313233"/>
<path d="M23.6413 34.7917C22.008 34.7917 20.3663 34.375 19.1247 33.5417C17.9663 32.775 17.333 31.725 17.333 30.5834C17.333 29.4417 17.9663 28.3834 19.1247 27.6084C21.6247 25.95 25.6747 25.95 28.158 27.6084C29.308 28.375 29.9497 29.425 29.9497 30.5667C29.9497 31.7084 29.3163 32.7667 28.158 33.5417C26.908 34.375 25.2747 34.7917 23.6413 34.7917ZM19.8163 28.6584C19.0163 29.1917 18.583 29.875 18.583 30.5917C18.583 31.3 19.0247 31.9834 19.8163 32.5084C21.8913 33.9 25.3913 33.9 27.4663 32.5084C28.2663 31.975 28.6997 31.2917 28.6997 30.575C28.6997 29.8667 28.258 29.1834 27.4663 28.6584C25.3913 27.275 21.8913 27.275 19.8163 28.6584Z" fill="#313233"/>
<path d="M31.283 33.2917C30.9913 33.2917 30.733 33.0917 30.6746 32.7917C30.608 32.45 30.8246 32.125 31.158 32.05C31.683 31.9417 32.1663 31.7333 32.5413 31.4417C33.0163 31.0833 33.2746 30.6333 33.2746 30.1583C33.2746 29.6833 33.0163 29.2333 32.5496 28.8833C32.183 28.6 31.7246 28.4 31.183 28.275C30.8496 28.2 30.633 27.8667 30.708 27.525C30.783 27.1917 31.1163 26.975 31.458 27.05C32.1746 27.2083 32.7996 27.4917 33.308 27.8833C34.083 28.4667 34.5246 29.2917 34.5246 30.1583C34.5246 31.025 34.0746 31.85 33.2996 32.4417C32.783 32.8417 32.133 33.1333 31.4163 33.275C31.3663 33.2917 31.3246 33.2917 31.283 33.2917Z" fill="#313233"/>
<path d="M23.5 53.6666C21.3166 53.6666 19.5416 55.4416 19.5416 57.625C19.5416 59.7666 21.2166 61.5 23.4 61.575C23.4666 61.5666 23.5333 61.5666 23.5833 61.575C23.6 61.575 23.6083 61.575 23.625 61.575C23.6333 61.575 23.6333 61.575 23.6416 61.575C25.775 61.5 27.45 59.7666 27.4583 57.625C27.4583 55.4416 25.6833 53.6666 23.5 53.6666Z" fill="#313233"/>
<path d="M27.7333 63.7917C25.4083 62.2417 21.6166 62.2417 19.275 63.7917C18.2166 64.5 17.6333 65.4583 17.6333 66.4833C17.6333 67.5083 18.2166 68.4583 19.2666 69.1583C20.4333 69.9417 21.9666 70.3333 23.5 70.3333C25.0333 70.3333 26.5666 69.9417 27.7333 69.1583C28.7833 68.45 29.3666 67.5 29.3666 66.4667C29.3583 65.4417 28.7833 64.4917 27.7333 63.7917Z" fill="#313233"/>
<path d="M32.6583 58.1167C32.7916 59.7334 31.6416 61.15 30.05 61.3417C30.0416 61.3417 30.0416 61.3417 30.0333 61.3417H30.0083C29.9583 61.3417 29.9083 61.3417 29.8666 61.3584C29.0583 61.4 28.3166 61.1417 27.7583 60.6667C28.6166 59.9 29.1083 58.75 29.0083 57.5C28.95 56.825 28.7166 56.2084 28.3666 55.6834C28.6833 55.525 29.05 55.425 29.425 55.3917C31.0583 55.25 32.5166 56.4667 32.6583 58.1167Z" fill="#313233"/>
<path d="M34.325 65.825C34.2583 66.6334 33.7417 67.3334 32.875 67.8084C32.0417 68.2667 30.9917 68.4834 29.95 68.4584C30.55 67.9167 30.9 67.2417 30.9667 66.525C31.05 65.4917 30.5583 64.5 29.575 63.7084C29.0167 63.2667 28.3667 62.9167 27.6583 62.6584C29.5 62.125 31.8167 62.4834 33.2417 63.6334C34.0083 64.25 34.4 65.025 34.325 65.825Z" fill="#313233"/>
<rect x="0.5" y="0.5" width="51" height="87" rx="4.5" stroke="#9747FF" stroke-dasharray="10 5"/>
</svg>
