<svg width="52" height="88" viewBox="0 0 52 88" fill="none" xmlns="http://www.w3.org/2000/svg">
<path d="M25.9999 26C28.3011 26 30.1666 24.1345 30.1666 21.8333C30.1666 19.5321 28.3011 17.6667 25.9999 17.6667C23.6987 17.6667 21.8333 19.5321 21.8333 21.8333C21.8333 24.1345 23.6987 26 25.9999 26Z" stroke="#313233" stroke-linecap="round" stroke-linejoin="round"/>
<path d="M18.8416 34.3333C18.8416 31.1083 22.0499 28.5 25.9999 28.5C26.7999 28.5 27.5749 28.6083 28.2999 28.8083" stroke="#313233" stroke-linecap="round" stroke-linejoin="round"/>
<path d="M34.3334 31C34.3334 31.625 34.1584 32.2167 33.8501 32.7167C33.6751 33.0167 33.4501 33.2833 33.1918 33.5C32.6084 34.025 31.8417 34.3333 31.0001 34.3333C29.7834 34.3333 28.7251 33.6833 28.1501 32.7167C27.8417 32.2167 27.6667 31.625 27.6667 31C27.6667 29.95 28.1501 29.0083 28.9167 28.4C29.4917 27.9417 30.2167 27.6667 31.0001 27.6667C32.8417 27.6667 34.3334 29.1583 34.3334 31Z" stroke="#313233" stroke-miterlimit="10" stroke-linecap="round" stroke-linejoin="round"/>
<path d="M29.7002 31L30.5252 31.825L32.3002 30.1833" stroke="#313233" stroke-linecap="round" stroke-linejoin="round"/>
<path d="M26 63.6667C21.825 63.6667 18.425 66.4667 18.425 69.9167C18.425 70.15 18.6084 70.3333 18.8417 70.3333H33.1584C33.3917 70.3333 33.575 70.15 33.575 69.9167C33.575 66.4667 30.175 63.6667 26 63.6667Z" fill="#313233"/>
<path d="M25.9999 53.6667C25.0166 53.6667 24.1166 54.0083 23.3999 54.5833C22.4416 55.3417 21.8333 56.5167 21.8333 57.8333C21.8333 58.6167 22.0499 59.35 22.4416 59.975C23.1583 61.1833 24.4749 62 25.9999 62C27.0499 62 28.0083 61.6167 28.7416 60.9583C29.0666 60.6833 29.3499 60.35 29.5666 59.975C29.9499 59.35 30.1666 58.6167 30.1666 57.8333C30.1666 55.5333 28.2999 53.6667 25.9999 53.6667ZM28.1583 57.3833L25.9333 59.4333C25.7833 59.575 25.5916 59.6417 25.3999 59.6417C25.1999 59.6417 24.9999 59.5667 24.8499 59.4167L23.8249 58.3833C23.5166 58.075 23.5166 57.5833 23.8249 57.275C24.1333 56.9667 24.6249 56.9667 24.9333 57.275L25.4249 57.7667L27.0999 56.225C27.4166 55.9333 27.9083 55.95 28.1999 56.2667C28.4916 56.5917 28.4749 57.0917 28.1583 57.3833Z" fill="#313233"/>
<rect x="0.5" y="0.5" width="51" height="87" rx="4.5" stroke="#9747FF" stroke-dasharray="10 5"/>
</svg>
