<svg width="52" height="88" viewBox="0 0 52 88" fill="none" xmlns="http://www.w3.org/2000/svg">
<path d="M26.8334 31.8333H21.8334C18.5001 31.8333 17.6667 31 17.6667 27.6667V24.3333C17.6667 21 18.5001 20.1667 21.8334 20.1667H26.8334C30.1667 20.1667 31.0001 21 31.0001 24.3333V27.6667C31.0001 31 30.1667 31.8333 26.8334 31.8333Z" stroke="#313233" stroke-linecap="round" stroke-linejoin="round"/>
<path d="M33.0833 23.9167C34.3333 23.9167 34.3333 24.3333 34.3333 25.1667V26.8333C34.3333 27.6667 34.3333 28.0833 33.0833 28.0833" stroke="#313233" stroke-linecap="round" stroke-linejoin="round"/>
<path d="M26.7751 55.9917H22.1251C18.7084 55.9917 17.6667 57.0333 17.6667 60.45V63.55C17.6667 66.9667 18.7084 68.0083 22.1251 68.0083H26.7751C30.1917 68.0083 31.2334 66.9667 31.2334 63.55V60.45C31.2334 57.0333 30.1917 55.9917 26.7751 55.9917Z" fill="#313233"/>
<path d="M33.0167 59.5C32.9 59.4917 32.75 59.4833 32.5833 59.4833C32.2583 59.4833 32 59.7417 32 60.0667V63.9417C32 64.2667 32.2583 64.525 32.5833 64.525C32.75 64.525 32.8917 64.5167 33.0333 64.5083C34.3333 64.3583 34.3333 63.4417 34.3333 62.775V61.225C34.3333 60.5583 34.3333 59.6417 33.0167 59.5Z" fill="#313233"/>
<rect x="0.5" y="0.5" width="51" height="87" rx="4.5" stroke="#9747FF" stroke-dasharray="10 5"/>
</svg>
