<svg width="52" height="88" viewBox="0 0 52 88" fill="none" xmlns="http://www.w3.org/2000/svg">
<path d="M33.0833 23.9167C34.3333 23.9167 34.3333 24.3333 34.3333 25.1667V26.8333C34.3333 27.6667 34.3333 28.0833 33.0833 28.0833" stroke="#313233" stroke-linecap="round" stroke-linejoin="round"/>
<path d="M19.3333 33.9167L29.3333 18.0833" stroke="#313233" stroke-linecap="round" stroke-linejoin="round"/>
<path d="M21.8332 20.1667C18.4998 20.1667 17.6665 21 17.6665 24.3333V27.6667C17.6665 30.5 18.2665 31.525 20.4915 31.7667" stroke="#313233" stroke-linecap="round" stroke-linejoin="round"/>
<path d="M26.8335 31.8334C30.1668 31.8334 31.0002 31.0001 31.0002 27.6667V24.3334C31.0002 21.5084 30.4002 20.4751 28.1918 20.2334" stroke="#313233" stroke-linecap="round" stroke-linejoin="round"/>
<path d="M33.0167 59.5C32.9 59.4917 32.75 59.4833 32.5833 59.4833C32.2583 59.4833 32 59.7417 32 60.0667V63.9417C32 64.2667 32.2583 64.525 32.5833 64.525C32.75 64.525 32.8917 64.5167 33.0333 64.5083C34.3333 64.3583 34.3333 63.4417 34.3333 62.775V61.225C34.3333 60.5583 34.3333 59.6417 33.0167 59.5Z" fill="#313233"/>
<path d="M31.2333 60.45V63.55C31.2333 66.0083 29.2333 68.0083 26.7749 68.0083H23.7166C23.0583 68.0083 22.6583 67.2833 23.0083 66.7333L29.0583 57.1667C29.3583 56.6917 30.0333 56.65 30.4083 57.075C31.0083 57.7667 31.2333 58.8417 31.2333 60.45Z" fill="#313233"/>
<path d="M29.6667 53.5583C29.3751 53.375 28.9917 53.4583 28.8084 53.75L27.3834 56.0083C27.1917 56 26.9917 55.9917 26.7751 55.9917H22.1251C18.7084 55.9917 17.6667 57.0333 17.6667 60.45V63.55C17.6667 66.0917 18.2501 67.3083 19.9501 67.7667L18.8084 69.5833C18.6251 69.875 18.7084 70.2583 19.0001 70.4417C19.1001 70.5083 19.2167 70.5417 19.3334 70.5417C19.5417 70.5417 19.7417 70.4417 19.8584 70.25L29.8584 54.4167C30.0501 54.125 29.9584 53.7417 29.6667 53.5583Z" fill="#313233"/>
<rect x="0.5" y="0.5" width="51" height="87" rx="4.5" stroke="#9747FF" stroke-dasharray="10 5"/>
</svg>
