<svg width="52" height="88" viewBox="0 0 52 88" fill="none" xmlns="http://www.w3.org/2000/svg">
<path d="M26 22.4583V26.8333" stroke="#313233" stroke-linecap="round" stroke-linejoin="round"/>
<path d="M33.5668 23.15V28.85C33.5668 29.7833 33.0667 30.65 32.2584 31.125L27.3084 33.9834C26.5001 34.45 25.5001 34.45 24.6834 33.9834L19.7334 31.125C18.9251 30.6584 18.425 29.7917 18.425 28.85V23.15C18.425 22.2167 18.9251 21.35 19.7334 20.875L24.6834 18.0167C25.4917 17.55 26.4917 17.55 27.3084 18.0167L32.2584 20.875C33.0667 21.35 33.5668 22.2084 33.5668 23.15Z" stroke="#313233" stroke-linecap="round" stroke-linejoin="round"/>
<path d="M26 29.4993V29.5827" stroke="#313233" stroke-linecap="round" stroke-linejoin="round"/>
<path d="M32.2583 56.875L27.3083 54.0167C26.5 53.55 25.5 53.55 24.6833 54.0167L19.7417 56.875C18.9333 57.3417 18.4333 58.2083 18.4333 59.15V64.85C18.4333 65.7833 18.9333 66.65 19.7417 67.125L24.6917 69.9833C25.5 70.45 26.5 70.45 27.3167 69.9833L32.2667 67.125C33.075 66.6583 33.575 65.7917 33.575 64.85V59.15C33.5667 58.2083 33.0667 57.35 32.2583 56.875ZM25.375 58.4583C25.375 58.1167 25.6583 57.8333 26 57.8333C26.3417 57.8333 26.625 58.1167 26.625 58.4583V62.8333C26.625 63.175 26.3417 63.4583 26 63.4583C25.6583 63.4583 25.375 63.175 25.375 62.8333V58.4583ZM26.7667 65.8583C26.725 65.9583 26.6667 66.05 26.5917 66.1333C26.4333 66.2917 26.225 66.375 26 66.375C25.8917 66.375 25.7833 66.35 25.6833 66.3083C25.575 66.2667 25.4917 66.2083 25.4083 66.1333C25.3333 66.05 25.275 65.9583 25.225 65.8583C25.1833 65.7583 25.1667 65.65 25.1667 65.5417C25.1667 65.325 25.25 65.1083 25.4083 64.95C25.4917 64.875 25.575 64.8167 25.6833 64.775C25.9917 64.6417 26.3583 64.7167 26.5917 64.95C26.6667 65.0333 26.725 65.1167 26.7667 65.225C26.8083 65.325 26.8333 65.4333 26.8333 65.5417C26.8333 65.65 26.8083 65.7583 26.7667 65.8583Z" fill="#313233"/>
<rect x="0.5" y="0.5" width="51" height="87" rx="4.5" stroke="#9747FF" stroke-dasharray="10 5"/>
</svg>
