<svg width="52" height="88" viewBox="0 0 52 88" fill="none" xmlns="http://www.w3.org/2000/svg">
<path d="M26.0001 33.0833H21.8334C19.3334 33.0833 17.6667 31.8333 17.6667 28.9167V23.0833C17.6667 20.1667 19.3334 18.9167 21.8334 18.9167H30.1667C32.6667 18.9167 34.3334 20.1667 34.3334 23.0833V25.5833" stroke="#313233" stroke-miterlimit="10" stroke-linecap="round" stroke-linejoin="round"/>
<path d="M30.1666 23.5L27.5582 25.5833C26.6999 26.2667 25.2916 26.2667 24.4332 25.5833L21.8333 23.5" stroke="#313233" stroke-miterlimit="10" stroke-linecap="round" stroke-linejoin="round"/>
<path d="M32.0083 28.3083L29.0583 31.2583C28.9416 31.375 28.8333 31.5917 28.8083 31.75L28.6499 32.875C28.5916 33.2833 28.875 33.5667 29.2833 33.5083L30.4083 33.35C30.5666 33.325 30.7916 33.2167 30.9 33.1L33.85 30.15C34.3583 29.6417 34.6 29.05 33.85 28.3C33.1083 27.5583 32.5166 27.8 32.0083 28.3083Z" stroke="#313233" stroke-miterlimit="10" stroke-linecap="round" stroke-linejoin="round"/>
<path d="M31.5833 28.7333C31.8333 29.6333 32.5333 30.3333 33.4333 30.5833" stroke="#313233" stroke-miterlimit="10" stroke-linecap="round" stroke-linejoin="round"/>
<path d="M30.1667 54.5H21.8334C19.3334 54.5 17.6667 55.75 17.6667 58.6667V64.5C17.6667 67.4167 19.3334 68.6667 21.8334 68.6667H24.8084C25.3001 68.6667 25.7001 68.2333 25.6334 67.7417C25.5501 67.15 25.5667 66.5333 25.6917 65.9C26.1334 63.7333 27.9167 62.0083 30.1001 61.65C31.1917 61.475 32.2334 61.625 33.1501 62.025C33.7084 62.2667 34.3334 61.8833 34.3334 61.275V58.6667C34.3334 55.75 32.6667 54.5 30.1667 54.5ZM30.5584 59.1583L27.9501 61.2417C27.4001 61.6833 26.7001 61.9 26.0001 61.9C25.3001 61.9 24.5917 61.6833 24.0501 61.2417L21.4417 59.1583C21.1751 58.9417 21.1334 58.55 21.3417 58.275C21.5584 58.0083 21.9501 57.9583 22.2167 58.175L24.8251 60.2583C25.4584 60.7667 26.5334 60.7667 27.1667 60.2583L29.7751 58.175C30.0417 57.9583 30.4417 58 30.6501 58.275C30.8667 58.55 30.8251 58.9417 30.5584 59.1583Z" fill="#313233"/>
<path d="M30.9999 62.8333C28.6999 62.8333 26.8333 64.6917 26.8333 67C26.8333 69.3 28.6999 71.1667 30.9999 71.1667C33.3083 71.1667 35.1666 69.3 35.1666 67C35.1666 64.6917 33.3083 62.8333 30.9999 62.8333ZM32.7083 66.625L32.3999 66.925L30.5833 68.75C30.4999 68.825 30.3416 68.9083 30.2249 68.925L29.4083 69.0417C29.1166 69.0833 28.9083 68.875 28.9499 68.5833L29.0666 67.7667C29.0833 67.65 29.1583 67.4917 29.2416 67.4083L31.0583 65.6L31.3583 65.2917C31.5583 65.0917 31.7833 64.9583 32.0166 64.9583C32.2166 64.9583 32.4416 65.05 32.6916 65.2917C33.2499 65.8333 33.0749 66.2583 32.7083 66.625Z" fill="#313233"/>
<rect x="0.5" y="0.5" width="51" height="87" rx="4.5" stroke="#9747FF" stroke-dasharray="10 5"/>
</svg>
