<svg id="Layer_1" data-name="Layer 1" xmlns="http://www.w3.org/2000/svg" viewBox="0 0 1190.55 841.89"><defs><style>.cls-1{fill:#fff;}.cls-2{fill:#1bd253;}</style></defs><path class="cls-1" d="M126,587.23c-3.12,0-6.26-.14-9.4-.43a101.89,101.89,0,0,1-92.36-93.6,102.41,102.41,0,0,1,9.06-50.57A102,102,0,0,1,99.64,386.9l4.59,17.35a84.07,84.07,0,0,0-54.66,45.9,84.37,84.37,0,0,0-7.46,41.68,83.12,83.12,0,0,0,19.21,47.25,83.9,83.9,0,1,0,128.9-107.44,82.9,82.9,0,0,0-46.7-28.28l3.77-17.55A100.67,100.67,0,0,1,204,420.15a101.85,101.85,0,0,1-78,167.08Z"/><rect class="cls-1" x="24.12" y="307.59" width="17.3" height="184.92"/><path class="cls-1" d="M38,478.43S68.32,506.66,111.5,500,193,467.68,218.36,475.38,206.83,556.82,173,572.1s-73.41,8-105-8.64S26.14,504.34,27.47,496,38,478.43,38,478.43Z"/><circle class="cls-2" cx="123.57" cy="390.83" r="26.94"/><circle class="cls-2" cx="156.44" cy="339.13" r="26.87"/><circle class="cls-2" cx="146.02" cy="431.11" r="10.42"/><circle class="cls-2" cx="122.07" cy="448.35" r="6.82"/><circle class="cls-2" cx="133.01" cy="472.92" r="4.23"/><path class="cls-1" d="M375.06,385V506.9q0,25.08-18.11,42.94t-43.18,17.89q-26.89,0-44.89-18Q250.66,532,250.65,506.9V385H232.43V508.5Q233.11,542,255,563.87t59,21.86q34.85,0,56.73-21.86t22.56-55.37V385Z"/><path class="cls-1" d="M832.16,282.83V583.48h17V282.83Z"/><path class="cls-1" d="M1025.34,545.63q-25.09,25.08-60.38,25.09t-60.27-24.88q-25-24.87-25-60.18a68.67,68.67,0,0,1,.64-9.56h184.35q0-36.78-26.58-63.57-30.19-30.18-73.14-30.2-42.54,0-72.82,30.2t-30.29,73.13q0,42.54,30.29,72.82T965,588.79q42.93,0,73.14-30.4,10.2-10,13.4-15.31l-18.08-6.38Q1029.58,541.38,1025.34,545.63ZM904.57,425.29Q929.67,400.2,965,400.2t60.38,25.09a80.27,80.27,0,0,1,20.2,33.59h-162A86.51,86.51,0,0,1,904.57,425.29Z"/><path class="cls-1" d="M1155.59,490.14q-10.2-10.22-34.23-23.18-15.1-9.57-19.78-14.46a27.44,27.44,0,0,1,19.36-46.78q11.46,0,18.48,7.24t8.94,21.47l14.66-6v-.85q0-15.09-11.69-26.78-12.11-12.13-30.39-12.12a42.43,42.43,0,0,0-31.26,13.07,44.25,44.25,0,0,0,0,62.62q8.28,8.28,29.77,20,18.27,11.69,24.24,17.65A35.86,35.86,0,0,1,1155,528.62a37.9,37.9,0,0,1-64.75,27.11q-11.15-11.18-11.15-27.54l-16.8,4.25q0,19.14,16,35.2a54.67,54.67,0,0,0,77.39,0q15.95-16.07,16-39Q1171.54,506.3,1155.59,490.14Z"/><path class="cls-1" d="M503,587.23q-4.68,0-9.39-.42a101.87,101.87,0,0,1-56-179.69h0A101.86,101.86,0,1,1,503,587.23ZM449.08,420.91a83.9,83.9,0,1,0,118.18,10.72,83.33,83.33,0,0,0-118.18-10.72Z"/><rect class="cls-1" x="401.15" y="307.59" width="17.3" height="184.92"/><path class="cls-1" d="M713.22,587.18a101.83,101.83,0,0,1-65.31-180.06h0a101.86,101.86,0,1,1,65.31,180.06ZM653.66,414l5.75,6.89a83.91,83.91,0,1,0,118.18,10.72,83.33,83.33,0,0,0-118.18-10.72Z"/><rect class="cls-1" x="611.48" y="307.59" width="17.3" height="184.92"/></svg>